<svg width="22" height="22" viewBox="0 0 22 22" fill="none" xmlns="http://www.w3.org/2000/svg">
<path d="M8.56277 19.5557C8.65155 19.8182 8.56434 20.1105 8.34591 20.2841C8.22255 20.38 8.08113 20.4271 7.9122 20.4271H7.15241C6.58198 20.4295 6.01234 20.4295 5.4427 20.4263C4.67348 20.4224 3.94984 20.1175 3.4077 19.5675C2.85455 19.0065 2.55363 18.2522 2.55991 17.4437C2.57248 15.947 2.57013 14.425 2.56698 12.9534C2.56541 12.2965 2.56384 11.6389 2.56384 10.982L2.56463 9.09789C2.56541 7.59089 2.5662 6.0831 2.56227 4.5761C2.55991 3.6356 2.88284 2.89075 3.54755 2.29753C4.08655 1.81589 4.74263 1.57153 5.4977 1.57153H7.45255H10.2214C11.6553 1.57153 13.0877 1.57153 14.5201 1.57232C15.9336 1.57389 17.0666 2.46175 17.4068 3.83439C17.4539 4.0261 17.4751 4.23668 17.4767 4.51482C17.4791 5.99353 17.4791 7.47303 17.4767 8.95175C17.4759 9.3391 17.307 9.58032 16.9762 9.66832C16.7963 9.71782 16.6022 9.6856 16.4466 9.58032C16.2911 9.4766 16.1881 9.31082 16.1653 9.12539C16.1551 9.04682 16.1496 8.95882 16.1496 8.85825V8.14325C16.1488 6.9521 16.1481 5.76096 16.1496 4.56982C16.1512 3.8776 15.8558 3.37082 15.2712 3.06439C15.0598 2.9536 14.8194 2.89939 14.5358 2.89939H13.2464C10.6685 2.8986 8.08977 2.8986 5.51341 2.90018C4.56505 2.90096 3.89877 3.57668 3.89248 4.5431C3.88855 5.13632 3.88934 5.72953 3.89013 6.32196L3.8917 9.70525C3.89248 12.2667 3.89248 14.8289 3.88934 17.3911C3.88777 17.9945 4.0897 18.4455 4.50613 18.7724C4.78663 18.9924 5.11977 19.0992 5.52363 19.1H6.2127C6.78627 19.0985 7.36141 19.0992 7.93577 19.1016C8.23355 19.1032 8.46691 19.2737 8.56277 19.5557ZM19.4402 13.8224C19.4378 14.4172 19.2194 14.9357 18.7936 15.3632C18.0888 16.0672 17.384 16.7704 16.6792 17.4744C16.0522 18.0998 15.4268 18.7245 14.8006 19.3507C14.6796 19.4709 14.5295 19.5542 14.3409 19.606L13.7131 19.7797C12.9942 19.9777 12.2753 20.1757 11.5579 20.3768C11.2366 20.4672 11.0008 20.4192 10.8123 20.226C10.6213 20.0311 10.5766 19.7938 10.6724 19.4787L10.7588 19.1943C11.0056 18.3803 11.2531 17.5663 11.499 16.7515C11.5516 16.5755 11.6404 16.4278 11.7701 16.299C12.3334 15.7387 12.8952 15.177 13.457 14.616C14.2176 13.8562 14.9773 13.0972 15.7403 12.3413C16.1748 11.91 16.7389 11.6766 17.3141 11.6766C17.4775 11.6766 17.6425 11.6955 17.8043 11.734C18.5217 11.9045 19.0945 12.4348 19.3365 13.1553C19.4064 13.3627 19.4402 13.5812 19.4402 13.8224ZM16.7483 15.5902L15.5635 14.3991L15.481 14.4769C15.4456 14.5099 15.4056 14.5476 15.3678 14.5853L14.7566 15.195C14.1461 15.8047 13.5356 16.4145 12.9219 17.021C12.8025 17.1397 12.7278 17.263 12.6854 17.4115C12.6013 17.7054 12.5118 17.9985 12.4183 18.3049L12.2682 18.7999L12.7703 18.6608C13.1325 18.5602 13.4758 18.4652 13.8216 18.3725C13.9237 18.3442 13.9889 18.2845 14.051 18.22L14.5428 17.7297C15.1973 17.076 15.8518 16.4223 16.5079 15.7702C16.5417 15.7364 16.5849 15.7057 16.6242 15.6798C16.6423 15.668 16.6588 15.6562 16.6737 15.6452L16.7483 15.5902ZM18.1139 13.8805C18.1304 13.6432 18.0401 13.4028 17.8743 13.241C17.7022 13.072 17.4704 12.9801 17.2394 13.0013C17.0673 13.0131 16.8159 13.0862 16.5943 13.3722L16.5519 13.4272L17.6881 14.5672L17.7431 14.5264C17.9646 14.3606 18.0966 14.1312 18.1139 13.8805ZM6.28498 10.0847C6.16634 10.0847 6.0422 10.0926 5.9267 10.1437C5.63598 10.2733 5.48434 10.575 5.54798 10.8956C5.61163 11.2083 5.88584 11.411 6.24805 11.4118C8.04105 11.4126 9.83248 11.4118 11.6278 11.4126H13.7799C13.8333 11.4118 13.8648 11.4126 13.9001 11.4087C14.1806 11.3717 14.3645 11.2311 14.4603 10.9781C14.5381 10.7722 14.5146 10.5546 14.3943 10.381C14.2663 10.1947 14.0518 10.0879 13.8058 10.0871C12.9015 10.084 12.0003 10.084 11.0951 10.0855H9.10334H6.29284C6.29048 10.0847 6.28734 10.0847 6.28498 10.0847ZM11.3159 13.8585C11.4369 13.7344 11.5021 13.5694 11.5006 13.3918C11.4958 13.0194 11.2075 12.7373 10.828 12.7357C9.72798 12.7326 8.62798 12.7318 7.52877 12.7342H6.20877C6.05163 12.7342 5.91177 12.7813 5.79155 12.8725C5.57155 13.0422 5.48041 13.3337 5.56448 13.5992C5.65327 13.8813 5.89841 14.0581 6.20327 14.0605C6.69591 14.0628 7.19013 14.0628 7.68198 14.062H8.50384H9.18663C9.72955 14.0636 10.2756 14.0636 10.8225 14.0605C11.0142 14.0589 11.1886 13.9866 11.3159 13.8585ZM7.7087 8.64768L10.0753 6.28032L12.3295 8.53532C12.5463 8.75218 12.8976 8.75218 13.1144 8.53532C13.3313 8.31846 13.3313 7.96725 13.1144 7.75039L10.4673 5.10332C10.3628 4.9996 10.2222 4.94068 10.0753 4.94068C9.92834 4.94068 9.7877 4.99882 9.6832 5.10332L6.92377 7.86275C6.70691 8.0796 6.70691 8.43082 6.92377 8.64768C7.0322 8.7561 7.17441 8.81032 7.31584 8.81032C7.45727 8.81032 7.60027 8.7561 7.7087 8.64768Z" fill="#ffffff"/>
</svg>
