<svg width="22" height="22" viewBox="0 0 22 22" fill="none" xmlns="http://www.w3.org/2000/svg">
<path d="M20.4211 13.3627C20.4174 14.101 19.9517 14.7832 19.2624 15.0601C18.9297 15.1941 18.5924 15.187 18.2945 15.1811L18.1977 15.1793C18.1871 15.1791 18.1767 15.177 18.1767 15.177C18.173 15.1807 18.1634 15.1978 18.1593 15.2052C16.4695 18.1991 13.9332 19.6906 10.6234 19.6417C10.1637 19.6354 9.68659 19.568 9.16472 19.4357C8.95233 19.3823 8.7884 19.2418 8.71503 19.0501C8.6452 18.8671 8.67002 18.6665 8.78314 18.4997C9.00649 18.1676 9.36769 18.245 9.50391 18.2742C9.66494 18.3083 9.81393 18.3353 9.95921 18.357L10.0094 18.3644C10.0432 18.3694 10.0769 18.3745 10.1106 18.3786L10.1267 18.3806C10.2288 18.3942 10.34 18.4064 10.4611 18.416C10.5021 18.4195 10.5422 18.4228 10.5837 18.4246C10.7739 18.4379 10.9823 18.4428 11.1966 18.4362C11.2501 18.4354 11.3044 18.4328 11.3625 18.43C11.4498 18.4255 11.5371 18.4192 11.6245 18.4111C11.6946 18.4048 11.765 18.3967 11.8349 18.3886C14.3204 18.0876 16.4862 16.4064 17.4873 14.0009L17.499 13.973H18.5716C19.003 13.973 19.2509 13.7049 19.2519 13.2375C19.2525 12.2828 19.2523 11.3287 19.2521 10.3744L19.2519 8.94256C19.2519 8.47023 19 8.19888 18.5608 8.19807C18.2274 8.19707 17.8932 8.19707 17.559 8.19707H17.5285L17.517 8.16881C16.6029 5.91241 14.6893 4.28113 12.3962 3.80491C12.342 3.79332 12.2878 3.78181 12.2335 3.77203L12.2416 3.72747L12.2178 3.76922C10.5361 3.45005 8.81376 3.78833 7.3686 4.72158L7.35212 4.73227C7.31652 4.75455 7.28174 4.77764 7.24615 4.80237C6.77273 5.11357 6.33283 5.48772 5.93848 5.91458L5.92508 5.92917H5.91539C5.61206 6.26338 5.34986 6.61008 5.11591 6.98613L5.07434 7.05524C4.8567 7.40765 4.66704 7.78225 4.51081 8.16881L4.4994 8.19707H3.42903C3.03975 8.19707 2.79548 8.38229 2.72257 8.73216C2.71062 8.79203 2.70899 8.86249 2.70899 8.92988C2.70808 10.3672 2.70808 11.8055 2.70899 13.2437C2.70899 13.7 2.96539 13.9729 3.39461 13.9737H4.52793L4.53952 14.0016C4.90787 14.8856 5.43056 15.6749 6.09336 16.3477C6.13303 16.3882 6.17351 16.4287 6.214 16.4682C6.24552 16.4988 6.27622 16.5286 6.30919 16.5598C6.33663 16.5855 6.36507 16.612 6.39451 16.6379C6.43644 16.6772 6.47928 16.7155 6.52348 16.7525C6.555 16.7795 6.58652 16.8065 6.61849 16.8331C6.67809 16.8841 6.74085 16.9349 6.81123 16.9889C6.87046 17.0365 6.9315 17.0822 6.99608 17.1291C7.115 17.2166 7.27785 17.3364 7.31498 17.5725C7.35592 17.8325 7.26671 18.0513 7.06392 18.1884C6.84573 18.3372 6.60536 18.3261 6.36888 18.156C5.42359 17.4721 4.6406 16.6162 4.04156 15.612C4.0047 15.5503 3.9749 15.4853 3.94601 15.4225L3.93776 15.4045C3.90353 15.329 3.84629 15.2025 3.80816 15.1807C3.80363 15.1782 3.79032 15.1719 3.76976 15.1685L3.60682 15.1684L3.54632 15.1733C3.47386 15.1788 3.39189 15.1846 3.30938 15.1812C3.22977 15.1775 3.14817 15.1693 3.08169 15.1583C2.50221 15.0923 1.98623 14.7091 1.73507 14.1584C1.62639 13.92 1.57141 13.6644 1.57141 13.3987L1.57141 8.75689C1.57141 8.5474 1.60637 8.3418 1.67539 8.1459C1.91911 7.45294 2.55384 6.98722 3.25232 6.98722C3.36735 6.97862 3.49868 6.97825 3.65084 6.98613H3.75834C3.76369 6.97798 3.77057 6.96584 3.77637 6.95371C5.20984 4.1642 7.96483 2.4314 10.9664 2.4314C11.3585 2.4314 11.758 2.46264 12.1535 2.52423C14.6994 2.9241 16.6722 4.30894 18.0167 6.64015C18.1812 6.92572 18.298 6.99972 18.5851 6.99972H18.6204C19.0974 6.99972 19.5423 7.17833 19.873 7.50266C20.2227 7.84493 20.4174 8.31237 20.421 8.81893C20.4311 10.1543 20.4311 11.5981 20.4211 13.3627Z" fill="#130F40"/>
<path d="M8.32965 7.20794H9.70634L10.9946 11.4536L12.2828 7.20794L13.6597 7.20794L15.6983 14.81L15.7136 14.867H13.9699L12.8891 10.4866L11.6209 14.867H10.3682L9.10195 10.4898L8.03838 14.8325L8.02986 14.867H6.28628L8.32965 7.20794Z" fill="#130F40"/>
</svg>
