<svg width="22" height="22" viewBox="0 0 22 22" fill="none" xmlns="http://www.w3.org/2000/svg">
<path d="M10.102 11.5037L3.01483 7.41175C2.95197 7.3756 2.88597 7.3591 2.82155 7.3591C2.61883 7.3591 2.43262 7.52096 2.43262 7.74803V15.9312C2.43262 16.0695 2.50647 16.1984 2.62669 16.2675L9.71383 20.3595C9.77669 20.3957 9.84269 20.4122 9.90712 20.4122C10.1098 20.4122 10.296 20.2503 10.296 20.0232V11.84C10.2968 11.701 10.2222 11.5729 10.102 11.5037ZM9.40347 19.1487L3.32597 15.6397V8.62175L9.40347 12.1307V19.1487ZM19.1785 7.35596C19.1141 7.35596 19.0473 7.37246 18.9853 7.4086L11.8863 11.5069C11.7661 11.576 11.6923 11.7041 11.6923 11.8432V20.0405C11.6923 20.2668 11.8785 20.4295 12.0812 20.4295C12.1456 20.4295 12.2124 20.413 12.2745 20.3768L19.3734 16.2785C19.4936 16.2094 19.5675 16.0813 19.5675 15.9422V7.7441C19.5675 7.51782 19.3813 7.35596 19.1785 7.35596ZM18.6741 15.65L12.5848 19.166V12.1347L18.6741 8.6186V15.65ZM17.743 5.37596L11.2499 1.62653C11.1863 1.5896 11.1148 1.57153 11.0433 1.57153C10.9718 1.57153 10.901 1.5896 10.8366 1.62653L4.34347 5.37596C4.06847 5.53468 4.06847 5.93225 4.34347 6.09096L10.8366 9.8396C10.9003 9.87653 10.9718 9.8946 11.0433 9.8946C11.1148 9.8946 11.1855 9.87653 11.2499 9.8396L17.743 6.09096C18.018 5.93225 18.018 5.53468 17.743 5.37596ZM11.0433 8.86218L5.6234 5.73346L11.0433 2.60475L16.4631 5.73346L11.0433 8.86218ZM12.9596 6.70225C12.804 6.79339 12.5448 6.79339 12.3892 6.70225L12.3043 6.65039C12.2588 6.67632 12.2203 6.69596 12.181 6.7156C12.1032 6.75489 12.0254 6.79339 11.9413 6.8256C11.8635 6.85153 11.7858 6.88375 11.7017 6.90968C11.6302 6.92932 11.5524 6.94896 11.4683 6.97489C11.4424 6.98118 11.4165 6.97489 11.3968 6.96153C11.3316 6.91596 11.2735 6.8641 11.2153 6.81225C11.1635 6.7541 11.1116 6.70225 11.0598 6.64332C11.0472 6.62368 11.0598 6.60403 11.092 6.59146C11.2279 6.55925 11.3575 6.51996 11.4683 6.48146C11.598 6.43589 11.7213 6.37775 11.8384 6.30625C12.0136 6.20253 12.1236 6.1051 12.1566 6.00768C12.1888 5.91025 12.144 5.82618 12.0073 5.74839C11.9421 5.7091 11.8714 5.68318 11.8062 5.6706C11.7347 5.65803 11.6632 5.65803 11.5988 5.65803C11.5273 5.66432 11.4628 5.6706 11.3913 5.69025C11.3198 5.70282 11.2554 5.72246 11.1839 5.7421L10.8272 5.83325C10.6975 5.86546 10.5742 5.89139 10.4508 5.91103C10.3338 5.93068 10.2175 5.93696 10.1004 5.93068C9.9904 5.93068 9.87333 5.91103 9.76333 5.87882C9.64626 5.8466 9.53626 5.80103 9.4129 5.72953C9.2699 5.64546 9.17326 5.5606 9.10805 5.47025C9.0499 5.3791 9.03026 5.28246 9.04283 5.19132C9.05619 5.09389 9.10805 5.00353 9.1984 4.9061C9.20469 4.89275 9.21805 4.88646 9.22433 4.87389L9.08133 4.7961C9.00355 4.75053 8.96426 4.69239 8.96426 4.63425C8.96426 4.56903 9.00355 4.51089 9.08133 4.46532C9.2369 4.37418 9.49619 4.37418 9.65176 4.46532L9.75547 4.52346C9.83955 4.48418 9.91733 4.44568 10.0022 4.41975C10.1452 4.3616 10.2937 4.31603 10.4626 4.26418C10.4885 4.25789 10.5208 4.26418 10.5404 4.27753C10.6575 4.36868 10.7541 4.46532 10.8327 4.5761C10.846 4.59575 10.8264 4.61539 10.8005 4.62168C10.7549 4.63503 10.7164 4.64132 10.6771 4.65389C10.6119 4.66725 10.5538 4.6861 10.4956 4.70575C10.4304 4.73168 10.366 4.7576 10.3008 4.78982C10.2293 4.82203 10.1578 4.86132 10.08 4.90689C10.0281 4.93282 9.98883 4.95875 9.94405 4.99803C9.90476 5.03025 9.87883 5.06325 9.85997 5.10175C9.84033 5.13396 9.84662 5.17325 9.85997 5.21175C9.87962 5.25103 9.92519 5.28953 9.9959 5.3351C10.0478 5.36732 10.1059 5.38696 10.1648 5.39325C10.223 5.4066 10.2819 5.41289 10.34 5.4066C10.4053 5.40032 10.4634 5.39325 10.5215 5.38068C10.5797 5.3681 10.6449 5.35475 10.703 5.3351L11.0535 5.25103C11.2028 5.21175 11.3387 5.17953 11.4754 5.1536C11.605 5.13396 11.7347 5.12139 11.858 5.12139C11.9877 5.12768 12.111 5.14732 12.2407 5.17953C12.3703 5.21882 12.5 5.27068 12.643 5.35475C12.786 5.43253 12.8897 5.52368 12.9541 5.6211C13.0193 5.72482 13.0453 5.82225 13.0319 5.92596C13.0185 6.03596 12.9604 6.13968 12.863 6.25046C12.8496 6.2701 12.837 6.28268 12.8237 6.29603L12.9596 6.37382C13.0374 6.41939 13.0767 6.47753 13.0767 6.54275C13.0759 6.59853 13.0374 6.65668 12.9596 6.70225ZM16.2235 13.109L13.6133 14.616V13.483L16.2235 11.976V13.109ZM17.6472 14.4242L13.6125 16.7539V15.6209L17.6472 13.2912V14.4242ZM6.9489 13.8577L4.33876 12.3507V11.2177L6.9489 12.7247V13.8577ZM8.2634 16.7806L4.22876 14.451V13.318L8.2634 15.6476V16.7806Z" fill="#AE00B9"/>
</svg>
