<svg width="22" height="22" viewBox="0 0 22 22" fill="none" xmlns="http://www.w3.org/2000/svg">
<path fill-rule="evenodd" clip-rule="evenodd" d="M8.9983 13.41L9.1106 13.41L9.35948 13.4107C11.4733 13.422 16.4252 13.6142 16.4252 16.8807C16.4252 19.9092 12.3583 20.3139 9.19479 20.3292L8.63711 20.3289C6.52328 20.3176 1.57141 20.1255 1.57141 16.8599C1.57141 13.7673 5.80955 13.41 8.9983 13.41ZM8.9983 14.8243C5.00907 14.8243 2.9857 15.5097 2.9857 16.8599C2.9857 18.2233 5.00907 18.9153 8.9983 18.9153C12.9875 18.9153 15.0109 18.2299 15.0109 16.8807C15.0109 15.5154 12.9875 14.8243 8.9983 14.8243ZM17.7924 7.24626C18.1828 7.24626 18.4996 7.56306 18.4996 7.9534L18.4995 9.13603L19.7214 9.13678C20.1118 9.13678 20.4286 9.45358 20.4286 9.84393C20.4286 10.2343 20.1118 10.5511 19.7214 10.5511L18.4995 10.5503L18.4996 11.7352C18.4996 12.1255 18.1828 12.4423 17.7924 12.4423C17.4021 12.4423 17.0853 12.1255 17.0853 11.7352L17.0852 10.5503L15.8651 10.5511C15.4748 10.5511 15.158 10.2343 15.158 9.84393C15.158 9.45358 15.4748 9.13678 15.8651 9.13678L17.0852 9.13603L17.0853 7.9534C17.0853 7.56306 17.4021 7.24626 17.7924 7.24626ZM8.9983 1.66577C11.7637 1.66577 14.0124 3.91543 14.0124 6.67989C14.0124 9.44434 11.7637 11.694 8.9983 11.694H8.96907C7.63115 11.6893 6.37715 11.1641 5.43713 10.2175C4.49615 9.26991 3.98041 8.01214 3.98509 6.67706C3.98509 3.91543 6.23384 1.66577 8.9983 1.66577ZM8.9983 3.08006C7.01453 3.08006 5.39938 4.69517 5.39938 6.67989C5.39564 7.64066 5.76524 8.54108 6.43938 9.22088C7.11447 9.89974 8.01395 10.2759 8.9719 10.2797H8.9983C10.983 10.2797 12.5981 8.6646 12.5981 6.67989C12.5981 4.69517 10.983 3.08006 8.9983 3.08006Z" fill="#2B2754"/>
</svg>
