<svg width="24" height="24" viewBox="0 0 24 24" fill="none" xmlns="http://www.w3.org/2000/svg">
<path d="M17.6416 2.54423C15.8005 1.96566 13.6396 2.22709 11.9922 3.22823C10.3019 2.1868 8.24907 1.93738 6.34964 2.54423C2.25764 3.86852 0.979639 8.31623 2.10592 11.8571V11.9797H2.14878C4.00707 17.5271 11.2679 21.5068 11.5765 21.6739C11.7068 21.7477 11.8448 21.7845 11.9999 21.7845C12.1542 21.7845 12.3076 21.7451 12.4311 21.6748C12.5082 21.6328 20.1274 17.4525 21.8905 11.8759C23.0279 8.32737 21.7491 3.86766 17.6416 2.54423ZM11.9999 20.0599L11.9896 20.0539C10.3799 19.1008 5.02192 15.6594 3.65307 11.3925C3.11821 9.74337 3.22707 7.92023 3.94364 6.5188C4.54621 5.34109 5.54735 4.49766 6.84078 4.08023C7.34307 3.91738 7.87792 3.83595 8.43078 3.83595C9.5725 3.83595 10.6585 4.19338 11.5688 4.86966C11.8225 5.06766 12.1842 5.06852 12.4474 4.86966C13.7134 3.88995 15.5571 3.5788 17.1428 4.07938C20.4059 5.12852 21.2339 8.6308 20.3554 11.3934C19.0174 15.6071 13.6302 19.0879 12.0094 20.0539L11.9999 20.0599Z" fill="#FF2D55"/>
</svg>
