<svg width="40" height="40" viewBox="0 0 40 40" fill="none" xmlns="http://www.w3.org/2000/svg">
<path d="M30.5315 34.5614H9.46868C5.88296 34.5614 2.96582 31.6442 2.96582 28.0585C2.96582 24.4728 5.88296 21.5557 9.46868 21.5557H30.5315C34.1172 21.5557 37.0344 24.4728 37.0344 28.0585C37.0344 31.6442 34.1172 34.5614 30.5315 34.5614ZM9.46868 23.6992C7.06439 23.6992 5.10868 25.655 5.10868 28.0592C5.10868 30.4635 7.06439 32.4192 9.46868 32.4192H30.5315C32.9351 32.4192 34.8915 30.4635 34.8915 28.0592C34.8915 25.655 32.9358 23.6992 30.5315 23.6992H9.46868Z" fill="#130F40"/>
<path d="M8.98685 29.3082C8.29685 29.3082 7.73828 28.7489 7.73828 28.0596C7.73828 27.3696 8.29757 26.811 8.98685 26.811C9.67685 26.811 10.2354 27.3703 10.2354 28.0596C10.2354 28.7489 9.67685 29.3082 8.98685 29.3082Z" fill="#130F40"/>
<path d="M13.3091 29.3082C12.6191 29.3082 12.0605 28.7489 12.0605 28.0596C12.0605 27.3696 12.6198 26.811 13.3091 26.811C13.9991 26.811 14.5577 27.3703 14.5577 28.0596C14.5577 28.7489 13.9984 29.3082 13.3091 29.3082Z" fill="#130F40"/>
<path d="M30.9986 29.1915H21.1321C20.5071 29.1915 20 28.6844 20 28.0594C20 27.4344 20.5071 26.9272 21.1321 26.9272H30.9986C31.6236 26.9272 32.1307 27.4344 32.1307 28.0594C32.1307 28.6844 31.6236 29.1915 30.9986 29.1915Z" fill="#130F40"/>
<path d="M30.5315 18.4437H9.46868C5.88296 18.4437 2.96582 15.5266 2.96582 11.9408C2.96582 8.35513 5.88296 5.43799 9.46868 5.43799H30.5315C34.1172 5.43799 37.0344 8.35513 37.0344 11.9408C37.0344 15.5266 34.1172 18.4437 30.5315 18.4437ZM9.46868 7.58156C7.06439 7.58156 5.10868 9.53727 5.10868 11.9416C5.10868 14.3458 7.06439 16.3016 9.46868 16.3016H30.5315C32.9351 16.3016 34.8915 14.3458 34.8915 11.9416C34.8915 9.53727 32.9358 7.58156 30.5315 7.58156H9.46868Z" fill="#130F40"/>
<path d="M8.98685 13.19C8.29685 13.19 7.73828 12.6307 7.73828 11.9414C7.73828 11.2514 8.29757 10.6929 8.98685 10.6929C9.67685 10.6929 10.2354 11.2522 10.2354 11.9414C10.2354 12.6307 9.67685 13.19 8.98685 13.19Z" fill="#130F40"/>
<path d="M13.3091 13.19C12.6191 13.19 12.0605 12.6307 12.0605 11.9414C12.0605 11.2514 12.6198 10.6929 13.3091 10.6929C13.9991 10.6929 14.5577 11.2522 14.5577 11.9414C14.5577 12.6307 13.9984 13.19 13.3091 13.19Z" fill="#130F40"/>
<path d="M30.9986 13.0739H21.1321C20.5071 13.0739 20 12.5667 20 11.9417C20 11.3167 20.5071 10.8096 21.1321 10.8096H30.9986C31.6236 10.8096 32.1307 11.3167 32.1307 11.9417C32.1307 12.5667 31.6236 13.0739 30.9986 13.0739Z" fill="#130F40"/>
</svg>
