<svg width="17" height="16" viewBox="0 0 17 16" fill="none" xmlns="http://www.w3.org/2000/svg">
<path d="M10.1484 7.99852L14.9752 3.17171C15.1959 2.95225 15.318 2.65877 15.318 2.34711C15.318 2.03546 15.1959 1.74328 14.9752 1.52252C14.5363 1.0823 13.7675 1.0797 13.326 1.52252L8.49917 6.34933L3.67236 1.52252C3.21786 1.06802 2.47767 1.06802 2.02317 1.52252C1.56866 1.97702 1.56866 2.71591 2.02317 3.17171L6.84998 7.99852L2.02317 12.8253C1.80241 13.0461 1.68164 13.3396 1.68164 13.6499C1.68164 13.9616 1.80241 14.2551 2.02317 14.4745C2.46468 14.9173 3.23474 14.9147 3.67236 14.4745L8.49917 9.64772L13.326 14.4745C13.5467 14.6953 13.8402 14.8174 14.1506 14.8174C14.4622 14.8174 14.757 14.6953 14.9752 14.4745C15.1959 14.2551 15.318 13.9616 15.318 13.6512C15.318 13.3409 15.1959 13.0461 14.9752 12.8253L10.1484 7.99852Z" fill="#F50303"/>
</svg>
