<svg width="250" height="52" viewBox="0 0 250 52" fill="none" xmlns="http://www.w3.org/2000/svg">
<path d="M28.5 0C44.2401 0 57 12.7599 57 28.5V52H26C11.6406 52 0 40.3594 0 26C0 11.6406 11.6406 0 26 0H28.5ZM28.8271 16.4883C27.38 16.4885 26.207 17.6622 26.207 19.1094V23.4639H21.5361C20.1356 23.4641 19.0003 24.5995 19 26C19.0003 27.4005 20.1356 28.5369 21.5361 28.5371H26.207V32.8916C26.2073 34.3386 27.3801 35.5125 28.8271 35.5127C30.2744 35.5127 31.448 34.3387 31.4482 32.8916V28.5371H36.1182C37.5189 28.5371 38.655 27.4007 38.6553 26C38.655 24.5993 37.5189 23.4639 36.1182 23.4639H31.4482V19.1094C31.4482 17.662 30.2745 16.4883 28.8271 16.4883Z" fill="#EF0000"/>
<path d="M79.61 28.2C80.83 28.46 81.81 29.07 82.55 30.03C83.29 30.97 83.66 32.05 83.66 33.27C83.66 35.03 83.04 36.43 81.8 37.47C80.58 38.49 78.87 39 76.67 39H66.86V17.94H76.34C78.48 17.94 80.15 18.43 81.35 19.41C82.57 20.39 83.18 21.72 83.18 23.4C83.18 24.64 82.85 25.67 82.19 26.49C81.55 27.31 80.69 27.88 79.61 28.2ZM71.99 26.46H75.35C76.19 26.46 76.83 26.28 77.27 25.92C77.73 25.54 77.96 24.99 77.96 24.27C77.96 23.55 77.73 23 77.27 22.62C76.83 22.24 76.19 22.05 75.35 22.05H71.99V26.46ZM75.77 34.86C76.63 34.86 77.29 34.67 77.75 34.29C78.23 33.89 78.47 33.32 78.47 32.58C78.47 31.84 78.22 31.26 77.72 30.84C77.24 30.42 76.57 30.21 75.71 30.21H71.99V34.86H75.77ZM90.5654 16.8V39H85.4354V16.8H90.5654ZM100.703 39.24C99.063 39.24 97.583 38.89 96.263 38.19C94.963 37.49 93.933 36.49 93.173 35.19C92.433 33.89 92.063 32.37 92.063 30.63C92.063 28.91 92.443 27.4 93.203 26.1C93.963 24.78 95.003 23.77 96.323 23.07C97.643 22.37 99.123 22.02 100.763 22.02C102.403 22.02 103.883 22.37 105.203 23.07C106.523 23.77 107.563 24.78 108.323 26.1C109.083 27.4 109.463 28.91 109.463 30.63C109.463 32.35 109.073 33.87 108.293 35.19C107.533 36.49 106.483 37.49 105.143 38.19C103.823 38.89 102.343 39.24 100.703 39.24ZM100.703 34.8C101.683 34.8 102.513 34.44 103.193 33.72C103.893 33 104.243 31.97 104.243 30.63C104.243 29.29 103.903 28.26 103.223 27.54C102.563 26.82 101.743 26.46 100.763 26.46C99.763 26.46 98.933 26.82 98.273 27.54C97.613 28.24 97.283 29.27 97.283 30.63C97.283 31.97 97.603 33 98.243 33.72C98.903 34.44 99.723 34.8 100.703 34.8ZM118.605 39.24C116.965 39.24 115.485 38.89 114.165 38.19C112.865 37.49 111.835 36.49 111.075 35.19C110.335 33.89 109.965 32.37 109.965 30.63C109.965 28.91 110.345 27.4 111.105 26.1C111.865 24.78 112.905 23.77 114.225 23.07C115.545 22.37 117.025 22.02 118.665 22.02C120.305 22.02 121.785 22.37 123.105 23.07C124.425 23.77 125.465 24.78 126.225 26.1C126.985 27.4 127.365 28.91 127.365 30.63C127.365 32.35 126.975 33.87 126.195 35.19C125.435 36.49 124.385 37.49 123.045 38.19C121.725 38.89 120.245 39.24 118.605 39.24ZM118.605 34.8C119.585 34.8 120.415 34.44 121.095 33.72C121.795 33 122.145 31.97 122.145 30.63C122.145 29.29 121.805 28.26 121.125 27.54C120.465 26.82 119.645 26.46 118.665 26.46C117.665 26.46 116.835 26.82 116.175 27.54C115.515 28.24 115.185 29.27 115.185 30.63C115.185 31.97 115.505 33 116.145 33.72C116.805 34.44 117.625 34.8 118.605 34.8ZM127.866 30.6C127.866 28.88 128.186 27.37 128.826 26.07C129.486 24.77 130.376 23.77 131.496 23.07C132.616 22.37 133.866 22.02 135.246 22.02C136.346 22.02 137.346 22.25 138.246 22.71C139.166 23.17 139.886 23.79 140.406 24.57V16.8H145.536V39H140.406V36.6C139.926 37.4 139.236 38.04 138.336 38.52C137.456 39 136.426 39.24 135.246 39.24C133.866 39.24 132.616 38.89 131.496 38.19C130.376 37.47 129.486 36.46 128.826 35.16C128.186 33.84 127.866 32.32 127.866 30.6ZM140.406 30.63C140.406 29.35 140.046 28.34 139.326 27.6C138.626 26.86 137.766 26.49 136.746 26.49C135.726 26.49 134.856 26.86 134.136 27.6C133.436 28.32 133.086 29.32 133.086 30.6C133.086 31.88 133.436 32.9 134.136 33.66C134.856 34.4 135.726 34.77 136.746 34.77C137.766 34.77 138.626 34.4 139.326 33.66C140.046 32.92 140.406 31.91 140.406 30.63ZM161.095 17.94C163.315 17.94 165.255 18.38 166.915 19.26C168.575 20.14 169.855 21.38 170.755 22.98C171.675 24.56 172.135 26.39 172.135 28.47C172.135 30.53 171.675 32.36 170.755 33.96C169.855 35.56 168.565 36.8 166.885 37.68C165.225 38.56 163.295 39 161.095 39H153.205V17.94H161.095ZM160.765 34.56C162.705 34.56 164.215 34.03 165.295 32.97C166.375 31.91 166.915 30.41 166.915 28.47C166.915 26.53 166.375 25.02 165.295 23.94C164.215 22.86 162.705 22.32 160.765 22.32H158.335V34.56H160.765ZM181.422 39.24C179.782 39.24 178.302 38.89 176.982 38.19C175.682 37.49 174.652 36.49 173.892 35.19C173.152 33.89 172.782 32.37 172.782 30.63C172.782 28.91 173.162 27.4 173.922 26.1C174.682 24.78 175.722 23.77 177.042 23.07C178.362 22.37 179.842 22.02 181.482 22.02C183.122 22.02 184.602 22.37 185.922 23.07C187.242 23.77 188.282 24.78 189.042 26.1C189.802 27.4 190.182 28.91 190.182 30.63C190.182 32.35 189.792 33.87 189.012 35.19C188.252 36.49 187.202 37.49 185.862 38.19C184.542 38.89 183.062 39.24 181.422 39.24ZM181.422 34.8C182.402 34.8 183.232 34.44 183.912 33.72C184.612 33 184.962 31.97 184.962 30.63C184.962 29.29 184.622 28.26 183.942 27.54C183.282 26.82 182.462 26.46 181.482 26.46C180.482 26.46 179.652 26.82 178.992 27.54C178.332 28.24 178.002 29.27 178.002 30.63C178.002 31.97 178.322 33 178.962 33.72C179.622 34.44 180.442 34.8 181.422 34.8ZM201.903 22.08C203.863 22.08 205.423 22.72 206.583 24C207.763 25.26 208.353 27 208.353 29.22V39H203.253V29.91C203.253 28.79 202.963 27.92 202.383 27.3C201.803 26.68 201.023 26.37 200.043 26.37C199.063 26.37 198.283 26.68 197.703 27.3C197.123 27.92 196.833 28.79 196.833 29.91V39H191.703V22.26H196.833V24.48C197.353 23.74 198.053 23.16 198.933 22.74C199.813 22.3 200.803 22.08 201.903 22.08ZM218.338 39.24C216.698 39.24 215.218 38.89 213.898 38.19C212.598 37.49 211.568 36.49 210.808 35.19C210.068 33.89 209.698 32.37 209.698 30.63C209.698 28.91 210.078 27.4 210.838 26.1C211.598 24.78 212.638 23.77 213.958 23.07C215.278 22.37 216.758 22.02 218.398 22.02C220.038 22.02 221.518 22.37 222.838 23.07C224.158 23.77 225.198 24.78 225.958 26.1C226.718 27.4 227.098 28.91 227.098 30.63C227.098 32.35 226.708 33.87 225.928 35.19C225.168 36.49 224.118 37.49 222.778 38.19C221.458 38.89 219.978 39.24 218.338 39.24ZM218.338 34.8C219.318 34.8 220.148 34.44 220.828 33.72C221.528 33 221.878 31.97 221.878 30.63C221.878 29.29 221.538 28.26 220.858 27.54C220.198 26.82 219.378 26.46 218.398 26.46C217.398 26.46 216.568 26.82 215.908 27.54C215.248 28.24 214.918 29.27 214.918 30.63C214.918 31.97 215.238 33 215.878 33.72C216.538 34.44 217.358 34.8 218.338 34.8ZM233.75 25.05C234.35 24.13 235.1 23.41 236 22.89C236.9 22.35 237.9 22.08 239 22.08V27.51H237.59C236.31 27.51 235.35 27.79 234.71 28.35C234.07 28.89 233.75 29.85 233.75 31.23V39H228.62V22.26H233.75V25.05Z" fill="#EF0000"/>
</svg>
