<svg width="21" height="21" viewBox="0 0 21 21" fill="none" xmlns="http://www.w3.org/2000/svg">
<path d="M5.133 2.56698C5.133 3.98398 3.984 5.13298 2.567 5.13298C1.15 5.13298 0.000999451 3.98398 0.000999451 2.56698C0.000999451 1.14998 1.15 0.000976562 2.567 0.000976562C3.984 0.000976562 5.133 1.14898 5.133 2.56698Z" fill="#5A577A"/>
<path d="M5.133 10.266C5.133 11.683 3.984 12.832 2.567 12.832C1.15 12.832 0 11.683 0 10.266C0 8.84895 1.149 7.69995 2.566 7.69995C3.983 7.69995 5.133 8.84895 5.133 10.266Z" fill="#5A577A"/>
<path d="M5.133 17.9649C5.133 19.3819 3.984 20.5309 2.567 20.5309C1.15 20.5309 0.000999451 19.3819 0.000999451 17.9649C0.000999451 16.5479 1.15 15.3989 2.567 15.3989C3.984 15.3989 5.133 16.5479 5.133 17.9649Z" fill="#5A577A"/>
<path d="M12.832 2.567C12.832 3.984 11.683 5.133 10.266 5.133C8.849 5.133 7.7 3.984 7.7 2.567C7.7 1.15 8.849 0 10.266 0C11.683 0 12.832 1.149 12.832 2.567Z" fill="#5A577A"/>
<path d="M12.832 10.266C12.832 11.683 11.683 12.832 10.266 12.832C8.849 12.832 7.7 11.683 7.7 10.266C7.7 8.84895 8.849 7.69995 10.266 7.69995C11.683 7.69995 12.832 8.84895 12.832 10.266Z" fill="#5A577A"/>
<path d="M12.832 17.9649C12.832 19.3819 11.683 20.5309 10.266 20.5309C8.849 20.5309 7.7 19.3819 7.7 17.9649C7.7 16.5479 8.849 15.3989 10.266 15.3989C11.683 15.3989 12.832 16.5479 12.832 17.9649Z" fill="#5A577A"/>
<path d="M20.532 2.56698C20.532 3.98398 19.383 5.13298 17.966 5.13298C16.549 5.13298 15.4 3.98398 15.4 2.56698C15.4 1.14998 16.549 0.000977215 17.966 0.000977215C19.383 -2.27853e-05 20.532 1.14898 20.532 2.56698Z" fill="#5A577A"/>
<path d="M20.532 10.266C20.532 11.683 19.383 12.832 17.966 12.832C16.549 12.832 15.4 11.683 15.4 10.266C15.4 8.84895 16.549 7.69995 17.966 7.69995C19.383 7.69995 20.532 8.84895 20.532 10.266Z" fill="#5A577A"/>
<path d="M20.532 17.9649C20.532 19.3819 19.383 20.5309 17.966 20.5309C16.549 20.5309 15.4 19.3819 15.4 17.9649C15.4 16.5479 16.549 15.3989 17.966 15.3989C19.383 15.3989 20.532 16.5479 20.532 17.9649Z" fill="#5A577A"/>
</svg>
