<svg width="21" height="21" viewBox="0 0 21 21" fill="none" xmlns="http://www.w3.org/2000/svg">
<path d="M8.66696 17.0051C9.11688 16.9099 11.8584 16.9099 12.3084 17.0051C12.693 17.094 13.1089 17.3015 13.1089 17.7548C13.0866 18.1862 12.8334 18.5687 12.4837 18.8117C12.0302 19.1652 11.498 19.3891 10.9416 19.4697C10.6339 19.5096 10.3316 19.5105 10.0346 19.4697C9.47735 19.3891 8.94514 19.1652 8.49254 18.8108C8.1419 18.5687 7.88877 18.1862 7.8664 17.7548C7.8664 17.3015 8.28234 17.094 8.66696 17.0051ZM10.5408 1.5C12.4129 1.5 14.3253 2.38832 15.4613 3.8622C16.1984 4.81125 16.5365 5.75939 16.5365 7.23327V7.6167C16.5365 8.74704 16.8352 9.41327 17.4927 10.181C17.9909 10.7467 18.1501 11.4727 18.1501 12.2604C18.1501 13.0472 17.8916 13.7941 17.3737 14.4005C16.6957 15.1275 15.7395 15.5916 14.7636 15.6723C13.3494 15.7928 11.9344 15.8944 10.5005 15.8944C9.06581 15.8944 7.65164 15.8336 6.23748 15.6723C5.26071 15.5916 4.30451 15.1275 3.6274 14.4005C3.1095 13.7941 2.8501 13.0472 2.8501 12.2604C2.8501 11.4727 3.01021 10.7467 3.50754 10.181C4.18555 9.41327 4.46463 8.74704 4.46463 7.6167V7.23327C4.46463 5.71951 4.84209 4.72967 5.61939 3.76068C6.77506 2.34753 8.62751 1.5 10.4603 1.5H10.5408Z" fill="#5A577A"/>
</svg>
