<svg width="100%" height="100%" viewBox="0 0 28 28" fill="none" xmlns="http://www.w3.org/2000/svg">
<path d="M4.7251 5.78V22.21C4.7251 23.96 5.7651 25.4 7.3651 25.86C7.6951 25.95 8.0351 26 8.4151 26H19.7051C21.5751 25.96 23.0151 24.64 23.2751 22.83C23.2751 22.83 23.2751 22.83 23.2751 22.82V14.47C23.2751 12.89 23.2651 11.31 23.2751 9.73C23.2751 9.53 23.2651 9.34 23.2351 9.16V9.13C23.1251 8.37 22.7851 7.72 22.1851 7.15C21.7651 6.77 21.3551 6.38 20.9451 5.99C20.5351 5.6 20.1251 5.21 19.7251 4.82C19.4451 4.55 19.1751 4.29 18.9051 4.03C18.6051 3.73 18.3051 3.44 18.0151 3.14C17.9551 3.08 17.8951 3.02 17.8351 2.97C17.1651 2.29 16.4151 2 15.5051 2H15.2351C14.3951 2.01 13.4651 2.01 12.5051 2.01H12.0151C11.0551 2.01 10.0751 2.01 9.1451 2H8.4051C6.3051 2.02 4.7251 3.63 4.7251 5.78Z" fill="#008BF5"/>
<path opacity="0.302" d="M17.8422 9.526C18.4422 9.496 19.0522 9.466 19.6622 9.436C20.2222 9.406 20.7922 9.376 21.3522 9.346C21.4222 9.346 21.4722 9.276 21.4622 9.206C21.4222 8.906 21.2422 8.696 21.0422 8.496C20.8622 8.306 20.6722 8.126 20.4922 7.946C19.5622 7.036 18.6322 6.116 17.6922 5.196C17.4522 4.956 17.2122 4.726 16.9722 4.486C16.8822 4.396 16.7922 4.316 16.7122 4.226C16.5122 4.036 16.3022 3.926 16.0522 3.886C15.9022 3.856 15.7822 3.946 15.7822 4.096V7.526C15.7822 8.486 16.2622 9.186 17.0322 9.436C17.2722 9.516 17.5422 9.546 17.8422 9.526Z" fill="white"/>
<path d="M11.0532 14.589C11.8152 13.836 12.8572 13.371 14.0052 13.371C15.1532 13.371 16.1952 13.835 16.9482 14.589C17.7102 15.342 18.1742 16.385 18.1742 17.523V19.389C18.1742 19.634 18.0782 19.862 17.9112 20.02C17.7532 20.186 17.5262 20.283 17.2802 20.283H16.8512V17.559H17.3152V17.524C17.3152 16.622 16.9382 15.798 16.3432 15.203C15.7392 14.599 14.9152 14.231 14.0042 14.231C13.0932 14.231 12.2612 14.599 11.6572 15.203C11.0612 15.799 10.6932 16.622 10.6932 17.524V17.559H11.1572V20.283H10.7282C10.4742 20.283 10.2552 20.187 10.0892 20.02C9.93117 19.862 9.82617 19.635 9.82617 19.389V17.523C9.82617 16.384 10.2992 15.342 11.0532 14.589ZM15.4852 17.094H15.7212C15.9052 17.094 16.0712 17.173 16.1852 17.287C16.3082 17.41 16.3782 17.576 16.3782 17.76V20.09C16.3782 20.274 16.3082 20.44 16.1852 20.554C16.0712 20.677 15.9052 20.755 15.7212 20.755H15.4852C15.3622 20.755 15.2572 20.702 15.1782 20.624C15.0992 20.545 15.0552 20.44 15.0552 20.317V17.523C15.0552 17.409 15.0992 17.295 15.1782 17.225C15.2572 17.146 15.3622 17.094 15.4852 17.094ZM12.2882 17.094H12.5162C12.6392 17.094 12.7442 17.147 12.8232 17.225C12.9022 17.295 12.9462 17.409 12.9462 17.523V20.317C12.9462 20.44 12.9022 20.545 12.8232 20.624C12.7442 20.703 12.6392 20.755 12.5162 20.755H12.2882C12.1042 20.755 11.9382 20.676 11.8152 20.554C11.6922 20.44 11.6222 20.274 11.6222 20.09V17.76C11.6222 17.576 11.6922 17.41 11.8152 17.287C11.9372 17.173 12.1042 17.094 12.2882 17.094Z" fill="white"/>
</svg>
