<svg width="100%" height="100%" viewBox="0 0 28 28" fill="none" xmlns="http://www.w3.org/2000/svg">
<path d="M4.7251 5.78V22.21C4.7251 23.96 5.7651 25.4 7.3651 25.86C7.6951 25.95 8.0351 26 8.4151 26H19.7051C21.5751 25.96 23.0151 24.64 23.2751 22.83C23.2751 22.83 23.2751 22.83 23.2751 22.82V14.47C23.2751 12.89 23.2651 11.31 23.2751 9.73C23.2751 9.53 23.2651 9.34 23.2351 9.16V9.13C23.1251 8.37 22.7851 7.72 22.1851 7.15C21.7651 6.77 21.3551 6.38 20.9451 5.99C20.5351 5.6 20.1251 5.21 19.7251 4.82C19.4451 4.55 19.1751 4.29 18.9051 4.03C18.6051 3.73 18.3051 3.44 18.0151 3.14C17.9551 3.08 17.8951 3.02 17.8351 2.97C17.1651 2.29 16.4151 2 15.5051 2H15.2351C14.3951 2.01 13.4651 2.01 12.5051 2.01H12.0151C11.0551 2.01 10.0751 2.01 9.1451 2H8.4051C6.3051 2.02 4.7251 3.63 4.7251 5.78Z" fill="#0263D1"/>
<path opacity="0.302" d="M17.8422 9.526C18.4422 9.496 19.0522 9.466 19.6622 9.436C20.2222 9.406 20.7922 9.376 21.3522 9.346C21.4222 9.346 21.4722 9.276 21.4622 9.206C21.4222 8.906 21.2422 8.696 21.0422 8.496C20.8622 8.306 20.6722 8.126 20.4922 7.946C19.5622 7.036 18.6322 6.116 17.6922 5.196C17.4522 4.956 17.2122 4.726 16.9722 4.486C16.8822 4.396 16.7922 4.316 16.7122 4.226C16.5122 4.036 16.3022 3.926 16.0522 3.886C15.9022 3.856 15.7822 3.946 15.7822 4.096V7.526C15.7822 8.486 16.2622 9.186 17.0322 9.436C17.2722 9.516 17.5422 9.546 17.8422 9.526Z" fill="white"/>
<path d="M7.92383 20.817V16.844H9.33083C9.61183 16.844 9.87483 16.886 10.1168 16.964C10.3598 17.045 10.5798 17.161 10.7768 17.317C10.9738 17.472 11.1298 17.679 11.2428 17.938C11.3558 18.197 11.4138 18.494 11.4138 18.831C11.4138 19.168 11.3558 19.465 11.2428 19.724C11.1298 19.983 10.9738 20.19 10.7768 20.345C10.5798 20.5 10.3598 20.617 10.1168 20.698C9.87383 20.776 9.61183 20.818 9.33083 20.818L7.92383 20.817ZM8.91683 19.953H9.21083C9.36983 19.953 9.51783 19.934 9.65083 19.898C9.78683 19.859 9.90983 19.798 10.0258 19.717C10.1418 19.636 10.2328 19.52 10.2978 19.368C10.3658 19.219 10.3978 19.038 10.3978 18.831C10.3978 18.624 10.3658 18.443 10.2978 18.291C10.2328 18.142 10.1428 18.026 10.0258 17.945C9.90983 17.861 9.78683 17.803 9.65083 17.764C9.51783 17.728 9.36983 17.709 9.21083 17.709H8.91683V19.953ZM13.8248 20.862C13.2258 20.862 12.7308 20.668 12.3398 20.283C11.9488 19.898 11.7538 19.413 11.7538 18.83C11.7538 18.248 11.9478 17.762 12.3398 17.377C12.7308 16.992 13.2258 16.798 13.8248 16.798C14.4138 16.798 14.9018 16.992 15.2938 17.377C15.6818 17.762 15.8758 18.247 15.8758 18.83C15.8758 19.412 15.6818 19.898 15.2938 20.283C14.9028 20.668 14.4138 20.862 13.8248 20.862ZM13.0618 19.668C13.2588 19.888 13.5118 19.998 13.8188 19.998C14.1258 19.998 14.3748 19.888 14.5728 19.668C14.7698 19.445 14.8668 19.167 14.8668 18.83C14.8668 18.493 14.7698 18.215 14.5728 17.992C14.3758 17.772 14.1268 17.662 13.8188 17.662C13.5118 17.662 13.2588 17.772 13.0618 17.992C12.8648 18.215 12.7638 18.493 12.7638 18.83C12.7638 19.167 12.8638 19.445 13.0618 19.668ZM18.2378 20.862C17.6588 20.862 17.1768 20.681 16.7948 20.325C16.4098 19.966 16.2188 19.468 16.2188 18.83C16.2188 18.196 16.4128 17.698 16.8008 17.338C17.1918 16.979 17.6678 16.798 18.2378 16.798C18.7518 16.798 19.1728 16.924 19.5058 17.18C19.8358 17.432 20.0268 17.769 20.0748 18.189L19.0718 18.393C19.0298 18.173 18.9298 17.995 18.7738 17.862C18.6178 17.729 18.4378 17.661 18.2298 17.661C17.9448 17.661 17.7088 17.761 17.5178 17.965C17.3268 18.172 17.2298 18.457 17.2298 18.829C17.2298 19.201 17.3268 19.486 17.5148 19.69C17.7058 19.897 17.9418 19.997 18.2298 19.997C18.4368 19.997 18.6148 19.939 18.7608 19.822C18.9068 19.705 18.9968 19.55 19.0358 19.356L20.0618 19.589C19.9678 19.99 19.7608 20.301 19.4378 20.524C19.1178 20.749 18.7168 20.862 18.2378 20.862Z" fill="white"/>
</svg>
