<svg width="40" height="40" viewBox="0 0 40 40" fill="none" xmlns="http://www.w3.org/2000/svg">
<rect width="40" height="40" rx="10" fill="#14B9FF"/>
<path d="M19.9999 21.9928C21.0259 21.9928 21.8577 21.1314 21.8577 20.0688C21.8577 19.0062 21.0259 18.1448 19.9999 18.1448C18.9739 18.1448 18.1421 19.0062 18.1421 20.0688C18.1421 21.1314 18.9739 21.9928 19.9999 21.9928Z" fill="white" fill-opacity="0.7"/>
<path d="M21.1994 9.10731C20.6961 9.03066 20.2076 9 19.7413 9C14.6859 9 12.0139 13.0319 12.0139 13.0319C10.8075 14.6263 10.1117 16.6116 9.88965 18.9495H13.1908C13.3832 16.7496 14.338 14.9483 16.2033 13.7065C19.1565 11.7365 22.021 12.1428 24.73 14.381C25.4183 13.5455 26.1215 12.6947 26.8246 11.8362C25.3961 10.4181 23.3977 9.3756 21.1994 9.10731Z" fill="white"/>
<path d="M14.6708 20.0533C14.5301 20.0533 14.3895 20.0533 14.2489 20.0533C14.012 20.0533 13.7752 20.0533 13.5309 20.0533H9.49702C9.23056 20.0533 8.9567 20.0533 8.68284 20.0533C8.39417 20.0457 8.17952 20.1453 8.0537 20.4213C7.93527 20.6972 8.02409 20.9195 8.20913 21.1341C8.72725 21.7397 9.23796 22.3529 9.74867 22.9661C10.3704 23.7097 10.9996 24.4532 11.6583 25.2351C11.6953 25.1814 11.7101 25.1354 11.7397 25.0971C12.5983 24.0699 13.4643 23.0428 14.3229 22.0157C14.582 21.7014 14.8484 21.3948 15.1075 21.0805C15.2777 20.8812 15.3221 20.6512 15.2111 20.4059C15.1075 20.176 14.9224 20.0533 14.6708 20.0533Z" fill="white" fill-opacity="0.7"/>
<path d="M18.801 31.03C19.3043 31.1066 19.7928 31.1373 20.2591 31.1373C25.307 31.1373 27.9864 27.1053 27.9864 27.1053C29.1929 25.5186 29.8812 23.5257 30.1107 21.1877H26.817C26.6245 23.3877 25.6697 25.189 23.8045 26.4308C20.8512 28.4008 17.9868 27.9945 15.2778 25.7562C14.5894 26.5918 13.8863 27.4426 13.1831 28.3011C14.6042 29.7192 16.6027 30.7617 18.801 31.03Z" fill="white"/>
<path d="M25.3292 20.0841C25.4699 20.0841 25.6105 20.0841 25.7511 20.0841C25.988 20.0841 26.2248 20.0841 26.4691 20.0841H30.503C30.7695 20.0841 31.0433 20.0841 31.3172 20.0841C31.6058 20.0917 31.8205 19.9921 31.9463 19.7161C32.0647 19.4402 31.9759 19.2179 31.7909 19.0033C31.2728 18.3977 30.7621 17.7845 30.2513 17.1713C29.6296 16.4277 29.0005 15.6842 28.3417 14.9023C28.3047 14.956 28.2899 15.002 28.2603 15.0403C27.4017 16.0675 26.5357 17.0946 25.6771 18.1218C25.4181 18.436 25.1516 18.7426 24.8926 19.0569C24.7223 19.2562 24.6779 19.4862 24.7889 19.7315C24.8926 19.9614 25.0776 20.0841 25.3292 20.0841Z" fill="white" fill-opacity="0.7"/>
</svg>
