<svg width="28" height="28" viewBox="0 0 28 28" fill="none" xmlns="http://www.w3.org/2000/svg">
<path fill-rule="evenodd" clip-rule="evenodd" d="M14 24.7C19.9094 24.7 24.7 19.9094 24.7 14C24.7 8.09055 19.9094 3.3 14 3.3C8.09055 3.3 3.3 8.09055 3.3 14C3.3 19.9094 8.09055 24.7 14 24.7ZM26 14C26 20.6274 20.6274 26 14 26C7.37258 26 2 20.6274 2 14C2 7.37258 7.37258 2 14 2C20.6274 2 26 7.37258 26 14Z" fill="#dc2626"/>
<path d="M15.4092 10.4428H15.4102L14.602 15.8367H14.601C14.5528 16.2044 14.4202 16.4834 14 16.4834C13.5798 16.4834 13.4472 16.2044 13.399 15.8367H13.3979L12.5899 10.4428H12.5908C12.5786 10.3491 12.5715 10.2526 12.5715 10.1538C12.5715 9.27987 13.0523 8.57141 14.0001 8.57141C14.9478 8.57141 15.4287 9.27987 15.4287 10.1538C15.4284 10.2527 15.4215 10.3491 15.4092 10.4428ZM13.9999 17.5384C13.2628 17.5384 12.8888 18.0894 12.8888 18.7692C12.8888 19.449 13.2628 20 13.9999 20C14.737 20 15.111 19.449 15.111 18.7692C15.111 18.0894 14.737 17.5384 13.9999 17.5384Z" fill="#dc2626"/>
</svg>
