<svg width="24" height="24" viewBox="0 0 24 24" fill="none" xmlns="http://www.w3.org/2000/svg">
<rect width="24" height="24" rx="12" fill="#AE00B9" fill-opacity="0.1"/>
<path fill-rule="evenodd" clip-rule="evenodd" d="M8.73066 7.89437C8.73066 5.75187 10.4268 4 12.5011 4C14.5754 4 16.2716 5.75187 16.2716 7.89437C16.2716 10.0375 14.5754 11.7887 12.5011 11.7887C10.4268 11.7887 8.73066 10.0375 8.73066 7.89437ZM18.5934 14.1869C18.7416 14.4081 18.8736 14.6462 18.9722 14.9012C19.0218 15.0031 19.0049 15.1225 18.9226 15.2244C18.7907 15.4625 18.6424 15.6838 18.4778 15.9044C18.2473 16.2275 17.984 16.5169 17.7202 16.7887C17.4897 17.0269 17.2264 17.265 16.9626 17.4687C15.6628 18.4725 14.0986 19 12.4848 19C10.8709 19 9.30672 18.4725 8.00634 17.4694C7.74311 17.2481 7.47928 17.0269 7.24873 16.7894C6.96857 16.5175 6.72168 16.2281 6.49113 15.905C6.34288 15.7013 6.17829 15.4625 6.04637 15.225C5.99676 15.1231 5.98042 15.0038 6.03004 14.9019C6.12867 14.6638 6.26058 14.4087 6.40884 14.1875C7.1495 13.0312 8.33552 12.2656 9.65285 12.0787C9.81744 12.0444 9.99837 12.0956 10.1303 12.1975C10.8219 12.725 11.6449 12.9969 12.5011 12.9969C13.3574 12.9969 14.1809 12.725 14.8719 12.1975C15.0039 12.0956 15.1848 12.0612 15.3494 12.0787C16.6673 12.265 17.8364 13.0306 18.5934 14.1869Z" fill="#AE00B9"/>
</svg>
