<svg width="100%" height="100%" viewBox="0 0 28 28" fill="none" xmlns="http://www.w3.org/2000/svg">
<path d="M4.7251 5.78V22.21C4.7251 23.96 5.7651 25.4 7.3651 25.86C7.6951 25.95 8.0351 26 8.4151 26H19.7051C21.5751 25.96 23.0151 24.64 23.2751 22.83C23.2751 22.83 23.2751 22.83 23.2751 22.82V14.47C23.2751 12.89 23.2651 11.31 23.2751 9.73C23.2751 9.53 23.2651 9.34 23.2351 9.16V9.13C23.1251 8.37 22.7851 7.72 22.1851 7.15C21.7651 6.77 21.3551 6.38 20.9451 5.99C20.5351 5.6 20.1251 5.21 19.7251 4.82C19.4451 4.55 19.1751 4.29 18.9051 4.03C18.6051 3.73 18.3051 3.44 18.0151 3.14C17.9551 3.08 17.8951 3.02 17.8351 2.97C17.1651 2.29 16.4151 2 15.5051 2H15.2351C14.3951 2.01 13.4651 2.01 12.5051 2.01H12.0151C11.0551 2.01 10.0751 2.01 9.1451 2H8.4051C6.3051 2.02 4.7251 3.63 4.7251 5.78Z" fill="#0AC963"/>
<path opacity="0.302" d="M17.8422 9.526C18.4422 9.496 19.0522 9.466 19.6622 9.436C20.2222 9.406 20.7922 9.376 21.3522 9.346C21.4222 9.346 21.4722 9.276 21.4622 9.206C21.4222 8.906 21.2422 8.696 21.0422 8.496C20.8622 8.306 20.6722 8.126 20.4922 7.946C19.5622 7.036 18.6322 6.116 17.6922 5.196C17.4522 4.956 17.2122 4.726 16.9722 4.486C16.8822 4.396 16.7922 4.316 16.7122 4.226C16.5122 4.036 16.3022 3.926 16.0522 3.886C15.9022 3.856 15.7822 3.946 15.7822 4.096V7.526C15.7822 8.486 16.2622 9.186 17.0322 9.436C17.2722 9.516 17.5422 9.546 17.8422 9.526Z" fill="white"/>
<path d="M14.0002 20.83C13.0232 20.83 12.0462 20.83 11.0702 20.83C10.5292 20.83 10.1362 20.503 10.0392 19.97C10.0282 19.912 10.0312 19.852 10.0312 19.792C10.0312 18.49 10.0302 17.187 10.0312 15.885C10.0312 15.312 10.4682 14.876 11.0432 14.876C13.0152 14.875 14.9862 14.875 16.9582 14.876C17.5332 14.876 17.9702 15.311 17.9702 15.886C17.9712 17.199 17.9712 18.512 17.9702 19.824C17.9702 20.393 17.5332 20.83 16.9622 20.83C15.9752 20.831 14.9872 20.83 14.0002 20.83ZM17.3032 18.49C17.3052 18.448 17.3072 18.425 17.3072 18.403C17.3072 17.571 17.3072 16.739 17.3072 15.907C17.3072 15.667 17.1782 15.539 16.9382 15.539C14.9792 15.539 13.0202 15.539 11.0612 15.539C10.8212 15.539 10.6932 15.668 10.6932 15.907C10.6932 16.959 10.6932 18.011 10.6932 19.062C10.6932 19.086 10.6962 19.11 10.6972 19.134C10.7052 19.139 10.7122 19.143 10.7202 19.148C10.7382 19.123 10.7532 19.095 10.7742 19.074C11.1532 18.693 11.5342 18.314 11.9142 17.933C12.0412 17.806 12.1902 17.736 12.3722 17.744C12.5332 17.751 12.6642 17.819 12.7762 17.932C12.9062 18.064 13.0382 18.194 13.1712 18.328C13.1982 18.303 13.2182 18.284 13.2382 18.264C13.7282 17.774 14.2172 17.285 14.7072 16.795C14.9902 16.512 15.3242 16.511 15.6062 16.793C15.9212 17.107 16.2352 17.422 16.5492 17.736C16.7962 17.982 17.0422 18.229 17.3032 18.49ZM11.9552 15.991C11.6092 15.99 11.3262 16.27 11.3242 16.615C11.3222 16.965 11.6032 17.247 11.9532 17.246C12.3012 17.246 12.5782 16.968 12.5782 16.62C12.5792 16.272 12.3012 15.991 11.9552 15.991Z" fill="white"/>
</svg>
