<svg width="100%" height="100%" viewBox="0 0 28 28" fill="none" xmlns="http://www.w3.org/2000/svg">
<path d="M4.7251 5.78V22.21C4.7251 23.96 5.7651 25.4 7.3651 25.86C7.6951 25.95 8.0351 26 8.4151 26H19.7051C21.5751 25.96 23.0151 24.64 23.2751 22.83C23.2751 22.83 23.2751 22.83 23.2751 22.82V14.47C23.2751 12.89 23.2651 11.31 23.2751 9.73C23.2751 9.53 23.2651 9.34 23.2351 9.16V9.13C23.1251 8.37 22.7851 7.72 22.1851 7.15C21.7651 6.77 21.3551 6.38 20.9451 5.99C20.5351 5.6 20.1251 5.21 19.7251 4.82C19.4451 4.55 19.1751 4.29 18.9051 4.03C18.6051 3.73 18.3051 3.44 18.0151 3.14C17.9551 3.08 17.8951 3.02 17.8351 2.97C17.1651 2.29 16.4151 2 15.5051 2H15.2351C14.3951 2.01 13.4651 2.01 12.5051 2.01H12.0151C11.0551 2.01 10.0751 2.01 9.1451 2H8.4051C6.3051 2.02 4.7251 3.63 4.7251 5.78Z" fill="#251D36"/>
<path opacity="0.302" d="M17.8422 9.526C18.4422 9.496 19.0522 9.466 19.6622 9.436C20.2222 9.406 20.7922 9.376 21.3522 9.346C21.4222 9.346 21.4722 9.276 21.4622 9.206C21.4222 8.906 21.2422 8.696 21.0422 8.496C20.8622 8.306 20.6722 8.126 20.4922 7.946C19.5622 7.036 18.6322 6.116 17.6922 5.196C17.4522 4.956 17.2122 4.726 16.9722 4.486C16.8822 4.396 16.7922 4.316 16.7122 4.226C16.5122 4.036 16.3022 3.926 16.0522 3.886C15.9022 3.856 15.7822 3.946 15.7822 4.096V7.526C15.7822 8.486 16.2622 9.186 17.0322 9.436C17.2722 9.516 17.5422 9.546 17.8422 9.526Z" fill="white"/>
<path d="M9.55901 20.938V17.526H8.31201V16.578H11.916V17.526H10.675V20.938H9.55901ZM15.97 20.938H14.801L14.003 19.6L13.205 20.937H12.03L13.415 18.61L12.204 16.577H13.373L14.003 17.632L14.627 16.577H15.802L14.591 18.616L15.97 20.938ZM17.325 20.938V17.526H16.084V16.578H19.688V17.526H18.441V20.938H17.325Z" fill="white"/>
</svg>
