<svg width="24" height="24" viewBox="0 0 24 24" fill="none" xmlns="http://www.w3.org/2000/svg">
<rect width="24" height="24" rx="12" fill="#FF6C2C" fill-opacity="0.1"/>
<path d="M8.25463 8.93808H11.4708L10.9728 10.9366C10.8967 11.2151 10.7543 11.4389 10.5459 11.6077C10.3371 11.777 10.0951 11.8614 9.82011 11.8614H8.3258C7.98424 11.8614 7.68288 11.9657 7.42214 12.1746C7.16099 12.3834 6.97855 12.6667 6.87421 13.0247C6.80777 13.2932 6.80063 13.5467 6.8529 13.7853C6.90497 14.0239 6.99745 14.2354 7.13033 14.4191C7.26312 14.6032 7.4339 14.7499 7.64278 14.8592C7.85125 14.9688 8.07903 15.0231 8.3258 15.0231H9.2365C9.40738 15.0231 9.5472 15.0954 9.65636 15.2394C9.76533 15.3837 9.79629 15.5451 9.74884 15.7241L9.1797 17.9315H8.18357C7.50044 17.9315 6.8718 17.7749 6.29784 17.4617C5.72378 17.1485 5.24702 16.7335 4.86766 16.2163C4.48811 15.6995 4.22947 15.1104 4.09206 14.4491C3.95445 13.7879 3.97114 13.1092 4.14192 12.4131L4.19881 12.1895C4.31909 11.7188 4.51388 11.2726 4.77509 10.8695C5.03603 10.4669 5.34432 10.1238 5.70016 9.84047C6.05589 9.55709 6.45204 9.33587 6.88849 9.17679C7.32474 9.01783 7.78009 8.93808 8.25463 8.93808ZM9.8769 17.9314L12.6804 6.92483C12.7562 6.6465 12.8985 6.42286 13.1074 6.25367C13.3158 6.08459 13.5577 6 13.8331 6H16.8074C17.4905 6 18.1188 6.15665 18.693 6.46984C19.2668 6.78303 19.7436 7.1983 20.1231 7.71513C20.5025 8.23227 20.7636 8.82136 20.9059 9.48251C21.0482 10.1439 21.029 10.8225 20.8489 11.5183L20.7921 11.7421C20.6687 12.2193 20.479 12.6593 20.2229 13.062C19.9665 13.4647 19.6607 13.8103 19.3049 14.0985C18.9491 14.387 18.5528 14.6107 18.1166 14.7696C17.6801 14.9289 17.2247 15.0083 16.7505 15.0083H14.1747L14.6869 12.9948C14.7628 12.7264 14.905 12.5078 15.1139 12.3385C15.3225 12.1697 15.5643 12.0851 15.8397 12.0851H16.6651C17.0066 12.0851 17.3126 11.9757 17.5828 11.7569C17.8533 11.5383 18.0312 11.2549 18.1166 10.9068C18.1829 10.6584 18.19 10.4146 18.138 10.176C18.0857 9.93739 17.9933 9.72617 17.8604 9.54213C17.7275 9.3583 17.5567 9.20924 17.3481 9.09473C17.1394 8.98054 16.9117 8.92323 16.6651 8.92323H15.0711L12.9934 17.0218C12.9173 17.2902 12.7749 17.509 12.5664 17.678C12.3577 17.8471 12.1204 17.9315 11.8548 17.9315L9.8769 17.9314Z" fill="#FF6C2C"/>
</svg>
