<svg width="24" height="24" viewBox="0 0 24 24" fill="none" xmlns="http://www.w3.org/2000/svg">
<rect width="24" height="24" rx="12" fill="#AE00B9" fill-opacity="0.1"/>
<path d="M6.61752 7.89663C6.63956 7.91011 6.66283 7.92481 6.6812 7.94441C6.93099 8.20286 7.18079 8.46132 7.43059 8.721C8.76895 10.1101 10.1086 11.4991 11.4469 12.8894L11.6416 13.0915C11.7653 13.2201 11.8828 13.2838 12.0016 13.2838C12.1192 13.2838 12.2355 13.2213 12.3579 13.0951L13.5444 11.8629C14.3343 11.0422 15.1253 10.2227 15.9163 9.40327C16.2518 9.05662 16.5947 8.7063 16.9265 8.36822L16.9571 8.3376C17.1004 8.19061 17.2449 8.04485 17.3894 7.89663H17.3857L18.1461 7.11759C17.9882 7.04165 17.8118 7 17.6294 7H6.37263C6.19998 7 6.03344 7.03552 5.87793 7.10657L6.63712 7.89663H6.61752Z" fill="#AE00B9"/>
<path d="M6.01436 15.4384L9.36924 11.9988L5.24421 7.76678C5.21604 7.83293 5.194 7.90275 5.17686 7.97502L5.17441 7.98482C5.1536 8.07791 5.14258 8.17468 5.14258 8.27022V15.7275C5.14258 15.8194 5.15237 15.91 5.17074 15.9982C5.18666 16.0778 5.21115 16.155 5.24175 16.2272L6.01436 15.4359V15.4384Z" fill="#AE00B9"/>
<path d="M16.7901 15.5254C15.8571 14.5675 14.9264 13.6121 13.9971 12.6591L13.8342 12.8269C13.7191 12.9457 13.6016 13.067 13.484 13.1882C13.4154 13.2593 13.3468 13.3315 13.2783 13.4026C13.162 13.5239 13.0456 13.6451 12.9281 13.7639C12.6721 14.0261 12.3428 14.1706 12.0011 14.1706H11.9999C11.6571 14.1706 11.3277 14.0249 11.0717 13.7627C10.9481 13.6353 10.8256 13.5079 10.702 13.3793C10.6248 13.2985 10.5477 13.2177 10.4693 13.1368C10.3603 13.0229 10.2501 12.9102 10.1448 12.8012L10.0016 12.6542L7.15338 15.5731L5.87012 16.885C6.0244 16.9573 6.19583 16.9977 6.37216 16.9977H17.6289C17.7991 16.9977 17.9668 16.961 18.1211 16.8911L17.3509 16.0998C17.1636 15.9075 16.9775 15.7165 16.7901 15.5254Z" fill="#AE00B9"/>
<path d="M18.8365 8.03505C18.8194 7.94196 18.7924 7.85254 18.7569 7.76802L14.6328 11.9964C15.5855 12.9739 16.5357 13.9465 17.4773 14.9129L17.5557 14.9938C17.7026 15.1432 17.8471 15.2926 17.9928 15.4409V15.4372L18.7618 16.2199C18.79 16.1538 18.8108 16.0851 18.8267 16.0153L18.828 16.0055C18.8476 15.9149 18.8573 15.8218 18.8573 15.7275V8.27024C18.8573 8.19184 18.8512 8.11222 18.8365 8.03505Z" fill="#AE00B9"/>
</svg>
