<svg width="24" height="24" viewBox="0 0 24 24" fill="none" xmlns="http://www.w3.org/2000/svg">
<rect width="24" height="24" rx="12" fill="#AE00B9" fill-opacity="0.1"/>
<path fill-rule="evenodd" clip-rule="evenodd" d="M7.94071 8.154C7.94071 5.86867 9.76731 4 12.0012 4C14.2351 4 16.0617 5.86867 16.0617 8.154C16.0617 10.44 14.2351 12.308 12.0012 12.308C9.76731 12.308 7.94071 10.44 7.94071 8.154ZM18.5621 14.866C18.7218 15.102 18.8638 15.356 18.9701 15.628C19.0235 15.7367 19.0052 15.864 18.9166 15.9727C18.7746 16.2267 18.6149 16.4627 18.4377 16.698C18.1894 17.0427 17.9059 17.3513 17.6218 17.6413C17.3735 17.8953 17.09 18.1493 16.8059 18.3667C15.4061 19.4373 13.7216 20 11.9836 20C10.2456 20 8.56109 19.4373 7.16067 18.3673C6.8772 18.1313 6.59307 17.8953 6.34479 17.642C6.04307 17.352 5.77719 17.0433 5.52891 16.6987C5.36926 16.4813 5.192 16.2267 5.04994 15.9733C4.99651 15.8647 4.97891 15.7373 5.03235 15.6287C5.13857 15.3747 5.28063 15.1027 5.44029 14.8667C6.23792 13.6333 7.51517 12.8167 8.93384 12.6173C9.11109 12.5807 9.30594 12.6353 9.448 12.744C10.1928 13.3067 11.0791 13.5967 12.0012 13.5967C12.9233 13.5967 13.8102 13.3067 14.5544 12.744C14.6965 12.6353 14.8913 12.5987 15.0686 12.6173C16.4879 12.816 17.7469 13.6327 18.5621 14.866Z" fill="#AE00B9"/>
</svg>
