<svg width="30" height="30" viewBox="0 0 30 30" fill="none" xmlns="http://www.w3.org/2000/svg">
<g clip-path="url(#clip0_4241_2559)">
<path d="M19.5196 9.495C20.0632 9.495 20.5054 9.93714 20.5054 10.4807V10.9661V12.2161V14.1339V15.3839V17.3018V18.5518V19.52C20.5054 20.0636 20.0632 20.5057 19.5196 20.5057H18.7793H17.5293H15.6114H14.3614H12.4436H11.1936H10.4804C9.93679 20.5057 9.49464 20.0636 9.49464 19.52V18.5518V17.3018V15.3839V14.1339V12.2161V10.9661V10.4807C9.49464 9.93714 9.93679 9.495 10.4804 9.495H11.1936H12.4436H14.3614H15.6114H17.5564H18.8064H19.5196ZM18.1679 5C17.8304 5 17.5564 5.27357 17.5564 5.61143V8.245H15.6114V5.61143C15.6114 5.27357 15.3375 5 15 5C14.6625 5 14.3886 5.27357 14.3886 5.61143V8.245H12.4436V5.61143C12.4436 5.27357 12.17 5 11.8321 5C11.4943 5 11.2207 5.27357 11.2207 5.61143V8.245H10.4804C9.24571 8.245 8.24464 9.24607 8.24464 10.4807V10.9932H5.61143C5.27357 10.9932 5 11.2668 5 11.6046C5 11.9425 5.27357 12.2161 5.61143 12.2161H8.245V14.1611H5.61143C5.27357 14.1607 5 14.4346 5 14.7721C5 15.1096 5.27357 15.3836 5.61143 15.3836H8.245V17.3286H5.61143C5.27357 17.3286 5 17.6021 5 17.94C5 18.2779 5.27357 18.5514 5.61143 18.5514H8.245V19.5196C8.245 20.7543 9.24607 21.7554 10.4807 21.7554H11.2211V24.3889C11.2211 24.7264 11.4946 25.0004 11.8325 25.0004C12.1704 25.0004 12.4439 24.7268 12.4439 24.3889V21.7554H14.3889V24.3889C14.3886 24.7264 14.6625 25 15 25C15.3375 25 15.6114 24.7264 15.6114 24.3886V21.755H17.5564V24.3886C17.5564 24.7261 17.83 25 18.1679 25C18.5057 25 18.7793 24.7264 18.7793 24.3886V21.755H19.5196C20.7543 21.755 21.7554 20.7539 21.7554 19.5193V18.5511H24.3889C24.7264 18.5511 25.0004 18.2775 25.0004 17.9396C25.0004 17.6018 24.7268 17.3282 24.3889 17.3282H21.7554V15.3832H24.3889C24.7264 15.3832 25.0004 15.1096 25.0004 14.7718C25.0004 14.4339 24.7268 14.1604 24.3889 14.1604H21.7554V12.2154H24.3889C24.7264 12.2154 25.0004 11.9418 25.0004 11.6039C25.0004 11.2661 24.7268 10.9925 24.3889 10.9925H21.7554V10.48C21.7554 9.24536 20.7543 8.24429 19.5196 8.24429H18.7793V5.61143C18.7793 5.27357 18.5054 5 18.1679 5Z" fill="#AE00B9"/>
<path d="M10.8554 11.5018C11.2124 11.5018 11.5018 11.2124 11.5018 10.8554C11.5018 10.4984 11.2124 10.209 10.8554 10.209C10.4983 10.209 10.2089 10.4984 10.2089 10.8554C10.2089 11.2124 10.4983 11.5018 10.8554 11.5018Z" fill="#AE00B9"/>
<path d="M19.1446 11.5018C19.5017 11.5018 19.7911 11.2124 19.7911 10.8554C19.7911 10.4984 19.5017 10.209 19.1446 10.209C18.7876 10.209 18.4982 10.4984 18.4982 10.8554C18.4982 11.2124 18.7876 11.5018 19.1446 11.5018Z" fill="#AE00B9"/>
<path d="M10.8554 19.7909C11.2124 19.7909 11.5018 19.5015 11.5018 19.1445C11.5018 18.7875 11.2124 18.498 10.8554 18.498C10.4983 18.498 10.2089 18.7875 10.2089 19.1445C10.2089 19.5015 10.4983 19.7909 10.8554 19.7909Z" fill="#AE00B9"/>
<path d="M19.1446 19.7909C19.5017 19.7909 19.7911 19.5015 19.7911 19.1445C19.7911 18.7875 19.5017 18.498 19.1446 18.498C18.7876 18.498 18.4982 18.7875 18.4982 19.1445C18.4982 19.5015 18.7876 19.7909 19.1446 19.7909Z" fill="#AE00B9"/>
<path d="M13.9636 13.3532H13.9457C13.4779 13.3532 13.0421 13.6996 12.935 14.1639C12.8243 14.6389 13.0529 15.1174 13.4886 15.3317C13.5386 15.3532 13.5457 15.3674 13.5457 15.4282C13.5421 15.9317 13.5457 16.0782 13.5457 16.5817V17.471H12.7921C12.51 17.471 12.1764 17.4067 12.1764 17.1246V12.8817C12.1764 12.5996 12.2407 12.5353 12.5229 12.5353H14.2514C14.5407 12.5353 14.6586 12.3889 14.7014 12.2674C14.7514 12.1389 14.7371 12.0067 14.6657 11.9032C14.5836 11.7889 14.4443 11.721 14.2764 11.7174H14.2336C13.6443 11.7139 13.0336 11.7103 12.4336 11.721C12.2586 11.7246 12.0871 11.7639 11.9479 11.8317C11.555 12.021 11.3586 12.3603 11.3586 12.8389C11.3621 13.5889 11.3621 14.3389 11.3621 15.0889L11.3586 16.5424C11.3586 16.7924 11.3586 17.0496 11.3693 17.3067C11.3907 17.8389 11.805 18.2567 12.3336 18.2782C12.5407 18.2889 13.0243 18.2889 13.2314 18.2889H13.8421C14.035 18.2889 14.16 18.2496 14.2421 18.1674C14.3279 18.0817 14.3636 17.9567 14.3636 17.7639V17.2817C14.3671 16.546 14.3671 16.1639 14.3636 15.4282C14.3636 15.3674 14.3707 15.3532 14.4171 15.3282C14.8564 15.1174 15.085 14.6353 14.9707 14.1639C14.8636 13.6996 14.4386 13.3603 13.9636 13.3532ZM13.9564 14.821C13.7243 14.821 13.5386 14.6353 13.5386 14.4032C13.5386 14.171 13.7243 13.9853 13.9564 13.9853C14.185 13.9853 14.3707 14.171 14.3707 14.4032C14.3707 14.6353 14.185 14.821 13.9564 14.821Z" fill="#AE00B9"/>
<path d="M16.0364 16.6496H16.0543C16.5221 16.6496 16.9579 16.3032 17.065 15.8389C17.1757 15.3639 16.9471 14.8853 16.5114 14.671C16.4614 14.6496 16.4543 14.6353 16.4543 14.5746C16.4579 14.071 16.4543 13.9246 16.4543 13.421V12.5317H17.2079C17.49 12.5317 17.8236 12.596 17.8236 12.8782V17.121C17.8236 17.4032 17.7593 17.4674 17.4771 17.4674H15.7486C15.4593 17.4674 15.3414 17.6139 15.2986 17.7353C15.2486 17.8639 15.2629 17.996 15.3343 18.0996C15.4164 18.2139 15.5557 18.2817 15.7236 18.2853H15.7664C16.3557 18.2889 16.9664 18.2924 17.5664 18.2817C17.7414 18.2782 17.9129 18.2389 18.0521 18.171C18.445 17.9817 18.6414 17.6424 18.6414 17.1639C18.6379 16.4139 18.6379 15.6639 18.6379 14.9139L18.6414 13.4603C18.6414 13.2103 18.6414 12.9532 18.6307 12.696C18.6093 12.1639 18.195 11.746 17.6664 11.7246C17.4593 11.7139 16.9757 11.7139 16.7686 11.7139H16.1579C15.965 11.7139 15.84 11.7532 15.7579 11.8353C15.6721 11.921 15.6364 12.046 15.6364 12.2389V12.721C15.6329 13.4567 15.6329 13.8389 15.6364 14.5746C15.6364 14.6353 15.6293 14.6496 15.5829 14.6746C15.1436 14.8853 14.915 15.3674 15.0293 15.8389C15.1364 16.3032 15.5614 16.6424 16.0364 16.6496ZM16.0436 15.1817C16.2757 15.1817 16.4614 15.3674 16.4614 15.5996C16.4614 15.8317 16.2757 16.0174 16.0436 16.0174C15.815 16.0174 15.6293 15.8317 15.6293 15.5996C15.6293 15.3674 15.815 15.1817 16.0436 15.1817Z" fill="#AE00B9"/>
</g>
<defs>
<clipPath id="clip0_4241_2559">
<rect width="20" height="20" fill="white" transform="translate(5 5)"/>
</clipPath>
</defs>
</svg>
