<svg width="20" height="20" viewBox="0 0 20 20" fill="none" xmlns="http://www.w3.org/2000/svg">
<path d="M3.07081 4.84192C3.17724 4.87478 3.29653 4.87906 3.40939 4.87906C7.80296 4.88049 12.1965 4.88049 16.5901 4.88049C16.6537 4.88049 16.718 4.88478 16.7815 4.87763C17.0387 4.84763 17.2208 4.71406 17.3094 4.46906C17.4601 4.05263 17.1522 3.65692 16.6765 3.65692C14.4508 3.65549 12.2251 3.65621 10.0001 3.65621C7.80653 3.65621 5.61296 3.65621 3.41939 3.65621C3.35581 3.65621 3.29153 3.65335 3.22796 3.65764C2.93581 3.67764 2.69724 3.89978 2.65796 4.18621C2.61867 4.47263 2.78867 4.75478 3.07081 4.84192Z" fill="#00BFFF"/>
<path d="M4.35832 2.63797C4.44403 2.65654 4.53546 2.65368 4.62475 2.65368C8.20832 2.6544 11.7919 2.6544 15.3755 2.6544C15.4326 2.6544 15.4905 2.65797 15.5476 2.65225C15.8055 2.62654 15.9897 2.4944 16.0819 2.25154C16.239 1.83725 15.9319 1.43154 15.4605 1.43082C13.6433 1.42868 11.8255 1.43011 10.0083 1.43011C8.81618 1.43011 7.62332 1.43011 6.43117 1.43011C5.78046 1.43011 5.13046 1.42582 4.47975 1.43225C4.15832 1.43511 3.90546 1.68011 3.87903 1.9894C3.85403 2.29154 4.05689 2.57154 4.35832 2.63797Z" fill="#00BFFF"/>
<path d="M3.38131 10.7833C5.58773 10.784 7.79345 10.7833 9.99988 10.7833C12.2063 10.7833 14.412 10.7833 16.6184 10.7833C17.7942 10.7833 18.5706 10.0068 18.5706 8.83112C18.5706 8.62541 18.5706 8.46398 18.5706 8.33255C18.5706 8.20112 18.5706 8.03969 18.5706 7.83398C18.5706 6.65826 17.7942 5.88255 16.6177 5.88184C12.2056 5.88184 7.79345 5.88184 3.38059 5.88184C2.20488 5.88184 1.42845 6.65898 1.42773 7.83398C1.42773 8.03969 1.42773 8.20112 1.42773 8.33255C1.42773 8.46398 1.42773 8.62541 1.42773 8.83112C1.42916 10.0054 2.20702 10.7826 3.38131 10.7833ZM7.75202 7.61112H15.4456C15.8156 7.61112 16.1177 7.91398 16.1177 8.28326C16.1177 8.65255 15.8149 8.95541 15.4456 8.95541H7.75202C7.38202 8.95541 7.07988 8.65255 7.07988 8.28326C7.07988 7.91398 7.38202 7.61112 7.75202 7.61112ZM4.71988 7.08969C5.37916 7.08969 5.91345 7.62398 5.91345 8.28326C5.91345 8.94255 5.37916 9.47684 4.71988 9.47684C4.06059 9.47684 3.52631 8.94255 3.52631 8.28326C3.52702 7.62398 4.06131 7.08969 4.71988 7.08969Z" fill="#00BFFF"/>
<path d="M16.6187 11.7837C12.2066 11.7837 7.79443 11.7837 3.38157 11.7837C2.20585 11.7837 1.42943 12.5608 1.42871 13.7358C1.42871 14.5023 1.42871 14.8115 1.42871 14.9265C1.42871 14.9423 1.42871 14.9615 1.42871 14.9701C1.42871 15.0851 1.42871 15.3951 1.42871 16.1608C1.42871 17.3351 2.20657 18.113 3.38157 18.113C5.588 18.1137 7.79443 18.1137 10.0001 18.1137C12.2066 18.1137 14.4123 18.1137 16.6187 18.1137C17.7944 18.1137 18.5709 17.3373 18.5709 16.1615C18.5709 15.3444 18.5709 15.0444 18.5709 14.9487C18.5709 14.853 18.5709 14.5537 18.5709 13.7358C18.5709 12.5601 17.7944 11.7837 16.6187 11.7837ZM7.41014 13.9458H10.2294C10.4116 13.9458 10.5594 14.0937 10.5594 14.2758C10.5594 14.458 10.4116 14.6058 10.2294 14.6058H7.41014C7.228 14.6058 7.08014 14.458 7.08014 14.2758C7.08014 14.0937 7.228 13.9458 7.41014 13.9458ZM5.51157 15.9444C5.42371 16.1215 5.27728 16.2515 5.07657 16.3323C4.99085 16.3665 4.90228 16.388 4.81585 16.408C4.81657 16.5008 4.81585 16.5873 4.81585 16.6751C4.81585 16.743 4.76157 16.7973 4.69443 16.7973H4.33728C4.27014 16.7973 4.21585 16.743 4.21585 16.6758V16.3944C3.96085 16.3387 3.75014 16.2294 3.57514 16.0665C3.55014 16.0444 3.53585 16.0123 3.53585 15.9787C3.53585 15.9451 3.54943 15.913 3.57371 15.8894L3.83443 15.643C3.878 15.6023 3.94371 15.598 3.99157 15.6351C4.033 15.6665 4.06514 15.6915 4.10014 15.7123C4.30943 15.8365 4.53228 15.8651 4.78157 15.803C4.808 15.7958 4.83371 15.7858 4.85871 15.7744C4.98371 15.7158 5.01585 15.6351 4.96871 15.4951C4.94585 15.4273 4.89157 15.3787 4.803 15.3451C4.66514 15.293 4.52514 15.2458 4.38514 15.1987L4.32585 15.1787C4.18443 15.1308 4.03514 15.0773 3.89871 14.9908C3.49014 14.7315 3.44514 14.2294 3.63728 13.9123C3.73085 13.7587 3.86728 13.6465 4.05371 13.5694C4.09014 13.5544 4.12728 13.543 4.16443 13.5315C4.18157 13.5265 4.198 13.5208 4.21514 13.5158C4.21514 13.4187 4.21514 13.3215 4.21443 13.2244C4.21443 13.1923 4.22657 13.1615 4.24943 13.1387C4.27228 13.1151 4.303 13.1023 4.33514 13.1023H4.69371C4.75943 13.1023 4.81443 13.1565 4.81514 13.2223V13.2837C4.81585 13.3501 4.81657 13.4158 4.81585 13.4823C5.03585 13.5123 5.22228 13.5751 5.39085 13.6751L5.43228 13.7094L5.45514 13.7437L5.43585 13.783L5.21085 14.1315C5.17657 14.1844 5.10728 14.2015 5.053 14.173C4.98085 14.1351 4.90157 14.108 4.813 14.0894C4.618 14.0494 4.44514 14.0608 4.28371 14.1244C4.193 14.1601 4.148 14.2051 4.13657 14.2708C4.11943 14.3708 4.14585 14.4351 4.22585 14.4851C4.31085 14.538 4.40585 14.5701 4.50585 14.603L4.66585 14.6558C4.77443 14.6915 4.883 14.7265 4.98943 14.768C5.17228 14.8387 5.31943 14.9458 5.42585 15.0873C5.51157 15.2008 5.56371 15.3351 5.58085 15.4865C5.60014 15.6615 5.578 15.8108 5.51157 15.9444ZM15.6737 16.0944H7.55514C7.293 16.0944 7.08014 15.8815 7.08014 15.6194C7.08014 15.3573 7.293 15.1444 7.55514 15.1444H15.6737C15.9359 15.1444 16.1487 15.3573 16.1487 15.6194C16.1487 15.8815 15.9359 16.0944 15.6737 16.0944Z" fill="#00BFFF"/>
</svg>
