<svg width="20" height="20" viewBox="0 0 20 20" fill="none" xmlns="http://www.w3.org/2000/svg">
<path d="M7.69136 12.5198C11.0695 12.5198 13.954 13.0554 13.954 15.1985C13.954 17.3408 11.088 17.8958 7.69136 17.8958C4.3132 17.8958 1.42871 17.3603 1.42871 15.218C1.42871 13.0749 4.29468 12.5198 7.69136 12.5198ZM13.0926 11.2293C14.3841 11.2054 15.7726 11.3827 16.2857 11.5086C17.3726 11.7223 18.0876 12.1586 18.3838 12.7926C18.6342 13.3131 18.6342 13.9169 18.3838 14.4365C17.9307 15.4198 16.4699 15.7355 15.9022 15.8171C15.7849 15.8348 15.6906 15.7328 15.7029 15.6149C15.993 12.8901 13.6859 11.5982 13.0891 11.3012C13.0635 11.2879 13.0582 11.2675 13.0609 11.2551C13.0627 11.2462 13.0732 11.232 13.0926 11.2293ZM7.69136 2.14307C9.99137 2.14307 11.8356 3.99625 11.8356 6.31051C11.8356 8.62389 9.99137 10.4788 7.69136 10.4788C5.39135 10.4788 3.54711 8.62389 3.54711 6.31051C3.54711 3.99625 5.39135 2.14307 7.69136 2.14307ZM13.3174 2.83805C15.539 2.83805 17.2836 4.9404 16.6894 7.28215C16.2883 8.85868 14.8364 9.90586 13.2187 9.8633C13.0565 9.85887 12.8969 9.8438 12.7426 9.8172C12.6307 9.79769 12.5743 9.67089 12.6377 9.5769C13.2548 8.66361 13.6066 7.565 13.6066 6.3857C13.6066 5.15498 13.2222 4.0076 12.5549 3.06682C12.5337 3.03756 12.5178 2.99234 12.539 2.95864C12.5566 2.93116 12.5893 2.91697 12.6201 2.90988C12.8449 2.86377 13.0759 2.83805 13.3174 2.83805Z" fill="#FF9100"/>
</svg>
