<svg width="28" height="28" viewBox="0 0 28 28" fill="none" xmlns="http://www.w3.org/2000/svg">
<path fill-rule="evenodd" clip-rule="evenodd" d="M19.4066 10.8843C19.7935 11.1841 19.8641 11.7407 19.5643 12.1276L16.1739 16.503C16.0294 16.6895 15.8164 16.8107 15.5822 16.8397C15.348 16.8686 15.1119 16.803 14.9262 16.6572L11.6782 14.1076L8.75947 17.9001C8.46098 18.288 7.90459 18.3604 7.51673 18.0619C7.12888 17.7634 7.05644 17.207 7.35493 16.8192L10.8194 12.3176C10.9636 12.1302 11.1768 12.0082 11.4115 11.9788C11.6461 11.9493 11.8828 12.015 12.0688 12.161L15.3192 14.7125L18.1633 11.042C18.4631 10.6551 19.0197 10.5845 19.4066 10.8843Z" fill="#515863"/>
<path fill-rule="evenodd" clip-rule="evenodd" d="M22.8156 3.77233C22.0757 3.77233 21.477 4.37105 21.477 5.11092C21.477 5.84993 22.076 6.4495 22.8156 6.4495C23.5551 6.4495 24.1541 5.84993 24.1541 5.11092C24.1541 4.37105 23.5554 3.77233 22.8156 3.77233ZM19.7046 5.11092C19.7046 3.39222 21.0968 2 22.8156 2C24.5343 2 25.9265 3.39222 25.9265 5.11092C25.9265 6.82816 24.5346 8.22184 22.8156 8.22184C21.0965 8.22184 19.7046 6.82816 19.7046 5.11092Z" fill="#515863"/>
<path fill-rule="evenodd" clip-rule="evenodd" d="M5.85517 6.66873C4.4449 8.07899 3.77233 10.4411 3.77233 14.4068C3.77233 18.3731 4.44491 20.7351 5.85514 22.1452C7.26538 23.5554 9.62744 24.2277 13.5932 24.2277C17.5596 24.2277 19.9216 23.5553 21.3317 22.1453C22.7418 20.7352 23.4141 18.3732 23.4141 14.4068C23.4141 13.1275 23.345 12.0063 23.1992 11.0251C23.1272 10.541 23.4614 10.0903 23.9455 10.0183C24.4296 9.94638 24.8803 10.2805 24.9523 10.7646C25.1144 11.8554 25.1864 13.0677 25.1864 14.4068C25.1864 18.4712 24.5207 21.4628 22.5849 23.3985C20.6492 25.3342 17.6577 26 13.5932 26C9.52929 26 6.53782 25.3342 4.60196 23.3985C2.66609 21.4628 2 18.4713 2 14.4068C2 10.3428 2.66611 7.35133 4.60194 5.4155C6.53777 3.47967 9.52921 2.81356 13.5932 2.81356C14.9077 2.81356 16.0991 2.8833 17.1734 3.0392C17.6577 3.10949 17.9934 3.55911 17.9231 4.04345C17.8528 4.5278 17.4032 4.86345 16.9188 4.79316C15.9512 4.65273 14.8485 4.58589 13.5932 4.58589C9.62752 4.58589 7.26544 5.25846 5.85517 6.66873Z" fill="#515863"/>
</svg>
