<svg width="20" height="20" viewBox="0 0 20 20" fill="none" xmlns="http://www.w3.org/2000/svg">
<path d="M17.6237 5.07157C17.3365 5.24585 16.9894 5.35014 16.6237 5.35014C15.5458 5.35014 14.668 4.47014 14.668 3.38943C14.668 3.01443 14.7723 2.66585 14.9551 2.36943C15.303 1.80371 15.9201 1.42871 16.6244 1.42871C17.7023 1.42871 18.5715 2.30871 18.5715 3.38943C18.5715 4.10443 18.1894 4.73157 17.6237 5.07157Z" fill="#F000FF"/>
<path fill-rule="evenodd" clip-rule="evenodd" d="M16.6244 7.09342C17.1637 7.09342 17.6851 6.97128 18.1459 6.75342C18.3373 7.69485 18.4237 8.79271 18.4237 10.0563C18.4237 16.3491 16.198 18.5713 9.92157 18.5713C3.65443 18.5713 1.42871 16.3491 1.42871 10.0563C1.42871 3.76342 3.65443 1.54199 9.92157 1.54199C11.208 1.54199 12.3209 1.63771 13.2773 1.83842C13.0516 2.30914 12.9294 2.83199 12.9294 3.38985C12.9294 5.42842 14.5901 7.09342 16.6244 7.09342ZM11.1651 12.1306L13.7123 8.83628C13.9294 8.54842 13.8773 8.13914 13.5994 7.92128C13.3123 7.69485 12.9037 7.74699 12.678 8.03485L10.5394 10.8063L8.088 8.88056C7.94871 8.77628 7.77514 8.72342 7.60085 8.74985C7.42728 8.76699 7.27085 8.85414 7.16657 8.99414L4.55871 12.3841C4.34157 12.672 4.39371 13.0813 4.68014 13.2991C4.80157 13.3948 4.94085 13.4384 5.08014 13.4384C5.27157 13.4384 5.47157 13.3513 5.593 13.1856L7.79228 10.3184L10.2437 12.2441C10.383 12.3484 10.5566 12.4013 10.7301 12.3748C10.9044 12.357 11.0609 12.2698 11.1651 12.1306Z" fill="#F000FF"/>
</svg>
