<svg width="28" height="28" viewBox="0 0 28 28" fill="none" xmlns="http://www.w3.org/2000/svg">
<path d="M19.3186 11.7972C19.1006 11.8276 18.9074 11.9414 18.7749 12.1178C18.6427 12.2939 18.5866 12.5114 18.6166 12.73C18.6472 12.9471 18.7625 13.1406 18.9414 13.2749C19.0869 13.3842 19.2586 13.4419 19.4343 13.4419C19.4722 13.4419 19.5108 13.4391 19.5489 13.4337C21.9056 13.1033 23.6863 11.0556 23.6913 8.67036C23.6913 6.29972 21.9952 4.30129 19.6584 3.91815C19.6154 3.91129 19.5712 3.90786 19.5273 3.90786C19.1266 3.90786 18.7756 4.20529 18.7109 4.6C18.6371 5.04829 18.9431 5.47407 19.3923 5.54907C20.9264 5.79979 22.0398 7.11229 22.0398 8.6695C22.0372 10.2351 20.8674 11.5799 19.3186 11.7972Z" fill="#5A577A"/>
<path d="M11.1001 14.8174H11.1417C12.775 14.8116 14.3065 14.1703 15.4542 13.0118C16.6058 11.8532 17.236 10.3181 17.2289 8.68927C17.2289 5.30956 14.4796 2.56006 11.1003 2.56006C7.72019 2.56006 4.97026 5.30934 4.97026 8.68884C4.97026 10.3232 5.60862 11.8618 6.76769 13.0206C7.92697 14.1793 9.46554 14.8174 11.1001 14.8174ZM11.1003 4.21134C13.5691 4.21134 15.5776 6.22155 15.5776 8.69248C15.5825 9.88369 15.1229 11.0044 14.2829 11.8483C13.445 12.6932 12.328 13.1612 11.1378 13.1661H11.1001C8.63069 13.1661 6.62155 11.1576 6.62155 8.68884C6.62155 6.22006 8.63069 4.21156 11.1003 4.21134Z" fill="#5A577A"/>
<path d="M22.1118 16.4546C21.6571 16.3939 21.2379 16.7143 21.1719 17.1506C21.1051 17.5999 21.4175 18.0212 21.8684 18.09C23.5143 18.3352 24.3489 18.8308 24.3489 19.5632C24.3489 19.7831 24.3489 20.2982 23.2683 20.7071C23.0624 20.7849 22.8993 20.9383 22.8091 21.1389C22.7182 21.3405 22.7111 21.5653 22.7894 21.7717C22.91 22.0905 23.2201 22.3046 23.5612 22.3046C23.6611 22.3046 23.7596 22.2864 23.8541 22.2508C25.6278 21.5788 26 20.4184 26 19.563C26 18.4106 25.325 16.9357 22.1118 16.4546Z" fill="#5A577A"/>
<path d="M11.1001 17.0205L10.6439 17.0214C4.90828 17.0533 2 18.4749 2 21.2467C2 25.3985 8.47742 25.4321 10.6061 25.4433H11.5565C17.2918 25.4115 20.1999 23.9915 20.1999 21.2227C20.2001 17.456 15.0065 17.0205 11.1001 17.0205ZM18.5488 21.2227C18.5488 22.928 16.0428 23.7926 11.1003 23.7926C6.15757 23.7926 3.6515 22.9361 3.6515 21.2467C3.6515 19.1184 7.70214 18.6718 11.1003 18.6718C16.0426 18.6718 18.5488 19.53 18.5488 21.2227Z" fill="#5A577A"/>
</svg>
