<svg width="28" height="30" viewBox="0 0 28 30" fill="none" xmlns="http://www.w3.org/2000/svg">
<g clip-path="url(#clip0_4241_2579)">
<path d="M10.3579 15.6969H13.9422V14.3615H10.3579V12.0265H14.5779V10.6904H8.96429V19.3104H14.5779V17.9747H10.3579V15.6969Z" fill="#AE00B9"/>
<path d="M21.7182 11.9854L21.7075 11.9658C21.4886 11.564 21.1782 11.2476 20.7846 11.0251C20.3925 10.8029 19.9275 10.6904 19.4021 10.6904H16.0403V19.3101H17.4339V16.0497H19.4021C19.9264 16.0497 20.3914 15.9383 20.7839 15.7179C21.1778 15.4972 21.4886 15.1811 21.7078 14.7797C21.9253 14.3801 22.0357 13.9076 22.0357 13.3758C22.0357 12.8486 21.9289 12.3811 21.7182 11.9854ZM20.29 14.3515C20.0761 14.5954 19.7989 14.714 19.4428 14.714H17.4339V12.0261H19.4428C19.7989 12.0261 20.0761 12.1447 20.29 12.3886C20.5046 12.6336 20.6132 12.9658 20.6132 13.3761C20.6132 13.784 20.5075 14.1033 20.29 14.3515Z" fill="#AE00B9"/>
<path d="M21.7579 6.39286C23.0532 6.39286 24.1071 7.44679 24.1071 8.74214V21.2575C24.1071 22.5529 23.0532 23.6068 21.7579 23.6068H9.24214C7.94679 23.6068 6.89286 22.5529 6.89286 21.2575V8.74214C6.89286 7.44679 7.94679 6.39286 9.24214 6.39286H21.7579ZM21.7579 5H9.24214C7.18393 5 5.5 6.68393 5.5 8.74214V21.2575C5.5 23.3161 7.18393 25 9.24214 25H21.7575C23.8161 25 25.5 23.3161 25.5 21.2579V8.74214C25.5 6.68393 23.8161 5 21.7579 5Z" fill="#AE00B9"/>
</g>
<defs>
<clipPath id="clip0_4241_2579">
<rect width="20" height="20" fill="white" transform="translate(5.5 5)"/>
</clipPath>
</defs>
</svg>
