<svg width="20" height="20" viewBox="0 0 20 20" fill="none" xmlns="http://www.w3.org/2000/svg">
<path d="M10.0034 6.81072C10.4434 6.81072 10.8005 6.45357 10.8005 6.01357C10.8005 5.57357 10.4434 5.21643 10.0034 5.21643H9.99621C9.55621 5.21643 9.20264 5.57357 9.20264 6.01357C9.20264 6.45357 9.56335 6.81072 10.0034 6.81072Z" fill="#5A577A"/>
<path d="M16.9763 14.9464V8.98429C17.8142 8.93786 18.3435 8.58643 18.5235 7.91072C18.5713 7.73 18.5713 7.56429 18.5713 7.26429C18.5713 6.12072 18.0985 5.32572 17.0835 4.76072L13.8049 2.93572C12.0013 1.93215 11.0963 1.42857 9.9999 1.42857C8.90347 1.42857 7.99775 1.93286 6.19275 2.93714L2.91632 4.76072C1.90132 5.325 1.42847 6.12072 1.42847 7.26429C1.42847 7.565 1.42847 7.73143 1.47704 7.91214C1.65632 8.58714 2.18561 8.93857 3.02347 8.985V14.9471C2.07918 15.45 1.42847 16.4329 1.42847 17.575C1.42847 18.1243 1.87561 18.5714 2.4249 18.5714H17.5742C18.1242 18.5714 18.5713 18.1243 18.5713 17.575C18.5713 16.4329 17.9199 15.45 16.9763 14.9464ZM15.5813 14.585H13.787V9.00357H15.7806V14.605C15.7135 14.6 15.6499 14.585 15.5813 14.585ZM12.5913 9.00357V14.585H7.40847V9.00357H12.5913ZM2.63275 7.60572C2.62418 7.56643 2.62418 7.41929 2.62418 7.26429C2.62418 6.555 2.86061 6.16 3.49775 5.80572L6.77418 3.98214C8.39847 3.07786 9.21418 2.62429 9.9999 2.62429C10.7856 2.62429 11.5999 3.07714 13.2256 3.98214L16.502 5.80572C17.1385 6.16 17.3749 6.555 17.3749 7.26429C17.3749 7.42072 17.3749 7.56857 17.367 7.605C17.3428 7.695 17.3135 7.80714 16.8006 7.80714H3.19775C2.68632 7.80714 2.65704 7.695 2.63275 7.60572ZM4.21918 9.00357H6.21275V14.585H4.41847C4.3499 14.585 4.28632 14.6007 4.21918 14.605V9.00357ZM2.63561 17.3757C2.73561 16.48 3.49704 15.7807 4.41847 15.7807H15.5813C16.5035 15.7807 17.2649 16.48 17.3642 17.3757H2.63561Z" fill="#5A577A"/>
</svg>
