<svg
          width="40"
          height="40"
          viewBox="0 0 40 40"
          fill="none"
          xmlns="http://www.w3.org/2000/svg"
        >
          <path
            d="M20.25 24.62C20.8272 24.62 21.1429 24.2872 21.1957 23.6215L21.9315 13.9558C21.9843 13.4129 21.8443 12.9572 21.5115 12.59C21.1786 12.2229 20.75 12.0386 20.2243 12.0386C19.6986 12.0386 19.27 12.2229 18.9372 12.59C18.6215 12.9572 18.4815 13.4129 18.5172 13.9558L19.2786 23.6215C19.33 24.2872 19.6543 24.62 20.25 24.62Z"
            fill="#FFA113"
          />
          <path
            d="M20.4086 26.9629H20.0657C19.5557 26.9629 19.16 27.1043 18.8786 27.3843C18.6143 27.6486 18.4829 28.0343 18.4829 28.5443V28.9929C18.4829 29.5029 18.6143 29.8986 18.8786 30.18C19.16 30.4443 19.5557 30.5758 20.0657 30.5758H20.4086C20.9186 30.5758 21.3057 30.4443 21.5686 30.18C21.85 29.8986 21.99 29.5029 21.99 28.9929V28.5443C21.99 28.0343 21.85 27.6472 21.5686 27.3843C21.3057 27.1029 20.9186 26.9629 20.4086 26.9629Z"
            fill="#FFA113"
          />
          <path
            d="M20 7.25718C20.4772 7.25718 21.6657 7.39004 22.4029 8.61861L34.3086 28.5043C35.0643 29.7672 34.5843 30.8972 34.3429 31.3229C34.1015 31.75 33.38 32.7429 31.9072 32.7429H8.09432C6.62146 32.7429 5.90003 31.75 5.6586 31.3229C5.41717 30.8958 4.93574 29.7672 5.69289 28.5043L17.6 8.61861C18.3343 7.39004 19.5229 7.25718 20 7.25718ZM20 4.82861C18.2643 4.82861 16.5286 5.67576 15.5143 7.37147L3.60717 27.2572C1.52003 30.7429 4.03146 35.1715 8.09289 35.1715H31.9057C35.9672 35.1715 38.4786 30.7415 36.3915 27.2572L24.4857 7.37147C23.4715 5.67576 21.7357 4.82861 20 4.82861Z"
            fill="#FFA113"
          />
        </svg>