<svg width="100%" height="100%" viewBox="0 0 45 45" fill="none" xmlns="http://www.w3.org/2000/svg">
<rect width="45" height="45" rx="8" fill="url(#paint0_linear_1128_2748)" fill-opacity="0.08"/>
<path d="M9.54625 8.18188C8.79311 8.18188 8.18262 8.7924 8.18262 9.54552V20.3182C8.18262 21.0714 8.79311 21.6819 9.54625 21.6819H20.319C21.0721 21.6819 21.6827 21.0714 21.6827 20.3182V9.54552C21.6827 8.7924 21.0721 8.18188 20.319 8.18188H9.54625Z" fill="url(#paint1_linear_1128_2748)"/>
<path d="M9.54625 23.3182C8.79311 23.3182 8.18262 23.9287 8.18262 24.6819V35.4546C8.18262 36.2077 8.79311 36.8182 9.54625 36.8182H20.319C21.0721 36.8182 21.6827 36.2077 21.6827 35.4546V24.6819C21.6827 23.9287 21.0721 23.3182 20.319 23.3182H9.54625Z" fill="url(#paint2_linear_1128_2748)"/>
<path d="M23.3184 9.54552C23.3184 8.7924 23.9289 8.18188 24.6821 8.18188H35.4548C36.2079 8.18188 36.8185 8.7924 36.8185 9.54552V20.3182C36.8185 21.0714 36.2079 21.6819 35.4548 21.6819H24.6821C23.9289 21.6819 23.3184 21.0714 23.3184 20.3182V9.54552Z" fill="url(#paint3_linear_1128_2748)"/>
<path d="M24.6821 23.3182C23.9289 23.3182 23.3184 23.9287 23.3184 24.6819V35.4546C23.3184 36.2077 23.9289 36.8182 24.6821 36.8182H35.4548C36.2079 36.8182 36.8185 36.2077 36.8185 35.4546V24.6819C36.8185 23.9287 36.2079 23.3182 35.4548 23.3182H24.6821Z" fill="url(#paint4_linear_1128_2748)"/>
<defs>
<linearGradient id="paint0_linear_1128_2748" x1="0" y1="0" x2="45" y2="45" gradientUnits="userSpaceOnUse">
<stop stop-color="#130F40" stop-opacity="0"/>
<stop offset="1" stop-color="#130F40"/>
</linearGradient>
<linearGradient id="paint1_linear_1128_2748" x1="8.18262" y1="8.18188" x2="36.819" y2="36.1364" gradientUnits="userSpaceOnUse">
<stop stop-color="#8BCCFF"/>
<stop offset="1" stop-color="#0390FF"/>
</linearGradient>
<linearGradient id="paint2_linear_1128_2748" x1="8.18262" y1="8.18188" x2="36.819" y2="36.1364" gradientUnits="userSpaceOnUse">
<stop stop-color="#8BCCFF"/>
<stop offset="1" stop-color="#0390FF"/>
</linearGradient>
<linearGradient id="paint3_linear_1128_2748" x1="8.18262" y1="8.18188" x2="36.819" y2="36.1364" gradientUnits="userSpaceOnUse">
<stop stop-color="#8BCCFF"/>
<stop offset="1" stop-color="#0390FF"/>
</linearGradient>
<linearGradient id="paint4_linear_1128_2748" x1="8.18262" y1="8.18188" x2="36.819" y2="36.1364" gradientUnits="userSpaceOnUse">
<stop stop-color="#8BCCFF"/>
<stop offset="1" stop-color="#0390FF"/>
</linearGradient>
</defs>
</svg>
