<svg width="20" height="20" viewBox="0 0 20 20" fill="none" xmlns="http://www.w3.org/2000/svg">
<path d="M16.7221 14.3557L16.5393 14.6893C15.2285 17.0836 12.7228 18.5714 9.99997 18.5714C7.28069 18.5714 4.77569 17.0836 3.46069 14.6893L3.27783 14.3557H4.19497L4.26069 14.4671C4.92926 15.6093 5.90497 16.5114 7.09355 17.0879C6.4114 16.3364 5.9114 15.4757 5.67426 14.6421L5.59283 14.3557H6.42497L6.47426 14.5136C6.84926 15.7164 7.82069 16.9236 9.00855 17.6657C9.02283 17.6743 9.03783 17.6843 9.05283 17.6957C9.22497 17.7221 9.41069 17.74 9.61926 17.7507V14.3557H10.4243V17.7457C10.8235 17.7207 11.2257 17.6579 11.6214 17.5586C11.64 17.5271 11.6614 17.4986 11.6871 17.4736C12.5871 16.6086 13.155 15.67 13.475 14.5207L13.5207 14.3557H14.3593L14.2807 14.6407C14.0471 15.4886 13.6964 16.2393 13.21 16.9293C14.2664 16.345 15.1364 15.4971 15.7357 14.4679L15.8007 14.3557H16.7221Z" fill="#5A577A"/>
<path d="M4.26499 5.53213C4.86356 4.50284 5.73428 3.6557 6.79071 3.0707C6.30428 3.7607 5.95285 4.51142 5.71999 5.35927L5.64142 5.64427H6.48071L6.52642 5.47927C6.84642 4.32927 7.41428 3.39142 8.31428 2.52642C8.33999 2.5007 8.36214 2.47213 8.37999 2.44142C8.77428 2.34213 9.17714 2.27927 9.57642 2.25427V5.64427H10.3821V2.24927C10.5886 2.25999 10.7743 2.27784 10.9486 2.30427C10.9636 2.3157 10.9786 2.32642 10.9929 2.33427C12.1807 3.07642 13.1514 4.28427 13.5271 5.48642L13.5764 5.64427H14.4086L14.3264 5.35784C14.0893 4.52427 13.5886 3.66356 12.9071 2.91213C14.0957 3.48927 15.0721 4.39142 15.74 5.53284L15.805 5.64499H16.7221L16.54 5.31142C15.225 2.91642 12.7193 1.42856 9.99999 1.42856C7.27714 1.42856 4.77142 2.91642 3.46071 5.3107L3.27856 5.64427H4.19928L4.26499 5.53213Z" fill="#5A577A"/>
<path d="M19.0713 10.0007V10C19.0713 9.99572 19.0699 9.99143 19.0699 9.98715C19.0692 9.72929 19.0356 9.48143 18.9849 9.24C18.9763 9.205 18.9649 9.16358 18.9499 9.10786C18.9485 9.10215 18.9463 9.09643 18.9449 9.09072C18.8906 8.87786 18.8192 8.67643 18.7299 8.48429C18.7235 8.47072 18.7185 8.45715 18.712 8.44358C18.7085 8.43572 18.7035 8.42858 18.6999 8.42072C18.6335 8.285 18.5613 8.15643 18.4799 8.03358C18.4492 7.98429 18.417 7.92929 18.3899 7.89215C18.3763 7.87 18.362 7.84786 18.347 7.82715L18.2963 7.77358C18.292 7.76858 18.287 7.76358 18.2835 7.75858C18.2563 7.72572 18.2292 7.695 18.2006 7.66358C17.502 6.83429 16.5028 6.35715 15.4285 6.35715H4.57132C2.56275 6.35715 0.928467 7.99143 0.928467 10C0.928467 12.0086 2.56275 13.6429 4.57204 13.6429H15.4292C16.5085 13.6429 17.512 13.1621 18.1785 12.3607C18.2156 12.32 18.2528 12.2807 18.2885 12.2379C18.3113 12.2143 18.3363 12.1857 18.3749 12.13C18.4028 12.0914 18.4278 12.0471 18.4542 12.0064C18.5513 11.865 18.6363 11.7157 18.7128 11.5571C18.7135 11.5557 18.7142 11.555 18.7149 11.5536C18.7163 11.5514 18.717 11.5486 18.7178 11.5464C18.9363 11.085 19.072 10.5643 19.072 10.0021L19.0713 10.0007ZM18.0213 10.4871C18.0156 10.5179 18.007 10.5471 17.9992 10.5764L17.9806 10.6457C17.9549 10.7457 17.927 10.8436 17.8906 10.9393C17.8656 11.0029 17.8385 11.065 17.8113 11.1236C17.7749 11.1986 17.7349 11.2707 17.6885 11.3486C17.6542 11.405 17.6213 11.4614 17.5606 11.5514L17.507 11.6114C17.4292 11.7121 17.3356 11.7929 17.2463 11.8793C16.962 12.1093 16.6235 12.2457 16.2592 12.2457C15.2599 12.2457 14.4463 11.2393 14.4463 10.0007C14.4463 8.76286 15.2592 7.75572 16.2592 7.75572C16.627 7.75572 16.9685 7.89429 17.2549 8.12786C17.342 8.21358 17.4335 8.29215 17.5106 8.39072L17.5642 8.45429C17.6092 8.51643 17.6485 8.58286 17.692 8.65643C17.7349 8.72786 17.7749 8.8 17.8092 8.87143C17.8385 8.93286 17.8656 8.99358 17.8906 9.06072C17.927 9.155 17.9556 9.25286 17.9806 9.35286L17.9992 9.42429C18.007 9.45286 18.0156 9.48143 18.0213 9.51143C18.0542 9.685 18.0699 9.84215 18.0699 9.99215C18.0699 9.995 18.0706 9.99715 18.0706 10C18.0713 10.1521 18.0549 10.3107 18.0213 10.4871ZM1.92847 10C1.92847 8.54286 3.11418 7.35715 4.57132 7.35715H14.6392C13.9199 7.94572 13.4456 8.90929 13.4456 10.0014C13.4456 11.0921 13.9178 12.0536 14.6356 12.6421H4.57132C3.11418 12.6429 1.92847 11.4579 1.92847 10Z" fill="#5A577A"/>
<path d="M8.48561 9.68142V9.07499H4.85132L5.64275 8.43142L5.25989 7.95999L3.51489 9.37785L5.23204 10.7736L5.25989 10.7957L5.64275 10.325L4.85132 9.68142H8.48561Z" fill="#5A577A"/>
<path d="M9.7755 9.20355L9.39264 9.67498L10.1841 10.3186H6.54907V10.9257H10.1834L9.41979 11.5464L9.39193 11.5693L9.75336 12.0121L9.7755 12.04L11.4855 10.6493L11.5198 10.6221L9.7755 9.20355Z" fill="#5A577A"/>
</svg>
