<svg width="58" height="58" viewBox="0 0 58 58" fill="none" xmlns="http://www.w3.org/2000/svg">
<rect width="58" height="58" rx="10" fill="#FF4E3F"/>
<path d="M40.418 23.0778C40.2054 22.9875 40.1482 22.8744 40.1071 22.6698C39.6534 20.4184 38.346 18.7841 36.2225 17.8138C36.1071 17.7612 35.9517 17.7064 35.7745 17.7658C35.498 17.8538 35.3368 18.0504 35.3185 18.3201C35.2991 18.6058 35.4465 18.8172 35.7677 18.9658C37.6397 19.8378 38.7151 21.3166 38.9608 23.3624C39.01 23.7601 39.1997 23.9772 39.5951 24.0869C40.2831 24.2766 40.8454 24.7315 41.1802 25.3658C41.514 25.9978 41.5734 26.7486 41.3425 27.4229C40.962 28.5349 40.0031 29.2001 38.778 29.2035C38.4488 29.2035 38.1951 29.3041 37.9597 29.5258C37.5745 29.8835 37.1734 30.2389 36.7837 30.5818C36.6351 30.7132 36.4854 30.8458 36.3357 30.9784C36.3151 30.9966 36.2922 31.0149 36.2694 31.0344V30.0801C36.2694 29.3944 36.0842 29.2069 35.4077 29.2069C34.5802 29.2081 33.7528 29.2069 32.9254 29.2081C31.2088 29.2104 29.49 29.2104 27.7711 29.2046C26.5837 29.2012 25.4991 28.6686 24.7974 27.7452C24.114 26.8458 23.8945 25.7018 24.1951 24.6046C24.6614 22.9086 26.3402 21.7749 28.09 21.9738C28.4454 22.0115 28.6511 21.9029 28.8191 21.5818C28.834 21.5544 28.8477 21.5258 28.8614 21.4972C28.8751 21.4698 28.8877 21.4435 28.9025 21.4172C29.4831 20.3155 30.3414 19.5029 31.4545 19.0001C31.6442 18.9144 31.8831 18.8081 31.9528 18.5281C32.0145 18.2835 31.954 18.0698 31.7757 17.9086C31.57 17.7258 31.33 17.7006 31.0431 17.8252C29.6808 18.4241 28.6157 19.3944 27.874 20.7109C27.8557 20.7109 27.8362 20.7109 27.818 20.7109C26.2065 20.7109 24.8934 21.3212 23.914 22.5269C22.9494 23.7155 22.6271 25.1292 22.9585 26.7304H21.0694C19.7665 26.7315 18.4637 26.7304 17.1585 26.7315C16.1048 26.7338 15.3048 27.5292 15.298 28.5806C15.2922 29.5658 15.2922 30.4275 15.2991 31.2161C15.306 32.0515 15.8671 32.7601 16.6945 32.9784C16.794 33.0046 16.8945 33.0104 16.9905 33.0161C17.0557 33.0195 17.1197 33.0229 17.1814 33.0332V34.3864C16.618 34.4092 16.1402 34.6149 15.7951 34.9852C15.4328 35.3761 15.2522 35.9166 15.2888 36.5098C15.3174 36.9635 15.3105 37.4309 15.3048 37.8812C15.3014 38.1052 15.298 38.3292 15.298 38.5521V38.6641C15.2957 38.8241 15.2945 38.9886 15.3208 39.1498C15.4831 40.1041 16.2145 40.6961 17.2317 40.6961C22.0648 40.6972 26.8991 40.6972 31.7311 40.6972C31.794 40.6972 31.8591 40.6961 31.9208 40.6926C32.8808 40.6504 33.6454 39.8744 33.6625 38.9258C33.6785 38.0824 33.6785 37.1841 33.6637 36.1829C33.65 35.3258 33.0408 34.6058 32.1791 34.4344C32.0602 34.4104 31.9402 34.4058 31.8248 34.4012C31.7802 34.3989 31.7345 34.3978 31.6911 34.3944V33.0321C31.6991 33.0309 31.706 33.0298 31.7117 33.0298C32.9517 32.9909 33.6648 32.2561 33.6694 31.0115C33.6694 30.9509 33.6671 30.8904 33.6648 30.8298C33.6602 30.7006 33.6545 30.5772 33.6728 30.4618H35.0328V31.0675C35.0328 31.5201 35.0328 31.9658 35.0328 32.4126C35.0328 32.6744 35.1574 32.8686 35.3928 32.9738C35.6145 33.0732 35.8328 33.0435 36.0294 32.8961C36.0728 32.8629 36.1151 32.8264 36.1562 32.7886L36.1962 32.7532C36.4065 32.5658 36.6191 32.3784 36.8305 32.1909C37.3734 31.7098 37.9345 31.2126 38.4774 30.7144C38.6842 30.5246 38.8922 30.4344 39.1711 30.4161C40.9082 30.2949 42.3745 28.9738 42.6568 27.2744C42.9551 25.4915 42.034 23.7658 40.418 23.0778ZM16.5345 36.3281C16.5357 35.8686 16.7654 35.6355 17.2168 35.6355C19.6385 35.6344 22.058 35.6332 24.4785 35.6332C26.8991 35.6332 29.3185 35.6344 31.7391 35.6355C32.2054 35.6355 32.4328 35.8675 32.434 36.3429C32.4351 37.1509 32.4351 37.9566 32.4328 38.7635C32.4317 39.2401 32.2111 39.4618 31.7368 39.4629C30.1242 39.4652 28.5105 39.4652 26.8957 39.4629H24.4751C22.09 39.4652 19.7071 39.4652 17.3197 39.4629C16.7174 39.4629 16.5334 39.2778 16.5334 38.6675L16.5322 37.9989C16.5322 37.4424 16.5322 36.8846 16.5345 36.3281ZM18.4488 34.3886V33.0515H30.4305V34.3886H18.4488ZM32.4282 30.6595C32.434 30.8846 32.4397 31.0961 32.418 31.3075C32.3917 31.5772 32.1597 31.7772 31.8545 31.7932C31.7882 31.7989 31.722 31.8001 31.6534 31.7966H17.3642C16.7048 31.7966 16.5334 31.6264 16.5334 30.9635V30.2104C16.5322 29.7075 16.5322 29.2058 16.5334 28.7029C16.5345 28.1886 16.7494 27.9692 17.2534 27.9692C18.25 27.9692 19.2477 27.9681 20.2454 27.9681C20.7562 27.9681 21.2694 27.9681 21.7814 27.9681H23.45C24.1917 29.2092 25.2774 30.0046 26.6797 30.3326C27.0957 30.4286 27.5105 30.4435 27.8614 30.4446H32.426C32.4248 30.5178 32.4271 30.5886 32.4282 30.6595Z" fill="white"/>
<path d="M33.6419 18.5212C33.6453 18.5212 33.6487 18.5212 33.651 18.5212C33.8167 18.5212 33.9699 18.4583 34.083 18.344C34.2007 18.2252 34.2624 18.0652 34.259 17.8926C34.2522 17.5543 33.9893 17.2994 33.6464 17.2994C33.6442 17.2994 33.643 17.2994 33.6407 17.2994C33.299 17.3029 33.0304 17.5703 33.0293 17.9074C33.0304 18.24 33.3047 18.5154 33.6419 18.5212Z" fill="white"/>
<path d="M25.3812 38.2103C25.3846 38.2103 25.388 38.2103 25.3903 38.2103C25.9354 38.2091 26.4806 38.2091 27.0257 38.208L28.0246 38.2091C28.3709 38.208 28.7172 38.2091 29.0623 38.208L29.3114 38.2091C29.5812 38.208 29.8566 38.2114 30.1297 38.1965C30.4486 38.1783 30.684 37.9303 30.6909 37.6068C30.6989 37.2868 30.4863 37.0388 30.164 36.9874C30.0703 36.9725 29.9766 36.9725 29.8852 36.9725C28.4109 36.9714 26.9389 36.9714 25.468 36.9725C25.348 36.9725 25.2406 36.9748 25.1332 36.9988C24.9423 37.0423 24.7892 37.168 24.7114 37.3485C24.6326 37.5291 24.6452 37.7303 24.7457 37.9005C24.9069 38.1737 25.1686 38.2103 25.3812 38.2103Z" fill="white"/>
<path d="M21.7263 38.1966C21.7903 38.2035 21.8543 38.2058 21.9172 38.2058C21.972 38.2058 22.0257 38.2046 22.0783 38.2023C22.1789 38.2 22.2772 38.2 22.3755 38.2023C22.5012 38.2069 22.6257 38.2103 22.7515 38.1955C23.0577 38.1669 23.2806 37.9303 23.2943 37.6195C23.3092 37.2926 23.0897 37.0298 22.7755 36.9932C22.4155 36.9509 22.0509 36.952 21.6955 36.9943C21.3937 37.0286 21.1766 37.2823 21.1777 37.5955C21.1766 37.912 21.4086 38.1646 21.7263 38.1966Z" fill="white"/>
<path d="M19.1292 38.1725C19.1326 38.1725 19.136 38.1725 19.1406 38.1725C19.2972 38.1725 19.4469 38.1108 19.5612 37.9965C19.6823 37.8754 19.7497 37.7097 19.7474 37.5383C19.7406 37.2045 19.4709 36.944 19.1326 36.944C19.1303 36.944 19.1292 36.944 19.1269 36.944C18.7886 36.9474 18.5234 37.2148 18.5234 37.5554C18.5234 37.8891 18.7954 38.1657 19.1292 38.1725Z" fill="white"/>
<path d="M22.7976 29.3292C22.4056 29.2755 22.0227 29.2778 21.6616 29.3315C21.3656 29.3761 21.1576 29.6469 21.1793 29.9612C21.1987 30.2686 21.425 30.5018 21.7301 30.5269C21.7976 30.5338 21.8661 30.5361 21.9347 30.5361C22.0113 30.5361 22.0867 30.5315 22.1576 30.5326H22.2433C22.3393 30.5338 22.4376 30.5372 22.5404 30.5361C22.6021 30.5361 22.6661 30.5349 22.729 30.5303C23.0501 30.5041 23.2821 30.2629 23.2947 29.9463C23.305 29.6286 23.0959 29.3681 22.7976 29.3292Z" fill="white"/>
<path d="M19.136 29.3086C19.1292 29.3086 19.1235 29.3086 19.1178 29.3086C18.7863 29.3177 18.52 29.5977 18.5235 29.9326C18.5269 30.2709 18.7966 30.5337 19.1383 30.5337C19.4755 30.5337 19.7429 30.2675 19.7475 29.928C19.7498 29.7612 19.6858 29.6035 19.5646 29.4846C19.4469 29.3703 19.296 29.3086 19.136 29.3086Z" fill="white"/>
<path d="M36.6884 27.5314C36.8119 27.5314 36.9376 27.52 37.0679 27.4971C37.6279 27.4 38.0839 26.9348 38.1513 26.3908C38.2119 25.8937 37.9193 25.4228 37.3867 25.1611H37.3856C37.3159 25.1268 37.2439 25.0982 37.1661 25.0674C37.1101 25.0445 37.0541 25.0228 36.997 24.9977C36.9204 24.9622 36.8393 24.9325 36.7593 24.904C36.6153 24.8502 36.4656 24.7942 36.3261 24.7062L36.2941 24.6594L36.2907 24.6217C36.3444 24.4445 36.469 24.416 36.5947 24.4022C36.869 24.368 37.0976 24.4868 37.2781 24.6057C37.5501 24.784 37.8084 24.7531 37.973 24.5234C38.0484 24.4171 38.077 24.2982 38.0587 24.1794C38.0347 24.0434 37.9456 23.9154 37.8084 23.8194C37.3639 23.504 36.9044 23.3885 36.397 23.4651C35.8496 23.5485 35.4187 23.9577 35.3524 24.4617C35.2919 24.92 35.4976 25.4697 36.0964 25.6617C36.3307 25.7371 36.5604 25.8388 36.7616 25.928L36.9364 26.0034C37.0827 26.0662 37.2141 26.1348 37.1924 26.2891C37.1764 26.3942 37.1044 26.528 36.8507 26.5657C36.5364 26.6102 36.269 26.5245 36.0027 26.2891C35.7547 26.072 35.4701 26.072 35.2839 26.2811C35.0964 26.4937 35.133 26.776 35.3776 27.0011C35.757 27.3542 36.1981 27.5314 36.6884 27.5314Z" fill="white"/>
<path d="M31.6743 23.9441C31.6698 24.9726 31.6698 26.0012 31.6743 27.0298C31.6755 27.3189 31.8675 27.5258 32.1486 27.5315C32.2458 27.5235 32.3703 27.5018 32.4686 27.4081C32.5646 27.3155 32.6195 27.1795 32.6229 27.0241C32.6275 26.8526 32.6263 26.6812 32.6252 26.4938L32.624 26.1658L32.8229 26.1669C32.9143 26.1681 32.9955 26.1692 33.0766 26.1646C33.8229 26.1246 34.3806 25.5658 34.4023 24.8355C34.4229 24.1086 33.8835 23.5143 33.144 23.4515C32.8355 23.4252 32.4538 23.4298 32.1429 23.4446C31.8515 23.4572 31.6778 23.6435 31.6743 23.9441ZM32.6378 25.2138V24.4058L32.7875 24.3955C33.008 24.3726 33.2058 24.3715 33.3669 24.5635C33.4686 24.6846 33.4846 24.8343 33.4092 24.9749C33.2766 25.2263 33.04 25.2241 32.8343 25.2183L32.6378 25.2138Z" fill="white"/>
<path d="M30.0535 23.4606C29.8684 23.4972 29.7507 23.6172 29.6741 23.8503L29.049 25.7281L28.6855 24.6721C28.5918 24.3978 28.4993 24.1315 28.4044 23.8675C28.337 23.6743 28.233 23.5395 28.1038 23.4778C27.9998 23.4286 27.8833 23.4241 27.7541 23.4686C27.4833 23.5623 27.3873 23.8309 27.5038 24.1669C27.841 25.1429 28.1793 26.1201 28.521 27.0938C28.6238 27.3886 28.7998 27.5326 29.0615 27.5326C29.3175 27.5315 29.4981 27.3818 29.5998 27.0881C29.7255 26.7189 29.8478 26.3498 29.9701 25.9806L30.2695 25.0892C30.3781 24.7681 30.4855 24.4469 30.5873 24.1235C30.6501 23.9223 30.617 23.7235 30.4993 23.5932C30.3941 23.4766 30.2295 23.4275 30.0535 23.4606Z" fill="white"/>
</svg>
