<svg width="20" height="20" viewBox="0 0 20 20" fill="none" xmlns="http://www.w3.org/2000/svg">
<path d="M7.92652 12.0771C4.61437 12.7664 1.60223 10.2971 1.4358 7.09429C1.27723 4.02357 3.71009 1.435 6.7758 1.42857C8.47652 1.425 9.88866 2.09357 10.9651 3.40857C12.0422 4.72357 12.3829 6.24072 12.0744 7.91786C13.9694 7.58072 15.6251 8.04286 16.9915 9.39143C18.0851 10.4707 18.5958 11.8057 18.5701 13.3429C18.5194 16.3264 15.9094 18.7293 12.9001 18.5636C9.66937 18.3857 7.23723 15.3393 7.92652 12.0771ZM13.1915 8.82072C10.7844 8.82286 8.83152 10.775 8.82866 13.1807C8.8258 15.5943 10.7837 17.5607 13.1915 17.5621C15.5979 17.5643 17.5651 15.5971 17.5658 13.1886C17.5665 10.7786 15.6037 8.81857 13.1915 8.82072ZM6.81652 11.1764C7.29437 11.1793 7.75794 11.0986 8.21152 10.9457C8.3008 10.9157 8.34866 10.8671 8.38866 10.7879C8.9258 9.72357 9.72794 8.92143 10.7908 8.38143C10.8701 8.34143 10.9165 8.29143 10.9465 8.20286C11.2079 7.42786 11.2501 6.64214 11.0701 5.84572C10.5244 3.43286 8.07652 1.94429 5.69723 2.575C3.52437 3.15072 2.1508 5.26143 2.49509 7.49286C2.82152 9.60286 4.70223 11.2057 6.81652 11.1764Z" fill="#5A577A"/>
<path d="M2.96871 14.4064C2.838 14.5407 2.70942 14.6779 2.57585 14.8086C2.34442 15.0343 2.03657 15.0407 1.83228 14.8286C1.63514 14.6236 1.64728 14.3164 1.86514 14.0964C2.28157 13.6771 2.69942 13.2586 3.11871 12.8414C3.36514 12.5964 3.65157 12.5943 3.89871 12.8393C4.31871 13.255 4.73657 13.6736 5.15228 14.0936C5.37585 14.32 5.38228 14.6379 5.17514 14.8386C4.96228 15.0457 4.66585 15.03 4.43157 14.7964C4.30157 14.6671 4.17657 14.5329 4.03942 14.3907C3.838 15.8143 4.63871 16.7936 5.78371 16.9614C5.87728 16.975 5.97228 16.9786 6.06728 16.9864C6.36585 17.0107 6.56657 17.2286 6.55371 17.5143C6.54157 17.7907 6.31299 18.0007 6.013 17.9921C5.11585 17.9664 4.35585 17.6314 3.763 16.9507C3.23942 16.3493 3.00942 15.6357 3.00442 14.845C3.00371 14.7064 3.00442 14.5679 3.00442 14.4286C2.99228 14.4214 2.98085 14.4136 2.96871 14.4064Z" fill="#5A577A"/>
<path d="M16.9971 5.61643C17.1607 5.45285 17.2921 5.31785 17.4271 5.18643C17.6535 4.96571 17.9507 4.95357 18.1593 5.15428C18.3678 5.35571 18.3621 5.67357 18.1385 5.89857C17.7185 6.32285 17.2964 6.745 16.8721 7.165C16.6407 7.39428 16.3478 7.39428 16.1164 7.16428C15.6885 6.74 15.2628 6.31357 14.8385 5.885C14.63 5.67428 14.625 5.36357 14.8178 5.16428C15.02 4.95643 15.3271 4.95857 15.5493 5.17428C15.6885 5.30928 15.8221 5.45071 15.9671 5.59857C16.1771 4.00714 15.195 3.10214 14.0978 3.01714C13.9928 3.00928 13.885 3.01714 13.7835 2.97928C13.5521 2.89357 13.4157 2.66285 13.4535 2.42214C13.4914 2.17857 13.7107 1.99214 13.9793 2.00071C15.05 2.03428 15.8985 2.48428 16.495 3.38071C16.8243 3.875 16.9743 4.43071 16.9964 5.02071C17.0028 5.20571 16.9971 5.39 16.9971 5.61643Z" fill="#5A577A"/>
<path d="M12.9943 12.775C13.1872 12.775 13.365 12.7736 13.5422 12.7757C13.8486 12.7793 14.0772 12.9943 14.0779 13.2779C14.0786 13.5614 13.85 13.7786 13.5443 13.7821C13.3557 13.7843 13.1672 13.7829 12.9693 13.7829C12.9236 14.1086 12.8529 14.4164 12.7636 14.7164C12.9229 14.7164 13.075 14.7193 13.2272 14.7157C13.7893 14.7029 14.3393 14.7771 14.875 14.9471C15.1743 15.0421 15.3279 15.3036 15.2486 15.5793C15.1707 15.8507 14.8857 16.0064 14.5936 15.9129C13.7579 15.6457 12.9264 15.6771 12.09 15.9093C11.68 16.0229 11.3457 15.7429 11.405 15.3507C11.4193 15.2543 11.4707 15.1736 11.5143 15.09C11.7272 14.6821 11.8714 14.2529 11.9464 13.7814C11.8279 13.7814 11.7172 13.7857 11.6079 13.7807C11.3364 13.7686 11.1264 13.5493 11.1257 13.28C11.125 13.0114 11.3336 12.7893 11.605 12.7764C11.7264 12.7707 11.8486 12.7757 11.9793 12.7757C11.9707 12.4671 11.9057 12.1771 11.9379 11.8807C12.0064 11.2571 12.4814 10.7 13.1257 10.5071C13.7586 10.3171 14.4579 10.52 14.8543 11.0086C15.025 11.2193 15.005 11.5243 14.8093 11.7043C14.61 11.8871 14.3179 11.8871 14.115 11.6864C13.9172 11.49 13.6964 11.3964 13.4193 11.4714C13.1493 11.545 12.9436 11.7786 12.9436 12.0493C12.9436 12.2871 12.9757 12.525 12.9943 12.775Z" fill="#5A577A"/>
<path d="M7.31366 9.27214C7.31366 9.41714 7.31652 9.54999 7.31295 9.68285C7.30581 10.0007 7.08509 10.2321 6.79866 10.2264C6.51438 10.2207 6.31009 9.99857 6.30366 9.68357C6.3008 9.55071 6.30295 9.41785 6.30295 9.27785C6.10009 9.25857 5.91152 9.25642 5.72938 9.19928C5.55223 9.14357 5.38723 9.06499 5.23652 8.95857C5.00795 8.79785 4.94866 8.50999 5.09081 8.27785C5.22509 8.05928 5.52652 7.96071 5.74938 8.10071C5.97152 8.23999 6.20223 8.26928 6.45152 8.26285C6.74152 8.25571 7.03152 8.26428 7.32152 8.25999C7.62581 8.25571 7.83009 8.05642 7.82581 7.77714C7.82152 7.50642 7.61795 7.31928 7.32152 7.31142C6.89223 7.29999 6.46152 7.34357 6.03438 7.28642C5.33938 7.19357 4.79223 6.57428 4.77795 5.87214C4.76223 5.13071 5.26223 4.50071 5.97081 4.37071C6.07438 4.35142 6.18009 4.34214 6.30366 4.32571C6.30366 4.19142 6.30081 4.05357 6.30438 3.91642C6.31223 3.60214 6.52009 3.38571 6.80866 3.38714C7.09652 3.38857 7.30438 3.60642 7.31295 3.91999C7.31652 4.05285 7.31366 4.18642 7.31366 4.33071C7.71938 4.35285 8.08152 4.47571 8.39152 4.73214C8.49438 4.81714 8.59938 4.90357 8.65366 5.03071C8.74509 5.24285 8.67866 5.49357 8.49723 5.63214C8.31366 5.77214 8.04652 5.78642 7.88081 5.62071C7.64581 5.38499 7.37223 5.32499 7.05723 5.34142C6.80723 5.35571 6.5558 5.34357 6.30509 5.34571C6.0008 5.34857 5.78795 5.54357 5.78438 5.81714C5.7808 6.09142 5.98938 6.29499 6.29366 6.30071C6.66723 6.30785 7.04152 6.29428 7.41509 6.30857C8.21366 6.33928 8.82866 6.97999 8.83509 7.77285C8.84152 8.57785 8.23509 9.21857 7.42438 9.26428C7.39652 9.26642 7.36938 9.26857 7.31366 9.27214Z" fill="#5A577A"/>
</svg>
