<svg width="20" height="20" viewBox="0 0 20 20" fill="none" xmlns="http://www.w3.org/2000/svg">
<path fill-rule="evenodd" clip-rule="evenodd" d="M2.77421 6.79214C2.54207 6.65857 2.24707 6.82714 2.24707 7.09428V14.4993C2.24707 14.6257 2.31707 14.7379 2.42278 14.8014L8.83707 18.5043C9.06921 18.645 9.36421 18.4764 9.36421 18.2021V10.7964C9.36421 10.67 9.29421 10.5579 9.1885 10.4943L2.77421 6.79214ZM3.97564 10.2343L6.33636 11.5971V12.6229L3.97564 11.26V10.2343ZM7.5235 15.2721L3.87707 13.1643V12.1386L7.5235 14.2464V15.2721Z" fill="#FC1A96"/>
<path fill-rule="evenodd" clip-rule="evenodd" d="M17.2256 6.785L10.8041 10.4943C10.692 10.5579 10.6284 10.6771 10.6284 10.8036V18.2157C10.6284 18.49 10.9163 18.6586 11.1556 18.525L17.577 14.8157C17.6827 14.7521 17.7527 14.6329 17.7527 14.5064V7.09428C17.7527 6.82 17.4577 6.65142 17.2256 6.785ZM12.3641 12.2857L14.7248 10.9229V11.9486L12.3641 13.3114V12.2857ZM16.017 13.1364L12.3634 15.2443V14.2186L16.017 12.1107V13.1364Z" fill="#FC1A96"/>
<path fill-rule="evenodd" clip-rule="evenodd" d="M16.1577 4.905L10.227 1.47928C10.1141 1.41143 9.97055 1.41143 9.84984 1.47928L3.91841 4.905C3.66912 5.05571 3.66912 5.41785 3.91841 5.56143L9.84912 8.98714C9.96984 9.055 10.1134 9.055 10.2263 8.98714L16.157 5.56143C16.4141 5.41857 16.4141 5.05643 16.1577 4.905ZM11.8341 6.20285C11.7513 6.24785 11.6456 6.27857 11.532 6.27857C11.4191 6.27857 11.3134 6.24857 11.2227 6.20285L11.1927 6.18071C11.1698 6.19571 11.1477 6.20357 11.1248 6.21071C11.0491 6.25571 10.9741 6.29357 10.8913 6.32357C10.8613 6.33143 10.8306 6.34643 10.7934 6.35357C10.7556 6.36857 10.7106 6.38357 10.6727 6.39857L10.612 6.41428C10.5591 6.42928 10.5141 6.44428 10.4534 6.45928C10.4384 6.46714 10.4234 6.46714 10.4084 6.46714C10.3706 6.46714 10.3406 6.45214 10.3106 6.43714C10.2498 6.39214 10.1977 6.34643 10.1448 6.30143L10.1298 6.28643C10.107 6.25643 10.0848 6.23357 10.062 6.21071C10.032 6.18785 10.0091 6.15786 9.98627 6.12786L9.94841 6.09L9.96341 6.02214C9.97127 5.99928 9.98627 5.95428 10.0463 5.93143C10.1748 5.90143 10.2956 5.86357 10.3934 5.83357C10.5063 5.78857 10.6198 5.74285 10.7177 5.68285C10.8991 5.57 10.9513 5.50143 10.967 5.45643C10.9748 5.43357 10.9898 5.39571 10.8763 5.32785C10.8234 5.305 10.7706 5.28285 10.7177 5.26785C10.6648 5.26 10.6048 5.26 10.5441 5.26C10.4913 5.26785 10.4384 5.275 10.3784 5.29C10.3256 5.29785 10.2806 5.31285 10.2348 5.32L9.86484 5.41785C9.74412 5.44785 9.62341 5.47071 9.51055 5.49357C9.3977 5.50857 9.28412 5.51643 9.17127 5.50857C9.07341 5.50857 8.95984 5.49357 8.83912 5.45571C8.72627 5.42571 8.6127 5.38 8.49984 5.31214C8.35627 5.22928 8.26627 5.14643 8.19055 5.04785C8.12984 4.94214 8.09984 4.83643 8.11484 4.72357C8.12984 4.64071 8.1677 4.55785 8.2277 4.47428L8.1977 4.45928C8.09984 4.39857 8.04698 4.31571 8.04698 4.22571C8.04698 4.17285 8.06198 4.075 8.1977 3.99214C8.37127 3.89428 8.6427 3.89428 8.81627 3.99214L8.86912 4.02214C8.92912 3.99214 8.98984 3.96143 9.0577 3.94643C9.19341 3.89357 9.33698 3.84857 9.48055 3.80285C9.53341 3.78785 9.59341 3.795 9.63127 3.82571C9.75984 3.92357 9.84984 4.02214 9.92555 4.12L9.95555 4.165L9.94055 4.22571C9.92555 4.27071 9.8877 4.30143 9.8427 4.30857C9.8277 4.31643 9.80484 4.31643 9.78984 4.32357C9.76698 4.32357 9.75198 4.33143 9.73698 4.33857C9.66912 4.35357 9.61627 4.36857 9.57127 4.38357C9.51841 4.40643 9.45841 4.42857 9.40555 4.45928C9.3377 4.48928 9.27698 4.51928 9.20912 4.55714C9.16412 4.58 9.13341 4.60214 9.09627 4.63285C9.07341 4.65571 9.05841 4.67071 9.04341 4.70071C9.04341 4.70071 9.04341 4.70857 9.05127 4.72357C9.05127 4.73143 9.06627 4.74643 9.13412 4.79143C9.16412 4.80643 9.20984 4.82143 9.24698 4.82928C9.30698 4.84428 9.34484 4.84428 9.3827 4.84428C9.4427 4.83643 9.49555 4.82928 9.54127 4.82143L9.57127 4.81357C9.60912 4.80571 9.65412 4.79071 9.69984 4.77571L10.0241 4.7C10.1677 4.66214 10.2884 4.63214 10.4163 4.60928C10.5598 4.58643 10.6727 4.57928 10.7863 4.57928C10.907 4.58714 11.0277 4.60214 11.1563 4.63214C11.2998 4.67714 11.4206 4.73 11.5484 4.80571C11.6841 4.88143 11.7977 4.97143 11.8656 5.07714C11.9334 5.19 11.9634 5.30357 11.9484 5.41643C11.9406 5.52214 11.8956 5.61285 11.8127 5.71857L11.8356 5.73357C11.9413 5.79357 11.9941 5.87714 11.9941 5.96714C11.9927 6.06 11.932 6.14285 11.8341 6.20285Z" fill="#FC1A96"/>
</svg>
