<svg width="20" height="20" viewBox="0 0 20 20" fill="none" xmlns="http://www.w3.org/2000/svg">
<path d="M18.5171 15.425C18.3557 16.4693 17.4364 17.2843 16.3835 17.3379C15.6543 17.375 14.9214 17.3536 14.1907 17.3579C14.1207 17.3586 14.0507 17.3579 13.9814 17.3579C13.9728 17.3779 13.9642 17.3971 13.955 17.4171C14.0442 17.4964 14.14 17.5693 14.2214 17.6564C14.425 17.8743 14.4228 18.1829 14.2235 18.3843C14.0271 18.5829 13.7092 18.5936 13.4957 18.3871C13.15 18.055 12.8078 17.7186 12.4807 17.3686C12.1907 17.0586 12.2 16.6 12.4935 16.2921C12.82 15.95 13.1571 15.6164 13.4971 15.2871C13.7085 15.0821 14.0235 15.0907 14.225 15.2907C14.4228 15.4871 14.425 15.8036 14.2207 16.0186C14.1357 16.1079 14.0328 16.1814 13.9385 16.2621C13.95 16.2786 13.9607 16.295 13.9721 16.3121C14.0228 16.3157 14.0728 16.3229 14.1235 16.3229C14.7828 16.3236 15.4421 16.325 16.1014 16.3229C16.9607 16.32 17.5343 15.75 17.5421 14.8936C17.545 14.5636 17.5392 14.2343 17.5435 13.905C17.5485 13.5643 17.7607 13.3407 18.065 13.3443C18.3621 13.3479 18.5742 13.5686 18.5714 13.9014C18.565 14.41 18.5942 14.9264 18.5171 15.425ZM5.88139 3.67643C5.93139 3.67643 5.98139 3.68357 6.03139 3.68714C6.04282 3.705 6.05354 3.72286 6.06496 3.74071C5.97354 3.81714 5.87354 3.88571 5.79068 3.97071C5.57925 4.18643 5.57211 4.49428 5.76568 4.69786C5.96568 4.90928 6.28496 4.92286 6.50639 4.71C6.84782 4.38214 7.18496 4.04857 7.50996 3.705C7.80425 3.39428 7.80996 2.94071 7.51854 2.62857C7.19139 2.27786 6.84854 1.94214 6.50282 1.61C6.28854 1.405 5.96853 1.41857 5.77425 1.61857C5.57711 1.82214 5.57711 2.13143 5.78282 2.34643C5.86425 2.43214 5.96139 2.50286 6.05068 2.58071C6.03996 2.60143 6.02925 2.62214 6.01782 2.64214C5.94711 2.64214 5.87711 2.64143 5.80639 2.64214C5.07496 2.64643 4.34282 2.625 3.61354 2.66214C2.55996 2.71643 1.64211 3.53286 1.48211 4.57786C1.40568 5.07714 1.43496 5.59285 1.42996 6.10143C1.42711 6.43143 1.64354 6.65428 1.93925 6.65571C2.24354 6.65786 2.45354 6.43071 2.45782 6.09071C2.46068 5.76714 2.45711 5.44357 2.45854 5.12C2.46354 4.25071 3.03354 3.68071 3.90354 3.67714C4.56282 3.67357 5.22211 3.67571 5.88139 3.67643ZM14.3378 13.7786H5.67354C4.56639 13.7786 3.81282 13.025 3.81282 11.9336V8.01286C3.82068 7.10571 4.41996 6.39857 5.31211 6.24428C5.42711 6.22143 5.54282 6.22143 5.65068 6.22143H14.3385C15.4378 6.22143 16.1835 6.975 16.1835 8.07428C16.1914 9.35786 16.1914 10.6421 16.1835 11.9257C16.1828 13.025 15.4371 13.7786 14.3378 13.7786ZM6.43425 11.7643C6.43425 11.4643 6.19568 11.2571 5.84211 11.2493C5.51925 11.2493 5.32711 11.3721 5.24996 11.6186C5.14282 11.9871 5.41211 12.2871 5.84282 12.2871C6.18854 12.2793 6.43425 12.0721 6.43425 11.7643ZM11.3164 10.8107C11.3164 10.1729 11.0014 9.80357 10.2321 9.48857C9.79354 9.31143 9.65568 9.17357 9.65568 8.935C9.65568 8.71214 9.76354 8.57357 9.97854 8.57357C10.2321 8.57357 10.3478 8.72714 10.355 9.01928H11.2471C11.2314 8.39643 10.9628 8.01214 10.3321 7.91214V7.66643C10.3321 7.55857 10.2321 7.46643 10.1171 7.46643H9.90211C9.79425 7.46643 9.70996 7.53571 9.69425 7.62786C9.68639 7.64357 9.68639 7.65071 9.68639 7.66643V7.905C9.07925 8.02 8.73282 8.44285 8.73282 9.02714C8.73282 9.69571 9.04068 10.0036 9.83211 10.3264C10.2393 10.5036 10.3628 10.6493 10.3628 10.9264C10.3628 11.1571 10.24 11.3186 10.0092 11.3186C9.70925 11.3186 9.61711 11.1107 9.60211 10.8186H8.67925C8.69496 11.4029 8.95568 11.8793 9.68639 11.9871V12.3257C9.68639 12.3407 9.68639 12.3564 9.69425 12.3721C9.70996 12.4643 9.79425 12.5336 9.90211 12.5336H10.1171C10.2321 12.5336 10.3321 12.4414 10.3321 12.3257V11.98C11.0164 11.8721 11.3164 11.4257 11.3164 10.8107ZM14.1535 8.75071C14.4764 8.75071 14.6685 8.62786 14.7457 8.38143C14.83 8.11214 14.6764 7.82 14.4071 7.74357C14.0378 7.62857 13.6921 7.77428 13.6 8.07428C13.485 8.43571 13.7385 8.74286 14.1535 8.75071Z" fill="#14B9FF"/>
</svg>
