<svg width="18" height="18" viewBox="0 0 18 18" fill="none" xmlns="http://www.w3.org/2000/svg">
<path d="M16.565 13.6414C16.565 14.325 16.5671 15 16.5643 15.675C16.5614 16.5843 16.0021 17.3014 15.1336 17.5136C14.9757 17.5521 14.815 17.5643 14.6528 17.5643C10.5464 17.5636 6.4407 17.5643 2.33427 17.5636C1.22642 17.5636 0.429273 16.7629 0.428559 15.6529C0.427131 12.6736 0.427845 9.69501 0.428559 6.71572C0.428559 5.66858 1.04856 4.94715 2.08642 4.78358C2.10284 4.78072 2.11856 4.77572 2.14999 4.76715C2.0807 4.57786 2.01142 4.39215 1.94427 4.20572C1.68856 3.50072 1.98427 2.86286 2.68784 2.60715C4.58927 1.91501 6.4907 1.22215 8.39213 0.531434C9.11927 0.267148 9.74356 0.562862 10.0064 1.29215C10.1178 1.60072 10.2343 1.90786 10.3371 2.21858C10.3743 2.33143 10.425 2.37001 10.5478 2.36929C11.5407 2.36358 12.5343 2.36572 13.5271 2.36643C14.3043 2.36715 14.7907 2.85215 14.7914 3.62715C14.7914 4.00572 14.7914 4.38429 14.7914 4.77286C15.1478 4.79929 15.4757 4.895 15.7628 5.09929C16.2786 5.46643 16.5528 5.96858 16.5628 6.60215C16.5728 7.22143 16.565 7.84072 16.565 8.46C16.565 8.51501 16.565 8.57001 16.565 8.63143C16.8221 8.68572 17.0471 8.78643 17.2286 8.97286C17.4443 9.19429 17.5657 9.45929 17.5671 9.76715C17.5721 10.6764 17.5736 11.5857 17.5671 12.495C17.5636 13.0607 17.1936 13.4793 16.565 13.6414ZM15.5607 8.62572C15.5607 7.95643 15.5621 7.30501 15.56 6.65358C15.5586 6.13572 15.2064 5.78143 14.6878 5.78072C10.56 5.77929 6.43213 5.77929 2.30427 5.78072C1.7857 5.78072 1.43356 6.13572 1.43356 6.65429C1.43284 9.66072 1.43284 12.6671 1.43356 15.6736C1.43356 16.2 1.78856 16.5586 2.31284 16.5586C6.43499 16.5593 10.5578 16.5593 14.68 16.5586C15.2043 16.5586 15.5586 16.2007 15.56 15.6743C15.5614 15.0493 15.5607 14.425 15.5593 13.8C15.5593 13.7521 15.575 13.7007 15.5378 13.6464C14.9243 13.6464 14.3057 13.6521 13.6878 13.645C12.3321 13.6307 11.2207 12.5179 11.2086 11.1707C11.1957 9.76501 12.3043 8.63715 13.715 8.62572C14.3228 8.62215 14.93 8.62572 15.5607 8.62572ZM3.22142 4.76643C4.80142 4.76643 6.3607 4.76643 7.92785 4.76643C7.92785 4.34429 7.92356 3.93215 7.92856 3.52C7.9357 2.97143 8.31284 2.51858 8.84785 2.39286C8.99856 2.35715 9.15356 2.38429 9.31856 2.35358C9.22927 2.10072 9.1457 1.86 9.05856 1.62072C8.98999 1.43215 8.9307 1.40429 8.74356 1.47215C8.35142 1.61429 7.9607 1.75858 7.56927 1.90143C6.0657 2.44786 4.56142 2.995 3.05785 3.54215C2.8607 3.61358 2.82142 3.67072 2.87784 3.82929C2.98856 4.14286 3.10642 4.45429 3.22142 4.76643ZM14.9921 9.63V9.63072C14.5628 9.63072 14.1336 9.62572 13.7043 9.63215C12.8771 9.64429 12.2186 10.3057 12.2136 11.1229C12.2086 11.9479 12.8628 12.6286 13.6957 12.64C14.5764 12.6514 15.4571 12.6436 16.3378 12.6429C16.5107 12.6429 16.565 12.5864 16.565 12.4107C16.5657 11.5636 16.5657 10.7164 16.565 9.86929C16.565 9.67858 16.5178 9.63143 16.33 9.63143C15.8836 9.62929 15.4378 9.63 14.9921 9.63ZM13.7864 4.77215C13.7864 4.38715 13.7864 4.015 13.7864 3.64286C13.7864 3.40715 13.75 3.37072 13.5178 3.37072C12.08 3.37072 10.6428 3.37072 9.20499 3.37072C9.1657 3.37072 9.12642 3.36929 9.08785 3.37286C8.99785 3.38143 8.93713 3.435 8.9357 3.52143C8.9307 3.93715 8.93356 4.35286 8.93356 4.77215C10.5557 4.77215 12.1593 4.77215 13.7864 4.77215Z" fill="#5A577A"/>
<path d="M14.2215 11.1386C14.2193 11.4093 13.99 11.6379 13.72 11.6379C13.4436 11.6386 13.2115 11.3993 13.2179 11.1229C13.2243 10.85 13.4522 10.6314 13.7272 10.635C14.0015 10.6386 14.2236 10.865 14.2215 11.1386Z" fill="#5A577A"/>
</svg>
