<svg width="20" height="20" viewBox="0 0 20 20" fill="none" xmlns="http://www.w3.org/2000/svg">
<path d="M9.59849 10.0436C9.59991 10.0436 9.60063 10.0436 9.60206 10.0436C10.7542 10.0429 11.8385 9.59143 12.6542 8.77286C13.4671 7.95714 13.9128 6.87643 13.9092 5.73072C13.9021 3.35643 11.9699 1.42857 9.59991 1.42857C9.59634 1.42857 9.59349 1.42857 9.58991 1.42857C7.21349 1.43429 5.28206 3.36929 5.28492 5.74286C5.28777 8.115 7.22277 10.0436 9.59849 10.0436Z" fill="#7C00FF"/>
<path d="M11.1814 13.6614C11.2428 13.6007 11.2656 13.5471 11.2699 13.4493C11.2856 13.1264 11.3156 12.8429 11.3628 12.5814C11.4442 12.1257 11.6171 11.6893 11.9035 11.2221C11.9006 11.2214 11.8985 11.2214 11.8956 11.2207C11.0864 11.1064 10.3014 11.0486 9.53565 11.0486C8.17279 11.0486 6.86993 11.23 5.59565 11.5957C4.40565 11.9371 3.50208 12.3779 2.75065 12.9836C1.97208 13.6114 1.56422 14.2521 1.46708 14.9986C1.42136 15.35 1.42636 15.7193 1.43136 16.0771C1.43279 16.1986 1.43493 16.32 1.43422 16.4407C1.43351 16.8421 1.55565 17.1764 1.78636 17.4086C2.01708 17.64 2.35065 17.7621 2.75136 17.7621C4.23779 17.7629 5.72493 17.7629 7.21136 17.7629H9.24065C9.24065 17.65 9.24136 17.5379 9.24208 17.4264C9.24351 17.0579 9.24493 16.7093 9.23851 16.3557C9.22851 15.845 9.40636 15.4193 9.77993 15.055C10.0378 14.8043 10.2964 14.5443 10.5464 14.2936C10.7542 14.0857 10.9685 13.8707 11.1814 13.6614Z" fill="#7C00FF"/>
<path d="M17.1877 10.8757C16.477 10.4064 15.6035 10.2443 14.7899 10.4321C13.4813 10.7336 12.2413 11.9714 12.4013 13.7557C12.4163 13.9257 12.3685 14.0557 12.2456 14.1771C11.9999 14.4193 11.752 14.6679 11.512 14.9079C11.2056 15.2143 10.8892 15.5314 10.5735 15.84C10.412 15.9971 10.3435 16.16 10.3506 16.3671C10.357 16.555 10.3556 16.745 10.3542 16.9286C10.3535 17.0093 10.3527 17.09 10.3527 17.1707V17.445C10.3527 17.6386 10.352 17.8321 10.3535 18.025C10.3556 18.3993 10.5213 18.5671 10.8906 18.5686C11.087 18.5693 11.2842 18.5686 11.4806 18.5679C11.6185 18.5671 11.7585 18.5671 11.8992 18.5671C12.1206 18.5671 12.3442 18.5686 12.5656 18.5729C12.7806 18.5764 12.9385 18.5107 13.0942 18.3514C13.6977 17.7357 14.3106 17.1293 14.777 16.67C14.8592 16.5893 14.9842 16.5336 15.097 16.5271C15.2142 16.5207 15.3313 16.5221 15.4449 16.5236C15.6035 16.5257 15.7535 16.5271 15.8999 16.5093C16.7306 16.405 17.4627 15.9743 17.962 15.2957C18.4756 14.5979 18.6735 13.7386 18.5192 12.8764C18.3735 12.0564 17.9006 11.3464 17.1877 10.8757ZM15.4827 14.4843C15.4806 14.4843 15.4792 14.4843 15.477 14.4843C15.2049 14.4843 14.9485 14.3786 14.7542 14.1857C14.557 13.99 14.4492 13.7286 14.4492 13.4507C14.4492 13.1729 14.5563 12.9136 14.7506 12.7207C14.9435 12.5293 15.202 12.4236 15.4777 12.4236C15.4799 12.4236 15.482 12.4236 15.4842 12.4236C15.762 12.425 16.0206 12.5336 16.2127 12.7279C16.4049 12.9229 16.5099 13.1843 16.507 13.4629C16.5027 14.0229 16.0435 14.4807 15.4827 14.4843Z" fill="#7C00FF"/>
</svg>
