<svg width="26" height="25" viewBox="0 0 26 25" fill="none" xmlns="http://www.w3.org/2000/svg">
<path d="M3.33865 6.46575C3.13673 6.36101 3.0185 6.27617 2.95355 6.22175C2.7315 6.05206 2.53621 5.8371 2.36881 5.57938C2.16895 5.27134 1.94164 4.9672 1.54602 5.23659C1.1161 5.53158 1.35027 5.88147 1.5746 6.18287C2.15454 6.96587 2.92977 7.44016 3.83512 7.69971C3.99954 7.74682 4.177 7.70452 4.30003 7.58583C4.55478 7.34023 4.45942 6.91259 4.12532 6.79596C3.77841 6.67499 3.52411 6.56248 3.33865 6.46575Z" fill="url(#paint0_linear_837_1241)"/>
<path d="M4.44497 6.15314C4.36745 6.11884 4.28993 6.08453 4.2124 6.05023C4.28993 6.08476 4.36745 6.11884 4.44497 6.15314Z" fill="#F7F9FA"/>
<path d="M13.9018 7.74179C12.2073 8.18772 10.4807 8.25404 8.74274 8.18315C7.71824 8.14198 6.7189 7.92245 5.71499 7.7395C4.01132 7.65947 3.19035 8.24032 2.70097 9.86853C2.68496 9.92113 2.66209 9.97372 2.65295 10.0286C2.60492 10.3602 2.41969 10.5683 2.0881 10.4837C1.76338 10.4014 1.69477 10.1292 1.76338 9.80907C1.90745 9.1619 2.14527 8.58791 2.52946 8.10311V8.10082C2.52946 8.10082 2.86562 7.61373 3.53337 7.22954L3.55624 7.21811C3.55624 7.21811 3.55853 7.21582 3.56539 7.21354C3.66829 7.15637 4.68135 6.61668 6.12205 6.8385V6.83621C6.07174 6.82478 6.01914 6.81106 5.96883 6.79734C5.9574 6.7859 5.94825 6.77447 5.93681 6.76532C5.97569 6.77675 6.01228 6.7859 6.05115 6.79734L6.08774 6.77447H8.25336L9.8587 6.99629L10.5127 7.08776L11.9168 6.9254L13.0397 6.83164L13.5199 6.85451C13.5954 6.83393 13.6731 6.81792 13.7486 6.79734C14.0687 7.06947 14.0573 7.39419 13.9018 7.74179Z" fill="url(#paint1_linear_837_1241)"/>
<path d="M4.43848 6.1442C4.43872 6.14637 4.43848 6.14878 4.43872 6.15096C4.44089 6.15192 4.44282 6.15289 4.445 6.15361L4.43848 6.1442Z" fill="url(#paint2_linear_837_1241)"/>
<path d="M19.5845 16.4728C18.8916 12.8002 16.9272 9.91655 13.9018 7.74179C12.2072 8.18772 10.4807 8.25404 8.74271 8.18314C7.71821 8.14198 6.71888 7.92245 5.71496 7.7395C3.1766 9.58725 1.40432 11.9998 0.455289 14.9887C-0.90308 19.2651 0.821179 22.7113 5.05179 24.1909C7.93089 25.1971 10.858 25.2382 13.8034 24.4653C15.6032 23.9942 17.1765 23.1298 18.3633 21.6754C19.6028 20.1523 19.9412 18.3572 19.5845 16.4728Z" fill="url(#paint3_linear_837_1241)"/>
<path d="M16.7588 4.08974C16.6646 3.29096 16.0522 2.67809 15.1631 2.47936C14.756 2.38835 14.3462 2.41716 13.9371 2.52167C13.0867 2.73892 13.0848 2.73137 12.7459 1.90583C12.2547 0.708684 11.2394 0.025841 9.91918 0.00114338V0.000914714H9.91027C9.90226 0.000686033 9.89472 0 9.88671 0C9.87734 0 9.86819 0.000685995 9.85881 0.000685995V0.000914714H9.85835H9.83091H9.79844V0.00228681C8.47895 0.0267557 7.46223 0.708227 6.97239 1.90583C6.63166 2.73137 6.63166 2.73823 5.78096 2.52099C5.37162 2.41808 4.96228 2.38835 4.55523 2.47982C3.66566 2.67878 3.05279 3.29164 2.95903 4.08974C2.94074 4.24296 2.94074 4.38703 2.95903 4.52195C3.02306 5.08679 3.3981 5.50985 4.12531 5.94435C4.37915 6.09528 4.67186 6.20047 4.96 6.26679C5.33503 6.35369 5.66891 6.4909 5.93647 6.76531C5.9479 6.77446 5.95705 6.7859 5.96848 6.79733C6.01879 6.81105 6.07139 6.82477 6.1217 6.83621C7.34812 7.15796 8.57225 7.31278 9.79844 7.31781V7.31872H9.91918V7.31758C11.1961 7.31163 12.4724 7.14401 13.7482 6.79802C14.0222 6.50142 14.3675 6.35643 14.7581 6.26656C15.0465 6.20024 15.3392 6.09459 15.5925 5.94366C16.4951 5.4058 16.8526 4.88532 16.7588 4.08974Z" fill="url(#paint4_linear_837_1241)"/>
<path d="M9.85922 20.5182C12.1503 20.5182 14.0075 18.661 14.0075 16.3699C14.0075 14.0789 12.1503 12.2216 9.85922 12.2216C7.56819 12.2216 5.71094 14.0789 5.71094 16.3699C5.71094 18.661 7.56819 20.5182 9.85922 20.5182Z" fill="url(#paint5_linear_837_1241)"/>
<path d="M8.88779 17.098C9.28992 17.098 9.61591 16.772 9.61591 16.3699C9.61591 15.9678 9.28992 15.6418 8.88779 15.6418C8.48566 15.6418 8.15967 15.9678 8.15967 16.3699C8.15967 16.772 8.48566 17.098 8.88779 17.098Z" fill="white"/>
<path d="M10.9161 17.098C11.3182 17.098 11.6442 16.772 11.6442 16.3699C11.6442 15.9678 11.3182 15.6418 10.9161 15.6418C10.514 15.6418 10.188 15.9678 10.188 16.3699C10.188 16.772 10.514 17.098 10.9161 17.098Z" fill="white"/>
<path d="M25.2733 20.0464V23.0772H25.1859C25.1859 24.1261 22.3302 25.0004 18.8915 25.0004C16.1219 25.0004 14.1841 24.5467 13.2609 23.8981C12.9503 23.68 12.772 23.3196 12.772 22.94V20.2214C13.1509 21.183 15.7734 21.9116 18.9208 21.9116C22.0681 21.9116 25.1279 21.0666 25.2152 20.0464H25.2733Z" fill="url(#paint6_linear_837_1241)"/>
<path d="M12.6848 20.2214C12.6557 20.134 12.6265 20.0757 12.6265 19.9881C12.6265 19.9298 12.6265 19.8715 12.6555 19.8132C12.9761 18.8516 15.6279 18.0647 18.8626 18.0647H18.8917C22.3594 18.0647 25.2735 18.9097 25.2735 19.9879V20.0462C25.1861 21.0661 22.3011 21.9404 18.8917 21.9404C15.4822 21.9404 13.0635 21.183 12.6848 20.2214Z" fill="url(#paint7_linear_837_1241)"/>
<path d="M25.2733 15.6071V18.6378H25.1859C25.1859 19.6868 22.3302 20.561 18.8915 20.561C16.1219 20.561 14.1841 20.1073 13.2609 19.4588C12.9503 19.2406 12.772 18.8802 12.772 18.5006V15.7818C13.1509 16.7434 15.7734 17.472 18.9208 17.472C22.0681 17.472 25.1279 16.627 25.2152 15.6069L25.2733 15.6071Z" fill="url(#paint8_linear_837_1241)"/>
<path d="M12.6848 15.7818C12.6557 15.6944 12.6265 15.6361 12.6265 15.5485C12.6265 15.4902 12.6265 15.4319 12.6555 15.3736C12.9761 14.412 15.6279 13.6251 18.8626 13.6251H18.8917C22.3594 13.6251 25.2735 14.47 25.2735 15.5483V15.6066C25.1861 16.6265 22.3011 17.5008 18.8917 17.5008C15.4822 17.5008 13.0635 16.7436 12.6848 15.7818Z" fill="url(#paint9_linear_837_1241)"/>
<path d="M25.2733 11.2818V14.3125H25.1859C25.1859 15.3615 22.3302 16.2357 18.8915 16.2357C16.1219 16.2357 14.1841 15.782 13.2609 15.1335C12.9503 14.9153 12.772 14.5549 12.772 14.1753V11.4565C13.1509 12.4181 15.7734 13.1467 18.9208 13.1467C22.0681 13.1467 25.1279 12.3017 25.2152 11.2816L25.2733 11.2818Z" fill="url(#paint10_linear_837_1241)"/>
<path d="M12.6848 11.4565C12.6557 11.3691 12.6265 11.3108 12.6265 11.2232C12.6265 11.1649 12.6265 11.1066 12.6555 11.0483C12.9761 10.0867 15.6279 9.29977 18.8626 9.29977H18.8917C22.3594 9.29977 25.2735 10.1448 25.2735 11.223V11.2813C25.1861 12.3012 22.3011 13.1755 18.8917 13.1755C15.4822 13.1755 13.0635 12.4181 12.6848 11.4565Z" fill="url(#paint11_linear_837_1241)"/>
<path d="M16.497 11.0552C16.4856 11.0209 16.4741 10.9982 16.4741 10.9639C16.4741 10.941 16.4741 10.9182 16.4856 10.8955C16.6111 10.5191 17.6493 10.2111 18.9158 10.2111H18.9272C20.2849 10.2111 21.4258 10.542 21.4258 10.9641V10.987C21.3915 11.3863 20.262 11.7286 18.9272 11.7286C17.5924 11.7286 16.6454 11.4316 16.497 11.0552Z" fill="url(#paint12_linear_837_1241)"/>
<defs>
<linearGradient id="paint0_linear_837_1241" x1="1.30565" y1="6.42573" x2="4.44499" y2="6.42573" gradientUnits="userSpaceOnUse">
<stop stop-color="#FFBFD8"/>
<stop offset="1" stop-color="#FFE5E2"/>
</linearGradient>
<linearGradient id="paint1_linear_837_1241" x1="1.73916" y1="8.63395" x2="14.0075" y2="8.63395" gradientUnits="userSpaceOnUse">
<stop stop-color="#FFBFD8"/>
<stop offset="1" stop-color="#FFE5E2"/>
</linearGradient>
<linearGradient id="paint2_linear_837_1241" x1="4.4385" y1="6.14888" x2="4.44495" y2="6.14888" gradientUnits="userSpaceOnUse">
<stop stop-color="#FFBFD8"/>
<stop offset="1" stop-color="#FFE5E2"/>
</linearGradient>
<linearGradient id="paint3_linear_837_1241" x1="9.85915" y1="25.0005" x2="9.85915" y2="7.7395" gradientUnits="userSpaceOnUse">
<stop stop-color="#FE0002"/>
<stop offset="1" stop-color="#FF6457"/>
</linearGradient>
<linearGradient id="paint4_linear_837_1241" x1="9.85943" y1="7.31872" x2="9.85943" y2="-9.16094e-05" gradientUnits="userSpaceOnUse">
<stop stop-color="#FF3E55"/>
<stop offset="1" stop-color="#FF756E"/>
</linearGradient>
<linearGradient id="paint5_linear_837_1241" x1="9.85924" y1="20.5183" x2="9.85924" y2="12.2217" gradientUnits="userSpaceOnUse">
<stop stop-color="#FFBFD8"/>
<stop offset="1" stop-color="#FFE5E2"/>
</linearGradient>
<linearGradient id="paint6_linear_837_1241" x1="19.0226" y1="25.0004" x2="19.0226" y2="20.0464" gradientUnits="userSpaceOnUse">
<stop stop-color="#FF3E55"/>
<stop offset="1" stop-color="#FF756E"/>
</linearGradient>
<linearGradient id="paint7_linear_837_1241" x1="12.6264" y1="20.0027" x2="25.2734" y2="20.0027" gradientUnits="userSpaceOnUse">
<stop stop-color="#FFBFD8"/>
<stop offset="1" stop-color="#FFE5E2"/>
</linearGradient>
<linearGradient id="paint8_linear_837_1241" x1="19.0226" y1="20.561" x2="19.0226" y2="15.6071" gradientUnits="userSpaceOnUse">
<stop stop-color="#FF3E55"/>
<stop offset="1" stop-color="#FF756E"/>
</linearGradient>
<linearGradient id="paint9_linear_837_1241" x1="18.9499" y1="17.5011" x2="18.9499" y2="13.6254" gradientUnits="userSpaceOnUse">
<stop stop-color="#FFBFD8"/>
<stop offset="1" stop-color="#FFE5E2"/>
</linearGradient>
<linearGradient id="paint10_linear_837_1241" x1="19.0226" y1="16.2356" x2="19.0226" y2="11.2817" gradientUnits="userSpaceOnUse">
<stop stop-color="#FF3E55"/>
<stop offset="1" stop-color="#FF756E"/>
</linearGradient>
<linearGradient id="paint11_linear_837_1241" x1="18.9499" y1="13.1758" x2="18.9499" y2="9.30005" gradientUnits="userSpaceOnUse">
<stop stop-color="#FFBFD8"/>
<stop offset="1" stop-color="#FFE5E2"/>
</linearGradient>
<linearGradient id="paint12_linear_837_1241" x1="18.95" y1="11.7282" x2="18.95" y2="10.2108" gradientUnits="userSpaceOnUse">
<stop stop-color="#FF3E55"/>
<stop offset="1" stop-color="#FF756E"/>
</linearGradient>
</defs>
</svg>
