<svg width="20" height="20" viewBox="0 0 20 20" fill="none" xmlns="http://www.w3.org/2000/svg">
<path d="M9.18357 10.4579L2.74071 6.73786C2.68357 6.705 2.62357 6.69 2.565 6.69C2.38071 6.69 2.21143 6.83715 2.21143 7.04357V14.4829C2.21143 14.6086 2.27857 14.7257 2.38785 14.7886L8.83071 18.5086C8.88785 18.5414 8.94785 18.5564 9.00643 18.5564C9.19071 18.5564 9.36 18.4093 9.36 18.2029V10.7636C9.36071 10.6371 9.29285 10.5207 9.18357 10.4579ZM8.54857 17.4079L3.02357 14.2179V7.83786L8.54857 11.0279V17.4079ZM17.435 6.68715C17.3764 6.68715 17.3157 6.70215 17.2593 6.735L10.8057 10.4607C10.6964 10.5236 10.6293 10.64 10.6293 10.7664V18.2186C10.6293 18.4243 10.7986 18.5721 10.9829 18.5721C11.0414 18.5721 11.1021 18.5571 11.1586 18.5243L17.6121 14.7986C17.7214 14.7357 17.7886 14.6193 17.7886 14.4929V7.04C17.7886 6.83429 17.6193 6.68715 17.435 6.68715ZM16.9764 14.2271L11.4407 17.4236V11.0314L16.9764 7.835V14.2271ZM16.13 4.88715L10.2271 1.47857C10.1693 1.445 10.1043 1.42857 10.0393 1.42857C9.97428 1.42857 9.91 1.445 9.85143 1.47857L3.94857 4.88715C3.69857 5.03143 3.69857 5.39286 3.94857 5.53715L9.85143 8.945C9.90928 8.97857 9.97428 8.995 10.0393 8.995C10.1043 8.995 10.1686 8.97857 10.2271 8.945L16.13 5.53715C16.38 5.39286 16.38 5.03143 16.13 4.88715ZM10.0393 8.05643L5.11214 5.21215L10.0393 2.36786L14.9664 5.21215L10.0393 8.05643ZM11.7814 6.09286C11.64 6.17572 11.4043 6.17572 11.2629 6.09286L11.1857 6.04572C11.1443 6.06929 11.1093 6.08715 11.0736 6.105C11.0029 6.14072 10.9321 6.17572 10.8557 6.205C10.785 6.22857 10.7143 6.25786 10.6379 6.28143C10.5729 6.29929 10.5021 6.31714 10.4257 6.34072C10.4021 6.34643 10.3786 6.34072 10.3607 6.32857C10.3014 6.28715 10.2486 6.24 10.1957 6.19286C10.1486 6.14 10.1014 6.09286 10.0543 6.03929C10.0429 6.02143 10.0543 6.00357 10.0836 5.99215C10.2071 5.96286 10.325 5.92715 10.4257 5.89214C10.5436 5.85072 10.6557 5.79786 10.7621 5.73286C10.9214 5.63857 11.0214 5.55 11.0514 5.46143C11.0807 5.37286 11.04 5.29643 10.9157 5.22572C10.8564 5.19 10.7921 5.16643 10.7329 5.155C10.6679 5.14357 10.6029 5.14357 10.5443 5.14357C10.4793 5.14929 10.4207 5.155 10.3557 5.17286C10.2907 5.18429 10.2321 5.20215 10.1671 5.22L9.84285 5.30286C9.725 5.33214 9.61285 5.35572 9.50071 5.37357C9.39428 5.39143 9.28857 5.39715 9.18214 5.39143C9.08214 5.39143 8.97571 5.37357 8.87571 5.34429C8.76928 5.315 8.66928 5.27357 8.55714 5.20857C8.42714 5.13214 8.33928 5.055 8.28 4.97286C8.22714 4.89 8.20928 4.80215 8.22071 4.71929C8.23285 4.63072 8.28 4.54857 8.36214 4.46C8.36785 4.44786 8.38 4.44215 8.38571 4.43072L8.25571 4.36C8.185 4.31857 8.14928 4.26572 8.14928 4.21286C8.14928 4.15357 8.185 4.10072 8.25571 4.05929C8.39714 3.97643 8.63285 3.97643 8.77428 4.05929L8.86857 4.11215C8.945 4.07643 9.01571 4.04143 9.09285 4.01786C9.22285 3.965 9.35785 3.92357 9.51143 3.87643C9.535 3.87072 9.56428 3.87643 9.58214 3.88857C9.68857 3.97143 9.77643 4.05929 9.84785 4.16C9.86 4.17786 9.84214 4.19572 9.81857 4.20143C9.77714 4.21357 9.74214 4.21929 9.70643 4.23072C9.64714 4.24286 9.59428 4.26 9.54143 4.27786C9.48214 4.30143 9.42357 4.325 9.36428 4.35429C9.29928 4.38357 9.23428 4.41929 9.16357 4.46072C9.11643 4.48429 9.08071 4.50786 9.04 4.54357C9.00428 4.57286 8.98071 4.60286 8.96357 4.63786C8.94571 4.66715 8.95143 4.70286 8.96357 4.73786C8.98143 4.77357 9.02285 4.80857 9.08714 4.85C9.13428 4.87929 9.18714 4.89715 9.24071 4.90286C9.29357 4.915 9.34714 4.92072 9.4 4.915C9.45928 4.90929 9.51214 4.90286 9.565 4.89143C9.61785 4.88 9.67714 4.86786 9.73 4.85L10.0486 4.77357C10.1843 4.73786 10.3079 4.70857 10.4321 4.685C10.55 4.66715 10.6679 4.65572 10.78 4.65572C10.8979 4.66143 11.01 4.67929 11.1279 4.70857C11.2457 4.74429 11.3636 4.79143 11.4936 4.86786C11.6236 4.93857 11.7179 5.02143 11.7764 5.11C11.8357 5.20429 11.8593 5.29286 11.8471 5.38715C11.835 5.48714 11.7821 5.58143 11.6936 5.68215C11.6814 5.7 11.67 5.71143 11.6579 5.72357L11.7814 5.79429C11.8521 5.83572 11.8879 5.88857 11.8879 5.94786C11.8871 5.99857 11.8521 6.05143 11.7814 6.09286ZM14.7486 11.9171L12.3757 13.2871V12.2571L14.7486 10.8871V11.9171ZM16.0429 13.1129L12.375 15.2307V14.2007L16.0429 12.0829V13.1129ZM6.31714 12.5979L3.94428 11.2279V10.1979L6.31714 11.5679V12.5979ZM7.51214 15.255L3.84428 13.1371V12.1071L7.51214 14.225V15.255Z" fill="#5A577A"/>
</svg>
