<svg width="18" height="18" viewBox="0 0 18 18" fill="none" xmlns="http://www.w3.org/2000/svg">
<path d="M16.1965 7.04869C16.2284 7.0209 16.2444 7.007 16.2571 6.99538C16.8669 6.43712 16.8669 5.47604 16.257 4.91779C16.2443 4.90617 16.2284 4.89228 16.1965 4.86448C16.1768 4.84728 16.1669 4.83868 16.1577 4.83096C15.7305 4.47131 15.1312 4.39807 14.6299 4.64425C14.6192 4.64953 14.6075 4.65551 14.5842 4.66745L10.2847 6.8708C9.65491 7.19355 9.34001 7.35493 9.00017 7.35493C8.66034 7.35493 8.34544 7.19355 7.71564 6.8708L3.41614 4.66745C3.39284 4.65551 3.38119 4.64953 3.37042 4.64425C2.86918 4.39807 2.26983 4.47131 1.84263 4.83095C1.83346 4.83868 1.82359 4.84728 1.80385 4.86448C1.77195 4.89228 1.756 4.90617 1.74331 4.91779C1.13342 5.47604 1.13341 6.43712 1.74329 6.99538C1.75599 7.007 1.77193 7.0209 1.80383 7.04869L7.14979 11.7073C8.03171 12.4758 8.47267 12.86 9.00017 12.86C9.52768 12.86 9.96864 12.4758 10.8506 11.7073L16.1965 7.04869Z" fill="#5A577A"/>
</svg>
