<svg width="58" height="58" viewBox="0 0 58 58" fill="none" xmlns="http://www.w3.org/2000/svg">
<rect width="58" height="58" rx="10" fill="#BF3BF7"/>
<path d="M42.7106 25.9915C42.7044 25.3907 42.6978 24.7697 42.7135 24.1618C42.7314 23.4725 42.5494 22.8159 42.1731 22.21L40.7131 19.8656C40.0715 18.8353 39.4297 17.805 38.7886 16.7738C38.4261 16.1902 37.9418 15.7707 37.3497 15.5265C37.1748 15.4545 36.9947 15.4063 36.8208 15.3595C36.7441 15.3389 36.6674 15.3183 36.592 15.2958L36.5584 15.2858H21.4209L21.3474 15.2973C21.2771 15.3198 21.206 15.3409 21.1355 15.3619C20.9748 15.4094 20.8087 15.4587 20.646 15.5263C20.0547 15.7724 19.5714 16.1916 19.2095 16.7725C18.0842 18.5843 16.9578 20.3953 15.8273 22.2049C15.7761 22.2874 15.7283 22.3714 15.6857 22.4559C15.5637 22.6934 15.4738 22.9347 15.4101 23.1161L15.3949 23.1585V23.1681C15.3226 23.434 15.2861 23.7105 15.2861 23.9907V26.0985L15.2876 26.2009C15.294 26.4421 15.3285 26.6831 15.3959 26.9351C15.403 26.9556 15.4089 26.9765 15.4147 27.0002L15.4277 27.0565C15.4444 27.1295 15.4632 27.2123 15.4983 27.2958C15.68 27.7285 15.9414 28.1023 16.2942 28.4314C16.2787 28.4454 16.2636 28.4591 16.2567 28.4664C16.0583 28.6484 15.889 28.8575 15.7379 29.1088C15.7165 29.1455 15.695 29.1825 15.6744 29.2197C15.6587 29.2481 15.6428 29.2775 15.6271 29.3081C15.6156 29.3307 15.6041 29.3539 15.5945 29.3747C15.39 29.7982 15.2864 30.253 15.2864 30.7266V32.8508C15.2864 33.1232 15.3214 33.3921 15.3861 33.6311L15.4015 33.6864C15.4067 33.7036 15.4113 33.7219 15.4172 33.7442L15.4277 33.7903C15.4444 33.8632 15.4632 33.946 15.4983 34.0295C15.6791 34.4605 15.9385 34.8321 16.2944 35.1649C15.987 35.4389 15.7396 35.7852 15.5409 36.2184C15.534 36.2331 15.5274 36.2478 15.5252 36.2549C15.3667 36.635 15.2864 37.0381 15.2864 37.453V39.5963C15.2864 40.4985 15.6773 41.3564 16.3468 41.9383L16.3672 41.9566C16.9514 42.4452 17.7098 42.7143 18.5026 42.7143L18.5731 42.7136C19.2358 42.7006 19.9295 42.6933 20.6948 42.6913C21.6083 42.6884 22.5222 42.6923 23.4365 42.696C24.1202 42.6989 24.8039 42.7018 25.4876 42.7018L25.5275 42.7021C25.6471 42.7028 25.7835 42.7038 25.9276 42.6553C26.2779 42.5392 26.5152 42.2042 26.4922 41.8596C26.4684 41.483 26.1816 41.1717 25.81 41.1193C25.6899 41.1024 25.5736 41.1024 25.4611 41.1024H22.6136C21.2389 41.1024 19.8648 41.1024 18.4903 41.101C17.543 41.1 16.9654 40.5896 16.9054 39.7011C16.8542 38.9552 16.8561 38.1578 16.9113 37.2636C16.9162 37.1853 16.9299 37.1059 16.9514 37.0332C17.1508 36.347 17.6863 35.9689 18.4602 35.9689L27.6154 35.9674C28.1499 35.9664 28.512 35.6481 28.5166 35.1752C28.521 34.6976 28.1744 34.3812 27.6328 34.3687C27.5409 34.367 27.4478 34.3672 27.355 34.3677L18.4996 34.3675C18.3943 34.3675 18.2921 34.3609 18.1959 34.3476L18.1787 34.3454C17.4049 34.2394 16.9519 33.7454 16.9029 32.9525C16.8542 32.16 16.8578 31.3396 16.9132 30.5135C16.9176 30.4398 16.9291 30.3705 16.9473 30.3073C17.1459 29.6157 17.689 29.2349 18.4771 29.2349H22.6251C28.2572 29.2344 33.8897 29.2344 39.5221 29.2349C39.6156 29.2349 39.7381 29.2371 39.8545 29.2543C40.5301 29.3532 41.0124 29.8525 41.083 30.526C41.1254 30.9316 41.1185 31.3523 41.1121 31.7596C41.1085 31.9986 41.1046 32.2374 41.1097 32.4766C41.12 32.9272 41.071 33.2632 40.9507 33.5667C40.8601 33.7954 40.8579 34.0305 40.9443 34.2291C41.0257 34.416 41.1815 34.5622 41.3836 34.6408C41.8064 34.8051 42.217 34.618 42.4286 34.1664C42.6165 33.769 42.7113 33.3325 42.7108 32.8689C42.7093 32.159 42.7093 31.449 42.7108 30.7398C42.7113 30.4153 42.6645 30.0955 42.5717 29.7884C42.4139 29.2738 42.128 28.8276 41.7006 28.4314C42.3813 27.8079 42.7213 27.0063 42.7113 26.0468L42.7106 25.9915ZM18.5234 20.904C18.7066 20.6094 18.8908 20.3152 19.0748 20.0209C19.5594 19.2455 20.0441 18.4702 20.5209 17.6897C20.857 17.1394 21.3175 16.8832 21.9696 16.8832C26.6522 16.8869 31.334 16.8881 36.0158 16.8832C36.0168 16.8832 36.0175 16.8832 36.0185 16.8832C36.6748 16.8832 37.1361 17.137 37.47 17.6816C37.9827 18.5184 38.5018 19.3513 39.0262 20.1933L39.4689 20.9042L18.5234 20.904ZM16.8868 25.6704C16.8738 25.0503 16.8605 24.409 16.9154 23.7872C16.9737 23.1257 17.4463 22.63 18.1192 22.5247C18.2539 22.5041 18.4014 22.5017 18.5283 22.5012L31.9743 22.5002C34.499 22.5 37.0231 22.5 39.5485 22.5012C40.3104 22.5012 40.8569 22.8925 41.0487 23.5746C41.0695 23.6498 41.0823 23.7289 41.0854 23.8033C41.1193 24.6193 41.158 25.5438 41.0707 26.4487C41.0085 27.0989 40.3961 27.5978 39.6174 27.6345C39.5838 27.6357 39.5497 27.6355 39.5164 27.6352L35.4529 27.635C31.1701 27.6352 26.8866 27.635 22.5989 27.6357L18.5271 27.6365C18.4166 27.6365 18.3176 27.6306 18.2243 27.6186L18.2069 27.6166C17.6591 27.5471 17.287 27.2894 17.0367 26.8065C16.946 26.6326 16.899 26.4396 16.8966 26.2332C16.8946 26.0456 16.8904 25.858 16.8868 25.6704Z" fill="white"/>
<path d="M42.4562 38.7212C42.2636 36.8342 40.7049 35.4116 38.8299 35.4116C38.8296 35.4116 38.8301 35.4116 38.8299 35.4116C38.6981 35.4116 38.6464 35.3854 38.5592 35.2706C37.7973 34.2716 36.7846 33.6765 35.5497 33.5019C33.0466 33.1493 30.7665 34.8288 30.3618 37.327C30.3432 37.4426 30.3351 37.4514 30.2141 37.4854C29.0943 37.7986 28.2572 39.0023 28.3479 40.169C28.4647 41.6555 29.5884 42.6971 31.0803 42.7015C31.5516 42.7027 32.0224 42.7032 32.4933 42.7032C32.9016 42.7032 33.3095 42.703 33.7176 42.7027L35.8275 42.702C36.7883 42.701 37.7481 42.7015 38.7086 42.7032C38.714 42.7032 38.7194 42.7032 38.725 42.7032C39.0173 42.7032 39.2723 42.6812 39.5045 42.6359C41.3465 42.2756 42.6428 40.5564 42.4562 38.7212ZM40.981 39.4272C40.8249 40.4516 39.8688 41.2353 38.7488 41.2497L38.7145 41.2495L33.7056 41.2497C32.8482 41.2502 31.9903 41.2505 31.1329 41.2495C30.5548 41.249 30.1582 41.0183 29.9208 40.544C29.7513 40.2053 29.766 39.7914 29.96 39.4363C30.1491 39.09 30.4784 38.86 30.8404 38.8213C31.5357 38.7464 31.7074 38.5688 31.7601 37.8709C31.875 36.3479 32.9389 35.1768 34.4074 34.9568C34.5973 34.9284 34.782 34.914 34.9616 34.914C35.9919 34.914 36.8505 35.382 37.52 36.3111C37.5436 36.343 37.5683 36.3746 37.5864 36.4106C37.7273 36.689 38.0217 36.9949 38.6109 36.88C38.8762 36.8276 39.1584 36.8555 39.4987 36.9684C40.5395 37.3137 41.149 38.3247 40.981 39.4272Z" fill="white"/>
<path d="M19.6934 26.4806C20.4734 26.4806 21.1058 25.8483 21.1058 25.0683C21.1058 24.2883 20.4734 23.656 19.6934 23.656C18.9134 23.656 18.2811 24.2883 18.2811 25.0683C18.2811 25.8483 18.9134 26.4806 19.6934 26.4806Z" fill="white"/>
<path d="M19.6934 33.0997C20.4734 33.0997 21.1058 32.4674 21.1058 31.6874C21.1058 30.9074 20.4734 30.2751 19.6934 30.2751C18.9134 30.2751 18.2811 30.9074 18.2811 31.6874C18.2811 32.4674 18.9134 33.0997 19.6934 33.0997Z" fill="white"/>
<path d="M19.6934 39.8246C20.4734 39.8246 21.1058 39.1923 21.1058 38.4123C21.1058 37.6323 20.4734 36.9999 19.6934 36.9999C18.9134 36.9999 18.2811 37.6323 18.2811 38.4123C18.2811 39.1923 18.9134 39.8246 19.6934 39.8246Z" fill="white"/>
</svg>
