<svg width="20" height="20" viewBox="0 0 20 20" fill="none" xmlns="http://www.w3.org/2000/svg">
<path d="M10.8073 7.24287C10.8073 7.62144 10.5001 7.92144 10.1215 7.92144C9.74298 7.92144 9.44298 7.62144 9.44298 7.24287C9.44298 6.86429 9.74298 6.55715 10.1215 6.55715C10.5001 6.55715 10.8073 6.86429 10.8073 7.24287ZM14.2001 9.42144H6.04298V5.06429H14.2001V9.42144ZM11.7358 7.24287C11.7358 6.35001 11.0144 5.62858 10.1215 5.62858C9.23583 5.62858 8.5144 6.35001 8.5144 7.24287C8.5144 8.12858 9.23583 8.85001 10.1215 8.85001C11.0144 8.85001 11.7358 8.12858 11.7358 7.24287ZM13.5001 12.15C13.8501 12.15 14.143 11.9286 14.2144 11.7786L5.57155 11.7857L5.48583 12.1286C5.52155 12.1429 5.57869 12.1572 5.65012 12.1572L13.5001 12.15ZM17.5573 3.07144V17C17.5573 17.8857 16.8358 18.6072 15.9501 18.6072H3.87155C2.98583 18.6072 2.2644 17.8857 2.2644 17V3.07144C2.2644 2.18572 2.98583 1.46429 3.87155 1.46429H15.9501C16.8358 1.46429 17.5573 2.18572 17.5573 3.07144ZM5.59298 16.1286C5.7644 16.1286 5.92869 16.0572 6.04298 15.9429C6.15726 15.8286 6.22869 15.6714 6.22869 15.4929C6.22869 15.3214 6.15726 15.1643 6.04298 15.0429C5.92869 14.9357 5.7644 14.8643 5.59298 14.8643C5.4144 14.8643 5.25726 14.9357 5.14298 15.0429C5.02869 15.1643 4.95726 15.3214 4.95726 15.4929C4.95726 15.8429 5.24298 16.1286 5.59298 16.1286ZM7.69298 16.0286H10.8644C11.1644 16.0286 11.4001 15.7929 11.4001 15.4929C11.4001 15.2 11.1644 14.9572 10.8644 14.9572H7.69298C7.40012 14.9572 7.15726 15.2 7.15726 15.4929C7.15726 15.7929 7.40012 16.0286 7.69298 16.0286ZM12.6358 16.0286H14.4715C14.7644 16.0286 15.0073 15.7929 15.0073 15.4929C15.0073 15.2 14.7644 14.9572 14.4715 14.9572H12.6358C12.343 14.9572 12.1001 15.2 12.1001 15.4929C12.1001 15.7929 12.343 16.0286 12.6358 16.0286ZM15.4001 10.85L4.84298 10.8572L4.57155 11.9714C4.42155 12.5857 4.90726 13.0857 5.65012 13.0857L13.5001 13.0786C14.2501 13.0786 14.9787 12.5786 15.1287 11.9643L15.4001 10.85ZM5.50726 10.35H14.7358C14.9573 10.35 15.1287 10.1714 15.1287 9.95001V4.53572C15.1287 4.31429 14.9573 4.13572 14.7358 4.13572H5.50726C5.29298 4.13572 5.1144 4.31429 5.1144 4.53572V9.95001C5.1144 10.1714 5.29298 10.35 5.50726 10.35Z" fill="#D500E2"/>
</svg>
