<svg width="20" height="20" viewBox="0 0 20 20" fill="none" xmlns="http://www.w3.org/2000/svg">
<path fill-rule="evenodd" clip-rule="evenodd" d="M13.914 2.22857C16.5692 2.22857 18.5713 4.39495 18.5713 7.26777V12.7439C18.5713 14.2142 18.0515 15.5426 17.1066 16.485C16.259 17.3294 15.1595 17.7767 13.9268 17.7767H6.07059C4.84029 17.7767 3.74156 17.3302 2.89318 16.485C1.94833 15.5426 1.42847 14.2142 1.42847 12.7439V7.26777C1.42847 4.39495 3.43059 2.22857 6.08574 2.22857H13.914ZM13.914 3.42458H6.08574C4.08043 3.42458 2.62448 5.0408 2.62448 7.26777V12.7439C2.62448 13.8945 3.01996 14.9223 3.73757 15.6375C4.35631 16.2554 5.16402 16.5807 6.07299 16.5807H13.914C13.9156 16.5791 13.922 16.5807 13.9268 16.5807C14.8366 16.5807 15.6435 16.2554 16.2622 15.6375C16.9806 14.9223 17.3753 13.8945 17.3753 12.7439V7.26777C17.3753 5.0408 15.9194 3.42458 13.914 3.42458ZM15.1707 7.11532C15.3788 7.37127 15.3397 7.74761 15.0837 7.95652L11.5404 10.8365C11.0923 11.1921 10.5564 11.3699 10.0214 11.3699C9.488 11.3699 8.95617 11.1937 8.51126 10.8413L4.93518 7.95811C4.67764 7.7508 4.63777 7.37366 4.84428 7.11691C5.05239 6.86097 5.42873 6.8203 5.68548 7.02681L9.25837 9.90681C9.70727 10.2624 10.3396 10.2624 10.7917 9.90363L14.3287 7.02841C14.5854 6.81871 14.9618 6.85858 15.1707 7.11532Z" fill="#5A577A"/>
</svg>
