<svg width="28" height="28" viewBox="0 0 28 28" fill="none" xmlns="http://www.w3.org/2000/svg">
<path d="M5.03114 2.03103C5.00914 2.03103 4.98614 2.03003 4.96414 2.03003C4.20614 2.03003 3.48314 2.32303 2.92414 2.85903C2.34514 3.41403 2.01714 4.15603 2.00114 4.94703C1.96714 6.59503 3.26714 7.96403 4.89814 7.99803C5.71414 8.01203 6.48414 7.71903 7.06014 7.16503C7.63614 6.61103 7.96214 5.85403 7.97814 5.03403C8.01114 3.41503 6.68814 2.06803 5.03114 2.03103Z" fill="#130F40"/>
<path d="M25.2962 12.531C24.8012 11.354 24.0442 10.546 22.9822 10.063C22.1032 9.66197 21.1182 9.47597 19.8722 9.49897C18.8152 9.51297 17.9142 9.74897 17.1202 10.221C16.8112 10.405 16.5242 10.621 16.2182 10.851C16.0762 10.958 15.9332 11.066 15.7862 11.173L15.3812 11.464L15.3792 10.196C15.3782 9.88897 15.3782 9.88897 15.0662 9.88897H10.7352C10.3882 9.88897 10.3882 9.88897 10.3882 10.238V25.625C10.3882 25.969 10.3882 25.969 10.7422 25.969H15.2182C15.5782 25.969 15.5782 25.969 15.5782 25.613V23.141C15.5772 21.492 15.5762 19.843 15.5812 18.193C15.5832 17.468 15.6022 16.697 15.8102 15.944C16.0732 14.996 16.6262 14.412 17.4542 14.21C17.7432 14.14 18.0482 14.101 18.3632 14.096C18.3812 14.096 18.3982 14.096 18.4162 14.096C19.6492 14.096 20.3862 14.693 20.6072 15.871C20.7322 16.54 20.7912 17.265 20.7992 18.221C20.8152 19.973 20.8132 21.726 20.8102 23.478L20.8082 25.69C20.8082 25.962 20.8272 25.968 21.0782 25.969C22.6322 25.971 24.1872 25.971 25.7432 25.969C25.9752 25.968 25.9962 25.947 25.9962 25.72L25.9982 23.373C26.0002 21.093 26.0022 18.812 25.9852 16.532C25.9732 14.867 25.7602 13.633 25.2962 12.531Z" fill="#130F40"/>
<path d="M7.29128 9.88696H2.69828C2.39028 9.88696 2.38428 9.89296 2.38428 10.198V25.653C2.38428 25.958 2.39328 25.967 2.69628 25.967H5.87928L6.30328 25.968C6.65428 25.969 7.00728 25.971 7.35828 25.965C7.55328 25.963 7.57928 25.949 7.58628 25.73L7.58728 25.576L7.58628 10.189C7.58628 9.88796 7.58628 9.88796 7.29128 9.88696Z" fill="#130F40"/>
</svg>
