
<svg width="28" height="28" viewBox="0 0 28 28" fill="none" xmlns="http://www.w3.org/2000/svg">
<path d="M16.286 12.165C19.251 8.793 22.21 5.428 25.22 2.005H25.2C24.684 2.005 24.222 2.011 23.772 2.006C23.736 2.006 23.7 2.005 23.664 2.005H23.092L22.754 2.396L22.741 2.41C22.218 3.006 21.696 3.603 21.172 4.199L21.154 4.219L21.151 4.223L21.141 4.234C19.277 6.356 17.41 8.476 15.543 10.595C15.481 10.665 15.442 10.768 15.32 10.785C15.266 10.71 15.213 10.637 15.161 10.564C13.441 8.117 11.719 5.671 10.003 3.221L9.325 2.251L9.15 2H8.831C8.477 2.001 8.123 2.003 7.768 2.003C7.638 2.003 7.508 2.004 7.377 2.004C5.707 2.007 4.037 2.005 2.367 2.005H2C5.148 6.486 8.251 10.904 11.37 15.344C8.258 18.882 5.15 22.417 2.004 25.994C2.504 25.994 2.965 25.991 3.415 25.993L3.563 25.994H4.003H4.129L4.431 25.647L4.476 25.595C4.506 25.561 4.535 25.528 4.565 25.494C6.312 23.503 8.061 21.514 9.81 19.525C10.639 18.582 11.468 17.641 12.308 16.687C12.4 16.815 12.48 16.923 12.557 17.033C14.598 19.939 16.641 22.845 18.677 25.755C18.801 25.931 18.925 26 19.147 25.999C21.325 25.99 23.502 25.993 25.68 25.993H26C22.743 21.358 19.519 16.768 16.286 12.165ZM19.966 24.509C19.787 24.509 19.749 24.362 19.675 24.259C17.508 21.234 15.345 18.207 13.181 15.179C10.486 11.409 7.792 7.638 5.098 3.868C5.041 3.788 4.985 3.706 4.891 3.571C5.961 3.571 6.968 3.576 7.975 3.567C8.17 3.565 8.224 3.694 8.306 3.809C10.07 6.276 11.833 8.744 13.597 11.212C16.698 15.55 19.8 19.889 22.902 24.227C22.958 24.306 23.013 24.386 23.098 24.507C22.019 24.507 20.992 24.506 19.966 24.509Z" fill="black"/>
<path d="M22.7529 2.39188L23.0919 2.00488L21.5059 3.81788L22.7529 2.39188Z" fill="black"/>
</svg>
