<svg width="25" height="25" viewBox="0 0 25 25" fill="none" xmlns="http://www.w3.org/2000/svg">
<path d="M3.3025 6.39575C3.10276 6.29215 2.98581 6.20823 2.92156 6.15439C2.70192 5.98654 2.50873 5.77391 2.34315 5.51897C2.14545 5.21427 1.9206 4.91342 1.52926 5.17989C1.10399 5.4717 1.33562 5.81779 1.55753 6.11593C2.13119 6.89047 2.89804 7.35962 3.79359 7.61637C3.95624 7.66297 4.13177 7.62112 4.25347 7.50372C4.50547 7.26077 4.41114 6.83776 4.08065 6.7224C3.73749 6.60273 3.48595 6.49144 3.3025 6.39575Z" fill="url(#paint0_linear_870_1223)"/>
<path d="M4.39656 6.08653C4.31987 6.0526 4.24319 6.01867 4.1665 5.98474C4.24319 6.0189 4.31987 6.0526 4.39656 6.08653Z" fill="#F7F9FA"/>
<path d="M13.7512 7.65804C12.075 8.09915 10.3671 8.16475 8.64792 8.09462C7.63451 8.05391 6.64599 7.83675 5.65294 7.65578C3.96769 7.57661 3.15561 8.15118 2.67152 9.76177C2.65569 9.8138 2.63307 9.86583 2.62402 9.92012C2.57652 10.2481 2.39329 10.454 2.06529 10.3703C1.74407 10.2888 1.67621 10.0197 1.74407 9.70296C1.88658 9.06279 2.12184 8.49501 2.50187 8.01545V8.01319C2.50187 8.01319 2.83439 7.53137 3.49492 7.15134L3.51754 7.14003C3.51754 7.14003 3.5198 7.13777 3.52659 7.13551C3.62838 7.07895 4.63048 6.5451 6.05559 6.76453V6.76226C6.00582 6.75095 5.95379 6.73738 5.90403 6.72381C5.89272 6.7125 5.88367 6.70119 5.87236 6.69214C5.91081 6.70345 5.94701 6.7125 5.98546 6.72381L6.02165 6.70119H8.16384L9.75182 6.92061L10.3988 7.01109L11.7877 6.85048L12.8984 6.75774L13.3734 6.78036C13.448 6.76 13.525 6.74417 13.5996 6.72381C13.9163 6.993 13.905 7.31421 13.7512 7.65804Z" fill="url(#paint1_linear_870_1223)"/>
<path d="M4.39062 6.07776C4.39087 6.07993 4.39062 6.08235 4.39087 6.08452C4.39304 6.08549 4.39497 6.08645 4.39715 6.08718L4.39062 6.07776Z" fill="url(#paint2_linear_870_1223)"/>
<path d="M19.3726 16.2946C18.6872 12.6617 16.7441 9.80926 13.7514 7.65802C12.0752 8.09913 10.3673 8.16473 8.64812 8.0946C7.63471 8.05389 6.64618 7.83673 5.65313 7.65576C3.14223 9.48352 1.38912 11.87 0.450363 14.8265C-0.893309 19.0566 0.812295 22.4656 4.99713 23.9291C7.84508 24.9244 10.7405 24.9652 13.6541 24.2006C15.4343 23.7346 16.9907 22.8795 18.1647 21.4408C19.3907 19.9343 19.7255 18.1586 19.3726 16.2946Z" fill="url(#paint3_linear_870_1223)"/>
<path d="M16.5776 4.04549C16.4844 3.25535 15.8787 2.64912 14.9992 2.45254C14.5965 2.36251 14.1911 2.39101 13.7865 2.49439C12.9452 2.70929 12.9434 2.70182 12.6081 1.88521C12.1223 0.701017 11.1179 0.0255614 9.812 0.00113101V0.000904818H9.80317C9.79526 0.000678611 9.78779 0 9.77987 0C9.7706 0 9.76155 0.000678573 9.75228 0.000678573V0.000904818H9.75182H9.72468H9.69256V0.00226207C8.38734 0.0264663 7.38162 0.700564 6.89709 1.88521C6.56004 2.70182 6.56004 2.70861 5.71855 2.49371C5.31364 2.39192 4.90872 2.36251 4.50607 2.45299C3.62613 2.64979 3.01989 3.25603 2.92715 4.04549C2.90905 4.19705 2.90905 4.33956 2.92715 4.47303C2.99048 5.03176 3.36146 5.45024 4.0808 5.88004C4.33189 6.02933 4.62144 6.13339 4.90646 6.19899C5.27744 6.28495 5.6077 6.42067 5.87237 6.69212C5.88368 6.70117 5.89273 6.71248 5.90404 6.72379C5.9538 6.73736 6.00583 6.75093 6.0556 6.76224C7.26875 7.08052 8.47963 7.23366 9.69256 7.23864V7.23954H9.812V7.23841C11.0751 7.23253 12.3376 7.06672 13.5996 6.72447C13.8706 6.43108 14.2122 6.28766 14.5985 6.19876C14.8838 6.13316 15.1733 6.02865 15.424 5.87936C16.3168 5.34732 16.6704 4.83247 16.5776 4.04549Z" fill="url(#paint4_linear_870_1223)"/>
<path d="M9.75233 20.2963C12.0186 20.2963 13.8557 18.4591 13.8557 16.1929C13.8557 13.9266 12.0186 12.0895 9.75233 12.0895C7.48608 12.0895 5.64893 13.9266 5.64893 16.1929C5.64893 18.4591 7.48608 20.2963 9.75233 20.2963Z" fill="url(#paint5_linear_870_1223)"/>
<path d="M8.79153 16.913C9.18931 16.913 9.51178 16.5906 9.51178 16.1928C9.51178 15.795 9.18931 15.4725 8.79153 15.4725C8.39375 15.4725 8.07129 15.795 8.07129 16.1928C8.07129 16.5906 8.39375 16.913 8.79153 16.913Z" fill="white"/>
<path d="M10.7984 16.913C11.1961 16.913 11.5186 16.5906 11.5186 16.1928C11.5186 15.795 11.1961 15.4725 10.7984 15.4725C10.4006 15.4725 10.0781 15.795 10.0781 16.1928C10.0781 16.5906 10.4006 16.913 10.7984 16.913Z" fill="white"/>
<path d="M24.9999 19.8296V22.8275H24.9135C24.9135 23.8651 22.0886 24.7299 18.6871 24.7299C15.9475 24.7299 14.0306 24.2811 13.1174 23.6396C12.8102 23.4238 12.6338 23.0673 12.6338 22.6918V20.0026C13.0086 20.9538 15.6028 21.6745 18.7161 21.6745C21.8293 21.6745 24.856 20.8387 24.9424 19.8296H24.9999Z" fill="url(#paint6_linear_870_1223)"/>
<path d="M12.5474 20.0026C12.5187 19.9162 12.4897 19.8585 12.4897 19.7719C12.4897 19.7142 12.4897 19.6565 12.5185 19.5988C12.8356 18.6476 15.4587 17.8693 18.6584 17.8693H18.6872C22.1174 17.8693 24.9999 18.7051 24.9999 19.7717V19.8294C24.9135 20.8382 22.0597 21.703 18.6872 21.703C15.3146 21.703 12.922 20.9538 12.5474 20.0026Z" fill="url(#paint7_linear_870_1223)"/>
<path d="M24.9999 15.4382V18.4361H24.9135C24.9135 19.4738 22.0886 20.3385 18.6871 20.3385C15.9475 20.3385 14.0306 19.8898 13.1174 19.2482C12.8102 19.0324 12.6338 18.6759 12.6338 18.3004V15.611C13.0086 16.5622 15.6028 17.2829 18.7161 17.2829C21.8293 17.2829 24.856 16.4471 24.9424 15.438L24.9999 15.4382Z" fill="url(#paint8_linear_870_1223)"/>
<path d="M12.5474 15.611C12.5187 15.5246 12.4897 15.4669 12.4897 15.3803C12.4897 15.3226 12.4897 15.2649 12.5185 15.2072C12.8356 14.256 15.4587 13.4777 18.6584 13.4777H18.6872C22.1174 13.4777 24.9999 14.3135 24.9999 15.3801V15.4377C24.9135 16.4466 22.0597 17.3114 18.6872 17.3114C15.3146 17.3114 12.922 16.5625 12.5474 15.611Z" fill="url(#paint9_linear_870_1223)"/>
<path d="M24.9999 11.1598V14.1577H24.9135C24.9135 15.1953 22.0886 16.0601 18.6871 16.0601C15.9475 16.0601 14.0306 15.6113 13.1174 14.9698C12.8102 14.754 12.6338 14.3975 12.6338 14.022V11.3326C13.0086 12.2838 15.6028 13.0045 18.7161 13.0045C21.8293 13.0045 24.856 12.1687 24.9424 11.1595L24.9999 11.1598Z" fill="url(#paint10_linear_870_1223)"/>
<path d="M12.5474 11.3326C12.5187 11.2462 12.4897 11.1885 12.4897 11.1019C12.4897 11.0442 12.4897 10.9865 12.5185 10.9288C12.8356 9.9776 15.4587 9.19922 18.6584 9.19922H18.6872C22.1174 9.19922 24.9999 10.0351 24.9999 11.1016V11.1593C24.9135 12.1682 22.0597 13.033 18.6872 13.033C15.3146 13.033 12.922 12.2838 12.5474 11.3326Z" fill="url(#paint11_linear_870_1223)"/>
<path d="M16.3185 10.9355C16.3072 10.9016 16.2959 10.8792 16.2959 10.8453C16.2959 10.8226 16.2959 10.8 16.3072 10.7776C16.4314 10.4053 17.4584 10.1006 18.7111 10.1006H18.7224C20.0654 10.1006 21.194 10.4279 21.194 10.8455V10.8681C21.16 11.2631 20.0428 11.6017 18.7224 11.6017C17.4021 11.6017 16.4653 11.3079 16.3185 10.9355Z" fill="url(#paint12_linear_870_1223)"/>
<defs>
<linearGradient id="paint0_linear_870_1223" x1="2.84416" y1="7.63502" x2="2.84416" y2="5.07703" gradientUnits="userSpaceOnUse">
<stop stop-color="#A6B2D5"/>
<stop offset="1" stop-color="#D1DAF3"/>
</linearGradient>
<linearGradient id="paint1_linear_870_1223" x1="7.78802" y1="10.389" x2="7.78802" y2="6.69214" gradientUnits="userSpaceOnUse">
<stop stop-color="#A6B2D5"/>
<stop offset="1" stop-color="#D1DAF3"/>
</linearGradient>
<linearGradient id="paint2_linear_870_1223" x1="4.39065" y1="6.08244" x2="4.3971" y2="6.08244" gradientUnits="userSpaceOnUse">
<stop stop-color="#FFBFD8"/>
<stop offset="1" stop-color="#FFE5E2"/>
</linearGradient>
<linearGradient id="paint3_linear_870_1223" x1="9.75258" y1="24.73" x2="9.75258" y2="7.65576" gradientUnits="userSpaceOnUse">
<stop stop-color="#535F82"/>
<stop offset="1" stop-color="#A6B2D5"/>
</linearGradient>
<linearGradient id="paint4_linear_870_1223" x1="9.75278" y1="7.23954" x2="9.75278" y2="0" gradientUnits="userSpaceOnUse">
<stop stop-color="#535F82"/>
<stop offset="1" stop-color="#A6B2D5"/>
</linearGradient>
<linearGradient id="paint5_linear_870_1223" x1="9.75233" y1="20.2963" x2="9.75233" y2="12.0895" gradientUnits="userSpaceOnUse">
<stop stop-color="#A6B2D5"/>
<stop offset="1" stop-color="#D1DAF3"/>
</linearGradient>
<linearGradient id="paint6_linear_870_1223" x1="18.8168" y1="24.7299" x2="18.8168" y2="19.8296" gradientUnits="userSpaceOnUse">
<stop stop-color="#6676A2"/>
<stop offset="1" stop-color="#A6B2D5"/>
</linearGradient>
<linearGradient id="paint7_linear_870_1223" x1="18.7448" y1="21.703" x2="18.7448" y2="17.8693" gradientUnits="userSpaceOnUse">
<stop stop-color="#A6B2D5"/>
<stop offset="1" stop-color="#D1DAF3"/>
</linearGradient>
<linearGradient id="paint8_linear_870_1223" x1="18.8168" y1="20.3385" x2="18.8168" y2="15.438" gradientUnits="userSpaceOnUse">
<stop stop-color="#6676A2"/>
<stop offset="1" stop-color="#A6B2D5"/>
</linearGradient>
<linearGradient id="paint9_linear_870_1223" x1="18.7448" y1="17.3114" x2="18.7448" y2="13.4777" gradientUnits="userSpaceOnUse">
<stop stop-color="#A6B2D5"/>
<stop offset="1" stop-color="#D1DAF3"/>
</linearGradient>
<linearGradient id="paint10_linear_870_1223" x1="18.8168" y1="16.0601" x2="18.8168" y2="11.1595" gradientUnits="userSpaceOnUse">
<stop stop-color="#6676A2"/>
<stop offset="1" stop-color="#A6B2D5"/>
</linearGradient>
<linearGradient id="paint11_linear_870_1223" x1="18.7448" y1="13.033" x2="18.7448" y2="9.19922" gradientUnits="userSpaceOnUse">
<stop stop-color="#A6B2D5"/>
<stop offset="1" stop-color="#D1DAF3"/>
</linearGradient>
<linearGradient id="paint12_linear_870_1223" x1="18.7449" y1="11.6017" x2="18.7449" y2="10.1006" gradientUnits="userSpaceOnUse">
<stop stop-color="#6676A2"/>
<stop offset="1" stop-color="#A6B2D5"/>
</linearGradient>
</defs>
</svg>
