<svg width="20" height="20" viewBox="0 0 20 20" fill="none" xmlns="http://www.w3.org/2000/svg">
<path d="M14.6513 9.22356C14.0435 9.22356 13.4349 9.22356 12.827 9.22356C12.462 9.22356 12.3328 9.11427 12.2799 8.75999C12.0885 7.47642 11.1535 6.46784 9.89061 6.18142C8.35204 5.83284 6.76275 6.74213 6.28061 8.2457C6.21561 8.44784 6.15847 8.65142 6.14775 8.86427C6.13418 9.11927 6.02418 9.28356 5.77418 9.37784C5.34775 9.53784 5.02561 9.8307 4.79847 10.2271C4.62204 10.535 4.54704 10.8678 4.5449 11.2186C4.54204 11.7093 4.54204 12.2007 4.5449 12.6914C4.54704 13.1336 4.67918 13.5336 4.94847 13.8871C5.01918 13.98 5.10132 14.0678 5.1349 14.1821C5.2099 14.4364 4.78918 15.0264 4.5249 15.0378C4.39632 15.0436 4.28632 14.9936 4.1949 14.9021C3.6899 14.3971 3.18275 13.8943 2.68132 13.3864C2.52061 13.2236 2.51275 13.0536 2.64061 12.8378C2.89347 12.4121 3.1499 11.9886 3.40418 11.5628C3.49918 11.4043 3.40704 11.1864 3.22704 11.1421C2.76847 11.0278 2.30918 10.9143 1.8499 10.8007C1.51561 10.7171 1.42847 10.6078 1.42847 10.2636C1.42847 9.45427 1.42847 8.6457 1.42847 7.83642C1.42847 7.53284 1.51704 7.41642 1.81418 7.3407C2.28275 7.2207 2.75275 7.10427 3.22204 6.98713C3.41347 6.93927 3.50061 6.72642 3.39775 6.55499C3.14918 6.13927 2.89847 5.72499 2.65061 5.30927C2.50061 5.05784 2.5199 4.90427 2.72561 4.69784C3.38418 4.03856 4.04275 3.37927 4.70204 2.72142C4.90061 2.52356 5.06061 2.50356 5.30061 2.64642C5.71632 2.89427 6.13061 3.14499 6.54561 3.39427C6.72632 3.50284 6.93704 3.41713 6.98775 3.2157C7.10704 2.7407 7.2249 2.2657 7.34704 1.79142C7.41632 1.52427 7.53847 1.42927 7.8099 1.42856C8.74775 1.42856 9.6849 1.42856 10.622 1.42927C10.9006 1.42927 11.0313 1.5307 11.0985 1.79927C11.2135 2.25784 11.327 2.71713 11.4399 3.17642C11.502 3.42856 11.6949 3.51213 11.9142 3.3807C12.3199 3.13713 12.7256 2.89356 13.132 2.65142C13.3835 2.50142 13.5363 2.51856 13.7442 2.72499C14.3999 3.37856 15.0549 4.03356 15.7085 4.68927C15.9249 4.9057 15.9428 5.05284 15.7878 5.31284C15.5399 5.72856 15.2892 6.14284 15.0399 6.55856C14.9356 6.73284 15.0249 6.93784 15.2249 6.98856C15.6999 7.10784 16.1749 7.22642 16.6485 7.34856C16.9149 7.41713 17.007 7.5357 17.0099 7.8107C17.0135 8.12856 17.0142 8.44642 17.0099 8.76499C17.0056 9.07427 16.8556 9.22142 16.542 9.22284C15.912 9.2257 15.2813 9.22356 14.6513 9.22356ZM17.307 13.8928C18.0849 13.8921 18.5685 13.4057 18.5699 12.6293C18.5706 12.1886 18.5699 11.7478 18.5699 11.3071C18.5699 10.4757 18.0942 9.99999 17.2642 9.99999C13.7213 9.99999 10.1785 9.99999 6.63632 9.99999C6.56918 9.99999 6.50204 9.99927 6.43561 10.0043C5.8349 10.05 5.39132 10.4678 5.34061 11.0671C5.29347 11.6286 5.32204 12.1928 5.32847 12.7557C5.33061 12.9228 5.36704 13.0864 5.44704 13.2378C5.69061 13.7 6.08132 13.8957 6.59561 13.895C8.38061 13.8914 10.1663 13.8936 11.9513 13.8936C13.7363 13.8936 15.522 13.895 17.307 13.8928ZM13.1156 11.9586C13.1085 11.5371 13.457 11.1786 13.8799 11.1707C14.3113 11.1636 14.6706 11.5136 14.6735 11.9443C14.6763 12.3671 14.3278 12.7193 13.902 12.7228C13.477 12.7278 13.1228 12.3828 13.1156 11.9586ZM16.2349 12.7236C15.8085 12.7243 15.4585 12.3793 15.4556 11.9543C15.4528 11.5207 15.8049 11.1686 16.2385 11.1707C16.6628 11.1728 17.0092 11.5228 17.0085 11.9493C17.0078 12.3771 16.662 12.7221 16.2349 12.7236ZM9.20275 12.4164C9.15561 12.6078 9.01132 12.7257 8.82061 12.7207C8.63061 12.7157 8.47918 12.5921 8.45775 12.3957C8.4249 12.0964 8.42418 11.795 8.45847 11.4957C8.4799 11.3057 8.6399 11.1757 8.8249 11.1721C9.00775 11.1686 9.15775 11.295 9.20347 11.4836C9.24132 11.6386 9.21132 11.795 9.2249 11.95C9.21132 12.105 9.24132 12.2614 9.20275 12.4164ZM7.65632 12.3428C7.64275 12.5678 7.4799 12.7236 7.26918 12.7221C7.06561 12.7207 6.89847 12.5707 6.88918 12.3536C6.87775 12.0807 6.87704 11.8071 6.8899 11.5343C6.8999 11.3214 7.0749 11.1686 7.2749 11.1707C7.47632 11.1728 7.64061 11.3264 7.6549 11.54C7.66418 11.6786 7.65632 11.8186 7.65632 11.9578H7.65704C7.65775 12.0871 7.66418 12.2157 7.65632 12.3428ZM10.7713 12.35C10.757 12.565 10.6128 12.7071 10.4113 12.7193C10.2049 12.7314 10.0242 12.5971 10.0099 12.38C9.99132 12.0914 9.99204 11.8 10.0106 11.5121C10.0235 11.3057 10.2049 11.1664 10.3985 11.1721C10.6013 11.1786 10.7585 11.3314 10.772 11.5478C10.7806 11.6814 10.7735 11.815 10.7735 11.9493C10.7728 12.0828 10.7799 12.2171 10.7713 12.35ZM6.9149 14.6771C6.73632 14.6771 6.55775 14.6757 6.3799 14.6878C5.85275 14.7221 5.38704 15.1721 5.34275 15.6971C5.2949 16.265 5.30632 16.8357 5.3299 17.4028C5.35918 18.1193 5.84775 18.57 6.55061 18.57C10.1492 18.5721 13.7478 18.5721 17.3463 18.57C18.0678 18.5693 18.5649 18.07 18.5699 17.3486C18.5735 16.8628 18.5706 16.3778 18.5706 15.8921C18.5706 15.7007 18.5406 15.5136 18.452 15.3421C18.2135 14.8778 17.8249 14.675 17.3099 14.6757C15.5249 14.6786 13.7392 14.6771 11.9542 14.6771C10.2735 14.6771 8.59418 14.6764 6.9149 14.6771ZM14.6735 16.6257C14.6706 17.0564 14.3113 17.4071 13.8799 17.3993C13.457 17.3921 13.1085 17.0328 13.1156 16.6114C13.1228 16.1871 13.477 15.8421 13.902 15.8464C14.3278 15.8507 14.6763 16.2028 14.6735 16.6257ZM16.2435 17.4C15.8163 17.4043 15.4628 17.0628 15.4563 16.6378C15.4492 16.2028 15.7956 15.8493 16.2306 15.8471C16.6578 15.845 17.0049 16.1886 17.0092 16.6164C17.012 17.0421 16.667 17.3957 16.2435 17.4ZM9.20061 17.1043C9.15418 17.2793 9.00132 17.4021 8.82418 17.3986C8.64561 17.395 8.48204 17.2686 8.46061 17.0907C8.42347 16.7807 8.42347 16.4678 8.46061 16.1578C8.48275 15.9757 8.63847 15.8543 8.82204 15.85C9.00418 15.8457 9.15347 15.9621 9.1999 16.1386C9.24347 16.3036 9.21204 16.4714 9.2249 16.6378C9.21275 16.7936 9.24132 16.95 9.20061 17.1043ZM7.65632 17.015C7.64418 17.2378 7.4799 17.3986 7.27275 17.3993C7.06632 17.4 6.89561 17.2407 6.88704 17.0171C6.87704 16.7557 6.87775 16.4928 6.88704 16.2314C6.8949 16.0043 7.06061 15.8486 7.27061 15.8478C7.48775 15.8478 7.64704 16.0086 7.65775 16.2457C7.66347 16.3678 7.65847 16.4907 7.65847 16.6136H7.65775C7.65775 16.7478 7.66418 16.8814 7.65632 17.015ZM10.7706 17.0307C10.7563 17.2393 10.6049 17.3864 10.407 17.3986C10.2149 17.41 10.032 17.2728 10.0113 17.0678C9.98204 16.7743 9.98275 16.4771 10.0106 16.1836C10.0306 15.9736 10.2028 15.8436 10.402 15.8507C10.6042 15.8578 10.7542 15.9993 10.7699 16.2121C10.7799 16.3507 10.772 16.4907 10.772 16.63C10.772 16.7628 10.7799 16.8971 10.7706 17.0307Z" fill="#FF3086"/>
</svg>
