<svg width="20" height="20" viewBox="0 0 20 20" fill="none" xmlns="http://www.w3.org/2000/svg">
<path d="M3.07081 5.06429C3.17724 5.09714 3.29653 5.10143 3.40939 5.10143C7.80296 5.10286 12.1965 5.10286 16.5901 5.10286C16.6537 5.10286 16.718 5.10714 16.7815 5.1C17.0387 5.07 17.2208 4.93643 17.3094 4.69143C17.4601 4.275 17.1522 3.87929 16.6765 3.87929C14.4508 3.87786 12.2251 3.87857 10.0001 3.87857C7.80653 3.87857 5.61296 3.87857 3.41939 3.87857C3.35581 3.87857 3.29153 3.87572 3.22796 3.88C2.93581 3.9 2.69724 4.12214 2.65796 4.40857C2.61867 4.695 2.78867 4.97714 3.07081 5.06429Z" fill="#00AA2A"/>
<path d="M4.35881 2.63786C4.44452 2.65643 4.53595 2.65357 4.62523 2.65357C8.20881 2.65429 11.7924 2.65429 15.3759 2.65429C15.4331 2.65429 15.4909 2.65786 15.5481 2.65215C15.8059 2.62643 15.9902 2.49429 16.0824 2.25143C16.2395 1.83715 15.9324 1.43143 15.4609 1.43072C13.6438 1.42857 11.8259 1.43 10.0088 1.43C8.81666 1.43 7.62381 1.43 6.43166 1.43C5.78095 1.43 5.13095 1.42572 4.48023 1.43215C4.15881 1.435 3.90595 1.68 3.87952 1.98929C3.85452 2.29143 4.05738 2.57143 4.35881 2.63786Z" fill="#00AA2A"/>
<path d="M3.38155 11.2286C5.58798 11.2293 7.79369 11.2286 10.0001 11.2286C12.2065 11.2286 14.4123 11.2286 16.6187 11.2286C17.7944 11.2286 18.5708 10.4521 18.5708 9.27643C18.5708 9.07072 18.5708 8.90929 18.5708 8.77786C18.5708 8.64643 18.5708 8.48501 18.5708 8.27929C18.5708 7.10358 17.7944 6.32786 16.618 6.32715C12.2058 6.32715 7.79369 6.32715 3.38084 6.32715C2.20512 6.32715 1.42869 7.10429 1.42798 8.27929C1.42798 8.48501 1.42798 8.64643 1.42798 8.77786C1.42798 8.90929 1.42798 9.07072 1.42798 9.27643C1.42941 10.4507 2.20726 11.2279 3.38155 11.2286ZM7.75226 8.05643H15.4458C15.8158 8.05643 16.118 8.35929 16.118 8.72858C16.118 9.09786 15.8151 9.40072 15.4458 9.40072H7.75226C7.38226 9.40072 7.08012 9.09786 7.08012 8.72858C7.08012 8.35929 7.38226 8.05643 7.75226 8.05643ZM4.72012 7.53501C5.37941 7.53501 5.91369 8.06929 5.91369 8.72858C5.91369 9.38786 5.37941 9.92215 4.72012 9.92215C4.06084 9.92215 3.52655 9.38786 3.52655 8.72858C3.52726 8.06929 4.06155 7.53501 4.72012 7.53501Z" fill="#00AA2A"/>
<path d="M16.6187 12.2414C12.2066 12.2414 7.79443 12.2414 3.38157 12.2414C2.20585 12.2414 1.42943 13.0186 1.42871 14.1936C1.42871 14.96 1.42871 15.2693 1.42871 15.3843C1.42871 15.4 1.42871 15.4193 1.42871 15.4279C1.42871 15.5429 1.42871 15.8529 1.42871 16.6186C1.42871 17.7929 2.20657 18.5707 3.38157 18.5707C5.588 18.5714 7.79443 18.5714 10.0001 18.5714C12.2066 18.5714 14.4123 18.5714 16.6187 18.5714C17.7944 18.5714 18.5709 17.795 18.5709 16.6193C18.5709 15.8021 18.5709 15.5021 18.5709 15.4064C18.5709 15.3107 18.5709 15.0114 18.5709 14.1936C18.5709 13.0179 17.7944 12.2414 16.6187 12.2414ZM7.41014 14.4036H10.2294C10.4116 14.4036 10.5594 14.5514 10.5594 14.7336C10.5594 14.9157 10.4116 15.0636 10.2294 15.0636H7.41014C7.228 15.0636 7.08014 14.9157 7.08014 14.7336C7.08014 14.5514 7.228 14.4036 7.41014 14.4036ZM5.51157 16.4021C5.42371 16.5793 5.27728 16.7093 5.07657 16.79C4.99085 16.8243 4.90228 16.8457 4.81585 16.8657C4.81657 16.9586 4.81585 17.045 4.81585 17.1329C4.81585 17.2007 4.76157 17.255 4.69443 17.255H4.33728C4.27014 17.255 4.21585 17.2007 4.21585 17.1336V16.8521C3.96085 16.7964 3.75014 16.6871 3.57514 16.5243C3.55014 16.5021 3.53585 16.47 3.53585 16.4364C3.53585 16.4029 3.54943 16.3707 3.57371 16.3471L3.83443 16.1007C3.878 16.06 3.94371 16.0557 3.99157 16.0929C4.033 16.1243 4.06514 16.1493 4.10014 16.17C4.30943 16.2943 4.53228 16.3229 4.78157 16.2607C4.808 16.2536 4.83371 16.2436 4.85871 16.2321C4.98371 16.1736 5.01585 16.0929 4.96871 15.9529C4.94585 15.885 4.89157 15.8364 4.803 15.8029C4.66514 15.7507 4.52514 15.7036 4.38514 15.6564L4.32585 15.6364C4.18443 15.5886 4.03514 15.535 3.89871 15.4486C3.49014 15.1893 3.44514 14.6871 3.63728 14.37C3.73085 14.2164 3.86728 14.1043 4.05371 14.0271C4.09014 14.0121 4.12728 14.0007 4.16443 13.9893C4.18157 13.9843 4.198 13.9786 4.21514 13.9736C4.21514 13.8764 4.21514 13.7793 4.21443 13.6821C4.21443 13.65 4.22657 13.6193 4.24943 13.5964C4.27228 13.5729 4.303 13.56 4.33514 13.56H4.69371C4.75943 13.56 4.81443 13.6143 4.81514 13.68V13.7414C4.81585 13.8079 4.81657 13.8736 4.81585 13.94C5.03585 13.97 5.22228 14.0329 5.39085 14.1329L5.43228 14.1671L5.45514 14.2014L5.43585 14.2407L5.21085 14.5893C5.17657 14.6421 5.10728 14.6593 5.053 14.6307C4.98085 14.5929 4.90157 14.5657 4.813 14.5471C4.618 14.5071 4.44514 14.5186 4.28371 14.5821C4.193 14.6179 4.148 14.6629 4.13657 14.7286C4.11943 14.8286 4.14585 14.8929 4.22585 14.9429C4.31085 14.9957 4.40585 15.0279 4.50585 15.0607L4.66585 15.1136C4.77443 15.1493 4.883 15.1843 4.98943 15.2257C5.17228 15.2964 5.31943 15.4036 5.42585 15.545C5.51157 15.6586 5.56371 15.7929 5.58085 15.9443C5.60014 16.1193 5.578 16.2686 5.51157 16.4021ZM15.6737 16.5521H7.55514C7.293 16.5521 7.08014 16.3393 7.08014 16.0771C7.08014 15.815 7.293 15.6021 7.55514 15.6021H15.6737C15.9359 15.6021 16.1487 15.815 16.1487 16.0771C16.1487 16.3393 15.9359 16.5521 15.6737 16.5521Z" fill="#00AA2A"/>
</svg>
