<svg width="20" height="20" viewBox="0 0 20 20" fill="none" xmlns="http://www.w3.org/2000/svg">
<path d="M15.7065 9.42643C14.5894 9.66072 13.2879 9.27572 12.5101 8.29143C11.8565 9.06143 11.0286 9.47786 10.0144 9.47572C9.00436 9.47357 8.18008 9.05572 7.52793 8.28715C7.13936 8.75857 6.66222 9.09929 6.09008 9.30286C5.51865 9.50643 4.93365 9.54286 4.33365 9.425C4.26079 9.76215 4.18793 10.0929 4.11722 10.4236C3.91293 11.3714 3.71365 12.3207 3.50436 13.2671C3.10293 15.0836 4.18436 16.9079 5.97508 17.4243C6.15651 17.4764 6.34222 17.5121 6.52936 17.5371C6.82079 17.5757 7.00936 17.8229 6.97151 18.1164C6.93722 18.3871 6.67579 18.5864 6.39579 18.5429C4.67436 18.2757 3.44579 17.3536 2.74865 15.755C2.35222 14.8443 2.30793 13.895 2.52293 12.9271C2.80293 11.6671 3.07151 10.4043 3.34722 9.14286C3.35865 9.09 3.34436 9.06715 3.29865 9.04C2.37722 8.49143 1.93008 7.67929 1.95722 6.60857C1.96436 6.31215 2.05151 6.02715 2.11293 5.73857C2.28151 4.94572 2.43865 4.15 2.62508 3.36143C2.86008 2.37 3.49365 1.75429 4.47508 1.49357C4.65579 1.44572 4.84151 1.42929 5.02793 1.42929C6.4015 1.42929 7.77508 1.43072 9.14865 1.43072C11.0386 1.43143 12.9294 1.435 14.8201 1.42857C15.3251 1.42715 15.8001 1.51857 16.2322 1.78429C16.8586 2.16857 17.2415 2.725 17.3922 3.44572C17.5851 4.36572 17.7829 5.285 17.9836 6.20358C18.2272 7.32 17.7201 8.46358 16.7229 9.02358C16.6565 9.06072 16.6444 9.09286 16.6608 9.16643C16.9458 10.4707 17.2251 11.7764 17.5101 13.0814C17.9908 15.2821 16.7558 17.5307 14.6315 18.3164C14.2901 18.4429 13.9386 18.5293 13.5765 18.5679C13.2801 18.5993 13.0351 18.3957 13.0051 18.0936C12.9779 17.8243 13.1901 17.5757 13.4651 17.5379C14.9294 17.3371 15.9236 16.5407 16.4322 15.155C16.6701 14.5057 16.6651 13.8386 16.5165 13.1657C16.2479 11.9486 15.9886 10.7286 15.7258 9.51C15.7208 9.48429 15.7144 9.45929 15.7065 9.42643ZM7.42865 2.43857C7.38936 2.43857 7.35722 2.43857 7.32508 2.43857C6.60722 2.43857 5.88936 2.43857 5.1715 2.43857C5.0565 2.43857 4.94151 2.43715 4.82651 2.45143C4.25079 2.52143 3.73722 2.98215 3.61651 3.54357C3.41151 4.49429 3.20722 5.445 3.00293 6.39643C2.85222 7.09857 3.11151 7.74857 3.72579 8.12C4.44293 8.55358 5.20365 8.6 5.97365 8.27429C6.51293 8.04572 6.85151 7.63072 6.97793 7.05358C7.02293 6.84857 7.02793 6.63786 7.04793 6.42929C7.10579 5.83857 7.1615 5.24786 7.21793 4.65715C7.26865 4.12786 7.31936 3.59929 7.37008 3.07C7.38936 2.86215 7.40865 2.65429 7.42865 2.43857ZM12.5736 2.47643C12.5908 2.65429 12.6079 2.83286 12.6244 3.01143C12.6736 3.53143 12.7229 4.05215 12.7722 4.57215C12.8294 5.17143 12.8844 5.77143 12.9451 6.37072C12.9722 6.63429 12.9715 6.90286 13.0408 7.16072C13.1958 7.73857 13.5851 8.10857 14.1208 8.33215C14.7429 8.59143 15.3644 8.57072 15.9872 8.31215C16.7244 8.00643 17.1601 7.22643 16.9986 6.45643C16.7986 5.50143 16.5844 4.54929 16.3901 3.59358C16.2772 3.03786 15.7301 2.46643 14.9851 2.465C14.2115 2.46357 13.4372 2.46572 12.6636 2.46715C12.6344 2.46643 12.6044 2.45857 12.5736 2.47643ZM8.44222 2.44357C8.42222 2.65786 8.40222 2.86929 8.38222 3.08072C8.32508 3.67715 8.26793 4.27357 8.21151 4.87C8.16008 5.41072 8.1265 5.95358 8.05365 6.49143C7.9565 7.20929 8.21222 7.755 8.80865 8.13929C9.46293 8.56072 10.1701 8.60143 10.8851 8.33215C11.5565 8.07929 11.9872 7.41643 11.9579 6.70215C11.9372 6.19572 11.8679 5.69072 11.8194 5.18572C11.7629 4.58929 11.7058 3.99286 11.6486 3.39643C11.6186 3.07929 11.5886 2.76286 11.5586 2.44715C11.4808 2.43643 8.59793 2.43286 8.44222 2.44357Z" fill="#5A577A"/>
<path d="M13.3594 14.9129C13.3208 14.8857 13.2815 14.8629 13.2222 14.8286L13.2065 14.8186C13.1858 14.8064 13.1651 14.7936 13.1472 14.7821C13.0672 14.7264 13.0229 14.645 13.0222 14.5557C13.0215 14.4664 13.0651 14.3871 13.1451 14.3307C13.1744 14.31 13.2087 14.29 13.2458 14.2686L13.2708 14.2543C13.2987 14.2379 13.3265 14.2214 13.3529 14.2029C13.8137 13.895 13.9679 13.3171 13.7194 12.8279C13.6194 12.6307 13.5065 12.4371 13.3851 12.2507C13.0987 11.815 12.5044 11.6543 12.0251 11.8843C11.9844 11.9043 11.9437 11.9271 11.8929 11.9557L11.8751 11.9664C11.8494 11.9807 11.8229 11.9957 11.7979 12.0064C11.7129 12.0443 11.6208 12.0407 11.5444 11.9957C11.4687 11.9514 11.4208 11.8743 11.4115 11.7836C11.4079 11.7507 11.4079 11.7157 11.4087 11.67L11.4079 11.585C11.3922 10.9929 10.9351 10.5386 10.3444 10.5279C10.1351 10.5229 9.95009 10.5236 9.77723 10.5286C9.19509 10.5429 8.74437 10.9957 8.72937 11.5821L8.72794 11.76C8.72294 11.8579 8.67152 11.945 8.59009 11.9929C8.50937 12.0414 8.4108 12.0429 8.32294 11.9993L8.20223 11.9314C7.65509 11.6236 7.02437 11.7907 6.70294 12.3279C6.62009 12.4664 6.52437 12.6271 6.43723 12.7907C6.15723 13.3136 6.3208 13.92 6.8258 14.2314C6.84366 14.2429 6.86223 14.2536 6.88723 14.2679L6.92152 14.2879C6.94509 14.3007 6.96794 14.3143 6.98937 14.3293C7.06866 14.3843 7.11437 14.4679 7.11437 14.5557C7.11437 14.6457 7.07152 14.725 6.99152 14.7814C6.96723 14.7993 6.94009 14.8143 6.89794 14.8393L6.87223 14.8536C6.84723 14.8679 6.82223 14.8836 6.79937 14.8986C6.42723 15.1443 6.25509 15.4921 6.31366 15.88C6.39294 16.4086 6.65437 16.8529 7.06866 17.1636C7.3608 17.3807 7.73937 17.4043 8.10866 17.2293C8.1458 17.2114 8.18366 17.19 8.2358 17.16L8.2958 17.1271C8.3958 17.0729 8.50152 17.0693 8.58652 17.1179C8.67294 17.1671 8.72366 17.2607 8.72723 17.3764C8.75294 18.2121 9.14009 18.585 9.98294 18.585L10.0951 18.5843L10.2565 18.585L10.3787 18.5836C10.9429 18.56 11.3844 18.1164 11.4058 17.5514C11.4072 17.5179 11.4072 17.4836 11.4072 17.4393C11.4065 17.4057 11.4065 17.37 11.4079 17.3393C11.4137 17.25 11.4637 17.1693 11.5415 17.1214C11.6187 17.0757 11.7094 17.0679 11.7915 17.1029C11.8237 17.1179 11.8587 17.1371 11.9187 17.1736L11.9822 17.2079C12.4858 17.4729 13.0894 17.3179 13.3908 16.8493C13.5072 16.6714 13.6172 16.4829 13.7165 16.2886C13.9672 15.8007 13.8165 15.2221 13.3594 14.9129ZM12.3472 16.385C12.2958 16.3543 12.2329 16.3171 12.1565 16.2836C12.0037 16.2164 11.8429 16.1829 11.6779 16.1829C11.0658 16.1829 10.5551 16.6657 10.5144 17.2814C10.5101 17.3429 10.5108 17.4 10.5115 17.4464L10.5108 17.5164C10.5072 17.615 10.4301 17.6843 10.3187 17.6886L10.2844 17.69V17.6971L10.2815 17.6893L10.0658 17.6879H9.92723C9.73509 17.6814 9.67866 17.6479 9.67652 17.6479C9.67294 17.6421 9.6308 17.5786 9.62366 17.3486C9.60366 16.685 9.1058 16.1843 8.4658 16.1843C8.26009 16.1843 8.0608 16.2357 7.87294 16.3364L7.78937 16.3836C7.76723 16.3957 7.74223 16.41 7.72223 16.42C7.6658 16.4471 7.6358 16.4493 7.6008 16.4421C7.38223 16.2757 7.24366 16.0357 7.19937 15.7471C7.19723 15.7307 7.22794 15.69 7.32294 15.6286L7.34294 15.6157L7.34366 15.6164L7.36652 15.6036C7.40437 15.5814 7.45723 15.5507 7.51009 15.5136C7.82937 15.2871 8.01152 14.9379 8.01009 14.5536C8.00866 14.1686 7.82366 13.8193 7.50294 13.595C7.45223 13.5593 7.40437 13.5314 7.34652 13.4986L7.3008 13.4721C7.26366 13.4486 7.21509 13.4093 7.2008 13.3564C7.18652 13.3043 7.20723 13.2493 7.22723 13.2121C7.30509 13.0671 7.39009 12.9229 7.4708 12.7886C7.54723 12.66 7.58652 12.6143 7.79152 12.73C7.82723 12.7514 7.87223 12.7771 7.92509 12.8043C8.09437 12.8871 8.27366 12.9293 8.45937 12.9293C9.09152 12.9293 9.59223 12.445 9.62294 11.8036C9.62509 11.7607 9.62509 11.7193 9.62509 11.6629V11.6064C9.62794 11.4993 9.69723 11.4279 9.8008 11.425C9.95937 11.4207 10.1265 11.4207 10.3272 11.425C10.4379 11.4271 10.5094 11.4979 10.5122 11.6086V11.6643C10.5115 11.7243 10.5115 11.7957 10.5194 11.875C10.5822 12.4764 11.0801 12.9293 11.6779 12.9293C11.8451 12.9293 12.0087 12.8943 12.1637 12.825C12.2351 12.7929 12.2937 12.76 12.3751 12.7136L12.4172 12.6907C12.5037 12.6479 12.5865 12.6693 12.6365 12.745C12.7415 12.9043 12.8372 13.0686 12.9208 13.2343C12.9644 13.32 12.9315 13.4079 12.8294 13.4743L12.7915 13.4971C12.7522 13.52 12.6929 13.5543 12.6294 13.5986C12.3087 13.8243 12.1258 14.1743 12.1272 14.5586C12.1279 14.9379 12.3179 15.2964 12.6358 15.5179C12.6987 15.5621 12.7601 15.5979 12.7922 15.6157C12.8151 15.6279 12.8401 15.6429 12.8565 15.6543C12.8979 15.6814 12.9265 15.7186 12.9358 15.7586C12.9465 15.7979 12.9408 15.8379 12.9201 15.8793C12.8401 16.0357 12.7465 16.1971 12.6422 16.36C12.5872 16.4443 12.4958 16.465 12.4022 16.415L12.3701 16.3986L12.3672 16.4043L12.3679 16.3964L12.3472 16.385Z" fill="#5A577A"/>
</svg>
