<svg width="20" height="20" viewBox="0 0 20 20" fill="none" xmlns="http://www.w3.org/2000/svg">
<path d="M13.9913 1.42857H13.4642C12.8013 1.43572 12.1099 1.43572 11.4113 1.43572H11.062C10.3777 1.43572 9.71489 1.43572 9.12346 1.42857H8.92418C8.27561 1.42857 7.74061 1.635 7.25632 2.12C7.21346 2.15572 7.17061 2.19857 7.12775 2.24143C6.92775 2.455 6.71418 2.66143 6.49275 2.87572C6.30775 3.06072 6.10775 3.25357 5.91561 3.44572C5.63061 3.72357 5.33846 4.00143 5.03203 4.28C4.74632 4.55786 4.44703 4.83572 4.15489 5.10643C3.72703 5.51286 3.48489 5.97643 3.40632 6.525V6.54643C3.37775 6.675 3.37061 6.81 3.37061 6.95286C3.37775 8.07929 3.37061 9.205 3.37061 10.3386V16.2979C3.37061 16.305 3.37061 16.305 3.37061 16.305C3.55632 17.6021 4.58275 18.5429 5.92275 18.5714H13.9913C14.262 18.5714 14.4977 18.5357 14.7399 18.4714C15.8806 18.1436 16.6285 17.1171 16.6285 15.8629V4.13C16.6292 2.59072 15.5027 1.44286 13.9913 1.42857ZM7.93275 6.83857C7.76846 6.89572 7.56918 6.91714 7.35561 6.90286C6.93489 6.88143 6.49346 6.86 6.05846 6.83857C5.65918 6.81714 5.25275 6.79572 4.84703 6.77429C4.79703 6.77429 4.76132 6.72429 4.76846 6.67429C4.79703 6.46072 4.93275 6.30357 5.07489 6.16143C5.20346 6.02572 5.33846 5.89786 5.47418 5.76929C6.13703 5.12072 6.79989 4.465 7.46989 3.80929C7.64061 3.63786 7.80489 3.47429 7.97561 3.30286C8.04703 3.23857 8.10418 3.18143 8.16061 3.11786C8.31061 2.975 8.46703 2.89714 8.64561 2.86857C8.74561 2.84714 8.83061 2.91143 8.83061 3.01857V5.47072C8.83061 6.15429 8.4956 6.66072 7.93275 6.83857ZM10.6627 14.915C10.4706 15.0007 10.442 15.0857 10.4635 15.25C10.4706 15.3357 10.4706 15.4279 10.4635 15.5279C10.442 15.77 10.2499 15.9486 9.9856 15.9486C9.74346 15.9486 9.55775 15.7707 9.54346 15.5064C9.53632 15.4064 9.53632 15.3 9.53632 15.1929V15.0786L9.41489 15.05C9.12275 14.9857 8.85918 14.8793 8.61632 14.7221C8.3456 14.5507 8.26703 14.2943 8.40275 14.0664C8.47418 13.9521 8.57346 13.8743 8.68775 13.8457C8.72346 13.8457 8.75203 13.8386 8.78775 13.8386C8.89489 13.8386 8.99418 13.8743 9.09418 13.9386C9.35775 14.1093 9.64989 14.1736 10.0635 14.145C10.3985 14.1164 10.6906 13.8171 10.7335 13.475C10.762 13.2686 10.7049 12.9829 10.2913 12.8193L10.1842 12.7693C9.76346 12.6264 9.43561 12.4843 9.14346 12.32C8.65132 12.0207 8.43061 11.5929 8.48061 11.0514C8.54489 10.4529 8.83703 10.0536 9.36418 9.84715C9.49989 9.78286 9.57061 9.72572 9.54203 9.56214C9.52061 9.455 9.53489 9.34857 9.54203 9.24143C9.56346 9.00643 9.74846 8.82786 9.99846 8.82786C10.2485 8.82786 10.4406 9.00572 10.462 9.24857C10.4692 9.32714 10.462 9.40572 10.462 9.47643C10.462 9.51929 10.4549 9.56214 10.4549 9.605V9.76214L10.562 9.79786C10.7335 9.855 10.9185 9.92643 11.1035 10.0543C11.3456 10.2321 11.4099 10.4964 11.2606 10.7171C11.1177 10.9379 10.847 10.9807 10.5977 10.8171C10.3199 10.6393 10.0349 10.5964 9.74918 10.6743C9.49275 10.7529 9.42846 10.9664 9.39275 11.1307C9.37846 11.3086 9.44989 11.4229 9.64203 11.5371C9.89846 11.68 10.1763 11.7936 10.4977 11.9079L10.5835 11.9436C11.2535 12.2 11.617 12.6707 11.6599 13.3264C11.6892 14.0093 11.2827 14.665 10.6627 14.915ZM13.507 7.55143H11.1263C10.827 7.55143 10.5992 7.31643 10.5992 7.02357C10.5992 6.73143 10.827 6.49643 11.1263 6.49643H13.507C13.7992 6.49643 14.0342 6.73143 14.0342 7.02357C14.0342 7.31643 13.7992 7.55143 13.507 7.55143ZM13.507 5.40572H11.1263C10.827 5.40572 10.5992 5.17072 10.5992 4.87857C10.5992 4.58643 10.827 4.35072 11.1263 4.35072H13.507C13.7992 4.35072 14.0342 4.58572 14.0342 4.87857C14.0342 5.17072 13.7992 5.40572 13.507 5.40572Z" fill="#00C9BD"/>
</svg>
