<?xml version="1.0" encoding="utf-8"?>
<!-- Generator: Adobe Illustrator 28.1.0, SVG Export Plug-In . SVG Version: 6.00 Build 0)  -->
<svg version="1.0" id="Layer_1" xmlns="http://www.w3.org/2000/svg" xmlns:xlink="http://www.w3.org/1999/xlink" x="0px" y="0px"
	 viewBox="0 0 28 28" style="enable-background:new 0 0 28 28;" xml:space="preserve">
<style type="text/css">
	.st0{fill:url(#SVGID_1_);}
	.st1{fill:url(#SVGID_00000054984664450035942910000010743150163235790214_);}
	.st2{fill:url(#SVGID_00000032613945714403618970000015271448058820838535_);}
</style>
<g>
	<linearGradient id="SVGID_1_" gradientUnits="userSpaceOnUse" x1="14" y1="27" x2="14" y2="1">
		<stop  offset="0" style="stop-color:#535F82"/>
		<stop  offset="1" style="stop-color:#A6B2D5"/>
	</linearGradient>
	<circle class="st0" cx="14" cy="14" r="13"/>
	<g>
		
			<linearGradient id="SVGID_00000085247035983682383700000011965559855688210859_" gradientUnits="userSpaceOnUse" x1="14" y1="22.4343" x2="14" y2="15.2059">
			<stop  offset="0" style="stop-color:#A6B2D5"/>
			<stop  offset="1" style="stop-color:#D1DAF3"/>
		</linearGradient>
		<path style="fill:url(#SVGID_00000085247035983682383700000011965559855688210859_);" d="M14,15.247
			c0.923,0,1.852-0.068,2.767,0.014c1.915,0.171,3.421,1.895,3.417,3.819c-0.001,0.524-0.191,0.976-0.598,1.309
			c-1.956,1.607-4.19,2.284-6.711,1.971c-1.665-0.207-3.13-0.876-4.421-1.937c-0.541-0.445-0.704-1.034-0.617-1.704
			c0.272-2.087,1.879-3.5,3.987-3.512c0.725-0.004,1.45-0.001,2.175-0.001C14,15.22,14,15.234,14,15.247z"/>
		
			<linearGradient id="SVGID_00000070837309499961605420000000515694260778745260_" gradientUnits="userSpaceOnUse" x1="14.005" y1="13.3208" x2="14.005" y2="5.5657">
			<stop  offset="0" style="stop-color:#A6B2D5"/>
			<stop  offset="1" style="stop-color:#D1DAF3"/>
		</linearGradient>
		<path style="fill:url(#SVGID_00000070837309499961605420000000515694260778745260_);" d="M17.886,9.442
			c-0.003,2.131-1.747,3.875-3.877,3.879c-2.136,0.004-3.905-1.769-3.884-3.894c0.021-2.149,1.754-3.871,3.887-3.861
			C16.155,5.575,17.889,7.31,17.886,9.442z"/>
	</g>
</g>
</svg>
