<svg width="20" height="20" viewBox="0 0 20 20" fill="none" xmlns="http://www.w3.org/2000/svg">
<path d="M11.3156 9.23784C11.5228 9.65641 11.4878 10.2221 11.2313 10.6264C11.017 10.9643 10.6442 11.2136 10.2542 11.2807C9.75847 11.365 9.29061 11.2036 8.93918 10.8307C8.40847 10.2614 8.42204 9.39999 8.96347 8.84427C9.67061 8.12713 10.8692 8.32784 11.3156 9.23784ZM18.5713 3.97284V16.0278C18.5713 17.4321 17.432 18.5714 16.027 18.5714H3.97275C2.56775 18.5714 1.42847 17.4321 1.42847 16.0271V3.97284C1.42847 2.56784 2.56775 1.42856 3.97275 1.42856H16.0278C17.432 1.42856 18.5713 2.56784 18.5713 3.97284ZM16.072 10.8621C15.3513 9.32213 15.3935 9.3957 15.2178 9.29427C14.912 9.11499 14.5392 9.24499 14.4128 9.57927C14.332 9.78284 14.3528 9.86784 14.5778 10.3421C14.6763 10.5493 14.7499 10.7293 14.7428 10.7357C14.7356 10.7421 14.2192 10.5671 13.5999 10.3421L12.4713 9.9307L12.4499 9.66713C12.4042 9.08356 12.1549 8.55284 11.7185 8.11999C11.437 7.83499 11.082 7.62427 10.692 7.50142L10.4913 7.43784V6.31356C11.0563 6.11141 11.4606 5.57142 11.4606 4.93713C11.4606 4.12999 10.8063 3.4757 9.99918 3.4757C9.19204 3.4757 8.53775 4.12999 8.53775 4.93713C8.53775 5.55856 8.92561 6.08999 9.47204 6.3007V7.4407L9.22561 7.52141C8.3149 7.81356 7.60489 8.71356 7.54489 9.64856L7.52704 9.92999L6.39847 10.3414C5.7799 10.5664 5.26275 10.7421 5.25561 10.735C5.24847 10.7278 5.32275 10.5486 5.42061 10.3414C5.64561 9.86713 5.66704 9.78213 5.58561 9.57856C5.46632 9.26213 5.10418 9.12142 4.8049 9.27284C4.72775 9.31499 4.63989 9.38213 4.61132 9.42784C4.58347 9.47356 4.33347 9.9907 4.05561 10.5778C3.58775 11.58 3.55632 11.6607 3.57061 11.8157C3.60204 12.1321 3.64775 12.1636 4.85061 12.7228C6.06704 13.2886 6.1899 13.3278 6.41132 13.1764C6.74561 12.9478 6.79132 12.54 6.5099 12.28C6.4399 12.2128 6.15132 12.0693 5.74347 11.8936C5.65561 11.855 5.63775 11.8336 5.67347 11.8128C5.70132 11.7986 6.19704 11.6157 6.77775 11.4086C7.71632 11.0678 7.82918 11.0321 7.86061 11.0886C7.96275 11.2714 8.25061 11.6057 8.43347 11.7528C8.65132 11.9286 9.12275 12.175 9.31918 12.2171L9.43489 12.2414V14.6078L9.09061 14.2671C8.89347 14.07 8.69347 13.9014 8.61275 13.87C8.22632 13.7086 7.79704 14.0843 7.87418 14.5136C7.89561 14.6264 8.02204 14.77 8.76347 15.5193C9.32275 16.0821 9.67775 16.4157 9.76918 16.4578C10.1035 16.6128 10.1699 16.5736 11.1506 15.6C11.622 15.1321 12.0299 14.7071 12.0578 14.6543C12.1313 14.5136 12.1213 14.2428 12.0363 14.1057C11.9592 13.9828 11.7935 13.8664 11.6463 13.835C11.4356 13.7893 11.2699 13.8771 10.9078 14.2286L10.5599 14.5664V12.2457L10.7078 12.2036C10.9749 12.1228 11.2913 11.9543 11.5235 11.7678C11.7242 11.6064 12.0192 11.2757 12.1285 11.0928C12.1635 11.0328 12.2378 11.0543 13.2185 11.4057C13.7949 11.6164 14.2942 11.7993 14.3228 11.8136C14.3578 11.835 14.3406 11.8557 14.2528 11.8943C13.8449 12.07 13.5563 12.2143 13.4863 12.2807C13.2049 12.5407 13.2506 12.9486 13.5849 13.1771C13.8063 13.3286 13.9292 13.29 15.1456 12.7236C16.3478 12.1643 16.3935 12.1328 16.4256 11.82C16.4406 11.6636 16.4128 11.5864 16.072 10.8621Z" fill="#7C00FF"/>
</svg>
