<svg width="20" height="20" viewBox="0 0 20 20" fill="none" xmlns="http://www.w3.org/2000/svg">
<path d="M16.6394 4.12786C16.6365 2.59643 15.5058 1.44072 14.0065 1.43143H12.4501C12.1094 1.43143 11.7687 1.43286 11.4287 1.43286H11.0815C10.4287 1.43286 9.77796 1.43143 9.12725 1.42857H9.07939C8.31296 1.43643 7.68011 1.70143 7.14653 2.24143C6.93368 2.45572 6.71939 2.66857 6.50654 2.87714C5.74582 3.62714 4.98725 4.34429 4.26868 5.01643C3.81796 5.43929 3.53296 5.945 3.41725 6.525C3.41582 6.52929 3.41582 6.53572 3.41439 6.54C3.37582 6.73786 3.35582 6.94429 3.35725 7.15857C3.36011 7.89286 3.35868 8.62714 3.35868 9.36143L3.35725 11.9186C3.35725 13.2386 3.35725 14.5607 3.35868 15.8814C3.35868 16.025 3.36939 16.165 3.38939 16.3029C3.38939 16.3043 3.38939 16.3043 3.38939 16.3057C3.57582 17.6014 4.60511 18.5407 5.93439 18.57C5.95653 18.5714 5.97796 18.5714 5.99939 18.5714H13.998C14.2708 18.5714 14.518 18.5393 14.7494 18.4729C15.8951 18.14 16.6372 17.1171 16.6387 15.8643C16.6401 14.4914 16.6401 13.1186 16.6401 11.7457V8.29857C16.6408 6.90857 16.6408 5.51786 16.6394 4.12786ZM7.96725 3.05572C7.97653 3.04643 7.98725 3.03714 7.99653 3.02786V5.34929C7.99653 5.58214 7.80868 5.77214 7.57511 5.77214H5.15368C6.05654 4.92715 7.01582 4.01714 7.96725 3.05572ZM15.4837 11.7479C15.4837 13.1193 15.4837 14.4921 15.4822 15.865C15.4822 16.5993 15.078 17.1729 14.4272 17.3614C14.3022 17.3986 14.1608 17.4157 13.9987 17.4157H6.00082C5.14154 17.4157 4.51725 16.7693 4.51511 15.8807C4.51368 14.5607 4.51368 13.24 4.51368 11.92L4.51511 9.36286C4.51654 8.62714 4.51653 7.89143 4.51368 7.15572C4.51368 7.04286 4.52296 6.93857 4.53868 6.83643H7.99653C8.58439 6.83643 9.06082 6.36 9.06082 5.77357H9.05939V2.58714C9.08082 2.58714 9.10082 2.58572 9.12082 2.58572C10.2315 2.59 11.3401 2.59 12.4494 2.58857C12.963 2.58857 13.4751 2.58714 13.9887 2.58857C14.8665 2.58857 15.4801 3.22286 15.4815 4.12929C15.483 5.51929 15.483 6.90857 15.483 8.29857L15.4837 11.7479ZM13.5172 4.34929H11.1394C10.8472 4.34929 10.6101 4.58643 10.6101 4.87857C10.6101 5.17072 10.8472 5.40786 11.1394 5.40786H13.5172C13.8094 5.40786 14.0465 5.17072 14.0465 4.87857C14.0465 4.58572 13.8094 4.34929 13.5172 4.34929ZM13.5172 6.49143H11.1394C10.8472 6.49143 10.6101 6.72857 10.6101 7.02072C10.6101 7.31286 10.8472 7.55 11.1394 7.55H13.5172C13.8094 7.55 14.0465 7.31286 14.0465 7.02072C14.0465 6.72857 13.8094 6.49143 13.5172 6.49143Z" fill="#5A577A"/>
<path d="M10.5865 12.3007L10.498 12.2671C10.1737 12.1543 9.90012 12.0364 9.64226 11.8964C9.44726 11.785 9.37655 11.6679 9.39584 11.49C9.42655 11.3257 9.49441 11.1143 9.74941 11.0357C10.0373 10.9529 10.3223 11.0014 10.5973 11.1771C10.8501 11.3407 11.1166 11.2971 11.2637 11.0743C11.4116 10.8579 11.3473 10.5936 11.1073 10.4157C10.9216 10.285 10.7351 10.2129 10.5601 10.1543L10.458 10.12V9.96786C10.458 9.925 10.4594 9.88143 10.4608 9.83857C10.463 9.76214 10.4658 9.685 10.4587 9.60786C10.4416 9.36357 10.2473 9.18929 9.99584 9.18929C9.75155 9.18929 9.56155 9.36357 9.54512 9.60429C9.53512 9.70929 9.52369 9.81214 9.54369 9.91857C9.57012 10.0821 9.50155 10.145 9.36655 10.2057C8.84012 10.4129 8.54369 10.8164 8.48226 11.4086C8.43084 11.9543 8.65369 12.3821 9.14655 12.68C9.43441 12.8436 9.76369 12.9871 10.1815 13.13L10.2901 13.1829C10.7073 13.3443 10.7623 13.6271 10.733 13.835C10.6908 14.1807 10.3987 14.4764 10.0666 14.505C9.64798 14.5321 9.36012 14.4686 9.09298 14.3021C8.99655 14.2336 8.89155 14.1993 8.78655 14.1993C8.75512 14.1993 8.72298 14.2021 8.69155 14.2086C8.57726 14.2336 8.47441 14.31 8.40512 14.4229C8.26726 14.6557 8.34869 14.9079 8.61798 15.0786C8.85869 15.2357 9.12084 15.3436 9.41798 15.4093L9.53512 15.4357V15.555C9.53512 15.6629 9.53441 15.7693 9.54512 15.8664C9.55441 16.1293 9.73941 16.3107 9.98584 16.3107C10.248 16.3107 10.4415 16.1321 10.4594 15.8843C10.4701 15.7879 10.4701 15.6957 10.4601 15.6057C10.443 15.4486 10.4687 15.3593 10.6594 15.2729C11.2823 15.0229 11.6901 14.3714 11.6587 13.685C11.6158 13.0279 11.2558 12.5614 10.5865 12.3007Z" fill="#5A577A"/>
</svg>
