<svg width="20" height="20" viewBox="0 0 20 20" fill="none" xmlns="http://www.w3.org/2000/svg">
<path d="M15.9336 15.835C15.3451 15.7593 14.7272 15.6829 14.1108 15.5979C14.0101 15.5836 13.9336 15.5986 13.8522 15.6564C13.5729 15.8543 13.2765 16.025 12.9658 16.1686C12.8808 16.2079 12.8315 16.2621 12.7958 16.3493C12.5765 16.89 12.3465 17.4264 12.1286 17.9679C12.0215 18.235 11.8415 18.3836 11.5543 18.4336C10.4879 18.6214 9.42435 18.6179 8.36077 18.4143C8.13435 18.3707 7.98649 18.235 7.89934 18.0236C7.67935 17.49 7.45077 16.9593 7.23792 16.4229C7.18077 16.2786 7.09363 16.195 6.95792 16.1279C6.72434 16.0121 6.48792 15.8943 6.28006 15.74C6.0972 15.6043 5.92006 15.5864 5.70934 15.6179C5.1922 15.695 4.67363 15.7564 4.15577 15.8293C3.87149 15.8693 3.65292 15.78 3.46649 15.5557C2.7922 14.7436 2.27149 13.8479 1.91506 12.8536C1.82077 12.5914 1.85792 12.3729 2.02577 12.1579C2.37863 11.7064 2.72077 11.2479 3.07363 10.7964C3.15077 10.6971 3.18363 10.6043 3.1722 10.4743C3.14292 10.145 3.14434 9.81429 3.17434 9.48501C3.18292 9.39001 3.1622 9.32001 3.10506 9.24572C2.74292 8.77786 2.3872 8.30572 2.02434 7.83929C1.85506 7.62358 1.82149 7.40501 1.91577 7.14286C2.27077 6.15501 2.78792 5.26429 3.45577 4.45501C3.65149 4.21786 3.87792 4.12929 4.1772 4.17215C4.75006 4.25358 5.32506 4.32001 5.89792 4.40286C6.00149 4.41786 6.07649 4.39358 6.15506 4.33715C6.42934 4.14286 6.72077 3.97715 7.02577 3.83572C7.11792 3.79286 7.16934 3.73429 7.2072 3.64143C7.4222 3.11215 7.65363 2.59001 7.86077 2.05786C7.97435 1.76572 8.16435 1.60929 8.4722 1.55858C9.51435 1.38643 10.5529 1.37858 11.5929 1.57501C11.8515 1.62358 12.0158 1.76143 12.1129 2.00001C12.3286 2.52858 12.5529 3.05429 12.7658 3.58358C12.8172 3.71215 12.8872 3.80001 13.0172 3.85715C13.3072 3.98572 13.5786 4.15072 13.8386 4.33286C13.9251 4.39358 14.0043 4.41572 14.1136 4.40001C14.6801 4.31858 15.2493 4.25358 15.8158 4.17286C16.1136 4.13072 16.3436 4.21215 16.5401 4.44929C17.2122 5.26286 17.7329 6.15929 18.0879 7.15358C18.1793 7.40929 18.1429 7.62429 17.9808 7.83358C17.6186 8.30072 17.2629 8.77358 16.9001 9.24001C16.8379 9.32001 16.8186 9.39572 16.8272 9.49644C16.8551 9.83215 16.8558 10.1693 16.8265 10.5043C16.8179 10.6057 16.8401 10.68 16.9015 10.76C17.2601 11.2221 17.6108 11.6907 17.9708 12.1514C18.1443 12.3729 18.1786 12.5964 18.0815 12.8643C17.7193 13.8629 17.1986 14.7679 16.5115 15.5764C16.3386 15.78 16.2036 15.8443 15.9336 15.835ZM9.99863 5.41001C7.47506 5.41072 5.41506 7.47001 5.41077 9.99572C5.40649 12.5171 7.4622 14.5793 9.99077 14.59C12.5136 14.6007 14.5943 12.5207 14.5879 9.99429C14.5815 7.46643 12.5215 5.40929 9.99863 5.41001Z" fill="#00D856"/>
<path d="M9.40285 10.3614C9.61857 10.1414 9.81714 9.93643 10.0186 9.73429C10.4714 9.28 10.9214 8.82357 11.38 8.375C11.6221 8.13857 11.9871 8.15 12.2186 8.38357C12.4443 8.61214 12.46 8.97357 12.2286 9.20857C11.4279 10.0193 10.6221 10.825 9.81214 11.6264C9.57428 11.8614 9.22714 11.8571 8.98785 11.6243C8.57785 11.2243 8.17214 10.82 7.77285 10.4086C7.54285 10.1721 7.55214 9.81357 7.77643 9.58286C8.00571 9.34714 8.37071 9.33429 8.615 9.56786C8.87642 9.81786 9.125 10.08 9.40285 10.3614Z" fill="#00D856"/>
</svg>
