<svg width="30" height="30" viewBox="0 0 30 30" fill="none" xmlns="http://www.w3.org/2000/svg">
<g clip-path="url(#clip0_27636_14530)">
<path d="M27.01 6.29H2.99C1.34 6.29 0 7.63 0 9.28V23.64C0 25.29 1.34 26.63 2.99 26.63H12.13C11.93 27 11.79 27.42 11.67 27.78C11.43 28.52 11.25 29 10.95 29H8.76C8.49 29 8.26 29.22 8.26 29.5C8.26 29.78 8.49 30 8.76 30H21.24C21.51 30 21.74 29.78 21.74 29.5C21.74 29.22 21.51 29 21.24 29H18.53C18.23 29 18.05 28.52 17.81 27.78C17.69 27.42 17.56 27 17.35 26.63H27.01C28.66 26.63 30 25.29 30 23.64V9.28C30 7.63 28.66 6.29 27.01 6.29ZM12.28 29C12.42 28.71 12.52 28.39 12.62 28.09C12.91 27.18 13.13 26.63 13.64 26.63H15.84C16.35 26.63 16.57 27.18 16.86 28.09C16.96 28.39 17.07 28.71 17.2 29H12.28Z" fill="#E7B3EA"/>
<path d="M9.66497 3.719C9.11397 3.719 8.66797 4.165 8.66797 4.713C8.66797 4.99 8.77997 5.239 8.95997 5.419C9.13997 5.599 9.39197 5.711 9.66597 5.711C9.93997 5.711 10.192 5.599 10.372 5.419C10.552 5.239 10.664 4.991 10.664 4.713C10.664 4.439 10.552 4.191 10.372 4.011C10.19 3.83 9.93797 3.719 9.66497 3.719Z" fill="white"/>
<path d="M9.66497 9.083C9.11397 9.083 8.66797 9.529 8.66797 10.08C8.66797 10.354 8.77997 10.606 8.95997 10.786C9.13997 10.966 9.39197 11.078 9.66597 11.078C9.93997 11.078 10.192 10.966 10.372 10.786C10.552 10.606 10.664 10.354 10.664 10.08C10.664 9.806 10.552 9.554 10.372 9.374C10.19 9.194 9.93797 9.083 9.66497 9.083Z" fill="white"/>
<path d="M20.3349 14.45H13.0309C12.4799 14.45 12.0339 14.896 12.0339 15.447C12.0339 15.721 12.1459 15.969 12.3259 16.149C12.5059 16.329 12.7539 16.441 13.0319 16.441H20.3359C20.8869 16.441 21.3329 15.995 21.3329 15.447C21.3329 15.17 21.2209 14.921 21.0409 14.741C20.8609 14.562 20.6089 14.45 20.3349 14.45Z" fill="white"/>
<path d="M9.66497 14.45C9.11397 14.45 8.66797 14.896 8.66797 15.447C8.66797 15.721 8.77997 15.969 8.95997 16.149C9.13997 16.329 9.39197 16.441 9.66597 16.441C9.93997 16.441 10.192 16.329 10.372 16.149C10.552 15.969 10.664 15.721 10.664 15.447C10.664 15.17 10.552 14.921 10.372 14.741C10.19 14.562 9.93797 14.45 9.66497 14.45Z" fill="white"/>
<path d="M20.3349 3.719H13.0309C12.4799 3.719 12.0339 4.165 12.0339 4.713C12.0339 4.99 12.1459 5.239 12.3259 5.419C12.5059 5.599 12.7539 5.711 13.0319 5.711H20.3359C20.8869 5.711 21.3329 5.265 21.3329 4.714C21.3329 4.44 21.2209 4.192 21.0409 4.012C20.8609 3.83 20.6089 3.719 20.3349 3.719Z" fill="white"/>
<path d="M20.3349 9.083H13.0309C12.4799 9.083 12.0339 9.529 12.0339 10.08C12.0339 10.354 12.1459 10.606 12.3259 10.786C12.5059 10.966 12.7539 11.078 13.0319 11.078H20.3359C20.8869 11.078 21.3329 10.632 21.3329 10.081C21.3329 9.807 21.2209 9.555 21.0409 9.375C20.8609 9.194 20.6089 9.083 20.3349 9.083Z" fill="white"/>
<path d="M22.063 0H7.937C6.868 0 6 0.868 6 1.937V18.223C6 19.292 6.868 20.16 7.937 20.16H22.063C23.132 20.16 24 19.292 24 18.223V1.937C24 0.868 23.132 0 22.063 0ZM10.37 16.15C10.19 16.33 9.938 16.442 9.664 16.442C9.39 16.442 9.139 16.33 8.959 16.15C8.779 15.97 8.667 15.722 8.667 15.448C8.667 14.897 9.113 14.451 9.664 14.451C9.938 14.451 10.19 14.563 10.37 14.743C10.55 14.923 10.662 15.171 10.662 15.449C10.662 15.721 10.55 15.97 10.37 16.15ZM10.37 10.786C10.19 10.966 9.938 11.078 9.664 11.078C9.39 11.078 9.138 10.966 8.958 10.786C8.778 10.606 8.666 10.354 8.666 10.08C8.666 9.529 9.112 9.083 9.663 9.083C9.937 9.083 10.189 9.195 10.369 9.375C10.549 9.555 10.661 9.807 10.661 10.081C10.662 10.354 10.55 10.606 10.37 10.786ZM10.37 5.418C10.19 5.598 9.938 5.71 9.665 5.71C9.392 5.71 9.139 5.598 8.959 5.418C8.779 5.238 8.667 4.99 8.667 4.712C8.667 4.165 9.113 3.718 9.664 3.718C9.938 3.718 10.19 3.83 10.37 4.01C10.55 4.19 10.662 4.438 10.662 4.712C10.662 4.99 10.55 5.238 10.37 5.418ZM20.335 16.441H13.031C12.754 16.441 12.505 16.329 12.325 16.149C12.145 15.969 12.033 15.721 12.033 15.447C12.033 14.896 12.479 14.45 13.03 14.45H20.334C20.608 14.45 20.86 14.562 21.04 14.742C21.22 14.922 21.332 15.17 21.332 15.448C21.332 15.995 20.886 16.441 20.335 16.441ZM20.335 11.077H13.031C12.754 11.077 12.505 10.965 12.325 10.785C12.145 10.605 12.033 10.353 12.033 10.079C12.033 9.528 12.479 9.082 13.03 9.082H20.334C20.608 9.082 20.86 9.194 21.04 9.374C21.22 9.554 21.332 9.806 21.332 10.08C21.332 10.631 20.886 11.077 20.335 11.077ZM20.335 5.71H13.031C12.754 5.71 12.505 5.598 12.325 5.418C12.145 5.238 12.033 4.99 12.033 4.712C12.033 4.165 12.479 3.718 13.03 3.718H20.334C20.608 3.718 20.86 3.83 21.04 4.01C21.22 4.19 21.332 4.438 21.332 4.712C21.332 5.263 20.886 5.71 20.335 5.71Z" fill="#AE00B9"/>
</g>
<defs>
<clipPath id="clip0_27636_14530">
<rect width="30" height="30" fill="white"/>
</clipPath>
</defs>
</svg>
