<svg width="25" height="25" viewBox="0 0 25 25" fill="none" xmlns="http://www.w3.org/2000/svg">
<path d="M1.1748 5.00005H22.8244L21.2088 2.20005C20.9631 1.77441 20.6096 1.42095 20.184 1.1752C19.7583 0.929445 19.2755 0.800061 18.784 0.800049H5.2152C4.72371 0.800061 4.24088 0.929445 3.81524 1.1752C3.3896 1.42095 3.03615 1.77441 2.7904 2.20005L1.1748 5.00005Z" fill="url(#paint0_linear_28890_6914)"/>
<path d="M20.3998 3.6001H3.5998C2.05341 3.6001 0.799805 4.8537 0.799805 6.4001V20.4001C0.799805 21.9465 2.05341 23.2001 3.5998 23.2001H20.3998C21.9462 23.2001 23.1998 21.9465 23.1998 20.4001V6.4001C23.1998 4.8537 21.9462 3.6001 20.3998 3.6001Z" fill="url(#paint1_linear_28890_6914)"/>
<path d="M14.8002 0.800049H9.2002V3.60005H14.8002V0.800049Z" fill="url(#paint2_linear_28890_6914)"/>
<path d="M8.49961 19H4.29961C3.91301 19 3.59961 19.3134 3.59961 19.7C3.59961 20.0866 3.91301 20.4 4.29961 20.4H8.49961C8.88621 20.4 9.19961 20.0866 9.19961 19.7C9.19961 19.3134 8.88621 19 8.49961 19Z" fill="url(#paint3_linear_28890_6914)"/>
<path d="M20.3914 24.6001C22.711 24.6001 24.5914 22.7197 24.5914 20.4001C24.5914 18.0805 22.711 16.2001 20.3914 16.2001C18.0718 16.2001 16.1914 18.0805 16.1914 20.4001C16.1914 22.7197 18.0718 24.6001 20.3914 24.6001Z" fill="url(#paint4_linear_28890_6914)"/>
<path d="M18.9912 20.4L19.9824 21.3912L21.962 19.4088" stroke="white" strokeLinecap="round" strokeLinejoin="round"/>
<path d="M13.991 8.7941L12.2494 7.9261C12.172 7.88762 12.0867 7.8676 12.0002 7.8676C11.9137 7.8676 11.8284 7.88762 11.751 7.9261L10.0094 8.7941C9.92404 8.83652 9.82927 8.85644 9.73406 8.85199C9.63885 8.84755 9.54635 8.81887 9.46532 8.76868C9.38429 8.71849 9.31741 8.64846 9.27102 8.5652C9.22462 8.48194 9.20025 8.38821 9.2002 8.2929V3.6001H14.8002V8.2929C14.8001 8.38821 14.7758 8.48194 14.7294 8.5652C14.683 8.64846 14.6161 8.71849 14.5351 8.76868C14.454 8.81887 14.3615 8.84755 14.2663 8.85199C14.1711 8.85644 14.0763 8.83652 13.991 8.7941Z" fill="url(#paint5_linear_28890_6914)"/>
<defs>
<linearGradient id="paint0_linear_28890_6914" x1="11.9996" y1="5.00005" x2="11.9996" y2="0.800049" gradientUnits="userSpaceOnUse">
<stop stop-color="#535F82"/>
<stop offset="1" stop-color="#A6B2D5"/>
</linearGradient>
<linearGradient id="paint1_linear_28890_6914" x1="11.9998" y1="23.2001" x2="11.9998" y2="3.6001" gradientUnits="userSpaceOnUse">
<stop stop-color="#535F82"/>
<stop offset="1" stop-color="#A6B2D5"/>
</linearGradient>
<linearGradient id="paint2_linear_28890_6914" x1="12.0002" y1="3.60005" x2="12.0002" y2="0.800049" gradientUnits="userSpaceOnUse">
<stop stop-color="#A6B2D5"/>
<stop offset="1" stop-color="#D1DAF3"/>
</linearGradient>
<linearGradient id="paint3_linear_28890_6914" x1="6.39961" y1="20.4" x2="6.39961" y2="19" gradientUnits="userSpaceOnUse">
<stop stop-color="#D1DAF3"/>
<stop offset="1" stop-color="#A6B2D5"/>
</linearGradient>
<linearGradient id="paint4_linear_28890_6914" x1="20.3914" y1="24.6001" x2="20.3914" y2="16.2001" gradientUnits="userSpaceOnUse">
<stop stop-color="#A6B2D5"/>
<stop offset="1" stop-color="#D1DAF3"/>
</linearGradient>
<linearGradient id="paint5_linear_28890_6914" x1="12.0002" y1="8.85261" x2="12.0002" y2="3.6001" gradientUnits="userSpaceOnUse">
<stop stop-color="#D1DAF3"/>
<stop offset="1" stop-color="#A6B2D5"/>
</linearGradient>
</defs>
</svg>
