<svg width="10" height="10" viewBox="0 0 10 10" fill="none" xmlns="http://www.w3.org/2000/svg">
<path d="M5.76133 5.00002L8.99618 1.76507C9.2067 1.55465 9.2067 1.21443 8.99618 1.00401C8.78576 0.793586 8.44554 0.793586 8.23512 1.00401L5.00017 4.23896L1.76531 1.00401C1.55479 0.793586 1.21467 0.793586 1.00425 1.00401C0.79373 1.21443 0.79373 1.55465 1.00425 1.76507L4.2391 5.00002L1.00425 8.23497C0.79373 8.44539 0.79373 8.78561 1.00425 8.99603C1.10911 9.101 1.247 9.15372 1.38478 9.15372C1.52256 9.15372 1.66035 9.101 1.76531 8.99603L5.00017 5.76108L8.23512 8.99603C8.34009 9.101 8.47787 9.15372 8.61565 9.15372C8.75344 9.15372 8.89122 9.101 8.99618 8.99603C9.2067 8.78561 9.2067 8.44539 8.99618 8.23497L5.76133 5.00002Z" fill="#FF1B28" stroke="#FF1B28" strokeWidth="0.5"/>
</svg>
