<svg width="28" height="28" viewBox="0 0 28 28" fill="none" xmlns="http://www.w3.org/2000/svg">
<path d="M5.22566 13.9939C5.22566 10.5889 5.22866 7.18386 5.22266 3.77886C5.22166 3.05786 5.48366 2.49386 6.14466 2.17786C6.37566 2.06686 6.65466 2.00886 6.91166 2.00786C11.6367 1.99786 16.3617 1.99886 21.0867 2.00286C22.0697 2.00386 22.7467 2.68086 22.7737 3.66086C22.7757 3.71586 22.7747 3.76986 22.7747 3.82486C22.7747 10.6119 22.7727 17.3979 22.7777 24.1849C22.7777 24.7749 22.6177 25.2759 22.1447 25.6509C21.8107 25.9159 21.4227 25.9999 21.0047 25.9999C18.2637 25.9979 15.5227 25.9989 12.7807 25.9989C10.8357 25.9989 8.89166 26.0009 6.94666 25.9979C6.09266 25.9969 5.47166 25.5339 5.27566 24.7429C5.22966 24.5569 5.22766 24.3559 5.22766 24.1619C5.22466 20.7729 5.22566 17.3839 5.22566 13.9939ZM6.88866 4.17986V22.3809C6.88866 22.4959 6.98166 22.5889 7.09666 22.5889H20.9027C21.0177 22.5889 21.1107 22.4959 21.1107 22.3809V4.17986C21.1107 4.06486 21.0177 3.97186 20.9027 3.97186H7.09666C6.98166 3.97186 6.88866 4.06486 6.88866 4.17986ZM13.9897 23.4599C13.4557 23.4639 13.0197 23.9079 13.0317 24.4359C13.0447 24.9609 13.4747 25.3859 13.9967 25.3869C14.5267 25.3879 14.9697 24.9449 14.9667 24.4169C14.9627 23.8829 14.5277 23.4559 13.9897 23.4599Z" fill="#130F40"/>
</svg>
