<svg width="20" height="20" viewBox="0 0 20 20" fill="none" xmlns="http://www.w3.org/2000/svg">
<path fill-rule="evenodd" clip-rule="evenodd" d="M16.3141 7.18717C16.6779 7.21564 16.949 7.52646 16.9221 7.88C16.9172 7.93932 16.4386 13.6908 16.1627 16.1038C15.9917 17.601 14.9734 18.5121 13.4374 18.5406C12.2604 18.5596 11.1273 18.5714 10.0186 18.5714C8.82445 18.5714 7.65718 18.5596 6.50455 18.5359C5.02958 18.5074 4.00883 17.5797 3.84277 16.1109C3.56438 13.6765 3.09063 7.93932 3.08575 7.88237C3.05645 7.52884 3.32751 7.21801 3.69137 7.18954C4.05034 7.18005 4.37513 7.42444 4.40443 7.77797C4.40687 7.81593 4.60223 10.1578 4.81224 12.4759L4.85376 12.9386C4.96121 14.0918 5.06865 15.1974 5.15657 15.9686C5.25181 16.8014 5.71334 17.2332 6.53141 17.2498C8.73654 17.2949 10.9881 17.2973 13.413 17.2546C14.2799 17.238 14.7512 16.8156 14.8464 15.9638C15.1199 13.5698 15.5961 7.83729 15.601 7.77797C15.6328 7.42444 15.9551 7.1753 16.3141 7.18717ZM11.8696 1.42859C12.6804 1.42859 13.391 1.96008 13.601 2.71935L13.8257 3.8013C13.8989 4.15484 14.2188 4.41346 14.5876 4.42058H17.4814C17.8477 4.42058 18.1431 4.70768 18.1431 5.06359C18.1431 5.41949 17.8477 5.70659 17.4814 5.70659H14.612C14.6071 5.70659 14.6022 5.70659 14.5998 5.70659H14.5778H5.42519C5.41786 5.70659 5.41053 5.70659 5.40321 5.70659H5.38856H2.5192C2.1529 5.70659 1.85742 5.41949 1.85742 5.06359C1.85742 4.70768 2.1529 4.42058 2.5192 4.42058H5.41298L5.50089 4.41584C5.833 4.37313 6.10895 4.12874 6.17488 3.80368L6.38978 2.76205C6.60712 1.96245 7.32018 1.43333 8.12848 1.43333H11.8696V1.42859ZM11.8696 2.7146H8.13581C7.92336 2.7146 7.73776 2.85222 7.68404 3.05152L7.47891 4.05518C7.45205 4.18331 7.41542 4.30432 7.36658 4.42058H12.6413C12.5925 4.30432 12.5534 4.18094 12.529 4.05518L12.3141 3.01356C12.2677 2.85222 12.0821 2.7146 11.8696 2.7146ZM10.6926 15.0266V9.09008C10.6926 8.70808 10.3971 8.4186 10.0015 8.4186C9.60834 8.4186 9.31041 8.7057 9.31041 9.09008V15.0266C9.31041 15.4086 9.60589 15.6981 10.0015 15.6981C10.3971 15.6957 10.6926 15.4086 10.6926 15.0266Z" fill="#F50303"/>
</svg>
