<svg width="20" height="20" viewBox="0 0 20 20" fill="none" xmlns="http://www.w3.org/2000/svg">
<path d="M13.3715 5.24287C13.2501 5.10715 13.1001 5.03572 12.9073 5.03572C11.0144 5.04287 9.1144 5.04287 7.22155 5.04287C7.04298 5.04287 6.90012 5.10001 6.77155 5.22858C6.44298 5.57144 6.1144 5.91429 5.78583 6.25001C5.6644 6.37144 5.60726 6.51429 5.60726 6.69287C5.6144 7.57858 5.6144 8.20001 5.60726 9.08572C5.60726 9.26429 5.67155 9.41429 5.79298 9.53572L6.00012 9.75001C6.25726 10.0072 6.5144 10.2714 6.77155 10.5357C6.90012 10.6643 7.05012 10.7286 7.24298 10.7286H12.8858C13.0858 10.7286 13.2358 10.6714 13.3573 10.5429L14.2644 9.55001C14.3787 9.42858 14.4358 9.28572 14.4358 9.13572V6.65001C14.4358 6.49287 14.3858 6.35715 14.2787 6.24287C13.9715 5.91429 13.6715 5.57858 13.3715 5.24287ZM10.2573 9.86429C10.1715 9.94287 10.0644 9.99286 9.95726 9.99286C9.84298 9.98572 9.73583 9.94287 9.65726 9.86429C9.57869 9.77858 9.52869 9.67144 9.52869 9.56429C9.52869 9.45001 9.57869 9.34287 9.65726 9.26429C9.73583 9.17858 9.85012 9.13572 9.9644 9.13572C10.193 9.14287 10.3858 9.32858 10.3858 9.55715C10.3858 9.66429 10.3358 9.77858 10.2573 9.86429ZM11.0858 7.38572C10.9215 7.60001 10.7215 7.78572 10.5287 7.96429C10.3501 8.12858 10.2715 8.29287 10.2715 8.48572C10.2715 8.60001 10.2573 8.74287 10.1073 8.80001C10.0358 8.82858 9.97155 8.84287 9.90012 8.84287C9.8144 8.84287 9.72869 8.82144 9.65012 8.77144C9.60012 8.74287 9.57155 8.67858 9.5644 8.62858C9.52155 8.32858 9.60012 8.04287 9.80726 7.80001C9.95012 7.62858 10.1215 7.45715 10.343 7.26429C10.5215 7.11429 10.5787 6.92858 10.5215 6.70715C10.5001 6.62858 10.4287 6.53572 10.3501 6.49287C10.1215 6.36429 9.87155 6.36429 9.64298 6.50715C9.5144 6.57858 9.45012 6.69287 9.43583 6.83572C9.42869 6.97858 9.35012 7.10001 9.23583 7.15715C9.1144 7.21429 8.97869 7.20001 8.85726 7.12858C8.77869 7.07858 8.72869 6.97144 8.72155 6.89287C8.70012 6.67858 8.7644 6.47144 8.92155 6.28572C9.22155 5.91429 9.59298 5.72858 10.0287 5.75001C10.443 5.75001 10.7358 5.84287 10.9644 6.06429C11.3215 6.40715 11.3787 7.01429 11.0858 7.38572ZM15.9501 1.46429H3.87155C2.98583 1.46429 2.2644 2.18572 2.2644 3.07144V17C2.2644 17.8857 2.98583 18.6072 3.87155 18.6072H15.9501C16.8358 18.6072 17.5573 17.8857 17.5573 17V3.07144C17.5573 2.18572 16.8358 1.46429 15.9501 1.46429ZM5.14298 15.2714C5.25726 15.1572 5.4144 15.0857 5.59298 15.0857C5.7644 15.0857 5.92869 15.1572 6.04298 15.2714C6.15726 15.3857 6.22869 15.5429 6.22869 15.7214C6.22869 15.8929 6.15726 16.0572 6.04298 16.1714C5.92869 16.2857 5.7644 16.3572 5.59298 16.3572C5.24298 16.3572 4.95726 16.0714 4.95726 15.7214C4.95726 15.5429 5.02869 15.3857 5.14298 15.2714ZM4.95726 13.5C4.95726 13.3286 5.02869 13.1714 5.14298 13.0572C5.25726 12.9429 5.4144 12.8714 5.59298 12.8714C5.7644 12.8714 5.92869 12.9429 6.04298 13.0572C6.15726 13.1714 6.22869 13.3286 6.22869 13.5C6.22869 13.6786 6.15726 13.8357 6.04298 13.95C5.92869 14.0643 5.7644 14.1357 5.59298 14.1357C5.24298 14.1357 4.95726 13.85 4.95726 13.5ZM7.69298 15.1857H10.8644C11.1644 15.1857 11.4001 15.4214 11.4001 15.7214C11.4001 16.0143 11.1644 16.2572 10.8644 16.2572H7.69298C7.40012 16.2572 7.15726 16.0143 7.15726 15.7214C7.15726 15.4214 7.40012 15.1857 7.69298 15.1857ZM7.15726 13.5C7.15726 13.2072 7.40012 12.9643 7.69298 12.9643H10.8644C11.1644 12.9643 11.4001 13.2072 11.4001 13.5C11.4001 13.8 11.1644 14.0357 10.8644 14.0357H7.69298C7.40012 14.0357 7.15726 13.8 7.15726 13.5ZM12.6358 15.1857H14.4715C14.7644 15.1857 15.0073 15.4214 15.0073 15.7214C15.0073 16.0143 14.7644 16.2572 14.4715 16.2572H12.6358C12.343 16.2572 12.1001 16.0143 12.1001 15.7214C12.1001 15.4214 12.343 15.1857 12.6358 15.1857ZM12.1001 13.5C12.1001 13.2072 12.343 12.9643 12.6358 12.9643H14.4715C14.7644 12.9643 15.0073 13.2072 15.0073 13.5C15.0073 13.8 14.7644 14.0357 14.4715 14.0357H12.6358C12.343 14.0357 12.1001 13.8 12.1001 13.5ZM15.293 9.15001C15.293 9.51429 15.1644 9.83572 14.9144 10.1072L14.6001 10.45C14.4001 10.6643 14.2001 10.8786 14.0073 11.1C13.7073 11.4357 13.343 11.6 12.893 11.6H12.8715C12.2501 11.5929 11.6287 11.5929 11.0073 11.5929L9.24298 11.6C8.57869 11.5929 7.92155 11.5929 7.2644 11.6C6.77869 11.6 6.39298 11.4357 6.08583 11.1143C5.83583 10.8429 5.57155 10.5857 5.32869 10.3429L5.13583 10.1429C4.84298 9.85001 4.70012 9.51429 4.70012 9.10715C4.70726 8.21429 4.70726 7.58572 4.70012 6.70001C4.70012 6.25715 4.85012 5.88572 5.17155 5.56429C5.33583 5.39287 5.50726 5.22144 5.67155 5.05001C5.82155 4.89287 5.97155 4.73572 6.12869 4.57858C6.42155 4.27858 6.7644 4.13572 7.17155 4.13572H12.9215C13.343 4.13572 13.6858 4.28572 13.9644 4.58572L14.093 4.72858C14.3787 5.04287 14.6715 5.35715 14.9501 5.67858C15.1787 5.93572 15.293 6.24287 15.293 6.58572C15.3001 7.52858 15.3001 8.20715 15.293 9.15001Z" fill="#36519D"/>
</svg>
