<svg width="20" height="20" viewBox="0 0 20 20" fill="none" xmlns="http://www.w3.org/2000/svg">
<path d="M18.5443 15.35C18.4643 14.9114 18.1772 14.5364 17.7464 14.2971L16.4943 13.5957C15.4336 13.0057 14.8436 12.6786 14.1336 12.7507C13.4157 12.8307 12.9136 13.2693 11.9964 14.0664L9.97859 15.8207C7.66573 14.4171 5.5843 12.3364 4.18001 10.0236L5.93501 8.00643C6.73287 7.08928 7.17144 6.57928 7.24287 5.86928C7.32287 5.15928 6.99573 4.56928 6.40573 3.50928L5.70359 2.25714C5.4643 1.82643 5.0893 1.53928 4.65073 1.45143C4.21216 1.37214 3.75787 1.49928 3.37501 1.81071C1.88287 3.03071 1.16573 4.86428 1.51644 6.58714C1.77144 7.87857 2.21001 9.01143 2.92001 10.255C2.92001 10.255 2.92001 10.255 2.92787 10.255C4.50716 13.0143 6.98716 15.4936 9.74716 17.0729C9.74716 17.0807 9.74716 17.0807 9.74716 17.0807C10.9914 17.7907 12.1236 18.2293 13.4157 18.4843C13.7029 18.5479 13.9986 18.5714 14.2857 18.5714C15.7372 18.5714 17.1729 17.87 18.1936 16.6257C18.5043 16.235 18.6322 15.7886 18.5443 15.35Z" fill="#FF4848"/>
</svg>
