<svg width="28" height="28" viewBox="0 0 28 28" fill="none" xmlns="http://www.w3.org/2000/svg">
<path d="M20.7954 3.86C20.7944 2.758 20.0574 2.005 18.9694 2.003C15.6574 1.999 12.3454 1.999 9.03335 2.003C7.95235 2.004 7.20635 2.751 7.20635 3.835C7.20335 10.615 7.20335 17.396 7.20635 24.176C7.20635 25.245 7.95335 25.996 9.01935 25.997C12.3394 26.002 15.6594 26.003 18.9784 25.991C19.2504 25.99 19.5444 25.929 19.7904 25.814C20.4924 25.486 20.7954 24.892 20.7954 24.131C20.7954 20.756 20.7954 17.382 20.7954 14.007C20.7964 10.624 20.7974 7.242 20.7954 3.86ZM17.8854 3.102C18.1264 3.095 18.3344 3.295 18.3384 3.537C18.3414 3.781 18.1444 3.979 17.8964 3.979C17.6564 3.979 17.4674 3.798 17.4594 3.56C17.4514 3.312 17.6404 3.109 17.8854 3.102ZM11.6714 3.283C13.2174 3.283 14.7664 3.283 16.3424 3.283C16.3424 3.387 16.3424 3.472 16.3424 3.558C16.3424 3.62 16.3424 3.682 16.3424 3.761C14.7814 3.761 13.2334 3.761 11.6714 3.761C11.6714 3.606 11.6714 3.453 11.6714 3.283ZM16.1144 24.118C14.7004 24.118 13.3004 24.118 11.8844 24.118C11.8844 23.69 11.8844 23.273 11.8844 22.837C13.2894 22.837 14.6894 22.837 16.1144 22.837C16.1144 23.27 16.1144 23.688 16.1144 24.118ZM19.4744 21.434C15.8284 21.434 12.1924 21.434 8.53635 21.434C8.53635 15.954 8.53635 10.47 8.53635 4.969C12.1704 4.969 15.8124 4.969 19.4744 4.969C19.4744 10.463 19.4744 15.942 19.4744 21.434Z" fill="#130F40"/>
</svg>
