<svg width="17" height="17" viewBox="0 0 17 17" fill="none" xmlns="http://www.w3.org/2000/svg">
<path d="M10.1484 8.49852L14.9752 3.67171C15.1959 3.45225 15.318 3.15877 15.318 2.84711C15.318 2.53546 15.1959 2.24328 14.9752 2.02252C14.5363 1.5823 13.7675 1.5797 13.326 2.02252L8.49917 6.84933L3.67236 2.02252C3.21786 1.56802 2.47767 1.56802 2.02317 2.02252C1.56866 2.47702 1.56866 3.21591 2.02317 3.67171L6.84998 8.49852L2.02317 13.3253C1.80241 13.5461 1.68164 13.8396 1.68164 14.1499C1.68164 14.4616 1.80241 14.7551 2.02317 14.9745C2.46468 15.4173 3.23474 15.4147 3.67236 14.9745L8.49917 10.1477L13.326 14.9745C13.5467 15.1953 13.8402 15.3174 14.1506 15.3174C14.4622 15.3174 14.757 15.1953 14.9752 14.9745C15.1959 14.7551 15.318 14.4616 15.318 14.1512C15.318 13.8409 15.1959 13.5461 14.9752 13.3253L10.1484 8.49852Z" fill="#F50303"/>
</svg>
