<svg width="20" height="20" viewBox="0 0 20 20" fill="none" xmlns="http://www.w3.org/2000/svg">
<path d="M8.27949 3.67818C8.68372 3.27395 9.07732 2.88001 9.47126 2.4864C9.69995 2.25772 9.92692 2.02697 10.158 1.80069C10.6637 1.3056 11.358 1.30389 11.8589 1.79932C12.3544 2.2896 12.8477 2.78229 13.3377 3.27806C13.6946 3.63909 13.783 4.06561 13.6072 4.53944C13.5101 4.8007 13.5314 5.03692 13.7285 5.23441C13.926 5.4319 14.1622 5.45452 14.4235 5.35715C14.8973 5.18024 15.3242 5.26904 15.6852 5.62527C16.1854 6.11864 16.6798 6.61819 17.1767 7.11499C17.3244 7.26276 17.4362 7.43144 17.4866 7.65636C17.418 7.65636 17.3639 7.65636 17.3097 7.65636C15.6756 7.65636 14.0412 7.65739 12.4072 7.65293C12.3273 7.65259 12.2241 7.62756 12.1706 7.57442C10.889 6.3007 9.61252 5.02184 8.33537 3.74366C8.31994 3.72789 8.30657 3.71006 8.27949 3.67818ZM4.37022 7.64813C6.48874 7.64813 8.63057 7.64813 10.7601 7.64813C9.68726 6.57978 8.61274 5.50938 7.5588 4.45989C6.50794 5.51041 5.43514 6.58321 4.37022 7.64813ZM13.1274 8.66265C13.6198 8.66265 14.0189 9.06179 14.0189 9.55415V17.6149C14.0189 18.1427 13.5911 18.5706 13.0633 18.5706C9.35324 18.5706 6.40543 18.5709 2.69536 18.5706C1.9133 18.5706 1.43022 18.0895 1.42953 17.3119C1.42919 16.6427 1.42953 15.9734 1.42953 15.3041C1.42953 14.7833 1.66164 14.4086 2.13719 14.1919C2.38919 14.0771 2.53867 13.8933 2.53627 13.6104C2.53353 13.3351 2.38576 13.1558 2.14027 13.044C1.66473 12.8277 1.42987 12.4543 1.42953 11.9332C1.42919 11.2416 1.42713 10.5497 1.42987 9.85819C1.43262 9.1687 1.93387 8.66436 2.62507 8.66402C6.38005 8.66196 9.37279 8.66265 13.1274 8.66265ZM11.923 13.5247C11.9162 13.3684 11.885 13.2 11.8277 13.0104C11.7482 12.7492 11.6114 12.5925 11.4084 12.5308C11.3258 12.5054 11.2377 12.5044 11.1526 12.5033C11.1273 12.503 11.1016 12.503 11.0772 12.502C11.0512 12.5009 11.0086 12.4992 11.0018 12.4934C10.9977 12.4893 10.9932 12.468 10.9884 12.4303C10.9531 12.1409 10.8712 11.8653 10.7453 11.6099C10.4775 11.0661 10.0644 10.6567 9.51755 10.3924C9.19286 10.2353 8.83526 10.1524 8.42452 10.138C7.79503 10.1164 7.2732 10.235 6.82988 10.5014C6.30223 10.8189 5.93091 11.2574 5.72588 11.8056C5.6676 11.9616 5.6316 12.1272 5.59662 12.287C5.58394 12.346 5.57125 12.4046 5.5572 12.4632C5.54862 12.4985 5.54005 12.502 5.51571 12.5009C5.48794 12.5006 5.45982 12.5009 5.43171 12.5009C5.39639 12.5013 5.36142 12.502 5.32611 12.5006C5.15674 12.4948 5.01137 12.5599 4.89479 12.6957C4.75251 12.8606 4.66954 13.0677 4.65411 13.2947C4.63045 13.6399 4.62771 13.9869 4.62771 14.3105C4.62771 14.4199 4.65856 14.5307 4.69148 14.6332C4.79057 14.9417 5.05319 15.1293 5.36314 15.1111C5.43822 15.107 5.51605 15.108 5.59114 15.1094C5.62748 15.1097 5.66314 15.1104 5.6988 15.1104H5.8212C5.91685 15.1104 6.01217 15.1108 6.10782 15.1104C6.27788 15.1094 6.40028 15.0401 6.46131 14.9092C6.498 14.83 6.50588 14.7405 6.50657 14.6798C6.50931 14.2317 6.50897 13.7757 6.50828 13.3355V12.959C6.50828 12.9261 6.50828 12.8915 6.50554 12.8572C6.48943 12.6611 6.37011 12.5325 6.17708 12.5057C6.14863 12.5016 6.14725 12.5003 6.15103 12.4704C6.15274 12.4571 6.15583 12.4437 6.15857 12.4303L6.16268 12.4111C6.28611 11.7758 6.63034 11.2937 7.18646 10.979C7.63011 10.7273 8.15126 10.6588 8.77937 10.7692C9.36806 10.8731 9.83058 11.2029 10.1532 11.7501C10.2783 11.962 10.3596 12.1996 10.4018 12.4752C10.4045 12.4934 10.4031 12.4999 10.4031 12.4999C10.4021 12.5009 10.3963 12.504 10.3791 12.5054C10.2495 12.5157 10.1498 12.5808 10.0987 12.6881C10.0651 12.7598 10.0462 12.8428 10.0455 12.9223C10.0428 13.3896 10.0431 13.8645 10.0431 14.3239L10.0435 14.6856C10.0435 14.7137 10.0452 14.7432 10.0483 14.7741C10.0658 14.9496 10.194 15.082 10.3675 15.1025C10.422 15.1094 10.4769 15.1097 10.5307 15.1097L10.5554 15.1101C10.5609 15.1101 10.5646 15.1101 10.5674 15.1104C10.5674 15.1128 10.5663 15.1152 10.566 15.1183C10.5046 15.3744 10.4186 15.6724 10.241 15.936C10.0493 16.2213 9.80006 16.3601 9.47915 16.3601C9.4716 16.3601 9.46406 16.3601 9.45652 16.3598C9.32075 16.3571 9.18703 16.3571 9.05949 16.3608C9.01046 16.3619 8.98612 16.3481 8.96143 16.3077C8.86715 16.1507 8.71972 16.0639 8.53492 16.0577C8.36554 16.0516 8.20989 16.0516 8.05937 16.0574C7.76349 16.0687 7.54577 16.2844 7.54063 16.5707C7.53617 16.8487 7.7484 17.0719 8.03469 17.0908C8.11012 17.0956 8.18657 17.0976 8.26303 17.0976C8.36589 17.0976 8.4684 17.0942 8.56714 17.0904C8.72554 17.0843 8.8572 17.0081 8.9388 16.8758C8.97755 16.8127 9.01663 16.8017 9.08829 16.8017H9.09C9.12395 16.8021 9.15789 16.8021 9.19183 16.8028C9.3612 16.8041 9.53709 16.8059 9.70818 16.7846C10.0534 16.7417 10.3466 16.5542 10.5801 16.2281C10.8149 15.899 10.9246 15.5263 10.9946 15.238C11.0018 15.2081 11.0066 15.1835 11.0107 15.1629C11.0155 15.1406 11.0199 15.1169 11.0206 15.1139C11.0285 15.1108 11.0614 15.1108 11.093 15.1111C11.1101 15.1115 11.1293 15.1115 11.152 15.1115H11.1605C11.2764 15.1111 11.3957 15.1111 11.5092 15.0521C11.7509 14.926 11.8905 14.7021 11.9131 14.4035C11.9333 14.1264 11.9371 13.8395 11.923 13.5247ZM18.5728 15.3045C18.5724 14.784 18.3403 14.4079 17.8651 14.1912C17.6128 14.076 17.4633 13.8933 17.4657 13.6101C17.4681 13.3344 17.6165 13.1551 17.8624 13.0437C18.3386 12.8273 18.5717 12.4526 18.5724 11.9325C18.5735 11.2519 18.5738 10.5713 18.5724 9.89042C18.5711 9.15705 18.0777 8.6647 17.3419 8.66333C16.6332 8.66196 16.3055 8.66299 15.5968 8.66299C15.2951 8.66299 15.0506 8.90755 15.0506 9.20921C15.0506 12.154 15.0506 15.0815 15.0506 18.0278C15.0506 18.3277 15.2938 18.5709 15.5937 18.5709C16.3079 18.5709 16.6414 18.5723 17.3556 18.5706C18.0777 18.5688 18.5711 18.072 18.5724 17.3466C18.5741 16.6656 18.5735 15.9851 18.5728 15.3045Z" fill="#00C17E"/>
</svg>
