<?xml version="1.0" encoding="utf-8"?>
<!-- Generator: Adobe Illustrator 28.1.0, SVG Export Plug-In . SVG Version: 6.00 Build 0)  -->
<svg version="1.0" id="Layer_1" xmlns="http://www.w3.org/2000/svg" xmlns:xlink="http://www.w3.org/1999/xlink" x="0px" y="0px"
	 viewBox="0 0 28 28" style="enable-background:new 0 0 28 28;" xml:space="preserve">
<style type="text/css">
	.st0{fill:url(#SVGID_1_);}
	.st1{fill:url(#SVGID_00000066499578471157049280000006066893460175906944_);}
	.st2{fill:url(#SVGID_00000054971621416280941810000004799024661692363169_);}
</style>
<g>
	<linearGradient id="SVGID_1_" gradientUnits="userSpaceOnUse" x1="15.3069" y1="14" x2="27" y2="14">
		<stop  offset="0" style="stop-color:#535F82"/>
		<stop  offset="1" style="stop-color:#A6B2D5"/>
	</linearGradient>
	<path class="st0" d="M26.449,9.457c-1.009-0.787-2.012-1.583-3.014-2.379c-0.391-0.311-0.782-0.622-1.174-0.932
		c-0.409-0.324-0.818-0.648-1.227-0.972c-1.062-0.84-2.124-1.681-3.183-2.525c-0.331-0.263-0.715-0.465-1.097-0.256
		c-0.352,0.192-0.675,0.437-1.004,0.687c-0.145,0.11-0.291,0.221-0.442,0.329c0.045,0.037,0.083,0.069,0.116,0.097
		c0.068,0.057,0.117,0.098,0.168,0.138c0.44,0.349,0.881,0.698,1.321,1.047c1.374,1.09,2.749,2.179,4.127,3.264
		c0.573,0.451,1.032,0.982,1.176,1.699c0.087,0.433,0.098,0.884,0.1,1.328l0,0.147c0.009,2.393,0.017,4.787,0,7.179
		c-0.006,0.781,0.001,1.562,0.007,2.343c0.013,1.669,0.026,3.343-0.075,5.028c0.014,0.001,0.031,0.002,0.051,0.003
		c0.059,0.004,0.139,0.01,0.218,0.009c0.184,0,0.367,0,0.551,0.001c0.917,0.001,1.834,0.002,2.751-0.001
		c0.826-0.003,1.176-0.351,1.176-1.168c0-1.311,0-2.623,0-3.934c0-3.339-0.001-6.678,0.007-10.017
		C27.001,10.092,26.827,9.752,26.449,9.457z"/>
	
		<linearGradient id="SVGID_00000030453111881198815960000007533423960721600696_" gradientUnits="userSpaceOnUse" x1="10.7442" y1="25.6931" x2="10.7442" y2="2.3069">
		<stop  offset="0" style="stop-color:#535F82"/>
		<stop  offset="1" style="stop-color:#A6B2D5"/>
	</linearGradient>
	<path style="fill:url(#SVGID_00000030453111881198815960000007533423960721600696_);" d="M19.962,9.461
		c-0.298-0.223-0.585-0.459-0.873-0.695c-0.122-0.1-0.244-0.201-0.367-0.3c-0.497-0.402-0.995-0.804-1.492-1.205
		c-1.911-1.543-3.821-3.086-5.73-4.631c-0.296-0.239-0.619-0.403-0.993-0.282C10.283,2.42,10.075,2.57,9.888,2.721
		C8.7,3.678,7.513,4.636,6.326,5.595C4.725,6.888,3.125,8.18,1.521,9.469C1.159,9.76,0.998,10.098,1,10.563
		c0.009,1.72,0.008,3.44,0.006,5.159c0,0.607-0.001,1.214-0.001,1.821c0,1.163,0,2.327,0,3.49c0,1.163,0,2.327,0,3.49
		c0.001,0.808,0.354,1.167,1.16,1.168c1.874,0.002,3.749,0.002,5.623,0c0.012,0,0.018-0.004,0.03-0.004h5.861
		c0.011,0,0.018,0.004,0.029,0.004c0.548,0.002,1.097,0.001,1.646,0.001c0.235,0,0.47,0,0.706,0c0.334,0,0.667,0,1.001-0.001
		c0.778-0.001,1.557-0.001,2.335,0.002c0.412,0.002,0.774-0.115,0.952-0.503c0.101-0.221,0.132-0.491,0.132-0.739
		c0.006-2.771,0.006-5.542,0.006-8.312c0-0.693,0-1.385,0-2.078c0-0.334-0.001-0.668-0.001-1.002
		c-0.002-0.835-0.004-1.669,0.006-2.504C20.494,10.091,20.334,9.74,19.962,9.461z"/>
	
		<linearGradient id="SVGID_00000047767781419928243870000010223178961399457666_" gradientUnits="userSpaceOnUse" x1="10.7442" y1="21.2485" x2="10.7442" y2="13.6116">
		<stop  offset="0" style="stop-color:#A6B2D5"/>
		<stop  offset="1" style="stop-color:#D1DAF3"/>
	</linearGradient>
	<path style="fill:url(#SVGID_00000047767781419928243870000010223178961399457666_);" d="M14.646,19.375v-3.026
		c0-0.242-0.124-0.468-0.329-0.598l-3.197-2.029c-0.232-0.147-0.527-0.147-0.759,0l-3.197,2.029
		c-0.205,0.13-0.329,0.356-0.329,0.598v3.064c0,0.001,0,0.001,0,0.002v1.126c0,0.117,0.035,0.223,0.086,0.321
		c0.004,0.007,0.01,0.013,0.014,0.02c0.055,0.097,0.131,0.176,0.223,0.237c0.003,0.002,0.004,0.005,0.006,0.007h0.004
		c0.11,0.071,0.234,0.123,0.376,0.123h6.403c0.391,0,0.708-0.317,0.708-0.708v-1.126C14.654,19.4,14.647,19.389,14.646,19.375z"/>
</g>
</svg>
