<svg width="20" height="20" viewBox="0 0 20 20" fill="none" xmlns="http://www.w3.org/2000/svg">
<path d="M6.22854 1.59286C3.57139 1.60714 1.41425 3.77857 1.42854 6.44286C1.44282 9.1 3.60711 11.2571 6.26425 11.25C8.92854 11.2429 11.0785 9.07143 11.0714 6.4C11.0571 3.73572 8.88568 1.57857 6.22854 1.59286ZM5.92711 5.95929C6.22068 5.96643 6.52139 5.93714 6.80782 5.98143C7.44639 6.07714 7.91639 6.62 7.92354 7.25857C7.92354 7.89714 7.45354 8.44072 6.81497 8.54286C6.78568 8.54286 6.75639 8.55 6.71925 8.565V9.23286H5.78711V8.57215C4.94997 8.33 4.57568 7.91857 4.58354 7.23643H5.49354C5.58139 7.56643 5.66997 7.63286 6.01497 7.63286H6.58782C6.82282 7.62572 6.98425 7.47143 6.99139 7.26572C6.99139 7.05286 6.82282 6.89857 6.58068 6.89143C6.34568 6.89143 6.10354 6.89857 5.86854 6.89143C5.17854 6.88429 4.62782 6.35572 4.58425 5.67286C4.53211 4.99 5.02425 4.40286 5.70639 4.3C5.72854 4.3 5.74282 4.29286 5.77997 4.285V3.61715H6.71211V4.285C7.11568 4.32929 7.43854 4.505 7.67354 4.82857C7.84211 5.05643 7.91568 5.31286 7.92282 5.60643H7.00568C6.90997 5.27643 6.82925 5.21714 6.47711 5.21714C6.29354 5.21714 6.10997 5.21 5.91925 5.21714C5.66997 5.21714 5.50068 5.37857 5.50854 5.59857C5.51568 5.81929 5.67711 5.95143 5.92711 5.95929Z" fill="#36519D"/>
<path d="M6.52859 14.6143C6.32144 14.8286 6.09287 15.0571 5.8643 15.2929C6.02144 15.4429 6.18573 15.6071 6.35716 15.7714L6.55001 15.9571L6.58573 15.9929H3.78573C3.72859 15.9929 3.68573 15.95 3.68573 15.8929V12.7286C3.68573 12.4571 3.4643 12.2357 3.19287 12.2357C2.9143 12.2357 2.69287 12.4571 2.69287 12.7286V16.1286V16.25C2.69287 16.6786 3.03573 17.0214 3.4643 17.0214H3.58573H6.53573C6.28573 17.2643 6.05716 17.4929 5.82859 17.7143C6.07859 17.9643 6.30716 18.1929 6.52144 18.4071C7.15001 17.7714 7.78573 17.1286 8.4143 16.5071C8.0643 16.1571 7.70716 15.8 7.35001 15.4357C7.07859 15.1643 6.80001 14.8857 6.52859 14.6143Z" fill="#36519D"/>
<path d="M16.6114 2.97858H16.4899H13.5399C13.7899 2.73572 14.0185 2.50715 14.2471 2.28572C13.9971 2.03572 13.7685 1.80715 13.5542 1.59286C12.9257 2.22858 12.2899 2.87144 11.6614 3.49286C12.0114 3.84286 12.3685 4.20001 12.7257 4.56429C12.9971 4.83572 13.2757 5.11429 13.5471 5.38572C13.7542 5.17144 13.9828 4.94287 14.2114 4.70715C14.0542 4.55715 13.8899 4.39287 13.7185 4.22858L13.5257 4.04287L13.4899 4.00715H16.2899C16.3471 4.00715 16.3899 4.05001 16.3899 4.10715V7.27144C16.3899 7.54287 16.6114 7.76429 16.8828 7.76429C17.1614 7.76429 17.3828 7.54287 17.3828 7.27144V3.87144V3.75001C17.3828 3.32144 17.0399 2.97858 16.6114 2.97858Z" fill="#36519D"/>
<path d="M17.7649 11.3021L14.4249 13.2307C14.3584 13.2693 14.277 13.2693 14.2106 13.2307L10.8706 11.3021C10.7277 11.22 10.7277 11.0136 10.8706 10.9307L14.2106 9.00215C14.277 8.96358 14.3584 8.96358 14.4249 9.00215L17.7649 10.9307C17.9077 11.0136 17.9077 11.22 17.7649 11.3021Z" fill="#36519D"/>
<path d="M18.4642 16.3729L15.1456 18.2886C15.0028 18.3707 14.8242 18.2679 14.8242 18.1029V14.2714C14.8242 14.195 14.8649 14.1243 14.9314 14.0857L18.2499 12.17C18.3928 12.0879 18.5714 12.1907 18.5714 12.3557V16.1871C18.5714 16.2636 18.5306 16.3343 18.4642 16.3729Z" fill="#36519D"/>
<path d="M10.1706 16.3729L13.4892 18.2886C13.632 18.3707 13.8106 18.2679 13.8106 18.1029V14.2714C13.8106 14.195 13.7699 14.1243 13.7035 14.0857L10.3849 12.17C10.242 12.0879 10.0635 12.1907 10.0635 12.3557V16.1871C10.0635 16.2636 10.1049 16.3343 10.1706 16.3729Z" fill="#36519D"/>
</svg>
