<svg width="24" height="24" viewBox="0 0 24 24" fill="none" xmlns="http://www.w3.org/2000/svg">
<path d="M20.6117 14.2456C20.4942 14.1702 20.46 14.0905 20.4668 13.955C20.49 13.4939 20.4908 13.0327 20.4428 12.5716C20.2774 10.9619 19.6997 9.51674 18.714 8.23702C17.9168 7.20245 16.9311 6.39417 15.7594 5.81645C15.642 5.75817 15.5897 5.68959 15.5897 5.55845C15.5888 5.26274 15.5314 4.97474 15.4551 4.68931C15.0437 3.16617 13.5471 2.09388 12 2.09131C10.4528 2.09474 8.95624 3.16617 8.54481 4.68845C8.46767 4.97388 8.41024 5.26188 8.41024 5.55759C8.41024 5.68874 8.35796 5.75817 8.24053 5.81559C7.06796 6.39331 6.08224 7.20159 5.28596 8.23617C4.30024 9.51588 3.72253 10.961 3.5571 12.5707C3.5091 13.0327 3.50996 13.493 3.5331 13.9542C3.53996 14.0905 3.50653 14.1693 3.38824 14.2447C1.78453 15.2785 1.25824 17.2713 2.13596 18.9642C3.01367 20.6553 5.1531 21.3667 6.85367 20.5207C7.07224 20.4119 7.22139 20.4222 7.42539 20.555C8.8311 21.4696 10.3637 21.911 12 21.9076C13.6362 21.911 15.1688 21.4696 16.5745 20.555C16.7777 20.423 16.9277 20.4119 17.1462 20.5207C18.8468 21.3667 20.9862 20.6553 21.864 18.9642C22.7417 17.2722 22.2154 15.2802 20.6117 14.2456ZM12 3.64274C13.1254 3.64445 14.0511 4.56931 14.052 5.69474C14.0537 6.82788 13.134 7.75017 12.0017 7.75274H12H11.9982C10.866 7.75017 9.94624 6.82788 9.94796 5.69474C9.94881 4.57017 10.8745 3.64445 12 3.64274ZM7.36453 17.3622C7.32167 18.4636 6.4671 19.3216 5.31424 19.337C4.18881 19.3319 3.2271 18.4045 3.26224 17.1985C3.29224 16.1313 4.21881 15.2185 5.31767 15.221C6.48081 15.2245 7.41167 16.1733 7.36453 17.3622ZM15.5691 15.4936C14.8405 16.7639 14.9374 18.0522 15.6891 19.295C14.6125 20.0039 13.3054 20.3596 12 20.3605C10.6945 20.3596 9.38653 20.0039 8.31081 19.295C9.06253 18.0513 9.15939 16.7639 8.43081 15.4936C7.69796 14.2156 6.53139 13.649 5.07081 13.679C4.91653 10.9405 6.59481 8.34674 8.76853 7.29931C9.46967 8.57388 10.5437 9.29217 12 9.29302C13.4562 9.29217 14.5302 8.57388 15.2314 7.29931C17.4051 8.34674 19.0834 10.9405 18.9291 13.679C17.4694 13.6482 16.3028 14.2156 15.5691 15.4936ZM18.6857 19.337C17.5328 19.3216 16.6782 18.4636 16.6354 17.363C16.5882 16.1742 17.5191 15.2253 18.6822 15.2219C19.7811 15.2185 20.7077 16.1322 20.7377 17.1993C20.7728 18.4036 19.8111 19.3319 18.6857 19.337Z" fill="#130F40"/>
</svg>
