<svg width="30" height="30" viewBox="0 0 30 30" fill="none" xmlns="http://www.w3.org/2000/svg">
<g clip-path="url(#clip0_26910_17345)">
<path d="M28.62 21.43C28.25 22.16 27.83 22.84 27.4 23.53C26.65 24.69 25.46 25.34 24.12 25.34C23.47 25.34 22.8 25.18 22.19 24.85C22.11 24.81 21.99 24.73 21.91 24.69L21.87 24.67C21.75 24.59 21.63 24.53 21.48 24.47C21.34 24.39 21.18 24.36 21.02 24.36C20.47 24.36 20 24.81 19.96 25.38V26.19C19.86 28.28 18.24 29.92 16.17 29.98C16.01 30 15.85 30 15.71 30L15.22 29.98H15.1L14.69 30C14.13 30 13.62 29.96 13.17 29.86C11.11 29.45 10.11 28.07 10.05 25.54C10.03 24.85 9.58997 24.36 8.97997 24.36C8.76997 24.36 8.54997 24.43 8.34997 24.55C8.24997 24.59 8.18997 24.65 8.10997 24.67C7.95997 24.75 7.79997 24.85 7.61997 24.91C6.99997 25.21 6.38997 25.36 5.79997 25.36C5.07997 25.36 4.38997 25.14 3.78997 24.69C2.26997 23.53 1.29997 21.89 0.989972 19.93C0.789972 18.53 1.41997 17.23 2.79997 16.32C2.91997 16.26 3.01997 16.16 3.15997 16.09C3.29997 16.03 3.41997 15.95 3.49997 15.89C3.80997 15.69 3.98997 15.36 3.98997 14.98C3.98997 14.64 3.80997 14.31 3.47997 14.11C3.41997 14.05 3.31997 13.99 3.21997 13.93L3.17997 13.91C3.07997 13.86 2.97997 13.78 2.89997 13.74C0.989972 12.57 0.399972 10.4 1.45997 8.43C1.77997 7.8 2.12997 7.2 2.44997 6.69C3.23997 5.39 4.45997 4.66 5.83997 4.66C6.56997 4.66 7.26997 4.84 7.95997 5.23L8.14997 5.35C8.26997 5.39 8.34997 5.45 8.42997 5.49C8.60997 5.59 8.79997 5.64 8.95997 5.64C9.56997 5.64 10.01 5.17 10.03 4.54C10.05 4.46 10.05 4.36 10.05 4.28V3.87C10.09 1.93 11.45 0.36 13.32 0.08C13.52 0.04 13.7 0.02 13.9 0.02C14.35 0 14.84 0 15.34 0H16.03C18.2 0.04 19.88 1.72 19.96 3.89V4.64C20.02 5.21 20.47 5.64 21.02 5.64C21.18 5.64 21.34 5.59 21.5 5.51C21.65 5.47 21.77 5.37 21.91 5.31C22.03 5.23 22.19 5.15 22.36 5.07C22.92 4.8 23.51 4.66 24.12 4.66C25.44 4.66 26.63 5.31 27.38 6.43C27.83 7.11 28.25 7.82 28.62 8.57C29.55 10.36 28.96 12.49 27.28 13.62C27.14 13.72 26.98 13.8 26.88 13.89C26.73 13.97 26.59 14.05 26.47 14.11C26.17 14.31 26 14.64 26 14.98C26 15.36 26.17 15.69 26.49 15.89C26.61 15.95 26.73 16.03 26.84 16.09C26.98 16.2 27.14 16.28 27.28 16.38C28.96 17.53 29.55 19.66 28.62 21.43Z" fill="#EFCCF1"/>
<path d="M12.966 17.203C15.943 17.203 18.484 17.675 18.484 19.563C18.484 21.451 15.959 21.94 12.966 21.94C9.989 21.94 7.448 21.468 7.448 19.58C7.447 17.692 9.973 17.203 12.966 17.203ZM17.725 16.066C18.863 16.045 20.086 16.201 20.538 16.312C21.496 16.5 22.126 16.885 22.387 17.443C22.608 17.902 22.608 18.434 22.387 18.892C21.988 19.758 20.701 20.037 20.2 20.108C20.097 20.124 20.014 20.034 20.024 19.93C20.28 17.529 18.247 16.391 17.721 16.129C17.698 16.117 17.694 16.099 17.696 16.088C17.699 16.081 17.708 16.068 17.725 16.066ZM12.966 8.06C14.993 8.06 16.618 9.693 16.618 11.732C16.618 13.77 14.993 15.405 12.966 15.405C10.939 15.405 9.314 13.77 9.314 11.732C9.314 9.693 10.939 8.06 12.966 8.06ZM17.923 8.672C19.881 8.672 21.418 10.524 20.894 12.588C20.541 13.977 19.261 14.9 17.836 14.862C17.693 14.858 17.552 14.845 17.417 14.821C17.318 14.804 17.269 14.692 17.325 14.609C17.869 13.804 18.179 12.836 18.179 11.797C18.179 10.713 17.84 9.702 17.252 8.873C17.233 8.847 17.219 8.807 17.238 8.778C17.254 8.754 17.282 8.741 17.309 8.735C17.507 8.695 17.71 8.672 17.923 8.672Z" fill="#AE00B9"/>
</g>
<defs>
<clipPath id="clip0_26910_17345">
<rect width="30" height="30" fill="white"/>
</clipPath>
</defs>
</svg>
