<svg width="25" height="25" viewBox="0 0 25 25" fill="none" xmlns="http://www.w3.org/2000/svg">
<g clip-path="url(#clip0_28896_4823)">
<path d="M10.1701 3.73994C10.1501 3.71994 10.1301 3.68994 10.0901 3.64994C10.6601 3.07994 11.2101 2.52994 11.7601 1.97994C12.0801 1.65994 12.4001 1.33994 12.7201 1.01994C13.4301 0.329941 14.4001 0.329941 15.1001 1.01994C15.7901 1.70994 16.4901 2.39994 17.1701 3.08994C17.6701 3.58994 17.7901 4.18994 17.5501 4.85994C17.4101 5.21994 17.4401 5.54994 17.7201 5.82994C18.0001 6.09994 18.3301 6.13994 18.6901 5.99994C19.3501 5.74994 19.9501 5.87994 20.4601 6.37994C21.1601 7.06994 21.8501 7.76994 22.5501 8.45994C22.7501 8.66994 22.9101 8.89994 22.9801 9.21994H22.7301C20.4401 9.21994 18.1601 9.21994 15.8701 9.20994C15.7601 9.20994 15.6101 9.17994 15.5401 9.09994C13.7401 7.31994 11.9601 5.52994 10.1701 3.73994ZM9.08012 4.73994C7.61012 6.20994 6.11012 7.71994 4.62012 9.20994H13.5601C12.0601 7.70994 10.5601 6.20994 9.08012 4.73994Z" fill="url(#paint0_linear_28896_4823)"/>
<path d="M6.01047 19.66C6.11047 19.65 6.22047 19.65 6.33047 19.65H6.65047C6.78047 19.65 6.92047 19.66 7.05047 19.65C7.29047 19.65 7.46047 19.56 7.54047 19.37C7.60047 19.26 7.61047 19.14 7.61047 19.05V16.5C7.58047 16.23 7.42047 16.05 7.15047 16.01C7.11047 16 7.10047 16 7.11047 15.96C7.11047 15.94 7.12047 15.92 7.12047 15.9L7.13047 15.88C7.30047 14.99 7.78047 14.31 8.56047 13.87C9.18047 13.52 9.91047 13.42 10.7905 13.58C11.6105 13.72 12.2605 14.18 12.7105 14.95C12.8905 15.25 13.0005 15.58 13.0605 15.97C13.0605 15.99 13.0605 16 13.0605 16C13.0605 16 13.0505 16.01 13.0305 16.01C12.8505 16.02 12.7105 16.11 12.6405 16.26C12.5905 16.36 12.5605 16.48 12.5605 16.59V19.06C12.5605 19.1 12.5605 19.14 12.5705 19.18C12.5905 19.43 12.7705 19.61 13.0105 19.64C13.0905 19.65 13.1705 19.65 13.2405 19.65H13.2905C13.2905 19.66 13.2905 19.66 13.2905 19.67C13.2105 20.02 13.0805 20.44 12.8405 20.81C12.5705 21.21 12.2205 21.4 11.7705 21.4H11.7405C11.5505 21.4 11.3605 21.4 11.1805 21.41C11.1105 21.41 11.0805 21.39 11.0405 21.33C10.9105 21.11 10.7105 20.99 10.4505 20.98C10.2105 20.97 9.99047 20.97 9.78047 20.98C9.37047 21 9.06047 21.3 9.06047 21.7C9.05047 22.09 9.35047 22.4 9.75047 22.43C9.85047 22.43 9.96047 22.44 10.0705 22.44C10.2105 22.44 10.3505 22.43 10.4905 22.43C10.7105 22.42 10.9005 22.31 11.0105 22.13C11.0705 22.04 11.1205 22.02 11.2205 22.02H11.3705C11.6005 22.03 11.8505 22.03 12.0905 22C12.5705 21.94 12.9805 21.68 13.3105 21.22C13.6405 20.76 13.7905 20.24 13.8905 19.83C13.9005 19.79 13.9105 19.76 13.9105 19.73C13.9205 19.7 13.9305 19.66 13.9305 19.66H14.1205C14.2905 19.66 14.4505 19.66 14.6105 19.57C14.9505 19.4 15.1505 19.08 15.1805 18.66C15.2105 18.28 15.2105 17.88 15.1905 17.43C15.1805 17.22 15.1405 16.98 15.0605 16.71C14.9505 16.35 14.7505 16.13 14.4705 16.04C14.3505 16.01 14.2305 16.01 14.1105 16H14.0105C13.9705 16 13.9105 16 13.9005 15.99C13.9005 15.98 13.8905 15.96 13.8805 15.9C13.8305 15.5 13.7205 15.11 13.5405 14.75C13.1705 13.99 12.5905 13.42 11.8205 13.05C11.3705 12.83 10.8705 12.71 10.2905 12.69C9.41047 12.66 8.68047 12.83 8.06047 13.2C7.32047 13.65 6.80047 14.26 6.51047 15.03C6.43047 15.25 6.38047 15.48 6.33047 15.7C6.32047 15.78 6.30047 15.87 6.28047 15.95C6.27047 16 6.25047 16 6.22047 16H5.96047C5.72047 15.99 5.51047 16.08 5.35047 16.27C5.15047 16.5 5.04047 16.79 5.01047 17.11C4.98047 17.6 4.98047 18.08 4.98047 18.53C4.98047 18.69 5.02047 18.84 5.07047 18.99C5.21047 19.42 5.57047 19.68 6.01047 19.66Z" fill="url(#paint1_linear_28896_4823)"/>
<path d="M23.5103 16.76C24.1703 16.46 24.5003 15.93 24.5003 15.21V12.35C24.5003 11.32 23.8103 10.63 22.7803 10.63H20.3303C20.3283 10.63 20.3263 10.631 20.3243 10.631C19.9073 10.634 19.5703 10.972 19.5703 11.39V23.74C19.5703 24.158 19.9083 24.497 20.3253 24.499C20.3273 24.499 20.3283 24.5 20.3303 24.5H22.8003C23.8103 24.5 24.5003 23.8 24.5003 22.79V19.93C24.5003 19.2 24.1803 18.67 23.5103 18.37C23.1603 18.21 22.9503 17.95 22.9503 17.55C22.9503 17.17 23.1603 16.92 23.5103 16.76Z" fill="url(#paint2_linear_28896_4823)"/>
<path d="M16.886 10.631C16.884 10.631 16.882 10.63 16.88 10.63H2.17C1.21 10.63 0.5 11.34 0.5 12.3V15.21C0.5 15.94 0.83 16.46 1.5 16.76C1.84 16.92 2.05 17.17 2.05 17.55C2.05 17.95 1.84 18.21 1.49 18.37C0.82 18.67 0.5 19.2 0.5 19.93V22.74C0.5 23.83 1.18 24.5 2.27 24.5H16.79C16.792 24.5 16.793 24.499 16.795 24.499C17.533 24.496 18.131 23.898 18.131 23.16V11.88C18.13 11.192 17.573 10.634 16.886 10.631ZM15.18 18.66C15.15 19.08 14.95 19.4 14.61 19.57C14.45 19.66 14.29 19.66 14.12 19.66H13.93C13.93 19.66 13.92 19.7 13.91 19.73C13.91 19.76 13.9 19.79 13.89 19.83C13.79 20.24 13.64 20.76 13.31 21.22C12.98 21.68 12.57 21.94 12.09 22C11.85 22.03 11.6 22.03 11.37 22.02H11.22C11.12 22.02 11.07 22.04 11.01 22.13C10.9 22.31 10.71 22.42 10.49 22.43C10.35 22.43 10.21 22.44 10.07 22.44C9.96 22.44 9.85 22.43 9.75 22.43C9.35 22.4 9.05 22.09 9.06 21.7C9.06 21.3 9.37 21 9.78 20.98C9.99 20.97 10.21 20.97 10.45 20.98C10.71 20.99 10.91 21.11 11.04 21.33C11.08 21.39 11.11 21.41 11.18 21.41C11.36 21.4 11.55 21.4 11.74 21.4H11.77C12.22 21.4 12.57 21.21 12.84 20.81C13.08 20.44 13.21 20.02 13.29 19.67C13.29 19.66 13.29 19.66 13.29 19.65H13.24C13.17 19.65 13.09 19.65 13.01 19.64C12.77 19.61 12.59 19.43 12.57 19.18C12.56 19.14 12.56 19.1 12.56 19.06V16.59C12.56 16.48 12.59 16.36 12.64 16.26C12.71 16.11 12.85 16.02 13.03 16.01C13.05 16.01 13.06 16 13.06 16C13.06 16 13.06 15.99 13.06 15.97C13 15.58 12.89 15.25 12.71 14.95C12.26 14.18 11.61 13.72 10.79 13.58C9.91 13.42 9.18 13.52 8.56 13.87C7.78 14.31 7.3 14.99 7.13 15.88L7.12 15.9C7.12 15.92 7.11 15.94 7.11 15.96C7.1 16 7.11 16 7.15 16.01C7.42 16.05 7.58 16.23 7.61 16.5V19.05C7.61 19.14 7.6 19.26 7.54 19.37C7.46 19.56 7.29 19.65 7.05 19.65C6.92 19.66 6.78 19.65 6.65 19.65H6.33C6.22 19.65 6.11 19.65 6.01 19.66C5.57 19.68 5.21 19.42 5.07 18.99C5.02 18.84 4.98 18.69 4.98 18.53C4.98 18.08 4.98 17.6 5.01 17.11C5.04 16.79 5.15 16.5 5.35 16.27C5.51 16.08 5.72 15.99 5.96 16H6.22C6.25 16 6.27 16 6.28 15.95C6.3 15.87 6.32 15.78 6.33 15.7C6.38 15.48 6.43 15.25 6.51 15.03C6.8 14.26 7.32 13.65 8.06 13.2C8.68 12.83 9.41 12.66 10.29 12.69C10.87 12.71 11.37 12.83 11.82 13.05C12.59 13.42 13.17 13.99 13.54 14.75C13.72 15.11 13.83 15.5 13.88 15.9C13.89 15.96 13.9 15.98 13.9 15.99C13.91 16 13.97 16 14.01 16H14.11C14.23 16.01 14.35 16.01 14.47 16.04C14.75 16.13 14.95 16.35 15.06 16.71C15.14 16.98 15.18 17.22 15.19 17.43C15.21 17.88 15.21 18.28 15.18 18.66Z" fill="url(#paint3_linear_28896_4823)"/>
</g>
<defs>
<linearGradient id="paint0_linear_28896_4823" x1="13.8001" y1="13.2296" x2="13.8001" y2="4.51224" gradientUnits="userSpaceOnUse">
<stop stop-color="#535F82"/>
<stop offset="1" stop-color="#A6B2D5"/>
</linearGradient>
<linearGradient id="paint1_linear_28896_4823" x1="10.0925" y1="22.44" x2="10.0925" y2="12.6866" gradientUnits="userSpaceOnUse">
<stop stop-color="#A6B2D5"/>
<stop offset="1" stop-color="#D1DAF3"/>
</linearGradient>
<linearGradient id="paint2_linear_28896_4823" x1="22.0353" y1="24.5" x2="22.0353" y2="10.63" gradientUnits="userSpaceOnUse">
<stop stop-color="#535F82"/>
<stop offset="1" stop-color="#A6B2D5"/>
</linearGradient>
<linearGradient id="paint3_linear_28896_4823" x1="9.315" y1="24.5" x2="9.315" y2="10.63" gradientUnits="userSpaceOnUse">
<stop stop-color="#535F82"/>
<stop offset="1" stop-color="#A6B2D5"/>
</linearGradient>
<clipPath id="clip0_28896_4823">
<rect width="25" height="25" fill="white"/>
</clipPath>
</defs>
</svg>

