<svg width="28" height="28" viewBox="0 0 28 28" fill="none" xmlns="http://www.w3.org/2000/svg">
<path d="M4.76992 18.6682C10.9239 18.6682 17.0769 18.6682 23.2309 18.6682C23.7569 18.6682 23.9089 18.5122 23.9089 17.9782C23.9089 14.2562 23.9089 10.5342 23.9089 6.81323C23.9089 6.26023 23.7649 6.11523 23.2179 6.11523C20.1449 6.11523 17.0719 6.11523 13.9989 6.11523C10.9259 6.11523 7.85292 6.11523 4.77992 6.11523C4.23392 6.11523 4.08992 6.26123 4.08992 6.81423C4.08992 10.5362 4.08992 14.2582 4.08992 17.9792C4.09092 18.5122 4.24392 18.6682 4.76992 18.6682ZM5.83592 7.85523C11.2819 7.85523 16.7179 7.85523 22.1739 7.85523C22.1739 10.8922 22.1739 13.9012 22.1739 16.9282C16.7269 16.9282 11.2919 16.9282 5.83592 16.9282C5.83592 13.9062 5.83592 10.8872 5.83592 7.85523ZM25.7869 19.5282C25.7249 19.5302 25.6619 19.5282 25.5989 19.5282C21.7359 19.5282 17.8739 19.5282 14.0109 19.5282C10.3989 19.5282 6.78592 19.5282 3.17392 19.5282C2.85292 19.5282 2.53292 19.5312 2.21192 19.5272C2.01592 19.5252 1.96592 19.6062 2.02092 19.7922C2.19592 20.3792 2.50792 20.8722 2.99592 21.2452C3.64792 21.7442 4.40492 21.8862 5.20392 21.8852C11.0679 21.8842 16.9329 21.8892 22.7969 21.8762C23.2439 21.8752 23.7059 21.8132 24.1339 21.6862C25.0869 21.4032 25.6889 20.7412 25.9789 19.7902C26.0349 19.6052 25.9819 19.5212 25.7869 19.5282ZM15.3669 21.1032H12.6239C12.4039 21.1032 12.2249 20.9252 12.2249 20.7042C12.2249 20.4832 12.4029 20.3062 12.6239 20.3062H15.3669C15.5869 20.3062 15.7649 20.4842 15.7649 20.7042C15.7649 20.9242 15.5869 21.1032 15.3669 21.1032Z" fill="#130F40"/>
</svg>
