<svg
            xmlns="http://www.w3.org/2000/svg"
            width="100%"
            height="100%"
            viewBox="0 0 20 20"
            fill="none"
            
        >
            <path
                d="M10 2.85714C11.7728 2.85714 13.4537 3.4722 14.9171 4.61091C16.3805 5.74046 17.6265 7.39532 18.5213 9.46493C18.5882 9.62202 18.5882 9.80571 18.5213 9.95532C16.7317 14.0945 13.5457 16.5714 10 16.5714H9.99165C6.45437 16.5714 3.26831 14.0945 1.47876 9.95532C1.41186 9.80571 1.41186 9.62202 1.47876 9.46493C3.26831 5.32488 6.45437 2.85714 9.99165 2.85714H10ZM10 6.38961C8.15193 6.38961 6.65507 7.8774 6.65507 9.71428C6.65507 11.5429 8.15193 13.0306 10 13.0306C11.8397 13.0306 13.3366 11.5429 13.3366 9.71428C13.3366 7.8774 11.8397 6.38961 10 6.38961Z"
                fill="currentColor"
            />
            <path
                d="M12.0837 9.7116C12.0837 10.8503 11.1471 11.7812 10.0015 11.7812C8.84747 11.7812 7.91089 10.8503 7.91089 9.7116C7.91089 9.57031 7.92761 9.43815 7.9527 9.30516H7.99451C8.92274 9.30516 9.67535 8.57373 9.7088 7.65862C9.80078 7.64283 9.90113 7.63368 10.0015 7.63368C11.1471 7.63368 12.0837 8.56459 12.0837 9.7116Z"
                fill="currentColor"
            />
        </svg>