<svg width="28" height="28" viewBox="0 0 28 28" fill="none" xmlns="http://www.w3.org/2000/svg">
<rect width="28" height="28" rx="6" fill="#56CCFF"/>
<path d="M14 6.85693C15.7729 6.85693 17.4536 7.47193 18.9172 8.6105C20.3807 9.73979 21.6264 11.3948 22.5214 13.4648C22.5886 13.6219 22.5886 13.8055 22.5214 13.9555C20.7314 18.0941 17.5457 20.5712 14 20.5712H13.9914C10.4543 20.5712 7.26787 18.0941 5.47858 13.9548C5.41144 13.8048 5.41144 13.6212 5.47858 13.4641C7.26858 9.32479 10.4543 6.85693 13.9914 6.85693H14ZM14 10.3891C12.1522 10.3891 10.655 11.8769 10.655 13.7141C10.655 15.5426 12.1522 17.0305 14 17.0305C15.84 17.0305 17.3364 15.5426 17.3364 13.7141C17.3364 11.8769 15.84 10.3891 14 10.3891Z" fill="white"/>
<path d="M16.0835 13.7116C16.0835 14.8502 15.1471 15.7816 14.0014 15.7816C12.8471 15.7816 11.9106 14.8509 11.9106 13.7116C11.9106 13.5702 11.9271 13.4381 11.9528 13.3052H11.9949C12.9235 13.3052 13.6756 12.5738 13.7092 11.6588C13.8014 11.6431 13.9014 11.6338 14.0021 11.6338C15.1471 11.6338 16.0835 12.5645 16.0835 13.7116Z" fill="white"/>
</svg>




