<svg width="20" height="20" viewBox="0 0 20 20" fill="none" xmlns="http://www.w3.org/2000/svg">
<path d="M16.2037 11.8461C16.3076 11.9502 16.4129 12.0557 16.5196 12.1628C16.5373 12.0961 16.5551 12.0335 16.5721 11.9735C16.6104 11.8382 16.645 11.7163 16.667 11.592C16.6851 11.4884 16.7272 11.4417 16.8241 11.4116C17.0733 11.3343 17.3219 11.2553 17.5705 11.1763C17.8576 11.0851 18.1446 10.9939 18.4326 10.9053C18.534 10.8742 18.5716 10.8299 18.57 10.7204C18.5638 10.2465 18.5632 9.77261 18.5703 9.29873C18.5719 9.17823 18.5363 9.12576 18.4194 9.09013C18.1181 8.9985 17.818 8.90282 17.518 8.80715C17.2877 8.73372 17.0575 8.6603 16.8267 8.58871C16.7269 8.55762 16.6702 8.51194 16.6437 8.40376C16.4723 7.70637 16.184 7.05628 15.8135 6.44312C15.7571 6.34983 15.7571 6.27792 15.8034 6.18237C15.9221 5.93855 16.0385 5.69361 16.155 5.44867C16.2824 5.18078 16.4097 4.91287 16.54 4.64638C16.5867 4.5505 16.5818 4.49381 16.5041 4.41802C16.1646 4.0873 15.8297 3.75205 15.4986 3.41292C15.4241 3.3368 15.3658 3.32449 15.2687 3.37178C14.9966 3.50423 14.7233 3.63425 14.4501 3.76425C14.2055 3.88065 13.9609 3.99704 13.7171 4.11516C13.6342 4.15533 13.5697 4.16051 13.4878 4.11095C12.9018 3.75627 12.2715 3.50912 11.6052 3.35559C11.4893 3.32903 11.441 3.27137 11.4083 3.16513C11.3342 2.92561 11.2581 2.68674 11.182 2.44791C11.0892 2.15642 10.9964 1.86497 10.9072 1.57245C10.8735 1.46167 10.8249 1.42701 10.7099 1.42863C10.236 1.43576 9.76216 1.43544 9.28827 1.42863C9.17393 1.42669 9.12502 1.46232 9.08712 1.57018C8.89666 2.11079 8.69875 2.64913 8.49695 3.18553C8.47493 3.24416 8.41986 3.31931 8.36642 3.33291C7.67389 3.51042 7.04 3.81813 6.43428 4.18869C6.34683 4.24213 6.27816 4.24213 6.18876 4.19873C5.94298 4.07947 5.69631 3.96196 5.44968 3.84448C5.17853 3.71531 4.90741 3.58616 4.63754 3.4547C4.54879 3.41162 4.49308 3.41648 4.4202 3.4858C4.08916 3.80097 3.75423 4.11225 3.41542 4.41899C3.33574 4.49122 3.32408 4.54823 3.37169 4.64573C3.62305 5.16107 3.87019 5.67868 4.10924 6.19986C4.13775 6.26205 4.13807 6.36635 4.10471 6.42368C3.75909 7.01515 3.50968 7.64386 3.3555 8.30982C3.32894 8.42514 3.27031 8.47405 3.16666 8.51097C2.91842 8.59938 2.67088 8.68968 2.42332 8.77997C2.13757 8.88421 1.8518 8.98845 1.56491 9.0898C1.46482 9.12511 1.4279 9.17013 1.42919 9.27832C1.43535 9.75771 1.43697 10.2371 1.42854 10.7165C1.42628 10.8363 1.47389 10.8772 1.57592 10.9134C2.11589 11.1058 2.65488 11.3018 3.1903 11.5062C3.25411 11.5308 3.32602 11.6053 3.34319 11.6704C3.52037 12.3357 3.78209 12.9657 4.10665 13.5727C4.13872 13.6327 4.13969 13.7354 4.11086 13.7979C3.87408 14.3139 3.6292 14.8263 3.38011 15.3364C3.32861 15.442 3.33185 15.5081 3.42125 15.5943C3.75423 15.9153 4.08074 16.2434 4.40303 16.5754C4.48563 16.6606 4.54976 16.6771 4.65957 16.623C4.89665 16.5063 5.13532 16.3929 5.37401 16.2795C5.62807 16.1588 5.88215 16.0381 6.13434 15.9133C6.26164 15.8502 6.3559 15.8437 6.48319 15.9231C7.06721 16.2868 7.68653 16.5744 8.35508 16.7503C8.41047 16.7649 8.47169 16.831 8.49404 16.8873C8.69843 17.4053 8.89699 17.9252 9.09133 18.4467C9.12632 18.5399 9.17296 18.5717 9.27208 18.5707C9.75147 18.5659 10.2309 18.5646 10.7102 18.5714C10.8243 18.573 10.8738 18.5383 10.9117 18.4301C11.0121 18.1453 11.1158 17.8616 11.2196 17.5779C11.3128 17.3232 11.406 17.0685 11.4967 16.8128C11.5304 16.7176 11.5793 16.6693 11.6765 16.6431C11.8437 16.5979 12.0092 16.5463 12.1749 16.4948C12.2416 16.474 12.3083 16.4533 12.3752 16.4329C12.3718 16.4224 12.3697 16.414 12.3681 16.4073C12.3654 16.3966 12.3638 16.3901 12.3596 16.3859C12.2888 16.3148 12.218 16.2437 12.1472 16.1726C11.7933 15.817 11.4394 15.4614 11.0815 15.1097C11.0468 15.0754 10.9736 15.0666 10.9192 15.0683C10.7745 15.073 10.6295 15.0828 10.4846 15.0926C10.2012 15.1118 9.91787 15.1311 9.63713 15.112C8.1345 15.0093 6.87254 14.376 5.96817 13.1785C4.64272 11.4236 4.47753 9.50473 5.49947 7.55835C6.76305 5.15168 9.733 4.19938 12.1925 5.35542C14.145 6.27306 15.3882 8.36618 15.0623 10.5613C15.0542 10.6154 15.062 10.6941 15.0957 10.7288C15.4568 11.0978 15.8216 11.4633 16.2037 11.8461Z" fill="#D500E2"/>
<path d="M6.78779 9.10281C6.7746 9.0928 6.76049 9.08209 6.74524 9.07006C6.74131 9.08131 6.73767 9.0913 6.73434 9.10044C6.72618 9.12288 6.71991 9.14011 6.71577 9.15784C6.53114 9.81344 6.58134 10.4558 6.81488 11.0916C7.46077 12.8485 9.35759 13.7554 11.1226 13.1423C11.2463 13.0995 11.3186 13.117 11.4109 13.2097C12.8405 14.6451 14.2734 16.0773 15.7063 17.5095C15.8782 17.6813 16.0501 17.8531 16.2219 18.0249C16.2887 18.0917 16.3577 18.1571 16.4302 18.218C17.0453 18.7353 17.8865 18.5795 18.3407 17.8947C18.6762 17.3888 18.5761 16.6869 18.1398 16.2505C16.5238 14.6336 14.9082 13.0169 13.2889 11.4035C13.2011 11.3161 13.183 11.2513 13.2316 11.1331C13.4735 10.5419 13.551 9.92713 13.4282 9.29809C13.1318 7.77862 11.9696 6.67538 10.4343 6.46548C10.0103 6.4075 9.58401 6.43827 9.14381 6.61027C9.16524 6.64202 9.19615 6.66214 9.22662 6.68197C9.24774 6.69571 9.26864 6.70931 9.28601 6.72655C9.35105 6.79111 9.41613 6.85564 9.4812 6.92016C9.8912 7.32671 10.3012 7.73323 10.7034 8.14723C11.0688 8.52297 11.2149 8.98001 11.179 9.50475C11.144 10.0139 10.8696 10.3774 10.4971 10.6825C9.8982 11.1729 8.91805 11.122 8.36254 10.5869C8.00202 10.2398 7.63793 9.89621 7.27385 9.55263C7.13516 9.42175 6.99646 9.29086 6.85796 9.15978C6.83718 9.1403 6.81437 9.12298 6.78779 9.10281Z" fill="#D500E2"/>
</svg>
