<svg width="55" height="55" viewBox="0 0 55 55" fill="none" xmlns="http://www.w3.org/2000/svg">
<rect width="55" height="55" rx="11" fill="#2B95FF"/>
<path d="M35.83 23.36C35.83 24.42 35.58 25.42 35.08 26.36C34.58 27.3 33.78 28.07 32.68 28.67C31.58 29.25 30.17 29.54 28.45 29.54H24.67V38H21.25V17.15H28.45C30.05 17.15 31.4 17.43 32.5 17.99C33.62 18.53 34.45 19.27 34.99 20.21C35.55 21.15 35.83 22.2 35.83 23.36ZM28.45 26.75C29.75 26.75 30.72 26.46 31.36 25.88C32 25.28 32.32 24.44 32.32 23.36C32.32 21.08 31.03 19.94 28.45 19.94H24.67V26.75H28.45Z" fill="white"/>
</svg>
