<svg width="20" height="20" viewBox="0 0 20 20" fill="none" xmlns="http://www.w3.org/2000/svg">
<path d="M14.2865 18.5714C13.9944 18.5714 13.7022 18.5436 13.4129 18.485C12.1236 18.2243 10.9929 17.7893 9.74721 17.0757L9.74578 17.075C6.9915 15.495 4.50578 13.0093 2.92578 10.255L2.92435 10.2529C2.20935 9.00714 1.77507 7.87714 1.51578 6.58786C1.16721 4.86 1.88078 3.03 3.37721 1.81C3.7615 1.49714 4.21078 1.37 4.65007 1.45357C5.08935 1.53786 5.46364 1.82286 5.70507 2.25571L6.40221 3.505C6.9965 4.57214 7.32221 5.15643 7.24721 5.86857C7.17292 6.58071 6.73221 7.08714 5.93221 8.00643L4.17721 10.0214C5.5865 12.3321 7.66721 14.4129 9.97792 15.8221L11.9944 14.0679C12.9129 13.2671 13.4194 12.8264 14.1329 12.7529C14.8422 12.68 15.4294 13.0036 16.4908 13.5957L17.7444 14.295C18.1772 14.5364 18.4622 14.9107 18.5465 15.3493C18.6308 15.7857 18.5044 16.2379 18.1915 16.6221C17.1751 17.8686 15.7365 18.5714 14.2865 18.5714ZM11.0922 16.4386C11.9379 16.8543 12.7522 17.1314 13.6494 17.3121C14.9408 17.5736 16.3244 17.0179 17.2636 15.8671C17.3129 15.8064 17.3929 15.6871 17.3722 15.575C17.3558 15.4893 17.2808 15.4057 17.1622 15.34L15.9122 14.6429C14.9715 14.1179 14.5815 13.9129 14.2558 13.9429C13.9315 13.9764 13.5901 14.2643 12.7786 14.97L11.0922 16.4386ZM4.3865 2.625C4.2865 2.625 4.18721 2.69286 4.13292 2.73786C2.98078 3.67571 2.42721 5.06 2.68792 6.35071C2.86864 7.24714 3.14507 8.06143 3.56078 8.90786L5.02935 7.22143C5.73507 6.41 6.02364 6.06786 6.05721 5.74428C6.0915 5.42071 5.8815 5.02786 5.35935 4.09214L4.66007 2.83786C4.59364 2.71928 4.51078 2.64428 4.42507 2.62857C4.41221 2.62571 4.39935 2.625 4.3865 2.625Z" fill="#5A577A"/>
</svg>
