<svg width="20" height="20" viewBox="0 0 20 20" fill="none" xmlns="http://www.w3.org/2000/svg">
<path d="M1.42849 9.95845C1.43982 5.24399 5.29606 1.41544 10.0197 1.42861C14.7626 1.44192 18.6019 5.29021 18.5711 10.0344C18.5396 14.9039 14.5474 18.6397 9.80206 18.5705C5.21877 18.5039 1.41732 14.6385 1.42849 9.95845ZM3.43728 13.4378C3.64552 13.8194 4.15487 13.8603 4.48937 13.5826C6.07994 12.262 7.91754 11.5691 10.029 11.574C12.1269 11.5789 13.9531 12.2763 15.5195 13.5757C15.8577 13.8564 16.3738 13.8115 16.5811 13.424C18.0523 10.6749 17.6675 6.91581 14.9808 4.48617C12.0741 1.85779 7.62674 1.93999 4.81377 4.68929C2.2399 7.205 2.04281 10.8822 3.43728 13.4378Z" fill="#FFA113"/>
<path d="M13.4346 7.12768C13.4396 9.01861 11.9052 10.5624 10.0173 10.5659C8.12498 10.5693 6.57967 9.03683 6.57416 7.15141C6.56849 5.26507 8.1083 3.71624 9.99357 3.7118C11.8842 3.70736 13.4295 5.24119 13.4346 7.12768Z" fill="#FFA113"/>
</svg>
