<svg width="100" height="100" viewBox="0 0 100 100" fill="none" xmlns="http://www.w3.org/2000/svg">
<rect width="100" height="100" rx="20" fill="#7B00FC"/>
<path d="M44 28.6C44 25.2397 44 23.5595 44.654 22.2761C45.2292 21.1471 46.1471 20.2292 47.2761 19.654C48.5595 19 50.2397 19 53.6 19H81V46.4C81 49.7603 81 51.4405 80.346 52.7239C79.7708 53.8529 78.8529 54.7708 77.7239 55.346C76.4405 56 74.7603 56 71.4 56H53.6C50.2397 56 48.5595 56 47.2761 55.346C46.1471 54.7708 45.2292 53.8529 44.654 52.7239C44 51.4405 44 49.7603 44 46.4V28.6Z" fill="#FAFF5D"/>
<path d="M32 40.6C32 37.2397 32 35.5595 32.654 34.2761C33.2292 33.1471 34.1471 32.2292 35.2761 31.654C36.5595 31 38.2397 31 41.6 31H69V58.4C69 61.7603 69 63.4405 68.346 64.7239C67.7708 65.8529 66.8529 66.7708 65.7239 67.346C64.4405 68 62.7603 68 59.4 68H41.6C38.2397 68 36.5595 68 35.2761 67.346C34.1471 66.7708 33.2292 65.8529 32.654 64.7239C32 63.4405 32 61.7603 32 58.4V40.6Z" fill="#48FF91"/>
<path d="M19 53.6C19 50.2397 19 48.5595 19.654 47.2761C20.2292 46.1471 21.1471 45.2292 22.2761 44.654C23.5595 44 25.2397 44 28.6 44H56V71.4C56 74.7603 56 76.4405 55.346 77.7239C54.7708 78.8529 53.8529 79.7708 52.7239 80.346C51.4405 81 49.7603 81 46.4 81H28.6C25.2397 81 23.5595 81 22.2761 80.346C21.1471 79.7708 20.2292 78.8529 19.654 77.7239C19 76.4405 19 74.7603 19 71.4V53.6Z" fill="#FF91ED"/>
<circle cx="78" cy="22" r="5" fill="#FF0000" stroke="#7B00FC" stroke-width="1.5"/>
<circle cx="66" cy="34" r="5" fill="#FF0000" stroke="#FAFF5D" stroke-width="1.5"/>
<circle cx="53" cy="47" r="5" fill="#FF0000" stroke="#48FF91" stroke-width="1.5"/>
</svg>
