<svg width="20" height="20" viewBox="0 0 20 20" fill="none" xmlns="http://www.w3.org/2000/svg">
<path d="M6.55569 1.89856C7.68355 1.9057 8.90354 2.03142 10.0771 2.45213C10.4871 2.59927 10.8807 2.78142 11.2085 3.07856C11.555 3.39213 11.5571 3.66142 11.2093 3.97713C10.7864 4.35999 10.2664 4.5607 9.7314 4.7207C8.40855 5.11713 7.05283 5.21142 5.67997 5.1357C4.69783 5.08213 3.73212 4.9357 2.80426 4.59285C2.40569 4.4457 2.02283 4.26856 1.70426 3.97856C1.3564 3.66213 1.35426 3.39213 1.70283 3.07999C2.14497 2.68427 2.68855 2.48285 3.24426 2.31713C4.28855 2.00642 5.3614 1.90213 6.55569 1.89856Z" fill="#F24A17"/>
<path d="M1.43795 8.6264C1.8951 8.9064 2.35581 9.10712 2.84081 9.25498C4.27652 9.69069 5.74581 9.80426 7.23724 9.72926C8.20295 9.68069 9.15367 9.54069 10.0787 9.25283C10.4994 9.12212 10.9051 8.95712 11.2872 8.7364C11.343 8.70426 11.3922 8.6564 11.4758 8.65069C11.4758 9.03283 11.4722 9.40998 11.4787 9.78712C11.4801 9.88569 11.4122 9.89283 11.3544 9.91283C10.7994 10.1014 10.303 10.3885 9.85867 10.7707C9.36581 11.195 8.98295 11.7021 8.71081 12.2921C8.66652 12.3885 8.61295 12.4378 8.50652 12.4528C6.70438 12.7071 4.91795 12.6793 3.15867 12.1614C2.69295 12.0235 2.24652 11.8385 1.8501 11.55C1.57295 11.3478 1.41581 11.1057 1.4301 10.7343C1.45652 10.0435 1.43795 9.3514 1.43795 8.6264Z" fill="#F24A17"/>
<path d="M5.41508 14.6471C5.23651 15.1186 5.17936 15.6186 5.22936 16.14C4.83651 16.0971 4.44365 16.04 4.05079 15.9614C3.88651 15.9257 3.72222 15.89 3.55793 15.8471C3.42222 15.8186 3.29365 15.7757 3.15793 15.74C2.69365 15.6043 2.24365 15.4186 1.85079 15.1329C1.57222 14.9257 1.41508 14.6829 1.42936 14.3114C1.45793 13.6257 1.43651 12.9329 1.43651 12.2043C1.45079 12.2114 1.46508 12.2186 1.47936 12.2257C1.92222 12.4971 2.37222 12.6971 2.84365 12.8329C2.95793 12.8686 3.07936 12.9043 3.19365 12.9257C3.37222 12.9829 3.55079 13.0257 3.72936 13.0614C3.87936 13.09 4.03651 13.1257 4.18651 13.1471C4.32936 13.1757 4.47936 13.1971 4.62222 13.2186C5.17222 13.2971 5.72222 13.34 6.26508 13.3686C5.88651 13.7471 5.59365 14.1614 5.41508 14.6471Z" fill="#F24A17"/>
<path d="M11.4716 4.92783C11.393 4.93497 11.343 4.98497 11.2859 5.01355C10.9001 5.23497 10.5001 5.39926 10.0787 5.52783C9.65728 5.66355 9.22871 5.76355 8.80014 5.83497C8.28585 5.92783 7.76443 5.97783 7.23585 6.0064C6.18585 6.06355 5.143 6.02069 4.11443 5.83497C3.68585 5.76355 3.25728 5.66355 2.83585 5.53497C2.35728 5.38497 1.893 5.18497 1.43585 4.9064C1.43585 5.62783 1.45728 6.32069 1.42871 7.01355C1.42871 7.09212 1.42871 7.16355 1.443 7.23497C1.43585 7.37783 1.50728 7.51355 1.65728 7.66355C1.71443 7.72069 1.77871 7.77783 1.85014 7.82783C1.86443 7.84212 1.87871 7.84926 1.90014 7.8564C1.95728 7.9064 2.02157 7.94212 2.08585 7.98497C2.42157 8.18497 2.78585 8.32783 3.15728 8.44212C3.55014 8.56355 3.95014 8.6564 4.35728 8.72069C4.42871 8.73497 4.50728 8.74212 4.57871 8.7564C4.82157 8.79212 5.06443 8.82069 5.30728 8.83497C5.443 8.8564 5.57871 8.86355 5.71443 8.86355C5.93585 8.87783 6.15728 8.88497 6.37157 8.88497C6.55728 8.88497 6.73585 8.88497 6.90728 8.87783C7.45014 8.86355 7.97871 8.81355 8.50728 8.72783H8.52871C8.93585 8.6564 9.32871 8.57069 9.72871 8.44926C10.2644 8.28497 10.7859 8.08497 11.2073 7.7064C11.3844 7.54355 11.4701 7.39497 11.468 7.24783C11.4701 7.23783 11.4787 7.23712 11.4787 7.22426C11.4716 6.84497 11.4716 5.31355 11.4716 4.92783Z" fill="#F24A17"/>
<path d="M18.5421 15.865L18.5414 15.8614C18.5407 15.8564 18.5393 15.8521 18.5385 15.8478C18.5357 15.8328 18.5335 15.8178 18.53 15.8028C18.5271 15.7907 18.525 15.7793 18.5228 15.7678C18.405 15.2314 18.105 14.8178 17.6293 14.5314C17.2335 14.2936 16.8035 14.2121 16.3285 14.2943C16.4 13.2636 16.1221 12.3557 15.4314 11.5928C14.7414 10.83 13.8714 10.4457 12.8464 10.4257C11.2114 10.3936 9.4814 11.6207 9.28497 13.6914C9.23711 13.6743 9.1914 13.6571 9.14425 13.6407C8.23925 13.3314 7.41854 13.4886 6.73497 14.1521C6.06497 14.8014 5.87425 15.6093 6.1514 16.5007C6.45854 17.4893 7.33854 18.0993 8.41211 18.1007C10.8928 18.1028 13.3743 18.1014 15.855 18.1014C15.8728 18.1028 15.8914 18.1028 15.91 18.1028H16.6685C17.1943 18.1028 17.67 17.8893 18.0143 17.545C18.2814 17.2778 18.4693 16.9321 18.5407 16.5457C18.5607 16.4321 18.5714 16.3164 18.5714 16.1978C18.5714 16.0843 18.5614 15.9728 18.5421 15.865Z" fill="#F24A17"/>
</svg>
