<svg width="20" height="20" viewBox="0 0 20 20" fill="none" xmlns="http://www.w3.org/2000/svg">
<path d="M3.55601 6.39228C3.94367 6.40104 4.33134 6.40066 4.719 6.39228C5.10019 6.38428 5.36104 6.12648 5.35952 5.77728C5.35799 5.42846 5.09409 5.17674 4.71329 5.16684C4.52212 5.16189 4.33057 5.16608 4.13941 5.16608C3.94824 5.16608 3.7567 5.16227 3.56553 5.16684C3.18777 5.17636 2.91854 5.42998 2.91435 5.77537C2.91054 6.11772 3.17901 6.3839 3.55601 6.39228Z" fill="url(#paint0_linear_569_200)"/>
<path d="M4.14748 14.8329C4.14748 14.8325 4.14748 14.8332 4.14748 14.8329C4.3337 14.8329 4.5203 14.8359 4.70651 14.8336C4.91253 14.8313 5.09494 14.77 5.22555 14.601C5.37369 14.409 5.40682 14.1965 5.30781 13.9738C5.19737 13.7247 4.99174 13.6097 4.72708 13.6059C4.3337 13.6002 3.93994 13.6006 3.54695 13.6074C3.45137 13.6089 3.34969 13.6326 3.2621 13.671C3.00849 13.7826 2.87444 14.0636 2.9289 14.3393C2.9845 14.6219 3.21298 14.8161 3.52677 14.831C3.73317 14.8409 3.94071 14.8329 4.14748 14.8329Z" fill="url(#paint1_linear_569_200)"/>
<path d="M3.50015 10.6088C3.71149 10.6233 3.92475 10.6115 4.13686 10.6115C4.13686 10.6126 4.13686 10.6141 4.13686 10.6153C4.3284 10.6153 4.52033 10.6176 4.71188 10.6145C4.90571 10.6115 5.0805 10.5563 5.2096 10.402C5.36953 10.2105 5.41066 9.99419 5.31279 9.7638C5.20388 9.50713 4.99406 9.38908 4.72216 9.38566C4.33412 9.3807 3.94569 9.37994 3.55727 9.38756C3.45635 9.38946 3.34935 9.41307 3.25757 9.4542C3.00928 9.56464 2.87676 9.84034 2.92665 10.1103C2.97806 10.3914 3.19283 10.5875 3.50015 10.6088Z" fill="url(#paint2_linear_569_200)"/>
<path d="M15.2125 1.42859H5.45391C5.3747 1.45029 5.29625 1.47314 5.21628 1.49333C4.28635 1.72486 3.63174 2.53865 3.61422 3.49448C3.60736 3.85129 3.61346 4.20811 3.61346 4.58435C3.67743 4.58816 3.7357 4.59349 3.79396 4.59463C4.1622 4.59882 4.53083 4.5874 4.89793 4.6091C5.50684 4.6449 5.98209 5.16661 5.98475 5.77742C5.98704 6.39129 5.50265 6.91985 4.88612 6.9526C4.53006 6.97164 4.1721 6.96097 3.81567 6.96364C3.75512 6.96402 3.69457 6.96364 3.62336 6.96364V8.81437C3.96875 8.81437 4.31338 8.80751 4.65725 8.81742C4.82824 8.8216 5.00493 8.83379 5.16754 8.88253C5.68391 9.03638 6.03883 9.5798 5.97599 10.0897C5.90059 10.7036 5.47447 11.1388 4.89183 11.1708C4.53044 11.1906 4.16715 11.1807 3.805 11.1834C3.74484 11.1838 3.68505 11.1834 3.61841 11.1834V13.0341C3.67972 13.0341 3.73836 13.0337 3.79663 13.0341C4.16487 13.0372 4.53387 13.0269 4.90097 13.0463C5.50113 13.0783 5.98513 13.6122 5.98399 14.2192C5.98247 14.8212 5.50608 15.3532 4.91544 15.3883C4.55367 15.4092 4.19038 15.3993 3.82823 15.4031C3.76235 15.4043 3.69647 15.4035 3.60813 15.4035C3.62222 15.6891 3.60584 15.9717 3.60584 16.2512V16.72C3.60584 17.7424 4.43486 18.5714 5.45733 18.5714H15.2117C16.2346 18.5714 17.0636 17.7424 17.0636 16.72V3.28046C17.0644 2.25761 16.2354 1.42859 15.2125 1.42859ZM10.7292 5.64833C11.8507 5.6468 12.7601 6.55618 12.7624 7.68032C12.7643 8.80333 11.8564 9.71384 10.7334 9.71612C9.61386 9.71841 8.69992 8.80561 8.69992 7.68375C8.7003 6.56036 9.60815 5.64947 10.7292 5.64833ZM7.57044 13.5471C7.56359 12.8216 7.48742 12.0969 7.91583 11.4518C8.353 10.7938 8.96229 10.4267 9.75361 10.4035C10.4052 10.3844 11.0583 10.3894 11.7102 10.402C12.8957 10.4252 13.8637 11.4008 13.8907 12.5897C13.8976 12.9054 13.8919 13.2222 13.8919 13.5471H7.57044Z" fill="url(#paint3_linear_569_200)"/>
<defs>
<linearGradient id="paint0_linear_569_200" x1="3.00002" y1="19" x2="15.5169" y2="0.0218479" gradientUnits="userSpaceOnUse">
<stop stop-color="#130F40"/>
<stop offset="1" stop-color="#656096"/>
</linearGradient>
<linearGradient id="paint1_linear_569_200" x1="3.00002" y1="19" x2="15.5169" y2="0.0218479" gradientUnits="userSpaceOnUse">
<stop stop-color="#130F40"/>
<stop offset="1" stop-color="#656096"/>
</linearGradient>
<linearGradient id="paint2_linear_569_200" x1="3.00002" y1="19" x2="15.5169" y2="0.0218479" gradientUnits="userSpaceOnUse">
<stop stop-color="#130F40"/>
<stop offset="1" stop-color="#656096"/>
</linearGradient>
<linearGradient id="paint3_linear_569_200" x1="3.00002" y1="19" x2="15.5169" y2="0.0218479" gradientUnits="userSpaceOnUse">
<stop stop-color="#130F40"/>
<stop offset="1" stop-color="#656096"/>
</linearGradient>
</defs>
</svg>
