<svg width="28" height="28" viewBox="0 0 28 28" fill="none" xmlns="http://www.w3.org/2000/svg">
<path d="M3.1748 7.00005H24.8244L23.2088 4.20005C22.9631 3.77441 22.6096 3.42095 22.184 3.1752C21.7583 2.92944 21.2755 2.80006 20.784 2.80005H7.2152C6.72371 2.80006 6.24088 2.92944 5.81524 3.1752C5.3896 3.42095 5.03615 3.77441 4.7904 4.20005L3.1748 7.00005Z" fill="url(#paint0_linear_28942_4424)"/>
<path d="M22.3998 5.6001H5.5998C4.05341 5.6001 2.7998 6.8537 2.7998 8.4001V22.4001C2.7998 23.9465 4.05341 25.2001 5.5998 25.2001H22.3998C23.9462 25.2001 25.1998 23.9465 25.1998 22.4001V8.4001C25.1998 6.8537 23.9462 5.6001 22.3998 5.6001Z" fill="url(#paint1_linear_28942_4424)"/>
<path d="M16.8002 2.80005H11.2002V5.60005H16.8002V2.80005Z" fill="url(#paint2_linear_28942_4424)"/>
<path d="M10.4996 21H6.29961C5.91301 21 5.59961 21.3134 5.59961 21.7C5.59961 22.0866 5.91301 22.4 6.29961 22.4H10.4996C10.8862 22.4 11.1996 22.0866 11.1996 21.7C11.1996 21.3134 10.8862 21 10.4996 21Z" fill="url(#paint3_linear_28942_4424)"/>
<path d="M22.3914 26.6C24.711 26.6 26.5914 24.7195 26.5914 22.4C26.5914 20.0804 24.711 18.2 22.3914 18.2C20.0718 18.2 18.1914 20.0804 18.1914 22.4C18.1914 24.7195 20.0718 26.6 22.3914 26.6Z" fill="url(#paint4_linear_28942_4424)"/>
<path d="M20.9912 22.4L21.9824 23.3912L23.962 21.4088" stroke="#FE0002" strokeLinecap="round" strokeLinejoin="round"/>
<path d="M15.991 10.794L14.2494 9.92598C14.172 9.8875 14.0867 9.86748 14.0002 9.86748C13.9137 9.86748 13.8284 9.8875 13.751 9.92598L12.0094 10.794C11.924 10.8364 11.8293 10.8563 11.7341 10.8519C11.6389 10.8474 11.5464 10.8187 11.4653 10.7686C11.3843 10.7184 11.3174 10.6483 11.271 10.5651C11.2246 10.4818 11.2002 10.3881 11.2002 10.2928V5.59998H16.8002V10.2928C16.8001 10.3881 16.7758 10.4818 16.7294 10.5651C16.683 10.6483 16.6161 10.7184 16.5351 10.7686C16.454 10.8187 16.3615 10.8474 16.2663 10.8519C16.1711 10.8563 16.0763 10.8364 15.991 10.794Z" fill="url(#paint5_linear_28942_4424)"/>
<defs>
<linearGradient id="paint0_linear_28942_4424" x1="13.9996" y1="7.00005" x2="13.9996" y2="2.80005" gradientUnits="userSpaceOnUse">
<stop stop-color="#FF6457"/>
<stop offset="1" stop-color="#FE0002"/>
</linearGradient>
<linearGradient id="paint1_linear_28942_4424" x1="13.9998" y1="25.2001" x2="13.9998" y2="5.6001" gradientUnits="userSpaceOnUse">
<stop stop-color="#FE0002"/>
<stop offset="1" stop-color="#FF6457"/>
</linearGradient>
<linearGradient id="paint2_linear_28942_4424" x1="14.0002" y1="5.60006" x2="14.0002" y2="2.80005" gradientUnits="userSpaceOnUse">
<stop stop-color="#FFBFD8"/>
<stop offset="1" stop-color="#FFE5E2"/>
</linearGradient>
<linearGradient id="paint3_linear_28942_4424" x1="8.39962" y1="22.4" x2="8.39962" y2="21" gradientUnits="userSpaceOnUse">
<stop stop-color="#FFBFD8"/>
<stop offset="1" stop-color="#FFE5E2"/>
</linearGradient>
<linearGradient id="paint4_linear_28942_4424" x1="22.3914" y1="26.6" x2="22.3914" y2="18.2" gradientUnits="userSpaceOnUse">
<stop stop-color="#FFBFD8"/>
<stop offset="1" stop-color="#FFE5E2"/>
</linearGradient>
<linearGradient id="paint5_linear_28942_4424" x1="14.0002" y1="10.8525" x2="14.0002" y2="5.59998" gradientUnits="userSpaceOnUse">
<stop stop-color="#FFBFD8"/>
<stop offset="1" stop-color="#FFE5E2"/>
</linearGradient>
</defs>
</svg>
