<svg width="20" height="20" viewBox="0 0 20 20" fill="none" xmlns="http://www.w3.org/2000/svg">
<path d="M8.25416 16.1954C8.68266 16.1047 11.2937 16.1047 11.7222 16.1954C12.0885 16.28 12.4846 16.4777 12.4846 16.9093C12.4633 17.3202 12.2222 17.6845 11.8891 17.9159C11.4572 18.2526 10.9504 18.4658 10.4205 18.5426C10.1275 18.5806 9.83951 18.5815 9.55669 18.5426C9.02597 18.4658 8.5191 18.2526 8.08805 17.915C7.75411 17.6845 7.51303 17.3202 7.49173 16.9093C7.49173 16.4777 7.88785 16.28 8.25416 16.1954ZM10.0388 1.42859C11.8218 1.42859 13.6431 2.27461 14.725 3.6783C15.4269 4.58216 15.7489 5.48515 15.7489 6.88885V7.25401C15.7489 8.33053 16.0335 8.96504 16.6596 9.69624C17.1341 10.2349 17.2857 10.9264 17.2857 11.6766C17.2857 12.4259 17.0395 13.1373 16.5463 13.7148C15.9006 14.4072 14.9899 14.8492 14.0605 14.926C12.7137 15.0408 11.366 15.1375 10.0004 15.1375C8.63402 15.1375 7.28719 15.0797 5.94037 14.926C5.01011 14.8492 4.09945 14.4072 3.45458 13.7148C2.96134 13.1373 2.71429 12.4259 2.71429 11.6766C2.71429 10.9264 2.86678 10.2349 3.34043 9.69624C3.98615 8.96504 4.25194 8.33053 4.25194 7.25401V6.88885C4.25194 5.44717 4.61143 4.50446 5.35172 3.58161C6.45235 2.23576 8.2166 1.42859 9.9621 1.42859H10.0388Z" fill="url(#paint0_linear_569_205)"/>
<defs>
<linearGradient id="paint0_linear_569_205" x1="2.80256" y1="19" x2="15.1709" y2="-0.312423" gradientUnits="userSpaceOnUse">
<stop stop-color="#130F40"/>
<stop offset="1" stop-color="#656096"/>
</linearGradient>
</defs>
</svg>
