<svg width="20" height="20" viewBox="0 0 20 20" fill="none" xmlns="http://www.w3.org/2000/svg">
<path d="M18.1429 5.06418C18.1429 5.42132 17.85 5.70704 17.4786 5.70704H2.52146C2.15003 5.70704 1.85718 5.42132 1.85718 5.06418C1.85718 4.70704 2.15003 4.42132 2.52146 4.42132H5.41432L5.50003 4.41418C5.83575 4.37132 6.10718 4.12847 6.17146 3.80704L6.39289 2.76418C6.60718 1.96418 7.32146 1.43561 8.12861 1.43561H11.8715V1.42847C12.6786 1.42847 13.3929 1.95704 13.6 2.72132L13.8286 3.7999C13.9 4.15704 14.2215 4.41418 14.5857 4.42132H17.4786C17.85 4.42132 18.1429 4.70704 18.1429 5.06418ZM3.08044 7.86062C3.04487 7.44369 3.3737 7.08561 3.79214 7.08561H16.2139C16.6328 7.08561 16.9617 7.44437 16.9255 7.86167L16.8143 9.14275C16.6572 10.9928 16.3572 14.3856 16.1643 16.107C15.9929 17.5999 14.9715 18.5142 13.4357 18.5428C12.2572 18.557 11.1286 18.5713 10.0215 18.5713C8.82146 18.5713 7.65718 18.557 6.50718 18.5356C5.02861 18.507 4.00718 17.5785 3.84289 16.1142C3.77146 15.457 3.67861 14.557 3.58575 13.5928C3.50003 12.6285 3.40003 11.5999 3.32146 10.6856L3.08044 7.86062ZM9.30718 15.0285C9.30718 15.407 9.60718 15.6999 10 15.6999C10.4 15.6928 10.6929 15.407 10.6929 15.0285V10.5213C10.6929 10.1356 10.4 9.84989 10 9.84989C9.60718 9.84989 9.30718 10.1356 9.30718 10.5213V15.0285Z" fill="#FF262E"/>
</svg>
