<svg width="31" height="31" viewBox="0 0 31 31" fill="none" xmlns="http://www.w3.org/2000/svg">
<mask id="mask0_642_88" style="mask-type:luminance" maskUnits="userSpaceOnUse" x="0" y="0" width="31" height="31">
<path d="M31 0H0V31H31V0Z" fill="white"/>
</mask>
<g mask="url(#mask0_642_88)">
<path opacity="0.4" d="M31 21.6077C31 25.9322 27.528 29.4352 23.2035 29.4507H23.188H7.8275C3.5185 29.4507 0 25.9632 0 21.6387V21.6232C0 21.6232 0.00929991 14.7629 0.0216999 11.3126C0.0232499 10.6647 0.76725 10.302 1.2741 10.705C4.9569 13.6267 11.5428 18.9541 11.625 19.0238C12.7255 19.9058 14.1205 20.4033 15.5465 20.4033C16.9725 20.4033 18.3675 19.9058 19.468 19.0068C19.5502 18.9525 25.9889 13.7848 29.7275 10.815C30.2359 10.4105 30.9829 10.7732 30.9845 11.4195C31 14.8435 31 21.6077 31 21.6077Z" fill="#AE00B9"/>
<path d="M30.188 5.6945C28.8457 3.1649 26.2045 1.5498 23.2967 1.5498H7.8277C4.91995 1.5498 2.27875 3.1649 0.936447 5.6945C0.635747 6.26025 0.778347 6.96559 1.279 7.36549L12.7877 16.5709C13.5937 17.2219 14.5702 17.5459 15.5467 17.5459C15.5529 17.5459 15.5576 17.5459 15.5622 17.5459C15.5669 17.5459 15.5731 17.5459 15.5777 17.5459C16.5542 17.5459 17.5307 17.2219 18.3367 16.5709L29.8455 7.36549C30.3461 6.96559 30.4887 6.26025 30.188 5.6945Z" fill="#AE00B9"/>
</g>
</svg>
