<svg width="20" height="20" viewBox="0 0 20 20" fill="none" xmlns="http://www.w3.org/2000/svg">
<path fill-rule="evenodd" clip-rule="evenodd" d="M16.3138 7.18704C16.6777 7.21552 16.9488 7.52634 16.9219 7.87988C16.917 7.93919 16.4384 13.6907 16.1624 16.1037C15.9915 17.6009 14.9732 18.512 13.4372 18.5405C12.2601 18.5595 11.127 18.5713 10.0183 18.5713C8.82421 18.5713 7.65693 18.5595 6.50431 18.5357C5.02934 18.5073 4.00858 17.5795 3.84253 16.1108C3.56414 13.6764 3.09039 7.93919 3.0855 7.88225C3.0562 7.52871 3.32726 7.21789 3.69112 7.18942C4.0501 7.17992 4.37488 7.42431 4.40419 7.77785C4.40663 7.81581 4.60199 10.1577 4.812 12.4758L4.85351 12.9385C4.96096 14.0916 5.06841 15.1973 5.15632 15.9685C5.25156 16.8013 5.7131 17.2331 6.53117 17.2497C8.7363 17.2948 10.9878 17.2972 13.4127 17.2545C14.2796 17.2379 14.7509 16.8155 14.8462 15.9637C15.1197 13.5696 15.5959 7.83717 15.6008 7.77785C15.6325 7.42431 15.9549 7.17518 16.3138 7.18704ZM11.8694 1.42847C12.6801 1.42847 13.3908 1.95995 13.6008 2.71922L13.8254 3.80118C13.8987 4.15471 14.2186 4.41334 14.5873 4.42046H17.4811C17.8474 4.42046 18.1429 4.70756 18.1429 5.06346C18.1429 5.41937 17.8474 5.70647 17.4811 5.70647H14.6118C14.6069 5.70647 14.602 5.70647 14.5995 5.70647H14.5776H5.42494C5.41762 5.70647 5.41029 5.70647 5.40296 5.70647H5.38831H2.51896C2.15266 5.70647 1.85718 5.41937 1.85718 5.06346C1.85718 4.70756 2.15266 4.42046 2.51896 4.42046H5.41273L5.50064 4.41571C5.83276 4.373 6.1087 4.12861 6.17464 3.80355L6.38953 2.76193C6.60687 1.96233 7.31994 1.43321 8.12824 1.43321H11.8694V1.42847ZM11.8694 2.71448H8.13557C7.92311 2.71448 7.73752 2.85209 7.68379 3.0514L7.47867 4.05506C7.4518 4.18319 7.41517 4.3042 7.36633 4.42046H12.6411C12.5922 4.3042 12.5531 4.18081 12.5287 4.05506L12.3138 3.01344C12.2674 2.85209 12.0818 2.71448 11.8694 2.71448ZM10.6923 15.0265V9.08996C10.6923 8.70795 10.3969 8.41848 10.0013 8.41848C9.60809 8.41848 9.31017 8.70558 9.31017 9.08996V15.0265C9.31017 15.4085 9.60565 15.698 10.0013 15.698C10.3969 15.6956 10.6923 15.4085 10.6923 15.0265Z" fill="#5A577A"/>
</svg>
