<svg width="20" height="20" viewBox="0 0 20 20" fill="none" xmlns="http://www.w3.org/2000/svg">
    <g clip-path="url(#clip0_493_131)">
        <path
            d="M20 10C20 4.47715 15.5228 0 10 0C4.47715 0 0 4.47715 0 10C0 15.5228 4.47715 20 10 20C15.5228 20 20 15.5228 20 10Z"
            fill="#FE0002" />
        <path
            d="M10.4371 9.74998L13.3575 6.82954C13.5475 6.63958 13.5475 6.33243 13.3575 6.14247C13.1675 5.95251 12.8604 5.95251 12.6704 6.14247L9.74996 9.06291L6.82961 6.14247C6.63956 5.95251 6.3325 5.95251 6.14254 6.14247C5.95249 6.33243 5.95249 6.63958 6.14254 6.82954L9.0629 9.74998L6.14254 12.6704C5.95249 12.8604 5.95249 13.1675 6.14254 13.3575C6.23721 13.4523 6.36169 13.4999 6.48607 13.4999C6.61046 13.4999 6.73485 13.4523 6.82961 13.3575L9.74996 10.4371L12.6704 13.3575C12.7652 13.4523 12.8896 13.4999 13.0139 13.4999C13.1383 13.4999 13.2627 13.4523 13.3575 13.3575C13.5475 13.1675 13.5475 12.8604 13.3575 12.6704L10.4371 9.74998Z"
             stroke="#FFF" strokeWidth="0.1" />
    </g>
    <defs>
        <clipPath id="clip0_493_131">
            <rect width="20" height="20" fill="#fff" />
        </clipPath>
    </defs>
</svg>