<svg width="20" height="20" viewBox="0 0 20 20" fill="none" xmlns="http://www.w3.org/2000/svg">
<path d="M1.42861 9.95843C1.43994 5.24397 5.29619 1.41543 10.0198 1.42859C14.7628 1.44191 18.602 5.29019 18.5713 10.0344C18.5397 14.9039 14.5476 18.6397 9.80218 18.5705C5.21889 18.5039 1.41744 14.6385 1.42861 9.95843ZM3.4374 13.4378C3.64565 13.8194 4.155 13.8603 4.4895 13.5826C6.08006 12.262 7.91766 11.5691 10.0292 11.574C12.127 11.5789 13.9532 12.2763 15.5196 13.5757C15.8579 13.8564 16.3739 13.8115 16.5813 13.424C18.0524 10.6749 17.6676 6.9158 14.9809 4.48616C12.0742 1.85778 7.62686 1.93997 4.81389 4.68927C2.24002 7.20499 2.04293 10.8821 3.4374 13.4378Z" fill="url(#paint0_linear_569_190)"/>
<path d="M13.4347 7.12767C13.4397 9.0186 11.9053 10.5624 10.0174 10.5659C8.12511 10.5693 6.57979 9.03681 6.57428 7.15139C6.56862 5.26506 8.10842 3.71622 9.99369 3.71178C11.8843 3.70734 13.4296 5.24118 13.4347 7.12767Z" fill="url(#paint1_linear_569_190)"/>
<defs>
<linearGradient id="paint0_linear_569_190" x1="1.42862" y1="1.42857" x2="1.42864" y2="18.5714" gradientUnits="userSpaceOnUse">
<stop stop-color="#656096"/>
<stop offset="1" stop-color="#130F40"/>
</linearGradient>
<linearGradient id="paint1_linear_569_190" x1="1.42862" y1="1.42857" x2="1.42864" y2="18.5714" gradientUnits="userSpaceOnUse">
<stop stop-color="#656096"/>
<stop offset="1" stop-color="#130F40"/>
</linearGradient>
</defs>
</svg>
