<svg width="36" height="34" viewBox="0 0 36 34" fill="none"
    xmlns="http://www.w3.org/2000/svg">
    <path d="M8.456 17.4088C13.0905 17.4088 16.8475 13.6518 16.8475 9.01728C16.8475 4.38275 13.0905 0.625732 8.456 0.625732C3.82148 0.625732 0.0644531 4.38275 0.0644531 9.01728C0.0644531 13.6518 3.82148 17.4088 8.456 17.4088Z" fill="#F50303"/>
    <path d="M27.3356 17.4088C31.9702 17.4088 35.7272 13.6518 35.7272 9.01728C35.7272 4.38275 31.9702 0.625732 27.3356 0.625732C22.7011 0.625732 18.9441 4.38275 18.9441 9.01728C18.9441 13.6518 22.7011 17.4088 27.3356 17.4088Z" fill="#FFE600"/>
    <path d="M17.8954 33.1417C22.53 33.1417 26.287 29.3847 26.287 24.7502C26.287 20.1157 22.53 16.3586 17.8954 16.3586C13.2609 16.3586 9.50391 20.1157 9.50391 24.7502C9.50391 29.3847 13.2609 33.1417 17.8954 33.1417Z" fill="#AE00B9"/>
</svg>
