<svg width="20" height="20" viewBox="0 0 20 20" fill="none" xmlns="http://www.w3.org/2000/svg">
<path d="M14.2333 2.28571C15.3828 2.28571 16.4885 2.74 17.3019 3.55514C18.1162 4.36857 18.5713 5.46571 18.5713 6.61428V13.3857C18.5713 15.7771 16.6256 17.7143 14.2333 17.7143H5.76561C3.37332 17.7143 1.42847 15.7771 1.42847 13.3857V6.61428C1.42847 4.22286 3.36475 2.28571 5.76561 2.28571H14.2333ZM15.2028 6.74286C15.0228 6.73343 14.8513 6.79428 14.7219 6.91428L10.857 10C10.3599 10.4123 9.64761 10.4123 9.14275 10L5.28561 6.91428C5.01904 6.71714 4.65047 6.74286 4.42847 6.97428C4.19704 7.20571 4.17132 7.57428 4.36761 7.83143L4.4799 7.94286L8.37989 10.9857C8.85989 11.3629 9.4419 11.5686 10.0513 11.5686C10.659 11.5686 11.2513 11.3629 11.7305 10.9857L15.597 7.89143L15.6656 7.82286C15.8705 7.57428 15.8705 7.21428 15.6562 6.96571C15.537 6.838 15.3733 6.76 15.2028 6.74286Z" fill="#14B9FF"/>
</svg>
