<svg width="20" height="20" viewBox="0 0 20 20" fill="none" xmlns="http://www.w3.org/2000/svg">
<g id="Send-fill">
<path id="Vector" d="M17.7627 10.1869C17.7636 9.59142 17.4348 9.04787 16.9077 8.76664L4.62492 2.20049C4.07466 1.89778 3.43064 1.94314 2.91952 2.30082C2.39902 2.66454 2.14028 3.51913 2.29399 4.13245L3.48825 8.8933C3.61084 9.38149 4.05292 9.72115 4.55694 9.71321L11.3492 9.61418C11.697 9.60322 11.9823 9.88207 11.9793 10.23C11.9822 10.5719 11.7074 10.8531 11.3597 10.864L4.56088 10.9578C4.05685 10.9646 3.62055 11.3159 3.50617 11.8075L2.38141 16.614C2.24467 17.182 2.41447 17.7456 2.81869 18.1406C2.86625 18.1871 2.91974 18.2394 2.97315 18.2799C3.49527 18.6732 4.17364 18.7164 4.74879 18.4014L16.9198 11.6202C17.4422 11.3355 17.7618 10.7825 17.7627 10.1869Z" fill="white"/>
</g>
</svg>
