<svg width="27" height="28" viewBox="0 0 27 28" fill="none" xmlns="http://www.w3.org/2000/svg">
<path d="M26.6475 16.2362L21.8488 12.9202C21.7738 12.8682 21.5204 12.781 21.41 12.781H16.6641L13.5 14.4389L10.3359 12.7808H5.58997C5.47957 12.7808 5.22515 12.8684 5.15113 12.92L0.352431 16.2362C-0.0113752 16.4903 -0.109401 17.0044 0.133137 17.3857C0.371631 17.7611 0.85999 17.8725 1.23011 17.6156L4.79895 15.1589V26.8737C4.79895 27.3378 5.14684 27.7026 5.58997 27.7026H21.4102C21.8534 27.7026 22.2012 27.3378 22.2012 26.8737V15.1589L25.7701 17.6156C26.1402 17.8728 26.6286 17.7611 26.8671 17.3857C27.1093 17.0044 27.0113 16.4903 26.6475 16.2362Z" fill="url(#paint0_linear_823_383)"/>
<path d="M16.3849 19.3133C16.6502 19.164 16.816 18.8823 16.816 18.5837V12.781H10.1841V18.584C10.1841 18.8823 10.3498 19.1643 10.6151 19.3136C10.8968 19.4627 11.2121 19.4462 11.4774 19.2805L13.5 17.9205L15.5227 19.28C15.8041 19.4364 16.0835 19.4639 16.3849 19.3133Z" fill="url(#paint1_linear_823_383)"/>
<path d="M18.474 22.7288H15.158C14.6997 22.7288 14.3291 23.0996 14.3291 23.5577C14.3291 24.016 14.7 24.3866 15.158 24.3866H18.474C18.9323 24.3866 19.3029 24.0157 19.3029 23.5577C19.3029 23.0994 18.932 22.7288 18.474 22.7288Z" fill="url(#paint2_linear_823_383)"/>
<path d="M13.8974 7.88859L15.8018 6.89974L17.7062 7.88859C18.1623 8.1243 18.6893 7.73751 18.6054 7.23525L18.2535 5.11785L19.783 3.61134C20.1473 3.25234 19.9439 2.63083 19.4396 2.55454L17.3174 2.23545L16.3576 0.315867C16.1464 -0.105289 15.4572 -0.105289 15.246 0.315867L14.2862 2.23545L12.164 2.55454C11.659 2.63109 11.4566 3.25284 11.8207 3.61134L13.3502 5.11785L12.9982 7.23525C12.9146 7.73574 13.4378 8.12304 13.8974 7.88859Z" fill="url(#paint3_linear_823_383)"/>
<path d="M8.13307 11.0757L9.23182 10.5052L10.3306 11.0757C10.5936 11.2116 10.8977 10.9885 10.8492 10.6987L10.6461 9.47719L11.5286 8.60809C11.7388 8.40093 11.6216 8.04243 11.3305 7.99821L10.1062 7.81404L9.55242 6.70645C9.43065 6.46341 9.03299 6.46341 8.91121 6.70645L8.35742 7.81404L7.13311 7.99821C6.84181 8.04243 6.72509 8.40118 6.93504 8.60809L7.81752 9.47719L7.6144 10.6987C7.56614 10.9875 7.8678 11.2111 8.13307 11.0757Z" fill="url(#paint4_linear_823_383)"/>
<path d="M13.9669 11.4279L14.5963 11.101L15.2256 11.4279C15.3764 11.5057 15.5505 11.3779 15.5227 11.2119L15.4065 10.5121L15.912 10.0141C16.0326 9.89536 15.9654 9.68996 15.7986 9.6647L15.0973 9.55935L14.78 8.92496C14.7102 8.78576 14.4823 8.78576 14.4126 8.92496L14.0953 9.55935L13.394 9.6647C13.227 9.68996 13.1603 9.89562 13.2805 10.0141L13.7861 10.5121L13.6698 11.2119C13.6421 11.3774 13.8149 11.5055 13.9669 11.4279Z" fill="url(#paint5_linear_823_383)"/>
<path d="M18.1411 12.2543C18.1347 12.2543 18.1279 12.254 18.1216 12.2535C17.9824 12.2429 17.8783 12.1214 17.8889 11.9822C18.0213 10.2549 19.0268 8.75771 20.5131 8.07507C22.0305 7.37828 23.4655 7.78327 24.0117 7.98968C24.1423 8.03895 24.208 8.18472 24.1588 8.31534C24.1095 8.44595 23.9637 8.51164 23.8331 8.46238C23.346 8.27845 22.0689 7.91692 20.7238 8.53413C19.4045 9.14022 18.5112 10.4764 18.3927 12.0209C18.3826 12.1535 18.2719 12.2543 18.1411 12.2543Z" fill="url(#paint6_linear_823_383)"/>
<path d="M10.7548 6.69181C10.6239 6.69181 10.5132 6.591 10.5031 6.45862C10.4364 5.58928 9.93495 4.83792 9.1947 4.49786C8.44132 4.15224 7.72306 4.35511 7.44944 4.45845C7.31908 4.50771 7.17305 4.44202 7.12379 4.31141C7.07452 4.18079 7.14021 4.03502 7.27083 3.98575C7.60406 3.86019 8.47871 3.6131 9.40566 4.03855C10.3126 4.45516 10.9263 5.36746 11.0069 6.41971C11.0175 6.55892 10.9134 6.68019 10.7745 6.69105C10.7679 6.69156 10.7613 6.69181 10.7548 6.69181Z" fill="url(#paint7_linear_823_383)"/>
<defs>
<linearGradient id="paint0_linear_823_383" x1="13.5" y1="27.7027" x2="13.5" y2="12.7809" gradientUnits="userSpaceOnUse">
<stop stop-color="#FE0002"/>
<stop offset="1" stop-color="#FF6457"/>
</linearGradient>
<linearGradient id="paint1_linear_823_383" x1="13.5001" y1="19.4156" x2="13.5001" y2="12.7809" gradientUnits="userSpaceOnUse">
<stop stop-color="#FFBFD8"/>
<stop offset="1" stop-color="#FFE5E2"/>
</linearGradient>
<linearGradient id="paint2_linear_823_383" x1="16.8159" y1="24.3867" x2="16.8159" y2="22.7287" gradientUnits="userSpaceOnUse">
<stop stop-color="#FFBFD8"/>
<stop offset="1" stop-color="#FFE5E2"/>
</linearGradient>
<linearGradient id="paint3_linear_823_383" x1="15.802" y1="7.95945" x2="15.802" y2="-0.000240064" gradientUnits="userSpaceOnUse">
<stop stop-color="#FFBFD8"/>
<stop offset="1" stop-color="#FFE5E2"/>
</linearGradient>
<linearGradient id="paint4_linear_823_383" x1="9.23176" y1="11.1166" x2="9.23176" y2="6.52452" gradientUnits="userSpaceOnUse">
<stop stop-color="#FFBFD8"/>
<stop offset="1" stop-color="#FFE5E2"/>
</linearGradient>
<linearGradient id="paint5_linear_823_383" x1="14.5963" y1="11.4514" x2="14.5963" y2="8.82062" gradientUnits="userSpaceOnUse">
<stop stop-color="#FFBFD8"/>
<stop offset="1" stop-color="#FFE5E2"/>
</linearGradient>
<linearGradient id="paint6_linear_823_383" x1="17.8882" y1="9.96906" x2="24.175" y2="9.96906" gradientUnits="userSpaceOnUse">
<stop stop-color="#FFBFD8"/>
<stop offset="1" stop-color="#FFE5E2"/>
</linearGradient>
<linearGradient id="paint7_linear_823_383" x1="7.10744" y1="5.24568" x2="11.0077" y2="5.24568" gradientUnits="userSpaceOnUse">
<stop stop-color="#FFBFD8"/>
<stop offset="1" stop-color="#FFE5E2"/>
</linearGradient>
</defs>
</svg>
