        <svg
          width="50%"
          height="100%"
          viewBox="0 0 847 719"
          fill="none"
          xmlns="http://www.w3.org/2000/svg"
        >
          <path
            d="M378.064 600.001C345.717 599.786 318.704 626.521 319.002 659.887C319.259 691.616 344.138 718.954 378.235 718.997C409.985 719.299 436.741 692.65 436.997 660.49C437.296 626.823 411.393 600.26 378.064 600.001Z"
            fill="white"
          />
          <path
            d="M621.064 600.001C588.717 599.786 561.704 626.521 562.002 659.887C562.259 691.616 587.138 718.954 621.235 718.997C652.985 719.299 679.742 692.65 679.998 660.49C680.254 626.823 654.393 600.26 621.064 600.001Z"
            fill="white"
          />
          <path
            d="M845.297 230.617C844.011 222.848 841.483 214.779 837.368 205.336C826.654 181.3 808.997 163.144 783.369 149.796C767.598 141.555 750.284 137.563 730.442 137.563H609.716L458.519 137.906H455.905L464.09 164.861C470.39 186.493 477.076 208.04 483.547 228.857L487.576 241.776H741.885L666.801 450.546C663.329 454.881 658.272 457.413 652.615 457.757H408.292C400.663 457.757 393.42 456.555 386.821 455.353C377.135 452.778 370.235 446.211 364.364 434.021C357.421 420.158 352.75 404.963 348.893 391.744C346.75 385.005 344.607 378.266 342.55 371.914C341.307 367.708 340.064 363.501 338.864 359.295C335.65 348.264 332.35 336.933 328.708 325.731C324.979 314.485 321.508 303.025 318.122 291.908L317.736 290.664C314.822 281.221 311.994 271.864 309.122 262.507C304.708 247.957 300.294 233.492 295.794 219.071C292.023 206.795 288.294 194.52 284.566 182.287C274.151 148.036 263.394 112.626 251.866 78.2457C251.48 77.1298 251.095 76.2284 250.323 75.37C237.166 37.6421 210.896 13.6061 172.411 3.99169C171.854 3.82 171.211 3.6054 170.568 3.43371C169.968 3.26203 169.411 3.09034 168.725 2.87573C158.611 0.34337 147.554 0 137.097 0H81.5983L2.99992 99.406L0 103.054H1.28572H4.92846L5.01421 103.097H131.74C133.069 103.097 134.397 103.226 135.683 103.312C137.826 103.483 140.011 103.655 142.454 103.441C148.754 103.097 152.954 106.402 155.011 113.055C160.197 130.352 165.554 148.251 171.339 166.32C172.025 168.466 172.754 170.613 173.439 172.673C175.239 178.811 177.211 184.82 179.182 190.829C181.111 196.666 183.039 202.546 184.796 208.469C189.082 223.578 193.839 238.943 198.467 253.751C201.51 263.494 204.51 273.238 207.467 282.938C214.838 307.661 222.938 333.113 229.41 353.544C232.152 362.514 235.024 371.785 237.552 381.185C243.466 400.714 249.595 420.93 256.323 440.803C263.994 465.354 275.994 496.686 300.679 520.98C319.408 540.08 342.336 552.098 370.707 557.678C379.064 559.523 387.292 560.553 395.778 560.897L441.205 562.657C460.362 563 471.719 563 502.147 563H518.432C569.131 563 597.031 563 638.815 562.657L673.486 562.313C691.143 562.313 708.842 555.231 729.199 539.951C734.256 536.045 738.542 532.011 741.842 527.976C753.07 515.228 760.87 498.704 767.341 484.11L835.74 300.278L836.468 297.617C837.497 293.84 838.397 290.621 839.511 288.131L839.554 288.003C846.882 268.559 848.811 249.245 845.297 230.617Z"
            fill="white"
          />
        </svg>