<svg width="20" height="20" viewBox="0 0 20 20" fill="none" xmlns="http://www.w3.org/2000/svg">
<path d="M7.69112 12.5196C11.0693 12.5196 13.9538 13.0552 13.9538 15.1983C13.9538 17.3406 11.0878 17.8956 7.69112 17.8956C4.31295 17.8956 1.42847 17.3601 1.42847 15.2178C1.42847 13.0747 4.29444 12.5196 7.69112 12.5196ZM13.0924 11.2291C14.3839 11.2052 15.7723 11.3825 16.2854 11.5084C17.3724 11.7221 18.0873 12.1584 18.3835 12.7924C18.6339 13.3129 18.6339 13.9167 18.3835 14.4363C17.9304 15.4196 16.4697 15.7353 15.9019 15.8169C15.7847 15.8346 15.6904 15.7326 15.7027 15.6147C15.9927 12.8899 13.6857 11.598 13.0889 11.301C13.0633 11.2877 13.058 11.2673 13.0606 11.2548C13.0624 11.246 13.073 11.2318 13.0924 11.2291ZM7.69112 2.14286C9.99112 2.14286 11.8354 3.99604 11.8354 6.31031C11.8354 8.62368 9.99112 10.4786 7.69112 10.4786C5.39111 10.4786 3.54687 8.62368 3.54687 6.31031C3.54687 3.99604 5.39111 2.14286 7.69112 2.14286ZM13.3172 2.83785C15.5387 2.83785 17.2834 4.94019 16.6892 7.28194C16.2881 8.85848 14.8361 9.90566 13.2184 9.8631C13.0562 9.85866 12.8967 9.84359 12.7424 9.81699C12.6304 9.79748 12.574 9.67068 12.6375 9.57669C13.2546 8.6634 13.6063 7.56479 13.6063 6.3855C13.6063 5.15477 13.222 4.00739 12.5546 3.06661C12.5335 3.03735 12.5176 2.99213 12.5388 2.95844C12.5564 2.93095 12.589 2.91676 12.6199 2.90967C12.8447 2.86356 13.0756 2.83785 13.3172 2.83785Z" fill="#AE00B9"/>
</svg>
