<svg width="18" height="18" viewBox="0 0 18 18" fill="none" xmlns="http://www.w3.org/2000/svg">
<path d="M9.26299 15.0608C8.06406 15.0608 6.86449 15.0678 5.66556 15.0588C3.58527 15.0434 1.81742 13.5951 1.3822 11.5617C0.93349 9.46663 2.08485 7.33106 4.08413 6.55641C4.19278 6.51463 4.25578 6.4632 4.29499 6.34234C4.98863 4.20999 7.02842 2.81949 9.26685 2.94484C11.4911 3.06956 13.3843 4.68184 13.8453 6.84634C13.88 7.00834 13.9083 7.17356 13.9205 7.33813C13.9288 7.45577 13.9648 7.5117 14.0838 7.55477C15.4981 8.06713 16.3685 9.06034 16.6501 10.5402C17.0268 12.5183 15.7096 14.5086 13.7469 14.956C13.4326 15.0273 13.115 15.0621 12.7923 15.0614C11.6158 15.0595 10.4394 15.0608 9.26299 15.0608ZM12.2619 9.55149C12.0954 8.84948 11.9032 8.43806 11.5393 7.9932C10.6265 6.87849 9.04506 6.48827 7.72399 7.05077C7.32349 7.22113 7.21356 7.69299 7.51442 7.97263C7.70792 8.15263 7.92842 8.15841 8.16949 8.06327C9.27778 7.62613 10.4896 8.1057 10.9884 9.17799C11.0418 9.29306 11.1061 9.40941 11.1028 9.55149C10.9563 9.55149 10.8187 9.55149 10.6811 9.55149C10.433 9.55084 10.2472 9.6582 10.1476 9.88577C10.0473 10.1146 10.0993 10.3255 10.2736 10.501C10.6329 10.8642 10.9929 11.2261 11.3568 11.5836C11.5908 11.8137 11.9083 11.8182 12.1411 11.5913C12.5107 11.2306 12.8739 10.8642 13.2371 10.4965C13.4056 10.3255 13.4563 10.1185 13.3638 9.89541C13.2686 9.6672 13.0854 9.55341 12.8366 9.55149C12.6476 9.5502 12.4593 9.55149 12.2619 9.55149ZM6.87285 10.6527C7.04642 10.6527 7.18977 10.6546 7.33249 10.6521C7.57356 10.6482 7.75356 10.5396 7.84935 10.3184C7.94899 10.0896 7.8982 9.8787 7.72399 9.7032C7.36528 9.33998 7.00527 8.97806 6.64078 8.62063C6.40163 8.38598 6.08406 8.38727 5.84363 8.6232C5.48363 8.97677 5.12877 9.33613 4.77199 9.69291C4.59777 9.86777 4.54249 10.0728 4.6312 10.3068C4.71285 10.5235 4.91599 10.6495 5.1757 10.6521C5.36342 10.654 5.55113 10.6527 5.74206 10.6527C5.84878 11.2435 6.08663 11.7565 6.45627 12.2084C7.36849 13.3231 8.95056 13.7159 10.2703 13.1541C10.5847 13.0203 10.7261 12.7233 10.6143 12.4315C10.5011 12.1351 10.1829 12.004 9.86149 12.1326C9.28613 12.3627 8.70885 12.3743 8.14056 12.1274C7.49385 11.8458 7.07985 11.3534 6.87285 10.6527Z" fill="#AE00B9"/>
</svg>
