<svg width="30" height="30" viewBox="0 0 30 30" fill="none" xmlns="http://www.w3.org/2000/svg">
<path fill-rule="evenodd" clip-rule="evenodd" d="M14.9038 2.14002H15.0861C17.75 2.13999 19.8739 2.13997 21.5391 2.36384C23.2585 2.59501 24.671 3.08486 25.7881 4.20188C26.9051 5.31891 27.3949 6.73149 27.6261 8.45085C27.8499 10.1161 27.8499 12.2399 27.8499 14.9039V15.0861C27.8499 17.7501 27.8499 19.874 27.6261 21.5392C27.3949 23.2586 26.9051 24.6712 25.7881 25.7882C24.671 26.9052 23.2585 27.3951 21.5391 27.6262C19.8738 27.85 17.75 27.85 15.086 27.85H14.9038C12.2397 27.85 10.1159 27.85 8.45073 27.6262C6.73137 27.3951 5.31879 26.9052 4.20176 25.7882C3.08474 24.6712 2.59489 23.2586 2.36372 21.5392C2.13984 19.874 2.13987 17.7501 2.13989 15.0862V14.9039C2.13987 12.24 2.13984 10.116 2.36372 8.45085C2.59489 6.73149 3.08474 5.31891 4.20176 4.20188C5.31879 3.08486 6.73137 2.59501 8.45073 2.36384C10.1159 2.13997 12.2399 2.13999 14.9038 2.14002ZM18.0556 9.48573C18.0556 8.13342 19.1518 7.03716 20.5042 7.03716C21.8565 7.03716 22.9527 8.13342 22.9527 9.48573C22.9527 10.838 21.8565 11.9343 20.5042 11.9343C19.1518 11.9343 18.0556 10.838 18.0556 9.48573ZM22.8104 20.8105C23.6081 20.8096 24.4121 20.9263 25.2064 21.1614L25.1996 21.2129C25.0049 22.6608 24.6431 23.4705 24.0569 24.0568C23.4706 24.643 22.6609 25.0048 21.213 25.1994C20.8903 25.2429 20.5451 25.2769 20.1739 25.3036C19.6722 24.1647 19.0009 23.0937 18.1812 22.1173C19.7004 21.2362 21.2614 20.8044 22.8104 20.8105ZM4.60999 18.3744C4.63376 19.4913 4.68412 20.4201 4.79072 21.2129C4.98537 22.6608 5.34715 23.4705 5.93342 24.0568C6.51966 24.643 7.32941 25.0048 8.77725 25.1994C10.2603 25.3989 12.2192 25.4014 14.9951 25.4014C16.2 25.4014 17.2509 25.401 18.1757 25.3841C17.3077 23.7226 15.9961 22.234 14.3165 21.0523C11.7684 19.2594 8.55116 18.2999 5.23895 18.3649L5.21881 18.3651C5.01574 18.3646 4.81275 18.3677 4.60999 18.3744Z" fill="#AE00B9"/>
</svg>
