<svg width="20" height="20" viewBox="0 0 20 20" fill="none" xmlns="http://www.w3.org/2000/svg">
<path d="M10.6001 5.48572C10.4144 5.17858 10.1215 5.14287 10.0001 5.14287C9.87869 5.14287 9.58583 5.17858 9.40012 5.48572L5.97155 11.2143C5.78583 11.5214 5.88583 11.7857 5.95726 11.9214C6.02155 12.0286 6.20012 12.2714 6.57155 12.2714H13.4287C13.8001 12.2714 13.9787 12.0286 14.043 11.9214C14.1001 11.8143 14.2215 11.5286 14.0287 11.2143L10.6001 5.48572ZM9.68583 6.98572C9.78583 6.87858 9.9144 6.82144 10.0644 6.82144C10.2215 6.82144 10.343 6.87858 10.443 6.98572C10.543 7.09286 10.5858 7.22858 10.5715 7.38572L10.4001 9.62858C10.3787 9.84286 10.2644 9.96429 10.0715 9.96429C9.87869 9.96429 9.75726 9.84286 9.73583 9.62858L9.5644 7.38572C9.55012 7.22858 9.59298 7.09286 9.68583 6.98572ZM10.5858 10.8714C10.5858 11.0214 10.543 11.1357 10.4573 11.2214C10.3715 11.3072 10.2573 11.35 10.1073 11.35H10.0287C9.87869 11.35 9.7644 11.3072 9.67869 11.2286C9.59298 11.1357 9.55726 11.0214 9.55726 10.8714V10.7714C9.55726 10.6214 9.59298 10.5072 9.67869 10.4214C9.7644 10.3357 9.87869 10.2929 10.0287 10.2929H10.1073C10.2573 10.2929 10.3715 10.3357 10.4573 10.4286C10.5358 10.5 10.5858 10.6214 10.5858 10.7714V10.8714ZM15.9501 1.46429H3.87155C2.98583 1.46429 2.2644 2.18572 2.2644 3.07144V17C2.2644 17.8857 2.98583 18.6072 3.87155 18.6072H15.9501C16.8358 18.6072 17.5573 17.8857 17.5573 17V3.07144C17.5573 2.18572 16.8358 1.46429 15.9501 1.46429ZM4.95726 15.4929C4.95726 15.3214 5.02869 15.1643 5.14298 15.0429C5.25726 14.9357 5.4144 14.8643 5.59298 14.8643C5.7644 14.8643 5.92869 14.9357 6.04298 15.0429C6.15726 15.1643 6.22869 15.3214 6.22869 15.4929C6.22869 15.6714 6.15726 15.8286 6.04298 15.9429C5.92869 16.0572 5.7644 16.1286 5.59298 16.1286C5.24298 16.1286 4.95726 15.8429 4.95726 15.4929ZM7.15726 15.4929C7.15726 15.2 7.40012 14.9572 7.69298 14.9572H10.8644C11.1644 14.9572 11.4001 15.2 11.4001 15.4929C11.4001 15.7929 11.1644 16.0286 10.8644 16.0286H7.69298C7.40012 16.0286 7.15726 15.7929 7.15726 15.4929ZM12.1001 15.4929C12.1001 15.2 12.343 14.9572 12.6358 14.9572H14.4715C14.7644 14.9572 15.0073 15.2 15.0073 15.4929C15.0073 15.7929 14.7644 16.0286 14.4715 16.0286H12.6358C12.343 16.0286 12.1001 15.7929 12.1001 15.4929ZM14.8358 12.3714C14.543 12.8857 14.0215 13.1857 13.4287 13.1857H6.57155C5.97869 13.1857 5.45726 12.8857 5.1644 12.3714C4.87155 11.8572 4.87869 11.25 5.18583 10.7429L8.6144 5.01429C8.90726 4.52144 9.42869 4.22858 10.0001 4.22858C10.5715 4.22858 11.093 4.52144 11.3858 5.01429L14.8144 10.7429C15.1215 11.25 15.1287 11.8572 14.8358 12.3714Z" fill="#F24A17"/>
</svg>
