<svg width="20" height="20" viewBox="0 0 20 20" fill="none" xmlns="http://www.w3.org/2000/svg">
<path d="M12.2856 9.98641C12.2842 11.265 11.2649 12.2893 9.99775 12.2857C8.71918 12.2821 7.71275 11.2614 7.71418 9.96999C7.71561 8.73641 8.7499 7.71356 9.99632 7.71356C11.2563 7.71284 12.287 8.7357 12.2856 9.98641ZM14.5792 6.27427C15.0506 6.27713 15.4399 5.89284 15.4449 5.4207C15.4499 4.9507 15.0642 4.55999 14.592 4.55641C14.1192 4.55284 13.7299 4.93641 13.7278 5.40856C13.7249 5.88213 14.1085 6.27141 14.5792 6.27427ZM14.5892 15.4286C15.0606 15.4286 15.447 15.04 15.4456 14.5678C15.4442 14.095 15.0585 13.7136 14.5828 13.715C14.1078 13.7164 13.7263 14.1 13.7278 14.5743C13.7292 15.0478 14.1128 15.4286 14.5892 15.4286ZM18.5713 10.0128C18.5713 12.3743 18.5713 14.7357 18.5713 17.0971C18.5713 17.9543 17.9542 18.5721 17.0992 18.5721C12.3556 18.5721 7.61204 18.5721 2.86847 18.5721C2.06347 18.5714 1.42847 17.9407 1.42847 17.14C1.42847 12.3843 1.42847 7.62784 1.42847 2.87213C1.42847 2.21499 1.83418 1.66641 2.46204 1.48499C2.58061 1.4507 2.70775 1.4307 2.83061 1.4307C7.60847 1.42856 12.3849 1.42784 17.162 1.42927C17.932 1.42927 18.5706 2.0707 18.5706 2.84141C18.572 5.23213 18.5713 7.62213 18.5713 10.0128ZM8.02561 4.27641C8.02561 4.61641 8.30132 4.89213 8.64132 4.89213C8.98132 4.89213 9.25704 4.61641 9.25704 4.27641C9.25704 3.93641 8.98132 3.6607 8.64132 3.6607C8.30132 3.6607 8.02561 3.93641 8.02561 4.27641ZM5.72561 4.27641C5.72561 4.61641 6.00132 4.89213 6.34132 4.89213C6.68132 4.89213 6.95704 4.61641 6.95704 4.27641C6.95704 3.93641 6.68132 3.6607 6.34132 3.6607C6.00132 3.6607 5.72561 3.93641 5.72561 4.27641ZM3.42561 4.27641C3.42561 4.61641 3.70132 4.89213 4.04132 4.89213C4.38132 4.89213 4.65704 4.61641 4.65704 4.27641C4.65704 3.93641 4.38061 3.6607 4.04061 3.6607C3.70061 3.6607 3.42561 3.93641 3.42561 4.27641ZM12.8006 8.01213C12.8249 7.9857 12.852 7.95499 12.8806 7.92641C13.0985 7.70856 13.3206 7.49499 13.532 7.2707C13.6106 7.18713 13.6678 7.17713 13.7742 7.22641C14.9842 7.78856 16.4078 6.99284 16.5678 5.66927C16.6706 4.81784 16.2335 4.00213 15.4728 3.62499C14.717 3.2507 13.8056 3.39141 13.2028 3.97499C12.577 4.58213 12.4149 5.4607 12.7878 6.25927C12.8242 6.33641 12.8192 6.38213 12.757 6.44141C12.527 6.66427 12.2999 6.8907 12.077 7.12141C12.0106 7.18999 11.967 7.20141 11.882 7.1457C11.1878 6.68927 10.427 6.50784 9.59918 6.59784C7.29847 6.84784 5.89347 9.37356 6.90204 11.4528C6.99061 11.635 7.09704 11.8093 7.20204 12C6.9549 12.245 6.70204 12.4914 6.4549 12.7443C6.39561 12.805 6.35061 12.8136 6.27347 12.7757C5.85847 12.5721 5.42418 12.5228 4.97275 12.6278C4.05704 12.8414 3.41347 13.6714 3.43061 14.6178C3.44775 15.5443 4.12347 16.3593 5.03704 16.5286C5.83204 16.6757 6.50347 16.4314 6.99918 15.7957C7.49275 15.1636 7.56204 14.4607 7.22561 13.7278C7.1899 13.65 7.19418 13.605 7.25704 13.5464C7.42632 13.3864 7.5899 13.22 7.75204 13.0521C7.83775 12.9628 7.9149 12.8657 7.99561 12.7721C8.03418 12.8064 8.04204 12.8086 8.04918 12.8128C9.33132 13.635 10.6199 13.645 11.912 12.8386C11.977 12.7978 12.0106 12.8093 12.0585 12.8578C12.287 13.0886 12.517 13.3186 12.7506 13.5443C12.8128 13.6043 12.8292 13.6493 12.787 13.735C12.6085 14.0957 12.547 14.4786 12.6135 14.8771C12.7835 15.9028 13.6656 16.62 14.6892 16.57C15.7078 16.52 16.5135 15.7128 16.5806 14.6743C16.6706 13.2864 15.2549 12.2043 13.9578 12.6957C13.687 12.7978 13.5399 12.7686 13.3649 12.5621C13.1913 12.3578 12.9835 12.1821 12.797 11.9993C13.6406 10.6571 13.6378 9.33856 12.8006 8.01213ZM5.43275 13.715C4.96061 13.71 4.57347 14.0928 4.57061 14.5671C4.56847 15.0407 4.94918 15.4257 5.42347 15.4293C5.89204 15.4328 6.27847 15.055 6.28418 14.5886C6.29061 14.1028 5.91704 13.72 5.43275 13.715Z" fill="#AE00B9"/>
</svg>
