<svg width="20" height="20" viewBox="0 0 20 20" fill="none" xmlns="http://www.w3.org/2000/svg">
<path d="M3.02715 6.78285C2.94357 6.23857 2.86715 5.72 2.785 5.20285C2.695 4.63857 3.05143 4.21 3.62357 4.20571C4.01358 4.20285 4.40357 4.205 4.80286 4.205C4.72143 3.67642 4.64286 3.16428 4.56215 2.65285C4.47857 2.11928 4.80786 1.70285 5.34643 1.665C5.38 1.66285 5.41357 1.66357 5.44715 1.66357C8.48929 1.66357 11.5321 1.66357 14.5743 1.66357C15.0171 1.66357 15.3271 1.85071 15.4286 2.22C15.4736 2.385 15.465 2.57428 15.4414 2.74714C15.375 3.22714 15.2879 3.70428 15.2057 4.205C15.4336 4.205 15.6493 4.205 15.8643 4.205C16.065 4.205 16.2664 4.2 16.4671 4.20714C16.95 4.22499 17.2993 4.60428 17.245 5.08285C17.1871 5.59785 17.0964 6.10928 17.02 6.62214C17.0129 6.66999 17.0086 6.71857 17.0014 6.78285C17.2429 6.78285 17.4707 6.78214 17.6986 6.78285C18.2957 6.78642 18.6264 7.17642 18.5643 7.77142C18.45 8.87571 18.3493 9.98142 18.2429 11.0864C18.135 12.2079 18.0264 13.33 17.9193 14.4514C17.8357 15.3236 17.7443 16.195 17.675 17.0679C17.6336 17.5857 17.4493 18.0036 16.9521 18.2164C16.7779 18.2907 16.575 18.3307 16.385 18.3307C12.1314 18.3371 7.87786 18.3364 3.62357 18.3343C2.89572 18.3343 2.40715 17.8707 2.33643 17.13C2.14215 15.0914 1.95 13.0536 1.755 11.015C1.65 9.91571 1.54143 8.81571 1.43429 7.71642C1.38143 7.17214 1.72572 6.78857 2.27572 6.78214C2.52 6.78071 2.765 6.78285 3.02715 6.78285ZM2.66715 7.99357C2.96 11.0436 3.25143 14.0836 3.54286 17.125C7.85715 17.125 12.1529 17.125 16.4593 17.125C16.7514 14.0771 17.0429 11.0379 17.3343 7.99357C12.4357 7.99357 7.55929 7.99357 2.66715 7.99357ZM4.03072 5.41499C4.10143 5.87428 4.17072 6.32285 4.24 6.77071C8.095 6.77071 11.9371 6.77071 15.7836 6.77071C15.8536 6.31428 15.9221 5.86999 15.9921 5.41499C12.0029 5.41499 8.02643 5.41499 4.03072 5.41499ZM14.2079 2.875C11.395 2.875 8.60786 2.875 5.81 2.875C5.88072 3.32428 5.95 3.76142 6.01857 4.19571C8.68643 4.19571 11.3343 4.19571 13.99 4.19571C14.0629 3.75428 14.135 3.32 14.2079 2.875ZM9.31215 13.0279C8.96215 12.6786 8.61429 12.3286 8.26286 11.9807C8.02643 11.7464 7.7 11.7364 7.48072 11.9514C7.26143 12.1664 7.26429 12.5007 7.49572 12.7336C8.2 13.4429 8.905 14.1507 9.61286 14.8564C9.83643 15.08 10.1571 15.0843 10.3807 14.8621C11.0929 14.1536 11.8029 13.4414 12.51 12.7279C12.7343 12.5014 12.735 12.17 12.5243 11.9579C12.3079 11.7393 11.9764 11.7443 11.7421 11.975C11.3864 12.3264 11.035 12.6814 10.6814 13.0343C10.6436 13.0721 10.6029 13.1064 10.5386 13.1657C10.5386 13.0229 10.5386 12.9129 10.5386 12.8029C10.5386 11.9436 10.5393 11.085 10.5386 10.2257C10.5379 9.87 10.3143 9.62499 9.99643 9.62714C9.67786 9.62928 9.46215 9.87285 9.46143 10.2329C9.46072 10.5307 9.46143 10.8279 9.46143 11.1257C9.46143 11.7936 9.46143 12.4607 9.46143 13.1686C9.39215 13.1029 9.35143 13.0664 9.31215 13.0279Z" fill="#5A577A"/>
</svg>
