<svg width="30" height="30" viewBox="0 0 30 30" fill="none" xmlns="http://www.w3.org/2000/svg">
<g clip-path="url(#clip0_26910_17293)">
<path d="M23.07 8.33C23.01 7.99 22.93 7.66 22.84 7.33C21.84 3.86 19.04 1.16 15.52 0.3C15.19 0.21 14.86 0.15 14.52 0.1C14.05 0.03 13.57 0 13.08 0H3.88C1.73 0 0 1.74 0 3.88V26.12C0 28.26 1.73 30 3.88 30H19.37C21.28 30 22.87 28.61 23.18 26.79C23.22 26.57 23.24 26.35 23.24 26.12V21.27C23.18 21.29 23.12 21.29 23.06 21.29H23.02C22.89 21.29 22.77 21.27 22.65 21.24C22.57 21.22 22.5 21.2 22.42 21.17C22.41 21.17 22.4 21.16 22.38 21.15C22.33 21.14 22.29 21.12 22.24 21.09V26.12C22.24 26.33 22.22 26.54 22.17 26.73C21.9 28.03 20.74 29 19.37 29H3.88C2.29 29 1 27.71 1 26.12V3.88C1 2.29 2.29 1 3.88 1H13.08C13.55 1 13.97 1.03 14.37 1.09C14.43 1.1 14.47 1.11 14.52 1.11V5.28C14.52 6.96 15.88 8.33 17.57 8.33H22.05C22.06 8.39 22.08 8.45 22.09 8.51C22.19 9.06 22.24 9.61 22.24 10.16V17.71C22.3 17.68 22.35 17.66 22.41 17.63C22.51 17.6 22.6 17.57 22.71 17.55C22.83 17.52 22.96 17.51 23.09 17.51H23.12C23.16 17.51 23.2 17.51 23.24 17.52V10.16C23.24 9.54 23.18 8.92 23.07 8.33ZM17.78 7.33C16.53 7.33 15.52 6.32 15.52 5.07V1.35C18.48 2.16 20.84 4.42 21.78 7.33H17.78Z" fill="#B9B7C6"/>
<path d="M29.13 20.08C29.06 20.03 28.98 19.99 28.91 19.94C28.86 19.91 28.8 19.87 28.74 19.84C28.58 19.74 28.5 19.58 28.5 19.39C28.5 19.22 28.58 19.06 28.73 18.96C28.79 18.93 28.86 18.89 28.93 18.85C28.98 18.81 29.06 18.77 29.13 18.72C29.96 18.16 30.25 17.11 29.79 16.23C29.61 15.86 29.4 15.51 29.18 15.17C28.81 14.62 28.22 14.3 27.57 14.3C27.27 14.3 26.98 14.37 26.7 14.5C26.62 14.54 26.54 14.58 26.48 14.62C26.41 14.65 26.35 14.7 26.28 14.72C26.2 14.76 26.12 14.78 26.04 14.78C25.77 14.78 25.55 14.57 25.52 14.29V13.92C25.48 12.85 24.65 12.02 23.58 12H23.24C22.99 12 22.75 12 22.53 12.01C22.43 12.01 22.34 12.02 22.24 12.04C21.32 12.18 20.65 12.95 20.63 13.91V14.11C20.63 14.15 20.63 14.2 20.62 14.24C20.61 14.55 20.39 14.78 20.09 14.78C20.01 14.78 19.92 14.76 19.83 14.71C19.79 14.69 19.75 14.66 19.69 14.64L19.6 14.58C19.26 14.39 18.91 14.3 18.55 14.3C17.87 14.3 17.27 14.66 16.88 15.3C16.72 15.55 16.55 15.85 16.39 16.16C15.87 17.13 16.16 18.2 17.1 18.78C17.14 18.8 17.19 18.84 17.24 18.86L17.26 18.87C17.31 18.9 17.36 18.93 17.39 18.96C17.55 19.06 17.64 19.22 17.64 19.39C17.64 19.58 17.55 19.74 17.4 19.84C17.36 19.87 17.3 19.91 17.23 19.94C17.16 19.97 17.11 20.02 17.05 20.05C16.37 20.5 16.06 21.14 16.16 21.83C16.31 22.8 16.79 23.61 17.54 24.18C18.08 24.58 18.75 24.62 19.43 24.29C19.52 24.26 19.6 24.21 19.67 24.17C19.71 24.16 19.74 24.13 19.79 24.11C19.89 24.05 20 24.02 20.1 24.02C20.4 24.02 20.62 24.26 20.63 24.6C20.66 25.85 21.15 26.53 22.17 26.73C22.39 26.78 22.64 26.8 22.92 26.8L23.12 26.79H23.18L23.42 26.8C23.49 26.8 23.57 26.8 23.65 26.79C24.67 26.76 25.47 25.95 25.52 24.92V24.52C25.54 24.24 25.77 24.02 26.04 24.02C26.12 24.02 26.2 24.03 26.27 24.07C26.34 24.1 26.4 24.13 26.46 24.17L26.48 24.18C26.52 24.2 26.58 24.24 26.62 24.26C26.92 24.42 27.25 24.5 27.57 24.5C28.23 24.5 28.82 24.18 29.19 23.61C29.4 23.27 29.61 22.93 29.79 22.57C30.25 21.7 29.96 20.65 29.13 20.08ZM24.97 19.42C24.96 19.97 24.72 20.45 24.35 20.78C24.29 20.85 24.22 20.9 24.15 20.94C24.07 21.01 23.98 21.06 23.89 21.09C23.83 21.13 23.76 21.15 23.69 21.17C23.63 21.2 23.56 21.22 23.48 21.23C23.45 21.24 23.42 21.25 23.38 21.25C23.34 21.26 23.29 21.27 23.24 21.27C23.18 21.29 23.12 21.29 23.06 21.29H23.02C22.89 21.29 22.77 21.27 22.65 21.24C22.57 21.22 22.5 21.2 22.42 21.17C22.41 21.17 22.4 21.16 22.38 21.15C22.33 21.14 22.29 21.12 22.24 21.09C22.07 21.01 21.92 20.9 21.78 20.77C21.73 20.72 21.68 20.67 21.63 20.61C21.58 20.55 21.52 20.48 21.48 20.41C21.43 20.34 21.39 20.26 21.35 20.18C21.32 20.1 21.28 20.02 21.26 19.94C21.23 19.85 21.21 19.77 21.2 19.68C21.19 19.59 21.18 19.49 21.18 19.39C21.18 19.3 21.19 19.2 21.2 19.11C21.22 19.03 21.23 18.94 21.26 18.86C21.32 18.65 21.42 18.45 21.55 18.28C21.59 18.22 21.64 18.16 21.69 18.11C21.72 18.07 21.75 18.04 21.79 18.01C21.92 17.89 22.07 17.79 22.24 17.71C22.3 17.68 22.35 17.66 22.41 17.63C22.51 17.6 22.6 17.57 22.71 17.55C22.83 17.52 22.96 17.51 23.09 17.51H23.12C23.16 17.51 23.2 17.51 23.24 17.52C23.36 17.53 23.47 17.55 23.59 17.58C23.7 17.61 23.81 17.66 23.91 17.71C24.01 17.76 24.11 17.82 24.2 17.89C24.28 17.95 24.36 18.01 24.42 18.08C24.47 18.13 24.51 18.17 24.54 18.22C24.59 18.27 24.63 18.33 24.67 18.4C24.73 18.49 24.78 18.58 24.82 18.68C24.82 18.69 24.83 18.7 24.83 18.71C24.88 18.81 24.91 18.92 24.93 19.03C24.93 19.04 24.93 19.04 24.93 19.04C24.96 19.16 24.97 19.28 24.97 19.4C24.97 19.41 24.97 19.41 24.97 19.42Z" fill="#130F40"/>
<path d="M10.5601 5.20099H11.1201C11.6721 5.20099 12.1201 4.75299 12.1201 4.20099C12.1201 3.64899 11.6721 3.20099 11.1201 3.20099H10.5601C10.0081 3.20099 9.56006 3.64899 9.56006 4.20099C9.56006 4.75399 10.0081 5.20099 10.5601 5.20099Z" fill="#130F40"/>
<path d="M10.5601 10.601H11.9181C12.4701 10.601 12.9181 10.153 12.9181 9.60099C12.9181 9.04899 12.4701 8.60099 11.9181 8.60099H10.5601C10.0081 8.60099 9.56006 9.04899 9.56006 9.60099C9.56006 10.153 10.0081 10.601 10.5601 10.601Z" fill="#130F40"/>
<path d="M16.1021 14.012H10.5601C10.0101 14.012 9.56006 14.462 9.56006 15.012C9.56006 15.562 10.0101 16.012 10.5601 16.012H14.5891C14.6491 15.859 14.6901 15.752 14.7601 15.632V15.622C14.7601 15.622 14.7701 15.612 14.7801 15.592C14.8301 15.512 14.8771 15.413 14.9171 15.343C14.9671 15.263 15.0281 15.173 15.1081 15.053C15.2981 14.783 15.6141 14.283 16.1021 14.012Z" fill="#130F40"/>
<path d="M9.573 20.399C9.573 20.951 10.021 21.399 10.573 21.399H14.4C14.449 21.039 14.458 20.43 14.917 20.054C14.974 20.02 15.031 19.974 15.099 19.94C15.167 19.906 15.224 19.872 15.27 19.837C15.416 19.736 15.506 19.578 15.508 19.398H10.573C10.02 19.399 9.573 19.847 9.573 20.399Z" fill="#130F40"/>
<path d="M18.65 25.8C18.65 26.35 18.21 26.8 17.65 26.8H5.05005C4.50005 26.8 4.05005 26.35 4.05005 25.8C4.05005 25.25 4.50005 24.8 5.05005 24.8H16.26C16.56 25.36 17.22 25.86 18.63 25.61C18.64 25.67 18.65 25.74 18.65 25.8Z" fill="#130F40"/>
<path d="M7.50397 19.685C6.73797 19.684 5.96297 19.684 5.20397 19.683C5.20597 17.78 5.20697 15.871 5.20897 13.98C5.95497 13.98 6.73597 13.98 7.50397 13.98C7.50397 15.862 7.50397 17.772 7.50397 19.685ZM7.50797 12.057C6.73897 12.057 5.95897 12.057 5.19297 12.057C5.19297 12.415 5.19297 12.789 5.19297 13.145C5.96197 13.145 6.74197 13.145 7.50897 13.145C7.50897 12.787 7.50897 12.414 7.50797 12.057ZM7.39597 20.488C6.69397 20.488 6.00397 20.488 5.30497 20.488C5.55197 21.235 5.99697 21.892 6.35097 22.636C6.70397 21.89 7.15197 21.234 7.39597 20.488ZM7.06997 3.55699C7.06297 3.35699 6.91597 3.21399 6.71397 3.20699C6.47197 3.19699 6.22797 3.19999 5.98597 3.21199C5.80597 3.22099 5.64997 3.35899 5.64597 3.53299C5.63697 3.92999 5.64997 4.32799 5.65297 4.71299C6.11497 4.71299 6.58097 4.71399 7.08497 4.71399C7.08097 4.33399 7.08297 3.94499 7.06997 3.55699ZM4.36897 11.986C4.37597 10.597 4.37497 9.20799 4.37297 7.81899C4.37297 7.56599 4.41597 7.32599 4.55897 7.11299C4.70697 6.89299 4.89697 6.72799 5.18897 6.64099V6.76299C5.18797 8.27499 5.18797 9.76299 5.18697 11.238C5.96297 11.238 6.74097 11.238 7.49997 11.238C7.50097 9.33599 7.50097 7.42299 7.49997 5.52099C7.02597 5.52099 6.55997 5.51499 6.08197 5.51099C5.78997 5.50699 5.49297 5.50499 5.18697 5.50499L5.18797 5.74699C5.18797 5.84099 5.09497 5.85499 5.09497 5.85499C4.26797 6.06299 3.58997 6.85099 3.60297 7.83199C3.62097 9.20699 3.60697 10.582 3.60697 11.957C3.60697 12.012 3.60497 12.068 3.61297 12.122C3.63497 12.277 3.72397 12.383 3.86897 12.433C4.02197 12.486 4.17497 12.459 4.26397 12.326C4.32797 12.231 4.36897 12.101 4.36897 11.986Z" fill="#130F40"/>
</g>
<defs>
<clipPath id="clip0_26910_17293">
<rect width="30" height="30" fill="white"/>
</clipPath>
</defs>
</svg>
