<svg width="28" height="28" viewBox="0 0 28 28" fill="none" xmlns="http://www.w3.org/2000/svg">
<path d="M2.413 14.9354L2.43 14.9504L10.929 22.7334C11.508 23.2634 12.447 23.2624 13.023 22.7284C13.298 22.4744 13.449 22.1384 13.448 21.7814C13.447 21.4244 13.295 21.0884 13.018 20.8364L7.024 15.3474L24.526 15.3474C25.338 15.3474 26 14.7434 26 14.0024C26 13.2614 25.338 12.6584 24.526 12.6584L7.025 12.6584L13.019 7.16938C13.295 6.91638 13.448 6.58038 13.449 6.22338C13.449 5.86638 13.299 5.53038 13.024 5.27738C12.448 4.74538 11.509 4.74238 10.93 5.27238L2.414 13.0704C2.146 13.3204 2 13.6504 2 14.0014C2 14.3524 2.146 14.6844 2.413 14.9354Z" fill="#130F40"/>
</svg>
