<svg width="28" height="28" viewBox="0 0 28 28" fill="none" xmlns="http://www.w3.org/2000/svg">
<path d="M21.0057 24L6.99144 24C5.93072 24 5.07001 23.1393 5.07001 22.0786L5.07001 5.92143C5.07001 4.86071 5.93072 4 6.99144 4L21.0057 4C22.0664 4 22.9271 4.86071 22.9271 5.92143L22.9271 22.0786C22.9271 23.1393 22.0664 24 21.0057 24ZM9.40572 7.97857C9.22715 7.8 8.97715 7.68929 8.70572 7.68929C8.15929 7.68929 7.71644 8.13214 7.71644 8.675C7.71644 8.95 7.82715 9.19643 8.00572 9.375C8.18429 9.55357 8.43429 9.66429 8.70572 9.66429C8.97715 9.66429 9.22715 9.55357 9.40572 9.375C9.58429 9.19643 9.69501 8.95 9.69501 8.675C9.69501 8.40357 9.58429 8.15714 9.40572 7.97857ZM9.40572 13.3C9.22715 13.1214 8.97715 13.0107 8.70572 13.0107C8.15929 13.0107 7.71644 13.4536 7.71644 14C7.71644 14.2714 7.82715 14.5214 8.00572 14.7C8.18429 14.8786 8.43429 14.9893 8.70572 14.9893C8.97715 14.9893 9.22715 14.8786 9.40572 14.7C9.58429 14.5214 9.69501 14.2714 9.69501 14C9.69501 13.7286 9.58429 13.4786 9.40572 13.3ZM9.40572 18.625C9.22715 18.4464 8.97715 18.3357 8.70572 18.3357C8.15929 18.3357 7.71644 18.7786 7.71644 19.325C7.71644 19.5964 7.82715 19.8429 8.00572 20.0214C8.18429 20.2 8.43429 20.3107 8.70572 20.3107C8.97715 20.3107 9.22715 20.2 9.40572 20.0214C9.58429 19.8429 9.69501 19.5964 9.69501 19.325C9.69501 19.05 9.58429 18.8036 9.40572 18.625ZM19.9914 7.97857C19.8129 7.8 19.5629 7.68929 19.2914 7.68929H12.045C11.4986 7.68929 11.0557 8.13214 11.0557 8.675C11.0557 8.95 11.1664 9.19643 11.345 9.375C11.5236 9.55357 11.77 9.66429 12.045 9.66429L19.2914 9.66429C19.8379 9.66429 20.2807 9.22143 20.2807 8.675C20.2807 8.40357 20.17 8.15714 19.9914 7.97857ZM19.9914 13.3C19.8129 13.1214 19.5629 13.0107 19.2914 13.0107L12.045 13.0107C11.4986 13.0107 11.0557 13.4536 11.0557 14C11.0557 14.2714 11.1664 14.5214 11.345 14.7C11.5236 14.8786 11.77 14.9893 12.045 14.9893L19.2914 14.9893C19.8379 14.9893 20.2807 14.5464 20.2807 14C20.2807 13.7286 20.17 13.4786 19.9914 13.3ZM19.9914 18.625C19.8129 18.4464 19.5629 18.3357 19.2914 18.3357H12.045C11.4986 18.3357 11.0557 18.7786 11.0557 19.325C11.0557 19.5964 11.1664 19.8429 11.345 20.0214C11.5236 20.2 11.77 20.3107 12.045 20.3107H19.2914C19.8379 20.3107 20.2807 19.8679 20.2807 19.325C20.2807 19.05 20.17 18.8036 19.9914 18.625Z" fill="#130F40"/>
</svg>
