<svg width="28" height="28" viewBox="0 0 28 28" fill="none" xmlns="http://www.w3.org/2000/svg">
<rect width="28" height="28" rx="6" fill="#00B43B"/>
<path d="M9.60001 14.2407C9.24001 13.88 9.19072 13.395 9.47572 13.0343C9.63501 12.8343 9.85715 12.7157 10.1022 12.7014C10.1193 12.7007 10.1364 12.7 10.1536 12.7C10.39 12.7 10.6172 12.7971 10.7979 12.9764C11.2729 13.4471 11.7457 13.9207 12.2179 14.395L13.1364 15.3193V13.4578C13.1364 10.9807 13.1364 8.50426 13.1372 6.02712C13.1372 5.88783 13.1393 5.76212 13.1693 5.64712C13.2743 5.23283 13.6636 4.95926 14.0907 5.00498C14.5129 5.04641 14.8407 5.38712 14.87 5.81569C14.875 5.88926 14.875 5.96355 14.875 6.03783L14.8757 15.3021L15.1136 15.0743C15.145 15.0443 15.1707 15.02 15.1957 14.9943L15.75 14.44C16.2422 13.9464 16.7343 13.4535 17.2272 12.9628C17.47 12.7214 17.7593 12.6443 18.0872 12.735C18.415 12.825 18.6207 13.0407 18.6972 13.3771C18.7714 13.6957 18.6822 13.9743 18.4272 14.23C17.8707 14.7835 17.3172 15.3385 16.7622 15.8935L15.8893 16.7678C15.4922 17.1657 15.0957 17.5628 14.6979 17.9593C14.2522 18.405 13.7607 18.4043 13.315 17.9585V17.9578C12.0764 16.72 10.8386 15.4814 9.60001 14.2407ZM22.5693 17.8157C22.5686 17.6914 22.5672 17.5671 22.5679 17.4421C22.5693 17.1943 22.4772 16.9643 22.3079 16.795C22.1464 16.6343 21.9314 16.5464 21.7022 16.5464C21.7 16.5464 21.6972 16.5464 21.695 16.5464C21.2143 16.55 20.8329 16.94 20.8264 17.435C20.8236 17.6135 20.8243 17.7921 20.825 17.9714C20.825 18.0914 20.8257 18.2114 20.825 18.3307C20.8193 19.5235 19.9586 20.3914 18.7786 20.3928C15.5957 20.3971 12.4143 20.3971 9.23287 20.3928C8.05572 20.3907 7.19572 19.5293 7.18787 18.3457C7.18715 18.2243 7.18787 18.1043 7.18858 17.9828C7.18929 17.7893 7.19072 17.5943 7.18572 17.4007C7.17287 16.9328 6.82001 16.5728 6.34715 16.5471C6.13287 16.5378 5.91787 16.6085 5.74858 16.7485C5.57429 16.8921 5.47215 17.0871 5.46001 17.2971C5.42501 17.9135 5.38929 18.5521 5.53001 19.175C5.92929 20.9435 7.41429 22.135 9.22644 22.1393C10.3286 22.1414 11.4329 22.14 12.5364 22.1407L14.0079 22.1385C14.5164 22.1385 15.0257 22.14 15.5336 22.1407C16.645 22.1435 17.7943 22.1457 18.9236 22.1357C20.5779 22.1193 22.1043 20.875 22.4736 19.2407C22.5786 18.7714 22.5743 18.2857 22.5693 17.8157Z" fill="#FBF2FB"/>
</svg>
