<svg width="20" height="20" viewBox="0 0 20 20" fill="none" xmlns="http://www.w3.org/2000/svg">
<path d="M14.2856 6.91571V7.00143L12.3999 13.6014H11.1999L9.9999 9.57286L8.7999 13.6014H7.5999L5.71418 6.91571H7.34275V7.00143L8.28561 10.5157L9.39989 6.91571H10.5999L11.7142 10.5157L12.657 6.91571H14.2856ZM18.4239 7.07C18.1985 6.55829 17.7305 6.194 17.2008 6.13314C17.1399 6.12457 17.0619 6.116 16.9925 6.116C16.9719 6.11343 16.9513 6.11257 16.9299 6.11257C16.8785 6.11257 16.8253 6.11857 16.7756 6.12457H16.5759H16.5673C16.1688 5.32657 15.6305 4.60657 15.0065 3.99971C14.9113 3.896 14.8068 3.80857 14.703 3.722C14.547 3.58314 14.3825 3.44429 14.2085 3.32343C14.1828 3.30629 14.1648 3.28829 14.139 3.27114C13.0633 2.50829 11.8059 2.03086 10.4448 1.95286C10.3059 1.94429 10.1585 1.93571 10.0196 1.93571H9.9999H9.97932C9.84047 1.93571 9.69304 1.94429 9.55418 1.95286C8.19218 2.03086 6.93561 2.50829 5.8599 3.27114C5.83418 3.28829 5.81618 3.30629 5.79047 3.32343C5.61732 3.44514 5.4519 3.58314 5.2959 3.722C5.19132 3.80857 5.08761 3.89514 4.99247 3.99971C4.36847 4.60657 3.83018 5.32657 3.43161 6.12457H3.42304H3.22332C3.17447 6.11857 3.12047 6.11257 3.06904 6.11257C3.04761 6.11257 3.02704 6.11343 3.00647 6.116C2.93704 6.116 2.85904 6.12457 2.79818 6.13314C2.26932 6.194 1.80047 6.55829 1.57504 7.07C1.48075 7.29543 1.42847 7.53886 1.42847 7.78143V10.0014V12.1349C1.42847 12.3346 1.45418 12.5249 1.52361 12.716C1.74047 13.358 2.32161 13.8003 2.95418 13.8003C3.00647 13.8046 3.06047 13.8071 3.11961 13.8071C3.17961 13.8071 3.2439 13.8046 3.31761 13.8003H3.39561C3.87304 14.78 4.54075 15.6389 5.34647 16.3151C5.60704 16.5491 5.87532 16.7489 6.16161 16.9306C6.30047 17.0257 6.4479 17.1037 6.59532 17.1911C6.75132 17.2777 6.91589 17.3557 7.07275 17.4337C7.35904 17.564 7.6539 17.6763 7.95732 17.7637C7.9659 17.7723 7.97447 17.7723 7.98304 17.7723C8.11332 17.816 8.24361 17.8503 8.37304 17.876C8.89332 18.0063 9.42218 18.0671 9.96904 18.0671C9.97847 18.0671 9.98875 18.0663 9.99818 18.0663C10.0076 18.0663 10.0179 18.0671 10.0273 18.0671C10.5742 18.0671 11.103 18.0063 11.6233 17.876C11.7536 17.8503 11.8839 17.8151 12.0133 17.7723C12.0219 17.7723 12.0305 17.7723 12.039 17.7637C12.3425 17.6771 12.6373 17.564 12.9236 17.4337C13.0796 17.3557 13.2442 17.2777 13.401 17.1911C13.5485 17.1046 13.6959 17.0266 13.8348 16.9306C14.121 16.7489 14.3893 16.5491 14.6499 16.3151C15.4565 15.6389 16.1242 14.78 16.6008 13.8003H16.6788C16.7525 13.8046 16.8176 13.8071 16.8768 13.8071C16.9368 13.8071 16.9908 13.8046 17.0422 13.8003C17.6756 13.8003 18.2568 13.358 18.4728 12.716C18.5456 12.5249 18.5713 12.3346 18.5713 12.1349V10.0014V7.78143C18.5713 7.53886 18.519 7.29543 18.4239 7.07ZM17.5428 10.0014V12.1349C17.5428 12.23 17.5325 12.3011 17.5093 12.3646C17.4262 12.6097 17.2342 12.7717 17.0448 12.7717H17.0019L16.959 12.7751C16.9342 12.7769 16.9076 12.7777 16.8785 12.7777C16.8373 12.7777 16.7919 12.776 16.7405 12.7734L16.7105 12.7717H16.6805H16.6025H15.9596L15.6785 13.3503C15.2688 14.1929 14.685 14.9454 13.9908 15.5274C13.7585 15.7349 13.5365 15.9029 13.2845 16.0631C13.1773 16.136 13.0976 16.1806 13.017 16.226L12.8816 16.304C12.801 16.3486 12.6948 16.4 12.591 16.4514L12.4668 16.5131C12.2739 16.5997 12.069 16.6786 11.8633 16.7429H11.8496L11.739 16.7797L11.5033 16.8466L11.4999 16.85C11.4742 16.856 11.4493 16.862 11.4236 16.8663L11.3996 16.8714L11.3765 16.8774C10.9453 16.9854 10.5048 17.0377 10.0299 17.0377C10.0196 17.0377 10.011 17.0351 10.0008 17.0351C9.99047 17.0351 9.98189 17.0377 9.97161 17.0377C9.49675 17.0377 9.05618 16.9854 8.62504 16.8774L8.60189 16.8714L8.57704 16.8671C8.55132 16.862 8.52647 16.8569 8.50075 16.8509L8.49732 16.8474L8.26161 16.7806L8.15104 16.7437H8.13732C7.93161 16.6803 7.72675 16.6006 7.53389 16.514L7.40961 16.4523C7.30504 16.4009 7.19875 16.3486 7.11904 16.3049L6.98361 16.2269C6.90304 16.1806 6.82247 16.136 6.71618 16.064C6.46418 15.9037 6.24132 15.7357 6.0099 15.5283C5.31561 14.9463 4.73275 14.1937 4.32218 13.3511L4.04104 12.7726H3.39818H3.32018H3.28847L3.25847 12.7743C3.20704 12.7769 3.16161 12.7786 3.12047 12.7786C3.09132 12.7786 3.06475 12.7777 3.0399 12.776L2.99704 12.7726H2.95418C2.76475 12.7726 2.57275 12.6106 2.48961 12.3654C2.46732 12.3003 2.45704 12.23 2.45704 12.1349V10.0014V7.78143C2.45704 7.68029 2.48018 7.57314 2.51704 7.48486C2.5959 7.30571 2.75618 7.17371 2.94389 7.15143C2.96275 7.14886 2.98675 7.14543 3.00647 7.14457H3.07075L3.10847 7.13943C3.09904 7.14114 3.09304 7.14286 3.09561 7.14457L3.15904 7.15229H3.22332H3.43161H4.06761L4.35218 6.584C4.69247 5.90343 5.14932 5.282 5.7099 4.73686L5.73132 4.71629L5.75104 4.69486C5.81447 4.62543 5.88561 4.57057 5.9799 4.49086C6.14275 4.346 6.26618 4.24571 6.36132 4.17886C6.40161 4.15229 6.43504 4.12657 6.45561 4.10943C7.40704 3.434 8.49904 3.04314 9.61847 2.97886C9.73675 2.97114 9.86189 2.96343 9.97932 2.96343H9.9999H10.0205C10.1388 2.96343 10.2639 2.97114 10.3813 2.97886C11.5008 3.04314 12.5928 3.434 13.5442 4.10943C13.5648 4.12571 13.5982 4.15143 13.6385 4.17886C13.7336 4.24571 13.857 4.346 14.0199 4.49086C14.1142 4.57057 14.1853 4.62543 14.2488 4.69486L14.2685 4.71629L14.2899 4.73686C14.8505 5.282 15.3073 5.90343 15.6476 6.584L15.9322 7.15229H16.5682H16.7765H16.8408L16.9042 7.14457C16.9068 7.142 16.9008 7.14029 16.8913 7.13943L16.929 7.14457H16.9933C17.013 7.14543 17.037 7.14886 17.0559 7.15143C17.2436 7.17371 17.4039 7.30571 17.4828 7.48486C17.5196 7.57314 17.5428 7.68029 17.5428 7.78143V10.0014Z" fill="#5A577A"/>
</svg>
