<svg width="20" height="20" viewBox="0 0 20 20" fill="none" xmlns="http://www.w3.org/2000/svg">
<path d="M3.69275 7.12143H16.2928C16.8785 7.12143 17.3428 6.65715 17.3428 6.07858V2.78572C17.3428 2.20715 16.8785 1.73572 16.2928 1.73572H3.69275C3.11418 1.73572 2.64275 2.20715 2.64275 2.78572V6.07858C2.64275 6.65715 3.11418 7.12143 3.69275 7.12143ZM8.20704 3.7C8.57132 3.7 8.87132 4 8.87132 4.36429C8.87132 4.72857 8.57132 5.02857 8.19989 5.02857C7.83561 5.02857 7.53561 4.72857 7.53561 4.36429C7.53561 3.99286 7.83561 3.7 8.20704 3.7ZM5.23561 3.69286C5.60704 3.69286 5.8999 3.99286 5.8999 4.35715C5.8999 4.72857 5.5999 5.02143 5.23561 5.02143C4.86418 5.02143 4.57132 4.72143 4.57132 4.35715C4.57132 3.99286 4.87132 3.69286 5.23561 3.69286ZM18.3356 15.7071H11.557C11.3856 15.2714 11.0356 14.9214 10.5999 14.7571V13.7429H16.2928C16.8785 13.7429 17.3428 13.2786 17.3428 12.7V9.40715C17.3428 8.82858 16.8785 8.35715 16.2928 8.35715H3.69275C3.11418 8.35715 2.64275 8.82858 2.64275 9.40715V12.7C2.64275 13.2786 3.11418 13.7429 3.69275 13.7429H9.40704V14.7571C8.96418 14.9214 8.61418 15.2714 8.44275 15.7071H1.66418C1.53561 15.7071 1.42847 15.8143 1.42847 15.9429V16.6643C1.42847 16.7929 1.53561 16.8929 1.66418 16.8929H8.44275C8.61418 17.3357 8.96418 17.6857 9.40704 17.85C9.59275 17.9286 9.79275 17.9643 9.9999 17.9643C10.2142 17.9643 10.4142 17.9286 10.5999 17.85C11.0356 17.6857 11.3856 17.3357 11.557 16.8929H18.3356C18.4642 16.8929 18.5713 16.7929 18.5713 16.6643V15.9429C18.5713 15.8143 18.4642 15.7071 18.3356 15.7071ZM14.5856 10.3857C14.957 10.3857 15.257 10.6857 15.257 11.05C15.257 11.4214 14.957 11.7143 14.5856 11.7143C14.2213 11.7143 13.9213 11.4214 13.9213 11.05C13.9213 10.6857 14.2213 10.3857 14.5856 10.3857ZM11.8785 10.3857C12.2499 10.3857 12.5428 10.6857 12.5428 11.05C12.5428 11.4214 12.2499 11.7143 11.8785 11.7143C11.5142 11.7143 11.2142 11.4214 11.2142 11.05C11.2142 10.6857 11.5142 10.3857 11.8785 10.3857ZM5.23561 11.7143C4.87132 11.7143 4.57132 11.4214 4.57132 11.05C4.57132 10.6857 4.87132 10.3857 5.23561 10.3857C5.60704 10.3857 5.8999 10.6857 5.8999 11.05C5.8999 11.4214 5.5999 11.7143 5.23561 11.7143ZM10.5999 16.7143C10.557 16.7857 10.4999 16.8429 10.4356 16.8929C10.3142 16.9857 10.1642 17.0357 9.9999 17.0357C9.84275 17.0357 9.69275 16.9857 9.57132 16.8929C9.50704 16.85 9.44989 16.7929 9.40704 16.7286C9.31418 16.6071 9.26418 16.4643 9.26418 16.3C9.26418 16.1429 9.31418 15.9929 9.40704 15.8786C9.44989 15.8143 9.50704 15.7571 9.57847 15.7071C9.69989 15.6214 9.84275 15.5714 9.9999 15.5714C10.157 15.5714 10.2999 15.6214 10.4213 15.7071C10.4928 15.7571 10.557 15.8214 10.5999 15.8929C10.6928 16.0071 10.7356 16.15 10.7356 16.3C10.7356 16.4571 10.6856 16.6 10.5999 16.7143Z" fill="#D500E2"/>
</svg>
