<svg width="100" height="100" viewBox="0 0 100 100" fill="none" xmlns="http://www.w3.org/2000/svg">
<rect width="100" height="100" rx="20" fill="#0051FF"/>
<path d="M28.4719 38.2279C30.2642 39.8453 31.969 41.509 33.8076 43.0107C37.153 45.7416 42.1802 44.3659 43.7873 40.3082C44.9702 37.315 46.0579 34.2859 47.2048 31.2259C45.6773 30.0739 44.8673 28.5593 45.0088 26.6076C45.1065 25.2679 45.6773 24.1545 46.6725 23.2673C48.7553 21.4107 51.9619 21.6242 53.7876 23.7122C55.5619 25.7436 55.5568 29.1867 52.8079 31.2156C53.0625 31.8996 53.3248 32.6042 53.5896 33.3087C54.4202 35.5279 55.2456 37.7496 56.0788 39.9687C57.8093 44.5767 63.0808 45.865 66.7502 42.571C68.3496 41.1336 69.9336 39.6756 71.5253 38.2279C70.6948 36.6619 70.579 35.0805 71.317 33.4887C72.325 31.3185 74.7499 30.1922 77.095 30.7682C79.3759 31.3287 80.9368 33.4425 80.8545 35.857C80.7748 38.2253 79.0442 40.1899 76.6656 40.5782C76.2979 40.6373 76.1565 40.7659 76.0819 41.1465C74.6728 48.2616 73.2199 55.3665 71.8236 62.4842C70.975 66.8145 67.9433 69.3859 63.5488 69.3859C54.5076 69.3885 45.469 69.3885 36.4279 69.3859C32.0822 69.3859 29.0248 66.7939 28.1865 62.5176C26.7928 55.3999 25.3399 48.2925 23.9333 41.1799C23.8536 40.7736 23.707 40.6373 23.3085 40.573C20.6393 40.1462 18.8676 37.7187 19.1762 34.9519C19.459 32.437 21.7836 30.511 24.409 30.619C27.0139 30.7245 29.107 32.8922 29.1662 35.5253C29.1868 36.469 28.9553 37.3407 28.4719 38.2279Z" fill="#00FFE1"/>
<path d="M49.9998 73.6903C55.6956 73.6903 61.3887 73.6878 67.0844 73.6929C68.7276 73.6955 69.805 75.1458 69.2444 76.5961C68.9256 77.4189 68.3007 77.8766 67.4238 77.9898C67.3133 78.0052 67.2001 77.9975 67.087 77.9975C55.6981 77.9975 44.3067 78.0001 32.9178 77.9949C31.6836 77.9949 30.745 77.2003 30.6241 76.0792C30.5084 75.0121 31.1873 74.0272 32.2493 73.7623C32.527 73.6929 32.8253 73.6929 33.1158 73.6929C38.7447 73.6903 44.371 73.6903 49.9998 73.6903Z" fill="#00FFE1"/>
</svg>
