<svg width="30" height="30" viewBox="0 0 30 30" fill="none" xmlns="http://www.w3.org/2000/svg">
<g clip-path="url(#clip0_26910_17234)">
<path d="M28.3901 24.66C28.2501 24.56 28.1001 24.47 27.9501 24.39C27.8001 24.3 27.6401 24.21 27.4901 24.11C26.9201 23.7 26.5801 23.09 26.5801 22.42C26.5801 21.75 26.9101 21.14 27.4801 20.74C27.6301 20.63 27.7901 20.53 27.9501 20.44C28.0901 20.36 28.2401 20.28 28.3801 20.18C29.9301 19.14 30.4601 17.18 29.6201 15.53C29.2101 14.73 28.7601 13.94 28.2601 13.19C27.5901 12.18 26.4801 11.57 25.2901 11.57C24.7301 11.57 24.1901 11.7 23.6701 11.95C23.5101 12.03 23.3601 12.11 23.2101 12.2C23.0401 12.3 22.8601 12.4 22.6801 12.48C22.4001 12.6 22.1001 12.67 21.8101 12.67C20.7501 12.67 19.9001 11.89 19.7901 10.81C19.7701 10.63 19.7701 10.44 19.7701 10.24C19.7701 10.13 19.7801 10.02 19.7701 9.91C19.7201 7.9 18.1701 6.36 16.1601 6.32C15.7401 6.31 15.3401 6.31 14.9601 6.31C14.5601 6.31 14.1801 6.31 13.8101 6.32C11.8401 6.37 10.3201 7.91 10.2601 9.89V10.67C10.2001 11.81 9.33011 12.67 8.23011 12.67C7.90011 12.67 7.57011 12.59 7.25011 12.43C7.13011 12.37 7.01011 12.3 6.88011 12.22L6.71011 12.13C6.05011 11.76 5.38011 11.57 4.72011 11.57C3.45011 11.57 2.31011 12.27 1.59011 13.48C1.23011 14.08 0.84011 14.72 0.49011 15.39C-0.47989 17.19 0.0701098 19.21 1.82011 20.29C1.91011 20.35 2.01011 20.4 2.12011 20.46C2.27011 20.55 2.41011 20.63 2.54011 20.72C3.12011 21.13 3.45011 21.74 3.45011 22.41C3.45011 23.08 3.13011 23.69 2.56011 24.1C2.42011 24.19 2.27011 24.28 2.11011 24.38C1.98011 24.45 1.85011 24.53 1.72011 24.61C0.44011 25.45 -0.12989 26.58 0.0701099 27.87C0.18011 28.63 0.40011 29.34 0.71011 30H1.83011C1.44011 29.32 1.18011 28.55 1.05011 27.72C0.92011 26.82 1.32011 26.08 2.27011 25.45C2.38011 25.37 2.49011 25.31 2.61011 25.24C2.80011 25.13 2.98011 25.03 3.14011 24.91C3.98011 24.32 4.46011 23.41 4.45011 22.41C4.45011 21.41 3.96011 20.49 3.11011 19.9C2.96011 19.8 2.80011 19.7 2.61011 19.6C2.51011 19.54 2.43011 19.49 2.35011 19.44C1.05011 18.64 0.66011 17.2 1.37011 15.86C1.71011 15.22 2.09011 14.58 2.44011 13.99C2.99011 13.09 3.81011 12.57 4.72011 12.57C5.21011 12.57 5.71011 12.72 6.21011 12.99L6.38011 13.09C6.53011 13.18 6.67011 13.26 6.81011 13.33C7.26011 13.55 7.74011 13.67 8.23011 13.67C9.87011 13.67 11.1701 12.4 11.2601 10.71V9.92C11.3001 8.47 12.4101 7.36 13.8401 7.32C14.1901 7.31 14.5701 7.31 14.9601 7.31C15.3401 7.31 15.7301 7.31 16.1401 7.32C17.6001 7.35 18.7301 8.47 18.7701 9.93C18.7801 10.03 18.7701 10.13 18.7701 10.24C18.7701 10.45 18.7701 10.67 18.8001 10.91C18.9601 12.51 20.2301 13.67 21.8101 13.67C22.2401 13.67 22.6701 13.57 23.0901 13.39C23.3001 13.3 23.5001 13.18 23.7101 13.07C23.8401 12.99 23.9701 12.92 24.1101 12.85C24.4901 12.67 24.8901 12.57 25.2901 12.57C26.1501 12.57 26.9401 13.01 27.4201 13.74C27.9001 14.46 28.3401 15.22 28.7301 15.99C29.3301 17.18 28.9501 18.59 27.8201 19.35C27.7001 19.43 27.5701 19.51 27.4501 19.58C27.2701 19.68 27.0701 19.8 26.9001 19.92C26.0601 20.51 25.5801 21.42 25.5801 22.42C25.5801 23.42 26.0701 24.34 26.9201 24.93C27.0901 25.04 27.2701 25.15 27.4501 25.26C27.5801 25.33 27.7101 25.4 27.8301 25.49C28.9601 26.25 29.3301 27.67 28.7201 28.86C28.5301 29.24 28.3201 29.62 28.1001 30H29.2501C29.3801 29.77 29.5001 29.55 29.6101 29.32C30.4601 27.67 29.9401 25.71 28.3901 24.66ZM15.2101 16.15H15.0801C11.5701 16.15 8.79011 18.89 8.75011 22.39C8.72011 25.74 11.5201 28.62 14.8601 28.68H14.9701C18.4601 28.68 21.2401 25.95 21.2801 22.48C21.3301 19.11 18.5501 16.22 15.2101 16.15ZM14.9801 27.68H14.8801C12.0701 27.63 9.73011 25.22 9.75011 22.4C9.78011 19.46 12.1201 17.16 15.0801 17.15H15.1901C17.9901 17.21 20.3201 19.64 20.2801 22.46C20.2401 25.39 17.9101 27.68 14.9801 27.68Z" fill="#B9B7C6"/>
<path d="M26.4989 9.493C26.4619 10.113 26.5359 10.653 26.4189 11.191C26.0489 12.888 24.4209 14.025 22.7089 13.758C22.5249 13.729 22.4379 13.789 22.3369 13.931C20.9339 15.93 19.0309 17.166 16.6339 17.638C16.5029 17.664 16.4429 17.717 16.3889 17.837C16.0059 18.689 15.0969 19.138 14.1939 18.933C13.3159 18.733 12.6739 17.903 12.7019 17.004C12.7309 16.082 13.4029 15.31 14.3149 15.152C15.0939 15.016 15.9019 15.391 16.2939 16.098C16.3839 16.261 16.4709 16.267 16.6229 16.233C19.6259 15.554 21.8789 13.204 22.4119 10.191C23.1269 6.149 20.3929 2.237 16.3469 1.515C12.3309 0.797996 8.48189 3.386 7.65689 7.378C7.29589 9.129 7.54089 10.81 8.37289 12.4C8.69389 13.013 8.53689 13.407 7.88089 13.628C5.81289 14.325 3.61789 12.837 3.53789 10.648C3.50789 9.82599 3.45989 8.99699 3.56189 8.174C3.74689 6.68299 5.05489 5.452 6.55489 5.365C6.77489 5.352 6.87889 5.281 6.98089 5.08C8.41689 2.236 10.6999 0.524996 13.8659 0.0829957C17.6989 -0.452004 21.4419 1.625 23.0689 5.134C23.1389 5.285 23.2149 5.349 23.3889 5.358C25.1319 5.458 26.4799 6.87899 26.4989 8.625C26.5019 8.942 26.4989 9.259 26.4989 9.493Z" fill="#130F40"/>
<path d="M14.9478 3.381C17.8428 3.385 20.2078 5.558 20.4508 8.378C20.7008 11.276 18.6428 13.863 15.7638 14.266C15.0978 14.359 14.4348 14.332 13.7808 14.173C13.6568 14.143 13.5638 14.157 13.4558 14.22C12.7828 14.614 12.1078 15.005 11.4298 15.39C10.9858 15.642 10.4968 15.414 10.4188 14.931C10.3988 14.804 10.4348 14.686 10.4658 14.568C10.6278 13.961 10.7908 13.355 10.9578 12.75C10.9908 12.63 10.9798 12.544 10.8938 12.439C9.54178 10.801 9.15478 8.954 9.89478 6.962C10.6328 4.974 12.1178 3.811 14.2138 3.445C14.2918 3.431 14.3708 3.419 14.4498 3.412C14.6368 3.399 14.8248 3.389 14.9478 3.381ZM15.0058 9.498C15.3668 9.497 15.6568 9.214 15.6598 8.858C15.6638 8.497 15.3588 8.192 14.9998 8.197C14.6468 8.203 14.3558 8.499 14.3568 8.853C14.3588 9.212 14.6488 9.5 15.0058 9.498ZM17.1638 9.498C17.5258 9.506 17.8198 9.232 17.8328 8.875C17.8458 8.517 17.5478 8.203 17.1898 8.198C16.8398 8.193 16.5388 8.487 16.5318 8.838C16.5248 9.196 16.8068 9.49 17.1638 9.498ZM12.8458 9.498C13.2048 9.495 13.4898 9.206 13.4878 8.848C13.4868 8.498 13.1888 8.199 12.8398 8.198C12.4808 8.197 12.1788 8.505 12.1858 8.865C12.1938 9.222 12.4848 9.501 12.8458 9.498Z" fill="#130F40"/>
</g>
<defs>
<clipPath id="clip0_26910_17234">
<rect width="30" height="30" fill="white"/>
</clipPath>
</defs>
</svg>
