<svg width="20" height="20" viewBox="0 0 20 20" fill="none" xmlns="http://www.w3.org/2000/svg">
<path d="M13.6121 8.61215C16.4228 8.65429 18.6143 10.9 18.5714 13.695C18.5293 16.4243 16.2485 18.6122 13.4885 18.5707C10.78 18.53 8.5714 16.2486 8.6164 13.5379C8.6614 10.7879 10.9085 8.57215 13.6121 8.61215ZM13.3143 13.1864C13.2893 12.9393 13.2614 12.7122 13.2443 12.4843C13.215 12.0864 13.3728 11.8007 13.6957 11.6486C14.025 11.4936 14.3593 11.5593 14.6443 11.8343C14.8707 12.0536 15.1707 12.0664 15.3771 11.8664C15.5857 11.6643 15.5771 11.3507 15.3571 11.1207C14.8335 10.5729 14.0121 10.4057 13.325 10.7064C12.6135 11.0179 12.1793 11.7279 12.2335 12.4993C12.2493 12.7243 12.275 12.9486 12.2971 13.1864C12.1378 13.1864 11.9935 13.1836 11.8493 13.1872C11.5407 13.1943 11.3221 13.41 11.3257 13.6993C11.3285 13.9822 11.5428 14.1872 11.8464 14.1943C11.9785 14.1972 12.11 14.195 12.2571 14.195C12.245 14.2814 12.2378 14.3472 12.2257 14.4122C12.13 14.9072 11.9657 15.3786 11.7228 15.8207C11.6078 16.03 11.5871 16.2343 11.7407 16.4293C11.8928 16.6236 12.0964 16.6614 12.3271 16.5943C13.2885 16.3143 14.2478 16.2986 15.21 16.5986C15.4935 16.6872 15.7607 16.5314 15.8421 16.2586C15.9193 16 15.7735 15.7257 15.4993 15.6386C15.0835 15.5064 14.6578 15.4272 14.2228 15.3886C13.8221 15.3536 13.4228 15.3729 13.0007 15.4136C13.1428 15.0093 13.2228 14.6079 13.2821 14.2107C13.3007 14.2029 13.3057 14.1986 13.3107 14.1986C13.5285 14.1972 13.7457 14.1964 13.9635 14.1943C14.295 14.1907 14.5164 13.9936 14.52 13.7C14.5243 13.4029 14.2928 13.1886 13.9621 13.1864C13.7493 13.185 13.5378 13.1864 13.3143 13.1864Z" fill="#F24A17"/>
<path d="M6.3949 11.3964C3.98919 11.415 1.82562 9.56143 1.48347 7.18929C1.13133 4.74 2.48847 2.5 4.81347 1.69429C7.33276 0.82143 10.1585 2.17286 11.0692 4.68429C11.4735 5.8 11.4892 6.91714 11.1063 8.04072C11.077 8.12572 11.0356 8.18143 10.9535 8.22214C9.73847 8.82429 8.8299 9.73643 8.22347 10.9471C8.17704 11.04 8.11776 11.09 8.02062 11.1229C7.49347 11.3029 6.95133 11.3907 6.3949 11.3964ZM5.89847 9.12643C5.89847 9.29572 5.89704 9.44572 5.89919 9.595C5.8999 9.68929 5.8949 9.78357 5.93347 9.875C6.0249 10.09 6.25204 10.2264 6.46847 10.1907C6.71847 10.15 6.8949 9.95572 6.90633 9.69429C6.91419 9.50643 6.90776 9.31786 6.90776 9.13286C7.02133 9.12 7.11561 9.11 7.2099 9.09857C8.29847 8.97072 8.94133 7.82714 8.47204 6.83929C8.19633 6.25857 7.71776 5.955 7.08276 5.91929C6.65919 5.89643 6.23419 5.91786 5.8099 5.91C5.44776 5.90357 5.18204 5.63857 5.18562 5.30286C5.18919 4.96143 5.45347 4.71286 5.81919 4.71C6.14276 4.70857 6.46704 4.72072 6.7899 4.70643C7.11561 4.69214 7.38704 4.78 7.62347 5.01214C7.82204 5.20786 8.12776 5.18929 8.31704 4.99786C8.50847 4.80429 8.51062 4.49357 8.31562 4.28929C8.03847 3.99857 7.7049 3.80786 7.30633 3.73857C7.17633 3.71643 7.0449 3.70429 6.90704 3.68714C6.90704 3.51286 6.90919 3.34572 6.90633 3.17857C6.90347 2.85429 6.69704 2.63286 6.40204 2.63214C6.1049 2.63143 5.90347 2.84929 5.89919 3.17786C5.89704 3.34929 5.89847 3.52072 5.89847 3.68929C5.74633 3.70857 5.61347 3.71786 5.48276 3.74214C4.7099 3.88429 4.1549 4.56143 4.17562 5.33214C4.19704 6.12429 4.77204 6.78572 5.54276 6.89214C5.99776 6.955 6.45704 6.905 6.91419 6.91857C7.00276 6.92143 7.09204 6.91357 7.1799 6.94C7.46062 7.025 7.6449 7.29429 7.61347 7.57714C7.57919 7.88357 7.33704 8.10786 7.0099 8.11643C6.6699 8.125 6.32847 8.11143 5.98847 8.12143C5.70276 8.12929 5.44276 8.08072 5.19062 7.93072C4.87633 7.74357 4.49704 7.95143 4.45562 8.31286C4.43133 8.52072 4.5199 8.68072 4.6899 8.79714C5.04633 9.04214 5.44704 9.13715 5.89847 9.12643Z" fill="#F24A17"/>
<path d="M2.96349 14.4043C2.83706 14.5364 2.7142 14.6729 2.58349 14.8007C2.36135 15.0179 2.05135 15.0271 1.8492 14.8293C1.63849 14.6229 1.64706 14.3136 1.8742 14.085C2.29135 13.6657 2.70992 13.2471 3.1292 12.8307C3.36992 12.5914 3.65635 12.5893 3.89635 12.8271C4.32063 13.2471 4.74349 13.6693 5.16349 14.0936C5.38206 14.315 5.38706 14.6221 5.18349 14.8257C4.98349 15.0264 4.67135 15.0186 4.44992 14.8036C4.31777 14.675 4.19277 14.54 4.06849 14.4129C3.99849 14.4329 4.02206 14.48 4.02135 14.5136C4.01777 14.8536 4.01206 15.1936 4.11206 15.525C4.36635 16.37 5.11063 16.9336 6.01849 16.965C6.44992 16.98 6.69563 17.3893 6.47849 17.735C6.37563 17.8986 6.2242 17.9721 6.02849 17.9736C4.6392 17.9807 3.40063 16.9864 3.09635 15.6186C3.03277 15.3336 3.01063 15.0457 3.0092 14.755C3.00849 14.645 3.0092 14.535 3.0092 14.4257C2.99349 14.4186 2.97849 14.4114 2.96349 14.4043Z" fill="#F24A17"/>
<path d="M15.9585 5.63215C16.0221 4.77786 15.8928 4.04429 15.2299 3.5C14.8592 3.19572 14.4299 3.05 13.9514 3.03643C13.5357 3.025 13.2978 2.59857 13.5171 2.26286C13.6221 2.10215 13.7749 2.03 13.9707 2.03C15.3642 2.02786 16.5957 3.02 16.8978 4.39072C16.9621 4.68143 16.9835 4.975 16.9849 5.27072C16.9857 5.37429 16.9849 5.47786 16.9849 5.63286C17.1471 5.46857 17.2721 5.33786 17.4014 5.21143C17.6314 4.98572 17.9414 4.97215 18.1478 5.17643C18.3564 5.38286 18.3464 5.69072 18.1171 5.92143C17.6999 6.34072 17.2821 6.76 16.8614 7.17572C16.6214 7.41286 16.3335 7.41072 16.0928 7.17215C15.6728 6.75572 15.2542 6.33714 14.8378 5.91786C14.6099 5.68857 14.6021 5.38072 14.8135 5.17357C15.0149 4.97572 15.3249 4.985 15.5478 5.20286C15.6771 5.33072 15.8007 5.46715 15.9585 5.63215Z" fill="#F24A17"/>
</svg>
