<svg width="16" height="18" viewBox="0 0 16 18" fill="none" xmlns="http://www.w3.org/2000/svg">
<path d="M2.82015 14.7985C3.67372 14.6207 4.60086 14.435 5.65657 14.23C6.183 14.1285 6.568 13.9414 6.86729 13.6414C8.678 11.8235 10.4909 10.0078 12.3037 8.19212L14.308 6.18497C14.8516 5.63926 15.1701 4.93997 15.1809 4.2664C15.1801 3.28783 14.9266 2.5814 14.3587 1.97712L13.8023 1.38997C13.2301 0.782832 12.4594 0.442117 11.6323 0.42926C11.6173 0.42926 11.603 0.42926 11.5873 0.42926C10.7851 0.42926 10.0316 0.742117 9.46086 1.31355C7.75014 3.0264 6.04157 4.74283 4.33372 6.45855L2.00372 8.79855C1.73514 9.06855 1.55729 9.40069 1.47514 9.78783C1.39014 10.1893 1.30657 10.5914 1.22229 10.9928C1.11943 11.4871 1.01586 11.9814 0.910859 12.475C0.836573 12.8235 0.771573 13.1964 0.867288 13.5757C1.08729 14.4435 1.94515 14.9807 2.82015 14.7985ZM2.38657 13.1757C2.43657 12.9193 2.488 12.6643 2.53872 12.4107C2.66729 11.7714 2.78872 11.1678 2.89015 10.5457C2.95157 10.1714 3.11514 9.86926 3.42086 9.56426C5.24229 7.74926 7.08729 5.8964 8.87086 4.10426L10.4801 2.48712C10.7801 2.18712 11.1559 2.02212 11.5416 2.0214H11.543C11.928 2.0214 12.3044 2.1864 12.6044 2.48569L12.698 2.57926C12.8544 2.73497 13.0101 2.88997 13.1651 3.04712C13.8223 3.71355 13.8216 4.53997 13.1637 5.20283C11.6373 6.74069 10.1109 8.27712 8.58372 9.81426L6.31515 12.0985C6.15372 12.2628 5.98729 12.4328 5.81586 12.5921C5.72372 12.6785 5.60372 12.7414 5.49586 12.76C4.69372 12.9021 3.88943 13.0364 3.08586 13.1714L2.59372 13.2535C2.56943 13.2578 2.54443 13.2585 2.51015 13.26L2.36943 13.2664L2.38657 13.1757Z" fill="#130F40"/>
<path d="M14.1551 16.06C12.658 16.0585 11.3416 16.0593 9.94657 16.0593H6.35443C5.74872 16.0593 5.143 16.0593 4.53729 16.0593C3.63157 16.0593 2.72657 16.0593 1.82086 16.06C1.55729 16.0607 1.32729 16.1685 1.18943 16.3564C1.05086 16.5443 1.01729 16.7964 1.09586 17.0478C1.19872 17.375 1.50015 17.5714 1.903 17.5714H14.0687C14.1094 17.5714 14.1537 17.5721 14.1966 17.5685C14.5923 17.5393 14.9009 17.2778 14.9451 16.9335C14.9744 16.7057 14.9116 16.49 14.7666 16.325C14.6166 16.1543 14.3994 16.06 14.1551 16.06Z" fill="#130F40"/>
</svg>
