<svg width="20" height="20" viewBox="0 0 20 20" fill="none" xmlns="http://www.w3.org/2000/svg">
<path d="M16.722 14.3557L16.5392 14.6893C15.2285 17.0836 12.7228 18.5714 9.9999 18.5714C7.28061 18.5714 4.77561 17.0836 3.46061 14.6893L3.27775 14.3557H4.1949L4.26061 14.4671C4.92918 15.6093 5.90489 16.5114 7.09347 17.0878C6.41132 16.3364 5.91132 15.4757 5.67418 14.6421L5.59275 14.3557H6.42489L6.47418 14.5136C6.84918 15.7164 7.82061 16.9236 9.00847 17.6657C9.02275 17.6743 9.03775 17.6843 9.05275 17.6957C9.22489 17.7221 9.41061 17.74 9.61918 17.7507V14.3557H10.4242V17.7457C10.8235 17.7207 11.2256 17.6578 11.6213 17.5586C11.6399 17.5271 11.6613 17.4986 11.687 17.4736C12.587 16.6086 13.1549 15.67 13.4749 14.5207L13.5206 14.3557H14.3592L14.2806 14.6407C14.047 15.4886 13.6963 16.2393 13.2099 16.9293C14.2663 16.345 15.1363 15.4971 15.7356 14.4678L15.8006 14.3557H16.722ZM4.2649 5.53213C4.86347 4.50284 5.73418 3.6557 6.79061 3.0707C6.30418 3.7607 5.95275 4.51142 5.7199 5.35927L5.64132 5.64427H6.48061L6.52632 5.47927C6.84632 4.32927 7.41418 3.39142 8.31418 2.52642C8.3399 2.5007 8.36204 2.47213 8.3799 2.44142C8.77418 2.34213 9.17704 2.27927 9.57632 2.25427V5.64427H10.382V2.24927C10.5885 2.25999 10.7742 2.27784 10.9485 2.30427C10.9635 2.3157 10.9785 2.32642 10.9928 2.33427C12.1806 3.07642 13.1513 4.28427 13.527 5.48642L13.5763 5.64427H14.4085L14.3263 5.35784C14.0892 4.52427 13.5885 3.66356 12.907 2.91213C14.0956 3.48927 15.072 4.39142 15.7399 5.53284L15.8049 5.64499H16.722L16.5399 5.31142C15.2249 2.91642 12.7192 1.42856 9.9999 1.42856C7.27704 1.42856 4.77132 2.91642 3.46061 5.3107L3.27847 5.64427H4.19918L4.2649 5.53213ZM18.5713 9.99999C18.5713 10.2 18.5499 10.3928 18.5142 10.5786C18.4999 10.6428 18.4785 10.7071 18.4642 10.7714C18.4356 10.8857 18.3999 11.0071 18.357 11.1214C18.3285 11.1928 18.2928 11.2643 18.2642 11.3428C18.2213 11.4286 18.1713 11.5143 18.1213 11.6C18.0713 11.6786 18.0213 11.7571 17.9713 11.8357C17.9642 11.85 17.957 11.8643 17.9499 11.8714C17.9356 11.8928 17.9142 11.9 17.8999 11.9214C17.3285 12.6571 16.4356 13.1428 15.4285 13.1428H4.57132C2.83561 13.1428 1.42847 11.7357 1.42847 9.99999C1.42847 8.26427 2.83561 6.85713 4.57132 6.85713H15.4285C16.4356 6.85713 17.3285 7.34284 17.8999 8.07856C17.9142 8.09999 17.9356 8.10713 17.9499 8.12856C17.957 8.1357 17.9642 8.14999 17.9713 8.16427C18.0213 8.24284 18.0713 8.32142 18.1213 8.39999C18.1713 8.4857 18.2213 8.57141 18.2642 8.65713C18.2928 8.7357 18.3285 8.80713 18.357 8.87856C18.3999 8.99284 18.4356 9.11427 18.4642 9.22856C18.4785 9.29284 18.4999 9.35713 18.5142 9.42141C18.5499 9.60713 18.5713 9.79999 18.5713 9.99999ZM5.59275 10.3286L4.7499 9.64284H8.44989V9.10713H4.7499L5.59275 8.42856L5.25704 8.00713L3.57132 9.37856L5.25704 10.7428L5.59275 10.3286ZM11.4642 10.6214L9.77847 9.25713L9.44275 9.67142L10.2856 10.3571H6.58561V10.8928H10.2856L9.44275 11.5714L9.77847 11.9928L11.4642 10.6214ZM17.907 10.0286C17.907 8.67856 17.0213 7.5857 15.9285 7.5857C14.8356 7.5857 13.9428 8.67856 13.9428 10.0286C13.9428 11.3714 14.8356 12.4643 15.9285 12.4643C17.0213 12.4643 17.907 11.3714 17.907 10.0286Z" fill="#FF9D00"/>
</svg>
