<svg width="25" height="28" viewBox="0 0 25 28" fill="none" xmlns="http://www.w3.org/2000/svg">
<path d="M24.6956 5.36484C24.6113 5.1056 24.3876 4.91572 24.1178 4.87492L22.6026 4.64723L21.9168 3.27621C21.6723 2.78846 20.8739 2.78846 20.6293 3.27621L19.9435 4.64723L18.4283 4.87492C18.1585 4.91572 17.9349 5.10533 17.8505 5.36484C17.7662 5.62409 17.8364 5.9089 18.0303 6.09986L19.1225 7.17519L18.8709 8.68767C18.826 8.95616 18.937 9.22737 19.1576 9.38759C19.3782 9.54864 19.672 9.56877 19.9125 9.44445L21.2732 8.73826L22.6339 9.44445C22.8733 9.56904 23.1671 9.54945 23.3888 9.38759C23.6094 9.22737 23.7204 8.95616 23.6755 8.68767L23.4238 7.17519L24.516 6.09986C24.7097 5.9089 24.7799 5.62436 24.6956 5.36484Z" fill="url(#paint0_linear_627_348)"/>
<path d="M10.215 4.26479L9.96339 5.77726C9.9185 6.04576 10.0295 6.31697 10.2501 6.47719C10.4707 6.63742 10.7631 6.65918 11.005 6.53405L12.3657 5.82786L13.7264 6.53405C13.9657 6.65864 14.2595 6.63905 14.4812 6.47719C14.7018 6.31697 14.8128 6.04576 14.7679 5.77726L14.5163 4.26479L15.6085 3.18946C15.8025 2.99823 15.8727 2.71368 15.7883 2.45444C15.704 2.1952 15.4804 2.00532 15.2105 1.96452L13.6953 1.73683L13.0096 0.36581C12.765 -0.121937 11.9666 -0.121937 11.722 0.36581L11.0363 1.73683L9.52107 1.96452C9.25122 2.00532 9.02761 2.19493 8.94328 2.45444C8.85895 2.71396 8.92914 2.9985 9.12309 3.18946L10.215 4.26479Z" fill="url(#paint1_linear_627_348)"/>
<path d="M6.30242 4.87522L4.78723 4.64754L4.10144 3.27652C3.85689 2.78877 3.05849 2.78877 2.81394 3.27652L2.12815 4.64754L0.612957 4.87522C0.343105 4.91603 0.119499 5.10563 0.0351699 5.36515C-0.0491588 5.62439 0.0210245 5.9092 0.21498 6.10017L1.30717 7.17549L1.05555 8.68797C1.01066 8.95646 1.12165 9.22767 1.34226 9.3879C1.56152 9.54894 1.85531 9.56907 2.09714 9.44475L3.45783 8.73857L4.81851 9.44475C5.0579 9.56934 5.35169 9.54975 5.57339 9.3879C5.794 9.22767 5.90499 8.95646 5.86011 8.68797L5.60848 7.17549L6.70067 6.10017C6.89463 5.90893 6.96481 5.62439 6.88048 5.36515C6.79615 5.1059 6.57227 4.91603 6.30242 4.87522Z" fill="url(#paint2_linear_627_348)"/>
<path d="M19.2456 14.3929H15.9635V10.7946C15.9635 9.60226 14.997 8.63574 13.8047 8.63574H12.3654C11.968 8.63574 11.6459 8.95782 11.6459 9.35526V11.6436C11.6459 12.9302 10.9416 13.9648 10.5989 14.3929H8.7673C7.97244 14.3929 7.328 15.0374 7.328 15.8322V21.6011C7.328 22.4425 8.00998 23.1245 8.85136 23.1245H10.6394C11.6655 24.0423 13.0175 24.5638 14.395 24.5638H18.381C19.4112 24.5638 20.3024 23.835 20.5034 22.7997L21.3649 16.9601C21.483 16.3241 21.3157 15.6747 20.9038 15.1764C20.4936 14.678 19.8894 14.3929 19.2456 14.3929Z" fill="url(#paint3_linear_627_348)"/>
<path d="M6.72353 23.7842H3.65451C2.97281 23.7842 2.42032 23.2317 2.42032 22.55V14.9531C2.42032 14.2714 2.97281 13.7189 3.65451 13.7189H6.72353C7.40523 13.7189 7.95772 14.2714 7.95772 14.9531V22.5497C7.95772 23.2314 7.40523 23.7842 6.72353 23.7842Z" fill="url(#paint4_linear_627_348)"/>
<path d="M22.0719 22.5116C22.0765 23.7134 22.0765 24.2101 22.0719 25.4071C22.0719 26.0784 21.6024 26.5477 20.9359 26.543H18.2932C18.2086 26.543 18.1522 26.5664 18.0959 26.6277C17.8519 26.8766 17.5984 27.1252 17.3495 27.3741C17.1384 27.5855 16.8987 27.6605 16.6126 27.5476C16.3449 27.4443 16.2089 27.2144 16.2042 26.8951V26.5477C15.519 26.468 15.1433 26.0455 15.1433 25.3695V22.5116C15.1433 21.8402 15.6033 21.3756 16.2793 21.3756H20.9359C21.6119 21.3756 22.0719 21.8405 22.0719 22.5116Z" fill="url(#paint5_linear_627_348)"/>
<path d="M17.3315 23.7842L18.2931 24.7458L20.2166 22.8223" stroke="#FE0002" strokeWidth="0.8" strokeLinecap="round" strokeLinejoin="round"/>
<defs>
<linearGradient id="paint0_linear_627_348" x1="21.2731" y1="2.91052" x2="21.2731" y2="9.5254" gradientUnits="userSpaceOnUse">
<stop stop-color="#FFFF55"/>
<stop offset="1" stop-color="#FFC766"/>
</linearGradient>
<linearGradient id="paint1_linear_627_348" x1="12.3654" y1="4.08042e-05" x2="12.3654" y2="6.61487" gradientUnits="userSpaceOnUse">
<stop stop-color="#FFFF55"/>
<stop offset="1" stop-color="#FFC766"/>
</linearGradient>
<linearGradient id="paint2_linear_627_348" x1="3.45772" y1="9.52543" x2="3.45772" y2="2.91056" gradientUnits="userSpaceOnUse">
<stop stop-color="#FFC766"/>
<stop offset="1" stop-color="#FFFF55"/>
</linearGradient>
<linearGradient id="paint3_linear_627_348" x1="14.3651" y1="24.5637" x2="14.3651" y2="8.63571" gradientUnits="userSpaceOnUse">
<stop stop-color="#FE0002"/>
<stop offset="1" stop-color="#FF6457"/>
</linearGradient>
<linearGradient id="paint4_linear_627_348" x1="5.1891" y1="23.7841" x2="5.1891" y2="13.7191" gradientUnits="userSpaceOnUse">
<stop stop-color="#FFBFD8"/>
<stop offset="1" stop-color="#FFE5E2"/>
</linearGradient>
<linearGradient id="paint5_linear_627_348" x1="18.6095" y1="27.6" x2="18.6095" y2="21.3757" gradientUnits="userSpaceOnUse">
<stop stop-color="#FFBFD8"/>
<stop offset="1" stop-color="#FFE5E2"/>
</linearGradient>
</defs>
</svg>
