<svg width="30" height="30" viewBox="0 0 30 30" fill="none" xmlns="http://www.w3.org/2000/svg">
<g clip-path="url(#clip0_26910_17210)">
<path d="M28.3901 24.66C28.2501 24.56 28.1001 24.47 27.9501 24.39C27.8001 24.3 27.6401 24.21 27.4901 24.11C26.9201 23.7 26.5801 23.09 26.5801 22.42C26.5801 21.75 26.9101 21.14 27.4801 20.74C27.6301 20.63 27.7901 20.53 27.9501 20.44C28.0901 20.36 28.2401 20.28 28.3801 20.18C29.9301 19.14 30.4601 17.18 29.6201 15.53C29.2101 14.73 28.7601 13.94 28.2601 13.19C27.5901 12.18 26.4801 11.57 25.2901 11.57C24.7301 11.57 24.1901 11.7 23.6701 11.95C23.5101 12.03 23.3601 12.11 23.2101 12.2C23.0401 12.3 22.8601 12.4 22.6801 12.48C22.4001 12.6 22.1001 12.67 21.8101 12.67C20.7501 12.67 19.9001 11.89 19.7901 10.81C19.7701 10.63 19.7701 10.44 19.7701 10.24C19.7701 10.13 19.7801 10.02 19.7701 9.91C19.7201 7.9 18.1701 6.36 16.1601 6.32C15.7401 6.31 15.3401 6.31 14.9601 6.31C14.5601 6.31 14.1801 6.31 13.8101 6.32C11.8401 6.37 10.3201 7.91 10.2601 9.89V10.67C10.2001 11.81 9.33011 12.67 8.23011 12.67C7.90011 12.67 7.57011 12.59 7.25011 12.43C7.13011 12.37 7.01011 12.3 6.88011 12.22L6.71011 12.13C6.05011 11.76 5.38011 11.57 4.72011 11.57C3.45011 11.57 2.31011 12.27 1.59011 13.48C1.23011 14.08 0.84011 14.72 0.49011 15.39C-0.47989 17.19 0.0701098 19.21 1.82011 20.29C1.91011 20.35 2.01011 20.4 2.12011 20.46C2.27011 20.55 2.41011 20.63 2.54011 20.72C3.12011 21.13 3.45011 21.74 3.45011 22.41C3.45011 23.08 3.13011 23.69 2.56011 24.1C2.42011 24.19 2.27011 24.28 2.11011 24.38C1.98011 24.45 1.85011 24.53 1.72011 24.61C0.44011 25.45 -0.12989 26.58 0.0701099 27.87C0.18011 28.63 0.40011 29.34 0.71011 30H1.83011C1.44011 29.32 1.18011 28.55 1.05011 27.72C0.92011 26.82 1.32011 26.08 2.27011 25.45C2.38011 25.37 2.49011 25.31 2.61011 25.24C2.80011 25.13 2.98011 25.03 3.14011 24.91C3.98011 24.32 4.46011 23.41 4.45011 22.41C4.45011 21.41 3.96011 20.49 3.11011 19.9C2.96011 19.8 2.80011 19.7 2.61011 19.6C2.51011 19.54 2.43011 19.49 2.35011 19.44C1.05011 18.64 0.66011 17.2 1.37011 15.86C1.71011 15.22 2.09011 14.58 2.44011 13.99C2.99011 13.09 3.81011 12.57 4.72011 12.57C5.21011 12.57 5.71011 12.72 6.21011 12.99L6.38011 13.09C6.53011 13.18 6.67011 13.26 6.81011 13.33C7.26011 13.55 7.74011 13.67 8.23011 13.67C9.87011 13.67 11.1701 12.4 11.2601 10.71V9.92C11.3001 8.47 12.4101 7.36 13.8401 7.32C14.1901 7.31 14.5701 7.31 14.9601 7.31C15.3401 7.31 15.7301 7.31 16.1401 7.32C17.6001 7.35 18.7301 8.47 18.7701 9.93C18.7801 10.03 18.7701 10.13 18.7701 10.24C18.7701 10.45 18.7701 10.67 18.8001 10.91C18.9601 12.51 20.2301 13.67 21.8101 13.67C22.2401 13.67 22.6701 13.57 23.0901 13.39C23.3001 13.3 23.5001 13.18 23.7101 13.07C23.8401 12.99 23.9701 12.92 24.1101 12.85C24.4901 12.67 24.8901 12.57 25.2901 12.57C26.1501 12.57 26.9401 13.01 27.4201 13.74C27.9001 14.46 28.3401 15.22 28.7301 15.99C29.3301 17.18 28.9501 18.59 27.8201 19.35C27.7001 19.43 27.5701 19.51 27.4501 19.58C27.2701 19.68 27.0701 19.8 26.9001 19.92C26.0601 20.51 25.5801 21.42 25.5801 22.42C25.5801 23.42 26.0701 24.34 26.9201 24.93C27.0901 25.04 27.2701 25.15 27.4501 25.26C27.5801 25.33 27.7101 25.4 27.8301 25.49C28.9601 26.25 29.3301 27.67 28.7201 28.86C28.5301 29.24 28.3201 29.62 28.1001 30H29.2501C29.3801 29.77 29.5001 29.55 29.6101 29.32C30.4601 27.67 29.9401 25.71 28.3901 24.66ZM15.2101 16.15H15.0801C11.5701 16.15 8.79011 18.89 8.75011 22.39C8.72011 25.74 11.5201 28.62 14.8601 28.68H14.9701C18.4601 28.68 21.2401 25.95 21.2801 22.48C21.3301 19.11 18.5501 16.22 15.2101 16.15ZM14.9801 27.68H14.8801C12.0701 27.63 9.73011 25.22 9.75011 22.4C9.78011 19.46 12.1201 17.16 15.0801 17.15H15.1901C17.9901 17.21 20.3201 19.64 20.2801 22.46C20.2401 25.39 17.9101 27.68 14.9801 27.68Z" fill="#B9B7C6"/>
<g clip-path="url(#clip1_26910_17210)">
<path d="M20.4213 0H19.7037C18.8017 0.00958333 17.861 0.00958333 16.9203 0.00958333H16.445C15.514 0.00958333 14.6121 0.00958333 13.8168 0H13.5453C12.6627 0 11.9353 0.277917 11.2759 0.929583C11.2177 0.9775 11.1595 1.035 11.1013 1.0925C10.8297 1.38 10.5388 1.65792 10.2381 1.94542C9.98599 2.19458 9.71444 2.45333 9.45259 2.71208C9.06466 3.08583 8.66703 3.45958 8.25 3.83333C7.86207 4.20708 7.45474 4.58083 7.05711 4.945C6.48491 5.48167 6.15517 6.10458 6.04849 6.8425V6.87125C6.0097 7.04375 6 7.22583 6 7.4175C6.0097 8.93167 6 10.4362 6 11.96V19.9525C6.25216 21.7062 7.64871 22.9617 9.46228 23H20.4213C20.7899 23 21.1099 22.9521 21.4397 22.8658C22.9914 22.425 24 21.045 24 19.3679V3.6225C24 1.56208 22.4677 0.0191667 20.4213 0Z" fill="#130F40"/>
<path d="M15.7952 14.1067L15.6788 14.0588C15.2424 13.9054 14.8641 13.7521 14.515 13.5604C14.2531 13.4071 14.1562 13.2538 14.1755 13.0142C14.224 12.7938 14.3113 12.5063 14.6605 12.4008C15.0484 12.2954 15.4363 12.3529 15.8146 12.5925C16.154 12.8129 16.5225 12.7554 16.7165 12.4583C16.9202 12.1613 16.8329 11.8067 16.5031 11.5671C16.251 11.3946 15.9988 11.2988 15.7661 11.2221L15.6206 11.1742V10.9633C15.6206 10.9058 15.6303 10.8483 15.6303 10.7908C15.6303 10.695 15.6303 10.5896 15.6303 10.4842C15.6012 10.1583 15.3393 9.91875 14.9999 9.91875C14.6605 9.91875 14.4083 10.1583 14.3792 10.4746C14.3695 10.6183 14.3501 10.7621 14.3792 10.9058C14.418 11.1263 14.321 11.2029 14.1368 11.2892C13.4191 11.5671 13.0215 12.1038 12.9342 12.9088C12.8663 13.6371 13.1669 14.2121 13.8361 14.6146C14.2337 14.835 14.6799 15.0267 15.2521 15.2183L15.3975 15.2854C15.96 15.5058 16.0376 15.8892 15.9988 16.1671C15.9406 16.6271 15.543 17.0296 15.0872 17.0679C14.5247 17.1063 14.1271 17.02 13.7682 16.79C13.6324 16.7038 13.4967 16.6558 13.3512 16.6558C13.3027 16.6558 13.2639 16.6558 13.2154 16.6558C13.0602 16.6942 12.9245 16.7996 12.8275 16.9529C12.6432 17.2596 12.7499 17.6046 13.1184 17.8346C13.4482 18.0454 13.807 18.1892 14.2046 18.2754L14.3695 18.3138V18.4671C14.3695 18.6108 14.3695 18.7546 14.3792 18.8888C14.3986 19.2433 14.6508 19.4829 14.9805 19.4829C15.3393 19.4829 15.6012 19.2433 15.6303 18.9175C15.64 18.7833 15.64 18.6588 15.6303 18.5438C15.6012 18.3233 15.64 18.2083 15.9018 18.0933C16.7456 17.7579 17.2984 16.8763 17.2596 15.9658C17.2014 15.0842 16.7068 14.4517 15.7952 14.1067Z" fill="white"/>
<path d="M13.4094 2.13709C13.4094 1.99334 13.2931 1.90709 13.1573 1.93584C12.9148 1.97417 12.7015 2.07959 12.4978 2.27125C12.4202 2.3575 12.3426 2.43417 12.2456 2.52042C12.0129 2.75042 11.7898 2.97084 11.5571 3.20084C10.6454 4.0825 9.74348 4.96417 8.85124 5.82667C8.66698 5.99917 8.48271 6.17167 8.30814 6.35375C8.11417 6.54542 7.92991 6.75625 7.89111 7.04375C7.89111 7.11084 7.92991 7.17792 7.99779 7.17792C8.5506 7.20667 9.1034 7.23542 9.6465 7.26417C10.2381 7.29292 10.8394 7.32167 11.4116 7.35042C11.7025 7.36959 11.9741 7.34084 12.1971 7.26417C12.9633 7.02459 13.4191 6.34417 13.4191 5.43375V2.14667L13.4094 2.13709Z" fill="white"/>
<path d="M19.7619 6.79459H16.5324C16.125 6.79459 15.8147 7.11084 15.8147 7.50375C15.8147 7.89667 16.125 8.21292 16.5324 8.21292H19.7619C20.1595 8.21292 20.4796 7.89667 20.4796 7.50375C20.4796 7.11084 20.1595 6.79459 19.7619 6.79459Z" fill="white"/>
<path d="M19.7619 3.91959H16.5324C16.125 3.91959 15.8147 4.23584 15.8147 4.62875C15.8147 5.02167 16.125 5.33792 16.5324 5.33792H19.7619C20.1595 5.33792 20.4796 5.02167 20.4796 4.62875C20.4796 4.23584 20.1595 3.91959 19.7619 3.91959Z" fill="white"/>
</g>
</g>
<defs>
<clipPath id="clip0_26910_17210">
<rect width="30" height="30" fill="white"/>
</clipPath>
<clipPath id="clip1_26910_17210">
<rect width="18" height="23" fill="white" transform="translate(6)"/>
</clipPath>
</defs>
</svg>
