<svg width="15" height="15" viewBox="0 0 15 15" fill="none" xmlns="http://www.w3.org/2000/svg">
<path opacity="0.4" d="M13.2328 5.61632C13.2328 5.66732 12.8331 10.7229 12.6048 12.8506C12.4619 14.1563 11.6201 14.9482 10.3575 14.9707C9.38737 14.9925 8.43767 15 7.50329 15C6.51129 15 5.54117 14.9925 4.59949 14.9707C3.37918 14.9415 2.53671 14.1338 2.40104 12.8506C2.16617 10.7154 1.77374 5.66732 1.76645 5.61632C1.75916 5.46257 1.80876 5.31633 1.90942 5.19783C2.00862 5.08834 2.15158 5.02234 2.30184 5.02234H12.7047C12.8543 5.02234 12.9899 5.08834 13.0972 5.19783C13.1971 5.31633 13.2474 5.46257 13.2328 5.61632Z" fill="#FF2525"/>
<path d="M14.25 2.98265C14.25 2.67441 14.0071 2.43291 13.7153 2.43291H11.5286C11.0836 2.43291 10.697 2.11643 10.5978 1.67019L10.4753 1.12346C10.3039 0.462734 9.71231 0 9.04855 0H5.95218C5.28112 0 4.6954 0.462734 4.51743 1.15946L4.40291 1.67094C4.30298 2.11643 3.91639 2.43291 3.47217 2.43291H1.28539C0.992895 2.43291 0.75 2.67441 0.75 2.98265V3.26764C0.75 3.56837 0.992895 3.81737 1.28539 3.81737H13.7153C14.0071 3.81737 14.25 3.56837 14.25 3.26764V2.98265Z" fill="#FF2525"/>
</svg>
