<svg width="18" height="18" viewBox="0 0 18 18" fill="none" xmlns="http://www.w3.org/2000/svg">
<path d="M13.2314 1.90799C11.8505 1.47406 10.2299 1.67013 8.99428 2.42099C7.72657 1.63992 6.18692 1.45285 4.76235 1.90799C1.69335 2.90121 0.734851 6.23699 1.57957 8.89263V8.98456H1.61171C3.00542 13.1451 8.45107 16.1299 8.68249 16.2553C8.78021 16.3106 8.88371 16.3382 9.00007 16.3382C9.11578 16.3382 9.23085 16.3086 9.32342 16.2559C9.38128 16.2244 15.0956 13.0892 16.418 8.90678C17.2711 6.24535 16.3119 2.90056 13.2314 1.90799ZM9.00007 15.0448L8.99235 15.0403C7.78507 14.3254 3.76657 11.7443 2.73992 8.54421C2.33878 7.30735 2.42042 5.93999 2.95785 4.88892C3.40978 4.00563 4.16064 3.37306 5.13071 3.05999C5.50742 2.93785 5.90857 2.87678 6.32321 2.87678C7.17949 2.87678 7.99399 3.14485 8.67671 3.65206C8.86699 3.80056 9.13828 3.80121 9.33564 3.65206C10.2851 2.91728 11.6679 2.68392 12.8572 3.05935C15.3046 3.84621 15.9256 6.47292 15.2666 8.54485C14.2631 11.7051 10.2228 14.3158 9.00714 15.0403L9.00007 15.0448Z" fill="#130F40" fillOpacity="0.3"/>
</svg>
