<svg width="28" height="28" viewBox="0 0 28 28" fill="#130F40" xmlns="http://www.w3.org/2000/svg">
<path d="M17.7569 2.61823C17.808 2.57082 17.8336 2.54712 17.8562 2.52732C18.6591 1.82422 19.8585 1.82423 20.6614 2.52734C20.684 2.54714 20.7096 2.57085 20.7607 2.61825C20.8193 2.67258 20.8486 2.69975 20.8722 2.723C21.7174 3.55671 21.7174 4.92061 20.8722 5.7543C20.8486 5.77756 20.8193 5.80472 20.7607 5.85905L15.3467 10.8772C13.7691 12.3394 12.9803 13.0705 12.9803 14C12.9803 14.9295 13.7691 15.6606 15.3467 17.1229L20.7607 22.141C20.8193 22.1953 20.8486 22.2224 20.8722 22.2457C21.7174 23.0794 21.7174 24.4433 20.8722 25.277C20.8486 25.3003 20.8193 25.3274 20.7607 25.3817C20.7096 25.4292 20.684 25.4529 20.6614 25.4727C19.8585 26.1758 18.6591 26.1758 17.8562 25.4727C17.8336 25.4529 17.808 25.4292 17.7569 25.3818L8.84634 17.1229C7.26877 15.6606 6.47998 14.9295 6.47998 14C6.47998 13.0705 7.26877 12.3394 8.84634 10.8772L17.7569 2.61823Z" fill="#130F40"/>
</svg>
