<svg width="20" height="20" viewBox="0 0 20 20" fill="none" xmlns="http://www.w3.org/2000/svg">
<circle cx="10" cy="10" r="9.5" fill="white" stroke="#E8E7EC"/>
<path d="M11.0363 9.99916L14.0703 6.96517C14.2091 6.82722 14.2858 6.64275 14.2858 6.44685C14.2858 6.25095 14.2091 6.06729 14.0703 5.92853C13.7944 5.65182 13.3112 5.65019 13.0337 5.92853L9.99966 8.96253L6.96566 5.92853C6.67998 5.64284 6.21472 5.64284 5.92903 5.92853C5.64334 6.21422 5.64334 6.67866 5.92903 6.96517L8.96303 9.99916L5.92903 13.0332C5.79027 13.1719 5.71436 13.3564 5.71436 13.5515C5.71436 13.7474 5.79027 13.9318 5.92903 14.0698C6.20655 14.3481 6.69059 14.3465 6.96566 14.0698L9.99966 11.0358L13.0337 14.0698C13.1724 14.2086 13.3569 14.2853 13.552 14.2853C13.7479 14.2853 13.9332 14.2086 14.0703 14.0698C14.2091 13.9318 14.2858 13.7474 14.2858 13.5523C14.2858 13.3572 14.2091 13.1719 14.0703 13.0332L11.0363 9.99916Z" fill="#130F40"/>
</svg>
