<svg width="20" height="20" viewBox="0 0 20 20" fill="none" xmlns="http://www.w3.org/2000/svg">
<g clip-path="url(#clip0_632_13093)">
<path d="M19.9895 10.1871C19.9895 9.36767 19.9214 8.76973 19.7742 8.14966H10.1992V11.848H15.8195C15.7062 12.7671 15.0943 14.1512 13.7346 15.0813L13.7155 15.2051L16.7429 17.4969L16.9527 17.5174C18.8789 15.7789 19.9895 13.221 19.9895 10.1871Z" fill="white"/>
<path d="M10.1993 19.9312C12.9527 19.9312 15.2643 19.0453 16.9527 17.5173L13.7346 15.0812C12.8734 15.6681 11.7176 16.0778 10.1993 16.0778C7.50243 16.0778 5.21352 14.3394 4.39759 11.9365L4.278 11.9464L1.13003 14.3271L1.08887 14.439C2.76588 17.6944 6.21061 19.9312 10.1993 19.9312Z" fill="white"/>
<path d="M4.3976 11.9366C4.18231 11.3165 4.05771 10.6521 4.05771 9.96559C4.05771 9.27902 4.18231 8.61467 4.38627 7.9946L4.38057 7.86254L1.19316 5.4436L1.08888 5.49208C0.397698 6.84299 0.00109863 8.36002 0.00109863 9.96559C0.00109863 11.5712 0.397698 13.0881 1.08888 14.439L4.3976 11.9366Z" fill="white"/>
<path d="M10.1993 3.85336C12.1142 3.85336 13.406 4.66168 14.1425 5.33717L17.0207 2.59107C15.253 0.985496 12.9527 0 10.1993 0C6.2106 0 2.76588 2.23672 1.08887 5.49214L4.38626 7.99466C5.21352 5.59183 7.50242 3.85336 10.1993 3.85336Z" fill="white"/>
</g>
<defs>
<clipPath id="clip0_632_13093">
<rect width="20" height="20" fill="white"/>
</clipPath>
</defs>
</svg>
