<svg width="20" height="20" viewBox="0 0 20 20" fill="none" xmlns="http://www.w3.org/2000/svg">
<path d="M15.217 9.29427C14.9113 9.11499 14.5385 9.24499 14.412 9.57927C14.3313 9.78284 14.352 9.86784 14.577 10.3421C14.6756 10.5493 14.7492 10.7293 14.742 10.7357C14.7349 10.7421 14.2185 10.5671 13.5992 10.3421L12.4706 9.9307L12.4492 9.66713C12.4035 9.08356 12.1542 8.55284 11.7178 8.11999C11.4363 7.83499 11.0813 7.62427 10.6913 7.50142L10.4906 7.43784V6.31356C11.0556 6.11141 11.4599 5.57142 11.4599 4.93713C11.4599 4.12999 10.8056 3.4757 9.99847 3.4757C9.19132 3.4757 8.53704 4.12999 8.53704 4.93713C8.53704 5.55856 8.9249 6.08999 9.47132 6.3007V7.4407L9.2249 7.52141C8.31418 7.81356 7.60418 8.71356 7.54418 9.64856L7.52632 9.92999L6.39775 10.3414C5.77918 10.5664 5.26204 10.7421 5.25489 10.735C5.24775 10.7278 5.32204 10.5486 5.41989 10.3414C5.6449 9.86713 5.66632 9.78213 5.5849 9.57856C5.46561 9.26213 5.10347 9.12142 4.80418 9.27284C4.72704 9.31499 4.63918 9.38213 4.61061 9.42784C4.58275 9.47356 4.33275 9.9907 4.0549 10.5778C3.58704 11.58 3.55561 11.6607 3.5699 11.8157C3.60132 12.1321 3.64704 12.1636 4.8499 12.7228C6.06632 13.2886 6.18918 13.3278 6.41061 13.1764C6.7449 12.9478 6.79061 12.54 6.50918 12.28C6.43918 12.2128 6.15061 12.0693 5.74275 11.8936C5.6549 11.855 5.63704 11.8336 5.67275 11.8128C5.70061 11.7986 6.19632 11.6157 6.77704 11.4086C7.71561 11.0678 7.82847 11.0321 7.85989 11.0886C7.96204 11.2714 8.24989 11.6057 8.43275 11.7528C8.65061 11.9286 9.12204 12.175 9.31847 12.2171L9.43418 12.2414V14.6078L9.08989 14.2671C8.89275 14.07 8.69275 13.9014 8.61204 13.87C8.22561 13.7086 7.79632 14.0843 7.87347 14.5136C7.89489 14.6264 8.02132 14.77 8.76275 15.5193C9.32204 16.0821 9.67704 16.4157 9.76847 16.4578C10.1028 16.6128 10.1692 16.5736 11.1499 15.6C11.6213 15.1321 12.0292 14.7071 12.057 14.6543C12.1306 14.5136 12.1206 14.2428 12.0356 14.1057C11.9585 13.9828 11.7928 13.8664 11.6456 13.835C11.4349 13.7893 11.2692 13.8771 10.907 14.2286L10.5592 14.5664V12.2457L10.707 12.2036C10.9742 12.1228 11.2906 11.9543 11.5228 11.7678C11.7235 11.6064 12.0185 11.2757 12.1278 11.0928C12.1628 11.0328 12.237 11.0543 13.2178 11.4057C13.7942 11.6164 14.2935 11.7993 14.322 11.8136C14.357 11.835 14.3399 11.8557 14.252 11.8943C13.8442 12.07 13.5556 12.2143 13.4856 12.2807C13.2042 12.5407 13.2499 12.9486 13.5842 13.1771C13.8056 13.3286 13.9285 13.29 15.1449 12.7236C16.347 12.1643 16.3928 12.1328 16.4249 11.82C16.4392 11.665 16.4106 11.5878 16.0699 10.8636C15.3506 9.32213 15.3935 9.3957 15.217 9.29427ZM11.2313 10.6271C11.017 10.965 10.6442 11.2143 10.2542 11.2814C9.75847 11.3657 9.29061 11.2043 8.93918 10.8314C8.40847 10.2621 8.42204 9.4007 8.96347 8.84499C9.6699 8.12784 10.8692 8.32784 11.3156 9.23856C11.5235 9.65641 11.4878 10.2228 11.2313 10.6271ZM16.027 2.42856C16.8785 2.42856 17.5713 3.12142 17.5713 3.97284V16.0278C17.5713 16.8793 16.8785 17.5721 16.027 17.5721H3.97275C3.12132 17.5714 2.42847 16.8786 2.42847 16.0271V3.97284C2.42847 3.12142 3.12132 2.42856 3.97275 2.42856H16.027ZM16.027 1.42856H3.97275C2.56775 1.42856 1.42847 2.56784 1.42847 3.97284V16.0278C1.42847 17.4321 2.56775 18.5714 3.97275 18.5714H16.0278C17.432 18.5714 18.5713 17.4321 18.5713 16.0271V3.97284C18.5713 2.56784 17.432 1.42856 16.027 1.42856Z" fill="#5A577A"/>
</svg>
