<svg xmlns="http://www.w3.org/2000/svg" width="20" height="20" viewBox="0 0 20 20" fill="none">
  <path fill-rule="evenodd" clip-rule="evenodd" d="M10 17.1333C13.9396 17.1333 17.1333 13.9396 17.1333 10C17.1333 6.06037 13.9396 2.86667 10 2.86667C6.06037 2.86667 2.86667 6.06037 2.86667 10C2.86667 13.9396 6.06037 17.1333 10 17.1333ZM18 10C18 14.4183 14.4183 18 10 18C5.58172 18 2 14.4183 2 10C2 5.58172 5.58172 2 10 2C14.4183 2 18 5.58172 18 10Z" fill="#5A577A"/>
  <path d="M10.9393 7.62861L10.4012 11.2245H10.4006C10.3684 11.4697 10.28 11.6557 9.99988 11.6557C9.71976 11.6557 9.63134 11.4697 9.59919 11.2245H9.59851L9.0598 7.62861C9.05165 7.56609 9.04757 7.50179 9.04757 7.43592C9.04757 6.85329 9.36811 6.38099 9.99995 6.38099C10.6317 6.38099 10.9523 6.85329 10.9523 7.43592C10.9522 7.50186 10.9475 7.56609 10.9393 7.62861ZM9.9998 12.359C9.50841 12.359 9.25908 12.7263 9.25908 13.1795C9.25908 13.6327 9.50841 14 9.9998 14C10.4912 14 10.7406 13.6327 10.7406 13.1795C10.7406 12.7263 10.4912 12.359 9.9998 12.359Z" fill="#5A577A"/>
</svg>