<svg width="20" height="20" viewBox="0 0 20 20" fill="none" xmlns="http://www.w3.org/2000/svg">
<path d="M15.9335 15.8357C15.3399 15.7593 14.7163 15.6821 14.0942 15.5957C13.9971 15.5821 13.9285 15.605 13.8542 15.6571C13.5735 15.8529 13.2778 16.025 12.9671 16.1686C12.8821 16.2079 12.8321 16.2607 12.7964 16.3486C12.5771 16.8893 12.3471 17.4257 12.1292 17.9671C12.0221 18.2336 11.8428 18.3836 11.5556 18.4343C10.4892 18.6221 9.42564 18.6193 8.36206 18.4157C8.13564 18.3721 7.98706 18.2379 7.89992 18.0257C7.66992 17.4693 7.43421 16.915 7.20706 16.3571C7.16921 16.2636 7.11564 16.2057 7.02421 16.1643C6.76421 16.045 6.50564 15.9157 6.27992 15.7421C6.09921 15.6036 5.92135 15.5857 5.70992 15.6179C5.19278 15.6957 4.67349 15.7564 4.15635 15.8293C3.87206 15.8693 3.65349 15.7814 3.46706 15.5571C2.79278 14.7457 2.27206 13.8493 1.91492 12.855C1.82064 12.5929 1.85635 12.375 2.02492 12.1593C2.38492 11.6979 2.73421 11.2286 3.09421 10.7671C3.16064 10.6814 3.18135 10.6014 3.17278 10.4943C3.14564 10.1586 3.14564 9.82215 3.17421 9.48643C3.18206 9.39215 3.16278 9.32215 3.10564 9.24715C2.74349 8.78 2.38849 8.30643 2.02492 7.84072C1.85706 7.625 1.82206 7.40715 1.91635 7.145C2.27349 6.15143 2.79421 5.255 3.46849 4.44357C3.66135 4.21143 3.88706 4.13286 4.17706 4.17357C4.74992 4.25357 5.32492 4.32286 5.89778 4.40357C5.99206 4.41715 6.06349 4.40429 6.13992 4.35072C6.42421 4.14929 6.72564 3.975 7.04349 3.83072C7.13064 3.79072 7.17349 3.72929 7.20778 3.64429C7.42635 3.11 7.65564 2.58 7.86849 2.04357C7.97778 1.76857 8.15921 1.61572 8.45421 1.565C9.52135 1.38215 10.5849 1.37929 11.6478 1.58786C11.8742 1.63215 12.0185 1.77215 12.1056 1.98357C12.3328 2.53429 12.5663 3.08286 12.7906 3.635C12.8314 3.735 12.8892 3.795 12.9856 3.84C13.2849 3.97929 13.5699 4.14429 13.8399 4.33429C13.9263 4.395 14.0049 4.41857 14.1142 4.40286C14.6806 4.32143 15.2499 4.25643 15.8163 4.17572C16.1135 4.13357 16.3435 4.21357 16.5406 4.45143C17.2135 5.26429 17.7335 6.16072 18.0892 7.155C18.1806 7.41 18.1449 7.62572 17.9835 7.835C17.6221 8.30286 17.2664 8.775 16.9035 9.24215C16.8414 9.32215 16.8206 9.39643 16.8292 9.49786C16.8571 9.83358 16.8571 10.17 16.8292 10.5057C16.8206 10.6064 16.8414 10.6814 16.9035 10.7614C17.2628 11.2236 17.6121 11.6929 17.9728 12.1536C18.1456 12.375 18.1814 12.5979 18.0842 12.8664C17.7228 13.8657 17.2014 14.7693 16.5142 15.5786C16.3392 15.7807 16.2056 15.8443 15.9335 15.8357ZM4.33849 5.40643C4.24921 5.37643 4.20564 5.43215 4.15706 5.495C3.76421 6.00572 3.44635 6.55858 3.19278 7.15C3.14349 7.265 3.14492 7.345 3.22778 7.45C3.56421 7.87429 3.88492 8.31143 4.22064 8.73572C4.36135 8.91357 4.41992 9.10143 4.39135 9.325C4.33349 9.77215 4.33206 10.2193 4.39064 10.6664C4.42064 10.8964 4.35992 11.0893 4.21492 11.2729C3.87921 11.6971 3.55921 12.135 3.22349 12.5593C3.14492 12.6579 3.14349 12.7329 3.18992 12.8421C3.43564 13.4236 3.75135 13.9629 4.12635 14.4707C4.20778 14.5807 4.28849 14.61 4.42278 14.5907C4.97064 14.5107 5.52064 14.4464 6.06921 14.3707C6.27349 14.3429 6.44706 14.3943 6.60921 14.5193C6.96564 14.7936 7.35278 15.0186 7.76778 15.19C7.98421 15.28 8.12064 15.4264 8.20706 15.6414C8.41064 16.1486 8.62992 16.6486 8.83135 17.1564C8.87564 17.2671 8.93778 17.3064 9.04564 17.3193C9.68564 17.395 10.3249 17.3943 10.9649 17.3186C11.0771 17.305 11.1306 17.2543 11.1728 17.1486C11.3778 16.6357 11.5956 16.1279 11.8035 15.6157C11.8828 15.4207 12.0092 15.2814 12.2056 15.2014C12.6335 15.0264 13.0306 14.795 13.3971 14.5143C13.5542 14.3943 13.7228 14.3429 13.9199 14.3693C14.4749 14.4443 15.0306 14.5114 15.5856 14.5893C15.7099 14.6071 15.7885 14.5843 15.8671 14.4779C16.2464 13.9657 16.5642 13.4207 16.8128 12.8336C16.8621 12.7179 16.8442 12.6464 16.7706 12.5521C16.4363 12.1264 16.1149 11.69 15.7792 11.265C15.6385 11.0871 15.5792 10.9 15.6078 10.6764C15.6656 10.2293 15.6678 9.78143 15.6085 9.335C15.5778 9.105 15.6385 8.91215 15.7835 8.72929C16.1235 8.3 16.4485 7.85929 16.7863 7.42786C16.8535 7.34143 16.8563 7.27572 16.8156 7.17786C16.5713 6.58857 16.2513 6.04429 15.8728 5.53215C15.7913 5.42143 15.7106 5.39215 15.5771 5.41215C15.0292 5.49215 14.4792 5.55715 13.9306 5.63143C13.7271 5.65929 13.5528 5.60786 13.3906 5.48286C13.0349 5.20857 12.6478 4.98215 12.2328 4.81143C12.0149 4.72215 11.8799 4.57572 11.7935 4.36072C11.5899 3.85357 11.3728 3.35286 11.1685 2.84572C11.1292 2.74857 11.0814 2.69715 10.9742 2.68429C10.3221 2.60572 9.66992 2.605 9.01778 2.68572C8.91778 2.69786 8.87206 2.74429 8.83492 2.835C8.62921 3.34143 8.41135 3.84215 8.20992 4.35C8.12135 4.57215 7.98278 4.72286 7.75992 4.815C7.35064 4.98429 6.96849 5.20572 6.61706 5.47643C6.44992 5.605 6.27135 5.65857 6.06064 5.63C5.48706 5.55215 4.91278 5.48072 4.33849 5.40643Z" fill="#5A577A"/>
<path d="M9.39699 10.3579C10.0556 9.69858 10.6941 9.06143 11.3298 8.42072C11.5013 8.24786 11.697 8.16429 11.937 8.22429C12.3941 8.33857 12.5441 8.88143 12.2113 9.22857C11.9048 9.54715 11.5877 9.855 11.2748 10.1679C10.8084 10.635 10.3427 11.1021 9.87485 11.5679C9.56628 11.8743 9.23556 11.8736 8.92842 11.5679C8.55771 11.1986 8.18771 10.8293 7.81913 10.4586C7.54985 10.1871 7.53556 9.82572 7.78199 9.57857C8.02771 9.33143 8.39056 9.34286 8.66199 9.61215C8.90413 9.85286 9.14199 10.0986 9.39699 10.3579Z" fill="#5A577A"/>
</svg>
