<svg width="20" height="20" viewBox="0 0 20 20" fill="none" xmlns="http://www.w3.org/2000/svg">
<path d="M5.71885 6.96277H8.96207L8.45981 8.97807C8.38308 9.25895 8.23955 9.48458 8.02932 9.65487C7.81879 9.82558 7.57481 9.91067 7.29748 9.91067H5.79062C5.44619 9.91067 5.1423 10.0158 4.87936 10.2265C4.61602 10.437 4.43205 10.7227 4.32683 11.0838C4.25983 11.3545 4.25264 11.6102 4.30534 11.8508C4.35785 12.0914 4.4511 12.3046 4.58511 12.4898C4.71901 12.6755 4.89122 12.8234 5.10186 12.9337C5.31208 13.0442 5.54177 13.099 5.79062 13.099H6.70897C6.88129 13.099 7.02228 13.1718 7.13236 13.3171C7.24224 13.4626 7.27346 13.6253 7.22562 13.8058L6.6517 16.0318H5.64719C4.95832 16.0318 4.3244 15.8738 3.74562 15.558C3.16673 15.2422 2.68597 14.8237 2.30342 14.3021C1.92068 13.781 1.65987 13.1869 1.5213 12.5201C1.38254 11.8533 1.39936 11.169 1.57158 10.467L1.62895 10.2415C1.75023 9.76684 1.94667 9.3169 2.21007 8.91041C2.47321 8.50439 2.78409 8.15851 3.14291 7.87274C3.50164 7.58698 3.90111 7.3639 4.34123 7.20349C4.78114 7.04319 5.24032 6.96277 5.71885 6.96277ZM7.35475 16.0317L10.1818 4.9326C10.2582 4.65194 10.4017 4.42641 10.6124 4.2558C10.8226 4.0853 11.0665 4 11.3442 4H14.3435C15.0323 4 15.6659 4.15797 16.2449 4.47379C16.8236 4.78961 17.3044 5.20837 17.6871 5.72954C18.0696 6.25103 18.3329 6.84507 18.4764 7.51177C18.6199 8.17869 18.6006 8.86303 18.4189 9.56468L18.3617 9.79031C18.2372 10.2715 18.0459 10.7153 17.7877 11.1214C17.5292 11.5274 17.2207 11.8759 16.862 12.1666C16.5032 12.4574 16.1036 12.6831 15.6637 12.8433C15.2236 13.0039 14.7643 13.084 14.2861 13.084H11.6886L12.2052 11.0536C12.2817 10.7829 12.4251 10.5625 12.6358 10.3918C12.8461 10.2215 13.09 10.1362 13.3676 10.1362H14.2C14.5443 10.1362 14.8529 10.0259 15.1255 9.80529C15.3982 9.58486 15.5775 9.2991 15.6637 8.94801C15.7306 8.69752 15.7377 8.4517 15.6853 8.21109C15.6326 7.97048 15.5393 7.75748 15.4053 7.5719C15.2713 7.38653 15.0991 7.23621 14.8888 7.12074C14.6782 7.00558 14.4487 6.94779 14.2 6.94779H12.5926L10.4974 15.1144C10.4207 15.3851 10.2772 15.6057 10.0668 15.7761C9.85639 15.9467 9.61708 16.0318 9.34928 16.0318L7.35475 16.0317Z" fill="#FF4848"/>
</svg>
