<svg width="27" height="28" viewBox="0 0 27 28" fill="none" xmlns="http://www.w3.org/2000/svg">
<path d="M26.6475 16.2362L21.8488 12.9203C21.7738 12.8682 21.5204 12.781 21.41 12.781H16.6641L13.5 14.4389L10.3359 12.7808H5.58997C5.47957 12.7808 5.22515 12.8685 5.15113 12.92L0.352431 16.2362C-0.0113752 16.4903 -0.109401 17.0045 0.133137 17.3857C0.371631 17.7611 0.85999 17.8726 1.23011 17.6156L4.79895 15.1589V26.8737C4.79895 27.3378 5.14684 27.7026 5.58997 27.7026H21.4102C21.8534 27.7026 22.2012 27.3378 22.2012 26.8737V15.1589L25.7701 17.6156C26.1402 17.8728 26.6286 17.7611 26.8671 17.3857C27.1093 17.0045 27.0113 16.4903 26.6475 16.2362Z" fill="url(#paint0_linear_598_546)"/>
<path d="M16.3849 19.3134C16.6502 19.1641 16.8159 18.8824 16.8159 18.5837V12.781H10.184V18.584C10.184 18.8824 10.3498 19.1643 10.615 19.3136C10.8967 19.4627 11.212 19.4463 11.4773 19.2805L13.5 17.9206L15.5226 19.28C15.8041 19.4364 16.0835 19.4639 16.3849 19.3134Z" fill="url(#paint1_linear_598_546)"/>
<path d="M18.474 22.7289H15.158C14.6998 22.7289 14.3291 23.0997 14.3291 23.5578C14.3291 24.0161 14.7 24.3867 15.158 24.3867H18.474C18.9323 24.3867 19.3029 24.0158 19.3029 23.5578C19.3029 23.0995 18.932 22.7289 18.474 22.7289Z" fill="url(#paint2_linear_598_546)"/>
<path d="M13.8976 7.88859L15.802 6.89974L17.7065 7.88859C18.1625 8.1243 18.6895 7.73751 18.6056 7.23525L18.2537 5.11785L19.7832 3.61134C20.1475 3.25234 19.9441 2.63083 19.4398 2.55454L17.3176 2.23545L16.3579 0.315867C16.1466 -0.105289 15.4574 -0.105289 15.2462 0.315867L14.2864 2.23545L12.1642 2.55454C11.6592 2.63109 11.4568 3.25284 11.8209 3.61134L13.3504 5.11785L12.9985 7.23525C12.9148 7.73574 13.4381 8.12304 13.8976 7.88859Z" fill="url(#paint3_linear_598_546)"/>
<path d="M8.13306 11.0757L9.2318 10.5052L10.3305 11.0757C10.5935 11.2116 10.8977 10.9886 10.8492 10.6988L10.6461 9.47725L11.5286 8.60816C11.7388 8.40099 11.6215 8.04249 11.3305 7.99828L10.1062 7.8141L9.5524 6.70651C9.43063 6.46347 9.03297 6.46347 8.9112 6.70651L8.3574 7.8141L7.1331 7.99828C6.8418 8.04249 6.72508 8.40124 6.93502 8.60816L7.81751 9.47725L7.61438 10.6988C7.56613 10.9875 7.86778 11.2111 8.13306 11.0757Z" fill="url(#paint4_linear_598_546)"/>
<path d="M13.9671 11.4279L14.5964 11.101L15.2258 11.4279C15.3766 11.5057 15.5507 11.3779 15.5229 11.2119L15.4066 10.5121L15.9122 10.0141C16.0327 9.89536 15.9655 9.68996 15.7987 9.6647L15.0974 9.55935L14.7801 8.92496C14.7104 8.78576 14.4825 8.78576 14.4127 8.92496L14.0954 9.55935L13.3941 9.6647C13.2271 9.68996 13.1604 9.89562 13.2807 10.0141L13.7862 10.5121L13.67 11.2119C13.6422 11.3774 13.815 11.5055 13.9671 11.4279Z" fill="url(#paint5_linear_598_546)"/>
<path d="M18.141 12.2543C18.1347 12.2543 18.1279 12.254 18.1215 12.2535C17.9823 12.2429 17.8782 12.1214 17.8889 11.9822C18.0212 10.2549 19.0268 8.75771 20.5131 8.07507C22.0304 7.37828 23.4654 7.78327 24.0117 7.98968C24.1423 8.03895 24.208 8.18472 24.1587 8.31534C24.1094 8.44595 23.9637 8.51164 23.833 8.46238C23.3459 8.27845 22.0688 7.91692 20.7238 8.53413C19.4045 9.14022 18.5111 10.4764 18.3926 12.0209C18.3825 12.1535 18.2719 12.2543 18.141 12.2543Z" fill="url(#paint6_linear_598_546)"/>
<path d="M10.755 6.69181C10.6241 6.69181 10.5135 6.591 10.5034 6.45862C10.4367 5.58928 9.93517 4.83792 9.19493 4.49786C8.44155 4.15224 7.72328 4.35511 7.44967 4.45845C7.31931 4.50771 7.17328 4.44202 7.12402 4.31141C7.07475 4.18079 7.14044 4.03502 7.27105 3.98575C7.60429 3.86019 8.47894 3.6131 9.40589 4.03855C10.3129 4.45516 10.9265 5.36746 11.0071 6.41971C11.0177 6.55892 10.9137 6.68019 10.7747 6.69105C10.7681 6.69156 10.7616 6.69181 10.755 6.69181Z" fill="url(#paint7_linear_598_546)"/>
<defs>
<linearGradient id="paint0_linear_598_546" x1="13.5" y1="27.7026" x2="13.5" y2="12.7808" gradientUnits="userSpaceOnUse">
<stop stop-color="#535F82"/>
<stop offset="1" stop-color="#A6B2D5"/>
</linearGradient>
<linearGradient id="paint1_linear_598_546" x1="13.5" y1="19.4159" x2="13.5" y2="12.781" gradientUnits="userSpaceOnUse">
<stop stop-color="#A6B2D5"/>
<stop offset="1" stop-color="#D1DAF3"/>
</linearGradient>
<linearGradient id="paint2_linear_598_546" x1="16.816" y1="24.3867" x2="16.816" y2="22.7289" gradientUnits="userSpaceOnUse">
<stop stop-color="#A6B2D5"/>
<stop offset="1" stop-color="#D1DAF3"/>
</linearGradient>
<linearGradient id="paint3_linear_598_546" x1="15.802" y1="7.95944" x2="15.802" y2="0" gradientUnits="userSpaceOnUse">
<stop stop-color="#A6B2D5"/>
<stop offset="1" stop-color="#D1DAF3"/>
</linearGradient>
<linearGradient id="paint4_linear_598_546" x1="9.23182" y1="11.1166" x2="9.23182" y2="6.52423" gradientUnits="userSpaceOnUse">
<stop stop-color="#A6B2D5"/>
<stop offset="1" stop-color="#D1DAF3"/>
</linearGradient>
<linearGradient id="paint5_linear_598_546" x1="14.5964" y1="11.4513" x2="14.5964" y2="8.82056" gradientUnits="userSpaceOnUse">
<stop stop-color="#A6B2D5"/>
<stop offset="1" stop-color="#D1DAF3"/>
</linearGradient>
<linearGradient id="paint6_linear_598_546" x1="21.0316" y1="12.2543" x2="21.0316" y2="7.68384" gradientUnits="userSpaceOnUse">
<stop stop-color="#A6B2D5"/>
<stop offset="1" stop-color="#D1DAF3"/>
</linearGradient>
<linearGradient id="paint7_linear_598_546" x1="9.05777" y1="6.69181" x2="9.05777" y2="3.79956" gradientUnits="userSpaceOnUse">
<stop stop-color="#A6B2D5"/>
<stop offset="1" stop-color="#D1DAF3"/>
</linearGradient>
</defs>
</svg>
