<svg width="20" height="20" viewBox="0 0 20 20" fill="none" xmlns="http://www.w3.org/2000/svg">
<circle cx="10" cy="10" r="10" fill="#12C55C"/>
<path fill-rule="evenodd" clip-rule="evenodd" d="M5.7044 11.4892L7.91392 14.0838C8.05221 14.2495 8.23506 14.3737 8.44002 14.4408C8.74287 14.536 9.16192 14.5295 9.52154 14.0164L14.4568 6.32153C14.4934 6.26477 14.5215 6.20268 14.5402 6.13868C14.6133 5.88725 14.5977 5.33525 14.0499 5.55582C13.8979 5.61792 13.7634 5.71772 13.6602 5.84496L9.00878 11.4427C8.83049 11.6575 8.51202 11.6869 8.29678 11.5086C8.27659 11.4922 8.25754 11.4739 8.24002 11.4537L7.20154 10.2735C6.99125 10.0282 6.68992 9.87925 6.36725 9.85906C6.01868 9.84458 5.61602 9.94706 5.46859 10.4556C5.36954 10.8187 5.45754 11.2053 5.7044 11.4892Z" fill="white"/>
</svg>
