<svg width="30" height="30" viewBox="0 0 30 30" fill="none" xmlns="http://www.w3.org/2000/svg">
<g clip-path="url(#clip0_26910_17342)">
<path d="M28.3999 24.7C28.2999 24.6 28.0999 24.5 27.9999 24.4C27.8999 24.3 27.6999 24.2 27.4999 24.1C26.8999 23.7 26.5999 23.1 26.5999 22.4C26.5999 21.7 26.8999 21.1 27.4999 20.7C27.5999 20.6 27.7999 20.5 27.9999 20.4C28.0999 20.3 28.2999 20.2 28.3999 20.1C29.8999 19.1 30.4999 17.1 29.5999 15.5C29.1999 14.7 28.6999 13.9 28.1999 13.2C27.4999 12.2 26.3999 11.6 25.1999 11.6C24.5999 11.6 24.0999 11.7 23.5999 12C23.3999 12.1 23.2999 12.2 23.0999 12.2C22.8999 12.3 22.6999 12.4 22.5999 12.5C22.2999 12.6 21.9999 12.7 21.6999 12.7C20.5999 12.7 19.7999 11.9 19.6999 10.8C19.6999 10.6 19.6999 10.4 19.6999 10.2C19.6999 10.1 19.6999 10 19.6999 9.9C19.6999 7.9 18.0999 6.3 16.0999 6.3C15.6999 6.3 15.2999 6.3 14.8999 6.3C14.4999 6.3 14.0999 6.3 13.7999 6.3C11.7999 6.4 10.2999 7.9 10.1999 9.9V10.7C10.0999 11.8 9.29993 12.7 8.19993 12.7C7.89993 12.7 7.49993 12.6 7.19993 12.5C7.09993 12.4 6.99993 12.4 6.79993 12.3L6.59993 12.2C5.89993 11.8 5.29993 11.6 4.59993 11.6C3.29993 11.6 2.19993 12.3 1.49993 13.5C1.09993 14.1 0.799927 14.7 0.399927 15.4C-0.600073 17.2 -7.27177e-05 19.2 1.69993 20.3C1.79993 20.4 1.89993 20.4 1.99993 20.5C2.19993 20.6 2.29993 20.7 2.39993 20.8C2.99993 21.2 3.29993 21.8 3.29993 22.5C3.29993 23.2 2.99993 23.8 2.39993 24.2C2.29993 24.3 2.09993 24.4 1.89993 24.5C1.79993 24.6 1.59993 24.6 1.49993 24.7C0.199927 25.5 -0.400073 26.7 -0.100073 28C-7.27475e-05 28.8 0.199927 29.5 0.499927 30.1H28.9999C29.0999 29.9 29.1999 29.6 29.3999 29.4C30.3999 27.7 29.8999 25.7 28.3999 24.7ZM14.9999 27.7H14.8999C12.0999 27.7 9.79993 25.2 9.79993 22.4C9.79993 19.5 12.1999 17.2 15.0999 17.2H15.1999C17.9999 17.3 20.2999 19.7 20.2999 22.5C20.1999 25.4 17.8999 27.7 14.9999 27.7Z" fill="#E7B3EA"/>
<path d="M26.5 9.5C26.5 10.1 26.5 10.7 26.4 11.2C26 12.9 24.4 14 22.7 13.8C22.5 13.8 22.4 13.8 22.3 14C20.9 16 19 17.2 16.6 17.7C16.5 17.7 16.4 17.8 16.4 17.9C16 18.8 15.1 19.2 14.2 19C13.3 18.8 12.7 18 12.7 17.1C12.7 16.2 13.4 15.4 14.3 15.2C15.1 15.1 15.9 15.4 16.3 16.1C16.4 16.3 16.5 16.3 16.6 16.2C19.6 15.5 21.9 13.2 22.4 10.2C23.1 6.2 20.4 2.2 16.3 1.5C12.3 0.799998 8.40001 3.4 7.60001 7.4C7.20001 9.2 7.50001 10.8 8.30001 12.4C8.60001 13 8.50001 13.4 7.80001 13.6C5.70001 14.3 3.50001 12.8 3.50001 10.6C3.50001 9.8 3.40001 8.9 3.50001 8.1C3.70001 6.6 5.00001 5.4 6.50001 5.3C6.70001 5.3 6.80001 5.2 6.90001 5C8.30001 2.2 10.6 0.399997 13.8 -2.5183e-06C17.6 -0.500003 21.4 1.5 23 5.1C23.1 5.3 23.1 5.3 23.3 5.3C25 5.4 26.4 6.8 26.4 8.6C26.5 8.9 26.5 9.3 26.5 9.5ZM13.5 14.2C12.8 14.6 12.2 15 11.5 15.4C11.1 15.7 10.6 15.4 10.5 14.9C10.5 14.8 10.5 14.7 10.5 14.5C10.7 13.9 10.8 13.3 11 12.7C11 12.6 11 12.5 10.9 12.4C9.50001 10.8 9.20001 9 9.90001 7C10.6 5 12.1 3.8 14.2 3.5C14.3 3.5 14.4 3.5 14.4 3.5C14.6 3.5 14.8 3.5 14.9 3.5C17.8 3.5 20.2 5.7 20.4 8.5C20.6 11.4 18.6 14 15.7 14.4C15 14.5 14.4 14.5 13.7 14.3C13.7 14.1 13.6 14.2 13.5 14.2ZM16.5 8.8C16.5 9.2 16.8 9.5 17.1 9.5C17.5 9.5 17.8 9.2 17.8 8.9C17.8 8.5 17.5 8.2 17.2 8.2C16.8 8.2 16.5 8.5 16.5 8.8ZM14.4 8.9C14.4 9.3 14.7 9.5 15 9.5C15.4 9.5 15.7 9.2 15.7 8.9C15.7 8.5 15.4 8.2 15 8.2C14.6 8.2 14.4 8.5 14.4 8.9ZM13.5 8.8C13.5 8.4 13.2 8.2 12.9 8.2C12.5 8.2 12.2 8.5 12.2 8.9C12.2 9.3 12.5 9.5 12.9 9.5C13.2 9.5 13.5 9.2 13.5 8.8Z" fill="#AE00B9"/>
</g>
<defs>
<clipPath id="clip0_26910_17342">
<rect width="30" height="30" fill="white"/>
</clipPath>
</defs>
</svg>
