<svg width="20" height="20" viewBox="0 0 20 20" fill="none" xmlns="http://www.w3.org/2000/svg">
<path d="M16.0392 1.42856H3.96068C3.07353 1.42856 2.35425 2.14784 2.35425 3.03499V16.965C2.35425 17.8521 3.07353 18.5714 3.96068 18.5714H16.04C16.9271 18.5714 17.6464 17.8521 17.6464 16.965V3.03499C17.6457 2.14784 16.9264 1.42856 16.0392 1.42856ZM16.5757 16.965C16.5757 17.2607 16.335 17.5007 16.04 17.5007H3.96068C3.66496 17.5007 3.42496 17.26 3.42496 16.965V3.03499C3.42496 2.73927 3.66568 2.49927 3.96068 2.49927H16.04C16.3357 2.49927 16.5757 2.73999 16.5757 3.03499V16.965ZM9.99996 13.4078C12.2671 13.4078 14.6771 12.595 14.6771 11.09C14.6771 10.0536 13.535 9.3457 12.0828 9.0057C12.6664 8.45213 13.0357 7.67427 13.0357 6.80856C13.0357 5.13499 11.6742 3.77284 9.99996 3.77284C8.32639 3.77284 6.96425 5.13499 6.96425 6.80856C6.96425 7.67427 7.33353 8.45213 7.91711 9.0057C6.46496 9.34642 5.32282 10.0536 5.32282 11.0907C5.32282 12.595 7.73282 13.4078 9.99996 13.4078ZM9.99996 4.84356C11.0835 4.84356 11.9642 5.72427 11.9642 6.80784C11.9642 7.89142 11.0835 8.77213 9.99996 8.77213C8.91639 8.77213 8.03568 7.89142 8.03568 6.80784C8.03568 5.72427 8.91639 4.84356 9.99996 4.84356ZM9.99996 9.84356C12.1671 9.84356 13.6057 10.5936 13.6057 11.09C13.6057 11.5864 12.1671 12.3364 9.99996 12.3364C7.83211 12.3364 6.39425 11.5857 6.39425 11.09C6.39425 10.5943 7.83211 9.84356 9.99996 9.84356ZM6.12925 14.8336C6.24353 14.9486 6.31425 15.1057 6.31425 15.28C6.31425 15.4564 6.24353 15.6143 6.12925 15.7286C6.01496 15.8428 5.85496 15.9136 5.68068 15.9136C5.33068 15.9136 5.04711 15.63 5.04711 15.28C5.04711 15.1057 5.11782 14.9478 5.23211 14.8336C5.34639 14.7193 5.50639 14.6486 5.68068 14.6486C5.85425 14.6486 6.01496 14.7193 6.12925 14.8336ZM11.4914 15.2814C11.4914 15.5771 11.2514 15.8171 10.9557 15.8171H7.78568C7.48996 15.8171 7.24996 15.5771 7.24996 15.2814C7.24996 14.9857 7.48996 14.7457 7.78568 14.7457H10.9557C11.2514 14.7457 11.4914 14.985 11.4914 15.2814ZM15.0957 15.2814C15.0957 15.5771 14.8557 15.8171 14.56 15.8171H12.7271C12.4314 15.8171 12.1914 15.5771 12.1914 15.2814C12.1914 14.9857 12.4314 14.7457 12.7271 14.7457H14.56C14.8557 14.7457 15.0957 14.985 15.0957 15.2814Z" fill="#5A577A"/>
</svg>
