<svg width="24" height="24" viewBox="0 0 24 24" fill="none" xmlns="http://www.w3.org/2000/svg">
<path d="M11.9977 2.5498L12.5473 2.03948C12.4054 1.88665 12.2063 1.7998 11.9977 1.7998C11.7891 1.7998 11.59 1.88665 11.4481 2.03948L11.9977 2.5498Z" fill="#130F40"/>
<path fill-rule="evenodd" clip-rule="evenodd" d="M19.5101 13.9707C20.383 13.4284 20.9856 12.5349 20.9856 11.4484C20.9856 9.63328 19.3038 8.35663 17.4895 8.35663H12.7472V6.91799C13.5852 6.62095 14.2015 5.83953 14.2015 4.89155C14.2015 4.5036 14.0338 4.12263 13.8863 3.84572C13.7253 3.5434 13.5193 3.2413 13.3263 2.98195C13.1312 2.7198 12.9379 2.48588 12.7941 2.31831C12.722 2.23414 12.6615 2.16577 12.6185 2.11787C12.597 2.0939 12.5799 2.07501 12.5678 2.06176L12.5535 2.04618L12.5494 2.0417L12.5481 2.0403C12.548 2.04022 12.5473 2.03948 11.9977 2.5498C11.4481 2.03948 11.4482 2.0394 11.4481 2.03948L11.446 2.0417L11.4419 2.04618L11.4276 2.06176C11.4155 2.07501 11.3984 2.0939 11.3769 2.11787C11.3339 2.16577 11.2734 2.23414 11.2012 2.31831C11.0575 2.48588 10.8642 2.7198 10.6691 2.98195C10.4761 3.2413 10.2701 3.5434 10.1091 3.84572C9.96157 4.12263 9.79386 4.5036 9.79386 4.89155C9.79386 5.83914 10.4097 6.6203 11.2472 6.91762V8.35663H6.50492C4.69056 8.35663 3.00879 9.63327 3.00879 11.4484C3.00879 12.5348 3.61128 13.4283 4.48408 13.9706L4.99298 16.4063C5.23887 17.5832 5.43706 18.5319 5.68608 19.2718C5.94442 20.0394 6.28338 20.667 6.86235 21.147C7.44325 21.6287 8.11815 21.8395 8.91129 21.9387C9.67202 22.0337 10.6208 22.0337 11.7919 22.0337H12.2024C13.3735 22.0337 14.3222 22.0337 15.083 21.9387C15.8761 21.8395 16.551 21.6287 17.1319 21.147C17.7109 20.667 18.0498 20.0395 18.3082 19.2718C18.5572 18.5319 18.7554 17.5832 19.0012 16.4063L19.5101 13.9707ZM17.8625 14.5221C17.7392 14.534 17.6146 14.5401 17.4895 14.5401C16.4445 14.5401 15.4211 14.1221 14.7433 13.4114C14.0655 14.1221 13.0421 14.5401 11.9972 14.5401C10.9523 14.5401 9.92885 14.1222 9.25106 13.4114C8.57327 14.1222 7.54985 14.5401 6.50492 14.5401C6.37971 14.5401 6.25514 14.534 6.13171 14.5221L6.45157 16.053C6.70947 17.2874 6.89056 18.1481 7.10773 18.7934C7.31883 19.4206 7.53755 19.7583 7.81976 19.9923C8.10006 20.2247 8.46223 20.3709 9.09732 20.4502C9.75421 20.5323 10.609 20.5337 11.8411 20.5337H12.1532C13.3853 20.5337 14.24 20.5323 14.8969 20.4502C15.532 20.3709 15.8942 20.2247 16.1745 19.9923C16.4567 19.7583 16.6754 19.4206 16.8865 18.7934C17.1037 18.1481 17.2848 17.2874 17.5427 16.0531L17.8625 14.5221ZM12.0057 5.54656C12.4131 5.54248 12.6996 5.22935 12.7015 4.89499L12.7013 4.89387C12.7005 4.88819 12.6966 4.86134 12.6789 4.80927C12.6559 4.74163 12.6179 4.65506 12.5624 4.55084C12.4508 4.34134 12.2934 4.1065 12.1229 3.87742C12.0811 3.82117 12.0391 3.76617 11.9977 3.71297C11.9563 3.76617 11.9143 3.82117 11.8725 3.87742C11.702 4.1065 11.5446 4.34134 11.433 4.55084C11.3775 4.65506 11.3395 4.74163 11.3165 4.80927C11.2988 4.86133 11.2949 4.88818 11.2941 4.89387L11.2939 4.895C11.2958 5.2292 11.582 5.54221 11.9891 5.54655L11.9972 5.54651L12.0057 5.54656ZM6.50492 9.85663C5.286 9.85663 4.50879 10.6769 4.50879 11.4484C4.50879 12.2199 5.286 13.0401 6.50492 13.0401C7.57642 13.0401 8.3666 12.3935 8.52144 11.743C8.60187 11.4052 8.90375 11.1667 9.25105 11.1667C9.59836 11.1667 9.90024 11.4052 9.98067 11.743C10.1355 12.3935 10.9257 13.0401 11.9972 13.0401C13.0686 13.0401 13.8588 12.3935 14.0137 11.7431C14.0941 11.4052 14.3959 11.1667 14.7432 11.1667C15.0905 11.1667 15.3924 11.4051 15.4729 11.743C15.6278 12.3935 16.418 13.0401 17.4895 13.0401C18.7084 13.0401 19.4856 12.2199 19.4856 11.4484C19.4856 10.6769 18.7084 9.85663 17.4895 9.85663H6.50492Z" fill="#130F40"/>
</svg>
