<svg width="28" height="28" viewBox="0 0 28 28" fill="none" xmlns="http://www.w3.org/2000/svg">
<rect width="28" height="28" rx="5" fill="#14B9FF"/>
<path d="M14 8.28564C15.4183 8.28564 16.7629 8.77764 17.9337 9.6885C19.1046 10.5919 20.1012 11.9159 20.8172 13.5719C20.8709 13.6976 20.8709 13.8445 20.8172 13.9645C19.3851 17.2754 16.8366 19.2571 14 19.2571H13.9931C11.1634 19.2571 8.61429 17.2754 7.18286 13.9639C7.12915 13.8439 7.12915 13.6971 7.18286 13.5714C8.61486 10.2599 11.1634 8.28564 13.9931 8.28564H14ZM14 11.1114C12.5217 11.1114 11.324 12.3016 11.324 13.7714C11.324 15.2342 12.5217 16.4245 14 16.4245C15.472 16.4245 16.6691 15.2342 16.6691 13.7714C16.6691 12.3016 15.472 11.1114 14 11.1114Z" fill="white"/>
<path d="M15.6669 13.7692C15.6669 14.6801 14.9178 15.4252 14.0012 15.4252C13.0778 15.4252 12.3286 14.6806 12.3286 13.7692C12.3286 13.6561 12.3418 13.5504 12.3623 13.4441H12.396C13.1389 13.4441 13.7406 12.8589 13.7675 12.1269C13.8412 12.1144 13.9212 12.1069 14.0018 12.1069C14.9178 12.1069 15.6669 12.8515 15.6669 13.7692Z" fill="white"/>
</svg>
