<svg width="24" height="24" viewBox="0 0 24 24" fill="none" xmlns="http://www.w3.org/2000/svg">
<path d="M23.1301 5.18005H0.870117C0.910117 4.95005 0.990117 4.73005 1.09012 4.52005L1.32012 4.12005L2.40012 2.26005C2.65012 1.82005 3.02012 1.45005 3.47012 1.19005C3.91012 0.930049 4.41012 0.800049 4.93012 0.800049H19.0701C19.5901 0.800049 20.0901 0.930049 20.5301 1.19005C20.9801 1.45005 21.3501 1.82005 21.6001 2.26005L22.6801 4.12005L22.9101 4.52005C23.0101 4.73005 23.0901 4.95005 23.1301 5.18005Z" fill="url(#paint0_linear_28898_899)"/>
<path d="M20.3998 2.90002H3.5998C2.0538 2.90002 0.799805 4.19802 0.799805 5.80002V20.3C0.799805 21.902 2.0538 23.2 3.5998 23.2H20.3998C21.9458 23.2 23.1998 21.902 23.1998 20.3V5.80002C23.1998 4.19802 21.9458 2.90002 20.3998 2.90002Z" fill="url(#paint1_linear_28898_899)"/>
<path d="M9.46269 6.1051C8.43869 6.1051 7.41469 6.1051 6.39169 6.1051C5.65369 6.1051 5.05469 6.7041 5.05469 7.4421C5.05469 8.5621 5.05469 9.6811 5.05469 10.8011C5.05469 11.3761 5.52169 11.8431 6.09669 11.8431H7.21869H7.90969H8.59369C8.98669 11.8431 9.37969 11.8431 9.77169 11.8431C10.3357 11.8431 10.7927 11.3851 10.7927 10.8221C10.7927 9.6931 10.7927 8.5641 10.7927 7.4351C10.7927 6.7011 10.1967 6.1061 9.46269 6.1051Z" fill="url(#paint2_linear_28898_899)"/>
<path d="M17.623 6.10608C16.593 6.10608 15.562 6.10608 14.531 6.10608C13.8 6.10608 13.207 6.69908 13.207 7.43008C13.207 8.55708 13.207 9.68308 13.207 10.8101C13.207 11.3811 13.67 11.8441 14.242 11.8441H15.388H16.07H16.751C17.145 11.8441 17.54 11.8441 17.934 11.8441C18.493 11.8441 18.947 11.3901 18.947 10.8311C18.947 9.69708 18.948 8.56308 18.947 7.42908C18.945 6.69808 18.353 6.10608 17.623 6.10608Z" fill="url(#paint3_linear_28898_899)"/>
<path d="M9.46269 14.2561C8.94969 14.2561 8.43669 14.2561 7.92369 14.2561C7.41069 14.2561 6.89769 14.2561 6.38469 14.2561C5.65069 14.2561 5.05469 14.8511 5.05469 15.5861C5.05469 15.8651 5.05469 16.1431 5.05469 16.4221V17.1171V17.8071C5.05469 18.0971 5.05469 18.3881 5.05469 18.6791C5.05469 19.4051 5.64469 19.9941 6.37069 19.9941C7.40369 19.9941 8.43769 19.9941 9.47069 19.9941C10.2007 19.9941 10.7937 19.4011 10.7937 18.6711C10.7937 17.6431 10.7937 16.6141 10.7937 15.5861C10.7927 14.8521 10.1977 14.2571 9.46269 14.2561Z" fill="url(#paint4_linear_28898_899)"/>
<path d="M17.9987 14.9961C17.4407 14.4861 16.7207 14.2241 15.9717 14.2601C14.3887 14.3341 13.1757 15.6281 13.2087 17.2061C13.2737 18.8241 14.5757 20.0461 16.1737 19.9891C16.9497 19.9611 17.6647 19.6351 18.1877 19.0691C18.7047 18.5101 18.9707 17.7841 18.9377 17.0241C18.9037 16.2391 18.5697 15.5191 17.9987 14.9961Z" fill="url(#paint5_linear_28898_899)"/>
<defs>
<linearGradient id="paint0_linear_28898_899" x1="12.0001" y1="5.18005" x2="12.0001" y2="0.800049" gradientUnits="userSpaceOnUse">
<stop stop-color="#535F82"/>
<stop offset="1" stop-color="#A6B2D5"/>
</linearGradient>
<linearGradient id="paint1_linear_28898_899" x1="11.9998" y1="23.2" x2="11.9998" y2="2.90002" gradientUnits="userSpaceOnUse">
<stop stop-color="#535F82"/>
<stop offset="1" stop-color="#A6B2D5"/>
</linearGradient>
<linearGradient id="paint2_linear_28898_899" x1="7.92369" y1="11.8431" x2="7.92369" y2="6.1051" gradientUnits="userSpaceOnUse">
<stop stop-color="#A6B2D5"/>
<stop offset="1" stop-color="#D1DAF3"/>
</linearGradient>
<linearGradient id="paint3_linear_28898_899" x1="16.0773" y1="11.8441" x2="16.0773" y2="6.10608" gradientUnits="userSpaceOnUse">
<stop stop-color="#A6B2D5"/>
<stop offset="1" stop-color="#D1DAF3"/>
</linearGradient>
<linearGradient id="paint4_linear_28898_899" x1="7.92419" y1="19.9941" x2="7.92419" y2="14.2561" gradientUnits="userSpaceOnUse">
<stop stop-color="#A6B2D5"/>
<stop offset="1" stop-color="#D1DAF3"/>
</linearGradient>
<linearGradient id="paint5_linear_28898_899" x1="16.0742" y1="19.991" x2="16.0742" y2="14.2568" gradientUnits="userSpaceOnUse">
<stop stop-color="#A6B2D5"/>
<stop offset="1" stop-color="#D1DAF3"/>
</linearGradient>
</defs>
</svg>
