<svg width="20" height="20" viewBox="0 0 20 20" fill="none" xmlns="http://www.w3.org/2000/svg">
<path fill-rule="evenodd" clip-rule="evenodd" d="M15.6035 4.8572C16.4601 5.40297 17.3167 5.94874 18.1733 6.49492C18.7048 6.83711 18.7048 7.44925 18.1695 7.79145L18.1686 7.79202C15.5988 9.43054 13.0291 11.0691 10.4555 12.7038C10.3695 12.7595 10.27 12.7967 10.166 12.8355C10.1139 12.855 10.0607 12.8749 10.0075 12.8977C9.9512 12.8741 9.89531 12.8541 9.8408 12.8346C9.7374 12.7976 9.63899 12.7624 9.55198 12.7076C6.97441 11.0727 4.40064 9.43028 1.82687 7.78783C1.29539 7.44564 1.2951 6.83331 1.83038 6.49492C3.11541 5.67367 4.40044 4.85431 5.68548 4.03496C6.97052 3.2156 8.25556 2.39624 9.5406 1.57498C9.85189 1.37727 10.1518 1.38108 10.4631 1.57879C12.1765 2.67384 13.89 3.76552 15.6035 4.8572ZM9.96198 8.94729C10.1442 8.94729 10.2239 8.89786 10.2239 8.7952C10.2277 8.66213 10.2277 8.53286 10.2277 8.40359C10.2239 8.26671 10.1556 8.22489 9.92022 8.22489H7.30839V6.70024C7.30839 6.58617 7.22867 6.54055 7.03506 6.53675H6.32895C6.13914 6.54055 6.05942 6.58617 6.05942 6.69644V8.7914C6.05942 8.90166 6.13914 8.94729 6.32516 8.94729H9.96198ZM11.7159 8.77239C11.8601 8.73057 12.0006 8.68494 12.141 8.63932C12.2284 8.6089 12.2663 8.54807 12.2321 8.49103C12.2208 8.46822 12.198 8.44541 12.1752 8.4226C11.7026 7.92072 11.2299 7.41789 10.7573 6.91506C10.2847 6.41223 9.81203 5.9094 9.33939 5.40752C9.10023 5.15278 8.86106 4.89803 8.6219 4.64709C8.5232 4.54064 8.4169 4.52162 8.23468 4.57866C8.15469 4.60639 8.07221 4.63162 7.99128 4.65638C7.97234 4.66217 7.95349 4.66794 7.93477 4.67371C7.74496 4.73454 7.71079 4.79538 7.81709 4.90564C8.19662 5.30935 8.57614 5.71266 8.95554 6.11582C9.7374 6.94667 10.5187 7.77693 11.2983 8.6089C11.3139 8.62456 11.3295 8.64066 11.3447 8.65629C11.3737 8.68621 11.4011 8.71439 11.4235 8.73437C11.5071 8.7914 11.6134 8.80281 11.7159 8.77239ZM13.6785 6.79909C13.857 6.79909 13.9405 6.75347 13.9405 6.65081V4.54064C13.9405 4.43798 13.8607 4.38855 13.6785 4.38855H10.0417C9.86328 4.38855 9.77596 4.44178 9.77596 4.54444V4.93606C9.77596 5.07293 9.8443 5.11095 10.0835 5.11095H12.5738C12.5924 5.11095 12.6122 5.10869 12.6356 5.10602C12.655 5.10379 12.677 5.10127 12.7029 5.09955C12.7014 5.11552 12.7 5.12817 12.6987 5.13897C12.6967 5.15645 12.6953 5.16909 12.6953 5.18319C12.6915 5.66597 12.6915 6.15255 12.6915 6.63533C12.6915 6.75319 12.7712 6.79909 12.9724 6.79909H13.6785Z" fill="url(#paint0_linear_569_210)"/>
<path d="M1.74949 12.2707C1.53956 12.4068 1.43896 12.6148 1.43326 12.8631C1.44275 13.1631 1.59916 13.3634 1.8406 13.5159C4.40232 15.1474 6.96367 16.7796 9.52311 18.4153C9.84579 18.6218 10.1503 18.6244 10.4741 18.4176C11.9495 17.4745 13.426 16.5329 14.9025 15.5912C15.9868 14.8996 17.0711 14.208 18.1551 13.5159C18.2431 13.4596 18.3316 13.3942 18.398 13.3148C18.6919 12.9619 18.6015 12.492 18.1866 12.2239C17.8802 12.0261 17.5724 11.8302 17.2646 11.6344C16.9 11.4025 16.5353 11.1705 16.173 10.935C16.0633 10.8636 15.9908 10.8628 15.8792 10.9343C14.336 11.9238 12.7897 12.9083 11.2434 13.8928L11.2424 13.8935C10.4171 14.4189 9.58917 14.4216 8.76234 13.8957C8.31572 13.612 7.86933 13.3275 7.423 13.043C7.30063 12.965 7.17828 12.8871 7.05592 12.8091C6.81912 12.6582 6.58239 12.5073 6.34567 12.3563C5.59565 11.878 4.84566 11.3998 4.09369 10.9244C4.04358 10.8928 3.94829 10.8704 3.90691 10.8963C3.1841 11.3491 2.46471 11.8069 1.74949 12.2707Z" fill="url(#paint1_linear_569_210)"/>
<defs>
<linearGradient id="paint0_linear_569_210" x1="1.53243" y1="19" x2="12.9686" y2="-2.00806" gradientUnits="userSpaceOnUse">
<stop stop-color="#130F40"/>
<stop offset="1" stop-color="#656096"/>
</linearGradient>
<linearGradient id="paint1_linear_569_210" x1="1.53243" y1="19" x2="12.9686" y2="-2.00806" gradientUnits="userSpaceOnUse">
<stop stop-color="#130F40"/>
<stop offset="1" stop-color="#656096"/>
</linearGradient>
</defs>
</svg>
