<svg width="20" height="20" viewBox="0 0 20 20" fill="none" xmlns="http://www.w3.org/2000/svg">
<path d="M4.87922 10.2264C5.14208 10.0157 5.44637 9.91071 5.79065 9.91071H7.2978C7.57494 9.91071 7.81922 9.82571 8.02994 9.655C8.23994 9.485 8.38351 9.25929 8.46065 8.97786L8.9628 6.96286H5.71994C5.24137 6.96286 4.78208 7.04357 4.34208 7.20357C3.90137 7.36429 3.50137 7.58714 3.14279 7.87286C2.78422 8.15857 2.47279 8.50429 2.20994 8.91071C1.94637 9.31714 1.74994 9.76714 1.62851 10.2421L1.57137 10.4671C1.39922 11.1693 1.38208 11.8536 1.52137 12.52C1.65994 13.1864 1.92065 13.7807 2.30351 14.3021C2.68637 14.8236 3.16708 15.2421 3.74565 15.5579C4.32422 15.8736 4.95851 16.0314 5.64708 16.0314H6.65137L7.22565 13.8057C7.27351 13.625 7.24208 13.4621 7.13208 13.3171C7.02208 13.1721 6.88065 13.0993 6.70851 13.0993H5.79065C5.54208 13.0993 5.31208 13.0443 5.10208 12.9336C4.89137 12.8236 4.71922 12.6757 4.58565 12.49C4.45137 12.305 4.35851 12.0914 4.30565 11.8507C4.25279 11.61 4.25994 11.3543 4.32708 11.0836C4.43208 10.7229 4.61637 10.4371 4.87922 10.2264ZM3.46779 12.0336C3.54565 12.3893 3.68779 12.7114 3.88994 12.9914C4.10208 13.285 4.37565 13.5214 4.70279 13.6929C5.03565 13.8679 5.40137 13.9564 5.79065 13.9564H6.30208L5.9878 15.175H5.64708C5.09851 15.175 4.61137 15.0543 4.15637 14.8057C3.68494 14.5486 3.30494 14.2179 2.99422 13.795C2.68208 13.37 2.47494 12.8957 2.36065 12.3457C2.24708 11.8007 2.26137 11.2529 2.40208 10.6786L2.45922 10.4536C2.55779 10.0679 2.71565 9.70571 2.92922 9.37643C3.14065 9.05 3.39208 8.77 3.67708 8.54286C3.96208 8.31571 4.28422 8.13643 4.63494 8.00857C4.97922 7.88357 5.34351 7.82 5.71922 7.82H7.86565L7.63351 8.75214C7.59565 8.88929 7.53708 8.95071 7.48994 8.98929C7.44208 9.02786 7.39137 9.05357 7.2978 9.05357H5.79065C5.2478 9.05357 4.76065 9.22286 4.34422 9.55714C3.94208 9.87857 3.65922 10.3121 3.49494 10.8779C3.39637 11.2764 3.38708 11.665 3.46779 12.0336ZM18.4764 7.51214C18.3328 6.84571 18.0699 6.25143 17.6871 5.73C17.3042 5.20857 16.8235 4.79 16.2449 4.47429C15.6657 4.15786 15.0321 4 14.3435 4H11.3442C11.0664 4 10.8228 4.085 10.6121 4.25571C10.4014 4.42643 10.2578 4.65214 10.1814 4.93286L7.35422 16.0321H9.34851C9.61637 16.0321 9.85565 15.9471 10.0664 15.7764C10.2764 15.6057 10.4199 15.3857 10.4971 15.115L12.5928 6.94786H14.1999C14.4485 6.94786 14.6778 7.00571 14.8885 7.12071C15.0985 7.23643 15.2714 7.38643 15.4049 7.57214C15.5392 7.75786 15.6321 7.97071 15.6849 8.21143C15.7371 8.45214 15.7307 8.69786 15.6635 8.94857C15.5771 9.3 15.3978 9.58571 15.1249 9.80571C14.8521 10.0264 14.5435 10.1364 14.1992 10.1364H13.3671C13.0892 10.1364 12.8457 10.2214 12.6349 10.3921C12.4242 10.5629 12.2807 10.7836 12.2042 11.0543L11.6878 13.085H14.2849C14.7635 13.085 15.2228 13.005 15.6628 12.8443C16.1028 12.6843 16.5021 12.4586 16.8614 12.1679C17.2199 11.8771 17.5285 11.5286 17.7871 11.1229C18.0457 10.7171 18.2364 10.2729 18.3614 9.79143L18.4185 9.56571C18.6007 8.86286 18.6199 8.17857 18.4764 7.51214ZM17.5885 9.35357L17.5321 9.57571C17.4307 9.96786 17.2735 10.3336 17.0649 10.6614C16.8571 10.9879 16.6071 11.27 16.3228 11.5007C16.0392 11.73 15.7192 11.9107 15.3699 12.0379C15.0271 12.1629 14.6621 12.2264 14.2864 12.2264H12.7914L13.0307 11.2864C13.0592 11.1857 13.1028 11.1171 13.1757 11.0579C13.2235 11.0193 13.2749 10.9929 13.3685 10.9929H14.2007C14.7449 10.9929 15.2378 10.8171 15.6649 10.4714C16.0857 10.1314 16.3657 9.68786 16.4928 9.16857C16.5949 8.78643 16.6057 8.40214 16.5235 8.02714C16.4457 7.67214 16.3035 7.35 16.1007 7.06929C15.8921 6.78143 15.6235 6.54571 15.3007 6.36786C14.9635 6.18357 14.5935 6.09 14.2007 6.09H12.5935H11.9285L11.7635 6.73429L9.67351 14.88C9.64494 14.98 9.60065 15.0507 9.5278 15.11C9.46994 15.1571 9.42208 15.1743 9.34994 15.1743H8.45851L11.0099 5.15714C11.0471 5.02071 11.1057 4.95929 11.1535 4.92071C11.2014 4.88214 11.2521 4.85643 11.3457 4.85643H14.3449C14.8928 4.85643 15.3807 4.97714 15.8357 5.22571C16.3071 5.48286 16.6871 5.81357 16.9971 6.23571C17.3064 6.65714 17.5221 7.14714 17.6392 7.69143C17.7542 8.23143 17.7385 8.77357 17.5885 9.35357Z" fill="#5A577A"/>
</svg>
