<svg width="20" height="20" viewBox="0 0 20 20" fill="none" xmlns="http://www.w3.org/2000/svg">
<path d="M15.9506 2.535C16.2463 2.535 16.4863 2.77571 16.4863 3.07071V17.0007C16.4863 17.2964 16.2456 17.5364 15.9506 17.5364H3.87132C3.57561 17.5364 3.33561 17.2957 3.33561 17.0007V3.07142C3.33561 2.77571 3.57632 2.53571 3.87132 2.53571L15.9506 2.535ZM15.9506 1.465H3.87132C2.98418 1.465 2.26489 2.18428 2.26489 3.07142V17.0014C2.26489 17.8886 2.98418 18.6079 3.87132 18.6079H15.9506C16.8377 18.6079 17.557 17.8886 17.557 17.0014V3.07142C17.5563 2.18428 16.837 1.465 15.9506 1.465ZM5.59204 15.0879C5.41775 15.0879 5.25775 15.1586 5.14346 15.2729C5.02918 15.3871 4.95846 15.545 4.95846 15.7193C4.95846 16.0693 5.24204 16.3529 5.59204 16.3529C5.76632 16.3529 5.92632 16.2821 6.04061 16.1679C6.15489 16.0536 6.22561 15.8957 6.22561 15.7193C6.22561 15.545 6.15489 15.3879 6.04061 15.2729C5.92561 15.1593 5.76561 15.0879 5.59204 15.0879ZM10.8663 15.185H7.69632C7.40061 15.185 7.16061 15.425 7.16061 15.7207C7.16061 16.0164 7.40061 16.2564 7.69632 16.2564H10.8663C11.162 16.2564 11.402 16.0164 11.402 15.7207C11.402 15.425 11.162 15.185 10.8663 15.185ZM14.4706 15.185H12.6378C12.342 15.185 12.102 15.425 12.102 15.7207C12.102 16.0164 12.342 16.2564 12.6378 16.2564H14.4706C14.7663 16.2564 15.0063 16.0164 15.0063 15.7207C15.0063 15.425 14.7663 15.185 14.4706 15.185ZM5.59204 12.8693C5.41775 12.8693 5.25775 12.94 5.14346 13.0543C5.02918 13.1686 4.95846 13.3264 4.95846 13.5007C4.95846 13.8507 5.24204 14.1343 5.59204 14.1343C5.76632 14.1343 5.92632 14.0636 6.04061 13.9493C6.15489 13.835 6.22561 13.6771 6.22561 13.5007C6.22561 13.3264 6.15489 13.1693 6.04061 13.0543C5.92561 12.9407 5.76561 12.8693 5.59204 12.8693ZM10.8663 12.9664H7.69632C7.40061 12.9664 7.16061 13.2064 7.16061 13.5021C7.16061 13.7979 7.40061 14.0379 7.69632 14.0379H10.8663C11.162 14.0379 11.402 13.7979 11.402 13.5021C11.402 13.2064 11.162 12.9664 10.8663 12.9664ZM12.637 14.0379H14.4699C14.7656 14.0379 15.0056 13.7979 15.0056 13.5021C15.0056 13.2064 14.7656 12.9664 14.4699 12.9664H12.637C12.3413 12.9664 12.1013 13.2064 12.1013 13.5021C12.1013 13.7979 12.3413 14.0379 12.637 14.0379ZM15.2956 6.58642C15.2942 6.24285 15.1785 5.93785 14.9528 5.68142C14.6699 5.36 14.3792 5.04285 14.0899 4.72642L13.9628 4.58714C13.6842 4.28285 13.3456 4.135 12.9249 4.135C11.0077 4.13714 9.09061 4.13642 7.17061 4.13428C6.76561 4.13428 6.42418 4.28071 6.12632 4.58142C5.97275 4.73714 5.82061 4.895 5.66918 5.05214C5.50418 5.22357 5.33775 5.395 5.17061 5.56428C4.85275 5.885 4.69989 6.25571 4.70204 6.69785C4.70632 7.58928 4.70489 8.21428 4.70346 9.10571C4.70275 9.51285 4.84346 9.85214 5.13418 10.1436L5.32846 10.3393C5.57346 10.5829 5.83346 10.8436 6.08704 11.1121C6.39561 11.4386 6.77918 11.5986 7.26204 11.6007C7.92132 11.5957 8.58132 11.5957 9.24061 11.5979L11.0099 11.5957C11.6299 11.5936 12.2485 11.5929 12.8692 11.6C12.8785 11.6 12.887 11.6 12.8956 11.6C13.3435 11.6 13.707 11.4364 14.007 11.1007C14.202 10.8814 14.402 10.6657 14.602 10.45L14.9149 10.1093C15.1649 9.83785 15.292 9.51571 15.2942 9.15285C15.2999 8.20928 15.2985 7.53071 15.2956 6.58642ZM14.4385 9.13642C14.4385 9.28857 14.3806 9.42857 14.267 9.55285L13.3556 10.5407C13.2392 10.6693 13.0863 10.7314 12.8899 10.7314C12.1813 10.73 11.4713 10.73 10.7635 10.73L8.82561 10.7286C8.64989 10.7286 8.47489 10.7286 8.29989 10.7286C7.94846 10.7286 7.59632 10.7286 7.24346 10.73C7.04989 10.73 6.89918 10.6679 6.76989 10.5343C6.51418 10.2714 6.25704 10.01 5.99846 9.74928L5.79061 9.53928C5.66918 9.41642 5.60775 9.26357 5.60918 9.085C5.61204 8.19857 5.61204 7.57857 5.60918 6.69214C5.60846 6.51357 5.66489 6.36928 5.78275 6.25C6.11561 5.91214 6.44561 5.57142 6.77346 5.22928C6.89704 5.1 7.03989 5.04 7.22346 5.04C9.11704 5.04214 11.0135 5.04142 12.9085 5.03928C13.0963 5.03928 13.2463 5.105 13.3685 5.24071C13.6706 5.57785 13.9742 5.91214 14.2806 6.245C14.3863 6.36071 14.4385 6.49357 14.4385 6.65142C14.4378 7.56785 14.4378 8.21928 14.4385 9.13642ZM10.967 6.06642C10.7363 5.84571 10.4456 5.74714 10.0249 5.74642C9.59204 5.72928 9.22061 5.91142 8.91918 6.28357C8.76489 6.47428 8.69775 6.67928 8.71989 6.89285C8.72846 6.97 8.78132 7.07785 8.85489 7.125C8.97704 7.20285 9.11489 7.21428 9.23275 7.15571C9.34989 7.09785 9.42632 6.97714 9.43775 6.83428C9.44918 6.68928 9.51704 6.57857 9.63989 6.50571C9.87204 6.36571 10.1192 6.36214 10.3527 6.49357C10.4292 6.53714 10.5028 6.62857 10.5235 6.70714C10.5813 6.92571 10.5206 7.11428 10.3442 7.26714C10.1213 7.46 9.95132 7.62857 9.80847 7.79857C9.60346 8.04357 9.51989 8.33 9.56632 8.62642C9.57418 8.67642 9.59989 8.74428 9.64632 8.77214C9.72561 8.81928 9.81132 8.84285 9.89989 8.84285C9.96846 8.84285 10.0385 8.82857 10.1085 8.80071C10.2556 8.74143 10.2727 8.6 10.272 8.48285C10.2699 8.29071 10.3485 8.13071 10.527 7.96428C10.7199 7.78428 10.9192 7.59785 11.0835 7.38714C11.3778 7.01214 11.3242 6.40714 10.967 6.06642ZM9.96632 9.13785C9.96489 9.13785 9.96418 9.13785 9.96275 9.13785C9.84704 9.13785 9.73846 9.18214 9.65704 9.26214C9.57632 9.34214 9.53132 9.44857 9.53132 9.56285C9.53061 9.67071 9.57632 9.77928 9.65632 9.86071C9.73704 9.94214 9.84561 9.98928 9.95418 9.98928C9.95418 9.98928 9.95418 9.98928 9.95489 9.98928C10.0635 9.98928 10.1735 9.94285 10.2542 9.86142C10.3363 9.77857 10.3842 9.66714 10.3835 9.555C10.3827 9.33071 10.192 9.14 9.96632 9.13785Z" fill="#5A577A"/>
</svg>
