<svg width="20" height="20" viewBox="0 0 20 20" fill="none" xmlns="http://www.w3.org/2000/svg">
<path d="M8.03575 6.80713C8.03575 5.72142 8.91432 4.84284 10 4.84284C11.0857 4.84284 11.9643 5.72142 11.9643 6.80713C11.9643 7.89284 11.0857 8.77141 10 8.77141C8.91432 8.77141 8.03575 7.89284 8.03575 6.80713ZM10 12.3357C12.1643 12.3357 13.6072 11.5857 13.6072 11.0928C13.6072 10.5928 12.1643 9.84284 10 9.84284C7.83575 9.84284 6.39289 10.5928 6.39289 11.0928C6.39289 11.5857 7.83575 12.3357 10 12.3357ZM17.6429 3.0357V16.9643C17.6429 17.85 16.9286 18.5714 16.0429 18.5714H3.95718C3.07146 18.5714 2.35718 17.85 2.35718 16.9643V3.0357C2.35718 2.14999 3.07146 1.42856 3.95718 1.42856H16.0429C16.9286 1.42856 17.6429 2.14999 17.6429 3.0357ZM7.91432 9.00713C6.46432 9.34284 5.32146 10.05 5.32146 11.0928C5.32146 12.5928 7.73575 13.4071 10 13.4071C12.2643 13.4071 14.6786 12.5928 14.6786 11.0928C14.6786 10.05 13.5357 9.34284 12.0857 9.00713C12.6643 8.44999 13.0357 7.67141 13.0357 6.80713C13.0357 5.1357 11.6715 3.77142 10 3.77142C8.32861 3.77142 6.96432 5.1357 6.96432 6.80713C6.96432 7.67141 7.33575 8.44999 7.91432 9.00713ZM10.9572 14.7428H7.78575C7.49289 14.7428 7.25003 14.9857 7.25003 15.2786C7.25003 15.5786 7.49289 15.8143 7.78575 15.8143H10.9572C11.25 15.8143 11.4929 15.5786 11.4929 15.2786C11.4929 14.9857 11.25 14.7428 10.9572 14.7428ZM5.23575 14.8357C5.12146 14.95 5.05003 15.1071 5.05003 15.2786C5.05003 15.6286 5.32861 15.9143 5.67861 15.9143C5.85718 15.9143 6.01432 15.8428 6.12861 15.7286C6.24289 15.6143 6.31432 15.4571 6.31432 15.2786C6.31432 15.1071 6.24289 14.95 6.12861 14.8357C6.01432 14.7214 5.85718 14.65 5.67861 14.65C5.50718 14.65 5.35003 14.7214 5.23575 14.8357ZM15.0929 15.2786C15.0929 14.9857 14.8572 14.7428 14.5572 14.7428H12.7286C12.4286 14.7428 12.1929 14.9857 12.1929 15.2786C12.1929 15.5786 12.4286 15.8143 12.7286 15.8143H14.5572C14.8572 15.8143 15.0929 15.5786 15.0929 15.2786Z" fill="#7C00FF"/>
</svg>
