<svg width="24" height="24" viewBox="0 0 24 24" fill="none" xmlns="http://www.w3.org/2000/svg">
<path d="M18.6566 5.71221C18.888 5.85878 19.128 5.85278 19.3415 5.6925C19.8069 5.34278 20.2663 4.9845 20.7198 4.61764C20.9966 4.39307 21.0309 4.02964 20.8243 3.76564C20.6126 3.49564 20.2449 3.45107 19.9543 3.67307C19.5069 4.01507 19.0612 4.35707 18.6275 4.71536C18.51 4.81221 18.4398 4.9665 18.3849 5.04278C18.3635 5.36936 18.4398 5.57421 18.6566 5.71221ZM16.626 4.29793C16.944 4.34336 17.256 4.13164 17.3083 3.8025C17.3769 3.37564 17.4309 2.94536 17.466 2.51421C17.4926 2.18336 17.2355 1.90478 16.9158 1.87564C16.5909 1.8465 16.3089 2.07107 16.2592 2.4045C16.2292 2.60507 16.2086 2.8065 16.1829 3.00793C16.1589 3.20936 16.1306 3.40993 16.1092 3.61221C16.0749 3.96107 16.296 4.25078 16.626 4.29793ZM21.186 7.31936C20.7849 7.26278 20.382 7.21307 19.9792 7.17021C19.632 7.1325 19.3415 7.35964 19.2969 7.68964C19.2506 8.02993 19.4778 8.32564 19.8318 8.37878C20.0255 8.40793 20.2209 8.42678 20.4155 8.45164C20.6229 8.4765 20.8312 8.50736 21.0395 8.52707C21.3806 8.55793 21.6763 8.32393 21.7158 7.9965C21.756 7.66993 21.5263 7.36821 21.186 7.31936ZM11.1446 22.2294C10.5678 22.0451 10.188 21.6251 9.82548 21.1665C9.07976 20.2236 8.31433 19.2962 7.55662 18.3628C7.50948 18.3045 7.4589 18.2479 7.3869 18.1631C7.23862 18.2925 7.10233 18.4202 6.95662 18.5359C6.08062 19.2328 4.96119 19.1179 4.25148 18.2565C3.74319 17.6394 3.24005 17.0188 2.74119 16.3948C2.03405 15.5119 2.14976 14.3942 3.02662 13.6768C4.27376 12.6559 5.54148 11.6582 6.77405 10.6194C8.69147 9.0045 10.0149 6.98336 10.7786 4.59707C10.806 4.51136 10.7795 4.39393 10.7435 4.30564C10.2035 2.9625 11.3049 1.53364 12.7363 1.7325C13.224 1.80021 13.6286 2.02993 13.9398 2.41307C16.038 4.99736 18.138 7.57993 20.2286 10.1702C20.7223 10.7822 20.8038 11.4748 20.4575 12.1828C20.1146 12.8839 19.5223 13.2234 18.7449 13.2302C18.3738 13.2336 18.0403 13.1042 17.7249 12.9114C17.6289 12.8522 17.496 12.8102 17.3872 12.8214C15.66 12.9954 14.034 13.5011 12.5066 14.3248C12.4766 14.3411 12.4483 14.3608 12.3943 14.3951C12.4672 14.4859 12.534 14.5699 12.6018 14.6548C13.3243 15.5625 13.2129 16.6691 12.3198 17.4062C12.1809 17.5202 12.0283 17.6179 11.8518 17.7448C12.2966 18.2805 12.7312 18.7605 13.1186 19.2774C13.9038 20.3248 13.398 21.8179 12.1492 22.1891C11.9983 22.2336 11.8398 22.2542 11.6846 22.2851C11.5038 22.2671 11.3238 22.2482 11.1446 22.2294ZM8.14805 11.0771C8.95976 12.0774 9.75862 13.0622 10.5635 14.0548C12.366 12.8034 14.3786 12.0054 16.5643 11.6599C14.946 9.66621 13.3415 7.68964 11.7258 5.69936C10.9406 7.77021 9.73462 9.57707 8.14805 11.0771ZM7.14862 11.9479C7.11348 11.9736 7.06805 12.0054 7.02519 12.0396C5.96233 12.9019 4.89948 13.7634 3.83833 14.6265C3.4689 14.9265 3.43376 15.2676 3.7329 15.6371C4.20948 16.2259 4.6869 16.8131 5.16433 17.4011C5.50205 17.8168 5.81833 17.8502 6.2349 17.5125C7.27633 16.6682 8.3169 15.8231 9.35748 14.9788C9.41319 14.9334 9.46633 14.8836 9.50148 14.8536C8.70776 13.8731 7.93033 12.9131 7.14862 11.9479ZM19.3895 11.4962C19.4255 11.2116 19.3312 11.0428 19.1992 10.8799C17.1403 8.34536 15.0832 5.80907 13.026 3.27364C12.9866 3.22478 12.9489 3.17421 12.9026 3.13307C12.7149 2.96936 12.5015 2.91793 12.264 3.00536C12.036 3.09021 11.904 3.25736 11.8655 3.4965C11.8286 3.72193 11.9229 3.8985 12.0609 4.06821C14.1198 6.60278 16.1769 9.13907 18.234 11.6745C18.2735 11.7234 18.3112 11.7748 18.3575 11.8151C18.5452 11.9779 18.7595 12.0285 18.9969 11.9419C19.2343 11.8536 19.3595 11.6754 19.3895 11.4962ZM8.39233 17.4122C9.30176 18.5325 10.2146 19.6596 11.1318 20.7834C11.2766 20.9608 11.4712 21.0439 11.7043 21.0071C12.2118 20.9274 12.4038 20.3745 12.0643 19.9536C11.1883 18.8676 10.3072 17.7859 9.42776 16.7034C9.4029 16.6725 9.3729 16.6468 9.3549 16.6279C9.03176 16.8919 8.72062 17.1448 8.39233 17.4122ZM11.1138 16.7634C12.1063 16.0974 11.9495 15.7168 11.2843 15.0654C10.9663 15.3096 10.6449 15.5548 10.3286 15.7974C10.602 16.1351 10.8549 16.4454 11.1138 16.7634ZM7.41948 14.4534C7.42805 14.4791 7.43662 14.5134 7.43662 14.5485C7.45376 14.6085 7.45376 14.6779 7.43662 14.7379C7.41948 14.8845 7.34148 15.0225 7.21205 15.1262C7.16919 15.1519 7.13405 15.1862 7.09119 15.2214C7.04833 15.2556 7.01319 15.2814 6.97033 15.3165L6.9189 15.3594C6.75519 15.4888 6.59148 15.6182 6.41833 15.7476C6.3669 15.7905 6.30605 15.8342 6.24605 15.8771C6.03862 16.0322 5.79776 16.0494 5.56462 15.9199C5.40862 15.8248 5.30576 15.6782 5.26205 15.4974C5.26205 15.4631 5.25348 15.4279 5.25348 15.3936C5.25348 15.3422 5.26205 15.2814 5.27919 15.2214C5.31348 15.1005 5.39148 14.9968 5.49519 14.9111L5.84062 14.6436L5.85776 14.6265L6.0909 14.4456L6.14233 14.4114C6.24605 14.3334 6.34033 14.2562 6.43548 14.1868C6.44405 14.1868 6.44405 14.1782 6.44405 14.1782C6.59919 14.0574 6.7809 14.0231 6.94462 14.0488C6.9789 14.0488 7.01405 14.0574 7.03976 14.0745C7.0569 14.0745 7.06548 14.0831 7.07405 14.0831C7.10833 14.1002 7.14348 14.1174 7.16919 14.1345C7.18633 14.1431 7.20347 14.1602 7.22062 14.1688C7.23776 14.1859 7.2549 14.2031 7.27205 14.2202C7.28919 14.2288 7.30633 14.2459 7.3149 14.2716L7.3749 14.3582C7.3929 14.3925 7.40148 14.4182 7.41948 14.4534Z" fill="#130F40"/>
</svg>
