<svg width="20" height="20" viewBox="0 0 20 20" fill="none" xmlns="http://www.w3.org/2000/svg">
<path d="M18.3356 15.8571H11.557C11.3856 15.4214 11.0356 15.0714 10.5999 14.9071V13.8928H16.4142C16.9285 13.8928 17.3428 13.4786 17.3428 12.9643V2.81427C17.3428 2.29998 16.9285 1.8857 16.4142 1.8857H3.57847C3.06418 1.8857 2.64275 2.29998 2.64275 2.81427V12.9643C2.64275 13.4786 3.06418 13.8928 3.57847 13.8928H9.40704V14.9071C8.96418 15.0714 8.61418 15.4214 8.44275 15.8571H1.66418C1.53561 15.8571 1.42847 15.9643 1.42847 16.0928V16.8143C1.42847 16.9428 1.53561 17.0428 1.66418 17.0428H8.44275C8.61418 17.4857 8.96418 17.8357 9.40704 18C9.59275 18.0786 9.79275 18.1143 9.9999 18.1143C10.2142 18.1143 10.4142 18.0786 10.5999 18C11.0356 17.8357 11.3856 17.4857 11.557 17.0428H18.3356C18.4642 17.0428 18.5713 16.9428 18.5713 16.8143V16.0928C18.5713 15.9643 18.4642 15.8571 18.3356 15.8571ZM3.57847 2.81427H16.4142V7.34998H3.57847V2.81427ZM3.57132 12.9643L3.57847 8.42141H16.4142V12.9643H10.5999H9.40704H3.57132ZM10.5999 16.8643C10.557 16.9357 10.4999 16.9928 10.4356 17.0428C10.3142 17.1357 10.1642 17.1857 9.9999 17.1857C9.84275 17.1857 9.69275 17.1357 9.57132 17.0428C9.50704 17 9.44989 16.9428 9.40704 16.8786C9.31418 16.7571 9.26418 16.6143 9.26418 16.45C9.26418 16.2928 9.31418 16.1428 9.40704 16.0286C9.44989 15.9643 9.50704 15.9071 9.57847 15.8571C9.69989 15.7714 9.84275 15.7214 9.9999 15.7214C10.157 15.7214 10.2999 15.7714 10.4213 15.8571C10.4928 15.9071 10.557 15.9714 10.5999 16.0428C10.6928 16.1571 10.7356 16.3 10.7356 16.45C10.7356 16.6071 10.6856 16.75 10.5999 16.8643ZM6.65347 5.08212C6.65347 5.47712 6.33347 5.79784 5.93775 5.79784C5.54275 5.79784 5.22275 5.47784 5.22275 5.08212C5.22275 4.68641 5.54275 4.36641 5.93775 4.36641C6.33275 4.36641 6.65347 4.68712 6.65347 5.08212ZM9.62132 5.08212C9.62132 5.47712 9.30132 5.79784 8.90561 5.79784C8.51061 5.79784 8.19061 5.47784 8.19061 5.08212C8.19061 4.68641 8.51061 4.36641 8.90561 4.36641C9.30061 4.36641 9.62132 4.68712 9.62132 5.08212ZM10.7356 10.6928C10.7356 10.2978 11.0556 9.97784 11.4513 9.97784C11.8463 9.97784 12.1663 10.2978 12.1663 10.6928C12.1663 11.0878 11.8463 11.4086 11.4513 11.4086C11.0556 11.4078 10.7356 11.0878 10.7356 10.6928ZM6.65347 10.6928C6.65347 11.0878 6.33347 11.4086 5.93775 11.4086C5.54275 11.4086 5.22275 11.0886 5.22275 10.6928C5.22275 10.2978 5.54275 9.97784 5.93775 9.97784C6.33275 9.97784 6.65347 10.2978 6.65347 10.6928ZM13.7035 10.6928C13.7035 10.2978 14.0235 9.97784 14.4192 9.97784C14.8142 9.97784 15.1342 10.2978 15.1342 10.6928C15.1342 11.0878 14.8142 11.4086 14.4192 11.4086C14.0235 11.4078 13.7035 11.0878 13.7035 10.6928Z" fill="#5A577A"/>
</svg>
