<svg width="20" height="20" viewBox="0 0 20 20" fill="none" xmlns="http://www.w3.org/2000/svg">
<path d="M15.7065 9.42643C14.5894 9.66072 13.2879 9.27572 12.5101 8.29143C11.8565 9.06143 11.0286 9.47786 10.0144 9.47572C9.00436 9.47357 8.18008 9.05572 7.52793 8.28715C7.13936 8.75857 6.66222 9.09929 6.09008 9.30286C5.51865 9.50643 4.93365 9.54286 4.33365 9.425C4.26079 9.76215 4.18793 10.0929 4.11722 10.4236C3.91293 11.3714 3.71365 12.3207 3.50436 13.2671C3.10293 15.0836 4.18436 16.9079 5.97508 17.4243C6.15651 17.4764 6.34222 17.5121 6.52936 17.5371C6.82079 17.5757 7.00936 17.8229 6.97151 18.1164C6.93722 18.3871 6.67579 18.5864 6.39579 18.5429C4.67436 18.2757 3.44579 17.3536 2.74865 15.755C2.35222 14.8443 2.30793 13.895 2.52293 12.9271C2.80293 11.6671 3.07151 10.4043 3.34722 9.14286C3.35865 9.09 3.34436 9.06715 3.29865 9.04C2.37722 8.49143 1.93008 7.67929 1.95722 6.60857C1.96436 6.31215 2.05151 6.02715 2.11293 5.73857C2.28151 4.94572 2.43865 4.15 2.62508 3.36143C2.86008 2.37 3.49365 1.75429 4.47508 1.49357C4.65579 1.44572 4.84151 1.42929 5.02793 1.42929C6.4015 1.42929 7.77508 1.43072 9.14865 1.43072C11.0386 1.43143 12.9294 1.435 14.8201 1.42857C15.3251 1.42715 15.8001 1.51857 16.2322 1.78429C16.8586 2.16857 17.2415 2.725 17.3922 3.44572C17.5851 4.36572 17.7829 5.285 17.9836 6.20358C18.2272 7.32 17.7201 8.46358 16.7229 9.02358C16.6565 9.06072 16.6444 9.09286 16.6608 9.16643C16.9458 10.4707 17.2251 11.7764 17.5101 13.0814C17.9908 15.2821 16.7558 17.5307 14.6315 18.3164C14.2901 18.4429 13.9386 18.5293 13.5765 18.5679C13.2801 18.5993 13.0351 18.3957 13.0051 18.0936C12.9779 17.8243 13.1901 17.5757 13.4651 17.5379C14.9294 17.3371 15.9236 16.5407 16.4322 15.155C16.6701 14.5057 16.6651 13.8386 16.5165 13.1657C16.2479 11.9486 15.9886 10.7286 15.7258 9.51C15.7208 9.48429 15.7144 9.45929 15.7065 9.42643ZM8.44222 2.44357C8.42222 2.65786 8.40222 2.86929 8.38222 3.08072C8.32508 3.67715 8.26793 4.27357 8.21151 4.87C8.16008 5.41072 8.1265 5.95358 8.05365 6.49143C7.9565 7.20929 8.21222 7.755 8.80865 8.13929C9.46293 8.56072 10.1701 8.60143 10.8851 8.33215C11.5565 8.07929 11.9872 7.41643 11.9579 6.70215C11.9372 6.19572 11.8679 5.69072 11.8194 5.18572C11.7629 4.58929 11.7058 3.99286 11.6486 3.39643C11.6186 3.07929 11.5886 2.76286 11.5586 2.44715C11.4808 2.43643 8.59793 2.43286 8.44222 2.44357Z" fill="#D500E2"/>
<path d="M13.2057 15.2521C13.1707 15.2279 13.1342 15.2064 13.0985 15.1864C13.0628 15.165 13.0242 15.1429 12.9892 15.1186C12.8514 15.0229 12.7721 14.875 12.7714 14.715C12.7707 14.555 12.8485 14.4071 12.9857 14.3114C13.0214 14.2864 13.0607 14.2636 13.0999 14.2407C13.1335 14.2214 13.1685 14.2014 13.2014 14.1793C13.5749 13.9293 13.6999 13.4607 13.4992 13.065C13.4021 12.8729 13.2921 12.6836 13.1728 12.5021C13.0128 12.26 12.7478 12.1157 12.4621 12.1157C12.3285 12.1157 12.1978 12.1464 12.0735 12.2064C12.0357 12.225 11.9978 12.2457 11.9621 12.2657C11.9214 12.2893 11.8785 12.3136 11.8349 12.3329C11.7678 12.3636 11.6971 12.3786 11.6271 12.3786C11.3735 12.3786 11.1699 12.1914 11.1435 11.9336C11.1385 11.8893 11.1385 11.845 11.1392 11.7971C11.1392 11.77 11.1399 11.7436 11.1392 11.7164C11.1264 11.2364 10.7549 10.8671 10.2735 10.8571C10.0635 10.8529 9.87851 10.8536 9.71065 10.8579C9.23851 10.87 8.87279 11.2379 8.85994 11.7129C8.85922 11.74 8.85994 11.7657 8.85994 11.7971C8.85994 11.8307 8.85994 11.865 8.85851 11.8986C8.84565 12.1714 8.63637 12.3779 8.37351 12.3779C8.29422 12.3779 8.21422 12.3586 8.13851 12.3214C8.10922 12.3071 8.08137 12.29 8.04851 12.2714L8.00779 12.2479C7.85137 12.16 7.69137 12.115 7.53137 12.115C7.22922 12.115 6.95565 12.2807 6.78137 12.5714C6.69494 12.715 6.60279 12.8707 6.51779 13.0293C6.28708 13.4614 6.41851 13.9443 6.83779 14.2043C6.85994 14.2171 6.88208 14.2307 6.90851 14.245C6.94422 14.2657 6.97851 14.285 7.00994 14.3071C7.14851 14.4029 7.22779 14.5514 7.22779 14.7114C7.22851 14.8714 7.15137 15.0193 7.01422 15.115C6.98137 15.1386 6.94565 15.1593 6.90637 15.1821C6.87565 15.2 6.84351 15.2179 6.81351 15.2379C6.50708 15.44 6.36994 15.71 6.41565 16.0179C6.48851 16.4957 6.72351 16.8964 7.09565 17.1757C7.32637 17.3486 7.62137 17.3643 7.92494 17.22C7.96565 17.2007 8.00494 17.1779 8.04065 17.1579C8.06208 17.1457 8.08422 17.1336 8.10565 17.1221C8.19637 17.0736 8.28851 17.0486 8.37994 17.0486C8.64922 17.0486 8.84994 17.2621 8.85922 17.5557C8.88137 18.2757 9.18637 18.5686 9.91279 18.5686L10.0278 18.5679L10.1907 18.5714C10.2292 18.5714 10.2671 18.5707 10.3064 18.5693C10.7635 18.5507 11.1214 18.1907 11.1392 17.7314C11.1399 17.7 11.1399 17.6693 11.1399 17.6321C11.1392 17.5929 11.1392 17.5521 11.1421 17.5129C11.1592 17.2479 11.3678 17.0493 11.6278 17.0493C11.6971 17.0493 11.7657 17.0636 11.8321 17.0929C11.8742 17.1114 11.9157 17.1357 11.9599 17.1614C11.9857 17.1764 12.0114 17.1914 12.0371 17.205C12.1699 17.2757 12.3164 17.3129 12.4599 17.3129C12.7535 17.3129 13.0157 17.1679 13.1807 16.915C13.2971 16.7357 13.4035 16.5521 13.4978 16.3679C13.6999 15.9714 13.5771 15.5029 13.2057 15.2521ZM9.98851 16.1243L9.96422 16.1236C9.21208 16.1121 8.58208 15.4636 8.58922 14.7093C8.59708 13.9214 9.22279 13.305 10.0149 13.305H10.0442C10.7949 13.3193 11.4214 13.9714 11.4114 14.7279C11.4007 15.5107 10.7764 16.1243 9.98851 16.1243Z" fill="#D500E2"/>
</svg>
