<svg width="20" height="20" viewBox="0 0 20 20" fill="none" xmlns="http://www.w3.org/2000/svg">
<path d="M18.415 6.12927C18.0578 5.91856 17.6371 5.79856 17.1935 5.79856H2.83783C2.38355 5.79856 1.95426 5.92356 1.5914 6.14356C1.41783 5.77499 1.37283 5.34642 1.50569 4.91784L2.18069 2.72856C2.41783 1.95856 3.16855 1.42856 4.02212 1.42856H16.0043C16.865 1.42856 17.6207 1.96713 17.8514 2.74642L18.5 4.9357C18.6235 5.35356 18.5807 5.76927 18.415 6.12927Z" fill="#00C17E"/>
<path d="M16.243 7.47144H3.75728C3.11443 7.47144 2.52871 7.72858 2.11443 8.15715C1.68585 8.57144 1.42871 9.15715 1.42871 9.80001C1.42871 11.0857 2.47157 12.1286 3.75728 12.1286H16.243C16.8858 12.1286 17.4716 11.8714 17.8858 11.4429C18.3144 11.0286 18.5716 10.4429 18.5716 9.80001C18.5716 8.51429 17.5287 7.47144 16.243 7.47144ZM3.91443 10.9929C3.25014 10.9929 2.71443 10.4571 2.71443 9.80001C2.71443 9.14286 3.25014 8.60715 3.91443 8.60715C4.57157 8.60715 5.10728 9.14286 5.10728 9.80001C5.10728 10.4571 4.57157 10.9929 3.91443 10.9929ZM16.1144 10.4643H6.68585C6.32157 10.4643 6.02157 10.1643 6.02157 9.80001C6.02157 9.43572 6.32157 9.12858 6.68585 9.12858H16.1144C16.4858 9.12858 16.7858 9.43572 16.7858 9.80001C16.7858 10.1643 16.4858 10.4643 16.1144 10.4643Z" fill="#00C17E"/>
<path d="M16.243 13.9214H3.75728C3.11443 13.9214 2.52871 14.1857 2.11443 14.6C1.68585 15.0214 1.42871 15.6 1.42871 16.2428C1.42871 17.5286 2.47157 18.5714 3.75728 18.5714H16.243C16.8858 18.5714 17.4716 18.3143 17.8858 17.8857C18.3144 17.4714 18.5716 16.8857 18.5716 16.2428C18.5716 14.9643 17.5287 13.9214 16.243 13.9214ZM3.91443 17.4357C3.25014 17.4357 2.71443 16.9071 2.71443 16.2428C2.71443 15.5857 3.25014 15.05 3.91443 15.05C4.57157 15.05 5.10728 15.5857 5.10728 16.2428C5.10728 16.9071 4.57157 17.4357 3.91443 17.4357ZM16.1144 16.9143H6.68585C6.32157 16.9143 6.02157 16.6143 6.02157 16.2428C6.02157 15.8786 6.32157 15.5786 6.68585 15.5786H16.1144C16.4858 15.5786 16.7858 15.8786 16.7858 16.2428C16.7858 16.6143 16.4858 16.9143 16.1144 16.9143Z" fill="#00C17E"/>
</svg>
