<svg width="18" height="18" viewBox="0 0 18 18" fill="none" xmlns="http://www.w3.org/2000/svg">
<path d="M16.3101 7.65814C16.7247 7.65385 17.0608 7.78826 17.3124 8.10211C17.4854 8.31873 17.5669 8.56895 17.5662 8.84705C17.5655 9.53909 17.5662 10.2304 17.5662 10.9225C17.5662 11.4501 17.3303 11.824 16.8484 12.0463C16.3987 12.2529 16.318 12.8056 16.694 13.0937C16.7591 13.1437 16.8391 13.1752 16.9135 13.2131C17.3274 13.4247 17.5555 13.765 17.5633 14.2275C17.5755 14.9582 17.5719 15.6888 17.5648 16.4202C17.5583 17.0529 17.0565 17.5505 16.4245 17.5669C16.3244 17.5698 16.2236 17.5676 16.1235 17.5676C11.3042 17.5676 6.48569 17.5676 1.66642 17.5676C1.033 17.5676 0.50754 17.2037 0.46679 16.6103C0.408881 15.7617 0.425324 14.9053 0.458925 14.0538C0.475369 13.6513 0.748468 13.3625 1.12237 13.1966C1.38117 13.0822 1.53988 12.8999 1.53774 12.609C1.53559 12.3258 1.37974 12.15 1.12809 12.0342C0.667682 11.8225 0.434618 11.4551 0.432474 10.9482C0.429614 10.2512 0.429614 9.55339 0.432474 8.85635C0.435333 8.16645 0.938636 7.6324 1.62639 7.67244C2.11468 7.70104 2.44068 7.53589 2.78027 7.1913C4.87784 5.06084 7.00114 2.95541 9.11301 0.839251C9.47691 0.474642 9.89585 0.326654 10.3891 0.502524C10.5564 0.561862 10.7187 0.67196 10.8474 0.796355C11.3493 1.28036 11.839 1.77722 12.3294 2.27266C12.6869 2.63298 12.7805 3.05836 12.6047 3.53306C12.5082 3.79401 12.5246 4.03065 12.7205 4.23011C12.9221 4.43529 13.163 4.45173 13.4304 4.35307C13.8987 4.18006 14.3212 4.27086 14.6772 4.62188C15.1619 5.09945 15.6409 5.58273 16.1214 6.06459C16.5825 6.52714 16.6511 7.02758 16.333 7.59737C16.3251 7.60953 16.3215 7.62526 16.3101 7.65814ZM13.0193 8.66761C12.955 8.66761 12.9006 8.66761 12.8463 8.66761C9.13231 8.66761 5.4176 8.66761 1.7036 8.66761C1.47768 8.66761 1.43836 8.7055 1.43836 8.92712C1.43765 9.57412 1.44122 10.2211 1.4355 10.8681C1.43407 11.009 1.47697 11.084 1.60994 11.1498C2.21191 11.4479 2.54434 11.9376 2.54363 12.6147C2.54363 13.291 2.21191 13.7814 1.60923 14.0788C1.47697 14.1446 1.43479 14.2204 1.4355 14.3612C1.44122 15.0025 1.43765 15.6445 1.43836 16.2858C1.43836 16.5288 1.47196 16.561 1.72147 16.561C5.42475 16.561 9.12803 16.561 12.8313 16.561C12.8914 16.561 12.9507 16.561 13.0208 16.561C13.0193 13.9237 13.0193 11.3049 13.0193 8.66761ZM7.98773 3.39079C8.01561 3.42225 8.03348 3.4437 8.05279 3.46372C9.42472 4.83636 10.7966 6.20972 12.1729 7.5795C12.2208 7.62669 12.3073 7.65671 12.3766 7.65743C12.9621 7.66315 13.5476 7.66172 14.1332 7.66029C14.3784 7.66029 14.6536 7.72606 14.861 7.63598C15.0804 7.5409 15.2363 7.29782 15.4179 7.11695C15.558 6.97754 15.5573 6.92607 15.4172 6.78523C14.9489 6.31481 14.4763 5.84868 14.0109 5.37541C13.9173 5.28032 13.8336 5.26888 13.7142 5.3175C13.4554 5.42259 13.1838 5.44761 12.9092 5.40043C11.8676 5.22027 11.2942 4.22296 11.6424 3.21707C11.666 3.14915 11.6524 3.02976 11.6059 2.98258C11.1241 2.48642 10.6322 2.00028 10.1439 1.51056C10.051 1.41762 9.96448 1.41619 9.87082 1.51056C9.24742 2.13325 8.62329 2.75595 7.98773 3.39079ZM14.051 16.5603C14.8402 16.5603 15.6095 16.561 16.378 16.5596C16.5239 16.5596 16.5617 16.4645 16.561 16.3351C16.5589 15.6659 16.5582 14.9968 16.5625 14.3276C16.5632 14.2032 16.5153 14.1389 16.4045 14.086C15.7918 13.7893 15.4558 13.2988 15.4543 12.6161C15.4536 11.9334 15.7896 11.4408 16.4016 11.1448C16.521 11.0869 16.5625 11.0161 16.5617 10.8874C16.5575 10.2297 16.5603 9.57126 16.5596 8.91354C16.5596 8.71408 16.5138 8.66904 16.3137 8.66832C15.6059 8.66761 14.8974 8.66761 14.1896 8.66832C14.1468 8.66832 14.1031 8.67476 14.051 8.67833C14.051 11.3049 14.051 13.9223 14.051 16.5603ZM3.76971 7.64956C6.10464 7.64956 8.4417 7.64956 10.7702 7.64956C9.59987 6.47924 8.42955 5.30963 7.26852 4.14861C6.11464 5.3032 4.94432 6.47424 3.76971 7.64956ZM4.66836 14.0395C4.74057 14.0352 4.81564 14.0366 4.88784 14.0381C4.92288 14.0381 4.95719 14.0388 4.99151 14.0388H5.11018C5.20241 14.0388 5.29392 14.0388 5.38614 14.0388C5.54986 14.0381 5.66782 13.9709 5.72716 13.845C5.76219 13.7685 5.77005 13.6828 5.77077 13.6241C5.77363 13.1923 5.77291 12.7527 5.7722 12.328V11.9648C5.7722 11.9334 5.7722 11.8998 5.76934 11.8669C5.75433 11.6781 5.63922 11.5544 5.45334 11.5287C5.42618 11.5244 5.42475 11.5237 5.42832 11.4944C5.42975 11.4815 5.43261 11.4687 5.43547 11.4558L5.43976 11.4372C5.55844 10.8245 5.89016 10.3598 6.42635 10.0567C6.85387 9.81434 7.35646 9.74785 7.96199 9.85437C8.52964 9.95446 8.97503 10.2726 9.28602 10.8002C9.40684 11.0047 9.48477 11.2334 9.52552 11.4994C9.52838 11.5173 9.52695 11.523 9.52695 11.523C9.52623 11.5237 9.52052 11.5273 9.50407 11.528C9.37896 11.538 9.28316 11.6009 9.23383 11.7039C9.20166 11.7732 9.18307 11.8533 9.18236 11.9298C9.1795 12.3802 9.18021 12.8377 9.18021 13.281V13.6299C9.18021 13.657 9.18164 13.6856 9.18522 13.7149C9.20238 13.8844 9.32534 14.0116 9.49263 14.0316C9.54554 14.0381 9.59844 14.0388 9.64992 14.0388H9.67351C9.67851 14.0388 9.68209 14.0388 9.68495 14.0388C9.68495 14.0409 9.68423 14.0431 9.68352 14.0467C9.62418 14.2933 9.54125 14.5807 9.37038 14.8352C9.18593 15.1105 8.94501 15.2441 8.63616 15.2441C8.62901 15.2441 8.62186 15.2441 8.614 15.2441C8.48317 15.2413 8.35448 15.2413 8.23152 15.2449C8.18433 15.2456 8.16074 15.2327 8.13715 15.1934C8.04635 15.0418 7.90408 14.9582 7.72607 14.9525C7.56307 14.9467 7.41294 14.9467 7.26781 14.9525C6.98256 14.9632 6.77237 15.1712 6.76736 15.4472C6.76308 15.7153 6.96754 15.9305 7.2435 15.9483C7.31642 15.9526 7.39006 15.9548 7.4637 15.9548C7.56307 15.9548 7.66173 15.9512 7.75681 15.9476C7.9098 15.9419 8.03634 15.8683 8.11499 15.741C8.15216 15.6802 8.19005 15.6695 8.2594 15.6695H8.26083C8.29372 15.6695 8.3266 15.6695 8.35877 15.6702C8.52177 15.6717 8.69193 15.6731 8.85636 15.6524C9.18951 15.6109 9.4719 15.43 9.6971 15.1162C9.92373 14.7987 10.0295 14.4399 10.0967 14.1618C10.1039 14.1332 10.1082 14.1096 10.1125 14.0895C10.1168 14.0681 10.1218 14.0452 10.1218 14.0424C10.1296 14.0395 10.1611 14.0395 10.1918 14.0395C10.2083 14.0402 10.2269 14.0402 10.249 14.0402H10.2576C10.3691 14.0395 10.4842 14.0395 10.5936 13.983C10.8267 13.8615 10.9611 13.6456 10.9832 13.3575C11.0025 13.0901 11.0061 12.8141 10.9925 12.5103C10.9861 12.3594 10.9561 12.1972 10.901 12.0149C10.8245 11.7632 10.6923 11.6124 10.4971 11.5523C10.4177 11.528 10.3327 11.5266 10.2504 11.5259C10.2261 11.5259 10.2011 11.5259 10.1775 11.5244C10.1525 11.5237 10.1118 11.5216 10.1046 11.5158C10.101 11.5116 10.096 11.4915 10.0917 11.4551C10.0574 11.1763 9.97878 10.9103 9.85724 10.6644C9.59916 10.1403 9.20095 9.7457 8.67405 9.49048C8.36092 9.33891 8.01633 9.25884 7.62026 9.24526C7.0133 9.22453 6.51071 9.33892 6.08319 9.59557C5.57488 9.90156 5.21671 10.3241 5.01867 10.8524C4.9622 11.0025 4.92788 11.1627 4.89428 11.3164C4.88213 11.3736 4.86997 11.4301 4.85639 11.4865C4.84781 11.5208 4.83995 11.5237 4.81635 11.523C4.7899 11.523 4.76273 11.523 4.73557 11.523C4.70125 11.523 4.66765 11.5237 4.63405 11.523C4.47105 11.5173 4.33092 11.5802 4.21797 11.711C4.0807 11.8697 4.00063 12.0699 3.98633 12.2887C3.96346 12.6218 3.9606 12.9557 3.9606 13.2681C3.9606 13.3732 3.99062 13.4804 4.02208 13.5791C4.11645 13.8765 4.36953 14.0574 4.66836 14.0395Z" fill="#5A577A"/>
</svg>
