
<svg width="20" height="20" viewBox="0 0 20 20" fill="none" xmlns="http://www.w3.org/2000/svg">
<path d="M13.7989 8.42654C13.6432 8.44828 13.5051 8.52955 13.4106 8.65552C13.3161 8.78134 13.276 8.93669 13.2974 9.09282C13.3193 9.24787 13.4017 9.38608 13.5295 9.48205C13.6334 9.56011 13.756 9.60128 13.8815 9.60128C13.9086 9.60128 13.9362 9.59929 13.9634 9.59547C15.6468 9.35945 16.9187 7.8968 16.9222 6.19307C16.9222 4.49976 15.7108 3.07231 14.0416 2.79864C14.0109 2.79374 13.9793 2.79129 13.948 2.79129C13.6617 2.79129 13.411 3.00374 13.3648 3.28568C13.3121 3.60588 13.5307 3.91001 13.8515 3.96359C14.9473 4.14267 15.7426 5.08017 15.7426 6.19246C15.7408 7.31073 14.9052 8.27134 13.7989 8.42654Z" fill="#5A577A"/>
<path d="M7.92855 10.5838H7.95824C9.12487 10.5797 10.2188 10.1216 11.0386 9.29413C11.8611 8.46653 12.3113 7.37 12.3062 6.20658C12.3062 3.7925 10.3425 1.82858 7.9287 1.82858C5.51431 1.82858 3.55008 3.79235 3.55008 6.20627C3.55008 7.37367 4.00605 8.47265 4.83396 9.3004C5.66202 10.128 6.761 10.5838 7.92855 10.5838ZM7.9287 3.00806C9.69212 3.00806 11.1268 4.44393 11.1268 6.20888C11.1303 7.05974 10.802 7.86025 10.202 8.46301C9.6035 9.06653 8.80559 9.40081 7.95549 9.40433H7.92855C6.16467 9.40433 4.72957 7.96969 4.72957 6.20627C4.72957 4.44286 6.16467 3.00822 7.9287 3.00806Z" fill="#5A577A"/>
<path d="M15.794 11.7532C15.4692 11.7099 15.1698 11.9387 15.1227 12.2504C15.075 12.5713 15.2981 12.8723 15.6202 12.9214C16.7958 13.0965 17.392 13.4505 17.392 13.9737C17.392 14.1307 17.392 14.4987 16.6201 14.7907C16.473 14.8463 16.3565 14.9559 16.2921 15.0992C16.2272 15.2432 16.2221 15.4037 16.278 15.5511C16.3642 15.7789 16.5857 15.9318 16.8293 15.9318C16.9007 15.9318 16.9711 15.9188 17.0386 15.8934C18.3055 15.4134 18.5713 14.5846 18.5713 13.9735C18.5713 13.1504 18.0892 12.0969 15.794 11.7532Z" fill="#5A577A"/>
<path d="M7.92851 12.1575L7.60265 12.1581C3.50581 12.1809 1.42847 13.1963 1.42847 15.1762C1.42847 18.1417 6.0552 18.1658 7.57571 18.1737H8.25453C12.3512 18.1511 14.4284 17.1367 14.4284 15.159C14.4286 12.4685 10.7188 12.1575 7.92851 12.1575ZM13.2491 15.159C13.2491 16.3771 11.459 16.9947 7.92867 16.9947C4.39816 16.9947 2.60811 16.3829 2.60811 15.1762C2.60811 13.656 5.50142 13.337 7.92867 13.337C11.4589 13.337 13.2491 13.95 13.2491 15.159Z" fill="#5A577A"/>
</svg>
