<svg width="20" height="21" viewBox="0 0 20 21" fill="none" xmlns="http://www.w3.org/2000/svg">
<rect y="0.5" width="20" height="20" rx="5" fill="#F50303"/>
<path d="M11.2683 7.04122H11.2691L10.5418 11.8957H10.5409C10.4975 12.2266 10.3781 12.4777 9.99998 12.4777C9.62184 12.4777 9.50243 12.2266 9.45905 11.8957H9.45812L8.73086 7.04122H8.73169C8.72066 6.95681 8.71436 6.87004 8.71436 6.78111C8.71436 5.99452 9.1471 5.35693 10.0001 5.35693C10.8529 5.35693 11.2858 5.99452 11.2858 6.78111C11.2856 6.87014 11.2793 6.95681 11.2683 7.04122ZM9.99988 13.4273C9.33649 13.4273 8.99988 13.9231 8.99988 14.535C8.99988 15.1468 9.33649 15.6426 9.99988 15.6426C10.6633 15.6426 10.9999 15.1468 10.9999 14.535C10.9999 13.9231 10.6633 13.4273 9.99988 13.4273Z" fill="white"/>
</svg>
