<svg width="20" height="20" viewBox="0 0 20 20" fill="none" xmlns="http://www.w3.org/2000/svg">
<g clip-path="url(#clip0_632_13085)">
<path opacity="0.6" d="M20 13.9405C20 16.7305 17.76 18.9905 14.97 19.0005H14.96H5.05C2.27 19.0005 0 16.7505 0 13.9605V13.9505C0 13.9505 0.006 9.52449 0.014 7.29849C0.015 6.88049 0.495 6.64649 0.822 6.90649C3.198 8.79149 7.447 12.2285 7.5 12.2735C8.21 12.8425 9.11 13.1635 10.03 13.1635C10.95 13.1635 11.85 12.8425 12.56 12.2625C12.613 12.2275 16.767 8.89349 19.179 6.97749C19.507 6.71649 19.989 6.95049 19.99 7.36749C20 9.57649 20 13.9405 20 13.9405Z" fill="white"/>
<path d="M19.4761 3.674C18.6101 2.042 16.9061 1 15.0301 1H5.05013C3.17413 1 1.47013 2.042 0.604128 3.674C0.410128 4.039 0.502128 4.494 0.825128 4.752L8.25013 10.691C8.77013 11.111 9.40013 11.32 10.0301 11.32C10.0341 11.32 10.0371 11.32 10.0401 11.32C10.0431 11.32 10.0471 11.32 10.0501 11.32C10.6801 11.32 11.3101 11.111 11.8301 10.691L19.2551 4.752C19.5781 4.494 19.6701 4.039 19.4761 3.674Z" fill="white"/>
</g>
<defs>
<clipPath id="clip0_632_13085">
<rect width="20" height="20" fill="white"/>
</clipPath>
</defs>
</svg>
