<svg width="45" height="45" viewBox="0 0 45 45" fill="none" xmlns="http://www.w3.org/2000/svg">
<rect width="45" height="45" rx="8" fill="url(#paint0_linear_1103_1986)" fill-opacity="0.08"/>
<path d="M31.1663 17.2745C31.1368 16.2769 30.3147 15.3969 29.3234 15.2948C28.547 15.215 27.7722 15.1387 27.0176 14.9188C25.9231 14.6001 24.9452 14.0721 24.0804 13.3322C23.8892 13.1686 23.709 12.9911 23.509 12.8397C23.0611 12.5001 22.4603 12.499 22.016 12.8428C21.7258 13.0676 21.4617 13.3263 21.1738 13.5545C19.8076 14.6374 18.2291 15.1488 16.5076 15.2581C15.793 15.3036 15.1937 15.5587 14.7619 16.1477C14.5156 16.4836 14.3742 16.8628 14.3616 17.2789C14.3153 18.7951 14.2768 20.3119 14.3983 21.8264C14.5481 23.6982 14.9162 25.513 15.8194 27.1877C16.6306 28.6915 17.7662 29.8925 19.1876 30.8291C20.14 31.4568 21.1652 31.9378 22.2396 32.3161C22.3481 32.3544 22.4597 32.3839 22.5701 32.4175C22.6993 32.4175 22.8283 32.4175 22.9575 32.4175C24.2523 32.0135 25.4623 31.4344 26.578 30.6624C28.4403 29.3733 29.7108 27.6405 30.431 25.499C30.7926 24.4237 30.9828 23.3142 31.0932 22.1882C31.2537 20.552 31.2149 18.913 31.1663 17.2745Z" fill="#1C2649"/>
<path opacity="0.5" d="M23.1325 36.9233H22.3998L22.1685 36.854C22.0522 36.8199 21.9359 36.7858 21.8217 36.7455C20.1757 36.1661 18.7426 35.4675 17.4417 34.61C15.3436 33.2274 13.6976 31.4472 12.5491 29.318C11.4012 27.1902 10.7499 24.7425 10.4992 21.6147C10.3333 19.5412 10.3772 17.4946 10.4465 15.2263C10.4679 14.5308 10.6969 13.8803 11.1272 13.2929C11.7976 12.3783 12.775 11.8743 14.0326 11.7942C16.4547 11.6402 18.4571 10.9114 20.1545 9.56596C20.3318 9.42563 20.5031 9.27522 20.6845 9.11602C20.89 8.93563 21.1027 8.74904 21.3301 8.57278C22.1801 7.91505 23.3289 7.91169 24.1903 8.56425C24.3913 8.71673 24.5725 8.87981 24.748 9.03745C24.8361 9.11654 24.924 9.19562 25.0137 9.27263C26.1381 10.2348 27.4303 10.9326 28.8546 11.3474C29.8222 11.6291 30.8161 11.7314 31.8682 11.8397L31.9434 11.8475C33.653 12.0235 35.0323 13.5054 35.0832 15.2211C35.1558 17.6763 35.198 19.8909 34.9788 22.1292C34.7979 23.9739 34.4958 25.4809 34.0283 26.8716C32.9744 30.0057 31.0911 32.5285 28.4307 34.3702C26.8602 35.4572 25.109 36.3064 23.2258 36.8944L23.1325 36.9233ZM22.5895 35.6311H22.9345C24.6575 35.0837 26.2588 34.302 27.696 33.3075C30.1225 31.6279 31.8408 29.3239 32.8041 26.4596C33.2398 25.1641 33.5223 23.7481 33.6933 22.0028C33.9053 19.8402 33.8637 17.6693 33.7923 15.2591C33.7608 14.1956 32.8723 13.2417 31.8119 13.1324L31.7367 13.1247C30.6735 13.0153 29.5743 12.9022 28.4938 12.5876C26.8923 12.1214 25.4388 11.3363 24.1742 10.2542C24.0763 10.1705 23.9804 10.0844 23.8845 9.99807C23.7217 9.8518 23.568 9.71353 23.41 9.59362C23.0206 9.29848 22.5032 9.29899 22.1217 9.59387C21.9256 9.74558 21.7369 9.91124 21.5371 10.0867C21.3516 10.2493 21.1601 10.4175 20.9572 10.5783C19.0463 12.0927 16.8082 12.912 14.1145 13.0833C13.233 13.1394 12.6148 13.4485 12.1695 14.0563C11.8963 14.429 11.7511 14.8358 11.7382 15.2653C11.6699 17.4949 11.6265 19.5037 11.7873 21.5113C12.023 24.4541 12.6264 26.7395 13.6863 28.7044C14.7322 30.6432 16.2347 32.2667 18.1524 33.5305C19.3644 34.3293 20.7052 34.9822 22.2512 35.5264C22.3432 35.559 22.4368 35.5859 22.5301 35.613L22.5895 35.6311Z" fill="#1C2649"/>
<defs>
<linearGradient id="paint0_linear_1103_1986" x1="0" y1="0" x2="45" y2="45" gradientUnits="userSpaceOnUse">
<stop stop-color="#130F40" stop-opacity="0"/>
<stop offset="1" stop-color="#130F40"/>
</linearGradient>
</defs>
</svg>
