<svg width="30" height="30" viewBox="0 0 30 30" fill="none" xmlns="http://www.w3.org/2000/svg">
<g clip-path="url(#clip0_26910_17353)">
<path d="M28.374 24.66C28.234 24.56 28.084 24.47 27.934 24.39C27.784 24.3 27.624 24.21 27.474 24.11C26.904 23.7 26.564 23.09 26.564 22.42C26.564 21.75 26.894 21.14 27.464 20.74C27.614 20.63 27.774 20.53 27.934 20.44C28.074 20.36 28.224 20.28 28.364 20.18C29.914 19.14 30.444 17.18 29.604 15.53C29.194 14.73 28.744 13.94 28.244 13.19C27.574 12.18 26.464 11.57 25.274 11.57C24.714 11.57 24.174 11.7 23.654 11.95C23.494 12.03 23.344 12.11 23.194 12.2C23.024 12.3 22.844 12.4 22.664 12.48C22.384 12.6 22.084 12.67 21.794 12.67C20.734 12.67 19.884 11.89 19.774 10.81C19.754 10.63 19.754 10.44 19.754 10.24C19.754 10.13 19.764 10.02 19.754 9.91C19.704 7.9 18.154 6.36 16.144 6.32C15.724 6.31 15.324 6.31 14.944 6.31C14.544 6.31 14.164 6.31 13.794 6.32C11.824 6.37 10.304 7.91 10.244 9.89V10.67C10.184 11.81 9.314 12.67 8.214 12.67C7.884 12.67 7.554 12.59 7.234 12.43C7.114 12.37 6.994 12.3 6.864 12.22L6.694 12.13C6.034 11.76 5.364 11.57 4.704 11.57C3.434 11.57 2.294 12.27 1.574 13.48C1.214 14.08 0.823997 14.72 0.473997 15.39C-0.496003 17.19 0.0539966 19.21 1.804 20.29C1.894 20.35 1.994 20.4 2.104 20.46C2.254 20.55 2.394 20.63 2.524 20.72C3.104 21.13 3.434 21.74 3.434 22.41C3.434 23.08 3.114 23.69 2.544 24.1C2.404 24.19 2.254 24.28 2.094 24.38C1.964 24.45 1.834 24.53 1.704 24.61C0.423997 25.45 -0.146003 26.58 0.0539966 27.87C0.163997 28.63 0.383997 29.34 0.693997 30H29.234C29.364 29.77 29.484 29.55 29.594 29.32C30.444 27.67 29.924 25.71 28.374 24.66ZM14.964 27.68H14.864C12.054 27.63 9.714 25.22 9.734 22.4C9.764 19.46 12.104 17.16 15.064 17.15H15.174C17.974 17.21 20.304 19.64 20.264 22.46C20.224 25.39 17.894 27.68 14.964 27.68Z" fill="#E7B3EA"/>
<path d="M26.3019 7.66832C26.3019 6.74396 25.7551 5.92374 24.9349 5.58525C24.5443 5.416 24.1407 5.42901 23.7892 5.44203H23.659C23.646 5.42901 23.646 5.416 23.633 5.40298C23.0471 4.25729 22.2529 3.22877 21.3156 2.39554C21.1984 2.27836 21.0682 2.16119 20.951 2.08308C20.6906 1.88779 20.4433 1.6925 20.1829 1.51023C20.0397 1.43211 19.9095 1.34098 19.7663 1.26286C19.4929 1.10663 19.2064 0.963422 18.907 0.820211C18.6336 0.677 18.3211 0.559826 18.0217 0.468692C17.9045 0.429634 17.7874 0.390577 17.6572 0.364538C17.4228 0.286423 17.1885 0.234346 16.9541 0.195288C16.6807 0.130192 16.4073 0.0911346 16.1209 0.0520769C16.1079 0.0650961 16.1079 0.0520769 16.0949 0.0520769C15.8215 0.0260385 15.535 0.0130192 15.2486 0H15.1314C14.9492 0 14.7539 0.0130192 14.5716 0.0260384C12.801 0.117173 11.1736 0.742095 9.76752 1.73156C9.72846 1.75759 9.71544 1.78363 9.67638 1.80967C9.45505 1.9659 9.23373 2.14817 9.03844 2.31742C8.89523 2.43459 8.76503 2.55177 8.63484 2.68196C7.82765 3.47613 7.12461 4.41352 6.60384 5.45505H6.33044C6.23931 5.44203 6.14817 5.42901 6.05704 5.44203C5.9659 5.44203 5.86175 5.45505 5.78363 5.46807C5.09361 5.54619 4.48171 6.01488 4.19529 6.67886C4.0651 6.9783 4 7.29076 4 7.60322V13.2796C4 13.54 4.02604 13.7874 4.11717 14.0347C4.4036 14.8679 5.15871 15.4408 5.97892 15.4408C6.12213 15.4538 6.26534 15.4538 6.46063 15.4408H6.56479C7.17669 16.7167 8.04898 17.8363 9.10353 18.7216C9.44203 19.0211 9.79355 19.2815 10.1581 19.5158C10.3404 19.646 10.5356 19.7502 10.7309 19.8543C10.9262 19.9715 11.1476 20.0756 11.3428 20.1798C11.7204 20.349 12.111 20.4923 12.5016 20.5964C12.5146 20.6094 12.5276 20.6094 12.5276 20.6094C12.6968 20.6745 12.8661 20.7136 13.0353 20.7526C13.7254 20.9219 14.4024 21 15.1184 21C15.5871 21 16.0558 20.9609 16.5245 20.8828C16.7068 20.8568 16.9151 20.8177 17.0973 20.7787C17.2796 20.7396 17.4489 20.6875 17.6181 20.6485C17.9306 20.5573 18.23 20.4662 18.5164 20.349C18.6596 20.2839 18.7898 20.2319 18.907 20.1798C19.9355 19.7371 20.8599 19.0862 21.6671 18.266C21.7843 18.1488 21.8884 18.0446 22.0056 17.9144C22.1748 17.7322 22.3311 17.5369 22.4873 17.3416C22.9039 16.8208 23.2815 16.261 23.5939 15.6491C23.7371 15.4668 23.8804 15.4148 24.1407 15.4148H24.1798C24.7396 15.4148 25.2734 15.2064 25.651 14.8159C26.0676 14.3862 26.3019 13.8134 26.3019 13.2015C26.3149 11.5741 26.3149 9.80347 26.3019 7.66832Z" fill="#AE00B9"/>
<path d="M17.3838 11.1575L15.8866 6.49658H14.4024L12.9052 11.1575L11.6553 6.54866L11.6293 6.49658H9.57227L11.9938 15.1674H13.6343L15.1575 9.98573L16.6677 15.1674H18.3082L20.7167 6.5747L20.7297 6.49658H18.6597L17.3838 11.1575Z" fill="white"/>
</g>
<defs>
<clipPath id="clip0_26910_17353">
<rect width="30" height="30" fill="white"/>
</clipPath>
</defs>
</svg>
