<svg width="20" height="20" viewBox="0 0 20 20" fill="none" xmlns="http://www.w3.org/2000/svg">
<path d="M14.4715 14.9572H12.6358C12.343 14.9572 12.1001 15.2 12.1001 15.4929C12.1001 15.7929 12.343 16.0286 12.6358 16.0286H14.4715C14.7644 16.0286 15.0073 15.7929 15.0073 15.4929C15.0073 15.2 14.7644 14.9572 14.4715 14.9572ZM10.8644 14.9572H7.69298C7.40012 14.9572 7.15726 15.2 7.15726 15.4929C7.15726 15.7929 7.40012 16.0286 7.69298 16.0286H10.8644C11.1644 16.0286 11.4001 15.7929 11.4001 15.4929C11.4001 15.2 11.1644 14.9572 10.8644 14.9572ZM6.04298 15.0429C5.92869 14.9357 5.7644 14.8643 5.59298 14.8643C5.4144 14.8643 5.25726 14.9357 5.14298 15.0429C5.02869 15.1643 4.95726 15.3214 4.95726 15.4929C4.95726 15.8429 5.24298 16.1286 5.59298 16.1286C5.7644 16.1286 5.92869 16.0572 6.04298 15.9429C6.15726 15.8286 6.22869 15.6714 6.22869 15.4929C6.22869 15.3214 6.15726 15.1643 6.04298 15.0429ZM15.9501 1.46429H3.87155C2.98583 1.46429 2.2644 2.18572 2.2644 3.07144V17C2.2644 17.8857 2.98583 18.6072 3.87155 18.6072H15.9501C16.8358 18.6072 17.5573 17.8857 17.5573 17V3.07144C17.5573 2.18572 16.8358 1.46429 15.9501 1.46429ZM16.4858 17C16.4858 17.3 16.243 17.5357 15.9501 17.5357H3.87155C3.57869 17.5357 3.33583 17.3 3.33583 17V3.07144C3.33583 2.77858 3.57869 2.53572 3.87155 2.53572H15.9501C16.243 2.53572 16.4858 2.77858 16.4858 3.07144V17ZM14.4715 14.9572H12.6358C12.343 14.9572 12.1001 15.2 12.1001 15.4929C12.1001 15.7929 12.343 16.0286 12.6358 16.0286H14.4715C14.7644 16.0286 15.0073 15.7929 15.0073 15.4929C15.0073 15.2 14.7644 14.9572 14.4715 14.9572ZM10.8644 14.9572H7.69298C7.40012 14.9572 7.15726 15.2 7.15726 15.4929C7.15726 15.7929 7.40012 16.0286 7.69298 16.0286H10.8644C11.1644 16.0286 11.4001 15.7929 11.4001 15.4929C11.4001 15.2 11.1644 14.9572 10.8644 14.9572ZM5.59298 14.8643C5.4144 14.8643 5.25726 14.9357 5.14298 15.0429C5.02869 15.1643 4.95726 15.3214 4.95726 15.4929C4.95726 15.8429 5.24298 16.1286 5.59298 16.1286C5.7644 16.1286 5.92869 16.0572 6.04298 15.9429C6.15726 15.8286 6.22869 15.6714 6.22869 15.4929C6.22869 15.3214 6.15726 15.1643 6.04298 15.0429C5.92869 14.9357 5.7644 14.8643 5.59298 14.8643ZM14.4715 14.9572H12.6358C12.343 14.9572 12.1001 15.2 12.1001 15.4929C12.1001 15.7929 12.343 16.0286 12.6358 16.0286H14.4715C14.7644 16.0286 15.0073 15.7929 15.0073 15.4929C15.0073 15.2 14.7644 14.9572 14.4715 14.9572ZM10.8644 14.9572H7.69298C7.40012 14.9572 7.15726 15.2 7.15726 15.4929C7.15726 15.7929 7.40012 16.0286 7.69298 16.0286H10.8644C11.1644 16.0286 11.4001 15.7929 11.4001 15.4929C11.4001 15.2 11.1644 14.9572 10.8644 14.9572ZM5.59298 14.8643C5.4144 14.8643 5.25726 14.9357 5.14298 15.0429C5.02869 15.1643 4.95726 15.3214 4.95726 15.4929C4.95726 15.8429 5.24298 16.1286 5.59298 16.1286C5.7644 16.1286 5.92869 16.0572 6.04298 15.9429C6.15726 15.8286 6.22869 15.6714 6.22869 15.4929C6.22869 15.3214 6.15726 15.1643 6.04298 15.0429C5.92869 14.9357 5.7644 14.8643 5.59298 14.8643Z" fill="#5A577A"/>
<path d="M5.50997 10.3464H14.735C14.9535 10.3464 15.1307 10.1693 15.1307 9.95072V4.53286C15.1307 4.31429 14.9535 4.13715 14.735 4.13715H5.50997C5.2914 4.13715 5.11426 4.31429 5.11426 4.53286V9.95072C5.11426 10.1693 5.2914 10.3464 5.50997 10.3464ZM6.04283 5.065H14.2028V9.41786H6.04283V5.065Z" fill="#5A577A"/>
<path d="M4.84505 10.855L4.57219 11.9693C4.42148 12.5843 4.90505 13.0829 5.65291 13.0829L13.4993 13.0807C14.2472 13.0807 14.9758 12.5814 15.1265 11.9664L15.3993 10.8521L4.84505 10.855ZM13.4986 12.1521L5.65291 12.1543C5.57862 12.1543 5.52362 12.1429 5.48862 12.1314L5.57362 11.7836L14.2115 11.7814C14.1408 11.9264 13.8508 12.1521 13.4986 12.1521Z" fill="#5A577A"/>
<path d="M10.1215 5.62857C9.23583 5.62857 8.5144 6.35 8.5144 7.24286C8.5144 8.12857 9.23583 8.85 10.1215 8.85C11.0144 8.85 11.7358 8.12857 11.7358 7.24286C11.7358 6.35 11.0144 5.62857 10.1215 5.62857ZM10.1215 7.92143C9.74298 7.92143 9.44298 7.62143 9.44298 7.24286C9.44298 6.86428 9.74298 6.55714 10.1215 6.55714C10.5001 6.55714 10.8073 6.86428 10.8073 7.24286C10.8073 7.62143 10.5001 7.92143 10.1215 7.92143Z" fill="#5A577A"/>
</svg>
