<svg width="20" height="20" viewBox="0 0 20 20" fill="none" xmlns="http://www.w3.org/2000/svg">
<path d="M9.61438 10.1943C7.19867 10.1993 5.23081 8.24214 5.22438 5.82643C5.21724 3.4 7.17367 1.435 9.60224 1.42857C12.0244 1.42215 13.9994 3.39429 13.9958 5.815C13.9922 8.23143 12.0337 10.1893 9.61438 10.1943ZM9.60081 8.99786C11.3622 9.00215 12.7972 7.57429 12.7994 5.81429C12.8015 4.06286 11.3822 2.63643 9.6251 2.62572C7.86224 2.61429 6.42438 4.03857 6.4201 5.79929C6.4151 7.56429 7.83581 8.99286 9.60081 8.99786Z" fill="#5A577A"/>
<path d="M10.2029 17.0586C10.2029 16.7843 10.2079 16.5107 10.2015 16.2364C10.1958 16.0043 10.2736 15.8179 10.4408 15.6536C11.0043 15.0986 11.5593 14.5357 12.1215 13.98C12.2 13.9029 12.2258 13.8293 12.2158 13.7193C12.0515 11.95 13.2486 10.6072 14.6743 10.2764C16.3672 9.88358 18.1122 10.9679 18.4915 12.6629C18.8836 14.4179 17.7979 16.1407 16.0722 16.5043C15.7222 16.5779 15.37 16.6079 15.0158 16.5529C14.9143 16.5372 14.8679 16.5907 14.8115 16.6472C14.2572 17.2022 13.6986 17.7536 13.1493 18.3136C12.9765 18.4893 12.7872 18.5771 12.5379 18.5722C11.9843 18.5622 11.43 18.5707 10.8758 18.5686C10.4422 18.5672 10.2065 18.3329 10.2043 17.9007C10.2015 17.6193 10.2029 17.3393 10.2029 17.0586ZM11.3993 17.3714C11.6993 17.3714 11.9729 17.3664 12.2465 17.3736C12.3558 17.3764 12.4308 17.3393 12.5065 17.2629C13.0758 16.6879 13.6529 16.12 14.2193 15.5422C14.4272 15.3293 14.6522 15.2657 14.9436 15.3307C16.3315 15.64 17.6 14.4464 17.3565 13.0707C17.1579 11.9486 16.1115 11.2143 15.0143 11.4272C13.91 11.6407 13.2086 12.6986 13.4472 13.8164C13.515 14.1336 13.4343 14.3664 13.2086 14.5864C12.6386 15.1429 12.0793 15.7107 11.5165 16.2757C11.4658 16.3264 11.3979 16.3657 11.3986 16.4557C11.4008 16.7529 11.3993 17.0507 11.3993 17.3714Z" fill="#5A577A"/>
<path d="M5.75575 17.7807C4.79646 17.7807 3.83789 17.7821 2.87861 17.7807C2.00432 17.7793 1.44003 17.22 1.44218 16.3471C1.44361 15.8614 1.39789 15.3729 1.47003 14.8914C1.59503 14.06 2.06932 13.4293 2.69146 12.9007C3.48646 12.225 4.41861 11.805 5.40361 11.4971C7.17932 10.9429 9.00003 10.7993 10.8472 10.935C11.1815 10.9593 11.4129 11.2343 11.3965 11.57C11.3807 11.8857 11.1172 12.1421 10.7879 12.1257C10.265 12.0993 9.74289 12.0757 9.22003 12.09C7.66503 12.1336 6.15289 12.385 4.72503 13.0329C4.15003 13.2936 3.61575 13.6221 3.17432 14.0829C2.81503 14.4579 2.60575 14.8907 2.63361 15.4257C2.64789 15.705 2.63646 15.9864 2.63646 16.2664C2.63646 16.5814 2.63932 16.5843 2.94646 16.5843C4.84575 16.5843 6.74575 16.5843 8.64503 16.5843C8.70718 16.5843 8.77003 16.5814 8.83146 16.5864C9.17075 16.6129 9.41646 16.8757 9.40932 17.2007C9.40218 17.525 9.14289 17.7786 8.80146 17.7793C7.78575 17.7829 6.77075 17.7807 5.75575 17.7807Z" fill="#5A577A"/>
<path d="M14.5256 13.3871C14.5264 12.905 14.9106 12.5243 15.3928 12.5279C15.8749 12.5314 16.2528 12.9164 16.2485 13.4C16.2442 13.8693 15.8585 14.2529 15.3899 14.255C14.9128 14.2571 14.5249 13.8679 14.5256 13.3871Z" fill="#5A577A"/>
</svg>
