
<svg width="100%" height="100%" viewBox="0 0 39 39" fill="none" xmlns="http://www.w3.org/2000/svg">
<rect width="39" height="39" rx="8" fill="url(#paint0_linear_1120_2309)" fill-opacity="0.08"/>
<path d="M22.1204 12.8373C22.0739 12.0948 22.0994 11.3788 21.9689 10.6928C21.7899 9.75027 20.8719 9.01127 19.9314 8.91627C18.8939 8.81127 17.9274 9.31377 17.5044 10.2318C17.3484 10.5703 17.2694 10.9538 17.2099 11.3253C17.1449 11.7288 17.0639 11.8363 16.6559 11.8383C16.3549 11.8398 16.0539 11.8433 15.7529 11.8368C15.4264 11.8298 15.3004 11.6948 15.2984 11.3693C15.2864 9.32177 16.6899 7.56127 18.6999 7.10277C20.6199 6.66477 22.6299 7.65927 23.5064 9.46877C23.8289 10.1343 23.9699 10.8343 23.9754 11.5668C23.9779 11.9248 23.9804 12.2828 23.9739 12.6408C23.9714 12.7738 23.9994 12.8423 24.1509 12.8678C24.7444 12.9668 25.0774 13.3348 25.1379 13.9333C25.1444 13.9978 25.1474 14.0633 25.1474 14.1283C25.1479 16.1378 25.1489 18.1478 25.1469 20.1573C25.1464 20.8023 24.8549 21.2413 24.3209 21.3903C24.1669 21.4333 23.9999 21.4458 23.8389 21.4458C21.0074 21.4488 18.1759 21.4493 15.3449 21.4473C14.4914 21.4468 14.0384 20.9868 14.0379 20.1308C14.0369 18.1373 14.0369 16.1443 14.0379 14.1508C14.0384 13.3028 14.5014 12.8433 15.3554 12.8423C17.4869 12.8398 19.6189 12.8388 21.7504 12.8368C21.8469 12.8373 21.9439 12.8373 22.1204 12.8373ZM19.0939 18.3723C19.0939 18.5753 19.0904 18.7788 19.0949 18.9818C19.1029 19.3548 19.3029 19.5808 19.6219 19.5833C19.9634 19.5858 20.1584 19.3728 20.1639 18.9773C20.1694 18.5953 20.1724 18.2128 20.1624 17.8313C20.1574 17.6303 20.2164 17.4818 20.3704 17.3418C20.7979 16.9538 20.8129 16.2768 20.4209 15.8533C20.0149 15.4143 19.3479 15.3783 18.9089 15.7718C18.4619 16.1718 18.4019 16.8528 18.8244 17.2713C19.0474 17.4923 19.1204 17.7173 19.0959 18.0068C19.0849 18.1278 19.0934 18.2503 19.0939 18.3723Z" fill="#130F40"/>
<path d="M8.66041 26.6603C8.37141 26.4913 8.11241 26.3423 7.85591 26.1883C7.60341 26.0368 7.52941 25.8423 7.64491 25.6488C7.75941 25.4568 7.96141 25.4288 8.22091 25.5753C8.47341 25.7178 8.72291 25.8648 9.01541 26.0343C9.01541 25.7258 9.01341 25.4618 9.01641 25.1978C9.01741 25.1093 9.02141 25.0188 9.03991 24.9323C9.07941 24.7463 9.21191 24.6498 9.39141 24.6613C9.61191 24.6758 9.72191 24.8263 9.72741 25.0393C9.73541 25.3553 9.72941 25.6713 9.72941 26.0333C10.0024 25.8763 10.2444 25.7343 10.4889 25.5983C10.5734 25.5513 10.6784 25.4703 10.7509 25.4898C10.8844 25.5263 11.0414 25.5983 11.1149 25.7058C11.2184 25.8573 11.1384 26.0248 10.9859 26.1238C10.7749 26.2608 10.5539 26.3818 10.3374 26.5103C10.2624 26.5548 10.1889 26.6018 10.0884 26.6638C10.3759 26.8318 10.6354 26.9808 10.8919 27.1343C11.1449 27.2858 11.2169 27.4798 11.0989 27.6743C10.9889 27.8548 10.7789 27.8873 10.5409 27.7538C10.2814 27.6078 10.0254 27.4563 9.72941 27.2848C9.72941 27.6368 9.73491 27.9428 9.72791 28.2488C9.72091 28.5373 9.54341 28.6998 9.30141 28.6498C9.08641 28.6053 9.02091 28.4433 9.01691 28.2513C9.01041 27.9513 9.01541 27.6508 9.01541 27.2938C8.80991 27.4098 8.63891 27.5053 8.46891 27.6018C8.35591 27.6658 8.24691 27.7383 8.12991 27.7938C7.93241 27.8873 7.73441 27.8303 7.64091 27.6638C7.54441 27.4923 7.59091 27.3003 7.78091 27.1808C8.05541 27.0078 8.33891 26.8498 8.66041 26.6603Z" fill="#130F40"/>
<path d="M30.34 26.6563C30.6115 26.8148 30.8475 26.9523 31.083 27.0903C31.3915 27.2713 31.48 27.4603 31.3535 27.6673C31.2335 27.8643 31.024 27.8793 30.732 27.7123C30.5065 27.5833 30.2815 27.4543 30.055 27.3268C30.0435 27.3203 30.024 27.3278 29.984 27.3303C29.984 27.6273 30.004 27.9278 29.975 28.2238C29.9615 28.3598 29.8855 28.5323 29.78 28.6078C29.5585 28.7658 29.2835 28.5738 29.272 28.2658C29.2605 27.9523 29.2695 27.6383 29.2695 27.2778C28.9655 27.4543 28.703 27.6113 28.436 27.7598C28.2225 27.8788 28.026 27.8473 27.9125 27.6883C27.783 27.5068 27.838 27.2953 28.065 27.1548C28.332 26.9893 28.606 26.8353 28.912 26.6553C28.6105 26.4778 28.34 26.3188 28.069 26.1598C27.9165 26.0703 27.822 25.9458 27.853 25.7603C27.8945 25.5128 28.1565 25.4023 28.4065 25.5358C28.684 25.6838 28.953 25.8483 29.268 26.0293C29.268 25.7043 29.2615 25.4168 29.2715 25.1303C29.2755 25.0203 29.2835 24.8813 29.3495 24.8108C29.426 24.7283 29.568 24.6648 29.6805 24.6668C29.8505 24.6698 29.959 24.8028 29.97 24.9748C29.9855 25.2093 29.9805 25.4453 29.9835 25.6808C29.9845 25.7828 29.9835 25.8843 29.9835 26.0298C30.261 25.8693 30.4975 25.7318 30.7345 25.5958C31.0325 25.4253 31.2325 25.4413 31.354 25.6433C31.4765 25.8468 31.3925 26.0358 31.102 26.2073C30.861 26.3508 30.618 26.4933 30.34 26.6563Z" fill="#130F40"/>
<path d="M15.7769 26.0268C15.7769 25.6748 15.7734 25.3738 15.7779 25.0733C15.7819 24.8148 15.9149 24.6553 16.1184 24.6503C16.3314 24.6448 16.4734 24.8113 16.4764 25.0808C16.4799 25.3813 16.4774 25.6813 16.4774 26.0328C16.6999 25.9043 16.8929 25.7928 17.0859 25.6818C17.1774 25.6293 17.2669 25.5718 17.3619 25.5263C17.5639 25.4288 17.7539 25.4768 17.8529 25.6428C17.9554 25.8143 17.9004 26.0233 17.7054 26.1458C17.4994 26.2758 17.2844 26.3918 17.0744 26.5153C17.0059 26.5553 16.9409 26.6003 16.8484 26.6598C17.1284 26.8248 17.3854 26.9743 17.6404 27.1273C17.8919 27.2783 17.9674 27.4748 17.8534 27.6668C17.7414 27.8553 17.5334 27.8808 17.2754 27.7353C17.0229 27.5923 16.7714 27.4473 16.4774 27.2788C16.4774 27.6173 16.4794 27.9138 16.4769 28.2098C16.4744 28.4968 16.3574 28.6463 16.1374 28.6528C15.9049 28.6598 15.7809 28.5088 15.7774 28.2063C15.7739 27.9153 15.7769 27.6238 15.7769 27.2778C15.5474 27.4093 15.3544 27.5198 15.1614 27.6303C15.0699 27.6828 14.9809 27.7413 14.8854 27.7858C14.6849 27.8798 14.4884 27.8268 14.3949 27.6608C14.3024 27.4968 14.3534 27.2898 14.5359 27.1758C14.8114 27.0038 15.0954 26.8463 15.4134 26.6603C15.1649 26.5148 14.9374 26.3833 14.7124 26.2488C14.6289 26.1988 14.5419 26.1513 14.4694 26.0873C14.3279 25.9623 14.3104 25.8008 14.4034 25.6458C14.4974 25.4903 14.6524 25.4238 14.8234 25.5063C15.0569 25.6188 15.2799 25.7543 15.5074 25.8798C15.5834 25.9218 15.6599 25.9633 15.7769 26.0268Z" fill="#130F40"/>
<path d="M23.2237 26.0298C23.5547 25.8423 23.8392 25.6733 24.1317 25.5188C24.3152 25.4218 24.4912 25.4623 24.5972 25.6418C24.7012 25.8173 24.6617 25.9883 24.4947 26.1158C24.4307 26.1648 24.3582 26.2033 24.2882 26.2448C24.0657 26.3753 23.8422 26.5048 23.5867 26.6538C23.8747 26.8233 24.1312 26.9723 24.3857 27.1248C24.6337 27.2733 24.7132 27.4743 24.6037 27.6638C24.4942 27.8538 24.2822 27.8823 24.0262 27.7378C23.7732 27.5948 23.5222 27.4493 23.2227 27.2773C23.2227 27.6343 23.2232 27.9463 23.2222 28.2583C23.2217 28.4593 23.1447 28.6088 22.9317 28.6473C22.7052 28.6883 22.5312 28.5343 22.5252 28.2788C22.5172 27.9623 22.5232 27.6453 22.5232 27.2778C22.2992 27.4058 22.1057 27.5163 21.9122 27.6268C21.8207 27.6793 21.7317 27.7378 21.6367 27.7833C21.4367 27.8788 21.2412 27.8283 21.1452 27.6633C21.0487 27.4978 21.0962 27.2948 21.2807 27.1773C21.5547 27.0033 21.8382 26.8443 22.1592 26.6548C21.9737 26.5448 21.8117 26.4493 21.6497 26.3533C21.5237 26.2788 21.3932 26.2113 21.2732 26.1288C21.0962 26.0073 21.0442 25.8003 21.1507 25.6403C21.2672 25.4648 21.4337 25.4233 21.6182 25.5183C21.8347 25.6298 22.0427 25.7578 22.2547 25.8778C22.3307 25.9208 22.4077 25.9618 22.5232 26.0248C22.5232 25.6938 22.5212 25.3978 22.5237 25.1013C22.5262 24.8123 22.6652 24.6413 22.8852 24.6488C23.0952 24.6563 23.2202 24.8188 23.2232 25.0993C23.2262 25.3923 23.2237 25.6848 23.2237 26.0298Z" fill="#130F40"/>
<path d="M16.109 31.2542C15.459 31.2542 14.809 31.2557 14.1595 31.2537C13.836 31.2527 13.7545 31.1702 13.7495 30.8532C13.7475 30.7312 13.7475 30.6097 13.7495 30.4877C13.7545 30.1712 13.837 30.0862 14.1605 30.0857C15.4765 30.0837 16.7925 30.0832 18.1085 30.0862C18.418 30.0867 18.498 30.1717 18.5065 30.4772C18.528 31.2547 18.528 31.2547 17.742 31.2547C17.1975 31.2542 16.6535 31.2542 16.109 31.2542Z" fill="#130F40"/>
<path d="M22.8954 31.2542C22.2294 31.2542 21.5634 31.2562 20.8969 31.2532C20.5794 31.2517 20.5089 31.1787 20.5004 30.8667C20.4799 30.0847 20.4799 30.0847 21.2614 30.0847C22.4394 30.0847 23.6169 30.0842 24.7949 30.0852C25.1814 30.0857 25.2539 30.1587 25.2554 30.5367C25.2584 31.2547 25.2584 31.2547 24.5519 31.2547C24.0004 31.2542 23.4479 31.2542 22.8954 31.2542Z" fill="#130F40"/>
<path d="M9.37094 31.2542C8.72094 31.2542 8.07144 31.2557 7.42144 31.2537C7.07744 31.2527 7.00344 31.1777 7.00094 30.8427C6.99494 30.0847 6.99494 30.0847 7.75994 30.0847C8.93794 30.0847 10.1154 30.0842 11.2934 30.0852C11.6874 30.0857 11.7449 30.1447 11.7464 30.5352C11.7489 31.2542 11.7489 31.2542 11.0279 31.2542C10.4759 31.2542 9.92344 31.2542 9.37094 31.2542Z" fill="#130F40"/>
<path d="M29.6119 31.2542C28.9864 31.2542 28.3609 31.2547 27.7354 31.2542C27.2989 31.2537 27.2554 31.2112 27.2544 30.7852C27.2544 30.6877 27.2534 30.5902 27.2544 30.4927C27.2574 30.1622 27.3264 30.0882 27.6524 30.0857C28.1559 30.0822 28.6594 30.0847 29.1634 30.0847C29.9594 30.0847 30.7554 30.0837 31.5514 30.0852C31.9289 30.0857 31.9984 30.1547 31.9999 30.5202C32.0029 31.2547 32.0029 31.2547 31.2689 31.2547C30.7164 31.2542 30.1639 31.2542 29.6119 31.2542Z" fill="#130F40"/>
<defs>
<linearGradient id="paint0_linear_1120_2309" x1="0" y1="0" x2="39" y2="39" gradientUnits="userSpaceOnUse">
<stop stop-color="#130F40" stop-opacity="0"/>
<stop offset="1" stop-color="#130F40"/>
</linearGradient>
</defs>
</svg>
