<svg width="22" height="22" viewBox="0 0 22 22" fill="none" xmlns="http://www.w3.org/2000/svg">
<path d="M0 11C0 4.92487 4.92487 0 11 0V0C17.0751 0 22 4.92487 22 11V11C22 17.0751 17.0751 22 11 22V22C4.92487 22 0 17.0751 0 11V11Z" fill="#FF1B28" fill-opacity="0.1"/>
<path d="M11.9162 11.0001L15.8099 7.10608C16.0634 6.85279 16.0634 6.44325 15.8099 6.18997C15.5567 5.93668 15.1471 5.93668 14.8939 6.18997L10.9999 10.084L7.10614 6.18997C6.85274 5.93668 6.44333 5.93668 6.19005 6.18997C5.93665 6.44325 5.93665 6.85279 6.19005 7.10608L10.0839 11.0001L6.19005 14.8941C5.93665 15.1474 5.93665 15.5569 6.19005 15.8102C6.31628 15.9365 6.48225 16 6.6481 16C6.81395 16 6.9798 15.9365 7.10614 15.8102L10.9999 11.9162L14.8939 15.8102C15.0202 15.9365 15.1861 16 15.3519 16C15.5178 16 15.6836 15.9365 15.8099 15.8102C16.0634 15.5569 16.0634 15.1474 15.8099 14.8941L11.9162 11.0001Z" fill="#FF1B28"/>
</svg>
