<svg width="20" height="20" viewBox="0 0 20 20" fill="none" xmlns="http://www.w3.org/2000/svg">
<path d="M18.192 5.77072C17.9278 5.33786 17.5435 5.01643 17.0835 4.76072L13.7806 2.92286C12.9442 2.45786 12.2799 2.08786 11.7063 1.83715C11.1156 1.57857 10.5813 1.42857 9.9999 1.42857C9.41847 1.42857 8.88418 1.57857 8.29347 1.83715C7.7199 2.08786 7.05561 2.45786 6.21918 2.92286L2.91632 4.76072C2.45704 5.01643 2.07204 5.33786 1.80775 5.77072C1.54204 6.20643 1.42847 6.705 1.42847 7.26429V7.31715C1.42847 7.52072 1.42775 7.72714 1.47704 7.91215C1.60061 8.37714 1.8949 8.67715 2.25561 8.83786C2.58061 8.98286 2.93347 9.00357 3.19847 9.00357H16.802C17.067 9.00357 17.4199 8.98286 17.7449 8.83786C18.1056 8.67715 18.3999 8.37714 18.5235 7.91215C18.572 7.72714 18.5713 7.52072 18.5713 7.31715V7.26429C18.5713 6.705 18.4578 6.20643 18.192 5.77072ZM10.0042 6.81072H9.99704C9.55632 6.81072 9.1999 6.45357 9.1999 6.01357C9.1999 5.57357 9.55704 5.21643 9.99704 5.21643H10.0042C10.4449 5.21643 10.8013 5.57357 10.8013 6.01357C10.8013 6.45357 10.4442 6.81072 10.0042 6.81072Z" fill="#00C9BD"/>
<path d="M15.5813 15.3821H4.41847C2.76704 15.3821 1.42847 16.4529 1.42847 17.7743C1.42847 18.2143 1.8749 18.5714 2.4249 18.5714H17.5742C18.1249 18.5714 18.5713 18.2143 18.5713 17.7743C18.5713 16.4529 17.2328 15.3821 15.5813 15.3821Z" fill="#00C9BD"/>
<path d="M3.46203 14.5007C3.76846 14.425 4.08846 14.385 4.41846 14.385H7.08988C7.23988 14.385 7.3156 14.385 7.36203 14.3386C7.40846 14.2921 7.40846 14.2164 7.40846 14.0664V10.3186C7.40846 10.1679 7.40846 10.0929 7.36203 10.0464C7.31488 10 7.23988 10 7.08988 10H3.19846C3.1856 10 3.17917 10 3.1756 10C3.09131 10.0043 3.02774 10.0679 3.02417 10.1514C3.02417 10.155 3.02417 10.1607 3.02417 10.1721V14.1764C3.02417 14.3807 3.02417 14.4829 3.0856 14.5307C3.1456 14.5786 3.25131 14.5529 3.46203 14.5007Z" fill="#00C9BD"/>
<path d="M15.5813 14.3857C15.9113 14.3857 16.2313 14.4257 16.5378 14.5014C16.7492 14.5536 16.8542 14.5793 16.9156 14.5314C16.977 14.4836 16.977 14.3814 16.977 14.1771V10.1721C16.977 10.1614 16.977 10.1557 16.977 10.1521C16.9735 10.0679 16.9092 10.0043 16.8249 10C16.8213 10 16.8149 10 16.802 10H12.9106C12.7606 10 12.6849 10 12.6385 10.0464C12.592 10.0929 12.592 10.1686 12.592 10.3186V14.0664C12.592 14.2171 12.592 14.2921 12.6385 14.3386C12.6849 14.385 12.7606 14.385 12.9106 14.385L15.5813 14.3857Z" fill="#00C9BD"/>
</svg>
