<svg width="20" height="20" viewBox="0 0 20 20" fill="none" xmlns="http://www.w3.org/2000/svg">
<path d="M9.71694 10.2303C9.71694 10.0416 9.87372 9.8883 10.0667 9.8883C10.2636 9.8883 10.4204 10.0416 10.4204 10.2303V11.1031C10.4204 11.2957 10.2636 11.449 10.0667 11.449C9.87372 11.449 9.71694 11.2957 9.71694 11.1031V10.2303Z" fill="url(#paint0_linear_569_215)"/>
<path d="M8.58735 7.51145C8.59137 6.71734 9.25465 6.07261 10.0707 6.07261C10.8867 6.07261 11.55 6.72127 11.55 7.51932V8.0406H8.58735V7.51145Z" fill="url(#paint1_linear_569_215)"/>
<path fill-rule="evenodd" clip-rule="evenodd" d="M15.6365 3.77095C16.4878 3.85919 17.1938 4.61983 17.2191 5.48212C17.2608 6.89841 17.2941 8.31515 17.1563 9.72944C17.0615 10.7027 16.8982 11.6618 16.5877 12.5913C15.9692 14.4423 14.8782 15.9401 13.2789 17.0544C12.3209 17.7217 11.2818 18.2223 10.1699 18.5714H9.83723C9.80713 18.5622 9.77692 18.5534 9.74672 18.5445C9.68183 18.5255 9.61699 18.5064 9.55338 18.4839C8.63081 18.1568 7.75041 17.7411 6.9326 17.1985C5.71198 16.3889 4.73681 15.3508 4.04017 14.0509C3.26452 12.6034 2.94849 11.0347 2.81977 9.41669C2.71546 8.10762 2.74853 6.79655 2.78826 5.48592C2.79913 5.12626 2.92053 4.79854 3.13203 4.50814C3.50287 3.99903 4.01753 3.77854 4.63117 3.73923C6.10946 3.64473 7.46501 3.20264 8.63814 2.26664C8.75558 2.17294 8.86841 2.07329 8.98123 1.97365C9.10591 1.86354 9.23057 1.75345 9.36141 1.65142C9.74291 1.35431 10.2589 1.35521 10.6435 1.64874C10.7547 1.73351 10.8588 1.82773 10.9629 1.92201C11.0196 1.97334 11.0763 2.02468 11.1342 2.07452C11.8768 2.71409 12.7166 3.17048 13.6564 3.44592C14.2895 3.63161 14.939 3.6988 15.5902 3.76615L15.6365 3.77095ZM12.2535 7.51932C12.2535 6.33993 11.2767 5.38463 10.0627 5.38463C8.86472 5.38463 7.88789 6.33993 7.88387 7.51932V8.12591C7.2029 8.3386 6.70604 8.95541 6.70604 9.69213V11.6452C6.70604 12.5572 7.46218 13.2967 8.3948 13.2967H11.743C12.6752 13.2967 13.4313 12.5572 13.4313 11.6452V9.69213C13.4313 8.95541 12.9349 8.3386 12.2535 8.12591V7.51932Z" fill="url(#paint2_linear_569_215)"/>
<defs>
<linearGradient id="paint0_linear_569_215" x1="2.83787" y1="19" x2="15.2296" y2="-0.261375" gradientUnits="userSpaceOnUse">
<stop stop-color="#130F40"/>
<stop offset="1" stop-color="#656096"/>
</linearGradient>
<linearGradient id="paint1_linear_569_215" x1="2.83787" y1="19" x2="15.2296" y2="-0.261375" gradientUnits="userSpaceOnUse">
<stop stop-color="#130F40"/>
<stop offset="1" stop-color="#656096"/>
</linearGradient>
<linearGradient id="paint2_linear_569_215" x1="2.83787" y1="19" x2="15.2296" y2="-0.261375" gradientUnits="userSpaceOnUse">
<stop stop-color="#130F40"/>
<stop offset="1" stop-color="#656096"/>
</linearGradient>
</defs>
</svg>
