<svg width="20" height="20" viewBox="0 0 20 20" fill="none" xmlns="http://www.w3.org/2000/svg">
<path d="M10.4545 2.35988C10.5233 2.36034 10.5954 2.36082 10.6723 2.36082C10.6516 2.29902 10.6335 2.24245 10.6166 2.1896C10.5826 2.08336 10.5534 1.9921 10.5175 1.90345C10.3502 1.49034 10.0236 1.33339 9.60162 1.48559C7.67579 2.18045 5.75119 2.87944 3.82873 3.5841C3.41669 3.73523 3.26853 4.07868 3.40797 4.50236C3.41745 4.53122 3.4268 4.56023 3.43616 4.58929C3.49192 4.76237 3.5483 4.93737 3.63741 5.09218C3.69358 5.18971 3.83669 5.29445 3.94261 5.29674C4.55471 5.30971 5.16717 5.30833 5.77957 5.30694C5.96975 5.30651 6.15997 5.30608 6.35012 5.30608H8.43988C8.43988 5.1517 8.43725 4.99968 8.43465 4.84941C8.42897 4.52154 8.42344 4.20198 8.44569 3.88437C8.506 3.02353 9.19998 2.38517 10.0608 2.36159C10.1875 2.3581 10.3143 2.35894 10.4545 2.35988Z" fill="#FF3086"/>
<path d="M16.3043 9.93547C16.5537 9.93638 16.806 9.93731 17.0622 9.93731C17.0622 9.70634 17.0627 9.47779 17.0632 9.25091C17.0643 8.75518 17.0654 8.26663 17.0611 7.77908C17.0527 6.83341 16.5256 6.31005 15.5829 6.30974C11.3554 6.30836 7.12803 6.30821 2.90062 6.30974C1.9677 6.31005 1.42969 6.85148 1.42939 7.78582C1.42816 10.8877 1.42816 13.9898 1.42939 17.0918C1.42969 18.0242 1.97275 18.5702 2.90138 18.5705C7.1288 18.5717 11.3562 18.5717 15.5836 18.5705C16.5199 18.5702 17.0513 18.0406 17.0613 17.0972C17.0675 16.512 17.0657 15.9268 17.0639 15.3416L17.0636 15.2225C17.0634 15.1661 17.054 15.1097 17.0438 15.0493C17.0389 15.02 17.0339 14.9897 17.0296 14.958C16.8028 14.958 16.5781 14.9601 16.3549 14.9622C15.8187 14.9672 15.291 14.9722 14.7651 14.9475C14.3946 14.9302 14.0039 14.8624 13.6664 14.7159C12.5923 14.2495 12.0269 13.0799 12.2674 11.9277C12.5049 10.7893 13.5061 9.95736 14.6813 9.9396C15.2176 9.93149 15.7541 9.93345 16.3043 9.93547Z" fill="#FF3086"/>
<path fill-rule="evenodd" clip-rule="evenodd" d="M16.2998 13.9539C16.134 13.9539 15.9682 13.955 15.8024 13.956C15.4334 13.9583 15.0644 13.9607 14.6956 13.9515C13.8577 13.9305 13.2097 13.2687 13.2118 12.455C13.214 11.6342 13.8502 10.9615 14.6869 10.946C15.6239 10.9289 16.5614 10.9336 17.4986 10.9383L17.9956 10.9407C18.3645 10.9422 18.5607 11.133 18.5653 11.4927C18.5736 12.1278 18.573 12.7633 18.5656 13.3986C18.5613 13.766 18.3738 13.9504 18.0043 13.9547C17.6067 13.9594 17.209 13.9583 16.8112 13.9573C16.6407 13.9568 16.4702 13.9564 16.2997 13.9564L16.2998 13.9539ZM14.7152 11.9481C14.4415 11.9497 14.2078 12.1952 14.2187 12.4694C14.2292 12.7337 14.4548 12.9485 14.7206 12.947C14.987 12.9455 15.2099 12.7288 15.2172 12.4641C15.225 12.1898 14.9881 11.9464 14.7152 11.9481Z" fill="#FF3086"/>
<path d="M9.45074 5.2911H15.2864C15.2864 5.15128 15.2874 5.01524 15.2884 4.88185C15.2906 4.58344 15.2928 4.29828 15.2832 4.01362C15.2706 3.64154 15.0138 3.37098 14.6477 3.36868C13.1196 3.35934 11.5915 3.35934 10.0634 3.36884C9.73681 3.37083 9.48901 3.56498 9.461 3.88852C9.43293 4.21148 9.43912 4.53744 9.44537 4.86629C9.44805 5.00737 9.45074 5.14897 9.45074 5.2911Z" fill="#FF3086"/>
</svg>
