<svg width="21" height="19" viewBox="0 0 21 19" fill="none" xmlns="http://www.w3.org/2000/svg">
<path d="M15.4219 0C14.2823 0 13.2376 0.37008 12.3167 1.09998C11.5744 1.68835 11.0407 2.41211 10.6839 3.01288C10.6022 3.15037 10.3978 3.15037 10.3162 3.01287C9.95934 2.41209 9.42562 1.68835 8.6833 1.09998C7.76241 0.37008 6.71766 0 5.57812 0C2.3981 0 0 2.66576 0 6.20081C0 10.0199 2.9918 12.6329 7.52099 16.5885C8.29012 17.2603 9.16191 18.0217 10.068 18.8338C10.1875 18.941 10.3409 19 10.5 19C10.6591 19 10.8125 18.941 10.932 18.8338C11.8382 18.0216 12.7099 17.2602 13.4795 16.5881C18.0082 12.6329 21 10.0199 21 6.20081C21 2.66576 18.6019 0 15.4219 0Z" fill="#FE0002"/>
</svg>
