<svg width="20" height="20" viewBox="0 0 20 20" fill="none" xmlns="http://www.w3.org/2000/svg">
<path d="M12.9715 6.45C13.4358 6.91429 13.4358 7.67857 12.9715 8.15C12.5001 8.62143 11.7429 8.62143 11.2715 8.15C10.8001 7.68571 10.8001 6.92143 11.2715 6.45C11.7358 5.98571 12.5001 5.97857 12.9715 6.45ZM17.2858 10.5714C17.3001 12.2929 16.6644 13.9643 15.5144 15.2786C14.9858 15.8786 14.3072 16.4 13.4429 16.8571L10.3786 18.4929C10.2858 18.5429 10.1786 18.5714 10.0715 18.5714C9.9715 18.5714 9.86436 18.55 9.76436 18.5L6.67864 16.9C5.80721 16.4429 5.1215 15.9357 4.58578 15.3429C3.41436 14.0429 2.76436 12.3786 2.75007 10.65L2.71436 4.96428C2.71436 4.30714 3.13578 3.71429 3.76436 3.5L9.43578 1.52143C9.7715 1.4 10.1501 1.4 10.4858 1.51429L16.1786 3.42143C16.8144 3.63571 17.2429 4.22143 17.2501 4.87857L17.2858 10.5714ZM7.43578 12.3643L8.13578 12.0714L7.97864 11.6L7.24293 11.7786L7.17864 11.0071H6.67864L6.61436 11.7857L5.87864 11.6L5.72864 12.0714L6.4215 12.3643L6.01436 13.0357L6.4215 13.3286L6.93578 12.7214L7.43578 13.3286L7.84293 13.0357L7.43578 12.3643ZM10.5072 12.3643L11.2001 12.0714L11.0501 11.6L10.3144 11.7786L10.2501 11.0071H9.75007L9.68578 11.7857L8.95007 11.6L8.80007 12.0714L9.49293 12.3643L9.08578 13.0357L9.49293 13.3286L10.0072 12.7214L10.5072 13.3286L10.9144 13.0357L10.5072 12.3643ZM13.5786 12.3643L14.2715 12.0714L14.1215 11.6L13.3858 11.7786L13.3215 11.0071H12.8215L12.7572 11.7857L12.0215 11.6L11.8644 12.0714L12.5644 12.3643L12.1572 13.0357L12.5644 13.3286L13.0715 12.7214L13.5786 13.3286L13.9858 13.0357L13.5786 12.3643ZM14.5429 7.3C14.5501 6.09286 13.6572 5.07857 12.4572 4.9C11.3001 4.73571 10.1858 5.42857 9.8215 6.54286C9.80007 6.60714 9.77864 6.62857 9.70721 6.62857C8.38578 6.62143 7.05721 6.62143 5.73578 6.62143C5.54293 6.62143 5.45721 6.71428 5.45721 6.9V7.7C5.45721 7.89286 5.54293 7.97857 5.74293 7.97857H6.25721V8.74286C6.25721 8.92857 6.34293 9.02143 6.53578 9.02143H7.35007C7.5215 9.02143 7.61436 8.92857 7.61436 8.75714V8.06429C7.61436 8.03571 7.6215 8.00714 7.6215 7.97857H9.71436C9.77864 7.97857 9.80007 8 9.8215 8.05714C10.0572 8.76429 10.5215 9.27857 11.2144 9.54286C12.0929 9.89286 12.9286 9.76429 13.6572 9.17143C14.2501 8.69286 14.5429 8.05714 14.5429 7.3Z" fill="#00C17E"/>
</svg>
