<svg width="30" height="30" viewBox="0 0 30 30" fill="none" xmlns="http://www.w3.org/2000/svg">
<g clip-path="url(#clip0_26910_17361)">
<path d="M28.374 24.66C28.234 24.56 28.084 24.47 27.934 24.39C27.784 24.3 27.624 24.21 27.474 24.11C26.904 23.7 26.564 23.09 26.564 22.42C26.564 21.75 26.894 21.14 27.464 20.74C27.614 20.63 27.774 20.53 27.934 20.44C28.074 20.36 28.224 20.28 28.364 20.18C29.914 19.14 30.444 17.18 29.604 15.53C29.194 14.73 28.744 13.94 28.244 13.19C27.574 12.18 26.464 11.57 25.274 11.57C24.714 11.57 24.174 11.7 23.654 11.95C23.494 12.03 23.344 12.11 23.194 12.2C23.024 12.3 22.844 12.4 22.664 12.48C22.384 12.6 22.084 12.67 21.794 12.67C20.734 12.67 19.884 11.89 19.774 10.81C19.754 10.63 19.754 10.44 19.754 10.24C19.754 10.13 19.764 10.02 19.754 9.91C19.704 7.9 18.154 6.36 16.144 6.32C15.724 6.31 15.324 6.31 14.944 6.31C14.544 6.31 14.164 6.31 13.794 6.32C11.824 6.37 10.304 7.91 10.244 9.89V10.67C10.184 11.81 9.314 12.67 8.214 12.67C7.884 12.67 7.554 12.59 7.234 12.43C7.114 12.37 6.994 12.3 6.864 12.22L6.694 12.13C6.034 11.76 5.364 11.57 4.704 11.57C3.434 11.57 2.294 12.27 1.574 13.48C1.214 14.08 0.823997 14.72 0.473997 15.39C-0.496003 17.19 0.0539966 19.21 1.804 20.29C1.894 20.35 1.994 20.4 2.104 20.46C2.254 20.55 2.394 20.63 2.524 20.72C3.104 21.13 3.434 21.74 3.434 22.41C3.434 23.08 3.114 23.69 2.544 24.1C2.404 24.19 2.254 24.28 2.094 24.38C1.964 24.45 1.834 24.53 1.704 24.61C0.423997 25.45 -0.146003 26.58 0.0539966 27.87C0.163997 28.63 0.383997 29.34 0.693997 30H29.234C29.364 29.77 29.484 29.55 29.594 29.32C30.444 27.67 29.924 25.71 28.374 24.66ZM14.964 27.68H14.864C12.054 27.63 9.714 25.22 9.734 22.4C9.764 19.46 12.104 17.16 15.064 17.15H15.174C17.974 17.21 20.304 19.64 20.264 22.46C20.224 25.39 17.894 27.68 14.964 27.68Z" fill="#E7B3EA"/>
<path d="M4.61994 6.944L4.59994 6.931C4.42694 6.816 4.42994 6.563 4.60694 6.452L9.57694 3.331C11.2799 2.26 12.9859 1.19 14.6889 0.119003C14.8069 0.0450025 15.0269 -0.0929975 15.3269 0.0930025C18.0249 1.793 20.7259 3.489 23.4269 5.187L25.3759 6.41C25.3999 6.424 25.4239 6.441 25.4559 6.465C25.6179 6.581 25.6139 6.821 25.4489 6.932L25.4169 6.954C25.3589 6.995 25.3109 7.028 25.2579 7.059L23.1709 8.373C20.5639 10.009 17.9619 11.642 15.3629 13.278C15.2639 13.34 15.1529 13.393 15.0219 13.393C14.9279 13.393 14.8209 13.367 14.7009 13.291C11.9949 11.586 9.28695 9.886 6.57695 8.183L4.76294 7.039C4.71694 7.011 4.66894 6.98 4.61994 6.944Z" fill="#AE00B9"/>
<path d="M26.0029 14.749C25.9469 14.706 25.8749 14.656 25.7839 14.599L21.7309 12.048C21.2839 11.766 20.7109 11.766 20.2639 12.047L15.6399 14.951C15.3919 15.105 15.1699 15.168 14.9399 15.151C14.7309 15.137 14.5579 15.044 14.4019 14.944L9.78494 12.046C9.33694 11.765 8.76394 11.765 8.31594 12.048L7.64794 12.47C6.60894 13.125 5.56694 13.779 4.52694 14.428L4.47594 14.458C4.24694 14.601 4.02694 14.739 3.89094 14.925L3.85794 14.976C3.85594 14.98 3.83694 15.008 3.81994 15.048L3.80594 15.08C3.79694 15.106 3.79294 15.126 3.79294 15.137C3.78894 15.203 3.79494 15.246 3.81194 15.28L3.82394 15.303L3.83594 15.323C3.97094 15.556 4.22294 15.713 4.48994 15.878L4.61094 15.953C7.52294 17.779 10.4309 19.605 13.3389 21.435L14.7609 22.346C14.9059 22.438 15.0949 22.439 15.2419 22.347L15.5119 22.178C15.8789 21.972 16.2239 21.749 16.5749 21.519C16.7409 21.412 16.9039 21.307 17.0669 21.201L17.6449 20.839C19.4389 19.719 21.2289 18.596 23.0169 17.47L25.8089 15.715C25.9729 15.612 26.0869 15.525 26.1479 15.411C26.2649 15.187 26.2059 14.914 26.0029 14.749Z" fill="#AE00B9"/>
<path d="M19.026 3.54201H14.76C14.627 3.54201 14.51 3.61001 14.51 3.68601V4.22001C14.51 4.30001 14.622 4.36401 14.76 4.36401H17.851V6.14901C17.851 6.22901 17.963 6.29301 18.101 6.29301H19.026C19.092 6.29301 19.156 6.27801 19.203 6.25101C19.25 6.22401 19.276 6.18701 19.276 6.14901V3.68601C19.276 3.60701 19.164 3.54201 19.026 3.54201Z" fill="white"/>
<path d="M15.288 7.62901H12.197V5.84401C12.197 5.80601 12.171 5.76901 12.124 5.74201C12.077 5.71501 12.013 5.70001 11.947 5.70001H11.022C10.956 5.70001 10.892 5.71501 10.845 5.74201C10.798 5.76901 10.772 5.80601 10.772 5.84401V8.30701C10.772 8.38701 10.884 8.45101 11.022 8.45101H15.288C15.354 8.45101 15.418 8.43601 15.465 8.40901C15.512 8.38201 15.538 8.34501 15.538 8.30701V7.77301C15.538 7.69401 15.426 7.62901 15.288 7.62901Z" fill="white"/>
<path d="M13.261 3.57801C13.197 3.56701 13.129 3.57101 13.071 3.59001L12.585 3.74301C12.464 3.78101 12.419 3.86901 12.485 3.93901L16.639 8.34701C16.671 8.38101 16.724 8.40601 16.788 8.41601C16.852 8.42701 16.92 8.42301 16.978 8.40401L17.464 8.25101C17.486 8.24401 17.505 8.23601 17.521 8.22601C17.597 8.18201 17.618 8.11201 17.564 8.05501L13.41 3.64701C13.378 3.61401 13.324 3.58901 13.261 3.57801Z" fill="white"/>
</g>
<defs>
<clipPath id="clip0_26910_17361">
<rect width="30" height="30" fill="white"/>
</clipPath>
</defs>
</svg>
