<svg width="20" height="20" viewBox="0 0 20 20" fill="none" xmlns="http://www.w3.org/2000/svg">
<path d="M18.4571 11.1643C17.1143 10.3857 15.7643 9.60714 14.4214 8.82857C14.35 8.78571 14.2928 8.78571 14.2143 8.82857C12.8714 9.60714 11.5285 10.3857 10.1857 11.1571C10.1 11.2071 10.0643 11.2571 10.0643 11.3571C10.0714 12.9071 10.0714 14.4643 10.0643 16.0143C10.0643 16.1143 10.1 16.1643 10.1785 16.2071C11.5214 16.9786 12.8643 17.7571 14.2 18.5357C14.2857 18.5857 14.35 18.5857 14.4357 18.5357C15.7714 17.7571 17.1071 16.9857 18.4428 16.2143C18.5357 16.1643 18.5714 16.1071 18.5714 16C18.5643 15.2214 18.5714 14.4429 18.5714 13.6714C18.5714 12.9 18.5643 12.1357 18.5714 11.3714C18.5714 11.2714 18.55 11.2143 18.4571 11.1643ZM13.8143 17.1071C13.7714 17.1286 13.75 17.1071 13.7285 17.0929C12.8785 16.6 12.0285 16.1143 11.1785 15.6214C11.0928 15.5786 11.0714 15.5214 11.0714 15.4286C11.0785 14.5429 11.0714 13.6643 11.0714 12.7786V12.4C11.1143 12.4214 11.1428 12.4286 11.1643 12.4429C12.0214 12.9357 12.8714 13.4286 13.7214 13.9214C13.8071 13.9714 13.8143 14.0286 13.8143 14.1071V17.1071ZM14.4 13.0643C14.3214 13.1071 14.2785 13.0786 14.2143 13.0429C13.8643 12.8429 13.5143 12.6357 13.1643 12.4357C12.6428 12.1357 12.1214 11.8357 11.5785 11.5214C12.4857 10.9929 13.3643 10.4929 14.2357 9.97857C14.3143 9.92857 14.3643 9.95714 14.4285 10C14.9 10.2714 15.3785 10.5429 15.85 10.8143C16.2428 11.05 16.6428 11.2786 17.0357 11.5071C17.0214 11.5286 17.0214 11.5429 17.0143 11.55C16.1357 12.05 15.2643 12.5571 14.4 13.0643ZM17.5643 15.45C17.5643 15.55 17.5214 15.5857 17.45 15.6286C16.6143 16.1071 15.7857 16.5929 14.95 17.0714C14.9143 17.0929 14.8857 17.1357 14.8357 17.1143C14.8285 17.1071 14.8214 17.0929 14.8214 17.0857V14.0714C14.8214 13.9786 14.8714 13.95 14.9285 13.9071C15.4143 13.6357 15.8928 13.3571 16.3785 13.0786C16.7643 12.85 17.1571 12.6286 17.5643 12.3929V15.45ZM6.22854 1.42857C3.57139 1.44285 1.41425 3.61428 1.42854 6.27857C1.44282 8.93571 3.60711 11.0929 6.26425 11.0857C8.92854 11.0786 11.0785 8.90714 11.0714 6.23571C11.0571 3.57142 8.88568 1.41428 6.22854 1.42857ZM6.24282 10.0786C4.13568 10.0786 2.42854 8.35714 2.43568 6.25C2.43568 4.14285 4.15711 2.42857 6.25711 2.43571C8.36425 2.43571 10.0714 4.15714 10.0643 6.26428C10.0643 8.37143 8.34997 10.0857 6.24282 10.0786ZM7.34997 15.2714C7.70711 15.6357 8.06425 15.9929 8.41425 16.3429C7.78568 16.9643 7.14997 17.6071 6.52139 18.2429C6.30711 18.0286 6.07854 17.8 5.82854 17.55C6.05711 17.3286 6.28568 17.1 6.53568 16.8571H3.58568H3.46425C3.03568 16.8571 2.69282 16.5143 2.69282 16.0857V15.9643V12.5643C2.69282 12.2929 2.91425 12.0714 3.19282 12.0714C3.46425 12.0714 3.68568 12.2929 3.68568 12.5643V15.7286C3.68568 15.7857 3.72854 15.8286 3.78568 15.8286H6.58568L6.54997 15.7929L6.35711 15.6071C6.18568 15.4429 6.02139 15.2786 5.86425 15.1286C6.09282 14.8929 6.32139 14.6643 6.52854 14.45C6.79997 14.7214 7.07854 15 7.34997 15.2714ZM12.7257 4.77214C12.3685 4.40785 12.0114 4.05071 11.6614 3.70071C12.29 3.07928 12.9257 2.43642 13.5543 1.80071C13.7685 2.015 13.9971 2.24357 14.2471 2.49357C14.0185 2.715 13.79 2.94357 13.54 3.18642H16.49H16.6114C17.04 3.18642 17.3828 3.52928 17.3828 3.95785V4.07928V7.47928C17.3828 7.75071 17.1614 7.97214 16.8828 7.97214C16.6114 7.97214 16.39 7.75071 16.39 7.47928V4.315C16.39 4.25785 16.3471 4.215 16.29 4.215H13.49L13.5257 4.25071L13.7185 4.43642C13.89 4.60071 14.0543 4.765 14.2114 4.915C13.9828 5.15071 13.7543 5.37928 13.5471 5.59357C13.2757 5.32214 12.9971 5.04357 12.7257 4.77214ZM5.52925 5.45857C5.53639 5.67143 5.69282 5.80285 5.93711 5.80857C6.22354 5.815 6.51068 5.785 6.79568 5.82785C7.41639 5.92143 7.87354 6.44857 7.87568 7.07071C7.87782 7.69143 7.42068 8.22357 6.80211 8.32C6.77282 8.32428 6.74425 8.33143 6.70425 8.34C6.70425 8.55785 6.70425 8.77214 6.70425 8.995C6.39854 8.995 6.10425 8.995 5.79854 8.995C5.79854 8.77571 5.79854 8.56071 5.79854 8.35C4.98497 8.11285 4.62354 7.71285 4.62639 7.05142C4.92068 7.05142 5.21568 7.05142 5.51139 7.05142C5.60068 7.36857 5.68639 7.43357 6.01854 7.43357C6.20497 7.43357 6.39068 7.43643 6.57711 7.43285C6.80711 7.42785 6.96568 7.28143 6.96925 7.07928C6.97282 6.87214 6.80925 6.72 6.57211 6.71642C6.34068 6.71285 6.10854 6.71857 5.87782 6.715C5.20568 6.70428 4.66997 6.19571 4.62568 5.52785C4.58211 4.86643 5.05425 4.29143 5.72068 4.19428C5.73997 4.19143 5.75925 4.18571 5.79639 4.17714C5.79639 3.95714 5.79639 3.74642 5.79639 3.525C6.09711 3.525 6.39068 3.525 6.69711 3.525C6.69711 3.73928 6.69711 3.95357 6.69711 4.17857C7.08997 4.22143 7.40425 4.39 7.63425 4.70357C7.79711 4.92571 7.87068 5.17714 7.87711 5.46071C7.57782 5.46071 7.28282 5.46071 6.98711 5.46071C6.89139 5.14143 6.81282 5.08357 6.47425 5.08357C6.29282 5.08357 6.11211 5.08071 5.93068 5.08428C5.68639 5.08857 5.52282 5.24357 5.52925 5.45857Z" fill="#5A577A"/>
</svg>
