<svg width="30" height="30" viewBox="0 0 30 30" fill="none" xmlns="http://www.w3.org/2000/svg">
<path fill-rule="evenodd" clip-rule="evenodd" d="M21.6033 10.6098C19.4331 10.6098 17.6611 8.85098 17.6611 6.6808V3.9885L24.6252 10.6098H21.6033ZM17.28 17.3986H15.04V19.64C15.04 20.1858 14.5969 20.6288 14.0511 20.6288C13.5053 20.6288 13.0623 20.1858 13.0623 19.64V17.3986H10.8208C10.2737 17.3986 9.832 16.9569 9.832 16.4097C9.832 15.8639 10.2737 15.4209 10.8208 15.4209H13.0623V13.1795C13.0623 12.6336 13.5053 12.1906 14.0511 12.1906C14.5969 12.1906 15.04 12.6336 15.04 13.1795V15.4209H17.28C17.8259 15.4209 18.2689 15.8639 18.2689 16.4097C18.2689 16.9569 17.8259 17.3986 17.28 17.3986ZM26.475 10.8419C26.475 10.7891 26.475 10.7496 26.4618 10.6968C26.4222 10.4595 26.3827 10.2222 26.3431 9.99805C26.3168 9.85301 26.2508 9.73435 26.1454 9.62888L18.6697 2.50918C18.5774 2.41689 18.4455 2.35097 18.3137 2.33778C18.0896 2.31141 17.8522 2.28505 17.6149 2.25868C17.5754 2.24549 17.5226 2.24549 17.4831 2.24549C16.7184 2.17957 15.8745 2.14001 14.9912 2.14001C6.34204 2.14001 3.27002 5.50209 3.27002 14.995C3.27002 24.4748 6.34204 27.85 14.9912 27.85C23.6535 27.85 26.7255 24.4748 26.7255 14.995C26.7255 13.4129 26.6464 12.0417 26.475 10.8419Z" fill="#AE00B9"/>
</svg>
