<svg width="20" height="20" viewBox="0 0 20 20" fill="none" xmlns="http://www.w3.org/2000/svg">
<path d="M2.65775 4.40857C2.69704 4.12215 2.93561 3.9 3.22775 3.88C3.29132 3.87572 3.35561 3.87857 3.41918 3.87857C5.61275 3.87857 7.80632 3.87857 9.9999 3.87857C12.2249 3.87857 14.4506 3.87786 16.6763 3.87929C17.152 3.87929 17.4599 4.275 17.3092 4.69143C17.2206 4.93643 17.0385 5.07 16.7813 5.1C16.7178 5.10715 16.6535 5.10286 16.5899 5.10286C12.1963 5.10286 7.80275 5.10286 3.40918 5.10143C3.29632 5.10143 3.17704 5.09715 3.07061 5.06429C2.78847 4.97715 2.61847 4.695 2.65775 4.40857ZM4.35847 2.63786C4.44418 2.65643 4.53561 2.65357 4.6249 2.65357C8.20847 2.65429 11.792 2.65429 15.3756 2.65429C15.4328 2.65429 15.4906 2.65786 15.5478 2.65215C15.8056 2.62643 15.9899 2.49429 16.082 2.25143C16.2392 1.83715 15.932 1.43143 15.4606 1.43072C13.6435 1.42857 11.8256 1.43 10.0085 1.43C8.81632 1.43 7.62347 1.43 6.43132 1.43C5.78061 1.43 5.13061 1.42572 4.4799 1.43215C4.15847 1.435 3.90561 1.68 3.87918 1.98929C3.85418 2.29143 4.05704 2.57143 4.35847 2.63786ZM4.44418 7.93786C4.00132 7.93786 3.64061 8.29857 3.64061 8.74143C3.64061 9.18429 4.00132 9.545 4.44418 9.545C4.88704 9.545 5.24775 9.18429 5.24775 8.74143C5.24775 8.29857 4.88632 7.93786 4.44418 7.93786ZM16.6142 7.36286H3.37847C2.79561 7.36286 2.4999 7.65857 2.4999 8.24143V9.24143C2.4999 9.82429 2.79561 10.12 3.37847 10.12H16.6213C17.2042 10.12 17.4999 9.82429 17.4999 9.24143V8.24143C17.4999 7.65786 17.202 7.36286 16.6142 7.36286ZM16.6142 6.29143C17.7928 6.29143 18.5713 7.06286 18.5713 8.24143V9.24143C18.5713 10.4129 17.7928 11.1914 16.6213 11.1914H3.37847C2.20704 11.1914 1.42847 10.4129 1.42847 9.24143V8.24143C1.42847 7.07 2.20704 6.29143 3.37847 6.29143H16.6142ZM14.7949 8.75357C14.7949 8.47786 14.567 8.255 14.2906 8.255H6.93418C6.66347 8.255 6.43561 8.47786 6.43561 8.75357C6.43561 9.02929 6.66418 9.25215 6.93418 9.25215H14.2906C14.5663 9.25215 14.7949 9.02929 14.7949 8.75357ZM6.86704 15.0643H10.2285C10.4142 15.0643 10.557 14.9143 10.557 14.7357C10.557 14.55 10.4142 14.4071 10.2285 14.4071H6.86704C6.68847 14.4071 6.53847 14.55 6.53847 14.7357C6.53847 14.9143 6.68847 15.0643 6.86704 15.0643ZM15.6713 15.6H7.01704C6.75275 15.6 6.53847 15.8143 6.53847 16.0786C6.53847 16.3429 6.75275 16.55 7.01704 16.55H15.6713C15.9356 16.55 16.1499 16.3429 16.1499 16.0786C16.1499 15.8143 15.9356 15.6 15.6713 15.6ZM16.6213 13.3143H3.37847C2.79561 13.3143 2.4999 13.61 2.4999 14.1929V16.6214C2.4999 17.2043 2.79561 17.5 3.37847 17.5H16.6213C17.2042 17.5 17.4999 17.2043 17.4999 16.6214V14.1929C17.4999 13.61 17.2042 13.3143 16.6213 13.3143ZM16.6213 12.2429C17.7928 12.2429 18.5713 13.0214 18.5713 14.1929V16.6214C18.5713 17.7929 17.7928 18.5714 16.6213 18.5714H3.37847C2.20704 18.5714 1.42847 17.7929 1.42847 16.6214V14.1929C1.42847 13.0214 2.20704 12.2429 3.37847 12.2429H16.6213ZM5.4449 15.8729C5.43275 15.7421 5.38918 15.6243 5.31418 15.525C5.22132 15.4071 5.09061 15.3136 4.93561 15.2521C4.84275 15.215 4.74347 15.1836 4.6499 15.1529L4.51347 15.1036C4.42632 15.0786 4.3399 15.0479 4.27132 15.0043C4.19704 14.9607 4.17847 14.905 4.19061 14.8179C4.20275 14.7621 4.24061 14.725 4.32132 14.6936C4.45775 14.6379 4.61275 14.625 4.78061 14.6629C4.8549 14.675 4.92347 14.7 4.98561 14.7314C5.03561 14.7564 5.09704 14.7436 5.12847 14.6943L5.32061 14.3964L5.33918 14.3593L5.32061 14.3286L5.28347 14.3036C5.13418 14.2164 4.97275 14.1607 4.78061 14.1357V13.9057C4.78061 13.85 4.73061 13.8 4.6749 13.8H4.3649C4.33418 13.8 4.30918 13.8121 4.29061 13.8314C4.27204 13.8564 4.2599 13.8807 4.2599 13.9121V14.1607C4.24775 14.1671 4.22847 14.1729 4.21632 14.1729C4.18561 14.185 4.15418 14.1979 4.12347 14.21C3.95561 14.2786 3.83775 14.3714 3.75704 14.5079C3.58918 14.7807 3.63275 15.2157 3.98704 15.445C4.1049 15.5193 4.23561 15.5629 4.35918 15.6064L4.40918 15.625C4.53347 15.6686 4.65132 15.7057 4.76918 15.7493C4.8499 15.78 4.89347 15.8236 4.91847 15.88C4.95561 16.0043 4.93061 16.0721 4.81918 16.1286C4.80061 16.135 4.77561 16.1407 4.75061 16.1471C4.53347 16.2029 4.34061 16.1779 4.16061 16.0729C4.12989 16.0543 4.1049 16.0293 4.06775 16.0043C4.02418 15.9729 3.96847 15.9729 3.93132 16.0107L3.6999 16.2264C3.68132 16.245 3.66918 16.27 3.66918 16.3007C3.66918 16.3314 3.68132 16.3564 3.70632 16.375C3.85561 16.5179 4.04132 16.6107 4.25918 16.6607V16.9093C4.25918 16.965 4.30847 17.015 4.3649 17.015H4.67561C4.73775 17.015 4.78132 16.9657 4.78132 16.9093V16.6736C4.85561 16.655 4.93632 16.6364 5.01132 16.6114C5.1849 16.5371 5.30918 16.425 5.3899 16.27C5.4449 16.1586 5.46347 16.0279 5.4449 15.8729Z" fill="#5A577A"/>
</svg>
