<svg xmlns="http://www.w3.org/2000/svg" width="24" height="24" viewBox="0 0 24 24" fill="none">
  <path d="M18.6565 5.71221C18.8879 5.85878 19.1279 5.85278 19.3414 5.6925C19.8068 5.34278 20.2662 4.9845 20.7196 4.61764C20.9965 4.39307 21.0308 4.02964 20.8242 3.76564C20.6125 3.49564 20.2448 3.45107 19.9542 3.67307C19.5068 4.01507 19.0611 4.35707 18.6274 4.71536C18.5099 4.81221 18.4396 4.9665 18.3848 5.04278C18.3634 5.36936 18.4396 5.57421 18.6565 5.71221ZM16.6259 4.29793C16.9439 4.34336 17.2559 4.13164 17.3082 3.8025C17.3768 3.37564 17.4308 2.94536 17.4659 2.51421C17.4925 2.18336 17.2354 1.90478 16.9156 1.87564C16.5908 1.8465 16.3088 2.07107 16.2591 2.4045C16.2291 2.60507 16.2085 2.8065 16.1828 3.00793C16.1588 3.20936 16.1305 3.40993 16.1091 3.61221C16.0748 3.96107 16.2959 4.25078 16.6259 4.29793ZM21.1859 7.31936C20.7848 7.26278 20.3819 7.21307 19.9791 7.17021C19.6319 7.1325 19.3414 7.35964 19.2968 7.68964C19.2505 8.02993 19.4776 8.32564 19.8316 8.37878C20.0254 8.40793 20.2208 8.42678 20.4154 8.45164C20.6228 8.4765 20.8311 8.50736 21.0394 8.52707C21.3805 8.55793 21.6762 8.32393 21.7156 7.9965C21.7559 7.66993 21.5262 7.36821 21.1859 7.31936ZM11.1445 22.2294C10.5676 22.0451 10.1879 21.6251 9.82535 21.1665C9.07964 20.2236 8.31421 19.2962 7.5565 18.3628C7.50935 18.3045 7.45878 18.2479 7.38678 18.1631C7.2385 18.2925 7.10221 18.4202 6.9565 18.5359C6.0805 19.2328 4.96107 19.1179 4.25135 18.2565C3.74307 17.6394 3.23992 17.0188 2.74107 16.3948C2.03392 15.5119 2.14964 14.3942 3.0265 13.6768C4.27364 12.6559 5.54135 11.6582 6.77392 10.6194C8.69135 9.0045 10.0148 6.98336 10.7785 4.59707C10.8059 4.51136 10.7794 4.39393 10.7434 4.30564C10.2034 2.9625 11.3048 1.53364 12.7362 1.7325C13.2239 1.80021 13.6285 2.02993 13.9396 2.41307C16.0379 4.99736 18.1379 7.57993 20.2285 10.1702C20.7222 10.7822 20.8036 11.4748 20.4574 12.1828C20.1145 12.8839 19.5222 13.2234 18.7448 13.2302C18.3736 13.2336 18.0402 13.1042 17.7248 12.9114C17.6288 12.8522 17.4959 12.8102 17.3871 12.8214C15.6599 12.9954 14.0339 13.5011 12.5065 14.3248C12.4765 14.3411 12.4482 14.3608 12.3942 14.3951C12.4671 14.4859 12.5339 14.5699 12.6016 14.6548C13.3242 15.5625 13.2128 16.6691 12.3196 17.4062C12.1808 17.5202 12.0282 17.6179 11.8516 17.7448C12.2965 18.2805 12.7311 18.7605 13.1185 19.2774C13.9036 20.3248 13.3979 21.8179 12.1491 22.1891C11.9982 22.2336 11.8396 22.2542 11.6845 22.2851C11.5036 22.2671 11.3236 22.2482 11.1445 22.2294ZM8.14792 11.0771C8.95964 12.0774 9.7585 13.0622 10.5634 14.0548C12.3659 12.8034 14.3785 12.0054 16.5642 11.6599C14.9459 9.66621 13.3414 7.68964 11.7256 5.69936C10.9405 7.77021 9.7345 9.57707 8.14792 11.0771ZM7.1485 11.9479C7.11335 11.9736 7.06792 12.0054 7.02507 12.0396C5.96221 12.9019 4.89935 13.7634 3.83821 14.6265C3.46878 14.9265 3.43364 15.2676 3.73278 15.6371C4.20935 16.2259 4.68678 16.8131 5.16421 17.4011C5.50192 17.8168 5.81821 17.8502 6.23478 17.5125C7.27621 16.6682 8.31678 15.8231 9.35735 14.9788C9.41307 14.9334 9.46621 14.8836 9.50135 14.8536C8.70764 13.8731 7.93021 12.9131 7.1485 11.9479ZM19.3894 11.4962C19.4254 11.2116 19.3311 11.0428 19.1991 10.8799C17.1402 8.34536 15.0831 5.80907 13.0259 3.27364C12.9865 3.22478 12.9488 3.17421 12.9025 3.13307C12.7148 2.96936 12.5014 2.91793 12.2639 3.00536C12.0359 3.09021 11.9039 3.25736 11.8654 3.4965C11.8285 3.72193 11.9228 3.8985 12.0608 4.06821C14.1196 6.60278 16.1768 9.13907 18.2339 11.6745C18.2734 11.7234 18.3111 11.7748 18.3574 11.8151C18.5451 11.9779 18.7594 12.0285 18.9968 11.9419C19.2342 11.8536 19.3594 11.6754 19.3894 11.4962ZM8.39221 17.4122C9.30164 18.5325 10.2145 19.6596 11.1316 20.7834C11.2765 20.9608 11.4711 21.0439 11.7042 21.0071C12.2116 20.9274 12.4036 20.3745 12.0642 19.9536C11.1882 18.8676 10.3071 17.7859 9.42764 16.7034C9.40278 16.6725 9.37278 16.6468 9.35478 16.6279C9.03164 16.8919 8.7205 17.1448 8.39221 17.4122ZM11.1136 16.7634C12.1062 16.0974 11.9494 15.7168 11.2842 15.0654C10.9662 15.3096 10.6448 15.5548 10.3285 15.7974C10.6019 16.1351 10.8548 16.4454 11.1136 16.7634ZM7.41935 14.4534C7.42792 14.4791 7.4365 14.5134 7.4365 14.5485C7.45364 14.6085 7.45364 14.6779 7.4365 14.7379C7.41935 14.8845 7.34135 15.0225 7.21192 15.1262C7.16907 15.1519 7.13392 15.1862 7.09107 15.2214C7.04821 15.2556 7.01307 15.2814 6.97021 15.3165L6.91878 15.3594C6.75507 15.4888 6.59135 15.6182 6.41821 15.7476C6.36678 15.7905 6.30592 15.8342 6.24592 15.8771C6.0385 16.0322 5.79764 16.0494 5.5645 15.9199C5.4085 15.8248 5.30564 15.6782 5.26192 15.4974C5.26192 15.4631 5.25335 15.4279 5.25335 15.3936C5.25335 15.3422 5.26192 15.2814 5.27907 15.2214C5.31335 15.1005 5.39135 14.9968 5.49507 14.9111L5.8405 14.6436L5.85764 14.6265L6.09078 14.4456L6.14221 14.4114C6.24592 14.3334 6.34021 14.2562 6.43535 14.1868C6.44392 14.1868 6.44392 14.1782 6.44392 14.1782C6.59907 14.0574 6.78078 14.0231 6.9445 14.0488C6.97878 14.0488 7.01392 14.0574 7.03964 14.0745C7.05678 14.0745 7.06535 14.0831 7.07393 14.0831C7.10821 14.1002 7.14335 14.1174 7.16907 14.1345C7.18621 14.1431 7.20335 14.1602 7.2205 14.1688C7.23764 14.1859 7.25478 14.2031 7.27192 14.2202C7.28907 14.2288 7.30621 14.2459 7.31478 14.2716L7.37478 14.3582C7.39278 14.3925 7.40135 14.4182 7.41935 14.4534Z" fill="#130F40"/>
</svg>