<svg width="24" height="24" viewBox="0 0 24 24" fill="none" xmlns="http://www.w3.org/2000/svg">
<path fill-rule="evenodd" clip-rule="evenodd" d="M5.61644 6.31534C4.45751 7.47416 3.902 9.418 3.902 12.6925C3.902 15.9669 4.45751 17.9108 5.61644 19.0696C6.77538 20.2284 8.71924 20.7837 11.9933 20.7837C15.2678 20.7837 17.2119 20.2284 18.3709 19.0696C19.5299 17.9107 20.0855 15.9669 20.0855 12.6925C20.0855 9.418 19.5299 7.47418 18.3709 6.31536C17.2119 5.1565 15.2678 4.60121 11.9933 4.60121C8.71924 4.60121 6.77538 5.15649 5.61644 6.31534ZM4.5544 5.25321C6.15879 3.64896 8.63606 3.0992 11.9933 3.0992C15.3509 3.0992 17.8284 3.64896 19.4329 5.25319C21.0375 6.85745 21.5875 9.33476 21.5875 12.6925C21.5875 16.0502 21.0375 18.5275 19.4329 20.1317C17.8284 21.736 15.3509 22.2857 11.9933 22.2857C8.63606 22.2857 6.15879 21.736 4.5544 20.1317C2.95001 18.5275 2.39999 16.0502 2.39999 12.6925C2.39999 9.33476 2.95001 6.85747 4.5544 5.25321Z" fill="#5A577A"/>
<path fill-rule="evenodd" clip-rule="evenodd" d="M3.68571 9.42858C3.68571 9.01381 3.9272 8.64792 4.34197 8.64792H20.5828C20.9976 8.64792 21.3338 8.98415 21.3338 9.39892C21.3338 9.81369 20.9976 10.1499 20.5828 10.1499H4.04541C3.63064 10.1499 3.68571 9.84335 3.68571 9.42858Z" fill="#5A577A"/>
<path fill-rule="evenodd" clip-rule="evenodd" d="M15.4417 13.1552C15.4417 12.7404 15.778 12.4042 16.1927 12.4042H16.2041C16.6189 12.4042 16.9551 12.7404 16.9551 13.1552C16.9551 13.5699 16.6189 13.9062 16.2041 13.9062H16.1927C15.778 13.9062 15.4417 13.5699 15.4417 13.1552Z" fill="#5A577A"/>
<path fill-rule="evenodd" clip-rule="evenodd" d="M11.2468 13.1552C11.2468 12.7404 11.583 12.4042 11.9978 12.4042H12.0092C12.424 12.4042 12.7602 12.7404 12.7602 13.1552C12.7602 13.5699 12.424 13.9062 12.0092 13.9062H11.9978C11.583 13.9062 11.2468 13.5699 11.2468 13.1552Z" fill="#5A577A"/>
<path fill-rule="evenodd" clip-rule="evenodd" d="M7.04534 13.1552C7.04534 12.7404 7.38158 12.4042 7.79634 12.4042H7.80774C8.22251 12.4042 8.55874 12.7404 8.55874 13.1552C8.55874 13.5699 8.22251 13.9062 7.80774 13.9062H7.79634C7.38158 13.9062 7.04534 13.5699 7.04534 13.1552Z" fill="#5A577A"/>
<path fill-rule="evenodd" clip-rule="evenodd" d="M15.4417 16.8284C15.4417 16.4136 15.778 16.0774 16.1927 16.0774H16.2041C16.6189 16.0774 16.9551 16.4136 16.9551 16.8284C16.9551 17.2431 16.6189 17.5794 16.2041 17.5794H16.1927C15.778 17.5794 15.4417 17.2431 15.4417 16.8284Z" fill="#5A577A"/>
<path fill-rule="evenodd" clip-rule="evenodd" d="M11.2468 16.8284C11.2468 16.4136 11.583 16.0774 11.9978 16.0774H12.0092C12.424 16.0774 12.7602 16.4136 12.7602 16.8284C12.7602 17.2431 12.424 17.5794 12.0092 17.5794H11.9978C11.583 17.5794 11.2468 17.2431 11.2468 16.8284Z" fill="#5A577A"/>
<path fill-rule="evenodd" clip-rule="evenodd" d="M7.04534 16.8284C7.04534 16.4136 7.38158 16.0774 7.79634 16.0774H7.80774C8.22251 16.0774 8.55874 16.4136 8.55874 16.8284C8.55874 17.2431 8.22251 17.5794 7.80774 17.5794H7.79634C7.38158 17.5794 7.04534 17.2431 7.04534 16.8284Z" fill="#5A577A"/>
<path fill-rule="evenodd" clip-rule="evenodd" d="M15.8163 1.71429C16.2311 1.71429 16.5674 2.05053 16.5674 2.4653V5.57544C16.5674 5.99021 16.2311 6.32644 15.8163 6.32644C15.4016 6.32644 15.0653 5.99021 15.0653 5.57544V2.4653C15.0653 2.05053 15.4016 1.71429 15.8163 1.71429Z" fill="#5A577A"/>
<path fill-rule="evenodd" clip-rule="evenodd" d="M8.18054 1.71429C8.5953 1.71429 8.93154 2.05053 8.93154 2.4653V5.57544C8.93154 5.99021 8.5953 6.32644 8.18054 6.32644C7.76577 6.32644 7.42953 5.99021 7.42953 5.57544V2.4653C7.42953 2.05053 7.76577 1.71429 8.18054 1.71429Z" fill="#5A577A"/>
</svg>
