<svg width="20" height="20" viewBox="0 0 20 20" fill="none" xmlns="http://www.w3.org/2000/svg">
<path fill-rule="evenodd" clip-rule="evenodd" d="M9.9999 11.5457H10.0892L10.2878 11.5464C11.8078 11.5564 15.2813 11.7057 15.2813 13.9957C15.2813 16.2707 11.9285 16.4193 10.3113 16.4286H9.71204C8.19204 16.4186 4.71704 16.27 4.71704 13.9829C4.71704 11.705 8.19132 11.5564 9.71204 11.5471L9.91061 11.5464C9.94204 11.5457 9.97204 11.5457 9.9999 11.5457ZM9.9999 12.695C8.12918 12.695 5.89847 12.9186 5.89847 13.9829C5.89847 15.0229 7.99561 15.2664 9.82918 15.28L9.9999 15.2807C11.8706 15.2807 14.1006 15.0579 14.1006 13.9957C14.1006 12.9207 11.8713 12.695 9.9999 12.695ZM16.2628 11.235C18.1706 11.5136 18.5713 12.385 18.5713 13.0671C18.5713 13.4836 18.4028 14.2443 17.277 14.6614C17.2078 14.6864 17.137 14.6993 17.067 14.6993C16.8292 14.6993 16.6049 14.5586 16.5149 14.3293C16.3985 14.0329 16.552 13.7007 16.8563 13.5879C17.3899 13.39 17.3899 13.1721 17.3899 13.0671C17.3899 12.7314 16.9513 12.4971 16.087 12.3721C15.7649 12.325 15.542 12.0329 15.5899 11.7179C15.6385 11.4036 15.9378 11.195 16.2628 11.235ZM4.40918 11.7179C4.45704 12.0329 4.23418 12.3243 3.91204 12.3721C3.04775 12.4979 2.60918 12.7321 2.60918 13.0671C2.60918 13.1721 2.60918 13.3893 3.14347 13.5879C3.44847 13.7007 3.60204 14.0329 3.4849 14.3293C3.3949 14.5579 3.17061 14.6993 2.93275 14.6993C2.86275 14.6993 2.79204 14.6871 2.72275 14.6614C1.59704 14.2429 1.42847 13.4829 1.42847 13.0671C1.42847 12.3857 1.82918 11.5136 3.73775 11.2357C4.06275 11.1957 4.36061 11.4036 4.40918 11.7179ZM9.9999 3.57143C11.9842 3.57143 13.5978 5.14143 13.5978 7.07C13.5978 8.99928 11.9842 10.5686 9.9999 10.5686H9.97847C9.01775 10.5657 8.11775 10.1993 7.44418 9.53785C6.76918 8.87714 6.3999 8 6.40347 7.06786C6.40347 5.14143 8.01704 3.57143 9.9999 3.57143ZM9.9999 4.72C8.66775 4.72 7.58418 5.77428 7.58418 7.07C7.58204 7.69785 7.82918 8.285 8.28204 8.72857C8.7349 9.17214 9.33775 9.41785 9.98061 9.42H9.9999C11.332 9.42 12.4163 8.36643 12.4163 7.07C12.417 5.77428 11.3328 4.72 9.9999 4.72ZM14.8735 4.32143C16.2578 4.54286 17.2635 5.69428 17.2635 7.06C17.2606 8.43428 16.2042 9.61357 14.807 9.80428C14.7792 9.80785 14.752 9.80928 14.7249 9.80928C14.4349 9.80928 14.182 9.60143 14.1406 9.31428C14.0956 8.99928 14.3199 8.70928 14.6435 8.66571C15.462 8.55428 16.0806 7.86357 16.082 7.05785C16.082 6.25928 15.4928 5.58357 14.6813 5.45428C14.3599 5.40285 14.142 5.10714 14.1949 4.79428C14.2485 4.48143 14.5499 4.27143 14.8735 4.32143ZM5.80561 4.795C5.85847 5.10785 5.64061 5.40357 5.31918 5.455C4.50775 5.58428 3.91847 6.25928 3.91847 7.06C3.9199 7.86428 4.53847 8.55571 5.35632 8.66643C5.6799 8.71 5.90418 9 5.85918 9.315C5.81775 9.60214 5.5649 9.81 5.2749 9.81C5.24847 9.81 5.22061 9.80857 5.19275 9.805C3.7949 9.61428 2.7399 8.435 2.73704 7.06214C2.73704 5.695 3.74275 4.54357 5.12704 4.32214C5.45847 4.27071 5.75275 4.48285 5.80561 4.795Z" fill="#5A577A"/>
</svg>
