<svg width="20" height="20" viewBox="0 0 20 20" fill="none" xmlns="http://www.w3.org/2000/svg">
<path d="M16.002 18.5714H3.98977C3.08059 18.5714 2.34283 17.8337 2.34283 16.9245L2.34283 3.07552C2.34283 2.16634 3.08059 1.42858 3.98977 1.42858H16.002C16.9112 1.42858 17.649 2.16634 17.649 3.07552V16.9245C17.649 17.8337 16.9112 18.5714 16.002 18.5714ZM6.05916 4.83879C5.9061 4.68573 5.69181 4.59083 5.45916 4.59083C4.99079 4.59083 4.6112 4.97042 4.6112 5.43573C4.6112 5.67144 4.7061 5.88267 4.85916 6.03573C5.01222 6.18879 5.22651 6.28369 5.45916 6.28369C5.69181 6.28369 5.9061 6.18879 6.05916 6.03573C6.21222 5.88267 6.30712 5.67144 6.30712 5.43573C6.30712 5.20307 6.21222 4.99185 6.05916 4.83879ZM6.05916 9.40001C5.9061 9.24695 5.69181 9.15205 5.45916 9.15205C4.99079 9.15205 4.6112 9.53165 4.6112 10C4.6112 10.2327 4.7061 10.447 4.85916 10.6C5.01222 10.7531 5.22651 10.848 5.45916 10.848C5.69181 10.848 5.9061 10.7531 6.05916 10.6C6.21222 10.447 6.30712 10.2327 6.30712 10C6.30712 9.76736 6.21222 9.55307 6.05916 9.40001ZM6.05916 13.9643C5.9061 13.8112 5.69181 13.7163 5.45916 13.7163C4.99079 13.7163 4.6112 14.0959 4.6112 14.5643C4.6112 14.797 4.7061 15.0082 4.85916 15.1612C5.01222 15.3143 5.22651 15.4092 5.45916 15.4092C5.69181 15.4092 5.9061 15.3143 6.05916 15.1612C6.21222 15.0082 6.30712 14.797 6.30712 14.5643C6.30712 14.3286 6.21222 14.1174 6.05916 13.9643ZM15.1326 4.83879C14.9796 4.68573 14.7653 4.59083 14.5326 4.59083L8.32141 4.59083C7.85304 4.59083 7.47345 4.97042 7.47345 5.43573C7.47345 5.67144 7.56834 5.88267 7.72141 6.03573C7.87447 6.18879 8.08569 6.28369 8.32141 6.28369L14.5326 6.28369C15.001 6.28369 15.3806 5.90409 15.3806 5.43573C15.3806 5.20307 15.2857 4.99185 15.1326 4.83879ZM15.1326 9.40001C14.9796 9.24695 14.7653 9.15205 14.5326 9.15205L8.32141 9.15205C7.85304 9.15205 7.47345 9.53165 7.47345 10C7.47345 10.2327 7.56834 10.447 7.72141 10.6C7.87447 10.7531 8.08569 10.848 8.32141 10.848L14.5326 10.848C15.001 10.848 15.3806 10.4684 15.3806 10C15.3806 9.76736 15.2857 9.55307 15.1326 9.40001ZM15.1326 13.9643C14.9796 13.8112 14.7653 13.7163 14.5326 13.7163L8.32141 13.7163C7.85304 13.7163 7.47345 14.0959 7.47345 14.5643C7.47345 14.797 7.56834 15.0082 7.72141 15.1612C7.87447 15.3143 8.08569 15.4092 8.32141 15.4092L14.5326 15.4092C15.001 15.4092 15.3806 15.0296 15.3806 14.5643C15.3806 14.3286 15.2857 14.1174 15.1326 13.9643Z" fill="url(#paint0_linear_569_195)"/>
<defs>
<linearGradient id="paint0_linear_569_195" x1="2.34286" y1="18.5714" x2="18" y2="1.00002" gradientUnits="userSpaceOnUse">
<stop stop-color="#130F40"/>
<stop offset="1" stop-color="#656096"/>
</linearGradient>
</defs>
</svg>
