<svg width="20" height="20" viewBox="0 0 20 20" fill="none" xmlns="http://www.w3.org/2000/svg">
<path d="M8.18283 16.7264C7.59283 16.205 7.02426 15.6607 6.48212 15.09C5.3264 13.8729 4.26212 12.5857 3.49498 11.0786C3.12355 10.3493 2.83141 9.58785 2.78569 8.76143C2.69498 7.14785 3.14712 5.70643 4.27569 4.53285C5.72283 3.02785 7.49712 2.48714 9.53426 2.935C11.7393 3.42 13.4335 5.29571 13.7264 7.52928C13.7471 7.68571 13.8057 7.80285 13.9285 7.91C14.3178 8.25071 14.6957 8.60428 15.0985 8.97285C15.1078 8.845 15.1171 8.74571 15.1207 8.64714C15.1678 7.46571 14.9493 6.33785 14.4171 5.27857C13.6114 3.67571 12.3757 2.53714 10.7007 1.895C8.99926 1.24285 7.29069 1.27357 5.62355 1.99C3.79926 2.77285 2.5264 4.11857 1.84855 5.995C1.2614 7.61785 1.29498 9.24 1.93212 10.8493C2.42783 12.1014 3.1614 13.2093 3.98855 14.2579C5.03926 15.59 6.22069 16.7971 7.50069 17.9093C7.74783 18.1243 8.00283 18.3293 8.2764 18.5579C8.27998 18.4843 8.28355 18.4414 8.28355 18.3986C8.28426 17.9179 8.28141 17.4379 8.28569 16.9571C8.28498 16.8586 8.25569 16.7914 8.18283 16.7264Z" fill="#00C36B"/>
<path d="M13.3721 9.20857C11.6364 10.795 9.90569 12.3764 8.17212 13.9607C8.48212 14.3007 8.77712 14.6236 9.07355 14.9479C9.19783 14.835 9.30426 14.7379 9.44569 14.61V14.815C9.44569 15.4407 9.44141 16.0664 9.44641 16.6921C9.45498 17.7879 10.2357 18.5671 11.3293 18.5693C12.6893 18.5721 14.05 18.5721 15.41 18.5693C16.5128 18.5671 17.2943 17.7829 17.2971 16.6807C17.2985 16.0436 17.2964 15.4071 17.2993 14.7707C17.2993 14.7257 17.2721 14.6714 17.3243 14.6343C17.4407 14.7386 17.5557 14.8414 17.6743 14.9471C17.98 14.6107 18.2721 14.2893 18.5714 13.96C16.8393 12.3764 15.11 10.7964 13.3721 9.20857ZM14.575 16.0443H12.205V13.6679H14.575V16.0443Z" fill="#00C36B"/>
<path d="M5.44783 8.29928C5.44783 9.86357 6.70426 11.1271 8.26926 11.1379C9.83355 11.1486 11.1078 9.88 11.115 8.30714C11.1221 6.73928 9.85355 5.46357 8.28498 5.46C6.71926 5.45714 5.44712 6.72928 5.44783 8.29928Z" fill="#00C36B"/>
</svg>
