<svg width="20" height="20" viewBox="0 0 20 20" fill="none" xmlns="http://www.w3.org/2000/svg">
<path d="M17.7001 6.78572C17.4715 6.77858 3.02863 6.77858 3.02863 6.78572C2.76435 6.78572 2.52149 6.77858 2.27863 6.78572C1.72863 6.79286 1.37863 7.17143 1.43578 7.72143C1.54292 8.81429 1.65006 9.91429 1.7572 11.0143C1.95006 13.0571 2.14292 15.0929 2.33578 17.1286C2.4072 17.8714 2.89292 18.3357 3.62149 18.3357C7.87863 18.3357 12.1286 18.3357 16.3858 18.3286C16.5715 18.3286 16.7786 18.2929 16.9501 18.2143C17.4501 18.0071 17.6358 17.5857 17.6715 17.0714C17.7429 16.1929 17.8358 15.3214 17.9215 14.45C18.0286 13.3286 18.1358 12.2071 18.2429 11.0857C18.3501 9.97858 18.4501 8.87858 18.5643 7.77143C18.6286 7.17858 18.2929 6.78572 17.7001 6.78572ZM12.5072 12.7286C11.8001 13.4429 11.0929 14.15 10.3786 14.8643C10.1572 15.0857 9.83578 15.0786 9.61435 14.8571C8.9072 14.15 8.20006 13.4429 7.49292 12.7357C7.26435 12.5 7.26435 12.1643 7.47863 11.95C7.70006 11.7357 8.02863 11.75 8.26435 11.9786L9.31435 13.0286C9.35006 13.0643 9.39292 13.1 9.46435 13.1714V11.1286C9.46435 10.8286 9.4572 10.5286 9.46435 10.2357C9.46435 9.87143 9.67863 9.62858 9.99292 9.62858C10.3143 9.62143 10.5358 9.87143 10.5358 10.2286C10.5429 11.0857 10.5358 11.9429 10.5358 12.8V13.1643C10.6001 13.1071 10.6429 13.0714 10.6786 13.0357L11.7429 11.9714C11.9786 11.7429 12.3072 11.7357 12.5215 11.9571C12.7358 12.1714 12.7358 12.5 12.5072 12.7286ZM2.86149 4.90429C2.81649 4.50572 3.12792 4.15643 3.52935 4.15643H16.5029C16.8993 4.15643 17.2101 4.49786 17.1722 4.89286C17.1393 5.23786 16.8493 5.50143 16.5029 5.50143H3.52935C3.18792 5.50072 2.90006 5.24429 2.86149 4.90429ZM4.64006 2.47286L4.63292 2.40929C4.59006 2.01143 4.90149 1.66429 5.30149 1.66429H14.7108C15.1065 1.66429 15.4165 2.00358 15.3801 2.39786L15.3743 2.46143C15.3429 2.80786 15.0522 3.07286 14.7051 3.07286H5.30863C4.96578 3.07215 4.6772 2.81358 4.64006 2.47286Z" fill="#853C66"/>
</svg>
