<svg width="28" height="28" viewBox="0 0 28 28" fill="none" xmlns="http://www.w3.org/2000/svg">
<path d="M4.7251 5.78V22.21C4.7251 23.96 5.7651 25.4 7.3651 25.86C7.6951 25.95 8.0351 26 8.4151 26H19.7051C21.5751 25.96 23.0151 24.64 23.2751 22.83C23.2751 22.83 23.2751 22.83 23.2751 22.82V14.47C23.2751 12.89 23.2651 11.31 23.2751 9.73C23.2751 9.53 23.2651 9.34 23.2351 9.16V9.13C23.1251 8.37 22.7851 7.72 22.1851 7.15C21.7651 6.77 21.3551 6.38 20.9451 5.99C20.5351 5.6 20.1251 5.21 19.7251 4.82C19.4451 4.55 19.1751 4.29 18.9051 4.03C18.6051 3.73 18.3051 3.44 18.0151 3.14C17.9551 3.08 17.8951 3.02 17.8351 2.97C17.1651 2.29 16.4151 2 15.5051 2H15.2351C14.3951 2.01 13.4651 2.01 12.5051 2.01H12.0151C11.0551 2.01 10.0751 2.01 9.1451 2H8.4051C6.3051 2.02 4.7251 3.63 4.7251 5.78Z" fill="#E5252A"/>
<path opacity="0.302" d="M17.8422 9.526C18.4422 9.496 19.0522 9.466 19.6622 9.436C20.2222 9.406 20.7922 9.376 21.3522 9.346C21.4222 9.346 21.4722 9.276 21.4622 9.206C21.4222 8.906 21.2422 8.696 21.0422 8.496C20.8622 8.306 20.6722 8.126 20.4922 7.946C19.5622 7.036 18.6322 6.116 17.6922 5.196C17.4522 4.956 17.2122 4.726 16.9722 4.486C16.8822 4.396 16.7922 4.316 16.7122 4.226C16.5122 4.036 16.3022 3.926 16.0522 3.886C15.9022 3.856 15.7822 3.946 15.7822 4.096V7.526C15.7822 8.486 16.2622 9.186 17.0322 9.436C17.2722 9.516 17.5422 9.546 17.8422 9.526Z" fill="white"/>
<path d="M8.48877 20.818V16.571H10.2958C10.7428 16.571 11.0978 16.693 11.3648 16.943C11.6318 17.187 11.7658 17.518 11.7658 17.931C11.7658 18.344 11.6318 18.675 11.3648 18.919C11.0978 19.169 10.7428 19.291 10.2958 19.291H9.57577V20.819L8.48877 20.818ZM9.57477 18.366H10.1728C10.3358 18.366 10.4638 18.331 10.5508 18.25C10.6378 18.174 10.6848 18.07 10.6848 17.93C10.6848 17.791 10.6388 17.686 10.5508 17.61C10.4638 17.529 10.3358 17.494 10.1728 17.494H9.57477V18.366ZM12.2128 20.818V16.571H13.7178C14.0138 16.571 14.2928 16.612 14.5548 16.699C14.8158 16.786 15.0548 16.908 15.2638 17.077C15.4728 17.24 15.6418 17.46 15.7638 17.739C15.8798 18.018 15.9438 18.337 15.9438 18.698C15.9438 19.052 15.8798 19.372 15.7638 19.651C15.6418 19.93 15.4728 20.151 15.2638 20.313C15.0548 20.481 14.8168 20.604 14.5548 20.691C14.2938 20.778 14.0148 20.819 13.7178 20.819H12.2128V20.818ZM13.2768 19.894H13.5908C13.7588 19.894 13.9158 19.877 14.0618 19.836C14.2008 19.795 14.3348 19.731 14.4628 19.644C14.5848 19.557 14.6838 19.435 14.7538 19.272C14.8238 19.109 14.8588 18.918 14.8588 18.697C14.8588 18.47 14.8238 18.279 14.7538 18.116C14.6838 17.953 14.5858 17.831 14.4628 17.744C14.3348 17.657 14.2018 17.593 14.0618 17.552C13.9168 17.511 13.7598 17.494 13.5908 17.494H13.2768V19.894ZM16.4898 20.818V16.571H19.5108V17.495H17.5758V18.175H19.1218V19.093H17.5758V20.819L16.4898 20.818Z" fill="white"/>
</svg>
