<svg width="30" height="30" viewBox="0 0 30 30" fill="none" xmlns="http://www.w3.org/2000/svg">
<g clip-path="url(#clip0_26920_1352)">
<mask id="path-1-inside-1_26920_1352" fill="white">
<path d="M21.7608 30H24.6005C24.9905 30 25.3604 29.9545 25.7404 29.8749C28.1702 29.3289 29.99 26.8263 30 24.0166C30 21.2069 28.1902 18.6816 25.7604 18.1356C25.5504 18.0901 25.4604 18.0105 25.4204 17.7602C24.8705 14.5979 22.0707 12.4821 19.291 13.1077C18.661 13.2442 18.0711 13.5173 17.5112 13.8813C15.6813 10.5028 12.3016 9.37666 9.48189 10.3208C6.92213 11.1853 4.47235 13.9609 4.43236 18.0787C4.35237 18.1015 4.28237 18.1129 4.22238 18.1356C1.39264 18.784 -0.46719 21.9577 0.102758 25.1769C0.592713 27.9752 2.79251 30 5.38227 30H6.83214"/>
</mask>
<path d="M21.7608 29C21.2085 29 20.7608 29.4477 20.7608 30C20.7608 30.5523 21.2085 31 21.7608 31V29ZM25.7404 29.8749L25.9455 30.8536L25.9526 30.8521L25.9596 30.8505L25.7404 29.8749ZM30 24.0166L31 24.0202V24.0166H30ZM25.7604 18.1356L25.9796 17.1599L25.9722 17.1583L25.7604 18.1356ZM25.4204 17.7602L26.408 17.6024L26.4056 17.5889L25.4204 17.7602ZM19.291 13.1077L19.5028 14.0851L19.5106 14.0833L19.291 13.1077ZM17.5112 13.8813L16.6318 14.3575L17.1478 15.3102L18.0562 14.7197L17.5112 13.8813ZM9.48189 10.3208L9.16438 9.37254L9.16191 9.37338L9.48189 10.3208ZM4.43236 18.0787L4.70592 19.0406L5.42505 18.8361L5.43231 18.0884L4.43236 18.0787ZM4.22238 18.1356L4.44572 19.1103L4.5127 19.095L4.57695 19.0706L4.22238 18.1356ZM0.102758 25.1769L1.08777 25.0044L1.08744 25.0026L0.102758 25.1769ZM6.83214 31C7.38442 31 7.83214 30.5523 7.83214 30C7.83214 29.4477 7.38442 29 6.83214 29V31ZM21.7608 31H24.6005V29H21.7608V31ZM24.6005 31C25.0712 31 25.5108 30.9447 25.9455 30.8536L25.5353 28.8961C25.2101 28.9643 24.9097 29 24.6005 29V31ZM25.9596 30.8505C28.9219 30.1849 30.9886 27.2121 31 24.0202L29 24.0131C28.9914 26.4405 27.4184 28.4728 25.5211 28.8992L25.9596 30.8505ZM31 24.0166C31 20.8291 28.9482 17.827 25.9796 17.1599L25.5411 19.1113C27.4321 19.5362 29 21.5847 29 24.0166H31ZM25.9722 17.1583C25.9378 17.1508 26.1007 17.1762 26.2535 17.3379C26.4026 17.4957 26.4153 17.6489 26.4079 17.6024L24.433 17.918C24.4655 18.1218 24.5432 18.4399 24.7998 18.7115C25.0601 18.987 25.373 19.0749 25.5486 19.1129L25.9722 17.1583ZM26.4056 17.5889C25.7782 13.9809 22.5187 11.3563 19.0714 12.1321L19.5106 14.0833C21.6228 13.6079 23.9628 15.2149 24.4352 17.9316L26.4056 17.5889ZM19.0792 12.1304C18.3045 12.2983 17.6026 12.6291 16.9661 13.0428L18.0562 14.7197C18.5396 14.4054 19.0176 14.1902 19.5028 14.0851L19.0792 12.1304ZM18.3905 13.405C16.3411 9.62121 12.4679 8.26643 9.16438 9.37255L9.7994 11.2691C12.1354 10.4869 15.0216 11.3844 16.6318 14.3575L18.3905 13.405ZM9.16191 9.37338C6.18571 10.3785 3.47639 13.5401 3.4324 18.069L5.43231 18.0884C5.46831 14.3817 7.65854 11.9921 9.80187 11.2682L9.16191 9.37338ZM4.1588 17.1169C4.14294 17.1214 4.13622 17.1227 4.08302 17.1356C4.04472 17.145 3.96017 17.1656 3.86781 17.2006L4.57695 19.0706C4.55812 19.0778 4.54534 19.0815 4.54281 19.0822C4.54081 19.0827 4.54329 19.082 4.55671 19.0787C4.5634 19.0771 4.57009 19.0755 4.58021 19.0731C4.58951 19.0708 4.60115 19.068 4.61356 19.065C4.63859 19.0588 4.67038 19.0507 4.70592 19.0406L4.1588 17.1169ZM3.99903 17.1609C0.553181 17.9504 -1.52643 21.7109 -0.881929 25.3512L1.08744 25.0026C0.592051 22.2045 2.2321 19.6176 4.44572 19.1103L3.99903 17.1609ZM-0.882258 25.3494C-0.321651 28.5512 2.23444 31 5.38227 31V29C3.35058 29 1.50708 27.3992 1.08777 25.0044L-0.882258 25.3494ZM5.38227 31H6.83214V29H5.38227V31Z" fill="#5A577A" mask="url(#path-1-inside-1_26920_1352)"/>
<path d="M26.67 19.56H17.18C16.94 18.95 16.45 18.46 15.84 18.23V16.81H23.81C24.03 16.81 24.23 16.76 24.42 16.68C24.93 16.45 25.28 15.95 25.28 15.35V10.74C25.28 9.93 24.63 9.27 23.81 9.27H6.17C5.36 9.27 4.7 9.93 4.7 10.74V15.35C4.7 15.94 5.06 16.45 5.57 16.68C5.75 16.76 5.96 16.81 6.17 16.81H14.17V18.23C13.55 18.46 13.06 18.95 12.82 19.56H3.33C3.15 19.56 3 19.71 3 19.89V20.9C3 21.08 3.15 21.22 3.33 21.22H12.82C13.06 21.84 13.55 22.33 14.17 22.56C14.43 22.67 14.71 22.72 15 22.72C15.29 22.72 15.58 22.67 15.84 22.56C16.45 22.33 16.94 21.84 17.18 21.22H26.67C26.85 21.22 27 21.08 27 20.9V19.89C27 19.71 26.85 19.56 26.67 19.56Z" fill="#130F40"/>
<path d="M6.17 7.54H23.81C24.63 7.54 25.28 6.89 25.28 6.08V1.47C25.28 0.66 24.63 0 23.81 0H6.17C5.36 0 4.7 0.66 4.7 1.47V6.08C4.7 6.89 5.36 7.54 6.17 7.54Z" fill="#130F40"/>
<path d="M12.48 4.61C13 4.61 13.42 4.19 13.42 3.68C13.42 3.17 13 2.75 12.49 2.75C11.98 2.75 11.55 3.16 11.55 3.68C11.55 4.2 11.97 4.61 12.48 4.61Z" fill="white"/>
<path d="M8.3299 4.60001C8.8399 4.60001 9.2599 4.19001 9.2599 3.67001C9.2599 3.15001 8.8499 2.74001 8.3299 2.74001C7.8099 2.74001 7.3999 3.16001 7.3999 3.67001C7.3999 4.18001 7.8099 4.60001 8.3299 4.60001Z" fill="white"/>
<path d="M17.63 13.97C18.1436 13.97 18.56 13.5536 18.56 13.04C18.56 12.5264 18.1436 12.11 17.63 12.11C17.1163 12.11 16.7 12.5264 16.7 13.04C16.7 13.5536 17.1163 13.97 17.63 13.97Z" fill="white"/>
<path d="M21.42 13.97C21.94 13.97 22.36 13.56 22.36 13.04C22.36 12.52 21.94 12.11 21.42 12.11C20.9 12.11 20.49 12.53 20.49 13.04C20.49 13.55 20.91 13.97 21.42 13.97Z" fill="white"/>
<path d="M8.3299 12.11C7.8199 12.11 7.3999 12.53 7.3999 13.04C7.3999 13.55 7.8199 13.97 8.3299 13.97C8.8399 13.97 9.2599 13.56 9.2599 13.04C9.2599 12.52 8.8499 12.11 8.3299 12.11Z" fill="white"/>
</g>
<defs>
<clipPath id="clip0_26920_1352">
<rect width="30" height="30" fill="white"/>
</clipPath>
</defs>
</svg>
