<svg width="12" height="12" viewBox="0 0 12 12" fill="none" xmlns="http://www.w3.org/2000/svg">
<path d="M6.67027 6.66937H9.90129C10.0802 6.67003 10.249 6.60015 10.3757 6.47346C10.5024 6.34676 10.5717 6.1786 10.5717 5.99901C10.5723 5.64178 10.2608 5.32831 9.90161 5.32897H6.67059V2.0986C6.67027 1.72929 6.36953 1.42856 5.9999 1.42856C5.63059 1.42856 5.33019 1.72897 5.32986 2.0986V5.32897H2.09851C1.91925 5.32897 1.75076 5.39917 1.62472 5.52521C1.49802 5.6519 1.42782 5.82039 1.42847 5.99901C1.42782 6.35852 1.74194 6.67035 2.09851 6.66905H5.32986V9.90105C5.32986 10.0803 5.39941 10.2495 5.52578 10.3755C5.65247 10.5022 5.82194 10.5724 6.00023 10.5714C6.17917 10.5721 6.34798 10.5022 6.47402 10.3761C6.60006 10.2501 6.67027 10.0806 6.67027 9.90105V6.66937Z" fill="white"/>
</svg>
