<svg width="20" height="20" viewBox="0 0 20 20" fill="none" xmlns="http://www.w3.org/2000/svg">
<path d="M8.30128 1.42892C6.24719 1.42846 4.19309 1.42846 2.1396 1.42892C1.66152 1.42907 1.42898 1.66436 1.42883 2.14842C1.42852 4.19563 1.42852 6.24299 1.42898 8.2902C1.42913 8.78161 1.66075 9.01062 2.15797 9.01077L6.10543 9.01093C6.83702 9.01108 7.56877 9.01108 8.30082 9.01062C8.77248 9.01031 9.0116 8.77441 9.01175 8.30934C9.01267 6.24957 9.01267 4.18996 9.01175 2.1302C9.01145 1.66498 8.77248 1.42907 8.30128 1.42892ZM7.7958 7.79467H2.63851V2.64487H7.79564L7.7958 7.79467Z" fill="#5A577A"/>
<path d="M17.8725 1.42913C15.8129 1.42867 13.753 1.42867 11.6923 1.42913C11.2268 1.42928 10.9907 1.66794 10.9906 2.13883C10.99 4.19232 10.99 6.2458 10.9906 8.29929C10.9907 8.77783 11.226 9.01052 11.7099 9.01083L15.6716 9.01114C16.4048 9.01114 17.138 9.01129 17.8712 9.01068C18.3301 9.01022 18.5727 8.7711 18.5731 8.31919C18.5741 6.2533 18.5741 4.18727 18.5731 2.12138C18.5729 1.66871 18.3307 1.42928 17.8725 1.42913ZM17.3638 7.79472H12.2067V2.64493H17.3638V7.79472Z" fill="#5A577A"/>
<path d="M8.30136 10.9892C7.27446 10.9889 6.24756 10.9888 5.22067 10.9888C4.19377 10.9888 3.16688 10.9889 2.13998 10.9892C1.66174 10.9892 1.4292 11.2245 1.4289 11.7086C1.42844 12.4227 1.42859 13.137 1.42859 13.8513V15.6814C1.42844 16.4104 1.42829 17.1397 1.42905 17.8687C1.42936 18.3277 1.66848 18.5703 2.12038 18.5705C4.18658 18.5717 6.25308 18.5717 8.31896 18.5706C8.77194 18.5703 9.01137 18.328 9.01152 17.8698C9.01244 15.81 9.01244 13.7503 9.01152 11.6905C9.01137 11.2251 8.7724 10.9892 8.30136 10.9892ZM7.79755 17.3568H2.64026V12.2032H7.7974L7.79755 17.3568Z" fill="#5A577A"/>
<path d="M17.3223 11.9665C16.5847 11.2927 15.6339 10.9459 14.6443 10.9934C12.5529 11.0911 10.9495 12.801 10.9931 14.8865C11.0788 17.0239 12.7993 18.6397 14.9113 18.5641C15.9367 18.5275 16.8817 18.0961 17.5721 17.349C18.2548 16.6101 18.6071 15.6504 18.5636 14.6463C18.5188 13.6092 18.0779 12.6573 17.3223 11.9665ZM14.7875 17.3648C14.7859 17.3648 14.7843 17.3648 14.7827 17.3648C14.0869 17.3634 13.4354 17.0922 12.948 16.6011C12.459 16.1083 12.1921 15.4518 12.1959 14.7524C12.2041 13.3405 13.3685 12.1945 14.7927 12.1945C14.7951 12.1945 14.7973 12.1945 14.7997 12.1945C15.4831 12.1965 16.128 12.4679 16.615 12.9587C17.1038 13.4513 17.3711 14.1012 17.3676 14.7884C17.3607 16.2101 16.2037 17.3648 14.7875 17.3648Z" fill="#5A577A"/>
</svg>
