<svg width="20" height="20" viewBox="0 0 20 20" fill="none" xmlns="http://www.w3.org/2000/svg">
<path d="M18.57 10C18.57 11.7079 18.5735 13.4164 18.5685 15.1243C18.5635 16.7421 17.5471 18.0664 16.0128 18.4686C15.7157 18.5464 15.4121 18.5714 15.1057 18.5714C11.7014 18.5707 8.29783 18.5729 4.89354 18.57C3.19997 18.5686 1.8514 17.4871 1.49568 15.8564C1.4414 15.6093 1.42997 15.3579 1.42997 15.1064C1.42997 11.7021 1.42783 8.29786 1.43068 4.89357C1.43211 3.20143 2.51354 1.85143 4.14426 1.49572C4.3914 1.44143 4.64283 1.43 4.89426 1.43C8.29854 1.43 11.7021 1.42857 15.1064 1.43072C16.7993 1.43214 18.1478 2.51286 18.5043 4.14429C18.5607 4.40357 18.5707 4.66643 18.5707 4.93072C18.57 6.62 18.57 8.31 18.57 10ZM10.0007 2.46C8.29854 2.46 6.59711 2.45786 4.89497 2.46072C3.49354 2.46214 2.46211 3.48643 2.46068 4.88357C2.45783 8.29357 2.45783 11.7036 2.46068 15.1136C2.46211 16.5036 3.48783 17.5371 4.87497 17.5386C8.29068 17.5429 11.7064 17.5429 15.1221 17.5386C16.5093 17.5371 17.5371 16.505 17.5385 15.1157C17.5414 11.7057 17.54 8.29572 17.5393 4.88572C17.5393 4.62072 17.5078 4.36 17.4264 4.10714C17.1057 3.10929 16.2078 2.46286 15.1243 2.46072C13.4164 2.45714 11.7085 2.46 10.0007 2.46ZM10.6443 15.7093C9.34568 14.4107 8.0464 13.1121 6.74783 11.8129C6.60854 11.6736 6.5164 11.51 6.48354 11.3136C6.40497 10.8436 6.32068 10.375 6.2464 9.905C6.15068 9.29786 6.69354 8.765 7.30211 8.86429C7.68568 8.92714 8.06711 9.00429 8.45283 9.05286C8.81926 9.09857 9.10783 9.255 9.36068 9.525C9.74211 9.93357 10.1478 10.3193 10.5435 10.715C11.3964 11.5679 12.2521 12.4186 13.1014 13.275C13.6207 13.7986 13.7621 14.5343 13.4835 15.1843C13.2093 15.825 12.5964 16.2229 11.8314 16.2221C11.4064 16.21 10.9871 16.0521 10.6443 15.7093ZM7.39497 11.0657C7.40354 11.1164 7.42711 11.155 7.46354 11.1914C8.3514 12.0786 9.23854 12.9664 10.115 13.8436C10.4821 13.4757 10.845 13.1121 11.2271 12.7286C11.2271 12.715 11.1821 12.695 11.1535 12.6657C10.31 11.8193 9.46568 10.9736 8.62283 10.1264C8.56711 10.0707 8.51068 10.0257 8.43068 10.0107C8.02211 9.93357 7.61426 9.85429 7.18068 9.77143C7.25497 10.2157 7.32568 10.6407 7.39497 11.0657ZM10.8164 14.5364C11.0378 14.7543 11.23 15.0093 11.4964 15.1814C11.8071 15.3814 12.2164 15.3107 12.4678 15.035C12.715 14.7643 12.7621 14.3493 12.5278 14.0707C12.34 13.8471 12.0978 13.6686 11.8814 13.4714C11.5485 13.8029 11.1893 14.1629 10.8164 14.5364ZM8.65497 5.40857C9.49354 5.40857 10.8243 5.41214 11.6628 5.40714C12.0664 5.405 12.3164 5.04857 12.1678 4.69857C12.0928 4.52072 11.9571 4.41143 11.7621 4.38572C11.7085 4.37857 11.6543 4.37714 11.6007 4.37714C9.94711 4.37643 7.20497 4.37643 5.5514 4.37714C5.23711 4.37714 5.03283 4.51214 4.97069 4.755C4.88068 5.10572 5.1214 5.40572 5.50568 5.40714C6.3564 5.41143 7.80354 5.40857 8.65497 5.40857ZM14.2521 5.40286C14.3657 5.40286 14.48 5.41143 14.5928 5.40072C14.8443 5.37786 15.0414 5.15857 15.0485 4.905C15.0557 4.66357 14.8735 4.42572 14.6328 4.39286C14.3835 4.35857 14.13 4.35786 13.8814 4.39357C13.6328 4.42929 13.4578 4.67286 13.4735 4.92786C13.4885 5.17429 13.6828 5.38072 13.9293 5.40214C14.0364 5.41072 14.1443 5.40357 14.2521 5.40286ZM8.65497 7.51357C9.49354 7.51357 8.6814 7.51714 9.51997 7.51214C9.92354 7.51 10.1735 7.15357 10.025 6.80357C9.94926 6.62571 9.81426 6.51643 9.61926 6.49072C9.56568 6.48357 9.5114 6.48214 9.45783 6.48214C7.80426 6.48143 7.20497 6.48143 5.5514 6.48214C5.23711 6.48214 5.03283 6.61714 4.97069 6.86C4.88068 7.21 5.1214 7.51 5.50568 7.51143C6.3564 7.51643 7.80354 7.51357 8.65497 7.51357ZM14.2521 7.50786C14.3657 7.50786 14.48 7.51643 14.5928 7.50572C14.8443 7.48286 15.0414 7.26357 15.0485 7.01C15.0557 6.76857 14.8735 6.53072 14.6328 6.49786C14.3835 6.46357 11.7014 6.46286 11.4528 6.49857C11.2043 6.53429 11.0293 6.77786 11.045 7.03286C11.06 7.27929 11.2543 7.48572 11.5007 7.50714C11.6078 7.51572 14.1443 7.50857 14.2521 7.50786Z" fill="#5A577A"/>
</svg>
