<svg width="20" height="20" viewBox="0 0 20 20" fill="none" xmlns="http://www.w3.org/2000/svg">
<path d="M2.83783 5.79856H17.1935C17.6371 5.79856 18.0578 5.91856 18.415 6.12927C18.5807 5.76927 18.6235 5.35356 18.5 4.9357L17.8514 2.74642C17.6207 1.96713 16.865 1.42856 16.0043 1.42856H4.02212C3.16855 1.42856 2.41783 1.95856 2.18069 2.72856L1.50569 4.91784C1.37283 5.34642 1.41783 5.77499 1.5914 6.14356C1.95426 5.92356 2.38355 5.79856 2.83783 5.79856ZM3.06855 3.00213C3.18498 2.62213 3.57712 2.35713 4.02212 2.35713H16.0043C16.4535 2.35713 16.8471 2.6257 16.9614 3.00999L17.5171 4.88499C17.41 4.87499 17.3021 4.86927 17.1943 4.86927H2.83783C2.71998 4.86927 2.60283 4.8757 2.4864 4.88784L3.06855 3.00213ZM3.75712 12.1286H16.2428C16.8857 12.1286 17.4714 11.8714 17.8857 11.4428C18.3143 11.0286 18.5714 10.4428 18.5714 9.79999C18.5714 8.51427 17.5285 7.47142 16.2428 7.47142H3.75712C3.11426 7.47142 2.52855 7.72856 2.11426 8.15713C1.68569 8.57141 1.42855 9.15713 1.42855 9.79999C1.42855 11.0857 2.4714 12.1286 3.75712 12.1286ZM2.78212 8.80284C3.03283 8.54284 3.37926 8.39999 3.75712 8.39999H16.2428C17.015 8.39999 17.6428 9.02784 17.6428 9.79999C17.6428 10.1778 17.5 10.5243 17.2178 10.7971C16.9671 11.0564 16.6207 11.2 16.2428 11.2H3.75712C2.98498 11.2 2.35712 10.5721 2.35712 9.79999C2.35712 9.42213 2.49998 9.0757 2.78212 8.80284ZM3.06783 9.79999C3.06783 9.3357 3.44426 8.95999 3.90783 8.95999C4.37212 8.95999 4.74783 9.33642 4.74783 9.79999C4.74783 10.2643 4.3714 10.6407 3.90783 10.6407C3.44426 10.64 3.06783 10.2643 3.06783 9.79999ZM5.89569 9.78642C5.89569 9.53427 6.09997 9.32999 6.35212 9.32999H16.33C16.5821 9.32999 16.7864 9.53427 16.7864 9.78642C16.7864 10.0386 16.5821 10.2428 16.33 10.2428H6.35212C6.09997 10.2428 5.89569 10.0386 5.89569 9.78642ZM16.2428 13.9143H3.75712C3.11426 13.9143 2.52855 14.1714 2.11426 14.6C1.68569 15.0143 1.42855 15.6 1.42855 16.2428C1.42855 17.5286 2.4714 18.5714 3.75712 18.5714H16.2428C16.8857 18.5714 17.4714 18.3143 17.8857 17.8857C18.3143 17.4714 18.5714 16.8857 18.5714 16.2428C18.5714 14.9571 17.5285 13.9143 16.2428 13.9143ZM17.2178 17.24C16.9671 17.5 16.6207 17.6428 16.2428 17.6428H3.75712C2.98498 17.6428 2.35712 17.015 2.35712 16.2428C2.35712 15.865 2.49998 15.5186 2.78212 15.2457C3.03283 14.9857 3.37926 14.8428 3.75712 14.8428H16.2428C17.015 14.8428 17.6428 15.4707 17.6428 16.2428C17.6428 16.6207 17.5 16.9671 17.2178 17.24ZM4.74855 16.2428C4.74855 16.7071 4.37212 17.0836 3.90855 17.0836C3.44426 17.0836 3.06855 16.7071 3.06855 16.2428C3.06855 15.7786 3.44498 15.4028 3.90855 15.4028C4.37283 15.4028 4.74855 15.7786 4.74855 16.2428ZM16.7864 16.2293C16.7864 16.4814 16.5821 16.6857 16.33 16.6857H6.35212C6.09997 16.6857 5.89569 16.4814 5.89569 16.2293C5.89569 15.9771 6.09997 15.7728 6.35212 15.7728H16.33C16.5821 15.7728 16.7864 15.9771 16.7864 16.2293Z" fill="#5A577A"/>
</svg>
