<svg width="18" height="18" viewBox="0 0 18 18" fill="none" xmlns="http://www.w3.org/2000/svg">
<path fillRule="evenodd" clipRule="evenodd" d="M14.6824 6.46842C15.0098 6.49405 15.2538 6.77379 15.2296 7.09197C15.2252 7.14536 14.7945 12.3217 14.5461 14.4934C14.3923 15.8409 13.4758 16.6609 12.0934 16.6865C11.034 16.7036 10.0142 16.7143 9.01644 16.7143C7.94172 16.7143 6.89117 16.7036 5.8538 16.6822C4.52633 16.6566 3.60765 15.8217 3.4582 14.4998C3.20765 12.3089 2.78128 7.14536 2.77688 7.09411C2.75051 6.77593 2.99446 6.49619 3.32194 6.47056C3.64501 6.46202 3.93732 6.68197 3.96369 7.00015C3.96589 7.03432 4.14172 9.142 4.33073 11.2283L4.36809 11.6447C4.46479 12.6826 4.5615 13.6777 4.64062 14.3717C4.72633 15.1212 5.14172 15.5099 5.87798 15.5248C7.8626 15.5654 9.88897 15.5675 12.0714 15.5291C12.8516 15.5142 13.2758 15.1341 13.3615 14.3674C13.6077 12.2128 14.0362 7.05354 14.0406 7.00015C14.0692 6.68197 14.3593 6.45775 14.6824 6.46842ZM10.6824 1.28571C11.412 1.28571 12.0516 1.76404 12.2406 2.44739L12.4428 3.42115C12.5087 3.73933 12.7967 3.97209 13.1285 3.9785H15.7329C16.0626 3.9785 16.3285 4.23689 16.3285 4.5572C16.3285 4.87752 16.0626 5.13591 15.7329 5.13591H13.1505C13.1461 5.13591 13.1417 5.13591 13.1395 5.13591H13.1197H4.88238C4.87578 5.13591 4.86919 5.13591 4.8626 5.13591H4.84941H2.26699C1.93732 5.13591 1.67139 4.87752 1.67139 4.5572C1.67139 4.23689 1.93732 3.9785 2.26699 3.9785H4.87139L4.95051 3.97423C5.24941 3.93579 5.49776 3.71584 5.5571 3.42328L5.75051 2.48582C5.94611 1.76618 6.58787 1.28998 7.31534 1.28998H10.6824V1.28571ZM10.6824 2.44312H7.32194C7.13073 2.44312 6.96369 2.56697 6.91534 2.74635L6.73073 3.64964C6.70655 3.76495 6.67358 3.87386 6.62963 3.9785H11.3769C11.3329 3.87386 11.2978 3.76282 11.2758 3.64964L11.0824 2.71218C11.0406 2.56697 10.8736 2.44312 10.6824 2.44312ZM9.62303 13.5239V8.18105C9.62303 7.83724 9.3571 7.57672 9.00106 7.57672C8.64721 7.57672 8.37908 7.83511 8.37908 8.18105V13.5239C8.37908 13.8677 8.64501 14.1283 9.00106 14.1283C9.3571 14.1261 9.62303 13.8677 9.62303 13.5239Z" fill="#130F40" fill-opacity="0.3"/>
</svg>
