<svg width="20" height="21" viewBox="0 0 20 21" fill="none" xmlns="http://www.w3.org/2000/svg">
<rect y="0.5" width="20" height="20" rx="5" fill="#AE00B9"/>
<path fill-rule="evenodd" clip-rule="evenodd" d="M12.7923 8.13202V8.9206C13.6637 9.19708 14.2987 9.99895 14.2987 10.9567V13.4957C14.2987 14.6813 13.3316 15.6426 12.1393 15.6426H7.85713C6.66435 15.6426 5.69727 14.6813 5.69727 13.4957V10.9567C5.69727 9.99895 6.33273 9.19708 7.20367 8.9206V8.13202C7.20881 6.59882 8.45815 5.35693 9.99027 5.35693C11.5429 5.35693 12.7923 6.59882 12.7923 8.13202ZM10.0005 6.25127C11.0442 6.25127 11.8925 7.09453 11.8925 8.132V8.80967H8.10336V8.12177C8.10851 7.08942 8.95682 6.25127 10.0005 6.25127ZM10.4478 12.7909C10.4478 13.0413 10.2473 13.2406 9.99541 13.2406C9.74863 13.2406 9.54812 13.0413 9.54812 12.7909V11.6563C9.54812 11.411 9.74863 11.2117 9.99541 11.2117C10.2473 11.2117 10.4478 11.411 10.4478 11.6563V12.7909Z" fill="white"/>
</svg>
