<svg
            xmlns="http://www.w3.org/2000/svg"
            width="100%"
            height="100%"
            viewBox="0 0 28 28"
            fill="none"
        
        >
            <path
                fillRule="evenodd"
                clipRule="evenodd"
                d="M13.988 4.45801H14C15.674 4.45801 17.301 4.86001 18.8 5.61501L14.89 9.56201C14.609 9.51501 14.304 9.47901 14 9.47901C11.413 9.47901 9.31701 11.594 9.31701 14.205C9.31701 14.512 9.35201 14.819 9.39901 15.103L5.06701 19.474C3.89601 18.104 2.87801 16.449 2.07001 14.548C1.97601 14.335 1.97601 14.076 2.07001 13.851C4.57601 7.96701 9.03601 4.45801 13.988 4.45801ZM21.715 7.66001C23.413 9.21901 24.852 11.322 25.93 13.85C26.024 14.074 26.024 14.334 25.93 14.547C23.425 20.43 18.964 23.951 14 23.951H13.988C11.728 23.951 9.56301 23.207 7.65401 21.848L11.365 18.103C12.114 18.61 13.027 18.918 13.999 18.918C16.575 18.918 18.67 16.803 18.67 14.204C18.67 13.223 18.366 12.302 17.862 11.546L21.715 7.66001Z"
                fill="currentColor"
            />
            <path
                d="M23.8461 5.50903L21.7151 7.65903L17.8631 11.546L16.5821 12.839C16.7841 13.235 16.9151 13.72 16.9151 14.204C16.9151 15.823 15.6041 17.146 14.0001 17.146C13.5191 17.146 13.0321 17.023 12.6381 16.819L5.38308 24.141C5.20808 24.317 4.98509 24.4 4.76309 24.4C4.54109 24.4 4.30609 24.317 4.14309 24.141C3.85009 23.846 3.80409 23.372 4.03809 23.029L4.07308 22.982L16.6351 10.307L20.3461 6.56203L21.3881 5.50903C21.4111 5.48503 21.4351 5.46203 21.4471 5.43803C21.4701 5.41403 21.4941 5.39103 21.5051 5.36703L22.6051 4.25603C22.9561 3.91303 23.5061 3.91303 23.8461 4.25603C24.1971 4.60003 24.1971 5.16703 23.8461 5.50903Z"
                fill="currentColor"
            />
        </svg>