<svg width="20" height="20" viewBox="0 0 20 20" fill="none" xmlns="http://www.w3.org/2000/svg">
<path d="M15.3 10.7785H4.70002C2.89287 10.7785 1.42859 12.25 1.42859 14.0571C1.42859 15.8571 2.89287 17.3285 4.70002 17.3285H15.3C17.1072 17.3285 18.5714 15.8571 18.5714 14.0571C18.5714 12.25 17.1072 10.7785 15.3 10.7785ZM15.5357 14.6214H10.5714C10.2572 14.6214 10 14.3714 10 14.0571C10 13.7428 10.2572 13.4857 10.5714 13.4857H15.5357C15.85 13.4857 16.1072 13.7428 16.1072 14.0571C16.1072 14.3714 15.85 14.6214 15.5357 14.6214ZM3.82859 14.0571C3.82859 13.7071 4.1143 13.4285 4.45716 13.4285C4.80716 13.4285 5.08573 13.7071 5.08573 14.0571C5.08573 14.4 4.80716 14.6857 4.45716 14.6857C4.1143 14.6857 3.82859 14.4 3.82859 14.0571ZM7.2643 14.0571C7.2643 14.4 6.97859 14.6857 6.63573 14.6857C6.28573 14.6857 6.00716 14.4 6.00716 14.0571C6.00716 13.7071 6.28573 13.4285 6.63573 13.4285C6.97859 13.4285 7.2643 13.7071 7.2643 14.0571Z" fill="#FFA113"/>
<path d="M4.70002 9.21424H15.3C17.1072 9.21424 18.5714 7.74996 18.5714 5.94282C18.5714 4.13567 17.1072 2.67139 15.3 2.67139H4.70002C2.89287 2.67139 1.42859 4.13567 1.42859 5.94282C1.42859 7.74996 2.89287 9.21424 4.70002 9.21424ZM4.45716 5.31424C4.80716 5.31424 5.08573 5.59996 5.08573 5.94282C5.08573 6.29282 4.80716 6.57139 4.45716 6.57139C4.1143 6.57139 3.82859 6.29282 3.82859 5.94282C3.82859 5.59996 4.1143 5.31424 4.45716 5.31424ZM16.1072 5.94282C16.1072 6.2571 15.85 6.51424 15.5357 6.51424H10.5714C10.2572 6.51424 10 6.2571 10 5.94282C10 5.62853 10.2572 5.37139 10.5714 5.37139H15.5357C15.85 5.37139 16.1072 5.62853 16.1072 5.94282ZM6.00716 5.94282C6.00716 5.59996 6.28573 5.31424 6.63573 5.31424C6.97859 5.31424 7.2643 5.59996 7.2643 5.94282C7.2643 6.29282 6.97859 6.57139 6.63573 6.57139C6.28573 6.57139 6.00716 6.29282 6.00716 5.94282Z" fill="#FFA113"/>
</svg>

 