<svg width="31" height="31" viewBox="0 0 31 31" fill="none" xmlns="http://www.w3.org/2000/svg">
<rect width="31" height="31" rx="15.5" fill="#17D6A8"/>
<rect width="31" height="31" rx="15.5" fill="#17D6A8"/>
<path fill-rule="evenodd" clip-rule="evenodd" d="M7.043 18.4318L11.393 23.5401C11.6653 23.8663 12.0252 24.1108 12.4288 24.2428C13.025 24.4303 13.85 24.4175 14.558 23.4073L24.2743 8.25805C24.3463 8.1463 24.4018 8.02405 24.4385 7.89805C24.5825 7.40305 24.5518 6.3163 23.4733 6.75055C23.174 6.8728 22.9093 7.0693 22.706 7.3198L13.5485 18.3403C13.1975 18.7633 12.5705 18.8211 12.1468 18.4701C12.107 18.4378 12.0695 18.4018 12.035 18.3621L9.9905 16.0386C9.5765 15.5556 8.98325 15.2623 8.348 15.2226C7.66175 15.1941 6.869 15.3958 6.57875 16.3971C6.38375 17.1118 6.557 17.8731 7.043 18.4318Z" fill="white"/>
</svg>
