<svg width="24" height="24" viewBox="0 0 24 24" fill="none" xmlns="http://www.w3.org/2000/svg">
<path d="M22.6705 8.10595C21.8057 7.43138 20.946 6.7491 20.0871 6.06681C19.752 5.80024 19.4168 5.53367 19.0808 5.26795C18.7302 4.99024 18.3797 4.71252 18.0291 4.43481C17.1188 3.71481 16.2085 2.99395 15.3008 2.27052C15.0171 2.0451 14.688 1.87195 14.3605 2.0511C14.0588 2.21567 13.782 2.42567 13.5 2.63995C13.3757 2.73424 13.2505 2.82938 13.1211 2.92195C13.1597 2.95367 13.1922 2.9811 13.2205 3.0051C13.2788 3.05395 13.3208 3.0891 13.3645 3.12338C13.7417 3.42252 14.1197 3.72167 14.4968 4.02081C15.6745 4.9551 16.8531 5.88853 18.0342 6.81853C18.5254 7.2051 18.9188 7.66024 19.0422 8.27481C19.1168 8.64595 19.1262 9.03253 19.128 9.4131V9.5391C19.1357 11.5902 19.1425 13.6422 19.128 15.6925C19.1228 16.362 19.1288 17.0314 19.134 17.7008C19.1451 19.1314 19.1562 20.5662 19.0697 22.0105C19.0817 22.0114 19.0962 22.0122 19.1134 22.0131C19.164 22.0165 19.2325 22.0217 19.3002 22.0208C19.458 22.0208 19.6148 22.0208 19.7725 22.0217C20.5585 22.0225 21.3445 22.0234 22.1305 22.0208C22.8385 22.0182 23.1385 21.72 23.1385 21.0197C23.1385 19.896 23.1385 18.7714 23.1385 17.6477C23.1385 14.7857 23.1377 11.9237 23.1445 9.06167C23.1437 8.65024 22.9945 8.35881 22.6705 8.10595Z" fill="url(#paint0_linear_28942_4434)"/>
<path d="M17.1106 8.10951C16.8552 7.91836 16.6092 7.71608 16.3623 7.51379C16.2577 7.42808 16.1532 7.34151 16.0477 7.25665C15.6217 6.91208 15.1949 6.56751 14.7689 6.22379C13.1309 4.90122 11.4937 3.57865 9.85744 2.25436C9.60372 2.04951 9.32687 1.90893 9.00629 2.01265C8.81429 2.07436 8.63601 2.20293 8.47572 2.33236C7.45744 3.15265 6.44001 3.97379 5.42258 4.79579C4.05029 5.90408 2.67887 7.01151 1.30401 8.11636C0.993723 8.36579 0.855723 8.65551 0.857438 9.05408C0.865152 10.5284 0.864295 12.0026 0.862581 13.4761C0.862581 13.9964 0.861723 14.5166 0.861723 15.0369C0.861723 16.0338 0.861723 17.0315 0.861723 18.0284C0.861723 19.0252 0.861723 20.0229 0.861723 21.0198C0.86258 21.7124 1.16515 22.0201 1.85601 22.0209C3.46229 22.0226 5.06944 22.0226 6.67572 22.0209C6.68601 22.0209 6.69115 22.0175 6.70144 22.0175H11.7252C11.7346 22.0175 11.7406 22.0209 11.75 22.0209C12.2197 22.0226 12.6903 22.0218 13.1609 22.0218C13.3623 22.0218 13.5637 22.0218 13.766 22.0218C14.0523 22.0218 14.3377 22.0218 14.624 22.0209C15.2909 22.0201 15.9586 22.0201 16.6254 22.0226C16.9786 22.0244 17.2889 21.9241 17.4414 21.5915C17.528 21.4021 17.5546 21.1706 17.5546 20.9581C17.5597 18.5829 17.5597 16.2078 17.5597 13.8335C17.5597 13.2395 17.5597 12.6464 17.5597 12.0524C17.5597 11.7661 17.5589 11.4798 17.5589 11.1935C17.5572 10.4778 17.5554 9.76293 17.564 9.04722C17.5666 8.64951 17.4294 8.34865 17.1106 8.10951Z" fill="url(#paint1_linear_28942_4434)"/>
<path d="M12.5535 16.607V14.0133C12.5535 13.8059 12.4473 13.6122 12.2715 13.5008L9.53126 11.7616C9.3324 11.6356 9.07954 11.6356 8.88068 11.7616L6.1404 13.5008C5.96468 13.6122 5.8584 13.8059 5.8584 14.0133V16.6396V16.6413V17.6065C5.8584 17.7068 5.8884 17.7976 5.93211 17.8816C5.93554 17.8876 5.94068 17.8928 5.94411 17.8988C5.99126 17.9819 6.0564 18.0496 6.13526 18.1019C6.13783 18.1036 6.13868 18.1062 6.1404 18.1079H6.14383C6.23811 18.1688 6.3444 18.2133 6.46611 18.2133H11.9544C12.2895 18.2133 12.5613 17.9416 12.5613 17.6065V16.6413C12.5604 16.6285 12.5544 16.619 12.5535 16.607Z" fill="url(#paint2_linear_28942_4434)"/>
<defs>
<linearGradient id="paint0_linear_28942_4434" x1="18.1328" y1="22.0225" x2="18.1328" y2="1.97681" gradientUnits="userSpaceOnUse">
<stop stop-color="#FE0002"/>
<stop offset="1" stop-color="#FF6457"/>
</linearGradient>
<linearGradient id="paint1_linear_28942_4434" x1="9.21073" y1="22.0227" x2="9.21073" y2="1.97766" gradientUnits="userSpaceOnUse">
<stop stop-color="#FE0002"/>
<stop offset="1" stop-color="#FF6457"/>
</linearGradient>
<linearGradient id="paint2_linear_28942_4434" x1="9.20984" y1="18.2133" x2="9.20984" y2="11.6671" gradientUnits="userSpaceOnUse">
<stop stop-color="#FFBFD8"/>
<stop offset="1" stop-color="#FFE5E2"/>
</linearGradient>
</defs>
</svg>
