<svg width="30" height="30" viewBox="0 0 30 30" fill="none" xmlns="http://www.w3.org/2000/svg">
<g clip-path="url(#clip0_31275_2345)">
<path d="M13.6079 7.692L14.0519 7.176H9.22794L4.43994 12.696H9.29994L13.6079 7.692Z" fill="#130F40"/>
<path d="M19.824 13.572H19.032H15.72H10.176L14.976 24.108L15 24.18L19.572 14.124L19.824 13.572Z" fill="#130F40"/>
<path d="M10.4519 12.696H19.5479L17.0759 9.816L14.9999 7.404L11.8679 11.052L10.4519 12.696Z" fill="#130F40"/>
<path d="M4.5 13.572L13.548 23.088L9.228 13.572H4.5Z" fill="#130F40"/>
<path d="M15.96 7.176L20.7 12.696H25.56L20.772 7.176H15.96Z" fill="#130F40"/>
<path d="M16.4639 23.076L25.4999 13.572H20.7839L16.4639 23.076Z" fill="#130F40"/>
<path d="M15 30C14.508 30 14.016 29.88 13.572 29.664L12.828 29.292C12.828 29.292 12.72 29.256 12.672 29.268L11.844 29.4C10.86 29.556 9.84003 29.22 9.14403 28.524L8.54403 27.936C8.54403 27.936 8.44803 27.864 8.38803 27.864L7.57203 27.732C6.56403 27.576 5.66403 26.928 5.22003 26.064L4.83603 25.32C4.83603 25.32 4.77603 25.236 4.71603 25.2L3.97203 24.816C3.10803 24.372 2.46003 23.472 2.30403 22.464L2.17203 21.636C2.17203 21.636 2.13603 21.528 2.10003 21.492L1.51203 20.892C0.804029 20.184 0.480029 19.176 0.636029 18.192L0.768029 17.364C0.768029 17.364 0.768029 17.256 0.744029 17.196L0.372029 16.452C-0.0839707 15.564 -0.0839707 14.496 0.372029 13.608L0.744029 12.864C0.744029 12.864 0.780029 12.756 0.768029 12.708L0.636029 11.88C0.480029 10.896 0.816029 9.876 1.51203 9.18L2.10003 8.58C2.10003 8.58 2.16003 8.484 2.17203 8.436L2.30403 7.608C2.47203 6.6 3.10803 5.7 3.97203 5.256L4.71603 4.872C4.71603 4.872 4.81203 4.812 4.83603 4.764L5.22003 4.02C5.66403 3.156 6.56403 2.508 7.57203 2.352L8.40003 2.22C8.40003 2.22 8.50803 2.184 8.54403 2.148L9.13203 1.56C9.84003 0.852003 10.848 0.528003 11.844 0.684003L12.672 0.816003C12.672 0.816003 12.78 0.816003 12.828 0.792003L13.572 0.420003C14.46 -0.0359971 15.528 -0.0359971 16.416 0.420003L17.16 0.792003C17.16 0.792003 17.268 0.828003 17.328 0.816003L18.156 0.684003C19.14 0.540003 20.16 0.864003 20.856 1.56L21.456 2.148C21.456 2.148 21.552 2.208 21.6 2.22L22.428 2.352C23.436 2.52 24.336 3.156 24.78 4.02L25.164 4.764C25.164 4.764 25.224 4.86 25.284 4.884L26.088 5.352C26.928 5.796 27.552 6.648 27.708 7.62L27.84 8.448C27.84 8.448 27.876 8.556 27.912 8.592L28.5 9.192C29.208 9.9 29.532 10.92 29.376 11.904L29.244 12.732C29.244 12.732 29.244 12.84 29.268 12.888L29.652 13.632C30.108 14.52 30.108 15.588 29.652 16.476L29.268 17.22C29.244 17.268 29.232 17.328 29.244 17.376L29.376 18.204C29.532 19.176 29.208 20.184 28.512 20.892C28.512 20.892 27.912 21.552 27.9 21.564C27.864 21.6 27.84 21.648 27.828 21.708L27.696 22.536C27.564 23.364 27.084 24.12 26.4 24.6V25.092H25.524L25.284 25.212C25.284 25.212 25.188 25.272 25.164 25.332L24.696 26.136C24.252 26.988 23.4 27.6 22.428 27.756L21.6 27.888C21.6 27.888 21.492 27.924 21.456 27.96L20.856 28.548C20.148 29.256 19.128 29.58 18.144 29.424L17.316 29.292C17.316 29.292 17.208 29.292 17.148 29.316L16.404 29.688C15.972 29.904 15.48 30.024 14.976 30.024L15 30ZM12.708 28.056C12.936 28.056 13.164 28.104 13.368 28.212L14.112 28.584C14.652 28.86 15.336 28.86 15.876 28.584L16.62 28.212C16.896 28.068 17.196 28.02 17.508 28.068L18.336 28.2C18.96 28.296 19.572 28.092 20.016 27.648L20.616 27.06C20.832 26.844 21.108 26.7 21.42 26.652L22.248 26.52C22.848 26.424 23.376 26.04 23.664 25.5L24.108 24.744C24.252 24.456 24.48 24.24 24.756 24.096L25.536 23.688C26.064 23.4 26.436 22.872 26.532 22.284L26.664 21.456C26.712 21.156 26.856 20.88 27.06 20.664L27.648 20.016C28.092 19.56 28.284 18.936 28.2 18.336L28.068 17.508C28.02 17.208 28.068 16.896 28.212 16.62L28.596 15.864C28.872 15.312 28.872 14.652 28.596 14.1L28.224 13.356C28.08 13.08 28.032 12.78 28.08 12.468L28.212 11.64C28.308 11.028 28.104 10.404 27.66 9.96L27.072 9.36C26.856 9.144 26.712 8.868 26.664 8.556L26.532 7.728C26.436 7.128 26.052 6.6 25.512 6.312L24.768 5.868C24.48 5.724 24.264 5.496 24.12 5.232L23.736 4.488C23.46 3.948 22.896 3.552 22.248 3.456L21.42 3.324C21.12 3.276 20.844 3.132 20.616 2.916L20.016 2.328C19.572 1.896 18.948 1.692 18.336 1.788L17.508 1.92C17.196 1.968 16.896 1.92 16.62 1.776L15.876 1.404C15.324 1.128 14.664 1.128 14.112 1.404L13.368 1.776C13.092 1.908 12.792 1.968 12.492 1.92L11.664 1.788C11.052 1.692 10.428 1.896 9.98403 2.328L9.38403 2.916C9.16803 3.132 8.89203 3.276 8.58003 3.324L7.75203 3.456C7.11603 3.564 6.54003 3.96 6.27603 4.488L5.89203 5.232C5.74803 5.508 5.53203 5.724 5.25603 5.868L4.51203 6.252C3.97203 6.528 3.57603 7.092 3.48003 7.74L3.34803 8.568C3.30003 8.868 3.15603 9.144 2.94003 9.372L2.35203 9.972C1.92003 10.416 1.71603 11.04 1.81203 11.652L1.94403 12.48C1.99203 12.78 1.94403 13.092 1.80003 13.368L1.42803 14.112C1.15203 14.664 1.15203 15.324 1.42803 15.876L1.80003 16.62C1.94403 16.896 1.99203 17.208 1.94403 17.508L1.81203 18.336C1.71603 18.948 1.92003 19.572 2.35203 20.016L2.94003 20.616C3.15603 20.832 3.30003 21.108 3.34803 21.42L3.48003 22.248C3.58803 22.884 3.98403 23.46 4.51203 23.724L5.25603 24.108C5.53203 24.252 5.74803 24.468 5.89203 24.744L6.27603 25.488C6.55203 26.028 7.11603 26.424 7.76403 26.52L8.59203 26.652C8.89203 26.7 9.16803 26.844 9.38403 27.06L9.98403 27.648C10.428 28.08 11.052 28.296 11.664 28.2L12.492 28.068C12.564 28.068 12.648 28.056 12.72 28.056H12.708Z" fill="#B9B7C6"/>
</g>
<defs>
<clipPath id="clip0_31275_2345">
<rect width="30" height="30" fill="white"/>
</clipPath>
</defs>
</svg>
