<svg width="30" height="30" viewBox="0 0 30 30" fill="none" xmlns="http://www.w3.org/2000/svg">
<g clip-path="url(#clip0_26920_1351)">
<path d="M4.42143 18.0628C4.46145 13.9473 6.90226 11.1733 9.47312 10.3206C12.2941 9.37701 15.6752 10.5025 17.5058 13.8791C18.066 13.5153 18.6562 13.2424 19.2864 13.106C22.0573 12.4807 24.8682 14.5953 25.4184 17.7558C25.4584 18.0059 25.5485 18.0969 25.7685 18.1423C28.1994 18.6881 30.01 21.2119 30 24.02C30 26.8281 28.1793 29.3292 25.7385 29.8749C25.3684 29.9545 24.9883 30 24.6082 30C18.196 30 11.7839 30 5.38175 30C2.79089 30 0.590157 27.9764 0.099994 25.1796C-0.460193 21.9623 1.39042 18.7904 4.22137 18.1423C4.29139 18.131 4.35141 18.1082 4.43144 18.0855L4.42143 18.0628Z" fill="#E7B3EA"/>
<path d="M26.67 19.56H17.18C16.94 18.95 16.45 18.46 15.84 18.23V16.81H23.81C24.03 16.81 24.23 16.76 24.42 16.68C24.93 16.45 25.28 15.95 25.28 15.35V10.74C25.28 9.93 24.63 9.27 23.81 9.27H6.17C5.36 9.27 4.7 9.93 4.7 10.74V15.35C4.7 15.94 5.06 16.45 5.57 16.68C5.75 16.76 5.96 16.81 6.17 16.81H14.17V18.23C13.55 18.46 13.06 18.95 12.82 19.56H3.33C3.15 19.56 3 19.71 3 19.89V20.9C3 21.08 3.15 21.22 3.33 21.22H12.82C13.06 21.84 13.55 22.33 14.17 22.56C14.43 22.67 14.71 22.72 15 22.72C15.29 22.72 15.58 22.67 15.84 22.56C16.45 22.33 16.94 21.84 17.18 21.22H26.67C26.85 21.22 27 21.08 27 20.9V19.89C27 19.71 26.85 19.56 26.67 19.56Z" fill="#AE00B9"/>
<path d="M6.17 7.54H23.81C24.63 7.54 25.28 6.89 25.28 6.08V1.47C25.28 0.66 24.63 0 23.81 0H6.17C5.36 0 4.7 0.66 4.7 1.47V6.08C4.7 6.89 5.36 7.54 6.17 7.54Z" fill="#AE00B9"/>
<path d="M12.48 4.61C13 4.61 13.42 4.19 13.42 3.68C13.42 3.17 13 2.75 12.49 2.75C11.98 2.75 11.55 3.16 11.55 3.68C11.55 4.2 11.97 4.61 12.48 4.61Z" fill="white"/>
<path d="M8.3299 4.60001C8.8399 4.60001 9.2599 4.19001 9.2599 3.67001C9.2599 3.15001 8.8499 2.74001 8.3299 2.74001C7.8099 2.74001 7.3999 3.16001 7.3999 3.67001C7.3999 4.18001 7.8099 4.60001 8.3299 4.60001Z" fill="white"/>
<path d="M17.63 13.97C18.1436 13.97 18.56 13.5536 18.56 13.04C18.56 12.5264 18.1436 12.11 17.63 12.11C17.1163 12.11 16.7 12.5264 16.7 13.04C16.7 13.5536 17.1163 13.97 17.63 13.97Z" fill="white"/>
<path d="M21.42 13.97C21.94 13.97 22.36 13.56 22.36 13.04C22.36 12.52 21.94 12.11 21.42 12.11C20.9 12.11 20.49 12.53 20.49 13.04C20.49 13.55 20.91 13.97 21.42 13.97Z" fill="white"/>
<path d="M8.3299 12.11C7.8199 12.11 7.3999 12.53 7.3999 13.04C7.3999 13.55 7.8199 13.97 8.3299 13.97C8.8399 13.97 9.2599 13.56 9.2599 13.04C9.2599 12.52 8.8499 12.11 8.3299 12.11Z" fill="white"/>
</g>
<defs>
<clipPath id="clip0_26920_1351">
<rect width="30" height="30" fill="white"/>
</clipPath>
</defs>
</svg>
