<svg width="20" height="20" viewBox="0 0 20 20" fill="none" xmlns="http://www.w3.org/2000/svg">
<path d="M9.96018 12.0408C12.6338 12.0408 14.9168 12.4779 14.9168 14.2271C14.9168 15.9755 12.6485 16.4286 9.96018 16.4286C7.28654 16.4286 5.0036 15.9914 5.0036 14.243C5.0036 12.4938 7.2719 12.0408 9.96018 12.0408ZM14.235 10.9875C15.2572 10.9679 16.3561 11.1127 16.7621 11.2154C17.6224 11.3899 18.1883 11.7459 18.4227 12.2634C18.6209 12.6882 18.6209 13.181 18.4227 13.6051C18.0641 14.4077 16.908 14.6654 16.4586 14.7319C16.3658 14.7464 16.2912 14.6631 16.301 14.5669C16.5305 12.343 14.7046 11.2886 14.2323 11.0461C14.212 11.0353 14.2078 11.0186 14.2099 11.0085C14.2113 11.0012 14.2197 10.9896 14.235 10.9875ZM5.7653 10.9878C5.78065 10.9899 5.78833 11.0015 5.78972 11.0081C5.79181 11.0189 5.78763 11.0348 5.76809 11.0464C5.29504 11.2889 3.46911 12.3433 3.69866 14.5665C3.70843 14.6634 3.63448 14.746 3.54168 14.7322C3.09235 14.6656 1.93623 14.408 1.5776 13.6054C1.37875 13.1806 1.37875 12.6885 1.5776 12.2636C1.81204 11.7462 2.37719 11.3901 3.23748 11.215C3.64424 11.113 4.74245 10.9682 5.7653 10.9878ZM9.96018 3.57143C11.7805 3.57143 13.2401 5.08396 13.2401 6.97283C13.2401 8.861 11.7805 10.3749 9.96018 10.3749C8.13983 10.3749 6.68021 8.861 6.68021 6.97283C6.68021 5.08396 8.13983 3.57143 9.96018 3.57143ZM14.413 4.13866C16.1712 4.13866 17.552 5.85456 17.0817 7.76585C16.7643 9.05257 15.6151 9.90728 14.3348 9.87257C14.2064 9.86893 14.0801 9.85664 13.958 9.83493C13.8694 9.819 13.8248 9.7155 13.875 9.63878C14.3634 8.89335 14.6418 7.99671 14.6418 7.0342C14.6418 6.0297 14.3376 5.09323 13.8094 4.32538C13.7927 4.3015 13.7801 4.26459 13.7968 4.23709C13.8108 4.21465 13.8366 4.20308 13.861 4.19728C14.039 4.15965 14.2218 4.13866 14.413 4.13866ZM5.58633 4.13859C5.77751 4.13859 5.96031 4.15958 6.13893 4.19721C6.16265 4.203 6.18916 4.2153 6.20312 4.23701C6.21916 4.26452 6.2073 4.30143 6.19055 4.3253C5.66238 5.09315 5.35818 6.02963 5.35818 7.03412C5.35818 7.99664 5.63657 8.89328 6.12498 9.63871C6.17521 9.71543 6.13055 9.81893 6.04195 9.83485C5.91915 9.85728 5.79355 9.86885 5.66518 9.8725C4.38487 9.90721 3.23573 9.0525 2.91827 7.76578C2.44731 5.85449 3.82809 4.13859 5.58633 4.13859Z" fill="#FFA113"/>
</svg>
