<svg width="50" height="50" viewBox="0 0 50 50" fill="none" xmlns="http://www.w3.org/2000/svg">
<path d="M20.278 23.8507C20.3772 23.4536 20.4568 23.1005 20.5583 22.7535C20.581 22.677 20.6689 22.5914 20.7462 22.5641C22.1608 22.061 23.5504 21.4693 25.109 21.5632C26.4365 21.6428 27.6555 22.4368 27.864 23.6211C27.9934 24.3606 27.9466 25.1781 27.7768 25.9138C27.3926 27.577 26.8691 29.2083 26.4319 30.86C26.3084 31.3282 26.2531 31.8215 26.2273 32.3063C26.1902 33.0049 26.4917 33.3633 27.1858 33.4945C27.9087 33.631 28.6147 33.5384 29.3028 33.2847C29.3491 33.2673 29.3998 33.2626 29.5126 33.2376C29.4148 33.6181 29.337 33.9575 29.2355 34.2893C29.2134 34.3622 29.1179 34.4371 29.0406 34.4636C28.1846 34.76 27.3411 35.1252 26.4615 35.3189C25.2097 35.5948 23.9535 35.5903 22.8253 34.812C22.004 34.2454 21.6509 33.4611 21.7039 32.4746C21.7994 30.7009 22.5086 29.0771 22.9291 27.3822C23.1375 26.5427 23.3504 25.6941 23.4383 24.8364C23.536 23.8847 23.0344 23.4423 22.0555 23.4764C21.7592 23.487 21.4622 23.5347 21.1713 23.5953C20.8864 23.6559 20.6091 23.7544 20.278 23.8507Z" fill="#130F40"/>
<path d="M26.0834 14.56C27.5344 14.5562 28.6209 15.6594 28.5951 17.074C28.5762 18.1098 27.8639 19.0076 26.8161 19.3175C25.6629 19.6577 24.3741 19.0902 23.8748 18.0226C23.1701 16.5148 24.1589 14.7592 25.8167 14.5766C25.916 14.5668 26.0168 14.5645 26.0834 14.56Z" fill="#130F40"/>
<path fill-rule="evenodd" clip-rule="evenodd" d="M25.0003 3.57153C13.1846 3.57153 3.57178 13.1844 3.57178 25.0001C3.57178 36.8167 13.1846 46.4287 25.0003 46.4287C36.8169 46.4287 46.4289 36.8167 46.4289 25.0001C46.4289 13.1844 36.8169 3.57153 25.0003 3.57153ZM12.1159 12.1156C15.5576 8.67323 20.1322 6.77885 25.0003 6.77885C29.8685 6.77885 34.4422 8.67392 37.8847 12.1157C41.3273 15.5574 43.2215 20.1327 43.2215 25.0001C43.2215 29.8674 41.3266 34.442 37.8846 37.8844C34.4431 41.327 29.8678 43.2212 25.0003 43.2212C20.133 43.2212 15.5584 41.3263 12.1159 37.8844C8.67348 34.4428 6.7791 29.8683 6.7791 25.0001C6.7791 20.132 8.67421 15.5573 12.1159 12.1156Z" fill="#130F40"/>
</svg>
