<svg width="100" height="100" viewBox="0 0 100 100" fill="none" xmlns="http://www.w3.org/2000/svg">
<rect width="100" height="100" rx="20" fill="#48FF91"/>
<path d="M72.6338 35.4842C72.6389 35.4842 72.6415 35.4842 72.6466 35.4842C77.2032 35.4842 80.8495 31.8663 80.8598 27.3328C80.87 22.8071 77.2572 19.1557 72.7546 19.1428C72.7469 19.1428 72.7392 19.1428 72.7315 19.1428C68.1826 19.1428 64.5363 22.7531 64.5158 27.2814C64.49 31.7583 68.1749 35.4791 72.6338 35.4842Z" fill="#004D29"/>
<path d="M75.3157 39.0278C74.4517 39.2309 73.5542 39.3415 72.626 39.3415C69.4425 39.3364 66.4391 38.0764 64.1685 35.7904C61.8877 33.4967 60.6405 30.4675 60.6534 27.2635C60.656 26.4715 60.746 25.7001 60.9054 24.9544C61.2962 23.1287 59.8151 21.4341 57.9482 21.4341H32.6685C25.1857 21.5112 19.1428 27.5798 19.1428 35.0601V58.0178C19.1428 65.0609 24.5171 70.7952 31.3571 71.5152C31.4857 71.5409 31.64 71.5667 31.7685 71.5667C31.7943 71.5667 31.82 71.5924 31.8457 71.5924C32.0771 71.6181 32.3343 71.6438 32.5657 71.6695H38.4003L39.3311 79.1884C39.5111 80.6386 41.1928 81.3509 42.3603 80.4715L54.0217 71.6695H65.3025C65.4054 71.6695 65.534 71.6695 65.6368 71.6438C73.0168 71.4895 78.9311 65.4467 78.9311 58.0178V42.0569C78.9285 40.1464 77.1774 38.5907 75.3157 39.0278ZM36.9885 51.1032C35.3428 51.1032 34.0057 49.7404 34.0057 48.1204C34.0314 46.5004 35.3943 45.1375 37.0142 45.1632C38.6343 45.1632 39.9714 46.5004 39.9714 48.1461C39.9714 49.7661 38.6085 51.1032 36.9885 51.1032ZM48.8685 51.1032C47.2228 51.0775 45.9371 49.7661 45.9371 48.0947C45.9371 46.4747 47.3 45.1375 48.92 45.1632C50.5657 45.1889 51.8514 46.5004 51.8514 48.1718C51.8514 49.7918 50.4885 51.1289 48.8685 51.1032ZM60.7743 51.1032C59.1543 51.1032 57.8171 49.7661 57.8171 48.1204C57.8171 46.5004 59.18 45.1375 60.8 45.1632C62.42 45.1632 63.7828 46.5261 63.7828 48.1461C63.7828 49.7661 62.3943 51.1032 60.7743 51.1032Z" fill="#004D29"/>
</svg>
