<svg width="20" height="20" viewBox="0 0 20 20" fill="none" xmlns="http://www.w3.org/2000/svg">
<rect width="20" height="20" rx="10" fill="white"/>
<path d="M11.7391 14.9344C12.0659 15.2067 12.3694 15.7633 12.3694 16.6136C12.3694 17.8278 12.3577 18.8036 12.3577 19.0986C12.3577 19.2884 12.4617 19.5077 12.7473 19.542C12.8068 19.5506 12.8819 19.5553 12.976 19.5528C12.0612 19.8432 11.0846 20.0001 10.0706 20.0001C9.04663 20.0001 8.12182 19.8963 7.19971 19.6001C7.65057 19.6737 7.75535 19.3418 7.75535 19.1048C7.75535 18.8891 7.74771 18.318 7.74368 17.5616C5.14612 18.1088 4.59824 16.3441 4.59824 16.3441C4.17363 15.2969 3.55937 15.0166 3.55937 15.0166C2.71346 14.4542 3.62502 14.4658 3.62502 14.4658C4.56249 14.5289 5.05532 15.4008 5.05532 15.4008C5.88774 16.7881 7.24106 16.3874 7.77509 16.1558C7.85898 15.5685 8.09937 15.1692 8.3664 14.9419C6.29265 14.715 4.11274 13.9348 4.11274 10.4577C4.11274 9.46745 4.47461 8.65796 5.07394 8.02309C4.96889 7.79368 4.65372 6.87089 5.15564 5.62096C5.15564 5.62096 5.93773 5.37781 7.72368 6.55165C8.47075 6.35 9.26448 6.24972 10.0582 6.24539C10.852 6.24972 11.6457 6.35 12.3928 6.55165C14.1671 5.37781 14.9492 5.62096 14.9492 5.62096C15.4511 6.87089 15.1359 7.79364 15.0425 8.02309C15.6378 8.65796 15.9997 9.46745 15.9997 10.4577C15.9996 13.9438 13.8168 14.7111 11.7391 14.9344Z" fill="#040D21"/>
</svg>
