<svg width="20" height="20" viewBox="0 0 20 20" fill="none" xmlns="http://www.w3.org/2000/svg">
<path d="M18.5478 15.2736C18.5363 14.9414 18.3913 14.6264 18.1285 14.3621C18.1206 14.355 18.1128 14.3479 18.1049 14.3407C18.0785 14.3171 18.0542 14.295 18.0413 14.2621C18.3828 13.9479 18.557 13.5607 18.5599 13.1121C18.5642 12.6464 18.5678 12.105 18.5592 11.5771C18.552 11.0464 18.342 10.615 17.9342 10.2957C17.6863 10.1014 17.392 9.99572 17.0106 9.96429V9.45358C17.0113 8.91643 17.0113 8.38858 17.0099 7.86001C17.0099 7.52215 16.9099 7.39429 16.582 7.31072C16.2742 7.23286 15.9656 7.15572 15.6585 7.07929L15.1956 6.96429C15.1163 6.94429 15.0542 6.89072 15.0235 6.81715C14.9928 6.74501 14.9992 6.66429 15.0399 6.59643C15.1513 6.41001 15.2628 6.22429 15.3742 6.03858C15.5135 5.80644 15.6542 5.57429 15.792 5.34072C15.9478 5.08001 15.9285 4.91286 15.7185 4.70286C15.0942 4.07429 14.4463 3.42643 13.7392 2.72286C13.5299 2.51358 13.3585 2.49358 13.0999 2.64786C12.8556 2.79358 12.6106 2.94072 12.3663 3.08786C12.1978 3.19001 12.0285 3.29143 11.8599 3.39286C11.7842 3.43786 11.6992 3.44643 11.6228 3.41501C11.5485 3.38358 11.4935 3.31786 11.4728 3.23286C11.4142 2.99929 11.3563 2.76501 11.2985 2.53143C11.2406 2.29786 11.1835 2.06358 11.1249 1.82929C11.0528 1.54215 10.9106 1.42929 10.6192 1.42929C9.68632 1.42786 8.75275 1.42858 7.82061 1.42929C7.52918 1.42929 7.39418 1.53358 7.32275 1.81286C7.23704 2.14643 7.15347 2.48001 7.0699 2.81429L6.96061 3.24786C6.94132 3.32286 6.88847 3.38358 6.81347 3.41429C6.74061 3.44501 6.65918 3.44072 6.59347 3.40072L5.36775 2.66572C5.07061 2.48858 4.91561 2.50786 4.67561 2.74786C4.03132 3.39215 3.38704 4.03643 2.74347 4.68072C2.50775 4.91643 2.48775 5.07501 2.65704 5.35858C2.79418 5.58786 2.93204 5.81715 3.06918 6.04572C3.17775 6.22572 3.2849 6.40572 3.39275 6.58501C3.43775 6.66001 3.44632 6.74143 3.41632 6.81429C3.38561 6.88929 3.31632 6.94501 3.22704 6.96786L2.93418 7.04143C2.56918 7.13215 2.20561 7.22358 1.84132 7.31643C1.52847 7.39643 1.42847 7.52429 1.42847 7.84429C1.42847 8.76072 1.42847 9.67786 1.42847 10.5943C1.42847 10.9193 1.53418 11.0557 1.84775 11.1343L1.98418 11.1679C2.39561 11.27 2.80704 11.3721 3.21847 11.475C3.31418 11.4986 3.38275 11.5521 3.41347 11.6257C3.4449 11.7021 3.43347 11.7936 3.37918 11.8829C3.14275 12.2771 2.90561 12.6714 2.6699 13.0664C2.48275 13.3793 2.50061 13.5264 2.75847 13.7843L2.96061 13.9864C3.44561 14.4736 3.94775 14.9771 4.44418 15.4686C4.50704 15.5321 4.53132 15.5893 4.53061 15.675C4.52561 16.0379 4.52561 16.43 4.52918 16.9086C4.53132 17.215 4.58275 17.4557 4.69132 17.6657C4.9999 18.2664 5.50918 18.57 6.20632 18.57C8.31347 18.5707 10.4213 18.5714 12.5278 18.5707L15.2835 18.5714C15.4985 18.5714 15.7142 18.5714 15.9292 18.5714C16.2535 18.5714 16.577 18.5707 16.902 18.57C17.8192 18.5679 18.4792 17.9743 18.5442 17.0929C18.5878 16.5043 18.5713 15.9207 18.5478 15.2736ZM16.892 13.8407C15.5556 13.8421 14.2192 13.8414 12.8828 13.8414H9.76918C8.5849 13.8421 7.40061 13.8414 6.21561 13.8414C5.79632 13.8414 5.51918 13.6614 5.41418 13.3207C5.38775 13.235 5.37561 13.1393 5.37561 13.0193V12.76C5.3749 12.3857 5.37418 12.0107 5.37632 11.6364C5.37918 11.1114 5.67918 10.81 6.19918 10.81C7.98132 10.8093 9.76347 10.8093 11.5463 10.8093C13.3285 10.8093 15.1106 10.8093 16.8935 10.81C17.4142 10.81 17.7149 11.1107 17.717 11.6357C17.7192 12.0943 17.7192 12.56 17.717 13.0186C17.7135 13.5414 17.4135 13.8407 16.892 13.8407ZM5.3749 16.5836C5.3749 16.2336 5.37418 15.8821 5.3749 15.5307C5.37704 14.9836 5.66847 14.6936 6.21704 14.6936C6.80918 14.6936 7.40132 14.6936 7.99347 14.6936C8.58561 14.6936 9.17775 14.6936 9.7699 14.6936H12.7306C14.1113 14.6929 15.4949 14.6943 16.8763 14.6914C17.1842 14.6914 17.3985 14.7821 17.5535 14.9779C17.6635 15.1171 17.7149 15.2829 17.7149 15.5014C17.7156 15.9621 17.7163 16.4236 17.7149 16.8843C17.7135 17.4264 17.4142 17.725 16.872 17.725C14.4178 17.7257 11.9642 17.7257 9.5099 17.7257H6.24561C5.6599 17.725 5.37418 17.4371 5.37347 16.8464V16.5836H5.3749ZM4.54775 11.3829C4.49775 12.0257 4.51561 12.6614 4.54204 13.2529C4.55704 13.5971 4.7049 13.9164 4.9699 14.1779C4.99704 14.2043 5.02204 14.2329 5.04632 14.2607C5.04775 14.2629 5.04918 14.2657 5.05061 14.27C4.95775 14.365 4.86204 14.4636 4.79418 14.5729L3.52061 13.2979L3.84847 12.7486C3.98775 12.5143 4.12704 12.28 4.26918 12.0471C4.36418 11.8914 4.3749 11.7357 4.30132 11.5714C4.22561 11.4007 4.15704 11.2229 4.09132 11.05C4.0249 10.8771 3.90347 10.7714 3.71918 10.7271C3.38418 10.6464 3.04275 10.5593 2.71204 10.4757C2.56632 10.4386 2.4199 10.4014 2.27204 10.3643V9.86929C2.27204 9.29001 2.27204 8.71358 2.27061 8.13786C2.27061 8.08286 2.28775 8.07643 2.35347 8.06001C2.52061 8.01929 2.68704 7.97715 2.85347 7.93429C3.11704 7.86715 3.38918 7.79786 3.65918 7.73643C3.90347 7.68072 4.04918 7.55072 4.11632 7.32715C4.16204 7.17786 4.22704 7.03644 4.28418 6.91786C4.37775 6.72858 4.36704 6.55286 4.25204 6.36572C4.06561 6.06358 3.88061 5.75501 3.70275 5.45715C3.63847 5.34858 3.57347 5.24001 3.50918 5.13286L5.12918 3.51215L5.99632 4.03001C6.1299 4.11001 6.26418 4.18929 6.39704 4.27143C6.55347 4.36786 6.70918 4.37786 6.87275 4.30286C7.0249 4.23286 7.18275 4.16072 7.3449 4.11001C7.55347 4.04501 7.67561 3.90572 7.73061 3.67215C7.7849 3.44001 7.84418 3.20429 7.90204 2.97572C7.95347 2.77215 8.00418 2.56929 8.05347 2.36501C8.07132 2.29001 8.08561 2.27072 8.1549 2.27072H8.15632C8.72632 2.27429 9.2949 2.27286 9.87418 2.27358H10.3599C10.3913 2.39858 10.4235 2.52215 10.4542 2.64572C10.547 3.01143 10.6356 3.35643 10.7192 3.71072C10.767 3.91001 10.877 4.03358 11.0663 4.10072C11.2499 4.16501 11.3949 4.22501 11.5235 4.28715C11.7135 4.38001 11.8899 4.36929 12.0749 4.25358C12.367 4.07286 12.6649 3.89501 12.952 3.72286C13.0649 3.65572 13.1763 3.58858 13.287 3.52215L14.9163 5.15143L14.5013 5.84715C14.3899 6.03286 14.2792 6.21786 14.1656 6.40215C14.072 6.55358 14.062 6.70929 14.1342 6.87858L14.1685 6.95644C14.2263 7.09001 14.2863 7.22786 14.3342 7.36715C14.4013 7.56429 14.5342 7.67929 14.7513 7.73143C15.0828 7.81001 15.4206 7.89429 15.747 7.97643C15.8813 8.01001 16.0149 8.04358 16.1506 8.07715V9.95429H13.047C13.1135 9.59643 13.1385 9.27786 13.1242 8.98072C13.0342 7.17786 11.6099 5.62001 9.81275 5.35715C8.0599 5.10072 6.33775 6.05001 5.63347 7.66572C5.29347 8.44429 5.21847 9.22929 5.4099 9.99786C5.4349 10.0971 5.41704 10.135 5.32204 10.1907C4.85418 10.4629 4.58632 10.875 4.54775 11.3829ZM7.29632 6.83715C8.37061 5.99001 9.87561 5.93215 10.9563 6.69858C12.0392 7.46572 12.5335 8.80358 12.1635 9.96143H6.2799C5.9099 8.97072 6.36132 7.57501 7.29632 6.83715ZM14.6835 12.3171C14.6878 12.5279 14.6063 12.7307 14.4549 12.8871C14.302 13.0457 14.1006 13.1336 13.887 13.1364C13.8828 13.1364 13.8785 13.1364 13.8742 13.1364C13.6592 13.1364 13.457 13.0536 13.3035 12.9021C13.1478 12.7493 13.0613 12.5464 13.0606 12.3293C13.0592 11.8871 13.4206 11.5236 13.8656 11.5186C13.8685 11.5186 13.8713 11.5186 13.8742 11.5186C14.3113 11.5193 14.6742 11.875 14.6835 12.3171ZM17.0056 12.3493C16.9985 12.5693 16.9085 12.7721 16.7506 12.9193C16.5999 13.0607 16.4035 13.1371 16.1949 13.1371C16.1842 13.1371 16.1749 13.1371 16.1642 13.1364C15.7242 13.1214 15.377 12.745 15.3906 12.2986C15.397 12.0857 15.4863 11.8871 15.6442 11.74C15.7956 11.5979 15.9906 11.5207 16.1956 11.5207C16.2056 11.5207 16.2142 11.5207 16.2242 11.5214C16.6678 11.5371 17.0185 11.9079 17.0056 12.3493ZM6.90632 11.8529C6.95275 12.1729 6.95204 12.4936 6.90561 12.8071C6.87775 12.9957 6.70561 13.1357 6.50918 13.1357C6.50132 13.1357 6.49347 13.1357 6.4849 13.135C6.28204 13.1236 6.12418 12.9779 6.09347 12.7721L6.09204 12.7614C6.08918 12.7414 6.08561 12.7207 6.08561 12.7C6.0849 12.6043 6.0849 12.5079 6.0849 12.4121V12.2807H6.09132C6.09132 12.2493 6.09061 12.2179 6.0899 12.1879C6.08775 12.0929 6.08561 11.9943 6.09418 11.8971C6.11347 11.68 6.27275 11.5293 6.49132 11.5221C6.49775 11.5221 6.50418 11.5214 6.5099 11.5214C6.71847 11.5221 6.87704 11.6536 6.90632 11.8529ZM10.0213 11.9057C10.0378 12.1936 10.037 12.4807 10.0199 12.7586C10.007 12.9714 9.82704 13.1357 9.60847 13.1357C9.60632 13.1357 9.60418 13.1357 9.60204 13.1357C9.37918 13.1329 9.20632 12.9636 9.19061 12.7336C9.18418 12.6407 9.18561 12.5457 9.18775 12.455C9.18775 12.4236 9.18847 12.3929 9.18847 12.3621V12.3321C9.18847 12.2907 9.18775 12.2493 9.18704 12.2079C9.18561 12.1179 9.18418 12.0229 9.1899 11.9307C9.2049 11.6936 9.36704 11.5307 9.59418 11.5236C9.59918 11.5236 9.6049 11.5229 9.6099 11.5229C9.83347 11.5221 10.0092 11.685 10.0213 11.9057ZM8.46704 12.35C8.46704 12.3921 8.46775 12.435 8.46918 12.4771C8.47132 12.5721 8.47418 12.6714 8.46418 12.7693C8.44347 12.9729 8.28418 13.1229 8.07632 13.1357C8.06847 13.1364 8.06061 13.1364 8.05204 13.1364C7.85418 13.1364 7.68275 12.9957 7.6549 12.8079C7.60561 12.4757 7.60632 12.1486 7.65704 11.8371C7.68704 11.6529 7.85204 11.5229 8.05275 11.5229C8.05775 11.5229 8.06347 11.5236 8.06918 11.5236C8.27847 11.5307 8.43847 11.6707 8.4599 11.8657C8.47204 11.9779 8.46918 12.0921 8.46632 12.2036C8.46561 12.2414 8.46418 12.2779 8.46418 12.3157H8.46704V12.35ZM13.2985 16.7764C13.1428 16.6214 13.0585 16.4171 13.0606 16.2021C13.0642 15.7586 13.4285 15.3979 13.8728 15.3979C14.3149 15.3979 14.6785 15.7593 14.682 16.2043C14.6856 16.6471 14.3256 17.0114 13.8799 17.0164C13.877 17.0164 13.8742 17.0164 13.8713 17.0164C13.6563 17.0157 13.4528 16.9314 13.2985 16.7764ZM15.6342 16.7864C15.4799 16.6364 15.3928 16.4364 15.3899 16.2229C15.3863 16.0029 15.4692 15.7957 15.622 15.64C15.7749 15.485 15.9785 15.3993 16.1956 15.3986C16.197 15.3986 16.1992 15.3986 16.1992 15.3986C16.6399 15.3986 17.0006 15.7571 17.0056 16.2C17.0106 16.6436 16.6542 17.0093 16.2099 17.015C16.2049 17.015 16.2006 17.015 16.1963 17.015C15.9856 17.015 15.787 16.9343 15.6342 16.7864ZM6.0899 16.2093L6.09132 16.1736C6.09132 16.1414 6.09061 16.1093 6.0899 16.0771C6.08775 15.9779 6.08561 15.875 6.0949 15.7736C6.11347 15.5636 6.28204 15.4064 6.4949 15.3993C6.49918 15.3993 6.50347 15.3993 6.50775 15.3993C6.7099 15.3993 6.88061 15.5421 6.90775 15.7371C6.95132 16.0471 6.95132 16.3629 6.90847 16.675C6.88061 16.88 6.72275 17.0121 6.51204 17.0121C6.50204 17.0121 6.49132 17.0121 6.48132 17.0114C6.26347 16.9986 6.11061 16.8486 6.09275 16.6279C6.0849 16.5307 6.08632 16.4321 6.08847 16.3364C6.08847 16.2936 6.0899 16.2514 6.0899 16.2093ZM9.18918 16.2029C9.18918 16.1621 9.18847 16.1207 9.18775 16.08C9.18632 15.9893 9.1849 15.8943 9.19061 15.8014C9.20561 15.5793 9.36775 15.4143 9.58418 15.4007C9.59275 15.4 9.60204 15.4 9.61061 15.4C9.82061 15.4 9.99561 15.5536 10.0156 15.76C10.047 16.0771 10.0463 16.3814 10.0142 16.665C9.99061 16.8693 9.82132 17.0136 9.60847 17.0136C9.60347 17.0136 9.59847 17.0129 9.59347 17.0129C9.3699 17.005 9.20847 16.8479 9.19132 16.6221C9.18418 16.525 9.18561 16.4264 9.18775 16.3307C9.18847 16.2979 9.18847 16.2664 9.18918 16.2343V16.2029ZM7.65632 16.6886C7.60704 16.36 7.60704 16.0329 7.65775 15.7179C7.68632 15.5364 7.85847 15.3986 8.05275 15.3986C8.05775 15.3986 8.06347 15.3993 8.06918 15.3993C8.27204 15.4079 8.43704 15.5521 8.46132 15.7429C8.4749 15.8521 8.47775 15.9621 8.48061 16.0686C8.48132 16.1143 8.48275 16.1593 8.4849 16.2043C8.48275 16.2564 8.48204 16.305 8.48061 16.3529C8.47847 16.4607 8.47561 16.5621 8.46275 16.665C8.43775 16.8621 8.28275 17.0014 8.07704 17.0121C8.06918 17.0129 8.06132 17.0129 8.05347 17.0129C7.84704 17.0121 7.68561 16.8814 7.65632 16.6886Z" fill="#5A577A"/>
</svg>
