<svg width="30" height="30" viewBox="0 0 30 30" fill="none" xmlns="http://www.w3.org/2000/svg">
<g clip-path="url(#clip0_26910_17239)">
<path d="M27.2819 16.378C27.1399 16.277 26.9779 16.196 26.8359 16.094C26.7349 16.033 26.6129 15.952 26.4909 15.891C26.1669 15.688 26.0049 15.364 26.0049 14.979C26.0049 14.634 26.1669 14.31 26.4709 14.107C26.5929 14.046 26.7349 13.965 26.8759 13.884C26.9769 13.803 27.1399 13.722 27.2809 13.621C28.9629 12.486 29.5509 10.357 28.6189 8.574C28.2539 7.824 27.8279 7.115 27.3819 6.425C26.6319 5.31 25.4359 4.662 24.1189 4.662C23.5109 4.662 22.9229 4.804 22.3549 5.067C22.1929 5.148 22.0309 5.229 21.9089 5.31C21.7669 5.371 21.6459 5.472 21.5039 5.513C21.3419 5.594 21.1799 5.635 21.0169 5.635C20.4699 5.635 20.0239 5.209 19.9629 4.642V3.892C19.8829 1.723 18.2009 0.041 16.0319 0H15.3429C14.8359 0 14.3499 0 13.9039 0.02C13.7009 0.02 13.5189 0.04 13.3159 0.081C11.4509 0.365 10.0929 1.926 10.0529 3.872V4.277C10.0529 4.358 10.0529 4.459 10.0329 4.54C10.0129 5.168 9.56695 5.635 8.95895 5.635C8.79695 5.635 8.61395 5.594 8.43195 5.493C8.34895 5.453 8.26795 5.392 8.14595 5.351L7.96395 5.23C7.27495 4.845 6.56495 4.662 5.83595 4.662C4.45795 4.662 3.24095 5.392 2.45095 6.689C2.12595 7.196 1.78195 7.804 1.45695 8.432C0.402946 10.398 0.990946 12.567 2.89595 13.743C2.97695 13.784 3.07795 13.865 3.17995 13.905L3.22095 13.925C3.32195 13.986 3.42395 14.047 3.48395 14.107C3.80795 14.31 3.99095 14.634 3.99095 14.979C3.99095 15.364 3.80895 15.688 3.50495 15.891C3.42395 15.952 3.30195 16.033 3.15995 16.094C3.01795 16.155 2.91695 16.256 2.79495 16.317C1.41695 17.229 0.787946 18.526 0.990946 19.925C1.29495 21.891 2.26795 23.533 3.78795 24.689C4.39195 25.136 5.07495 25.361 5.79795 25.361C6.38595 25.361 7.00095 25.212 7.61895 24.912C7.80095 24.851 7.96395 24.75 8.10495 24.669C8.18595 24.649 8.24695 24.588 8.34795 24.547C8.55095 24.425 8.77395 24.365 8.97595 24.365C9.58395 24.365 10.0299 24.852 10.0499 25.541C10.1109 28.075 11.1039 29.453 13.1719 29.859C13.6189 29.959 14.1259 30 14.6939 30L15.0989 29.98H15.2209L15.7069 30C15.8489 30 16.0109 30 16.1729 29.98C18.2409 29.919 19.8619 28.277 19.9639 26.189V25.378C20.0049 24.81 20.4709 24.365 21.0179 24.365C21.1799 24.365 21.3419 24.385 21.4839 24.466C21.6259 24.527 21.7469 24.588 21.8689 24.669L21.9099 24.689C21.9909 24.73 22.1129 24.811 22.1939 24.851C22.8019 25.175 23.4709 25.337 24.1199 25.337C25.4579 25.337 26.6539 24.688 27.4039 23.533C27.8299 22.844 28.2549 22.155 28.6199 21.425C29.5519 19.662 28.9639 17.534 27.2819 16.378ZM27.7809 21.006C27.4349 21.698 27.0319 22.35 26.6169 23.023C26.0409 23.911 25.1539 24.4 24.1199 24.4C23.6099 24.4 23.0969 24.27 22.6159 24.014C22.5919 24.001 22.5629 23.983 22.5349 23.966C22.4749 23.93 22.4149 23.895 22.3409 23.856C22.2079 23.771 22.0669 23.697 21.8959 23.622C21.6439 23.491 21.3569 23.427 21.0199 23.427C19.9799 23.427 19.1059 24.255 19.0309 25.311L19.0289 25.344V25.377L19.0299 26.142C18.9519 27.749 17.7129 28.995 16.1479 29.041L16.1029 29.042L16.0589 29.048C15.9369 29.063 15.8159 29.061 15.7479 29.062L15.2219 29.041L15.0539 29.042L14.6949 29.061C14.1629 29.061 13.7339 29.022 13.3549 28.937C12.1639 28.703 11.0529 28.127 10.9899 25.512C10.9549 24.323 10.0899 23.426 8.97895 23.426C8.61695 23.426 8.25395 23.524 7.92395 23.71C7.87795 23.732 7.83395 23.755 7.78995 23.781L7.75495 23.79L7.64295 23.854L7.57695 23.892C7.48595 23.945 7.39095 24 7.32495 24.022L7.26695 24.041L7.20995 24.069C6.72395 24.305 6.24895 24.424 5.79795 24.424C5.27195 24.424 4.78295 24.26 4.35495 23.943C3.02395 22.932 2.18095 21.493 1.91795 19.791C1.72695 18.476 2.54395 17.616 3.27795 17.121C3.34895 17.081 3.41695 17.036 3.48595 16.988C3.50495 16.974 3.52495 16.96 3.52795 16.956C3.70495 16.88 3.87895 16.78 4.04595 16.657C4.60695 16.273 4.92695 15.663 4.92695 14.98C4.92695 14.337 4.60295 13.739 4.05695 13.364C3.93895 13.264 3.81395 13.19 3.70195 13.122L3.67095 13.103L3.63995 13.087L3.59695 13.064L3.56095 13.05L3.50795 13.017C3.45895 12.986 3.41095 12.957 3.36695 12.932C1.90695 12.018 1.47195 10.391 2.29095 8.863C2.61195 8.242 2.93995 7.665 3.25195 7.178C3.87095 6.16 4.78895 5.6 5.83595 5.6C6.40895 5.6 6.94695 5.741 7.47695 6.032L7.62695 6.132L7.71795 6.196L7.83695 6.236L7.88295 6.262C7.92695 6.288 7.96995 6.311 7.97595 6.314C8.28195 6.484 8.62195 6.574 8.95795 6.574C10.0399 6.574 10.8889 5.756 10.9649 4.658C10.9899 4.509 10.9899 4.374 10.9899 4.279V3.893C11.0199 2.41 12.0349 1.224 13.4989 1C13.6479 0.97 13.7689 0.957 13.9459 0.956C14.3709 0.937 14.8429 0.937 15.3429 0.937H16.0229C17.6739 0.972 18.9659 2.256 19.0279 3.891V4.641V4.691L19.0329 4.741C19.1449 5.785 19.9989 6.572 21.0189 6.572C21.3029 6.572 21.5849 6.509 21.8559 6.384C22.0069 6.33 22.1279 6.259 22.2119 6.21C22.2349 6.197 22.2579 6.182 22.2799 6.172L22.3589 6.138L22.4309 6.09C22.5039 6.041 22.6479 5.969 22.7519 5.917C23.2119 5.704 23.6599 5.6 24.1189 5.6C25.1219 5.6 26.0279 6.092 26.5949 6.935C27.0999 7.715 27.4749 8.366 27.7879 9.009C28.4909 10.354 28.0569 11.967 26.7359 12.859C26.6889 12.893 26.6379 12.923 26.5899 12.952C26.5069 13.002 26.4299 13.051 26.3619 13.099C26.2519 13.162 26.1449 13.223 26.0499 13.27L25.9979 13.296L25.9489 13.328C25.3959 13.697 25.0649 14.314 25.0649 14.98C25.0649 15.697 25.4029 16.319 25.9919 16.687L26.0299 16.711L26.0699 16.731C26.1329 16.762 26.1949 16.802 26.2519 16.838L26.3189 16.879C26.4009 16.936 26.4879 16.989 26.5749 17.041C26.6299 17.074 26.6849 17.106 26.7499 17.152C28.0549 18.047 28.4919 19.66 27.7809 21.006Z" fill="#B9B7C6"/>
<path d="M12.966 17.203C15.943 17.203 18.484 17.675 18.484 19.563C18.484 21.451 15.959 21.94 12.966 21.94C9.989 21.94 7.448 21.468 7.448 19.58C7.447 17.692 9.973 17.203 12.966 17.203ZM17.725 16.066C18.863 16.045 20.086 16.201 20.538 16.312C21.496 16.5 22.126 16.885 22.387 17.443C22.608 17.902 22.608 18.434 22.387 18.892C21.988 19.758 20.701 20.037 20.2 20.108C20.097 20.124 20.014 20.034 20.024 19.93C20.28 17.529 18.247 16.391 17.721 16.129C17.698 16.117 17.694 16.099 17.696 16.088C17.699 16.081 17.708 16.068 17.725 16.066ZM12.966 8.06C14.993 8.06 16.618 9.693 16.618 11.732C16.618 13.77 14.993 15.405 12.966 15.405C10.939 15.405 9.314 13.77 9.314 11.732C9.314 9.693 10.939 8.06 12.966 8.06ZM17.923 8.672C19.881 8.672 21.418 10.524 20.894 12.588C20.541 13.977 19.261 14.9 17.836 14.862C17.693 14.858 17.552 14.845 17.417 14.821C17.318 14.804 17.269 14.692 17.325 14.609C17.869 13.804 18.179 12.836 18.179 11.797C18.179 10.713 17.84 9.702 17.252 8.873C17.233 8.847 17.219 8.807 17.238 8.778C17.254 8.754 17.282 8.741 17.309 8.735C17.507 8.695 17.71 8.672 17.923 8.672Z" fill="#130F40"/>
</g>
<defs>
<clipPath id="clip0_26910_17239">
<rect width="30" height="30" fill="white"/>
</clipPath>
</defs>
</svg>
