<svg width="20" height="20" viewBox="0 0 20 20" fill="none" xmlns="http://www.w3.org/2000/svg">
<path d="M11.257 11.2551H17.3151C17.6506 11.2563 17.9672 11.1253 18.2047 10.8878C18.4423 10.6502 18.5721 10.3349 18.5721 9.99818C18.5733 9.32839 17.9892 8.74063 17.3157 8.74186H11.2576V2.68492C11.257 1.99247 10.6931 1.42859 10 1.42859C9.30758 1.42859 8.74431 1.99185 8.7437 2.68492V8.74186H2.68492C2.3488 8.74186 2.03288 8.87349 1.79656 9.10981C1.55901 9.34737 1.42737 9.66328 1.4286 9.99818C1.42737 10.6723 2.01635 11.257 2.68492 11.2545H8.7437V17.3145C8.7437 17.6506 8.87411 17.9678 9.11105 18.2041C9.3486 18.4417 9.66635 18.5733 10.0006 18.5714C10.3361 18.5727 10.6527 18.4417 10.889 18.2053C11.1253 17.969 11.257 17.6512 11.257 17.3145V11.2551Z" fill="#130F40"/>
</svg>
