<svg width="25" height="28" viewBox="0 0 25 28" fill="none" xmlns="http://www.w3.org/2000/svg">
<path d="M24.6956 5.36487C24.6113 5.10563 24.3877 4.91575 24.1178 4.87495L22.6026 4.64726L21.9168 3.27624C21.6723 2.78849 20.8739 2.78849 20.6293 3.27624L19.9435 4.64726L18.4283 4.87495C18.1585 4.91575 17.9349 5.10536 17.8505 5.36487C17.7662 5.62412 17.8364 5.90893 18.0304 6.09989L19.1225 7.17522L18.8709 8.6877C18.826 8.95619 18.937 9.2274 19.1576 9.38762C19.3783 9.54867 19.672 9.5688 19.9125 9.44448L21.2732 8.73829L22.6339 9.44448C22.8733 9.56907 23.1671 9.54948 23.3888 9.38762C23.6094 9.2274 23.7204 8.95619 23.6755 8.6877L23.4239 7.17522L24.516 6.09989C24.7097 5.90893 24.7799 5.62439 24.6956 5.36487Z" fill="url(#paint0_linear_627_344)"/>
<path d="M10.215 4.26479L9.96338 5.77726C9.91849 6.04576 10.0295 6.31697 10.2501 6.47719C10.4707 6.63742 10.7631 6.65918 11.005 6.53405L12.3657 5.82786L13.7263 6.53405C13.9657 6.65864 14.2595 6.63905 14.4812 6.47719C14.7018 6.31697 14.8128 6.04576 14.7679 5.77726L14.5163 4.26479L15.6085 3.18946C15.8025 2.99823 15.8726 2.71368 15.7883 2.45444C15.704 2.1952 15.4804 2.00532 15.2105 1.96452L13.6953 1.73683L13.0095 0.36581C12.765 -0.121937 11.9666 -0.121937 11.722 0.36581L11.0363 1.73683L9.52106 1.96452C9.25121 2.00532 9.0276 2.19493 8.94327 2.45444C8.85895 2.71396 8.92913 2.9985 9.12308 3.18946L10.215 4.26479Z" fill="url(#paint1_linear_627_344)"/>
<path d="M6.30242 4.87519L4.78723 4.64751L4.10144 3.27648C3.85689 2.78874 3.05849 2.78874 2.81394 3.27648L2.12815 4.64751L0.612957 4.87519C0.343105 4.916 0.119499 5.1056 0.0351699 5.36512C-0.0491588 5.62436 0.0210245 5.90917 0.21498 6.10014L1.30717 7.17546L1.05555 8.68794C1.01066 8.95643 1.12165 9.22764 1.34226 9.38787C1.56152 9.54891 1.85531 9.56904 2.09714 9.44472L3.45783 8.73853L4.81851 9.44472C5.0579 9.56931 5.35169 9.54972 5.57339 9.38787C5.794 9.22764 5.90499 8.95643 5.86011 8.68794L5.60848 7.17546L6.70067 6.10014C6.89463 5.9089 6.96481 5.62436 6.88048 5.36512C6.79615 5.10587 6.57227 4.916 6.30242 4.87519Z" fill="url(#paint2_linear_627_344)"/>
<path d="M19.2455 14.3929H15.9635V10.7945C15.9635 9.60223 14.997 8.63571 13.8047 8.63571H12.3654C11.968 8.63571 11.6459 8.95779 11.6459 9.35523V11.6435C11.6459 12.9302 10.9416 13.9647 10.5988 14.3929H8.76727C7.97241 14.3929 7.32797 15.0373 7.32797 15.8322V21.6011C7.32797 22.4425 8.00995 23.1245 8.85133 23.1245H10.6394C11.6655 24.0423 13.0174 24.5638 14.395 24.5638H18.381C19.4112 24.5638 20.3023 23.835 20.5034 22.7997L21.3649 16.96C21.483 16.324 21.3157 15.6747 20.9038 15.1764C20.4936 14.678 19.8894 14.3929 19.2455 14.3929Z" fill="url(#paint3_linear_627_344)"/>
<path d="M6.72351 23.7842H3.65449C2.97279 23.7842 2.4203 23.2317 2.4203 22.55V14.953C2.4203 14.2713 2.97279 13.7188 3.65449 13.7188H6.72351C7.40522 13.7188 7.95771 14.2713 7.95771 14.953V22.5497C7.95771 23.2314 7.40522 23.7842 6.72351 23.7842Z" fill="url(#paint4_linear_627_344)"/>
<path d="M22.0719 22.5116C22.0765 23.7134 22.0765 24.2101 22.0719 25.4071C22.0719 26.0784 21.6024 26.5477 20.9359 26.543H18.2931C18.2085 26.543 18.1522 26.5664 18.0959 26.6277C17.8519 26.8766 17.5984 27.1252 17.3495 27.3741C17.1384 27.5855 16.8987 27.6605 16.6126 27.5476C16.3449 27.4443 16.2089 27.2144 16.2042 26.8951V26.5477C15.519 26.468 15.1433 26.0455 15.1433 25.3695V22.5116C15.1433 21.8402 15.6033 21.3756 16.2793 21.3756H20.9359C21.6119 21.3756 22.0719 21.8405 22.0719 22.5116Z" fill="url(#paint5_linear_627_344)"/>
<path d="M17.3315 23.7842L18.2931 24.7458L20.2167 22.8223" stroke="white" strokeWidth="0.8" strokeLinecap="round" strokeLinejoin="round"/>
<defs>
<linearGradient id="paint0_linear_627_344" x1="21.2731" y1="9.52538" x2="21.2731" y2="2.91043" gradientUnits="userSpaceOnUse">
<stop stop-color="#A6B2D5"/>
<stop offset="1" stop-color="#D1DAF3"/>
</linearGradient>
<linearGradient id="paint1_linear_627_344" x1="12.3658" y1="6.61495" x2="12.3658" y2="0" gradientUnits="userSpaceOnUse">
<stop stop-color="#A6B2D5"/>
<stop offset="1" stop-color="#D1DAF3"/>
</linearGradient>
<linearGradient id="paint2_linear_627_344" x1="3.45782" y1="9.52562" x2="3.45782" y2="2.91068" gradientUnits="userSpaceOnUse">
<stop stop-color="#A6B2D5"/>
<stop offset="1" stop-color="#D1DAF3"/>
</linearGradient>
<linearGradient id="paint3_linear_627_344" x1="14.3649" y1="24.5638" x2="14.3649" y2="8.63571" gradientUnits="userSpaceOnUse">
<stop stop-color="#535F82"/>
<stop offset="1" stop-color="#A6B2D5"/>
</linearGradient>
<linearGradient id="paint4_linear_627_344" x1="5.189" y1="23.7842" x2="5.189" y2="13.7188" gradientUnits="userSpaceOnUse">
<stop stop-color="#A6B2D5"/>
<stop offset="1" stop-color="#D1DAF3"/>
</linearGradient>
<linearGradient id="paint5_linear_627_344" x1="18.6093" y1="27.6" x2="18.6093" y2="21.3756" gradientUnits="userSpaceOnUse">
<stop stop-color="#A6B2D5"/>
<stop offset="1" stop-color="#D1DAF3"/>
</linearGradient>
</defs>
</svg>
