<svg width="38" height="38" viewBox="0 0 38 38" fill="none" xmlns="http://www.w3.org/2000/svg">
<rect width="38" height="38" rx="10" fill="#F5B203"/>
<path d="M24.3001 19.7786H13.7001C11.893 19.7786 10.4287 21.25 10.4287 23.0572C10.4287 24.8572 11.893 26.3286 13.7001 26.3286H24.3001C26.1073 26.3286 27.5716 24.8572 27.5716 23.0572C27.5716 21.25 26.1073 19.7786 24.3001 19.7786ZM24.5359 23.6214H19.5716C19.2573 23.6214 19.0001 23.3714 19.0001 23.0572C19.0001 22.7429 19.2573 22.4857 19.5716 22.4857H24.5359C24.8501 22.4857 25.1073 22.7429 25.1073 23.0572C25.1073 23.3714 24.8501 23.6214 24.5359 23.6214ZM12.8287 23.0572C12.8287 22.7072 13.1144 22.4286 13.4573 22.4286C13.8073 22.4286 14.0859 22.7072 14.0859 23.0572C14.0859 23.4 13.8073 23.6857 13.4573 23.6857C13.1144 23.6857 12.8287 23.4 12.8287 23.0572ZM16.2644 23.0572C16.2644 23.4 15.9787 23.6857 15.6359 23.6857C15.2859 23.6857 15.0073 23.4 15.0073 23.0572C15.0073 22.7072 15.2859 22.4286 15.6359 22.4286C15.9787 22.4286 16.2644 22.7072 16.2644 23.0572Z" fill="#FFFAEB"/>
<path d="M13.7001 18.2143H24.3001C26.1073 18.2143 27.5716 16.75 27.5716 14.9429C27.5716 13.1357 26.1073 11.6714 24.3001 11.6714H13.7001C11.893 11.6714 10.4287 13.1357 10.4287 14.9429C10.4287 16.75 11.893 18.2143 13.7001 18.2143ZM13.4573 14.3143C13.8073 14.3143 14.0859 14.6 14.0859 14.9429C14.0859 15.2929 13.8073 15.5714 13.4573 15.5714C13.1144 15.5714 12.8287 15.2929 12.8287 14.9429C12.8287 14.6 13.1144 14.3143 13.4573 14.3143ZM25.1073 14.9429C25.1073 15.2572 24.8501 15.5143 24.5359 15.5143H19.5716C19.2573 15.5143 19.0001 15.2572 19.0001 14.9429C19.0001 14.6286 19.2573 14.3714 19.5716 14.3714H24.5359C24.8501 14.3714 25.1073 14.6286 25.1073 14.9429ZM15.0073 14.9429C15.0073 14.6 15.2859 14.3143 15.6359 14.3143C15.9787 14.3143 16.2644 14.6 16.2644 14.9429C16.2644 15.2929 15.9787 15.5714 15.6359 15.5714C15.2859 15.5714 15.0073 15.2929 15.0073 14.9429Z" fill="#FFFAEB"/>
</svg>
