<svg width="28" height="28" viewBox="0 0 28 28" fill="none" xmlns="http://www.w3.org/2000/svg">
<path d="M18.6508 4H18.0358C17.2625 4.00833 16.4558 4.00833 15.6408 4.00833H15.2333C14.435 4.00833 13.6617 4.00833 12.9717 4H12.7392C11.9825 4 11.3583 4.24083 10.7933 4.80667C10.7433 4.84833 10.6933 4.89833 10.6433 4.94833C10.41 5.1975 10.1608 5.43833 9.90251 5.68833C9.68668 5.90417 9.45334 6.12917 9.22918 6.35333C8.89668 6.6775 8.55584 7.00167 8.19834 7.32667C7.86501 7.65083 7.51584 7.975 7.17501 8.29083C6.67584 8.765 6.39334 9.30583 6.30168 9.94583V9.97083C6.26834 10.1208 6.26001 10.2783 6.26001 10.445C6.26834 11.7592 6.26001 13.0725 6.26001 14.395V21.3475C6.26001 21.3558 6.26001 21.3558 6.26001 21.3558C6.47668 22.8692 7.67418 23.9667 9.23751 24H18.6508C18.9667 24 19.2417 23.9583 19.5242 23.8833C20.855 23.5008 21.7275 22.3033 21.7275 20.84V7.15167C21.7283 5.35583 20.4142 4.01667 18.6508 4ZM11.5825 10.3117C11.3908 10.3783 11.1583 10.4033 10.9092 10.3867C10.4183 10.3617 9.90334 10.3367 9.39584 10.3117C8.93001 10.2867 8.45584 10.2617 7.98251 10.2367C7.92418 10.2367 7.88251 10.1783 7.89084 10.12C7.92418 9.87083 8.08251 9.6875 8.24834 9.52167C8.39834 9.36333 8.55584 9.21417 8.71418 9.06417C9.48751 8.3075 10.2608 7.5425 11.0425 6.7775C11.2417 6.5775 11.4333 6.38667 11.6325 6.18667C11.7158 6.11167 11.7825 6.045 11.8483 5.97083C12.0233 5.80417 12.2058 5.71333 12.4142 5.68C12.5308 5.655 12.63 5.73 12.63 5.855V8.71583C12.63 9.51333 12.2392 10.1042 11.5825 10.3117ZM14.7675 19.7342C14.5433 19.8342 14.51 19.9333 14.535 20.125C14.5433 20.225 14.5433 20.3325 14.535 20.4492C14.51 20.7317 14.2858 20.94 13.9775 20.94C13.695 20.94 13.4783 20.7325 13.4617 20.4242C13.4533 20.3075 13.4533 20.1833 13.4533 20.0583V19.925L13.3117 19.8917C12.9708 19.8167 12.6633 19.6925 12.38 19.5092C12.0642 19.3092 11.9725 19.01 12.1308 18.7442C12.2142 18.6108 12.33 18.52 12.4633 18.4867C12.505 18.4867 12.5383 18.4783 12.58 18.4783C12.705 18.4783 12.8208 18.52 12.9375 18.595C13.245 18.7942 13.5858 18.8692 14.0683 18.8358C14.4592 18.8025 14.8 18.4533 14.85 18.0542C14.8833 17.8133 14.8167 17.48 14.3342 17.2892L14.2092 17.2308C13.7183 17.0642 13.3358 16.8983 12.995 16.7067C12.4208 16.3575 12.1633 15.8583 12.2217 15.2267C12.2967 14.5283 12.6375 14.0625 13.2525 13.8217C13.4108 13.7467 13.4933 13.68 13.46 13.4892C13.435 13.3642 13.4517 13.24 13.46 13.115C13.485 12.8408 13.7008 12.6325 13.9925 12.6325C14.2842 12.6325 14.5083 12.84 14.5333 13.1233C14.5417 13.215 14.5333 13.3067 14.5333 13.3892C14.5333 13.4392 14.525 13.4892 14.525 13.5392V13.7225L14.65 13.7642C14.85 13.8308 15.0658 13.9142 15.2817 14.0633C15.5642 14.2708 15.6392 14.5792 15.465 14.8367C15.2983 15.0942 14.9825 15.1442 14.6917 14.9533C14.3675 14.7458 14.035 14.6958 13.7017 14.7867C13.4025 14.8783 13.3275 15.1275 13.2858 15.3192C13.2692 15.5267 13.3525 15.66 13.5767 15.7933C13.8758 15.96 14.2 16.0925 14.575 16.2258L14.675 16.2675C15.4567 16.5667 15.8808 17.1158 15.9308 17.8808C15.965 18.6775 15.4908 19.4425 14.7675 19.7342ZM18.0858 11.1433H15.3083C14.9592 11.1433 14.6933 10.8692 14.6933 10.5275C14.6933 10.1867 14.9592 9.9125 15.3083 9.9125H18.0858C18.4267 9.9125 18.7008 10.1867 18.7008 10.5275C18.7008 10.8692 18.4267 11.1433 18.0858 11.1433ZM18.0858 8.64H15.3083C14.9592 8.64 14.6933 8.36583 14.6933 8.025C14.6933 7.68417 14.9592 7.40917 15.3083 7.40917H18.0858C18.4267 7.40917 18.7008 7.68333 18.7008 8.025C18.7008 8.36583 18.4267 8.64 18.0858 8.64Z" fill="#130F40"/>
</svg>
