<svg width="20" height="20" viewBox="0 0 20 20" fill="none" xmlns="http://www.w3.org/2000/svg">
<path d="M12.1358 6.40715L13.1286 9.35001H11.1501L12.1358 6.40715ZM18.4001 7.85715C18.4001 11.3143 15.5858 14.1286 12.1286 14.1286C8.66436 14.1286 5.85008 11.3143 5.85008 7.85715C5.85008 4.40001 8.66436 1.58572 12.1286 1.58572C15.5858 1.58572 18.4001 4.40001 18.4001 7.85715ZM14.9501 7.45001H13.3072L12.6572 5.64287H11.6072L10.9501 7.45001H9.30008V8.23572H10.6644L10.0144 10.0214L10.0001 10.0714H14.2572L13.5929 8.23572H14.9501V7.45001ZM2.29293 13.85H7.89293C7.2715 13.4214 6.7215 12.8857 6.2715 12.2786H3.67865C3.46436 12.2786 3.28579 12.1 3.28579 11.8857C3.28579 11.6643 3.46436 11.4929 3.67865 11.4929H5.76436C5.50008 11 5.28579 10.4714 5.15008 9.92144H2.29293C1.82151 9.92144 1.43579 10.3072 1.43579 10.7786V12.9929C1.43579 13.4643 1.82151 13.85 2.29293 13.85ZM12.1358 15.0429C12.2215 15.1714 12.2644 15.3286 12.2644 15.4929V17.7072C12.2644 18.1786 11.8858 18.5643 11.4072 18.5643H2.29293C1.82151 18.5643 1.43579 18.1786 1.43579 17.7072V15.4929C1.43579 15.0214 1.82151 14.6357 2.29293 14.6357H9.41436C10.1429 14.9072 10.9286 15.05 11.7501 15.05C11.8786 15.05 12.0072 15.0429 12.1358 15.0429ZM7.14293 16.6C7.14293 16.3857 6.96436 16.2072 6.75008 16.2072H3.67865C3.46436 16.2072 3.28579 16.3786 3.28579 16.6C3.28579 16.8143 3.46436 16.9929 3.67865 16.9929H6.75008C6.96436 16.9929 7.14293 16.8143 7.14293 16.6ZM10.4215 16.6C10.4215 16.55 10.4072 16.5 10.3929 16.45C10.3715 16.4 10.3429 16.3572 10.3072 16.3214C10.2644 16.2857 10.2215 16.2572 10.1786 16.2357C10.0358 16.1786 9.85722 16.2143 9.75008 16.3214C9.71436 16.3572 9.68579 16.4 9.66436 16.45C9.64293 16.5 9.63579 16.55 9.63579 16.6C9.63579 16.7072 9.67865 16.8072 9.75008 16.8786C9.78579 16.9143 9.82865 16.9429 9.87865 16.9643C9.9215 16.9857 9.97865 16.9929 10.0286 16.9929C10.1286 16.9929 10.2286 16.95 10.3072 16.8786C10.3786 16.8072 10.4215 16.7072 10.4215 16.6Z" fill="#009DFF"/>
</svg>
