<svg width="24" height="24" viewBox="0 0 24 24" fill="none" xmlns="http://www.w3.org/2000/svg">
<path d="M18.8229 5.97771C14.2749 5.97429 9.72685 5.97429 5.17885 5.97771C3.22799 5.97943 1.71942 7.49057 1.71685 9.44229C1.71257 12.162 1.71428 14.8826 1.71771 17.6031C1.71771 17.8303 1.73571 18.0617 1.78028 18.2837C2.11199 19.9243 3.49199 21.0566 5.16514 21.0591C7.43571 21.0634 9.70628 21.06 11.9769 21.06C14.262 21.06 16.5463 21.0643 18.8314 21.0591C20.7686 21.0549 22.2797 19.5429 22.2823 17.6049C22.2866 14.8843 22.2857 12.1646 22.2823 9.444C22.2806 7.49143 20.772 5.97857 18.8229 5.97771ZM12.0043 18.3171C9.35314 18.3197 7.19571 16.1589 7.19999 13.5069C7.20514 10.8651 9.36085 8.71629 12.0043 8.71886C14.6469 8.72143 16.7974 10.8754 16.7974 13.518C16.7983 16.1606 14.646 18.3154 12.0043 18.3171ZM18.8734 10.0877C18.6386 10.0963 18.4029 10.0894 18.1671 10.0894C17.9391 10.0894 17.7103 10.0946 17.4823 10.0886C17.0983 10.0783 16.8009 9.77743 16.8 9.40714C16.7991 9.036 17.0949 8.72743 17.478 8.72143C17.9417 8.71371 18.4054 8.71286 18.8691 8.72143C19.2506 8.72829 19.5454 9.04114 19.5411 9.41314C19.536 9.77571 19.2454 10.0749 18.8734 10.0877Z" fill="#FBF2FB"/>
<path d="M12.0051 10.1572C10.1468 10.1554 8.63913 11.6606 8.63828 13.5172C8.63828 15.3737 10.1468 16.8806 12.0034 16.8789C13.8591 16.8772 15.3634 15.366 15.36 13.5077C15.3566 11.6614 13.8531 10.1597 12.0051 10.1572Z" fill="#FBF2FB"/>
<path d="M6.55028 4.99715H17.4488C17.5054 4.99715 17.5508 4.95086 17.5508 4.89515C17.5508 3.81515 16.6748 2.93915 15.5948 2.93915H8.40342C7.32342 2.93915 6.44742 3.81515 6.44742 4.89515C6.44742 4.95172 6.4937 4.99715 6.55028 4.99715Z" fill="#FBF2FB"/>
</svg>
