<svg width="20" height="20" viewBox="0 0 20 20" fill="none" xmlns="http://www.w3.org/2000/svg">
<path d="M14.8863 8.08655C15.3113 8.08655 15.7121 8.08583 16.1135 8.08655C17.3321 8.08869 18.1985 8.95512 18.1999 10.1744C18.2013 11.1615 18.2028 12.1494 18.1992 13.1365C18.1971 13.633 17.7656 13.9558 17.3163 13.8058C17.0313 13.7108 16.8621 13.4587 16.8621 13.118C16.8606 12.1251 16.8628 11.1323 16.8606 10.1387C16.8599 9.77297 16.6471 9.50226 16.3142 9.43798C16.2435 9.4244 16.1699 9.42512 16.0978 9.42512C14.5528 9.4244 13.0071 9.4244 11.4621 9.42512C10.9721 9.42512 10.7035 9.69155 10.7035 10.1773C10.7028 12.2751 10.7028 14.3723 10.7035 16.4701C10.7035 16.9573 10.9721 17.2237 11.4606 17.2237C13.0113 17.2244 14.5621 17.2237 16.1135 17.2223C16.5706 17.2215 16.8256 16.983 16.8635 16.5251C16.8956 16.1387 17.1892 15.8701 17.5635 15.8858C17.9321 15.9015 18.2021 16.2001 18.1999 16.5887C18.1928 17.6694 17.2971 18.5501 16.1813 18.5594C15.1713 18.5673 14.1621 18.5615 13.1521 18.5623C12.5778 18.5623 12.0028 18.5644 11.4285 18.5623C10.2406 18.5587 9.36635 17.6887 9.36492 16.5023C9.36206 14.3823 9.36206 12.2623 9.36492 10.1423C9.36635 8.95726 10.2421 8.08869 11.4313 8.08583C12.1285 8.08369 12.8256 8.08583 13.5349 8.08583C13.5399 8.03798 13.5478 7.99583 13.5478 7.95369C13.5485 7.13369 13.5521 6.31369 13.5471 5.49369C13.5428 4.70726 13.0013 4.14083 12.2092 4.1094C12.2092 4.16798 12.2092 4.22583 12.2092 4.2844C12.2092 4.85869 12.2106 5.43369 12.2085 6.00798C12.2071 6.4744 11.9363 6.74655 11.4706 6.74655C9.40635 6.74726 7.34277 6.74798 5.27849 6.74655C4.81492 6.74655 4.54563 6.47226 4.5442 6.00369C4.54277 5.4344 4.5442 4.86583 4.54349 4.29655C4.54349 4.23655 4.54349 4.17655 4.54349 4.11798C3.90349 4.05726 3.2692 4.56012 3.16634 5.19726C3.15134 5.29083 3.1392 5.38583 3.1392 5.48012C3.13777 8.93298 3.13634 12.3865 3.13992 15.8394C3.14063 16.3994 3.3842 16.8373 3.89706 17.0773C4.09634 17.1708 4.33563 17.2144 4.55777 17.218C5.50063 17.233 6.44349 17.2215 7.38634 17.2258C7.87563 17.228 8.19635 17.6473 8.05849 18.0937C7.97563 18.3623 7.73849 18.558 7.4492 18.5594C6.3942 18.5637 5.33849 18.5901 4.28563 18.5487C2.95349 18.4958 1.85849 17.3501 1.80277 16.0187C1.79992 15.9515 1.79849 15.8851 1.79849 15.818C1.79849 12.3815 1.79706 8.94512 1.79849 5.50869C1.79992 4.29726 2.49563 3.28941 3.6192 2.91441C3.90492 2.81869 4.21849 2.78512 4.52134 2.77083C4.9942 2.74798 5.4692 2.76226 5.94349 2.76655C6.0342 2.76726 6.0792 2.74155 6.11634 2.65512C6.4692 1.83298 7.10777 1.43298 7.99063 1.43012C8.40706 1.42869 8.83206 1.42298 9.23777 1.50083C9.85635 1.61941 10.2906 2.01512 10.5399 2.59441C10.5978 2.72869 10.6628 2.77226 10.8078 2.76869C11.2592 2.75798 11.7113 2.76298 12.1635 2.76512C13.7099 2.77298 14.8792 3.94369 14.8849 5.49226C14.8878 6.29012 14.8856 7.08798 14.8856 7.88583C14.8863 7.94512 14.8863 8.00583 14.8863 8.08655ZM10.8613 5.40226C10.8613 4.96226 10.8613 4.54083 10.8613 4.10298C10.6149 4.10298 10.3771 4.1044 10.1392 4.10226C9.7792 4.09869 9.5392 3.91512 9.44349 3.56941C9.41206 3.45655 9.39135 3.34155 9.3592 3.22941C9.27992 2.94869 9.0492 2.77012 8.75777 2.76512C8.5792 2.76155 8.40063 2.77298 8.22277 2.76298C7.56777 2.72655 7.3742 2.91583 7.2492 3.52655C7.1692 3.91798 6.91992 4.10083 6.52277 4.10298C6.31277 4.1044 6.10349 4.10298 5.8942 4.10298C5.8942 4.5494 5.8942 4.9744 5.8942 5.40155C7.5542 5.40226 9.20206 5.40226 10.8613 5.40226ZM14.7971 12.1023C15.2221 12.0994 15.5206 11.8223 15.5213 11.4344C15.5221 11.0458 15.2235 10.7658 14.7992 10.7644C14.1185 10.7623 13.4385 10.7615 12.7578 10.7644C12.3363 10.7658 12.0378 11.0515 12.0421 11.4401C12.0463 11.8223 12.3421 12.098 12.7556 12.1015C13.0956 12.1044 13.4363 12.1023 13.7763 12.1023C14.1163 12.1023 14.4571 12.1044 14.7971 12.1023ZM12.7378 13.108C12.3378 13.113 12.0456 13.3944 12.0428 13.7708C12.0392 14.1537 12.3349 14.443 12.7435 14.4451C13.4349 14.4487 14.1263 14.4487 14.8178 14.4451C15.2271 14.443 15.5228 14.1565 15.5213 13.7744C15.5199 13.3923 15.2242 13.1123 14.8128 13.108C14.4728 13.1051 14.1321 13.1073 13.7921 13.1073C13.4406 13.1073 13.0892 13.1037 12.7378 13.108Z" fill="white"/>
</svg>
