<svg width="20" height="20" viewBox="0 0 20 20" fill="none" xmlns="http://www.w3.org/2000/svg">
<path d="M1.42847 9.99715C1.42847 5.26215 5.26561 1.42715 10.0028 1.42857C14.7392 1.43 18.5728 5.26572 18.5713 10.0021C18.5699 14.7386 14.7335 18.5729 9.99704 18.5714C5.26061 18.57 1.42847 14.7357 1.42847 9.99715ZM7.94561 12.0536C5.92632 10.7393 5.76918 7.94572 7.28704 6.36643C8.72775 4.86715 11.082 4.79572 12.5613 6.21786C13.312 6.93929 13.7142 7.82357 13.7235 8.86786C13.7349 10.2179 13.1406 11.2629 12.0492 12.05C13.612 12.7479 14.6413 13.905 15.1478 15.53C17.4063 13.4493 18.2492 10.0807 16.9656 7.05C15.6699 3.98929 12.5635 2.14143 9.22775 2.47429C5.93847 2.80286 3.2449 5.24715 2.58204 8.50429C1.98632 11.43 3.24347 14.1364 4.85847 15.5107C5.36418 13.8986 6.38989 12.7493 7.94561 12.0536ZM10.0085 17.5686C11.497 17.5543 12.8706 17.1514 14.1256 16.3421C14.2456 16.265 14.2713 16.19 14.2413 16.06C13.7578 13.925 11.8299 12.5 9.65061 12.6707C7.74061 12.82 6.15561 14.205 5.75418 16.0721C5.72918 16.1879 5.74489 16.2593 5.85561 16.3307C7.11989 17.1479 8.50347 17.5571 10.0085 17.5686ZM10.007 6.19857C8.5099 6.19072 7.28489 7.40857 7.27775 8.91215C7.27061 10.4157 8.47989 11.6379 9.98418 11.6464C11.4892 11.655 12.7085 10.4507 12.722 8.94357C12.7356 7.43715 11.5192 6.20643 10.007 6.19857Z" fill="#5A577A"/>
</svg>
