<svg width="18" height="18" viewBox="0 0 18 18" fill="none" xmlns="http://www.w3.org/2000/svg">
<path d="M16.3285 4.55785C16.3285 4.87928 16.065 5.13642 15.7307 5.13642H2.26924C1.93496 5.13642 1.67139 4.87928 1.67139 4.55785C1.67139 4.23642 1.93496 3.97928 2.26924 3.97928H4.87282L4.94996 3.97285C5.2521 3.93428 5.49639 3.71571 5.55424 3.42642L5.75353 2.48785C5.94639 1.76785 6.58924 1.29213 7.31567 1.29213H10.6842V1.28571C11.4107 1.28571 12.0535 1.76142 12.24 2.44928L12.4457 3.41999C12.51 3.74142 12.7992 3.97285 13.1271 3.97928H15.7307C16.065 3.97928 16.3285 4.23642 16.3285 4.55785ZM2.77232 7.07464C2.74031 6.6994 3.03625 6.37713 3.41285 6.37713H14.5925C14.9694 6.37713 15.2655 6.70002 15.2329 7.07559L15.1328 8.22856C14.9914 9.89356 14.7214 12.9471 14.5478 14.4964C14.3935 15.84 13.4742 16.6628 12.0921 16.6886C11.0314 16.7014 10.0157 16.7143 9.01924 16.7143C7.93924 16.7143 6.89139 16.7014 5.85639 16.6821C4.52567 16.6564 3.60639 15.8207 3.45853 14.5028C3.39424 13.9114 3.31067 13.1014 3.2271 12.2336C3.14996 11.3657 3.05996 10.44 2.98924 9.61713L2.77232 7.07464ZM8.37639 13.5257C8.37639 13.8664 8.64639 14.13 8.99996 14.13C9.35996 14.1236 9.62353 13.8664 9.62353 13.5257V9.46928C9.62353 9.12213 9.35996 8.86499 8.99996 8.86499C8.64639 8.86499 8.37639 9.12213 8.37639 9.46928V13.5257Z" fill="#FE0002"/>
</svg>
