<svg width="20" height="20" viewBox="0 0 20 20" fill="none" xmlns="http://www.w3.org/2000/svg">
<path d="M18.3344 9.55429C18.0508 9.34786 17.7308 9.20072 17.4372 9.01072C17.3344 8.94358 17.2565 8.95429 17.1522 9.01429C15.0908 10.2014 13.0251 11.3807 10.9651 12.57C10.3065 12.9507 9.67222 12.9457 9.01293 12.5643C6.95436 11.3729 4.88722 10.1957 2.82507 9.01072C2.73722 8.96001 2.67079 8.95786 2.58293 9.01144C2.3215 9.17215 2.05222 9.32358 1.78579 9.47929C1.30865 9.75858 1.30936 10.2736 1.78793 10.5471C4.39793 12.0407 7.00936 13.5329 9.61722 15.0307C9.88293 15.1836 10.1201 15.1829 10.3851 15.0307C12.1072 14.0393 13.8329 13.0557 15.5579 12.0693C16.4436 11.5629 17.3279 11.0543 18.2144 10.55C18.4265 10.4293 18.5608 10.2664 18.5679 10.0129C18.5629 9.82358 18.4879 9.66644 18.3344 9.55429Z" fill="#14B9FF"/>
<path d="M18.3236 12.9779C18.0358 12.7907 17.7336 12.625 17.4422 12.4429C17.3415 12.38 17.2644 12.3786 17.1572 12.44C15.0965 13.6279 13.0308 14.8072 10.9708 15.9972C10.3129 16.3772 9.67865 16.3779 9.01865 15.9964C6.95936 14.8057 4.89293 13.6279 2.83079 12.4422C2.73507 12.3872 2.66507 12.3907 2.57365 12.4472C2.31079 12.6086 2.0415 12.76 1.77579 12.9157C1.31007 13.1893 1.31365 13.7057 1.78293 13.9743C4.38793 15.4643 6.99507 16.9529 9.59722 18.4486C9.87507 18.6079 10.1172 18.615 10.3958 18.4543C12.0351 17.5093 13.6794 16.5736 15.3215 15.6336C16.2844 15.0829 17.2458 14.53 18.2094 13.9822C18.4208 13.8622 18.5586 13.7014 18.5658 13.5C18.5679 13.26 18.4958 13.09 18.3236 12.9779Z" fill="#14B9FF"/>
<path d="M1.79936 7.11501C4.39579 8.59715 6.9915 10.08 9.5815 11.5722C9.88079 11.7443 10.1329 11.7379 10.4272 11.5679C12.4779 10.3857 14.5336 9.21358 16.5879 8.03786C17.1436 7.72001 17.7029 7.40572 18.2551 7.08144C18.6751 6.83429 18.6751 6.32286 18.2615 6.06715C18.1908 6.02358 18.1186 5.98215 18.0465 5.94144C15.5029 4.48644 12.9594 3.03144 10.4151 1.57715C10.2865 1.50358 10.1601 1.42144 10.0022 1.42929C9.86436 1.42072 9.74936 1.48286 9.63507 1.54786C7.0265 3.04215 4.41722 4.53715 1.80579 6.02858C1.58793 6.15215 1.4365 6.30786 1.43579 6.57001C1.43436 6.83144 1.5815 6.99072 1.79936 7.11501ZM11.6451 5.35715C11.5844 5.29644 11.5844 5.20001 11.6451 5.13929L12.0472 4.73644C12.1051 4.67858 12.2065 4.67858 12.2644 4.73644L14.1201 6.59358C14.1808 6.65358 14.1808 6.75072 14.1208 6.81144L12.2651 8.66858C12.2358 8.69715 12.1972 8.71358 12.1558 8.71358C12.1151 8.71358 12.0751 8.69715 12.0465 8.66858L11.6444 8.26572C11.5836 8.20501 11.5836 8.10858 11.6444 8.04786L12.9886 6.70144L11.6451 5.35715ZM9.3865 8.27644L9.98007 4.99358C10.0151 4.79929 10.2015 4.67001 10.3958 4.70572L10.5179 4.72786C10.7122 4.76286 10.8415 4.94929 10.8058 5.14358L10.2122 8.42644C10.1772 8.62001 9.99079 8.74929 9.7965 8.71429L9.67436 8.69215C9.48007 8.65715 9.35079 8.47072 9.3865 8.27644ZM6.0315 6.59429L7.88579 4.73572C7.91507 4.70715 7.95365 4.69072 7.99507 4.69072C8.03579 4.69072 8.07579 4.70715 8.10436 4.73572L8.5065 5.13858C8.53508 5.16786 8.5515 5.20644 8.5515 5.24786C8.5515 5.28858 8.53508 5.32858 8.5065 5.35715L7.16222 6.70286L8.5065 8.04929C8.56722 8.10858 8.56722 8.20644 8.50793 8.26715L8.10579 8.67001C8.0765 8.69858 8.03793 8.71501 7.9965 8.71501C7.95579 8.71501 7.91579 8.69858 7.88722 8.67001L6.0315 6.81286C5.97079 6.75144 5.97079 6.65501 6.0315 6.59429Z" fill="#14B9FF"/>
</svg>
