<svg width="20" height="20" viewBox="0 0 20 20" fill="none" xmlns="http://www.w3.org/2000/svg">
<path fill-rule="evenodd" clip-rule="evenodd" d="M2.1399 1.42857C4.19364 1.42857 6.24738 1.42857 8.30198 1.42857C8.77342 1.42857 9.01171 1.66429 9.01256 2.12973C9.01342 4.18946 9.01342 6.24921 9.01256 8.30895C9.01256 8.77352 8.77342 9.0101 8.30198 9.0101C7.56997 9.01095 6.83796 9.01095 6.10681 9.0101H2.1579C1.66076 9.0101 1.42932 8.78124 1.42847 8.28923C1.42847 6.24235 1.42847 4.19461 1.42847 2.14773C1.42932 1.66429 1.66161 1.42943 2.1399 1.42857ZM11.6929 1.42943C13.7535 1.42857 15.8132 1.42857 17.873 1.42943C18.3315 1.42943 18.5733 1.66943 18.5733 2.12201C18.5741 4.18775 18.5741 6.25435 18.5733 8.32009C18.5733 8.77181 18.3307 9.01095 17.8712 9.01181C17.2601 9.01267 16.6489 9.01267 16.0378 9.01181H11.71C11.2266 9.01181 10.9909 8.77866 10.9909 8.30037C10.99 6.24663 10.99 4.19375 10.9909 2.14001C10.9917 1.66772 11.2274 1.42943 11.6929 1.42943ZM8.30198 10.9893C7.27511 10.9893 6.24824 10.9893 5.22137 10.9893C4.1945 10.9893 3.16763 10.9893 2.14076 10.9893C1.66247 10.9893 1.43018 11.225 1.42932 11.7084C1.42932 12.2801 1.42932 12.851 1.42932 13.4227V15.6813C1.42932 16.4099 1.42932 17.1393 1.43018 17.8688C1.43018 18.3274 1.66933 18.5708 2.12105 18.5708C4.18764 18.5716 6.25424 18.5716 8.31998 18.5708C8.77256 18.5708 9.01256 18.3282 9.01256 17.8696C9.01342 15.8099 9.01342 13.7502 9.01256 11.6904C9.01171 11.225 8.77256 10.9893 8.30198 10.9893ZM14.6449 10.9935C15.6349 10.9464 16.5855 11.2927 17.3227 11.9664C18.0787 12.6573 18.5193 13.6087 18.5638 14.6459C18.6075 15.6496 18.2552 16.6096 17.5721 17.3485C16.8812 18.0959 15.9367 18.5271 14.9115 18.5639C12.7995 18.6394 11.0792 17.0236 10.9934 14.8867C10.9497 12.8013 12.5535 11.0913 14.6449 10.9935Z" fill="#AE00B9"/>
</svg>
