<svg width="20" height="20" viewBox="0 0 20 20" fill="none" xmlns="http://www.w3.org/2000/svg">
<path d="M15.2992 17.326H4.70062C2.89633 17.326 1.42847 15.8582 1.42847 14.0539C1.42847 12.2496 2.89633 10.7817 4.70062 10.7817H15.2992C17.1035 10.7817 18.5713 12.2496 18.5713 14.0539C18.5713 15.8582 17.1035 17.326 15.2992 17.326ZM4.70062 11.8603C3.49081 11.8603 2.50672 12.8444 2.50672 14.0542C2.50672 15.264 3.49081 16.2481 4.70062 16.2481H15.2992C16.5086 16.2481 17.4931 15.264 17.4931 14.0542C17.4931 12.8444 16.509 11.8603 15.2992 11.8603H4.70062Z" fill="#5A577A"/>
<path d="M4.45817 14.6825C4.11097 14.6825 3.82991 14.4011 3.82991 14.0542C3.82991 13.707 4.11133 13.4259 4.45817 13.4259C4.80537 13.4259 5.08644 13.7074 5.08644 14.0542C5.08644 14.4011 4.80537 14.6825 4.45817 14.6825Z" fill="#5A577A"/>
<path d="M6.63308 14.6825C6.28588 14.6825 6.00481 14.4011 6.00481 14.0542C6.00481 13.707 6.28624 13.4259 6.63308 13.4259C6.98028 13.4259 7.26134 13.7074 7.26134 14.0542C7.26134 14.4011 6.97992 14.6825 6.63308 14.6825Z" fill="#5A577A"/>
<path d="M15.5342 14.6239H10.5696C10.2551 14.6239 9.9999 14.3687 9.9999 14.0542C9.9999 13.7397 10.2551 13.4846 10.5696 13.4846H15.5342C15.8487 13.4846 16.1039 13.7397 16.1039 14.0542C16.1039 14.3687 15.8487 14.6239 15.5342 14.6239Z" fill="#5A577A"/>
<path d="M15.2992 9.21574H4.70062C2.89633 9.21574 1.42847 7.74787 1.42847 5.94358C1.42847 4.1393 2.89633 2.67143 4.70062 2.67143H15.2992C17.1035 2.67143 18.5713 4.1393 18.5713 5.94358C18.5713 7.74787 17.1035 9.21574 15.2992 9.21574ZM4.70062 3.75005C3.49081 3.75005 2.50672 4.73414 2.50672 5.94394C2.50672 7.15375 3.49081 8.13784 4.70062 8.13784H15.2992C16.5086 8.13784 17.4931 7.15375 17.4931 5.94394C17.4931 4.73414 16.509 3.75005 15.2992 3.75005H4.70062Z" fill="#5A577A"/>
<path d="M4.45817 6.57215C4.11097 6.57215 3.82991 6.29072 3.82991 5.94389C3.82991 5.59669 4.11133 5.31562 4.45817 5.31562C4.80537 5.31562 5.08644 5.59705 5.08644 5.94389C5.08644 6.29072 4.80537 6.57215 4.45817 6.57215Z" fill="#5A577A"/>
<path d="M6.63308 6.57215C6.28588 6.57215 6.00481 6.29072 6.00481 5.94389C6.00481 5.59669 6.28624 5.31562 6.63308 5.31562C6.98028 5.31562 7.26134 5.59705 7.26134 5.94389C7.26134 6.29072 6.97992 6.57215 6.63308 6.57215Z" fill="#5A577A"/>
<path d="M15.5342 6.51362H10.5696C10.2551 6.51362 9.9999 6.25844 9.9999 5.94394C9.9999 5.62945 10.2551 5.37427 10.5696 5.37427H15.5342C15.8487 5.37427 16.1039 5.62945 16.1039 5.94394C16.1039 6.25844 15.8487 6.51362 15.5342 6.51362Z" fill="#5A577A"/>
</svg>
