<svg width="20" height="20" viewBox="0 0 20 20" fill="none" xmlns="http://www.w3.org/2000/svg">
<path d="M18.4999 4.14284C18.1499 2.51427 16.7999 1.42856 15.107 1.42856H4.89275C4.64275 1.42856 4.39275 1.44284 4.14275 1.49284C2.51418 1.84999 1.42847 3.19999 1.42847 4.89284V15.1071C1.42847 15.3571 1.44275 15.6071 1.49275 15.8571C1.8499 17.4857 3.1999 18.5714 4.89275 18.5714H15.107C15.4142 18.5714 15.7142 18.5428 16.0142 18.4714C17.5499 18.0643 18.5642 16.7428 18.5713 15.1214V4.92856C18.5713 4.66427 18.557 4.39999 18.4999 4.14284ZM4.97132 4.75713C5.03561 4.51427 5.23561 4.37856 5.5499 4.37856H11.5999C11.657 4.37856 11.707 4.37856 11.7642 4.3857C11.957 4.41427 12.0928 4.52142 12.1713 4.69999C12.3142 5.04999 12.0642 5.40713 11.6642 5.40713C10.8213 5.41427 9.49275 5.40713 8.65704 5.40713C7.80704 5.40713 6.35704 5.41427 5.50704 5.40713C5.12132 5.40713 4.87847 5.10713 4.97132 4.75713ZM4.97132 6.85713C5.03561 6.61427 5.23561 6.4857 5.5499 6.4857C7.20704 6.47856 7.80704 6.47856 9.45704 6.4857C9.51418 6.4857 9.56418 6.4857 9.62132 6.49284C9.81418 6.51427 9.9499 6.62856 10.0285 6.79999C10.1713 7.14999 9.92132 7.50713 9.52133 7.51427C8.67847 7.51427 9.49275 7.51427 8.65704 7.51427H5.50704C5.12132 7.50713 4.87847 7.20713 4.97132 6.85713ZM8.30704 12.8428C7.82847 12.3643 7.3499 11.8857 6.87132 11.4071C6.76418 11.3071 6.69275 11.1857 6.66418 11.0357C6.58561 10.5428 6.4999 10.0571 6.42132 9.56427C6.37132 9.19999 6.61418 8.9357 6.97847 8.9857C7.4999 9.05713 8.02132 9.15713 8.54275 9.24284C8.64275 9.26427 8.72132 9.31427 8.79275 9.3857C9.79275 10.3857 10.7928 11.3857 11.7856 12.3786C11.1285 13.0286 10.4713 13.6786 9.80704 14.3428C9.32132 13.85 8.81418 13.3428 8.30704 12.8428ZM13.0785 15.7571C12.5642 16.2143 11.7856 16.2357 11.2642 15.7786C11.0285 15.5786 10.8356 15.3286 10.6213 15.1C11.257 14.4714 11.8999 13.8214 12.5642 13.1643C12.807 13.4143 13.107 13.6428 13.3142 13.95C13.6999 14.5214 13.5928 15.2928 13.0785 15.7571ZM14.5928 7.50713C14.4785 7.51427 14.3642 7.50713 14.2499 7.50713C14.1428 7.50713 11.607 7.51427 11.4999 7.50713C11.257 7.4857 11.057 7.27856 11.0428 7.0357C11.0285 6.77856 11.207 6.5357 11.4499 6.49999C11.6999 6.46427 14.3856 6.46427 14.6356 6.49999C14.8713 6.52856 15.057 6.77142 15.0499 7.00713C15.0428 7.26427 14.8428 7.4857 14.5928 7.50713ZM14.5928 5.39999C14.4785 5.41427 14.3642 5.39999 14.2499 5.39999C14.1428 5.39999 14.0356 5.41427 13.9285 5.39999C13.6856 5.37856 13.4856 5.17142 13.4713 4.92856C13.457 4.67142 13.6356 4.42856 13.8785 4.39284C14.1285 4.35713 14.3856 4.35713 14.6356 4.39284C14.8713 4.42856 15.057 4.66427 15.0499 4.90713C15.0428 5.15713 14.8428 5.37856 14.5928 5.39999Z" fill="#4370FF"/>
</svg>
