<svg width="100%" height="100%" viewBox="0 0 45 45" fill="none" xmlns="http://www.w3.org/2000/svg">
<rect width="45" height="45" rx="8" fill="url(#paint0_linear_1128_2761)" fill-opacity="0.08"/>
<path d="M10.3121 32.0693C9.56842 32.0693 9.06802 32.6531 9.06802 33.4037C9.06802 34.1543 9.56842 34.7381 10.3121 34.7381C11.0557 34.7381 11.5561 34.1543 11.5561 33.4037C11.5492 32.6531 11.0488 32.0693 10.3121 32.0693ZM10.1453 31.2422C10.743 31.2422 11.2434 31.548 11.4797 31.8816V31.3256H12.3971V35.4887H11.6882C11.6329 35.4885 11.58 35.4665 11.5409 35.4274C11.5019 35.3884 11.4798 35.3354 11.4797 35.2802V34.9327C11.2434 35.2663 10.7499 35.5721 10.1453 35.5721C9.00547 35.5721 8.13672 34.5991 8.13672 33.4106C8.13672 32.2222 8.99852 31.2422 10.1453 31.2422ZM13.4396 31.3256H14.357V31.8886C14.6072 31.4716 15.0798 31.2422 15.6219 31.2422C16.5879 31.2422 17.2135 31.9233 17.2135 32.9797V35.4887H16.5115C16.4563 35.4885 16.4033 35.4665 16.3642 35.4274C16.3252 35.3884 16.3032 35.3354 16.303 35.2802V33.1326C16.303 32.4724 15.9694 32.0762 15.4342 32.0762C14.8296 32.0762 14.357 32.5488 14.357 33.4384V35.4887H13.655C13.5998 35.4885 13.5469 35.4665 13.5078 35.4274C13.4687 35.3884 13.4467 35.3354 13.4465 35.2802L13.4396 31.3256ZM20.1047 32.0693C19.361 32.0693 18.8606 32.6531 18.8606 33.4037C18.8606 34.1543 19.361 34.7381 20.1047 34.7381C20.8483 34.7381 21.3487 34.1543 21.3487 33.4037C21.3487 32.6531 20.8483 32.0693 20.1047 32.0693ZM19.9379 31.2422C20.5356 31.2422 21.036 31.548 21.2723 31.8816V29.2406H22.1897V35.4887H21.4877C21.4325 35.4885 21.3795 35.4665 21.3405 35.4274C21.3014 35.3884 21.2794 35.3354 21.2792 35.2802V34.9327C21.0429 35.2663 20.5495 35.5721 19.9448 35.5721C18.805 35.5721 17.9363 34.5991 17.9363 33.4106C17.9363 32.2222 18.7981 31.2422 19.9379 31.2422ZM23.2322 31.3256H24.1496V32.0693C24.2301 31.8417 24.3787 31.6443 24.5751 31.5038C24.7715 31.3634 25.0062 31.2866 25.2477 31.2839C25.3668 31.2817 25.4857 31.2934 25.6021 31.3187V32.2569C25.4542 32.2074 25.2994 32.1816 25.1434 32.1805C24.6222 32.1805 24.1426 32.6253 24.1426 33.4523V35.4817H23.4407C23.3854 35.4816 23.3325 35.4595 23.2934 35.4205C23.2544 35.3814 23.2323 35.3285 23.2322 35.2732V31.3256ZM28.0694 34.7172C28.7991 34.7172 29.3204 34.1404 29.3204 33.4037C29.3204 32.66 28.8061 32.0901 28.0694 32.0901C27.3257 32.0901 26.8114 32.667 26.8114 33.4037C26.8184 34.1473 27.3257 34.7172 28.0694 34.7172ZM28.0694 35.5721C27.6418 35.5687 27.2248 35.4387 26.871 35.1986C26.5171 34.9585 26.2423 34.6189 26.0812 34.2228C25.9201 33.8267 25.8799 33.3918 25.9657 32.9729C26.0515 32.554 26.2594 32.1698 26.5632 31.8689C26.867 31.568 27.2531 31.3638 27.6728 31.2821C28.0925 31.2003 28.5271 31.2447 28.9216 31.4096C29.3161 31.5745 29.653 31.8526 29.8897 32.2087C30.1264 32.5648 30.2524 32.983 30.2517 33.4106C30.2531 33.6966 30.1975 33.9801 30.0881 34.2443C29.9787 34.5086 29.8176 34.7483 29.6144 34.9496C29.4112 35.1509 29.1699 35.3096 28.9046 35.4165C28.6393 35.5234 28.3554 35.5763 28.0694 35.5721ZM30.9953 31.3256H31.9128V35.4887H31.2108C31.1556 35.4885 31.1026 35.4665 31.0635 35.4274C31.0245 35.3884 31.0025 35.3354 31.0023 35.2802L30.9953 31.3256ZM31.454 30.4152C31.2905 30.4136 31.134 30.348 31.0184 30.2323C30.9027 30.1166 30.837 29.9602 30.8355 29.7966C30.8388 29.6349 30.9054 29.4809 31.0211 29.3678C31.1368 29.2547 31.2923 29.1916 31.454 29.192C31.6163 29.192 31.7718 29.2564 31.8865 29.3711C32.0012 29.4858 32.0657 29.6414 32.0657 29.8036C32.0657 29.9658 32.0012 30.1213 31.8865 30.236C31.7718 30.3507 31.6163 30.4152 31.454 30.4152ZM34.8387 32.0693C34.0951 32.0693 33.5947 32.6531 33.5947 33.4037C33.5947 34.1543 34.0951 34.7381 34.8387 34.7381C35.5824 34.7381 36.0828 34.1543 36.0828 33.4037C36.0689 32.6531 35.5824 32.0693 34.8387 32.0693ZM34.6719 31.2422C35.2696 31.2422 35.77 31.548 36.0063 31.8816V29.2406H36.9237V35.4887H36.2218C36.1665 35.4885 36.1136 35.4665 36.0745 35.4274C36.0354 35.3884 36.0134 35.3354 36.0133 35.2802V34.9327C35.777 35.2663 35.2835 35.5721 34.6789 35.5721C33.5391 35.5721 32.6703 34.5991 32.6703 33.4106C32.6703 32.2222 33.5321 31.2422 34.6719 31.2422Z" fill="black"/>
<path d="M29.5834 15.2767L31.9811 11.1275C32.0454 11.0133 32.0622 10.8784 32.0278 10.752C31.9933 10.6256 31.9105 10.5178 31.7972 10.452C31.6839 10.3862 31.5492 10.3677 31.4223 10.4005C31.2955 10.4332 31.1866 10.5147 31.1193 10.6271L28.6938 14.8249C26.7576 13.9545 24.6589 13.5044 22.5361 13.5044C20.4132 13.5044 18.3145 13.9545 16.3783 14.8249L13.9528 10.6271C13.8855 10.5147 13.7767 10.4332 13.6498 10.4005C13.5229 10.3677 13.3883 10.3862 13.275 10.452C13.1616 10.5178 13.0788 10.6256 13.0444 10.752C13.0099 10.8784 13.0267 11.0133 13.091 11.1275L15.4887 15.2767C11.3535 17.5146 8.4872 21.9602 8.07715 26.8739H22.7262H36.7384C36.3283 21.9602 33.6839 17.5146 29.5834 15.2767ZM15.9057 22.4908C15.6693 22.4908 15.4382 22.4207 15.2416 22.2893C15.045 22.158 14.8918 21.9713 14.8013 21.7528C14.7109 21.5344 14.6872 21.294 14.7333 21.0622C14.7794 20.8303 14.8933 20.6173 15.0605 20.4501C15.2276 20.2829 15.4406 20.1691 15.6725 20.1229C15.9044 20.0768 16.1448 20.1005 16.3632 20.191C16.5816 20.2814 16.7683 20.4347 16.8997 20.6312C17.031 20.8278 17.1011 21.0589 17.1011 21.2954C17.1011 21.6124 16.9752 21.9165 16.751 22.1407C16.5268 22.3648 16.2228 22.4908 15.9057 22.4908ZM29.1525 22.4908C28.9161 22.4908 28.6849 22.4207 28.4884 22.2893C28.2918 22.158 28.1386 21.9713 28.0481 21.7528C27.9576 21.5344 27.9339 21.294 27.98 21.0622C28.0262 20.8303 28.14 20.6173 28.3072 20.4501C28.4744 20.2829 28.6874 20.1691 28.9193 20.1229C29.1512 20.0768 29.3915 20.1005 29.6099 20.191C29.8284 20.2814 30.0151 20.4347 30.1464 20.6312C30.2778 20.8278 30.3479 21.0589 30.3479 21.2954C30.3479 21.6124 30.2219 21.9165 29.9978 22.1407C29.7736 22.3648 29.4695 22.4908 29.1525 22.4908Z" fill="#3DDC84"/>
<defs>
<linearGradient id="paint0_linear_1128_2761" x1="0" y1="0" x2="45" y2="45" gradientUnits="userSpaceOnUse">
<stop stop-color="#130F40" stop-opacity="0"/>
<stop offset="1" stop-color="#130F40"/>
</linearGradient>
</defs>
</svg>
