<svg width="10" height="11" viewBox="0 0 10 11" fill="none" xmlns="http://www.w3.org/2000/svg">
<path d="M6.0363 5.49925L9.07029 2.46526C9.20906 2.32731 9.28578 2.14284 9.28578 1.94694C9.28578 1.75104 9.20906 1.56738 9.07029 1.42862C8.7944 1.15191 8.31118 1.15028 8.03366 1.42862L4.99966 4.46262L1.96566 1.42862C1.67998 1.14293 1.21472 1.14293 0.929029 1.42862C0.643342 1.71431 0.643342 2.17875 0.929029 2.46526L3.96303 5.49925L0.929029 8.53325C0.790267 8.67201 0.714355 8.85648 0.714355 9.05157C0.714355 9.24747 0.790267 9.43194 0.929029 9.56989C1.20655 9.84823 1.69059 9.84659 1.96566 9.56989L4.99966 6.53589L8.03366 9.56989C8.17242 9.70865 8.35689 9.78538 8.55198 9.78538C8.74788 9.78538 8.93316 9.70865 9.07029 9.56989C9.20906 9.43194 9.28578 9.24747 9.28578 9.05238C9.28578 8.8573 9.20906 8.67201 9.07029 8.53325L6.0363 5.49925Z" fill="#5A577A"/>
</svg>
