<svg width="20" height="20" viewBox="0 0 20 20" fill="none" xmlns="http://www.w3.org/2000/svg">
<path d="M18.5648 7.82631C18.5561 7.12386 18.1399 6.49079 17.5068 6.23062C17.212 6.10054 16.8997 6.10921 16.6309 6.11788H16.5442C16.5355 6.11788 16.5268 6.11788 16.5268 6.11788C16.5182 6.10921 16.5182 6.10054 16.5095 6.09186C16.0585 5.20729 15.4515 4.41812 14.7317 3.77637C14.6363 3.68965 14.5409 3.60293 14.4455 3.54222C14.2547 3.38612 14.0553 3.2387 13.8558 3.09994C13.7517 3.03923 13.6477 2.96986 13.5436 2.90915C13.3268 2.78774 13.11 2.675 12.8845 2.57093C12.6677 2.45819 12.4335 2.37147 12.1994 2.30209C12.1127 2.2674 12.0173 2.24139 11.9219 2.21537C11.7398 2.16334 11.5576 2.11998 11.3755 2.08529C11.1674 2.04193 10.9593 2.00724 10.7425 1.98122C10.7338 1.98989 10.7251 1.98122 10.7164 1.98122C10.5083 1.96388 10.2915 1.94653 10.0747 1.93786H9.9793C9.84054 1.93786 9.69311 1.94653 9.55436 1.9552C8.19282 2.03325 6.93534 2.51023 5.85998 3.27338C5.83397 3.29073 5.81662 3.30807 5.79061 3.32542C5.61716 3.44683 5.45239 3.58559 5.29629 3.72434C5.19222 3.81106 5.08815 3.89779 4.99276 4.00185C4.36836 4.60891 3.83068 5.32871 3.43175 6.12655H3.42308H3.22362C3.15424 6.11788 3.07619 6.10921 3.00681 6.11788C2.93744 6.11788 2.85939 6.12655 2.79868 6.13523C2.26967 6.19593 1.80137 6.56017 1.57589 7.07183C1.4805 7.29731 1.42847 7.54013 1.42847 7.78295V12.1364C1.42847 12.3359 1.45448 12.5267 1.52386 12.7175C1.74067 13.3592 2.32171 13.8015 2.95478 13.8015C3.05885 13.8102 3.17159 13.8102 3.31902 13.8015H3.39707C3.87404 14.7815 4.5418 15.64 5.34832 16.3164C5.60849 16.5506 5.87733 16.7501 6.16351 16.9322C6.30227 17.0276 6.4497 17.1056 6.59712 17.1923C6.75322 17.2791 6.918 17.3571 7.0741 17.4352C7.36028 17.5652 7.65514 17.678 7.95867 17.7647C7.96734 17.7734 7.97601 17.7734 7.98468 17.7734C8.11477 17.8167 8.24485 17.8514 8.37493 17.8774C8.89527 18.0075 9.42427 18.0682 9.97063 18.0682C10.3262 18.0682 10.6904 18.0422 11.046 17.9815C11.1934 17.9555 11.3495 17.9295 11.4883 17.9035C11.627 17.8688 11.7571 17.8341 11.8872 17.7994C12.13 17.73 12.3555 17.6606 12.581 17.5652C12.685 17.5219 12.7891 17.4785 12.8845 17.4352C13.6737 17.0969 14.3761 16.6026 15.0005 15.9696C15.0873 15.8828 15.174 15.7961 15.2607 15.7007C15.3908 15.562 15.5122 15.4145 15.6336 15.2584C15.9545 14.8595 16.2407 14.4259 16.4835 13.9576C16.5875 13.8188 16.7003 13.7841 16.8997 13.7841H16.9258C17.3594 13.7841 17.767 13.6194 18.0618 13.3158C18.3827 12.995 18.5561 12.5527 18.5648 12.0757C18.5735 10.8269 18.5735 9.47404 18.5648 7.82631ZM12.4162 13.5934H11.1587L9.99664 9.61279L8.82589 13.5934H7.56841L5.71255 6.93307H7.2909L7.30825 6.96776L8.27087 10.5147L9.42428 6.93307H10.5603L11.7137 10.5147L12.6937 6.93307H14.2807L14.2721 6.98511L12.4162 13.5934Z" fill="#14B9FF"/>
</svg>
