<svg width="28" height="28" viewBox="0 0 28 28" fill="none" xmlns="http://www.w3.org/2000/svg">
<path d="M23.9993 14.004C23.9668 14.5432 24.0318 15.0132 23.9301 15.4798C23.6084 16.9548 22.1926 17.944 20.7043 17.7115C20.5443 17.6865 20.4685 17.7381 20.381 17.8623C19.161 19.6006 17.5061 20.6756 15.4219 21.0856C15.3086 21.1081 15.2561 21.1539 15.2086 21.2581C14.8761 21.9989 14.0845 22.3897 13.3003 22.2105C12.537 22.0364 11.9787 21.3147 12.0028 20.5331C12.0278 19.7314 12.612 19.0606 13.4053 18.9223C14.0828 18.8039 14.7853 19.1298 15.1261 19.7448C15.2044 19.8864 15.2803 19.8922 15.4119 19.8622C18.0236 19.2714 19.9818 17.229 20.446 14.6082C21.0685 11.0933 18.6902 7.69251 15.1719 7.06419C11.6795 6.44087 8.33293 8.69082 7.61545 12.1624C7.30045 13.6865 7.51378 15.149 8.2371 16.5323C8.51626 17.0656 8.38043 17.4081 7.80961 17.6006C6.01131 18.2065 4.10302 16.9131 4.03302 15.009C4.00636 14.294 3.96552 13.5724 4.05386 12.8574C4.21469 11.5608 5.35216 10.4908 6.6563 10.415C6.84796 10.4041 6.93796 10.3416 7.02629 10.1675C8.27543 7.69418 10.2604 6.20671 13.0128 5.82255C16.3453 5.35756 19.6002 7.16336 21.016 10.215C21.0768 10.3458 21.1427 10.4016 21.2935 10.41C22.8084 10.4966 23.9818 11.7324 23.9976 13.2507C24.0018 13.5249 23.9993 13.7999 23.9993 14.004Z" fill="#130F40"/>
<path d="M13.9011 8.87415C16.4194 8.87748 18.4318 10.7266 18.6385 13.1257C18.851 15.5915 17.1002 17.7931 14.6502 18.1356C14.0836 18.2148 13.5194 18.1914 12.9628 18.0564C12.8569 18.0306 12.7778 18.0423 12.6861 18.0964C12.1136 18.4314 11.5395 18.7648 10.962 19.0923C10.5845 19.3064 10.1678 19.1131 10.1012 18.7023C10.0837 18.5948 10.1145 18.4939 10.1412 18.3939C10.2787 17.8781 10.4178 17.3615 10.5595 16.8465C10.5878 16.7448 10.5778 16.6715 10.5045 16.5823C9.35368 15.1882 9.02452 13.6174 9.6545 11.9224C10.2828 10.2308 11.5453 9.23997 13.3294 8.93248C13.5544 8.89331 13.7836 8.88581 13.9011 8.87415ZM14.0061 14.079C14.3136 14.0782 14.5594 13.8374 14.5627 13.5349C14.5661 13.2274 14.3069 12.9682 14.0019 12.9724C13.7019 12.9774 13.4536 13.2299 13.4544 13.5299C13.4553 13.8357 13.7011 14.0807 14.0061 14.079ZM15.8419 14.079C16.1502 14.0857 16.3994 13.8532 16.411 13.5482C16.4227 13.2432 16.1685 12.9766 15.8635 12.9724C15.566 12.9682 15.3094 13.2182 15.3035 13.5174C15.2977 13.8224 15.5377 14.0724 15.8419 14.079ZM12.1678 14.079C12.4728 14.0765 12.7153 13.8307 12.7144 13.5257C12.7136 13.2274 12.4594 12.9732 12.1628 12.9724C11.857 12.9716 11.6003 13.2341 11.607 13.5399C11.6128 13.844 11.8603 14.0815 12.1678 14.079Z" fill="#130F40"/>
</svg>
