<svg width="20" height="20" viewBox="0 0 20 20" fill="none" xmlns="http://www.w3.org/2000/svg">
<path d="M17.4444 8.08C17.2808 8.03929 17.1144 8.01143 16.9529 7.98286C16.8186 7.96 16.6844 7.93643 16.5515 7.90715C16.5201 7.9 16.4686 7.85786 16.4551 7.82715C16.3308 7.55429 16.2115 7.26429 16.0986 6.96572C16.0879 6.93857 16.0922 6.88143 16.1072 6.85929C16.1829 6.74072 16.2636 6.625 16.3444 6.50929C16.4486 6.36072 16.5551 6.20643 16.6508 6.04786C16.9615 5.53429 16.9015 4.86215 16.5051 4.41357C16.2408 4.115 15.9572 3.82786 15.6615 3.55929C15.1158 3.06143 14.4158 3.02 13.7901 3.44286C13.7015 3.50286 13.6144 3.565 13.5272 3.62715C13.4001 3.71786 13.2722 3.80857 13.1401 3.89286C13.1208 3.90643 13.0636 3.91215 13.0336 3.90072C12.7308 3.78572 12.4408 3.66572 12.1729 3.545C12.1422 3.53072 12.1001 3.48 12.0929 3.44786C12.0579 3.29072 12.0315 3.13286 12.0051 2.97429C11.9886 2.87357 11.9715 2.77286 11.9529 2.67286C11.8194 1.95072 11.2694 1.46715 10.5529 1.43929C10.1765 1.425 9.80221 1.42572 9.43792 1.44C8.77007 1.46786 8.23721 1.90286 8.08007 2.54857C8.01435 2.81643 7.97007 3.09215 7.92721 3.35929L7.91292 3.44929C7.90292 3.51072 7.88721 3.53 7.82578 3.55357C7.68578 3.60786 7.54721 3.66572 7.40864 3.72357C7.25864 3.78572 7.10864 3.84857 6.9565 3.90643C6.93364 3.915 6.88435 3.90929 6.86507 3.89786C6.73292 3.81215 6.60364 3.72072 6.47435 3.62929C6.38864 3.56857 6.30292 3.50715 6.21578 3.44786C5.58507 3.01715 4.88007 3.06286 4.33007 3.56572C4.04221 3.83 3.76649 4.10929 3.51078 4.39643C3.09221 4.86715 3.03292 5.52429 3.36078 6.07C3.45721 6.23072 3.56507 6.385 3.67078 6.53429C3.74721 6.64429 3.82435 6.75429 3.89649 6.86643C3.90792 6.88429 3.91364 6.935 3.90507 6.95929C3.84792 7.10786 3.78721 7.25429 3.72578 7.40072C3.66649 7.54286 3.60721 7.685 3.55221 7.82857C3.52864 7.88929 3.50792 7.90572 3.44792 7.915C3.22292 7.94857 2.99792 7.98929 2.77435 8.03L2.68078 8.04715C1.95221 8.18072 1.46435 8.73429 1.43792 9.45714C1.42507 9.82429 1.42578 10.1936 1.43935 10.5557C1.46507 11.2371 1.89292 11.7614 2.55578 11.9236C2.71721 11.9629 2.88007 11.9914 3.04435 12.02C3.17935 12.0429 3.31435 12.0664 3.44864 12.0964C3.48007 12.1036 3.53078 12.1457 3.54435 12.1764C3.66578 12.4429 3.78221 12.725 3.90078 13.0386C3.91078 13.0657 3.90721 13.1229 3.89292 13.145C3.80935 13.2743 3.72007 13.4007 3.63007 13.5271C3.56721 13.6157 3.50364 13.7043 3.44364 13.7943C3.02149 14.4186 3.06435 15.1186 3.55935 15.6664C3.80007 15.9329 4.0615 16.195 4.33721 16.445C4.88578 16.9407 5.58649 16.9829 6.20935 16.5614C6.30007 16.5 6.39007 16.4357 6.48007 16.3714C6.60507 16.2836 6.72935 16.1943 6.85864 16.1114C6.87935 16.0993 6.93435 16.0921 6.96507 16.1029C7.27507 16.22 7.55721 16.3364 7.82649 16.4593C7.85792 16.4736 7.89935 16.5229 7.9065 16.555C7.94221 16.7164 7.97007 16.8793 7.99649 17.0429C8.01292 17.1393 8.02864 17.235 8.04649 17.3307C8.18364 18.07 8.76007 18.5557 9.51364 18.5693C9.62721 18.5707 9.73864 18.57 9.85149 18.57L10.0522 18.5693L10.1558 18.57C10.2086 18.5714 10.2629 18.5714 10.3165 18.5714C10.3865 18.5714 10.4572 18.5707 10.5265 18.5686C11.2351 18.5443 11.7908 18.0836 11.9415 17.3929C11.9794 17.2171 11.9351 17.0529 11.8151 16.9171C11.6858 16.7721 11.5094 16.7107 11.3272 16.7436C11.1386 16.7793 10.9836 16.9186 10.9115 17.1157C10.7915 17.4493 10.7208 17.4986 10.3665 17.4986H9.60649C9.26649 17.4986 9.13864 17.3907 9.08221 17.0579L9.02149 16.705C8.98292 16.4871 8.94507 16.2686 8.91078 16.05C8.86935 15.7921 8.72507 15.6257 8.45578 15.525C8.02435 15.3629 7.59649 15.1864 7.18435 15.0007C6.92149 14.8836 6.70221 14.8979 6.49292 15.05C6.20435 15.2593 5.91149 15.4629 5.61721 15.6657C5.38364 15.8271 5.21435 15.8129 5.01007 15.6136C4.80221 15.41 4.59578 15.2043 4.39292 14.9964C4.18864 14.7871 4.17435 14.6186 4.34221 14.3764L4.40078 14.2914C4.58149 14.03 4.76078 13.77 4.94864 13.5143C5.10435 13.3021 5.11935 13.0771 4.99721 12.8071C4.80864 12.3936 4.63435 11.9714 4.47935 11.5521C4.37721 11.2743 4.20149 11.1257 3.92578 11.085C3.60078 11.0357 3.26221 10.9771 2.89007 10.9029C2.6115 10.8486 2.50721 10.7207 2.50578 10.4314C2.50364 10.1507 2.50435 9.87072 2.50578 9.58929C2.50578 9.27572 2.61364 9.145 2.9165 9.08929L3.01578 9.07143C3.31649 9.01715 3.61864 8.96286 3.92149 8.91786C4.20007 8.87643 4.37721 8.72929 4.47792 8.45429C4.62578 8.05357 4.79792 7.63857 5.00292 7.18357C5.12007 6.92286 5.10364 6.70286 4.95078 6.49143C4.74864 6.21429 4.55292 5.93143 4.34364 5.63C4.17221 5.38143 4.18721 5.21643 4.4015 4.99857C4.59935 4.79857 4.79721 4.60072 4.9965 4.40357C5.21507 4.18857 5.37864 4.17357 5.62864 4.345L5.79507 4.46072C6.01935 4.615 6.24364 4.77 6.46149 4.93286C6.69435 5.10786 6.92792 5.12357 7.21292 4.98929C7.59221 4.81072 8.00364 4.64143 8.43578 4.485C8.72292 4.38143 8.87507 4.20357 8.91649 3.92429C8.96435 3.60429 9.02435 3.26 9.10221 2.87357C9.15364 2.61572 9.28507 2.50929 9.55507 2.50643C9.79221 2.50429 10.0286 2.505 10.2665 2.50572H10.3965C10.7294 2.50643 10.8601 2.61857 10.9165 2.95072L10.9879 3.37C11.0222 3.56572 11.0558 3.76215 11.0879 3.95857C11.1294 4.21215 11.2701 4.37643 11.5308 4.47429C11.9622 4.63786 12.3951 4.81643 12.8172 5.00572C13.0772 5.12286 13.2965 5.105 13.5079 4.95072C13.7915 4.74429 14.0808 4.54429 14.3708 4.34429C14.6136 4.17643 14.7815 4.19 14.9908 4.395C15.1944 4.59429 15.3958 4.79715 15.5972 5.00143C15.8108 5.21786 15.8251 5.38357 15.6522 5.63286L15.5694 5.75215C15.4008 5.99715 15.2315 6.24143 15.0551 6.48072C14.8915 6.70215 14.8758 6.92429 15.0036 7.20286C15.1951 7.61786 15.3672 8.03429 15.5158 8.44215C15.6201 8.72786 15.7986 8.88072 16.0786 8.92C16.4015 8.96643 16.7286 9.02715 17.0458 9.08572L17.0822 9.09286C17.3844 9.14857 17.4922 9.27929 17.4929 9.59357L17.4936 10.0679L17.4929 10.3043C17.4929 10.7379 17.4736 10.7664 17.0751 10.9279C16.8129 11.0336 16.6722 11.3207 16.7536 11.5829C16.8365 11.845 17.1151 12.0071 17.3865 11.9464C18.0644 11.8007 18.5236 11.2657 18.5572 10.5829C18.5758 10.2107 18.5758 9.82429 18.5579 9.43286C18.5286 8.76 18.1015 8.24143 17.4444 8.08Z" fill="#5A577A"/>
<path d="M15.0193 12.4171L13.9422 11.3157C13.6222 10.99 13.4701 10.605 13.4786 10.1414C13.4851 9.77999 13.4843 9.39642 13.4101 9.02713C13.0529 7.2607 11.3593 5.98713 9.5422 6.11642C9.28505 6.1357 9.09005 6.22428 8.94505 6.38713C8.63648 6.7357 8.6572 7.20642 8.99577 7.55856C9.16077 7.72928 9.3272 7.89785 9.49291 8.06785C9.65505 8.23213 9.81577 8.3957 9.97577 8.56213C10.1686 8.76142 10.1786 9.00856 10.0022 9.19213C9.74005 9.4657 9.46362 9.73642 9.18148 9.99785C8.99934 10.1664 8.75934 10.1593 8.57005 9.98142C8.53362 9.94785 8.49934 9.91213 8.46362 9.8757L8.41934 9.82999C8.32577 9.7357 8.23291 9.63999 8.13862 9.54499C7.92505 9.32642 7.70362 9.1007 7.47648 8.88642C7.25291 8.67499 6.96077 8.62213 6.65148 8.73785C6.34648 8.85428 6.16148 9.08142 6.13077 9.37713C5.99505 10.7043 6.43934 11.8114 7.45362 12.665C8.16505 13.265 9.00648 13.5457 9.94862 13.4978C10.4815 13.4728 10.9136 13.6457 11.2958 14.0493C11.7536 14.535 12.5401 15.3343 13.2329 16.04C13.6351 16.4493 14.0093 16.83 14.2951 17.1243C14.3251 17.1557 14.3565 17.1878 14.3893 17.2143C14.4793 17.2893 14.5951 17.3286 14.7093 17.3286C14.7908 17.3286 14.8715 17.3086 14.9415 17.2693C15.1293 17.1628 15.2165 16.9621 15.1629 16.7571C15.1365 16.6557 15.0758 16.5507 14.9965 16.4664C14.5208 15.9728 13.7408 15.1764 13.0322 14.4543C12.5993 14.0136 12.1936 13.5993 11.9015 13.2993C11.8093 13.2043 11.7122 13.1164 11.6122 13.0386C11.1729 12.695 10.6536 12.5321 9.98648 12.5321C9.92291 12.5321 9.85862 12.5343 9.79648 12.535C8.44434 12.535 7.34148 11.615 7.10291 10.2736C7.0772 10.1286 7.07148 9.9807 7.06434 9.82428L7.10291 9.86428C7.35362 10.1236 7.60362 10.3821 7.86005 10.635C8.44505 11.2136 9.27148 11.2293 9.87148 10.6736C10.1193 10.4428 10.3743 10.1936 10.6493 9.91142C11.1279 9.4207 11.2201 8.77999 10.8936 8.19642C10.8172 8.05928 10.7122 7.94213 10.6108 7.8357C10.4065 7.62142 10.1986 7.4107 9.98434 7.19356L9.87291 7.07999C10.8772 7.09142 11.8201 7.69213 12.2686 8.62928C12.4722 9.0557 12.5536 9.5407 12.5229 10.1557C12.4893 10.8357 12.7258 11.4428 13.2265 11.96C13.6279 12.375 14.2443 13.0036 14.8515 13.6236C15.4093 14.1936 15.9608 14.7557 16.3372 15.1443C16.3651 15.1728 16.3922 15.2007 16.4229 15.225C16.5615 15.3378 16.7386 15.3714 16.8986 15.3114C17.0579 15.2528 17.1715 15.1114 17.2022 14.9343C17.2401 14.7207 17.1293 14.5743 17.0286 14.4714C16.5408 13.9714 15.7379 13.1507 15.0193 12.4171Z" fill="#5A577A"/>
</svg>
