<svg width="20" height="20" viewBox="0 0 20 20" fill="none" xmlns="http://www.w3.org/2000/svg">
<path d="M18.5428 15.8536V15.8464C18.5428 15.8464 18.5356 15.8393 18.5356 15.8321C18.5356 15.8178 18.5356 15.8036 18.5285 15.7893C18.5285 15.775 18.5213 15.7678 18.5213 15.7536C18.407 15.2178 18.107 14.8036 17.6285 14.5178C17.3356 14.3393 17.0142 14.2536 16.6785 14.2536C16.5642 14.2536 16.4499 14.2607 16.3285 14.2821C16.3999 13.2536 16.1213 12.3393 15.4285 11.5821C14.7428 10.8178 13.8713 10.4321 12.8428 10.4107H12.7785C12.3285 10.4107 11.8785 10.5036 11.457 10.6821V3.53213C11.457 3.49642 11.4499 3.46785 11.4428 3.43213C11.4356 3.41071 11.4285 3.38213 11.407 3.35356C11.3713 3.26785 11.2928 3.17499 11.1928 3.08213C11.0999 2.99642 10.9999 2.92499 10.8999 2.85356C10.7928 2.78928 10.6856 2.72499 10.5785 2.67499C10.4356 2.59642 10.2856 2.53928 10.1285 2.48213C10.0499 2.45356 9.97132 2.42499 9.89275 2.39642C9.81418 2.37499 9.73561 2.34642 9.65704 2.32499C9.53561 2.28928 9.41418 2.25356 9.2999 2.22499C9.16418 2.18928 9.02847 2.15356 8.89275 2.13213C8.75704 2.11071 8.62847 2.08213 8.49989 2.06071C7.84275 1.96071 7.16418 1.91785 6.44275 1.91071C5.72132 1.91785 5.04275 1.96071 4.38561 2.06071C4.25704 2.08213 4.12847 2.11071 3.99275 2.13213C3.85704 2.15356 3.72132 2.18928 3.58561 2.22499C3.47132 2.25356 3.3499 2.28928 3.22847 2.32499C3.1499 2.34642 3.07132 2.37499 2.99275 2.39642C2.91418 2.42499 2.83561 2.45356 2.75704 2.48213C2.5999 2.53928 2.4499 2.59642 2.30704 2.67499C2.1999 2.72499 2.09275 2.78928 1.98561 2.85356C1.88561 2.92499 1.78561 2.99642 1.69275 3.08213C1.59275 3.17499 1.51418 3.26785 1.47847 3.35356C1.46418 3.38213 1.4499 3.40356 1.44275 3.43213C1.43561 3.46785 1.42847 3.49642 1.42847 3.53213V14.575C1.42847 14.6107 1.43561 14.6464 1.44275 14.6821C1.4499 14.7107 1.46418 14.7321 1.47847 14.7607C1.51418 14.8464 1.58561 14.9321 1.68561 15.025L1.69275 15.0321C1.87847 15.2036 2.08561 15.3321 2.30704 15.4393C2.52847 15.5536 2.75704 15.6393 2.99275 15.7178C3.07132 15.7393 3.1499 15.7678 3.22847 15.7893C3.3499 15.825 3.47132 15.8607 3.58561 15.8893C3.72132 15.9178 3.85704 15.9536 3.99275 15.9821C4.12847 16.0036 4.25704 16.0321 4.38561 16.0536C4.92847 16.1393 5.49275 16.1821 6.07847 16.1964C6.0999 16.2964 6.12132 16.3893 6.14989 16.4893C6.45704 17.475 7.33561 18.0893 8.40704 18.0893H16.6642C17.1928 18.0893 17.6713 17.875 18.0142 17.5321C18.2785 17.2678 18.4642 16.9178 18.5356 16.5321C18.557 16.4178 18.5713 16.3036 18.5713 16.1821C18.5713 16.075 18.557 15.9607 18.5428 15.8536ZM2.82132 9.08928C2.85704 9.10356 2.88561 9.1107 2.92132 9.12499C3.82847 9.43928 4.75704 9.57499 5.6499 9.61785C5.88561 9.63213 6.11418 9.63928 6.34275 9.63928H6.54275C6.77132 9.63928 6.9999 9.63213 7.23561 9.61785C8.12847 9.57499 9.05704 9.43928 9.96418 9.12499C9.9999 9.1107 10.0285 9.10356 10.0642 9.08928C10.1642 9.05356 10.2642 9.01785 10.3642 8.97499V11.0893C10.207 11.1821 10.0142 11.2678 9.77132 11.3607C9.04275 11.6178 8.22847 11.775 7.2999 11.8321C7.05704 11.8536 6.79989 11.8607 6.54275 11.8607H6.34275C6.08561 11.8607 5.82847 11.8536 5.58561 11.8321C4.65704 11.775 3.84275 11.6178 3.11418 11.3607C2.87132 11.2678 2.67847 11.1821 2.52132 11.0893V8.97499C2.62132 9.01785 2.72132 9.05356 2.82132 9.08928ZM2.52132 7.88213V5.46785C2.62132 5.51071 2.72132 5.55356 2.82132 5.58928C2.85704 5.60356 2.88561 5.61071 2.92132 5.62499C3.80704 5.93213 4.71418 6.06785 5.58561 6.11785C5.84275 6.13213 6.09275 6.13928 6.34275 6.13928H6.54275C6.79275 6.13928 7.04275 6.13213 7.2999 6.11785C8.17132 6.06785 9.07847 5.93213 9.96418 5.62499C9.9999 5.61071 10.0285 5.60356 10.0642 5.58928C10.1642 5.55356 10.2642 5.51071 10.3642 5.46785V7.88213C10.207 7.97499 10.0142 8.06071 9.77132 8.15356C9.04275 8.41071 8.22847 8.56785 7.2999 8.62499C7.05704 8.64642 6.79989 8.65356 6.54275 8.65356H6.34275C6.08561 8.65356 5.82847 8.64642 5.58561 8.62499C4.65704 8.56785 3.84275 8.41071 3.11418 8.15356C2.87132 8.06071 2.67847 7.97499 2.52132 7.88213ZM2.47132 4.33928C2.17847 4.12499 2.17847 3.93213 2.47132 3.71785C2.48561 3.71071 2.4999 3.69642 2.51418 3.68928H2.52132V3.66785C2.58561 3.63213 2.64275 3.59642 2.71418 3.56071C2.82847 3.51071 2.96418 3.45356 3.11418 3.39642C3.34275 3.31785 3.57132 3.24642 3.81418 3.18928C3.99275 3.13928 4.17132 3.09642 4.36418 3.06785C4.55704 3.03928 4.74275 3.01071 4.93561 2.98928C5.02132 2.97499 5.10704 2.96785 5.19275 2.96071C5.47847 2.93213 5.77847 2.91071 6.08561 2.91071C6.1999 2.90356 6.32132 2.90356 6.44275 2.90356C6.56418 2.90356 6.68561 2.90356 6.7999 2.91071C7.10704 2.91071 7.40704 2.93213 7.69275 2.96071C7.77847 2.96785 7.86418 2.97499 7.94989 2.98928C8.14275 3.01071 8.32847 3.03928 8.52132 3.06785C8.71418 3.09642 8.89275 3.13928 9.07132 3.18928C9.31418 3.24642 9.54275 3.31785 9.77132 3.39642C9.92132 3.45356 10.057 3.51071 10.1713 3.56071C10.2428 3.59642 10.2999 3.63213 10.3642 3.66785V3.68928H10.3713C10.3856 3.69642 10.3999 3.71071 10.4142 3.71785C10.707 3.93213 10.707 4.12499 10.4142 4.33928C10.3999 4.34642 10.3856 4.36071 10.3713 4.36785C10.3713 4.36785 10.3713 4.37499 10.3642 4.37499C10.3356 4.39642 10.2999 4.41785 10.2642 4.43213C10.257 4.44642 10.2499 4.44642 10.2428 4.44642C10.107 4.51071 9.94989 4.57499 9.77132 4.64642C9.19275 4.85356 8.56418 4.99642 7.87132 5.07499C7.66418 5.09642 7.45704 5.11071 7.23561 5.12499C7.15704 5.13213 7.07847 5.13213 6.9999 5.13928C6.8999 5.14642 6.7999 5.14642 6.70704 5.14642H6.17847C6.08561 5.14642 5.98561 5.14642 5.88561 5.13928C5.80704 5.13213 5.72847 5.13213 5.6499 5.12499C5.42847 5.11071 5.22132 5.09642 5.01418 5.07499C4.32132 4.99642 3.69275 4.85356 3.11418 4.64642C2.93561 4.57499 2.77847 4.51071 2.64275 4.44642C2.63561 4.44642 2.62847 4.44642 2.62132 4.43213C2.58561 4.41785 2.5499 4.39642 2.52132 4.37499C2.51418 4.37499 2.51418 4.36785 2.51418 4.36785C2.4999 4.36071 2.48561 4.34642 2.47132 4.33928ZM4.49275 15.0678C4.44275 15.0536 4.38561 15.0464 4.33561 15.0393C4.03561 14.9893 3.7499 14.9178 3.47847 14.8321C3.21418 14.7536 2.97132 14.6678 2.76418 14.575C2.7499 14.5678 2.73561 14.5607 2.72132 14.5536H2.71418C2.64275 14.5178 2.58561 14.4821 2.52132 14.4464V12.1821C2.62132 12.225 2.72132 12.2607 2.82132 12.2964C2.85704 12.3107 2.88561 12.3178 2.92132 12.3321C3.82847 12.6464 4.75704 12.7821 5.6499 12.825C5.88561 12.8393 6.11418 12.8464 6.34275 12.8464H6.54275C6.77132 12.8464 6.9999 12.8393 7.23561 12.825C8.01418 12.7893 8.82847 12.6821 9.62132 12.4393C9.44989 12.8107 9.32847 13.2178 9.28561 13.675C9.23561 13.6607 9.19275 13.6464 9.14275 13.625C8.8499 13.525 8.55704 13.475 8.28561 13.475C7.71418 13.475 7.19275 13.6893 6.73561 14.1393C6.40704 14.4607 6.19275 14.8178 6.09275 15.2107C6.08561 15.2107 6.08561 15.2107 6.08561 15.2107H6.07847C5.60704 15.1964 5.16418 15.1678 4.74275 15.1036C4.65704 15.0964 4.57132 15.0821 4.49275 15.0678ZM17.6285 16.3607C17.5928 16.5607 17.4999 16.7321 17.357 16.875C17.1713 17.0607 16.9285 17.1607 16.6642 17.1607H8.41418C7.73561 17.1607 7.22132 16.8036 7.03561 16.2107C7.03561 16.2036 7.02847 16.1964 7.02847 16.1893C6.92132 15.8107 6.93561 15.4893 7.08561 15.1964C7.1499 15.0607 7.2499 14.9321 7.37847 14.8036C7.66418 14.5321 7.9499 14.4036 8.28561 14.4036C8.45704 14.4036 8.64275 14.4393 8.84275 14.5036L8.90704 14.5321L8.97132 14.5536L9.58561 14.775L10.0928 14.9536L10.1285 14.5678L10.207 13.7678C10.2285 13.5178 10.2856 13.2821 10.3642 13.075C10.5785 12.4678 10.9785 12.0107 11.457 11.725C11.8713 11.4678 12.3356 11.3393 12.7785 11.3393H12.8285C13.607 11.3536 14.2285 11.6393 14.7428 12.2036C15.2428 12.7536 15.457 13.4107 15.3999 14.2178L15.3213 15.3964L16.4856 15.1964C16.5499 15.1821 16.6142 15.1821 16.6785 15.1821C16.8428 15.1821 16.9928 15.225 17.1499 15.3107C17.407 15.4678 17.5499 15.6678 17.6142 15.9607L17.6213 15.9964L17.6285 16.0178C17.6356 16.0678 17.6428 16.125 17.6428 16.1821C17.6428 16.2464 17.6356 16.3036 17.6285 16.3607Z" fill="#5A577A"/>
</svg>
