<svg width="20" height="20" viewBox="0 0 20 20" fill="none" xmlns="http://www.w3.org/2000/svg">
<g clip-path="url(#clip0_632_13102)">
<path d="M10 0C4.477 0 0 4.477 0 10C0 15.523 4.477 20 10 20C15.523 20 20 15.523 20 10C20 4.477 15.523 0 10 0Z" fill="white"/>
<path d="M11.4405 14.0483H14.1543L14.5805 11.2915H11.4405V9.7846C11.4405 8.63951 11.8148 7.62393 12.886 7.62393H14.6073V5.21841C14.3047 5.17751 13.6651 5.08838 12.4566 5.08838C9.93254 5.08838 8.45295 6.42117 8.45295 9.45795V11.292H5.85815V14.0488H8.45242V21.6261C8.96625 21.7026 9.48688 21.755 10.0212 21.755C10.504 21.755 10.9754 21.711 11.4405 21.6481V14.0483Z" fill="#2AA4F4"/>
</g>
<defs>
<clipPath id="clip0_632_13102">
<rect width="20" height="20" fill="white"/>
</clipPath>
</defs>
</svg>
