<svg width="20" height="20" viewBox="0 0 20 20" fill="none" xmlns="http://www.w3.org/2000/svg">
<path d="M12.4601 4.90357C11.3015 4.73714 10.1837 5.43072 9.82081 6.54286C9.80009 6.60572 9.77509 6.62643 9.70723 6.62572C8.38366 6.62286 7.05938 6.62286 5.73581 6.62214C5.54366 6.62214 5.45581 6.71072 5.45581 6.90214C5.45581 7.16714 5.45581 7.43286 5.45581 7.69786C5.45581 7.89286 5.54366 7.98 5.74009 7.98C5.91009 7.98 6.07938 7.97929 6.25795 7.97857C6.25795 8.24143 6.25723 8.49143 6.25723 8.74143C6.25723 8.92786 6.34581 9.01643 6.53295 9.01714C6.80581 9.01786 7.07866 9.01786 7.35152 9.01714C7.52223 9.01643 7.61509 8.92429 7.61581 8.75214C7.61723 8.52214 7.61581 8.29143 7.61652 8.06143C7.61652 8.035 7.61795 8.00857 7.61938 7.97429C7.64723 7.97643 7.67009 7.97929 7.69223 7.97929C8.36509 7.97929 9.03866 7.98072 9.71152 7.97714C9.77652 7.97714 9.79795 7.99929 9.81795 8.05786C10.0587 8.76357 10.5222 9.27357 11.2137 9.54429C12.0929 9.88929 12.9265 9.76072 13.6608 9.16714C14.2472 8.69286 14.5415 8.055 14.5437 7.29786C14.5472 6.09357 13.6572 5.075 12.4601 4.90357ZM12.9708 8.15072C12.5029 8.62072 11.7415 8.62143 11.2708 8.15286C10.8015 7.685 10.8008 6.92286 11.2694 6.45286C11.7379 5.98286 12.4979 5.98143 12.9694 6.45C13.4379 6.91429 13.4387 7.68072 12.9708 8.15072ZM8.13295 12.0721L7.43652 12.3636L7.84152 13.0357L7.43581 13.3314L6.93366 12.7207L6.42295 13.3314L6.01795 13.0357L6.42081 12.3636L5.72652 12.0721L5.88009 11.6021L6.61581 11.7829L6.68009 11.0086H7.17938L7.24366 11.7764L7.97938 11.6021L8.13295 12.0721ZM11.2029 12.0721L10.5065 12.3636L10.9115 13.0357L10.5058 13.3314L10.0037 12.7207L9.49295 13.3314L9.08795 13.0357L9.49081 12.3636L8.79652 12.0721L8.95009 11.6021L9.68581 11.7829L9.75009 11.0086H10.2494L10.3137 11.7764L11.0494 11.6021L11.2029 12.0721ZM13.5772 12.3636L13.9822 13.0357L13.5765 13.3314L13.0744 12.7207L12.5637 13.3314L12.1587 13.0357L12.5615 12.3636L11.8672 12.0721L12.0208 11.6021L12.7565 11.7829L12.8208 11.0086H13.3201L13.3844 11.7764L14.1201 11.6021L14.2737 12.0714L13.5772 12.3636ZM17.2858 10.5679C17.2972 12.2936 16.6679 13.9671 15.5158 15.2779C14.9858 15.88 14.3065 16.3964 13.4394 16.8593L10.3808 18.4943C10.2851 18.545 10.1801 18.5707 10.0737 18.5714C10.0722 18.5714 10.0701 18.5714 10.0687 18.5714C9.96438 18.5714 9.86009 18.5464 9.76652 18.4971L6.68009 16.9C5.80366 16.445 5.11795 15.9357 4.58295 15.3429C3.41223 14.045 2.76152 12.3793 2.75009 10.6514L2.71438 4.96357C2.71081 4.30714 3.13366 3.71786 3.76724 3.49643L9.43509 1.51929C9.60581 1.45929 9.78723 1.42857 9.96938 1.42857C10.1451 1.42857 10.3208 1.45714 10.4894 1.51429L16.1787 3.42286C16.8151 3.63572 17.2458 4.22072 17.2494 4.87643L17.2858 10.5679ZM16.1429 10.5757L16.1065 4.88357C16.1058 4.71572 15.9894 4.565 15.8165 4.50714L10.1258 2.59786C10.0737 2.58 10.0222 2.57143 9.96938 2.57143C9.91652 2.57143 9.86366 2.58 9.81652 2.59714L4.14366 4.57572C3.97152 4.63572 3.85652 4.78929 3.85724 4.95714L3.89366 10.6436C3.90295 12.0907 4.44938 13.4879 5.43224 14.5771C5.87438 15.0679 6.45509 15.4957 7.20652 15.8857L10.0672 17.3657L12.9008 15.8507C13.6465 15.4536 14.2208 15.0193 14.6579 14.5221C15.6244 13.4229 16.1522 12.0207 16.1429 10.5757Z" fill="#5A577A"/>
</svg>
