<svg width="20" height="20" viewBox="0 0 20 20" fill="none" xmlns="http://www.w3.org/2000/svg">
<path d="M7.4043 15.82H4.27787C4.06072 15.82 3.88501 15.9957 3.88501 16.2128C3.88501 16.43 4.06072 16.6057 4.27787 16.6057H7.40501C7.62215 16.6057 7.79787 16.43 7.79787 16.2128C7.79715 15.9957 7.62144 15.82 7.4043 15.82Z" fill="#5A577A"/>
<path d="M9.63774 15.9335C9.53774 15.8264 9.35917 15.7907 9.21631 15.8478C9.16631 15.8685 9.12345 15.8971 9.08774 15.9335C9.00917 16.0114 8.96631 16.1121 8.96631 16.2121C8.96631 16.3121 9.00917 16.4121 9.08774 16.4907C9.12345 16.5271 9.16559 16.555 9.21631 16.5764C9.25988 16.5978 9.30917 16.605 9.36631 16.605C9.46631 16.605 9.56631 16.5621 9.63774 16.4907C9.68131 16.455 9.70988 16.4128 9.72345 16.3621C9.74488 16.3121 9.75917 16.2621 9.75917 16.2121C9.75917 16.1621 9.74488 16.1121 9.72345 16.0621C9.70988 16.0114 9.68131 15.9693 9.63774 15.9335Z" fill="#5A577A"/>
<path d="M18.5713 8.24499C18.5713 4.4857 15.5142 1.42856 11.7563 1.42856C7.99775 1.42856 4.94061 4.4857 4.94061 8.24499C4.94061 8.8257 5.02132 9.38642 5.15847 9.92499H2.69275C1.99561 9.92499 1.42847 10.4921 1.42847 11.1893V13.3764C1.42847 13.7171 1.56561 14.0257 1.78632 14.2536C1.5699 14.4807 1.43561 14.7857 1.43561 15.12V17.3071C1.43561 18.0043 2.00275 18.5714 2.6999 18.5714H10.9535C11.6506 18.5714 12.2178 18.0043 12.2178 17.3071V15.12C12.2178 15.0921 12.2085 15.0657 12.2063 15.0386C15.7542 14.805 18.5713 11.8514 18.5713 8.24499ZM2.21418 11.1893C2.21418 10.9257 2.42918 10.7107 2.69275 10.7107H5.40989C5.57132 11.125 5.77132 11.5193 6.00775 11.89H4.27918C4.06204 11.89 3.88632 12.0657 3.88632 12.2828C3.88632 12.5 4.06204 12.6757 4.27918 12.6757H6.58847C6.97204 13.1221 7.4099 13.52 7.8949 13.855H2.69275C2.42918 13.855 2.21418 13.64 2.21418 13.3764V11.1893ZM11.432 17.3071C11.432 17.5707 11.217 17.7857 10.9535 17.7857H2.6999C2.43632 17.7857 2.22132 17.5707 2.22132 17.3071V15.12C2.22132 14.8557 2.43132 14.6457 2.6999 14.6414H9.42347C10.0485 14.87 10.7149 15.0086 11.4099 15.0443C11.4149 15.0707 11.432 15.095 11.432 15.1207V17.3071ZM11.7563 14.275C8.43132 14.275 5.72632 11.57 5.72632 8.24427C5.72632 4.91856 8.43132 2.21427 11.7563 2.21427C15.0806 2.21427 17.7856 4.91927 17.7856 8.24499C17.7856 11.5707 15.0806 14.275 11.7563 14.275Z" fill="#5A577A"/>
<path d="M12.2599 5.99286H11.2591L10.6034 7.79572H8.96558V8.51H10.3434L10.2377 8.80143L9.68058 10.345H13.832L13.1677 8.51H14.5463V7.79572H12.9091L12.2599 5.99286ZM10.7284 9.69929L11.767 6.60857L12.8056 9.69929H10.7284Z" fill="#5A577A"/>
</svg>
