<svg width="20" height="20" viewBox="0 0 20 20" fill="none" xmlns="http://www.w3.org/2000/svg">
<g clip-path="url(#clip0_493_131)">
<path d="M20 10C20 4.47715 15.5228 0 10 0C4.47715 0 0 4.47715 0 10C0 15.5228 4.47715 20 10 20C15.5228 20 20 15.5228 20 10Z" fill="#FE0002"/>
<path fillRule="evenodd" clipRule="evenodd" d="M12.6628 6.7914L8.88775 10.8092L7.34361 9.24818C6.99271 8.89343 6.42018 8.89188 6.06733 9.24471C5.7167 9.59532 5.71571 10.1635 6.06514 10.5153L8.88778 13.3575L13.9368 8.06561C14.2887 7.7138 14.2887 7.14334 13.9369 6.7915C13.5851 6.43966 13.0147 6.43961 12.6628 6.7914Z" fill="white"/>
</g>
<defs>
<clipPath id="clip0_493_131">
<rect width="20" height="20" fill="white"/>
</clipPath>
</defs>
</svg>
