<svg width="30" height="30" viewBox="0 0 30 30" fill="none" xmlns="http://www.w3.org/2000/svg">
<g clip-path="url(#clip0_31275_2344)">
<path d="M29.7125 16.2C30.0875 15.45 30.0875 14.55 29.7125 13.8L29.325 13.025C29.2375 12.85 29.2125 12.6625 29.2375 12.475L29.375 11.6125C29.5 10.775 29.225 9.925 28.6375 9.325L28.025 8.7C27.8875 8.5625 27.8 8.4 27.775 8.2125L27.6375 7.35C27.5 6.525 26.9875 5.8125 26.25 5.425L25.5 4.975C25.5 4.975 25.475 4.9625 25.45 4.95C25.275 4.8625 25.15 4.725 25.0625 4.5625L24.6625 3.7875C24.2875 3.0625 23.525 2.5125 22.6625 2.375L21.8 2.2375C21.6125 2.2125 21.4375 2.125 21.3125 1.9875L20.6875 1.375C20.0875 0.787503 19.2375 0.500003 18.4 0.637503L17.5375 0.775003C17.35 0.800003 17.1625 0.775003 16.9875 0.687503L16.2125 0.300003C15.4625 -0.074997 14.5625 -0.074997 13.8125 0.300003L13.0375 0.687503C12.8625 0.775003 12.675 0.800003 12.4875 0.775003L11.625 0.637503C10.7875 0.512503 9.9375 0.787503 9.3375 1.375L8.7125 1.9875C8.575 2.125 8.4125 2.2125 8.225 2.2375L7.3625 2.375C6.5 2.5125 5.7375 3.05 5.3625 3.7875L4.9625 4.5625C4.875 4.725 4.7375 4.8625 4.575 4.95L3.8 5.35C3.075 5.725 2.525 6.4875 2.3875 7.35L2.25 8.2125C2.225 8.4 2.1375 8.575 2 8.7L1.3875 9.325C0.8 9.925 0.5125 10.775 0.65 11.6125L0.7875 12.475C0.8125 12.6625 0.7875 12.85 0.7 13.025L0.3125 13.8C-0.0625 14.55 -0.0625 15.45 0.3125 16.2L0.7 16.975C0.7875 17.15 0.8125 17.3375 0.7875 17.525L0.65 18.3875C0.525 19.225 0.8 20.075 1.3875 20.675L2 21.3C2.1375 21.4375 2.225 21.6 2.25 21.7875L2.3875 22.65C2.525 23.5125 3.0625 24.275 3.8 24.65L4.575 25.05C4.75 25.1375 4.875 25.275 4.9625 25.4375L5.3625 26.2125C5.7375 26.9375 6.5 27.4875 7.3625 27.625L8.225 27.7625C8.4125 27.7875 8.5875 27.875 8.7125 28.0125L9.3375 28.625C9.9375 29.2125 10.7875 29.5 11.625 29.3625L12.4875 29.225C12.675 29.2 12.8625 29.225 13.0375 29.3125L13.8125 29.7C14.1875 29.8875 14.6 29.9875 15.0125 29.9875C15.425 29.9875 15.8375 29.8875 16.2125 29.7L16.9875 29.3125C17.1625 29.225 17.35 29.2 17.5375 29.225L18.4 29.3625C19.2375 29.4875 20.0875 29.2125 20.6875 28.625L21.3125 28.0125C21.45 27.875 21.6125 27.7875 21.8 27.7625L22.6625 27.625C23.4875 27.4875 24.2 26.975 24.5875 26.2375L25.0375 25.4875C25.0375 25.4875 25.05 25.4625 25.0625 25.4375C25.15 25.2625 25.2875 25.1375 25.45 25.05L26.225 24.65C26.975 24.2625 27.5 23.5375 27.6375 22.7125L27.775 21.85C27.8 21.6625 27.8875 21.4875 28.025 21.3625L28.65 20.675C29.2375 20.075 29.5 19.2375 29.375 18.4125L29.2375 17.55C29.2125 17.3625 29.2375 17.175 29.325 17L29.725 16.225L29.7125 16.2Z" fill="#FCC8FF"/>
<path d="M13.6079 7.692L14.0519 7.176H9.22794L4.43994 12.696H9.29994L13.6079 7.692Z" fill="#AE00B9"/>
<path d="M19.824 13.572H19.032H15.72H10.176L14.976 24.108L15 24.18L19.572 14.124L19.824 13.572Z" fill="#AE00B9"/>
<path d="M10.4519 12.696H19.5479L17.0759 9.816L14.9999 7.404L11.8679 11.052L10.4519 12.696Z" fill="#AE00B9"/>
<path d="M4.5 13.572L13.548 23.088L9.228 13.572H4.5Z" fill="#AE00B9"/>
<path d="M15.96 7.176L20.7 12.696H25.56L20.772 7.176H15.96Z" fill="#AE00B9"/>
<path d="M16.4639 23.076L25.4999 13.572H20.7839L16.4639 23.076Z" fill="#AE00B9"/>
</g>
<defs>
<clipPath id="clip0_31275_2344">
<rect width="30" height="30" fill="white"/>
</clipPath>
</defs>
</svg>
