<svg width="20" height="20" viewBox="0 0 20 20" fill="none" xmlns="http://www.w3.org/2000/svg">
<path d="M18.3778 9.66142C18.1892 9.47285 17.9985 9.28499 17.8092 9.09713C17.4007 8.69356 16.9778 8.2757 16.5735 7.85285C16.3757 7.64499 16.2264 7.55285 16.0907 7.55285C16.0907 7.55285 16.0885 7.55285 16.0871 7.55285C15.9521 7.55428 15.8071 7.64856 15.6164 7.85713C15.3771 8.11927 15.3785 8.30785 15.6214 8.55285C15.7692 8.70213 15.9171 8.85213 16.0707 9.00856L16.4692 9.41285H16.2535C15.9935 9.41285 15.7371 9.41427 15.4821 9.4157C14.8828 9.41927 14.3128 9.42213 13.7335 9.40713C13.4628 9.39927 13.285 9.44142 13.1885 9.53999C13.0935 9.63785 13.0542 9.80927 13.0678 10.08C13.0857 10.4386 13.2307 10.585 13.5685 10.585H16.3242L16.4007 10.73L16.3514 10.7786C16.2914 10.8364 16.2328 10.8957 16.1735 10.955C16.0442 11.0836 15.9107 11.2164 15.7714 11.3407C15.5721 11.5171 15.4792 11.6628 15.4785 11.7978C15.4778 11.9328 15.5714 12.0828 15.7742 12.2671C16.0564 12.525 16.2385 12.525 16.4957 12.2671C17.1228 11.6428 17.7485 11.0171 18.3742 10.3921C18.6357 10.1307 18.6371 9.91927 18.3778 9.66142Z" fill="#130F40"/>
<path d="M6.43067 9.41285H3.52924L3.92424 9.01499C4.10138 8.83713 4.26924 8.66927 4.43352 8.49785C4.61281 8.31142 4.61424 8.10356 4.43781 7.91285C4.35281 7.8207 4.2721 7.7407 4.19138 7.66785C4.09995 7.58499 3.99924 7.54356 3.90067 7.54356C3.80495 7.54356 3.71138 7.58356 3.62995 7.66356C2.94995 8.33285 2.24995 9.03142 1.54852 9.74285C1.38424 9.90999 1.3871 10.1357 1.55567 10.3178C1.61924 10.3871 1.68638 10.4521 1.75352 10.5186L2.30638 11.07C2.72067 11.4843 3.13567 11.8993 3.55138 12.3121C3.75138 12.51 3.96567 12.5114 4.17424 12.3171C4.24638 12.2486 4.31781 12.1786 4.38567 12.1057C4.57424 11.9043 4.57281 11.6936 4.38138 11.4957C4.2471 11.3578 4.11067 11.2214 3.97352 11.0857L3.76138 10.8736C3.73638 10.8493 3.7121 10.8228 3.68067 10.7893L3.49281 10.585H3.69995C3.96495 10.585 4.22638 10.5836 4.48495 10.5821C5.09781 10.5786 5.6771 10.5764 6.26567 10.5907C6.53924 10.5928 6.71352 10.5536 6.81281 10.4521C6.91067 10.3514 6.95067 10.1771 6.93567 9.91856C6.91567 9.55999 6.76924 9.41356 6.43067 9.41285Z" fill="#130F40"/>
<path d="M10.2985 1.57856C10.0964 1.37856 9.86995 1.37856 9.6621 1.57927C9.54281 1.69499 9.42495 1.81356 9.30781 1.93142L8.66638 2.57285C8.33995 2.89785 8.01424 3.22356 7.68995 3.5507C7.48924 3.75356 7.48995 3.96142 7.69067 4.1707C7.75567 4.23856 7.82281 4.3057 7.89138 4.37142C8.09352 4.56499 8.31567 4.56427 8.51638 4.36927C8.6371 4.25213 8.75638 4.13213 8.87567 4.01213L9.41567 3.47356V4.57427C9.41567 5.20213 9.41567 5.8307 9.41424 6.45856C9.41424 6.64285 9.45781 6.75642 9.5521 6.81499C9.64781 6.87427 9.78352 6.91499 9.93495 6.92927C10.1864 6.95285 10.3585 6.91999 10.4564 6.82785C10.5578 6.73285 10.6021 6.55927 10.595 6.2807C10.5807 5.69785 10.5835 5.12499 10.5871 4.51713C10.5885 4.25856 10.59 3.99713 10.59 3.73142V3.51427L11.0014 3.92499C11.1735 4.09856 11.3371 4.26213 11.5021 4.42285C11.6935 4.60785 11.9042 4.60999 12.1 4.42999C12.1771 4.35856 12.2507 4.28356 12.3228 4.20785C12.5121 4.0057 12.5114 3.78927 12.3207 3.59785C11.6485 2.92285 10.9757 2.24928 10.2985 1.57856Z" fill="#130F40"/>
<path d="M12.2364 15.7043L12.2 15.6678C12.045 15.5114 11.9185 15.4386 11.8042 15.4386C11.6907 15.4386 11.565 15.51 11.4121 15.6636L10.59 16.485V16.0593C10.59 15.8271 10.5885 15.5957 10.5871 15.3636C10.5835 14.8321 10.58 14.2828 10.595 13.7414C10.6028 13.4578 10.56 13.28 10.4592 13.1814C10.3607 13.085 10.19 13.0471 9.91924 13.0614C9.5671 13.08 9.41638 13.2321 9.41638 13.57V16.505L9.20924 16.3143C9.17281 16.2807 9.14495 16.255 9.11852 16.2286C9.04424 16.155 8.97067 16.0807 8.89638 16.0057C8.76852 15.8764 8.63995 15.7478 8.50924 15.6214C8.41495 15.53 8.30995 15.4843 8.20495 15.4843C8.09924 15.4843 7.99353 15.5307 7.89638 15.6228C7.82424 15.6914 7.75352 15.7621 7.68424 15.8343C7.49781 16.0307 7.49495 16.2478 7.67567 16.4307C8.3421 17.1028 9.01138 17.7714 9.68495 18.4371C9.8671 18.6178 10.1021 18.6171 10.2828 18.4378C10.9721 17.7557 11.6564 17.0714 12.3385 16.3828C12.5085 16.2121 12.5092 15.9978 12.3407 15.8093C12.3064 15.7728 12.2721 15.7386 12.2364 15.7043Z" fill="#130F40"/>
<path d="M9.99638 11.2607C9.99924 11.2607 10.0028 11.2607 10.0057 11.2607C10.69 11.2607 11.2542 10.7028 11.2657 10.0128C11.2714 9.68356 11.1435 9.36785 10.9057 9.12427C10.665 8.87785 10.3464 8.73999 10.0085 8.73713C10.0057 8.73713 10.0021 8.73713 9.99924 8.73713C9.66995 8.73713 9.35638 8.86856 9.11638 9.10785C8.87281 9.34999 8.73924 9.66713 8.73995 10.0007C8.74067 10.6907 9.30495 11.2557 9.99638 11.2607Z" fill="#130F40"/>
</svg>
