<svg width="100" height="100" viewBox="0 0 100 100" fill="none" xmlns="http://www.w3.org/2000/svg">
<g clip-path="url(#clip0_28390_56198)">
<rect width="100" height="100" rx="20" fill="#48FF91"/>
<path d="M292 29.2283C276.592 37.4347 260.914 35.2088 245.134 30.5435C234.207 27.3172 223.336 23.6636 211.768 23.6636C190.362 23.6636 171.247 31.2742 152.964 41.6503C131.198 54.0048 110.522 68.2817 87.4208 78.2755C66.4642 87.3475 44.7888 92.1477 21.8893 90.1355C14.4208 89.4834 7.15449 87.7073 0.0117188 85.4364V0H292.012V29.2283H292Z" fill="url(#paint0_linear_28390_56198)"/>
<path d="M99.9962 10.002C94.7192 12.8102 89.35 12.0485 83.9462 10.4521C80.2038 9.34799 76.4808 8.09775 72.5192 8.09775C65.1885 8.09775 58.6423 10.7021 52.3808 14.2528C44.9269 18.4806 37.8462 23.3661 29.9346 26.786C22.7577 29.8905 15.3346 31.5331 7.49231 30.8445C4.93462 30.6214 2.44615 30.0136 0 29.2365V0H100V10.002H99.9962Z" fill="url(#paint1_linear_28390_56198)"/>
<path d="M142.715 52.0126C136.353 50.1278 130.017 48 123.283 48C110.82 48 99.6985 52.4395 89.0473 58.5076C76.3758 65.725 64.3385 74.0588 50.8888 79.8971C38.6881 85.1968 26.0688 88.0011 12.7369 86.8255C8.38885 86.4446 4.15846 85.407 0 84.0804V203H27.6642C28.0892 193.832 32.555 186.884 40.1788 181.847C48.7835 176.16 58.6042 174.36 68.6473 173.395C79.2331 172.384 89.9365 172.068 100.208 168.903C112.586 165.087 120.648 156.642 125.722 144.893C128.919 137.485 132.168 129.867 138.308 124.456C147.259 116.569 157.845 112.385 170 112.983V51.2442C161.029 56.0383 151.895 54.738 142.715 52.0126Z" fill="url(#paint2_linear_28390_56198)"/>
<path d="M18.697 46.0959C18.7882 41.8215 18.8635 38.2899 19.3611 35.428L25.9195 38.803C25.6259 38.6993 25.4003 38.6908 25.1968 38.803C24.7685 39.0391 24.7403 39.6305 24.6839 40.8132C24.6079 42.4072 24.5667 44.2552 24.52 46.4401C24.4596 49.2678 24.4597 50.7305 24.5201 53.5585C24.6172 58.1085 24.6909 61.1973 25.1042 63.5744C25.4934 65.8126 26.1427 67.1426 27.2535 68.2562C28.3527 69.3581 29.7007 70.0187 32.0144 70.4212C34.4592 70.8465 37.6477 70.9337 42.323 71.0512C47.9297 71.1918 52.0702 71.1918 57.6769 71.0509C62.352 70.9337 65.5408 70.8465 67.9855 70.4212C70.299 70.0187 71.6471 69.3581 72.7464 68.2562C73.8571 67.1426 74.5066 65.8126 74.8957 63.5744C75.309 61.1973 75.3828 58.1082 75.4799 53.5582C75.5403 50.7305 75.5403 49.2678 75.4799 46.4401C75.4332 44.2549 75.3918 42.4067 75.316 40.8126C75.2594 39.6298 75.2311 39.0385 74.803 38.8024C74.5991 38.69 74.373 38.6987 74.0785 38.803L80.6386 35.428C81.1362 38.2898 81.2118 41.8217 81.3027 46.0959L81.3074 46.3159C81.3695 49.2264 81.3695 50.7719 81.3074 53.6825L81.3027 53.9024C81.2118 58.1768 81.1365 61.7086 80.6386 64.5704C80.1087 67.6198 79.0619 70.1733 76.8758 72.3649C74.6784 74.5679 72.084 75.6176 68.9857 76.1566C66.0661 76.6644 62.4439 76.7551 58.0415 76.8656L57.8233 76.8709C52.1189 77.0141 47.881 77.0141 42.1766 76.8712L41.9583 76.8656C37.556 76.7551 33.9338 76.6644 31.0143 76.1566C27.9158 75.6176 25.3214 74.5679 23.1239 72.3649C20.938 70.1733 19.8914 67.6201 19.3611 64.5704C18.8635 61.7086 18.7882 58.1768 18.6971 53.9024L18.6924 53.6825C18.6302 50.7719 18.6302 49.2264 18.6923 46.3159L18.697 46.0959Z" fill="white"/>
<path d="M42.179 23.1281C47.8833 22.985 52.1215 22.985 57.8256 23.1281L58.0441 23.1336C62.4462 23.2439 66.0684 23.3347 68.988 23.8425C70.0681 24.0304 71.0866 24.2803 72.0488 24.6194C72.3043 24.6795 72.5498 24.7738 72.7785 24.8988C74.2832 25.5224 75.6436 26.3961 76.8785 27.6341C79.0642 29.8256 80.111 32.3792 80.6413 35.4287L74.0808 38.8037C73.7568 38.9185 73.3496 39.1493 72.7978 39.4619L60.4433 46.462C56.6528 48.6098 53.4468 49.9999 50.0017 49.9999C46.5565 49.9999 43.3508 48.6098 39.5603 46.462L27.207 39.4625C26.6542 39.1493 26.2465 38.9183 25.922 38.8037L19.3635 35.4287C19.8938 32.3792 20.9404 29.8256 23.1263 27.6341C25.3238 25.4311 27.9182 24.3815 31.0167 23.8425C33.9362 23.3347 37.5584 23.2439 41.9607 23.1336L42.179 23.1281Z" fill="url(#paint3_linear_28390_56198)"/>
</g>
<defs>
<linearGradient id="paint0_linear_28390_56198" x1="159.466" y1="83.8514" x2="131.228" y2="-2.22092" gradientUnits="userSpaceOnUse">
<stop stop-color="#F7CB26"/>
<stop offset="1" stop-color="#F79826"/>
</linearGradient>
<linearGradient id="paint1_linear_28390_56198" x1="54.6077" y1="28.6941" x2="44.9504" y2="-0.764411" gradientUnits="userSpaceOnUse">
<stop stop-color="#F7CB26"/>
<stop offset="1" stop-color="#F79826"/>
</linearGradient>
<linearGradient id="paint2_linear_28390_56198" x1="92.8331" y1="191.471" x2="11.3262" y2="106.937" gradientUnits="userSpaceOnUse">
<stop stop-color="#F7CB26"/>
<stop offset="1" stop-color="#F79826"/>
</linearGradient>
<linearGradient id="paint3_linear_28390_56198" x1="50.0024" y1="23.0208" x2="50.0024" y2="49.9999" gradientUnits="userSpaceOnUse">
<stop stop-color="white"/>
<stop offset="1" stop-color="white" stop-opacity="0.7"/>
</linearGradient>
<clipPath id="clip0_28390_56198">
<rect width="100" height="100" rx="20" fill="white"/>
</clipPath>
</defs>
</svg>
