<svg width="28" height="28" viewBox="0 0 28 28" fill="none" xmlns="http://www.w3.org/2000/svg">
<rect width="28" height="28" rx="6" fill="#479CFF"/>
<path d="M22.5648 11.8264C22.5561 11.124 22.1399 10.4909 21.5068 10.2307C21.212 10.1007 20.8997 10.1093 20.6309 10.118H20.5442C20.5355 10.118 20.5268 10.118 20.5268 10.118C20.5182 10.1093 20.5182 10.1007 20.5095 10.092C20.0585 9.20742 19.4515 8.41825 18.7317 7.7765C18.6363 7.68978 18.5409 7.60306 18.4455 7.54235C18.2547 7.38625 18.0553 7.23883 17.8558 7.10007C17.7517 7.03936 17.6477 6.96999 17.5436 6.90928C17.3268 6.78787 17.11 6.67513 16.8845 6.57106C16.6677 6.45832 16.4335 6.3716 16.1994 6.30222C16.1127 6.26753 16.0173 6.24152 15.9219 6.2155C15.7398 6.16347 15.5576 6.12011 15.3755 6.08542C15.1674 6.04206 14.9593 6.00737 14.7425 5.98135C14.7338 5.99002 14.7251 5.98135 14.7164 5.98135C14.5083 5.96401 14.2915 5.94666 14.0747 5.93799H13.9793C13.8405 5.93799 13.6931 5.94666 13.5544 5.95533C12.1928 6.03338 10.9353 6.51036 9.85998 7.27351C9.83397 7.29086 9.81662 7.3082 9.79061 7.32555C9.61716 7.44696 9.45239 7.58572 9.29629 7.72447C9.19222 7.81119 9.08815 7.89792 8.99276 8.00198C8.36836 8.60904 7.83068 9.32884 7.43175 10.1267H7.42308H7.22362C7.15424 10.118 7.07619 10.1093 7.00681 10.118C6.93744 10.118 6.85939 10.1267 6.79868 10.1354C6.26967 10.1961 5.80137 10.5603 5.57589 11.072C5.4805 11.2974 5.42847 11.5403 5.42847 11.7831V16.1365C5.42847 16.336 5.45448 16.5268 5.52386 16.7176C5.74067 17.3593 6.32171 17.8016 6.95478 17.8016C7.05885 17.8103 7.17159 17.8103 7.31902 17.8016H7.39707C7.87404 18.7816 8.5418 19.6401 9.34832 20.3166C9.60849 20.5507 9.87733 20.7502 10.1635 20.9323C10.3023 21.0277 10.4497 21.1057 10.5971 21.1925C10.7532 21.2792 10.918 21.3572 11.0741 21.4353C11.3603 21.5654 11.6551 21.6781 11.9587 21.7648C11.9673 21.7735 11.976 21.7735 11.9847 21.7735C12.1148 21.8169 12.2448 21.8516 12.3749 21.8776C12.8953 22.0077 13.4243 22.0684 13.9706 22.0684C14.3262 22.0684 14.6904 22.0423 15.046 21.9816C15.1934 21.9556 15.3495 21.9296 15.4883 21.9036C15.627 21.8689 15.7571 21.8342 15.8872 21.7995C16.13 21.7301 16.3555 21.6608 16.581 21.5654C16.685 21.522 16.7891 21.4786 16.8845 21.4353C17.6737 21.0971 18.3761 20.6028 19.0005 19.9697C19.0873 19.883 19.174 19.7962 19.2607 19.7008C19.3908 19.5621 19.5122 19.4147 19.6336 19.2586C19.9545 18.8596 20.2407 18.426 20.4835 17.9577C20.5875 17.819 20.7003 17.7843 20.8997 17.7843H20.9258C21.3594 17.7843 21.767 17.6195 22.0618 17.316C22.3827 16.9951 22.5561 16.5528 22.5648 16.0758C22.5735 14.827 22.5735 13.4742 22.5648 11.8264ZM16.4162 17.5935H15.1587L13.9966 13.6129L12.8259 17.5935H11.5684L9.71255 10.9332H11.2909L11.3082 10.9679L12.2709 14.5148L13.4243 10.9332H14.5603L15.7137 14.5148L16.6937 10.9332H18.2807L18.2721 10.9852L16.4162 17.5935Z" fill="#FBF2FB"/>
</svg>
