<svg width="30" height="30" viewBox="0 0 30 30" fill="none" xmlns="http://www.w3.org/2000/svg">
<g clip-path="url(#clip0_28375_56033)">
<path d="M28.3901 24.66C28.2501 24.56 28.1001 24.47 27.9501 24.39C27.8001 24.3 27.6401 24.21 27.4901 24.11C26.9201 23.7 26.5801 23.09 26.5801 22.42C26.5801 21.75 26.9101 21.14 27.4801 20.74C27.6301 20.63 27.7901 20.53 27.9501 20.44C28.0901 20.36 28.2401 20.28 28.3801 20.18C29.9301 19.14 30.4601 17.18 29.6201 15.53C29.2101 14.73 28.7601 13.94 28.2601 13.19C27.5901 12.18 26.4801 11.57 25.2901 11.57C24.7301 11.57 24.1901 11.7 23.6701 11.95C23.5101 12.03 23.3601 12.11 23.2101 12.2C23.0401 12.3 22.8601 12.4 22.6801 12.48C22.4001 12.6 22.1001 12.67 21.8101 12.67C20.7501 12.67 19.9001 11.89 19.7901 10.81C19.7701 10.63 19.7701 10.44 19.7701 10.24C19.7701 10.13 19.7801 10.02 19.7701 9.91C19.7201 7.9 18.1701 6.36 16.1601 6.32C15.7401 6.31 15.3401 6.31 14.9601 6.31C14.5601 6.31 14.1801 6.31 13.8101 6.32C11.8401 6.37 10.3201 7.91 10.2601 9.89V10.67C10.2001 11.81 9.33011 12.67 8.23011 12.67C7.90011 12.67 7.57011 12.59 7.25011 12.43C7.13011 12.37 7.01011 12.3 6.88011 12.22L6.71011 12.13C6.05011 11.76 5.38011 11.57 4.72011 11.57C3.45011 11.57 2.31011 12.27 1.59011 13.48C1.23011 14.08 0.84011 14.72 0.49011 15.39C-0.47989 17.19 0.0701098 19.21 1.82011 20.29C1.91011 20.35 2.01011 20.4 2.12011 20.46C2.27011 20.55 2.41011 20.63 2.54011 20.72C3.12011 21.13 3.45011 21.74 3.45011 22.41C3.45011 23.08 3.13011 23.69 2.56011 24.1C2.42011 24.19 2.27011 24.28 2.11011 24.38C1.98011 24.45 1.85011 24.53 1.72011 24.61C0.44011 25.45 -0.12989 26.58 0.0701099 27.87C0.18011 28.63 0.40011 29.34 0.71011 30H29.2501C29.3801 29.77 29.5001 29.55 29.6101 29.32C30.4601 27.67 29.9401 25.71 28.3901 24.66ZM14.9801 27.68H14.8801C12.0701 27.63 9.73011 25.22 9.75011 22.4C9.78011 19.46 12.1201 17.16 15.0801 17.15H15.1901C17.9901 17.21 20.3201 19.64 20.2801 22.46C20.2401 25.39 17.9101 27.68 14.9801 27.68Z" fill="#E7B3EA"/>
<path d="M15.146 22.235C12.591 22.235 10.036 22.235 7.48201 22.235C5.57601 22.235 4.03101 20.69 4.03101 18.784C4.03101 13.679 4.03101 8.575 4.03101 3.47C4.03101 1.554 5.58401 0 7.50101 0C12.6 0 17.699 0 22.798 0C24.713 0 26.266 1.553 26.266 3.468C26.266 8.575 26.266 13.681 26.266 18.788C26.266 20.692 24.722 22.235 22.819 22.235C20.261 22.235 17.704 22.235 15.146 22.235Z" fill="#AE00B9"/>
<path d="M7.45109 6.69C7.45109 5.901 7.44909 5.111 7.45209 4.322C7.45409 3.757 7.78509 3.422 8.34509 3.421C9.95009 3.419 11.5541 3.419 13.1591 3.421C13.7001 3.422 14.0401 3.763 14.0411 4.308C14.0431 5.913 14.0431 7.517 14.0411 9.122C14.0401 9.669 13.7031 10.01 13.1601 10.01C11.5471 10.013 9.93409 10.013 8.32109 10.01C7.79609 10.009 7.45509 9.663 7.45209 9.135C7.44909 8.321 7.45109 7.506 7.45109 6.69Z" fill="white"/>
<path d="M16.2541 6.69C16.2541 5.901 16.2521 5.111 16.2551 4.322C16.2571 3.757 16.5881 3.422 17.1481 3.421C18.7531 3.419 20.3571 3.419 21.9621 3.421C22.5031 3.422 22.8431 3.763 22.8441 4.308C22.8461 5.913 22.8461 7.517 22.8441 9.122C22.8431 9.669 22.5061 10.01 21.9631 10.01C20.3501 10.013 18.7371 10.013 17.1241 10.01C16.5991 10.009 16.2581 9.663 16.2551 9.135C16.2521 8.321 16.2541 7.506 16.2541 6.69Z" fill="white"/>
<path d="M7.45109 15.493C7.45109 14.704 7.44909 13.914 7.45209 13.125C7.45409 12.56 7.78509 12.225 8.34509 12.224C9.95009 12.222 11.5541 12.222 13.1591 12.224C13.7001 12.225 14.0401 12.566 14.0411 13.111C14.0431 14.716 14.0431 16.32 14.0411 17.925C14.0401 18.472 13.7031 18.813 13.1601 18.813C11.5471 18.816 9.93409 18.816 8.32109 18.813C7.79609 18.812 7.45509 18.466 7.45209 17.938C7.44909 17.123 7.45109 16.308 7.45109 15.493Z" fill="white"/>
<path d="M16.2541 15.493C16.2541 14.704 16.2521 13.914 16.2551 13.125C16.2571 12.56 16.5881 12.225 17.1481 12.224C18.7531 12.222 20.3571 12.222 21.9621 12.224C22.5031 12.225 22.8431 12.566 22.8441 13.111C22.8461 14.716 22.8461 16.32 22.8441 17.925C22.8431 18.472 22.5061 18.813 21.9631 18.813C20.3501 18.816 18.7371 18.816 17.1241 18.813C16.5991 18.812 16.2581 18.466 16.2551 17.938C16.2521 17.123 16.2541 16.308 16.2541 15.493Z" fill="white"/>
</g>
<defs>
<clipPath id="clip0_28375_56033">
<rect width="30" height="30" fill="white"/>
</clipPath>
</defs>
</svg>
