<svg width="24" height="24" viewBox="0 0 24 24" fill="none" xmlns="http://www.w3.org/2000/svg">
<path d="M18.5541 8.75202C17.8577 7.78816 16.5626 6.63916 14.3477 6.63916C12.6996 6.63916 11.2547 7.30709 10.1689 8.57095C10.0406 8.7203 9.92443 8.87009 9.81986 9.01623C9.71936 8.87223 9.60771 8.72502 9.48407 8.57802C8.41886 7.30966 6.98271 6.63937 5.331 6.63937C3.82693 6.63937 2.45271 7.25287 1.46143 8.36695C0.519 9.42595 0 10.8426 0 12.3559C0 15.4973 2.23693 17.2637 5.62264 19.9373C6.717 20.8013 7.95728 21.7808 9.30043 22.9448C9.45493 23.0787 9.64714 23.1458 9.83914 23.1458C10.0311 23.1458 10.2234 23.0787 10.3779 22.9448C11.7274 21.7752 12.9838 20.7889 14.0921 19.9187C15.7802 18.5933 17.1137 17.5463 18.0902 16.4189C19.2114 15.1244 19.7334 13.8334 19.7334 12.3559C19.7336 11.1214 19.2928 9.77416 18.5541 8.75202Z" fill="url(#paint0_linear_606_597)"/>
<path d="M23.1649 1.32664C22.7276 0.7215 21.9144 0 20.5237 0C19.4889 0 18.5816 0.419357 17.8997 1.21286C17.8192 1.30671 17.7463 1.40057 17.6805 1.4925C17.6173 1.40207 17.5472 1.3095 17.4697 1.21736C16.8009 0.421071 15.8989 0 14.8618 0C13.9174 0 13.0545 0.385286 12.432 1.08471C11.8404 1.74964 11.5144 2.63936 11.5144 3.5895C11.5144 5.562 12.9191 6.67114 15.045 8.34986C15.7322 8.89243 16.5109 9.50743 17.3544 10.2384C17.4514 10.3226 17.5721 10.3646 17.6927 10.3646C17.8134 10.3646 17.934 10.3226 18.0311 10.2384C18.8784 9.504 19.6674 8.88471 20.3634 8.33829C21.4234 7.506 22.2607 6.84879 22.8737 6.14079C23.5777 5.328 23.9055 4.51736 23.9055 3.5895C23.9055 2.81443 23.6287 1.96843 23.1649 1.32664Z" fill="url(#paint1_linear_606_597)"/>
<path d="M7.89151 18.2149C7.61829 17.8367 7.11001 17.3859 6.24086 17.3859C5.59415 17.3859 5.02715 17.6479 4.60093 18.144C4.55058 18.2027 4.50493 18.2614 4.464 18.3186C4.42458 18.2621 4.38065 18.2044 4.33222 18.1466C3.91415 17.6488 3.35058 17.3859 2.70236 17.3859C2.11222 17.3859 1.57286 17.6267 1.18372 18.0639C0.813862 18.4796 0.610291 19.0354 0.610291 19.6292C0.610291 20.862 1.488 21.5552 2.81679 22.6044C3.24622 22.9434 3.73308 23.3278 4.26 23.7846C4.32065 23.8372 4.39608 23.8635 4.4715 23.8635C4.54693 23.8635 4.62215 23.8372 4.683 23.7846C5.2125 23.3257 5.70558 22.9387 6.14058 22.5971C6.80315 22.077 7.32643 21.6662 7.70958 21.2237C8.14951 20.7156 8.35436 20.2091 8.35436 19.6292C8.35436 19.1447 8.18143 18.6161 7.89151 18.2149Z" fill="url(#paint2_linear_606_597)"/>
<path d="M2.2695 11.5855C2.16536 11.5855 2.08093 11.5011 2.08093 11.397C2.08093 9.66747 3.48793 8.26025 5.21765 8.26025C5.32179 8.26025 5.40622 8.34468 5.40622 8.44883C5.40622 8.55297 5.32179 8.6374 5.21765 8.6374C3.69622 8.6374 2.45829 9.87533 2.45829 11.3968C2.45808 11.5011 2.37365 11.5855 2.2695 11.5855Z" fill="url(#paint3_linear_606_597)"/>
<defs>
<linearGradient id="paint0_linear_606_597" x1="9.86687" y1="23.1457" x2="9.86687" y2="6.63929" gradientUnits="userSpaceOnUse">
<stop stop-color="#FE0002"/>
<stop offset="1" stop-color="#FF6457"/>
</linearGradient>
<linearGradient id="paint1_linear_606_597" x1="17.7102" y1="10.3646" x2="17.7102" y2="0.000107492" gradientUnits="userSpaceOnUse">
<stop stop-color="#FFBFD8"/>
<stop offset="1" stop-color="#FFE5E2"/>
</linearGradient>
<linearGradient id="paint2_linear_606_597" x1="4.48248" y1="23.8634" x2="4.48248" y2="17.3858" gradientUnits="userSpaceOnUse">
<stop stop-color="#FFBFD8"/>
<stop offset="1" stop-color="#FFE5E2"/>
</linearGradient>
<linearGradient id="paint3_linear_606_597" x1="2.08085" y1="9.92298" x2="5.40613" y2="9.92298" gradientUnits="userSpaceOnUse">
<stop stop-color="#FFBFD8"/>
<stop offset="1" stop-color="#FFE5E2"/>
</linearGradient>
</defs>
</svg>
