<svg width="30" height="30" viewBox="0 0 30 30" fill="none" xmlns="http://www.w3.org/2000/svg">
<g clip-path="url(#clip0_28375_56032)">
<path d="M28.374 24.66C28.234 24.56 28.084 24.47 27.934 24.39C27.784 24.3 27.624 24.21 27.474 24.11C26.904 23.7 26.564 23.09 26.564 22.42C26.564 21.75 26.894 21.14 27.464 20.74C27.614 20.63 27.774 20.53 27.934 20.44C28.074 20.36 28.224 20.28 28.364 20.18C29.914 19.14 30.444 17.18 29.604 15.53C29.194 14.73 28.744 13.94 28.244 13.19C27.574 12.18 26.464 11.57 25.274 11.57C24.714 11.57 24.174 11.7 23.654 11.95C23.494 12.03 23.344 12.11 23.194 12.2C23.024 12.3 22.844 12.4 22.664 12.48C22.384 12.6 22.084 12.67 21.794 12.67C20.734 12.67 19.884 11.89 19.774 10.81C19.754 10.63 19.754 10.44 19.754 10.24C19.754 10.13 19.764 10.02 19.754 9.91C19.704 7.9 18.154 6.36 16.144 6.32C15.724 6.31 15.324 6.31 14.944 6.31C14.544 6.31 14.164 6.31 13.794 6.32C11.824 6.37 10.304 7.91 10.244 9.89V10.67C10.184 11.81 9.314 12.67 8.214 12.67C7.884 12.67 7.554 12.59 7.234 12.43C7.114 12.37 6.994 12.3 6.864 12.22L6.694 12.13C6.034 11.76 5.364 11.57 4.704 11.57C3.434 11.57 2.294 12.27 1.574 13.48C1.214 14.08 0.823997 14.72 0.473997 15.39C-0.496003 17.19 0.0539966 19.21 1.804 20.29C1.894 20.35 1.994 20.4 2.104 20.46C2.254 20.55 2.394 20.63 2.524 20.72C3.104 21.13 3.434 21.74 3.434 22.41C3.434 23.08 3.114 23.69 2.544 24.1C2.404 24.19 2.254 24.28 2.094 24.38C1.964 24.45 1.834 24.53 1.704 24.61C0.423997 25.45 -0.146003 26.58 0.0539966 27.87C0.163997 28.63 0.383997 29.34 0.693997 30H1.814C1.424 29.32 1.164 28.55 1.034 27.72C0.903997 26.82 1.304 26.08 2.254 25.45C2.364 25.37 2.474 25.31 2.594 25.24C2.784 25.13 2.964 25.03 3.124 24.91C3.964 24.32 4.444 23.41 4.434 22.41C4.434 21.41 3.944 20.49 3.094 19.9C2.944 19.8 2.784 19.7 2.594 19.6C2.494 19.54 2.414 19.49 2.334 19.44C1.034 18.64 0.643997 17.2 1.354 15.86C1.694 15.22 2.074 14.58 2.424 13.99C2.974 13.09 3.794 12.57 4.704 12.57C5.194 12.57 5.694 12.72 6.194 12.99L6.364 13.09C6.514 13.18 6.654 13.26 6.794 13.33C7.244 13.55 7.724 13.67 8.214 13.67C9.854 13.67 11.154 12.4 11.244 10.71V9.92C11.284 8.47 12.394 7.36 13.824 7.32C14.174 7.31 14.554 7.31 14.944 7.31C15.324 7.31 15.714 7.31 16.124 7.32C17.584 7.35 18.714 8.47 18.754 9.93C18.764 10.03 18.754 10.13 18.754 10.24C18.754 10.45 18.754 10.67 18.784 10.91C18.944 12.51 20.214 13.67 21.794 13.67C22.224 13.67 22.654 13.57 23.074 13.39C23.284 13.3 23.484 13.18 23.694 13.07C23.824 12.99 23.954 12.92 24.094 12.85C24.474 12.67 24.874 12.57 25.274 12.57C26.134 12.57 26.924 13.01 27.404 13.74C27.884 14.46 28.324 15.22 28.714 15.99C29.314 17.18 28.934 18.59 27.804 19.35C27.684 19.43 27.554 19.51 27.434 19.58C27.254 19.68 27.054 19.8 26.884 19.92C26.044 20.51 25.564 21.42 25.564 22.42C25.564 23.42 26.054 24.34 26.904 24.93C27.074 25.04 27.254 25.15 27.434 25.26C27.564 25.33 27.694 25.4 27.814 25.49C28.944 26.25 29.314 27.67 28.704 28.86C28.514 29.24 28.304 29.62 28.084 30H29.234C29.364 29.77 29.484 29.55 29.594 29.32C30.444 27.67 29.924 25.71 28.374 24.66ZM15.194 16.15H15.064C11.554 16.15 8.774 18.89 8.734 22.39C8.704 25.74 11.504 28.62 14.844 28.68H14.954C18.444 28.68 21.224 25.95 21.264 22.48C21.314 19.11 18.534 16.22 15.194 16.15ZM14.964 27.68H14.864C12.054 27.63 9.714 25.22 9.734 22.4C9.764 19.46 12.104 17.16 15.064 17.15H15.174C17.974 17.21 20.304 19.64 20.264 22.46C20.224 25.39 17.894 27.68 14.964 27.68Z" fill="#B9B7C6"/>
<path d="M15.146 22.235C12.591 22.235 10.036 22.235 7.48201 22.235C5.57601 22.235 4.03101 20.69 4.03101 18.784C4.03101 13.679 4.03101 8.575 4.03101 3.47C4.03101 1.554 5.58401 0 7.50101 0C12.6 0 17.699 0 22.798 0C24.713 0 26.266 1.553 26.266 3.468C26.266 8.575 26.266 13.681 26.266 18.788C26.266 20.692 24.722 22.235 22.819 22.235C20.261 22.235 17.704 22.235 15.146 22.235Z" fill="#130F40"/>
<path d="M7.45109 6.69C7.45109 5.901 7.44909 5.111 7.45209 4.322C7.45409 3.757 7.78509 3.422 8.34509 3.421C9.95009 3.419 11.5541 3.419 13.1591 3.421C13.7001 3.422 14.0401 3.763 14.0411 4.308C14.0431 5.913 14.0431 7.517 14.0411 9.122C14.0401 9.669 13.7031 10.01 13.1601 10.01C11.5471 10.013 9.93409 10.013 8.32109 10.01C7.79609 10.009 7.45509 9.663 7.45209 9.135C7.44909 8.321 7.45109 7.506 7.45109 6.69Z" fill="white"/>
<path d="M16.2541 6.69C16.2541 5.901 16.2521 5.111 16.2551 4.322C16.2571 3.757 16.5881 3.422 17.1481 3.421C18.7531 3.419 20.3571 3.419 21.9621 3.421C22.5031 3.422 22.8431 3.763 22.8441 4.308C22.8461 5.913 22.8461 7.517 22.8441 9.122C22.8431 9.669 22.5061 10.01 21.9631 10.01C20.3501 10.013 18.7371 10.013 17.1241 10.01C16.5991 10.009 16.2581 9.663 16.2551 9.135C16.2521 8.321 16.2541 7.506 16.2541 6.69Z" fill="white"/>
<path d="M7.45109 15.493C7.45109 14.704 7.44909 13.914 7.45209 13.125C7.45409 12.56 7.78509 12.225 8.34509 12.224C9.95009 12.222 11.5541 12.222 13.1591 12.224C13.7001 12.225 14.0401 12.566 14.0411 13.111C14.0431 14.716 14.0431 16.32 14.0411 17.925C14.0401 18.472 13.7031 18.813 13.1601 18.813C11.5471 18.816 9.93409 18.816 8.32109 18.813C7.79609 18.812 7.45509 18.466 7.45209 17.938C7.44909 17.123 7.45109 16.308 7.45109 15.493Z" fill="white"/>
<path d="M16.2541 15.493C16.2541 14.704 16.2521 13.914 16.2551 13.125C16.2571 12.56 16.5881 12.225 17.1481 12.224C18.7531 12.222 20.3571 12.222 21.9621 12.224C22.5031 12.225 22.8431 12.566 22.8441 13.111C22.8461 14.716 22.8461 16.32 22.8441 17.925C22.8431 18.472 22.5061 18.813 21.9631 18.813C20.3501 18.816 18.7371 18.816 17.1241 18.813C16.5991 18.812 16.2581 18.466 16.2551 17.938C16.2521 17.123 16.2541 16.308 16.2541 15.493Z" fill="white"/>
</g>
<defs>
<clipPath id="clip0_28375_56032">
<rect width="30" height="30" fill="white"/>
</clipPath>
</defs>
</svg>
