<svg width="40" height="40" viewBox="0 0 40 40" fill="none" xmlns="http://www.w3.org/2000/svg">
<path d="M30.7988 18.692C30.0676 17.9197 29.3039 17.1774 28.5471 16.4308C28.2933 16.1806 27.9736 16.1171 27.6351 16.2166C26.9502 16.418 26.7351 17.2597 27.2373 17.7817C27.6033 18.1614 27.9848 18.5266 28.3593 18.8977C28.3533 18.9148 28.3465 18.9328 28.3405 18.95C28.2762 18.95 28.2111 18.95 28.1468 18.95C27.2099 18.95 26.2731 18.95 25.3362 18.95C24.8279 18.95 24.3188 18.9431 23.8105 18.9543C23.3571 18.9637 22.9868 19.2954 22.9191 19.7291C22.8231 20.3428 23.2568 20.8348 23.9073 20.8366C25.3328 20.84 26.7582 20.8374 28.1828 20.8374C28.2513 20.8374 28.3191 20.8374 28.4459 20.8374C28.0233 21.2574 27.6453 21.6251 27.2768 22.0023C26.8979 22.3897 26.8996 22.9631 27.2691 23.336C27.6385 23.7088 28.2171 23.7183 28.6028 23.3386C29.3322 22.6203 30.0616 21.902 30.7722 21.1648C31.4425 20.4697 31.4622 19.3931 30.7988 18.692Z" fill="#2B2754"/>
<path d="M26.0914 22.9657C25.4914 22.5371 24.6514 22.9314 24.5742 23.6771C24.5485 23.9343 24.5571 24.2343 24.4714 24.4743C24.1628 25.3057 23.7428 25.4686 22.7914 25.6829C22.5942 25.7257 22.3971 25.7514 22.1914 25.7771C22.0971 25.7857 21.9942 25.8029 21.8999 25.82C21.8571 25.8114 21.8228 25.7943 21.8142 25.7343C21.8142 25.6657 21.8057 25.5971 21.8142 25.5371C21.8228 25.3229 21.8314 25.1086 21.8399 24.8943C21.8485 24.68 21.8571 24.4571 21.8657 24.2429C21.8742 24.1057 21.8742 23.9686 21.8742 23.8314C21.9257 22.3314 21.9085 20.84 21.8742 19.34C21.8571 18.62 21.8485 17.9 21.7714 17.18C21.7714 17.1286 21.7628 17.0686 21.7542 17.0171C21.7371 16.82 21.7114 16.6143 21.6771 16.4171C21.6514 16.2629 21.6171 16.1 21.5828 15.9457C21.5485 15.8086 21.5142 15.6714 21.4714 15.5343C21.4285 15.3971 21.3857 15.2686 21.3342 15.1314C21.2828 15.0029 21.2314 14.8743 21.1714 14.7457C21.1114 14.6171 21.0428 14.4886 20.9742 14.36C20.9228 14.2657 20.8714 14.18 20.8199 14.0857C20.7685 14 20.7085 13.9143 20.6485 13.82C20.4771 13.5629 20.2714 13.3143 20.0485 13.0829C19.8171 12.8514 19.5514 12.6629 19.2771 12.5C19.1742 12.4486 19.0714 12.3886 18.9685 12.3371C18.7885 12.2343 18.5999 12.14 18.4114 12.0457C18.2314 11.9514 18.0342 11.8657 17.8285 11.7714C17.7599 11.7371 17.6999 11.7114 17.6314 11.6771C17.6999 11.6686 17.7257 11.66 17.7514 11.66C18.6857 11.6686 19.6199 11.6429 20.5542 11.6771C20.5628 11.6686 20.5714 11.6686 20.5799 11.6771C21.2057 11.72 21.8314 11.7886 22.4571 11.9H22.4828C23.3742 12.2171 24.0771 12.9371 24.3428 13.8371C24.3771 14.0086 24.3942 14.1714 24.4114 14.3429C24.4799 15.1829 24.4028 14.7629 24.4799 15.6029C24.4885 15.6971 24.5057 15.7829 24.5485 15.86C24.6942 16.2457 25.0799 16.5029 25.4999 16.4771C25.9885 16.4343 26.3914 16.0571 26.3399 15.4914C26.2371 14.5057 26.2971 14.78 26.1771 13.7943C25.9628 12.0543 24.5057 10.46 22.7999 10.1C22.1228 9.96286 21.4371 9.86857 20.7514 9.81714C18.7542 9.66286 16.7571 9.69714 14.7685 10.0314C13.0114 10.3314 11.4685 11.7371 11.1171 13.4857C10.8685 14.7457 10.8171 16.0314 10.7571 17.3171C10.7399 17.84 10.7228 18.3543 10.7142 18.8857C10.7142 19.58 10.7228 20.2743 10.7485 20.96C10.7657 21.5086 10.7914 22.0486 10.8257 22.5886C10.8428 22.82 10.8599 23.0514 10.8942 23.2829C10.9199 23.4886 10.9457 23.6943 10.9799 23.9V23.9086C11.0228 24.1057 11.0657 24.3114 11.1171 24.5086C11.1599 24.6714 11.2114 24.8257 11.2628 24.98C11.2628 24.9886 11.2714 24.9971 11.2714 24.9971C11.2799 25.04 11.2971 25.0914 11.3142 25.1343C11.6999 26.18 12.2657 27.0971 13.2428 27.6714C13.5085 27.8257 13.7828 27.98 14.0571 28.1257C14.1857 28.2029 14.3142 28.2714 14.4428 28.3314C14.7342 28.4943 15.0342 28.6486 15.3342 28.7943C15.6085 28.9229 15.8828 29.0514 16.1657 29.18C16.1914 29.1886 16.2085 29.1971 16.2342 29.2057C16.4142 29.2914 16.5942 29.3686 16.7828 29.4371C16.8428 29.4714 16.9114 29.4971 16.9799 29.5143C17.1599 29.5914 17.3399 29.66 17.5199 29.7286C18.1199 29.9429 18.7371 30.1057 19.3542 30.2771H19.9542C20.0657 30.2429 20.1685 30.2086 20.2628 30.1571C20.2799 30.1486 20.2971 30.1486 20.3057 30.14C20.3742 30.1057 20.4342 30.0714 20.5028 30.0286C20.5799 29.9771 20.6657 29.9171 20.7342 29.8486C20.7771 29.8143 20.8199 29.78 20.8542 29.7371C20.8885 29.7029 20.9228 29.6686 20.9485 29.6343C20.9914 29.5743 21.0342 29.5229 21.0685 29.4629C21.1457 29.3429 21.2228 29.2229 21.2828 29.0943C21.3428 28.9743 21.3942 28.8457 21.4457 28.7171C21.4799 28.6143 21.5142 28.5114 21.5399 28.4086V28.4C21.5571 28.3314 21.5742 28.2543 21.5914 28.1857C21.6085 28.1086 21.6257 28.0229 21.6342 27.9457C21.6599 27.8257 21.6942 27.7829 21.8228 27.7743C22.4057 27.7314 22.9714 27.6029 23.4942 27.3714C23.5114 27.3629 23.5199 27.3543 23.5371 27.3543C24.8485 26.8571 25.8514 25.76 26.2285 24.4057C26.3057 24.1314 26.3914 24.1829 26.4428 23.6857C26.4599 23.54 26.4342 23.4114 26.3828 23.2914C26.3228 23.1629 26.2199 23.0514 26.0914 22.9657ZM14.5457 26.1886C13.8942 25.7943 13.5257 25.1771 13.2514 24.5C12.9257 23.72 12.7714 22.8971 12.7285 22.0571C12.6171 20.12 12.6171 18.1829 12.6942 16.2371C12.7199 15.5 12.7371 14.7543 12.8828 14.0257C12.9514 13.6571 13.1142 13.3314 13.3199 13.0143C13.3885 12.9029 13.4828 12.86 13.6114 12.8343C14.2628 12.74 14.8971 12.86 15.5314 13.0229C16.5342 13.2629 17.4599 13.6829 18.3514 14.1886C18.7114 14.4029 18.9428 14.72 19.1571 15.0629C19.6371 15.8429 19.8257 16.7 19.8685 17.6C19.9457 18.9971 19.9714 20.3857 19.9714 21.7743C19.9799 23.6943 19.9199 25.6057 19.7571 27.5171C19.7571 27.5343 19.7571 27.5514 19.7485 27.5771C19.7142 27.8086 19.7142 28.0829 19.5514 28.2286C19.3628 28.3914 19.1228 28.22 18.9171 28.1514C17.3828 27.6629 15.9171 27.02 14.5457 26.1886Z" fill="#2B2754"/>
</svg>
