<svg width="15" height="15" viewBox="0 0 15 15" fill="none" xmlns="http://www.w3.org/2000/svg">
<path opacity="0.7" d="M4.97608 14.08V11.7867C4.97608 11.2013 5.45412 10.7267 6.04382 10.7267H8.19945C8.48264 10.7267 8.75422 10.8384 8.95446 11.0372C9.1547 11.236 9.26719 11.5056 9.26719 11.7867V14.08C9.26541 14.3234 9.36154 14.5574 9.53427 14.7301C9.707 14.9029 9.94203 15 10.1872 15H11.6579C12.3447 15.0018 13.0041 14.7321 13.4904 14.2506C13.9767 13.7691 14.25 13.1152 14.25 12.4334V5.90014C14.25 5.34934 14.004 4.82688 13.5785 4.4735L8.57551 0.506901C7.70524 -0.188579 6.45833 -0.166123 5.61404 0.560234L0.725259 4.4735C0.279555 4.81646 0.0131642 5.34047 0 5.90014V12.4267C0 13.8479 1.16054 15 2.59213 15H4.02921C4.53842 15 4.95224 14.5922 4.95593 14.0867L4.97608 14.08Z" fill="white"/>
</svg>
