<svg width="1000" height="1000" viewBox="0 0 1000 1000" fill="none" xmlns="http://www.w3.org/2000/svg">
<rect width="1000" height="1000" rx="500" fill="url(#paint0_linear_28240_3667)"/>
<path d="M457.083 663.974C434.903 663.817 416.381 682 416.564 704.676C416.747 726.228 433.78 744.829 457.187 744.855C478.949 745.064 497.314 726.96 497.471 705.094C497.68 682.183 479.941 664.131 457.083 663.974Z" fill="white"/>
<path d="M622.942 663.974C600.763 663.817 582.241 682 582.424 704.676C582.607 726.228 599.64 744.829 623.047 744.855C644.808 745.064 663.174 726.96 663.331 705.094C663.54 682.183 645.801 664.131 622.942 663.974Z" fill="white"/>
<path d="M585.536 500.332C589.768 500.332 593.216 496.884 593.216 492.652C593.216 488.42 589.768 484.971 585.536 484.971H521.61C517.378 484.971 513.929 488.42 513.929 492.652C513.929 496.884 517.378 500.332 521.61 500.332H585.536Z" fill="white"/>
<path d="M498.308 391.432C499.82 394.168 501.512 396.544 503.384 398.56C505.328 400.576 507.416 402.124 509.648 403.204C511.952 404.284 514.364 404.824 516.884 404.824C519.548 404.824 521.744 404.176 523.472 402.88C525.2 401.512 526.064 399.676 526.064 397.372C526.064 395.428 525.56 393.88 524.552 392.728C523.544 391.504 521.924 390.352 519.692 389.272C517.46 388.192 514.508 386.968 510.836 385.6C509.036 384.952 506.948 384.052 504.572 382.9C502.268 381.748 500.072 380.272 497.984 378.472C495.896 376.6 494.168 374.368 492.8 371.776C491.432 369.112 490.748 365.908 490.748 362.164C490.748 357.7 491.9 353.848 494.204 350.608C496.58 347.368 499.748 344.92 503.708 343.264C507.74 341.536 512.204 340.672 517.1 340.672C522.14 340.672 526.496 341.5 530.168 343.156C533.912 344.812 537.008 346.9 539.456 349.42C541.904 351.94 543.776 354.496 545.072 357.088L531.14 364.864C530.06 363.064 528.8 361.516 527.36 360.22C525.992 358.852 524.444 357.808 522.716 357.088C521.06 356.296 519.26 355.9 517.316 355.9C514.724 355.9 512.744 356.476 511.376 357.628C510.008 358.708 509.324 360.076 509.324 361.732C509.324 363.46 509.972 364.972 511.268 366.268C512.636 367.564 514.544 368.752 516.992 369.832C519.512 370.912 522.536 372.064 526.064 373.288C528.728 374.296 531.212 375.484 533.516 376.852C535.82 378.148 537.836 379.732 539.564 381.604C541.364 383.476 542.768 385.636 543.776 388.084C544.784 390.532 545.288 393.34 545.288 396.508C545.288 400.324 544.496 403.744 542.912 406.768C541.4 409.72 539.312 412.204 536.648 414.22C534.056 416.236 531.068 417.748 527.684 418.756C524.372 419.836 520.952 420.376 517.424 420.376C512.528 420.376 507.956 419.512 503.708 417.784C499.532 415.984 495.896 413.572 492.8 410.548C489.704 407.524 487.292 404.212 485.564 400.612L498.308 391.432ZM562.768 386.356V369.94H620.008V386.356H562.768ZM608.452 342.4H626.704V418H608.452V342.4ZM557.692 342.4H575.944V418H557.692V342.4ZM657.806 380.2C657.806 384.664 658.67 388.624 660.398 392.08C662.198 395.464 664.682 398.128 667.85 400.072C671.09 402.016 674.87 402.988 679.19 402.988C683.438 402.988 687.146 402.016 690.314 400.072C693.554 398.128 696.038 395.464 697.766 392.08C699.566 388.624 700.466 384.664 700.466 380.2C700.466 375.736 699.602 371.812 697.874 368.428C696.146 364.972 693.698 362.272 690.53 360.328C687.362 358.384 683.582 357.412 679.19 357.412C674.87 357.412 671.09 358.384 667.85 360.328C664.682 362.272 662.198 364.972 660.398 368.428C658.67 371.812 657.806 375.736 657.806 380.2ZM638.474 380.2C638.474 374.368 639.482 369.04 641.498 364.216C643.586 359.392 646.466 355.216 650.138 351.688C653.81 348.16 658.13 345.46 663.098 343.588C668.066 341.644 673.43 340.672 679.19 340.672C685.022 340.672 690.386 341.644 695.282 343.588C700.25 345.46 704.57 348.16 708.242 351.688C711.914 355.216 714.758 359.392 716.774 364.216C718.79 369.04 719.798 374.368 719.798 380.2C719.798 386.032 718.79 391.396 716.774 396.292C714.83 401.188 712.022 405.436 708.35 409.036C704.75 412.636 700.466 415.444 695.498 417.46C690.53 419.404 685.094 420.376 679.19 420.376C673.214 420.376 667.742 419.404 662.774 417.46C657.806 415.444 653.486 412.636 649.814 409.036C646.214 405.436 643.406 401.188 641.39 396.292C639.446 391.396 638.474 386.032 638.474 380.2ZM731.694 342.4H749.946V418H731.694V342.4ZM743.142 357.412V342.4H757.938C764.346 342.4 769.71 343.408 774.03 345.424C778.422 347.368 781.734 350.176 783.966 353.848C786.198 357.52 787.314 361.948 787.314 367.132C787.314 372.172 786.198 376.564 783.966 380.308C781.734 383.98 778.422 386.824 774.03 388.84C769.71 390.784 764.346 391.756 757.938 391.756H743.142V376.744H757.938C761.61 376.744 764.49 375.916 766.578 374.26C768.666 372.604 769.71 370.228 769.71 367.132C769.71 363.964 768.666 361.552 766.578 359.896C764.49 358.24 761.61 357.412 757.938 357.412H743.142Z" fill="white"/>
<path d="M772.27 451.35L772.24 451.43C771.51 453.12 770.88 455.34 770.18 457.9L769.68 459.73L722.97 585.05C718.53 595 713.23 606.26 705.55 614.96C703.27 617.71 700.35 620.45 696.9 623.11C682.97 633.54 670.9 638.37 658.84 638.37L635.17 638.61C606.61 638.84 587.57 638.84 552.95 638.84H541.82C521.06 638.84 513.27 638.84 500.21 638.61L469.2 637.4C463.4 637.17 457.78 636.46 452.09 635.21C432.7 631.4 417.05 623.19 404.28 610.18C387.43 593.59 379.23 572.25 373.98 555.51C369.4 541.97 365.22 528.21 361.18 514.88C359.42 508.46 357.49 502.13 355.61 496.02C351.17 482.1 345.66 464.78 340.62 447.9C338.6 441.26 336.54 434.63 334.48 427.99C331.34 417.88 328.08 407.43 325.15 397.11C323.97 393.09 322.64 389.09 321.34 385.1C319.98 380.99 318.64 376.89 317.42 372.71C316.95 371.33 316.45 369.87 315.98 368.4C312.04 356.1 308.38 343.9 304.85 332.09C303.41 327.54 300.54 325.3 296.26 325.53C294.61 325.69 293.1 325.56 291.63 325.45C290.74 325.38 289.86 325.3 288.94 325.3H202.39L202.34 325.27H199L201.03 322.76L254.72 255H292.6C299.76 255 307.28 255.23 314.2 256.96C314.65 257.09 315.07 257.22 315.46 257.32C315.9 257.43 316.35 257.56 316.74 257.69C343.02 264.27 360.97 280.63 369.95 306.36C370.48 306.96 370.74 307.56 371 308.32C378.89 331.78 386.23 355.92 393.33 379.27C395.87 387.63 398.4 395.99 400.99 404.35C404.07 414.2 407.08 424.05 410.11 433.97C412.07 440.35 414 446.75 415.98 453.18L416.24 454.04C418.52 461.59 420.9 469.4 423.46 477.08C425.94 484.68 428.21 492.44 430.4 499.94C431.21 502.79 432.05 505.66 432.91 508.53C434.32 512.84 435.79 517.44 437.25 522.04C439.86 531.05 443.07 541.42 447.8 550.85C451.8 559.16 456.53 563.66 463.14 565.41C467.63 566.24 472.6 567.05 477.79 567.05H644.6C648.46 566.82 651.91 565.09 654.29 562.14L757 419.79H777.15C777.9 430.11 776.28 440.71 772.27 451.35Z" fill="white"/>
<defs>
<linearGradient id="paint0_linear_28240_3667" x1="1000" y1="0" x2="0" y2="1000" gradientUnits="userSpaceOnUse">
<stop stop-color="#FF3157"/>
<stop offset="1" stop-color="#FF319B"/>
</linearGradient>
</defs>
</svg>
