<svg width="25" height="24" viewBox="0 0 25 24" fill="none" xmlns="http://www.w3.org/2000/svg">
<path d="M2.87112 21.1288H20.0979C21.6836 21.1288 22.969 19.8434 22.969 18.2577V3.9021H0V18.2577C0 19.8432 1.2854 21.1288 2.87112 21.1288Z" fill="url(#paint0_linear_342_1023)"/>
<path d="M0 6.77325H20.0979C21.6836 6.77325 22.969 5.48785 22.969 3.90213C22.969 2.31641 21.6836 1.03101 20.0979 1.03101H2.87112C1.2854 1.03101 0 2.31641 0 3.90213V6.77325Z" fill="url(#paint1_linear_342_1023)"/>
<path d="M15.7912 6.77327L9.30386 0.285964C8.92258 -0.0953213 8.30413 -0.0953213 7.92285 0.285964L1.43555 6.77327H15.7912Z" fill="url(#paint2_linear_342_1023)"/>
<path d="M18.6623 6.77327L12.175 0.285964C11.7937 -0.0953213 11.1752 -0.0953213 10.7939 0.285964L4.30664 6.77327H18.6623Z" fill="url(#paint3_linear_342_1023)"/>
<path d="M10.3756 3.57539C10.4281 3.52285 10.5102 3.52342 10.5674 3.57108C10.816 3.7778 11.1359 3.90212 11.4844 3.90212C11.8333 3.90212 12.1528 3.7778 12.4015 3.57108C12.4586 3.52371 12.5407 3.52313 12.5932 3.57539L15.7911 6.77324H7.17773L10.3756 3.57539Z" fill="url(#paint4_linear_342_1023)"/>
<path d="M0 15.3867H8.61337C10.1991 15.3867 11.4845 14.1013 11.4845 12.5155C11.4845 10.9298 10.1991 9.64441 8.61337 9.64441H0V15.3867Z" fill="url(#paint5_linear_342_1023)"/>
<path d="M8.6133 13.9512C9.40614 13.9512 10.0489 13.3085 10.0489 12.5156C10.0489 11.7228 9.40614 11.0801 8.6133 11.0801C7.82046 11.0801 7.17773 11.7228 7.17773 12.5156C7.17773 13.3085 7.82046 13.9512 8.6133 13.9512Z" fill="white"/>
<path d="M20.0977 24C17.5257 23.1427 15.791 20.7359 15.791 18.0249V16.4214C15.791 15.8035 16.1864 15.2549 16.7727 15.0596L19.6438 14.1027C19.9384 14.0045 20.257 14.0045 20.5516 14.1027L23.4228 15.0596C24.009 15.2552 24.4044 15.8035 24.4044 16.4214V18.0249C24.4044 20.7359 22.6694 23.1427 20.0977 24Z" fill="url(#paint6_linear_342_1023)"/>
<path d="M18.5752 19.0143L19.5904 20.0292L21.6206 17.999" stroke="white" strokeWinecap="round" strokeLinejoin="round"/>
<defs>
<linearGradient id="paint0_linear_342_1023" x1="11.4845" y1="21.1288" x2="11.4845" y2="3.9021" gradientUnits="userSpaceOnUse">
<stop stop-color="#535F82"/>
<stop offset="1" stop-color="#A6B2D5"/>
</linearGradient>
<linearGradient id="paint1_linear_342_1023" x1="11.4845" y1="6.77325" x2="11.4845" y2="1.03101" gradientUnits="userSpaceOnUse">
<stop stop-color="#535F82"/>
<stop offset="1" stop-color="#A6B2D5"/>
</linearGradient>
<linearGradient id="paint2_linear_342_1023" x1="8.61335" y1="6.77327" x2="8.61335" y2="0" gradientUnits="userSpaceOnUse">
<stop stop-color="#CBD5EF"/>
<stop offset="1" stop-color="#A6B2D5"/>
</linearGradient>
<linearGradient id="paint3_linear_342_1023" x1="11.4844" y1="6.77327" x2="11.4844" y2="0" gradientUnits="userSpaceOnUse">
<stop stop-color="#A6B2D5"/>
<stop offset="1" stop-color="#D1DAF3"/>
</linearGradient>
<linearGradient id="paint4_linear_342_1023" x1="11.4844" y1="6.77324" x2="11.4844" y2="3.53564" gradientUnits="userSpaceOnUse">
<stop stop-color="#D1DAF3"/>
<stop offset="1" stop-color="#A6B2D5"/>
</linearGradient>
<linearGradient id="paint5_linear_342_1023" x1="11.5" y1="12.5" x2="-5.9631e-09" y2="12.5" gradientUnits="userSpaceOnUse">
<stop stop-color="#A6B2D5"/>
<stop offset="1" stop-color="#D1DAF3"/>
</linearGradient>
<linearGradient id="paint6_linear_342_1023" x1="20.0977" y1="24" x2="20.0977" y2="14.0291" gradientUnits="userSpaceOnUse">
<stop stop-color="#A6B2D5"/>
<stop offset="1" stop-color="#D1DAF3"/>
</linearGradient>
</defs>
</svg>
