<svg width="30" height="30" viewBox="0 0 30 30" fill="none" xmlns="http://www.w3.org/2000/svg">
<g clip-path="url(#clip0_27628_14508)">
<path d="M28.1 10.36H1.91C0.86 10.36 0 11.22 0 12.27V29.55C0 29.7 0.02 29.85 0.04 30H1.03V12.26L1.12 12.35L9.72 21.15L9.68 21.19L1.07 30H2.64L10.49 21.96L10.53 22L13.24 24.8C13.71 25.28 14.34 25.55 15 25.55C15.66 25.55 16.29 25.28 16.76 24.8C17.03 24.53 17.29 24.26 17.55 23.99L19.51 21.97L19.54 22.01L27.34 30H28.94L20.29 21.15L20.32 21.11L28.98 12.25V30H29.96C29.99 29.85 30 29.7 30 29.55V12.27C30 11.22 29.15 10.36 28.1 10.36ZM26.44 13.31C25.75 14.01 24.94 14.83 24.17 15.63C22.38 17.48 20.6 19.32 18.82 21.17L16.14 23.94C15.77 24.32 15.4 24.51 15 24.51C14.6 24.51 14.23 24.32 13.86 23.93L1.67 11.49L2.86 11.45H28.26L26.44 13.31Z" fill="#B9B7C6"/>
<path d="M16.768 19.285C16.796 19.762 16.564 20.213 16.209 20.522C15.754 20.965 15.196 21.276 14.595 21.432C14.262 21.513 13.93 21.551 13.599 21.542C12.977 21.521 12.365 21.34 11.825 21.005C11.41 20.782 11.086 20.392 11.009 19.921C10.954 19.423 11.386 19.145 11.797 19C12.28 18.841 15.292 18.508 15.797 18.558C16.231 18.609 16.713 18.787 16.768 19.285ZM22.903 14.628C22.304 15.549 21.352 16.238 20.306 16.513C18.79 16.915 17.269 17.297 15.708 17.572C14.146 17.847 12.595 18.052 11.025 18.147C9.94597 18.246 8.81697 17.924 7.93997 17.263C7.25997 16.702 6.83497 15.939 6.68397 15.082C6.53297 14.225 6.56797 13.404 7.00097 12.693C7.59197 11.727 7.76797 10.949 7.55097 9.718L7.47797 9.3C7.18797 7.652 7.40897 6.503 8.06997 5.299C8.61897 4.32 9.43697 3.491 10.398 2.887C10.289 1.411 11.281 0.123997 12.626 0.00799692C13.781 -0.0910031 14.826 0.706997 15.19 1.868C16.53 2.06 17.821 2.626 18.804 3.523C19.788 4.415 20.338 5.382 20.62 6.986L20.693 7.403C20.91 8.633 21.363 9.301 22.225 10.011C22.876 10.531 23.188 11.291 23.339 12.148C23.489 13.006 23.351 13.869 22.903 14.628ZM14.379 1.799C14.054 1.119 13.399 0.676997 12.688 0.738997C11.847 0.810997 11.204 1.561 11.129 2.485C11.694 2.215 12.293 2.019 12.906 1.911L12.994 1.896C13.448 1.815 13.913 1.785 14.379 1.799Z" fill="#130F40"/>
</g>
<defs>
<clipPath id="clip0_27628_14508">
<rect width="30" height="30" fill="white"/>
</clipPath>
</defs>
</svg>
