<svg width="20" height="20" viewBox="0 0 20 20" fill="none" xmlns="http://www.w3.org/2000/svg">
<path d="M18.5706 2.84142C18.5699 2.0707 17.932 1.42927 17.162 1.42927C15.5685 1.42856 13.9749 1.42856 12.382 1.42856C9.19847 1.42856 6.0149 1.42927 2.83132 1.43142C2.70847 1.43142 2.58132 1.45142 2.46275 1.4857C1.8349 1.66642 1.42847 2.21499 1.42847 2.87213C1.42847 7.62784 1.42847 12.3843 1.42847 17.14C1.42847 17.9407 2.06347 18.5714 2.86847 18.5714C7.61204 18.5714 12.3556 18.5714 17.0992 18.5714C17.9542 18.5714 18.5713 17.9543 18.5713 17.0964C18.5713 14.735 18.5713 12.3736 18.5713 10.0121C18.5713 7.62213 18.572 5.23213 18.5706 2.84142ZM17.5713 11.15V17.0971C17.5713 17.4036 17.4035 17.5721 17.0992 17.5721H16.0042H2.86847C2.61347 17.5721 2.42847 17.3907 2.42847 17.1407V2.87284C2.42847 2.65927 2.54204 2.50356 2.7399 2.44642C2.77132 2.43713 2.80561 2.43142 2.83132 2.43142C6.0149 2.42927 9.19847 2.42856 12.382 2.42856L17.162 2.42927C17.3799 2.42927 17.5706 2.62213 17.5706 2.84213L17.5713 7.91784V10.0136V11.15ZM12.8006 8.01213C13.6378 9.33927 13.6399 10.6571 12.7956 11.9964C12.9828 12.1793 13.1899 12.355 13.3635 12.5593C13.5385 12.7657 13.6856 12.795 13.9563 12.6928C15.2535 12.2021 16.6685 13.2836 16.5792 14.6714C16.512 15.71 15.7063 16.5171 14.6878 16.5671C13.6642 16.6171 12.782 15.9 12.612 14.8743C12.5463 14.4764 12.607 14.0928 12.7856 13.7328C12.8278 13.6471 12.8113 13.6021 12.7492 13.5421C12.5156 13.3164 12.2863 13.0864 12.057 12.8557C12.0092 12.8071 11.9756 12.7957 11.9106 12.8364C10.6185 13.6428 9.3299 13.6336 8.04775 12.8114C8.04132 12.8071 8.03275 12.805 7.99418 12.7707C7.91347 12.8643 7.83632 12.9621 7.75061 13.0507C7.58847 13.2186 7.4249 13.385 7.25561 13.545C7.19347 13.6043 7.18918 13.6493 7.22418 13.7264C7.56061 14.4593 7.49132 15.1621 6.99775 15.7943C6.50204 16.43 5.83061 16.6743 5.03561 16.5271C4.12275 16.3578 3.44704 15.5428 3.42918 14.6164C3.41132 13.67 4.0549 12.84 4.97132 12.6264C5.42275 12.5214 5.85704 12.5707 6.27204 12.7743C6.34918 12.8121 6.39418 12.8036 6.45347 12.7428C6.70061 12.4907 6.95418 12.2436 7.20061 11.9986C7.09561 11.8078 6.98918 11.6343 6.90061 11.4514C5.89204 9.37284 7.29704 6.84642 9.59775 6.59642C10.4256 6.50641 11.1863 6.68784 11.8806 7.14427C11.9656 7.19999 12.0099 7.18927 12.0756 7.11999C12.2985 6.88927 12.5256 6.66284 12.7563 6.4407C12.8185 6.3807 12.8235 6.3357 12.787 6.25856C12.4142 5.45999 12.5756 4.58142 13.202 3.97427C13.8042 3.38999 14.7163 3.24927 15.472 3.62427C16.2328 4.00142 16.6699 4.81713 16.567 5.66856C16.407 6.99213 14.9835 7.78784 13.7735 7.2257C13.667 7.17642 13.6099 7.1857 13.5313 7.26999C13.3199 7.49427 13.0978 7.70784 12.8799 7.9257C12.852 7.95499 12.8256 7.9857 12.8006 8.01213ZM12.2856 9.98641C12.287 8.7357 11.2563 7.71284 9.99561 7.71284C8.74918 7.71284 7.7149 8.7357 7.71347 9.96927C7.71204 11.2607 8.71847 12.2814 9.99704 12.285C11.2649 12.2893 12.2849 11.265 12.2856 9.98641ZM15.4449 5.4207C15.4499 4.9507 15.0642 4.55999 14.5913 4.55642C14.1185 4.55284 13.7292 4.93642 13.727 5.40856C13.7249 5.88284 14.1078 6.27213 14.5792 6.27427C15.0506 6.27642 15.4406 5.89213 15.4449 5.4207ZM14.5892 15.4286C15.0606 15.4286 15.447 15.04 15.4456 14.5678C15.4442 14.095 15.0585 13.7136 14.5828 13.715C14.1078 13.7164 13.7263 14.1 13.7278 14.5743C13.7292 15.0478 14.1128 15.4286 14.5892 15.4286ZM5.42347 15.4293C5.89204 15.4328 6.27847 15.055 6.28418 14.5886C6.2899 14.1028 5.91632 13.72 5.43204 13.715C4.9599 13.71 4.57275 14.0928 4.5699 14.5671C4.56775 15.04 4.94918 15.4257 5.42347 15.4293ZM3.42561 4.27642C3.42561 3.93642 3.70132 3.6607 4.04132 3.6607C4.38132 3.6607 4.65704 3.93642 4.65704 4.27642C4.65704 4.61642 4.38132 4.89213 4.04132 4.89213C3.70132 4.89213 3.42561 4.6157 3.42561 4.27642ZM5.72561 4.27642C5.72561 3.93642 6.00132 3.6607 6.34132 3.6607C6.68132 3.6607 6.95704 3.93642 6.95704 4.27642C6.95704 4.61642 6.68132 4.89213 6.34132 4.89213C6.00132 4.89213 5.72561 4.6157 5.72561 4.27642ZM8.02561 4.27642C8.02561 3.93642 8.30132 3.6607 8.64132 3.6607C8.98132 3.6607 9.25704 3.93642 9.25704 4.27642C9.25704 4.61642 8.98132 4.89213 8.64132 4.89213C8.30132 4.89142 8.02561 4.6157 8.02561 4.27642Z" fill="#5A577A"/>
</svg>
