<svg width="27" height="30" viewBox="0 0 27 30" fill="none" xmlns="http://www.w3.org/2000/svg">
<g clip-path="url(#clip0_4241_2588)">
<g clip-path="url(#clip1_4241_2588)">
<path opacity="0.2" d="M14.5257 11.5538C14.4589 11.4738 14.3661 11.3991 14.3204 11.3016C13.8739 10.3491 13.4336 9.39339 12.9961 8.43661C12.8854 8.19446 12.9686 8.02589 13.2211 7.93946C13.9925 7.67482 14.7854 7.52661 15.6007 7.50232C15.8711 7.49411 16.0132 7.62304 16.0061 7.89446C15.9775 8.94411 15.945 9.99375 15.91 11.0434C15.9025 11.2791 15.7893 11.4005 15.5582 11.4384C15.3093 11.4795 15.06 11.5202 14.81 11.5541C14.7275 11.5652 14.6414 11.5545 14.5257 11.5538ZM18.0461 18.578C18.1257 18.6584 18.1996 18.7152 18.2514 18.7877C18.8514 19.6295 19.45 20.4723 20.0454 21.3173C20.2182 21.5627 20.1893 21.7523 19.9271 21.8884C19.4286 22.1473 18.9218 22.3912 18.4107 22.6248C18.1614 22.7387 17.9843 22.6473 17.9043 22.3841C17.5989 21.3784 17.2979 20.3712 17.0004 19.3634C16.9354 19.1434 17.0036 18.9963 17.2054 18.8905C17.3782 18.7998 17.5521 18.7095 17.7329 18.637C17.8289 18.598 17.94 18.5966 18.0461 18.578ZM12.9054 12.3759C12.8721 12.3488 12.805 12.3041 12.7493 12.248C12.0311 11.528 11.3143 10.8073 10.5979 10.0855C10.365 9.85089 10.3718 9.67482 10.6164 9.46196C10.7032 9.38661 10.7904 9.31161 10.8786 9.23768C11.1036 9.04875 11.2982 9.06625 11.4846 9.29911C11.7325 9.60875 11.9757 9.92196 12.2214 10.2338C12.62 10.7395 13.0196 11.2445 13.4161 11.7516C13.5464 11.918 13.5529 12.0552 13.4507 12.1927C13.3136 12.377 13.1157 12.4534 12.9054 12.3759ZM14.2857 14.857C14.565 14.0434 15.4796 13.6009 16.3132 13.8748C17.1307 14.1438 17.5864 15.0852 17.3011 15.9145C17.0193 16.7345 16.0761 17.1838 15.2554 16.8895C14.4396 16.5977 14.0025 15.6813 14.2857 14.857Z" fill="#AE00B9"/>
<path d="M15 6.25C19.8246 6.25 23.75 10.1754 23.75 15C23.75 19.8246 19.8246 23.75 15 23.75C10.1754 23.75 6.25 19.8246 6.25 15C6.25 10.1754 10.1754 6.25 15 6.25ZM15 5C9.47714 5 5 9.47714 5 15C5 20.5229 9.47714 25 15 25C20.5229 25 25 20.5229 25 15C25 9.47714 20.5229 5 15 5Z" fill="#AE00B9"/>
<path d="M9.67928 11.2396V18.7603H8.54428V11.2396H9.67928ZM11.7061 19.5467L14.4261 10.4792L13.5136 10.4531L10.7936 19.5206L11.7061 19.5467ZM21.6654 14.9999C21.6654 15.8031 21.5186 16.4928 21.2246 17.0692C20.9311 17.6456 20.5289 18.0888 20.0186 18.3988C19.5079 18.7085 18.9282 18.8635 18.2796 18.8635C17.6286 18.8635 17.0479 18.7085 16.5371 18.3988C16.0268 18.0892 15.6246 17.6456 15.3311 17.0674C15.0371 16.4899 14.8904 15.8006 14.8904 14.9999C14.8904 14.1974 15.0371 13.5074 15.3311 12.931C15.6246 12.3546 16.0268 11.9113 16.5371 11.6013C17.0479 11.2917 17.6286 11.1367 18.2796 11.1367C18.9282 11.1367 19.5079 11.2917 20.0186 11.6013C20.5289 11.911 20.9311 12.3542 21.2246 12.931C21.5182 13.5074 21.6654 14.1971 21.6654 14.9999ZM20.5414 14.9999C20.5414 14.3881 20.4429 13.8724 20.2457 13.4524C20.0486 13.0324 19.7793 12.7146 19.4379 12.4974C19.0964 12.281 18.7104 12.1724 18.2793 12.1724C17.8461 12.1724 17.4593 12.281 17.1189 12.4974C16.7786 12.7142 16.51 13.0324 16.3129 13.4524C16.1157 13.8724 16.0171 14.3881 16.0171 14.9999C16.0171 15.6121 16.1157 16.1281 16.3129 16.5478C16.51 16.9678 16.7786 17.286 17.1189 17.5028C17.4593 17.7196 17.8461 17.8278 18.2793 17.8278C18.7104 17.8278 19.0964 17.7192 19.4379 17.5028C19.7793 17.2863 20.0486 16.9678 20.2457 16.5478C20.4429 16.1281 20.5414 15.6117 20.5414 14.9999Z" fill="#AE00B9"/>
</g>
</g>
<defs>
<clipPath id="clip0_4241_2588">
<rect width="20" height="20" fill="white" transform="translate(5 5)"/>
</clipPath>
<clipPath id="clip1_4241_2588">
<rect width="20" height="20" fill="white" transform="translate(5 5)"/>
</clipPath>
</defs>
</svg>
