<?xml version="1.0" encoding="utf-8"?>
<!-- Generator: Adobe Illustrator 26.0.2, SVG Export Plug-In . SVG Version: 6.00 Build 0)  -->
<svg version="1.1" id="Layer_1" xmlns="http://www.w3.org/2000/svg" xmlns:xlink="http://www.w3.org/1999/xlink" x="0px" y="0px"
	 viewBox="0 0 758 214" style="enable-background:new 0 0 758 214;" xml:space="preserve">
<style type="text/css">
	.st0{fill:#FF0000;}
</style>
<g>
	<g>
		<g>
			<path class="st0" d="M105.096,96.769h-30.03L54.781,73.023H28.013v23.745H6.893V50.392h50.036l4.733,0.08
				c1.352-0.04,2.227-0.08,3.301-0.08c7.875,0.119,14.359-6.125,14.478-14.001s-6.125-14.359-14.001-14.478
				c-0.159,0-0.318,0-0.477,0H7.529L21.371,0.555h44.507c19.688,0.517,35.2,16.864,34.723,36.513
				c-0.358,13.484-8.273,25.615-20.484,31.342L105.096,96.769z"/>
		</g>
		<g>
			<path class="st0" d="M197.293,0.555v55.326c-0.239,23.387-19.37,42.161-42.757,41.922c-23.069-0.239-41.723-18.853-41.922-41.922
				V0.555h18.933v55.326h0.04c0.875,12.887,12.012,22.632,24.899,21.796c11.694-0.795,21.001-10.103,21.796-21.796h0.04V0.555
				H197.293z"/>
		</g>
		<g>
			<path class="st0" d="M293.785,38.817c0,21.041-17.023,38.064-38.064,38.104h-30.348v21.279h-19.41V53.733h51.031v-0.04
				c8.193-0.557,14.438-7.637,13.881-15.83c-0.477-7.478-6.443-13.404-13.881-13.881v-0.04h-51.031l13.881-23.188h35.876
				C276.762,0.753,293.785,17.777,293.785,38.817z"/>
		</g>
		<g>
			<polygon class="st0" points="326.44,49.199 375.362,98.201 351.219,98.201 318.008,65.387 318.008,98.201 299.672,98.201 
				299.672,0.555 318.008,0.555 318.008,33.09 351.219,0.555 375.362,0.555 			"/>
		</g>
		<g>
			<path class="st0" d="M420.347,78.274h35.797l-20.245-44.11c-0.438-1.074-1.432-1.75-2.585-1.79c-1.153,0-2.148,0.716-2.546,1.79
				l-29.353,64.037h-21.478l40.809-88.975c0.159-0.398,0.358-0.835,0.557-1.233c0.438-0.835,0.955-1.591,1.551-2.347
				c4.574-5.807,12.966-6.801,18.773-2.227c0.835,0.636,1.591,1.392,2.227,2.227c0.597,0.756,1.074,1.511,1.551,2.347
				c0.199,0.398,0.398,0.835,0.557,1.233l40.808,88.935h-75.134L420.347,78.274z"/>
		</g>
		<g>
			<path class="st0" d="M683.971,78.274h35.797l-20.245-44.11c-0.438-1.074-1.432-1.75-2.585-1.79c-1.153,0-2.148,0.716-2.546,1.79
				l-29.354,64.037h-21.478l40.808-88.975c0.159-0.398,0.358-0.835,0.557-1.233c0.438-0.835,0.955-1.631,1.551-2.347
				c4.574-5.807,12.966-6.801,18.773-2.227c0.835,0.636,1.591,1.392,2.227,2.227c0.597,0.716,1.114,1.511,1.551,2.347
				c0.199,0.398,0.398,0.835,0.557,1.233l40.808,88.935h-75.134L683.971,78.274z"/>
		</g>
		<g>
			<polygon class="st0" points="553.631,0.555 545.955,18.373 517.914,18.373 517.914,98.201 498.623,98.201 498.623,18.373 
				462.906,18.373 470.662,0.555 			"/>
		</g>
		<g>
			<polygon class="st0" points="632.981,0.555 632.981,98.201 613.332,98.201 613.332,59.182 580.121,59.182 580.121,98.201 
				560.512,98.201 560.512,0.555 580.121,0.555 580.121,39.533 613.332,39.533 613.332,0.555 			"/>
		</g>
	</g>
	<g>
		<path d="M46.518,161.174c-0.269,0.09-0.649-0.012-1.142-0.304c-0.493-0.291-0.94-0.65-1.344-1.076
			c-0.402-0.426-0.705-0.841-0.906-1.244c-0.201-0.404-0.191-0.72,0.033-0.943c3.716-0.853,7.478-1.638,11.283-2.355
			s7.656-1.279,11.552-1.683c4.433-4.074,8.664-8.104,12.693-12.089s7.645-7.623,10.847-10.914c3.2-3.291,5.887-6.122,8.059-8.496
			c2.172-2.372,3.594-4.006,4.265-4.902c0.27-0.135,0.639,0.012,1.108,0.437c0.471,0.426,0.929,0.94,1.377,1.545
			c0.447,0.604,0.828,1.198,1.142,1.779c0.312,0.583,0.403,1.008,0.269,1.276c0.179,0.045,0.246,0.157,0.202,0.336
			c-0.583,1.702-1.512,3.794-2.788,6.279c-1.275,2.485-2.742,5.183-4.398,8.093c-1.657,2.911-3.448,5.978-5.373,9.201
			c-1.926,3.224-3.806,6.447-5.642,9.671s-3.582,6.347-5.238,9.369c-1.657,3.022-3.056,5.81-4.197,8.361s-1.959,4.78-2.451,6.683
			c-0.493,1.902-0.516,3.324-0.067,4.265c0.134,0.269,0.324,0.548,0.57,0.839s0.481,0.526,0.705,0.706
			c0.27,0.178,0.426,0.391,0.471,0.638c0.044,0.245,0.011,0.47-0.101,0.672c-0.112,0.201-0.292,0.336-0.537,0.402
			c-0.247,0.067-0.527,0.034-0.84-0.101c-2.194-0.09-3.717-0.772-4.567-2.048c-0.851-1.276-1.287-2.787-1.31-4.534
			c-0.022-1.746,0.212-3.525,0.705-5.339c0.492-1.813,0.984-3.324,1.478-4.533c1.119-2.597,2.351-5.172,3.694-7.724
			c1.343-2.552,2.754-5.104,4.231-7.656c-3.627-0.134-7.119-0.134-10.478,0c-0.493,0.493-0.985,0.964-1.478,1.41
			c-0.493,0.448-0.985,0.896-1.478,1.344c-2.149,1.971-4.399,4.074-6.75,6.312c-2.351,2.239-4.768,4.444-7.253,6.615
			c-2.485,2.173-5.049,4.265-7.689,6.28c-2.643,2.015-5.306,3.794-7.992,5.339s-5.406,2.81-8.16,3.795
			c-2.754,0.984-5.497,1.544-8.228,1.679c-3.717,0.179-6.896-0.269-9.536-1.344c-2.643-1.074-4.792-2.529-6.448-4.365
			c-1.656-1.835-2.832-3.962-3.525-6.38s-0.917-4.913-0.672-7.488c0.247-2.574,0.929-5.104,2.049-7.589
			c1.118-2.485,2.652-4.702,4.601-6.649c1.947-1.947,4.309-3.536,7.085-4.769c2.775-1.23,5.91-1.891,9.402-1.981
			c2.91-0.044,5.396,0.561,7.455,1.813c2.059,1.254,3.716,3.046,4.97,5.373c0.044,0.269,0.078,0.717,0.101,1.344
			s0.011,1.242-0.033,1.847c-0.045,0.604-0.135,1.098-0.269,1.478c-0.135,0.381-0.292,0.459-0.471,0.234
			c-0.537-0.806-1.198-1.679-1.98-2.619c-0.784-0.939-1.68-1.812-2.687-2.619c-1.008-0.806-2.139-1.478-3.392-2.015
			c-1.254-0.537-2.575-0.806-3.963-0.806c-3.045-0.09-5.765,0.337-8.16,1.279s-4.443,2.198-6.145,3.768
			c-1.702,1.571-3.056,3.377-4.063,5.418c-1.008,2.043-1.612,4.129-1.813,6.259c-0.201,2.132-0.012,4.195,0.571,6.191
			c0.581,1.997,1.6,3.747,3.056,5.25c1.454,1.503,3.357,2.669,5.708,3.499c2.351,0.829,5.183,1.11,8.496,0.842
			c3.134-0.225,6.391-1.167,9.772-2.827c3.38-1.66,6.827-3.78,10.342-6.36s7.086-5.508,10.713-8.783
			c3.626-3.275,7.275-6.641,10.947-10.097c-2.687,0.404-5.373,0.987-8.06,1.751C52.159,158.976,49.383,159.963,46.518,161.174z
			 M96.149,130.666c-4.03,3.717-7.971,7.467-11.82,11.25c-3.852,3.783-7.747,7.533-11.687,11.249
			c1.567-0.089,3.101-0.111,4.601-0.067c1.5,0.045,3.011,0.112,4.534,0.201c2.238-3.716,4.577-7.432,7.018-11.148
			C91.235,138.435,93.687,134.606,96.149,130.666z"/>
		<path d="M151.422,163.508c-1.612,3.448-3.583,6.861-5.91,10.242c-2.329,3.381-4.881,6.392-7.656,9.033
			c-2.776,2.641-5.742,4.734-8.898,6.279c-3.157,1.544-6.37,2.227-9.638,2.048c-3.448-0.269-6.213-1.522-8.295-3.761
			c-2.082-2.239-3.257-5.104-3.525-8.597c-0.18-2.238-0.023-4.778,0.47-7.622c0.492-2.843,1.287-5.844,2.385-9
			c1.097-3.156,2.451-6.369,4.062-9.638c1.612-3.268,3.426-6.436,5.44-9.503c2.015-3.066,4.208-5.966,6.582-8.697
			c2.372-2.73,4.857-5.104,7.454-7.119s5.294-3.615,8.093-4.802c2.798-1.186,5.608-1.78,8.429-1.78c2.193,0,3.906,0.303,5.138,0.907
			s2.082,1.41,2.553,2.418c0.47,1.007,0.614,2.183,0.437,3.525c-0.18,1.344-0.571,2.766-1.176,4.265
			c-0.604,1.501-1.354,3.022-2.25,4.567c-0.896,1.544-1.836,3.033-2.82,4.466c-0.225,0.269-0.527,0.571-0.907,0.906
			c-0.381,0.336-0.828,0.604-1.343,0.807c-0.516,0.201-1.108,0.291-1.779,0.269c-0.672-0.022-1.411-0.257-2.217-0.705
			c0.716-0.537,1.511-1.354,2.385-2.451c0.873-1.097,1.734-2.317,2.585-3.661c0.851-1.343,1.601-2.708,2.25-4.097
			c0.648-1.387,1.108-2.641,1.377-3.761c0.447-1.701,0.403-2.932-0.135-3.693c-0.537-0.761-1.791-1.143-3.761-1.143
			c-1.926,0.091-3.896,0.763-5.91,2.018s-4.019,2.902-6.011,4.941c-1.993,2.04-3.929,4.313-5.81,6.824
			c-1.88,2.51-3.616,5.054-5.205,7.631c-1.59,2.577-3,5.064-4.23,7.462c-1.232,2.399-2.183,4.45-2.854,6.151
			c-0.806,1.928-1.567,3.89-2.283,5.883c-0.717,1.995-1.276,4.068-1.68,6.219c-0.493,2.242-0.762,4.327-0.806,6.254
			c-0.045,1.928,0.145,3.631,0.571,5.109c0.425,1.479,1.097,2.666,2.015,3.563c0.917,0.896,2.115,1.389,3.593,1.479
			c1.925,0.177,3.806-0.071,5.642-0.741c1.835-0.67,3.627-1.633,5.373-2.886s3.425-2.72,5.037-4.398
			c1.611-1.68,3.133-3.447,4.566-5.306c1.433-1.857,2.742-3.738,3.929-5.642c1.187-1.902,2.25-3.704,3.19-5.406
			c0.135-0.224,0.336-0.347,0.604-0.37c0.269-0.021,0.504,0.034,0.705,0.168c0.201,0.135,0.336,0.314,0.403,0.538
			C151.657,162.927,151.601,163.195,151.422,163.508z"/>
		<path d="M173.719,170.492c-0.94,1.344-2.015,2.71-3.224,4.097c-1.209,1.389-2.509,2.643-3.896,3.762
			c-1.389,1.119-2.866,2.026-4.433,2.72c-1.567,0.694-3.18,0.996-4.836,0.906c-1.702-0.089-2.955-0.716-3.761-1.88
			s-1.187-2.508-1.142-4.03c0.044-1.387,0.291-2.687,0.738-3.896c0.447-1.208,1.019-2.384,1.713-3.525
			c0.693-1.142,1.454-2.271,2.283-3.392c0.828-1.119,1.689-2.283,2.586-3.492c0.581-0.806,1.164-1.601,1.746-2.385
			c0.582-0.782,1.075-1.478,1.478-2.082c0.403-0.604,0.693-1.085,0.873-1.443c0.179-0.358,0.179-0.515,0-0.471
			c-0.671,0.091-1.242,0.191-1.712,0.303c-0.471,0.112-0.907,0.225-1.311,0.336c-0.402,0.112-0.828,0.19-1.275,0.234
			c-0.448,0.046-0.985,0.067-1.612,0.067c-0.225,0-0.448,0-0.671,0c-0.225,0-0.448-0.021-0.672-0.067
			c-1.03,1.434-2.015,2.866-2.955,4.299c-0.94,1.434-1.837,2.82-2.687,4.164c-0.135,0.225-0.325,0.347-0.571,0.369
			c-0.246,0.023-0.459-0.022-0.638-0.135c-0.18-0.11-0.313-0.29-0.403-0.537c-0.09-0.245-0.022-0.525,0.202-0.839
			c0.895-1.433,1.734-2.81,2.519-4.131c0.782-1.32,1.622-2.652,2.519-3.996c-0.807-0.672-1.098-1.578-0.873-2.72
			c0.224-1.142,0.671-2.351,1.343-3.627c0.672-1.275,1.388-2.495,2.149-3.66c0.761-1.164,1.275-2.104,1.545-2.82
			c0.537,0.225,1.085,0.503,1.645,0.839s1.019,0.739,1.377,1.209c0.358,0.471,0.582,1.053,0.672,1.746
			c0.089,0.695-0.067,1.534-0.47,2.519l-2.821,4.097c-0.18,0.269-0.022,0.359,0.471,0.269c0.492-0.089,1.186-0.278,2.082-0.57
			c0.895-0.291,1.891-0.648,2.988-1.074c1.097-0.426,2.159-0.862,3.19-1.31c1.029-0.447,1.936-0.884,2.72-1.311
			c0.782-0.425,1.286-0.771,1.511-1.041c0.135,0,0.324,0.091,0.571,0.27c0.245,0.179,0.514,0.381,0.806,0.604
			c0.291,0.224,0.548,0.447,0.772,0.671c0.224,0.225,0.357,0.359,0.403,0.403c0.446,0.672,0.437,1.556-0.034,2.652
			c-0.47,1.098-1.198,2.362-2.183,3.795c-0.985,1.434-2.149,2.967-3.492,4.601c-1.344,1.635-2.664,3.324-3.963,5.07
			c-0.447,0.537-0.939,1.176-1.478,1.914c-0.537,0.739-1.052,1.501-1.544,2.283c-0.493,0.784-0.919,1.557-1.276,2.317
			c-0.359,0.762-0.582,1.456-0.672,2.082c-0.09,0.628,0.011,1.131,0.303,1.511c0.29,0.382,0.861,0.595,1.712,0.639
			c0.582,0.045,1.287-0.123,2.116-0.504c0.828-0.38,1.712-0.917,2.652-1.612c0.94-0.693,1.881-1.511,2.821-2.451
			c0.939-0.94,1.79-1.947,2.552-3.021c0.896-1.299,1.713-2.553,2.451-3.762c0.739-1.209,1.354-2.26,1.847-3.156
			c0.179-0.224,0.392-0.347,0.639-0.369c0.245-0.022,0.47,0.033,0.671,0.168c0.202,0.134,0.336,0.313,0.403,0.537
			c0.067,0.225,0.011,0.493-0.168,0.806c-0.762,1.165-1.478,2.351-2.149,3.56C175.196,168.209,174.479,169.374,173.719,170.492z"/>
		<path d="M199.105,157.262c-2.016,3.627-4.657,6.639-7.926,9.033c-3.269,2.396-6.873,4.13-10.812,5.205
			c-0.045,0.762,0,1.522,0.135,2.283c0.134,0.762,0.357,1.478,0.671,2.149c0.313,0.671,0.739,1.254,1.276,1.746
			c0.537,0.493,1.209,0.829,2.015,1.007c0.984,0.225,2.115,0.191,3.392-0.101c1.276-0.29,2.619-0.873,4.029-1.746
			c1.411-0.873,2.854-2.025,4.332-3.459c1.478-1.432,2.933-3.178,4.365-5.238c0.716-1.029,1.366-2.037,1.948-3.022
			c0.581-0.984,1.118-1.924,1.611-2.82c0.179-0.224,0.392-0.347,0.639-0.369c0.245-0.022,0.47,0.033,0.671,0.168
			c0.202,0.134,0.347,0.313,0.438,0.537c0.089,0.225,0.044,0.493-0.135,0.806c-0.628,0.985-1.299,2.06-2.015,3.224
			c-0.717,1.165-1.512,2.385-2.385,3.66c-0.873,1.276-1.836,2.553-2.888,3.828c-1.053,1.276-2.228,2.497-3.525,3.66
			c-1.3,1.165-2.553,2.049-3.762,2.653s-2.351,1.03-3.425,1.276c-1.074,0.245-2.038,0.38-2.888,0.402
			c-0.852,0.022-1.545,0.034-2.082,0.034c-3.046,0-5.418-0.807-7.119-2.418c-1.702-1.612-2.619-3.806-2.754-6.582
			c-0.09-2.552,0.37-5.093,1.377-7.623c1.008-2.528,2.63-5.271,4.869-8.227c0.716-0.94,1.679-1.958,2.888-3.056
			c1.209-1.097,2.553-2.116,4.03-3.056c1.478-0.94,3.044-1.701,4.701-2.284c1.655-0.581,3.312-0.85,4.97-0.806
			c1.074,0,2.003,0.247,2.787,0.739c0.783,0.493,1.354,1.152,1.713,1.98c0.357,0.829,0.458,1.792,0.302,2.889
			C200.392,154.834,199.911,156.009,199.105,157.262z M180.703,169.082c-0.045,0.09-0.067,0.18-0.067,0.269
			c3.627-1.029,6.895-2.675,9.806-4.937c2.91-2.26,5.261-5.093,7.052-8.495c0.626-1.299,0.783-2.406,0.47-3.325
			c-0.313-0.917-1.098-1.264-2.351-1.041c-1.88,0.359-3.649,1.209-5.306,2.553c-1.656,1.343-3.134,2.888-4.433,4.634
			s-2.396,3.549-3.29,5.406C181.688,166.004,181.061,167.649,180.703,169.082z"/>
		<path d="M230.199,157.329c0,0.313-0.112,0.561-0.336,0.738c-0.225,0.18-0.459,0.28-0.705,0.303s-0.46-0.056-0.638-0.235
			c-0.18-0.179-0.269-0.447-0.269-0.806c-0.091-0.447-0.168-1.019-0.235-1.713c-0.067-0.693-0.225-1.365-0.47-2.015
			c-0.247-0.648-0.639-1.22-1.176-1.713c-0.537-0.492-1.321-0.761-2.351-0.806c-1.254-0.044-2.475,0.201-3.66,0.738
			c-1.187,0.538-2.317,1.276-3.392,2.217s-2.082,2.026-3.022,3.257c-0.94,1.232-1.791,2.509-2.552,3.828
			c-0.762,1.321-1.422,2.643-1.981,3.963c-0.561,1.321-0.997,2.542-1.31,3.66c-0.225,0.762-0.403,1.679-0.537,2.754
			c-0.135,1.074-0.091,2.071,0.134,2.988c0.224,0.918,0.694,1.623,1.411,2.115c0.715,0.494,1.835,0.561,3.357,0.202
			c0.716-0.179,1.589-0.694,2.619-1.545c1.03-0.85,2.07-1.847,3.123-2.988c1.052-1.142,2.049-2.34,2.989-3.594
			c0.939-1.253,1.701-2.351,2.283-3.291c0.492-1.298,0.906-2.552,1.242-3.761s0.548-2.26,0.639-3.156
			c0.446-0.224,1.051-0.179,1.812,0.134c0.761,0.314,1.478,0.763,2.149,1.344c0.672,0.582,1.209,1.254,1.612,2.015
			c0.402,0.762,0.492,1.501,0.269,2.217c-0.269,0.671-0.594,1.478-0.974,2.417c-0.382,0.94-0.763,1.904-1.143,2.889
			c-0.381,0.985-0.738,1.959-1.074,2.921c-0.336,0.964-0.561,1.837-0.672,2.619c-0.112,0.784-0.112,1.422,0,1.914
			c0.111,0.493,0.414,0.762,0.907,0.807h0.806c1.521-0.447,2.943-1.253,4.265-2.418c1.32-1.164,2.552-2.485,3.694-3.963
			c1.142-1.478,2.192-3.022,3.156-4.634c0.962-1.612,1.847-3.09,2.652-4.433c0.135-0.224,0.336-0.347,0.604-0.369
			s0.504,0.033,0.705,0.168c0.202,0.134,0.347,0.313,0.437,0.537c0.09,0.225,0.045,0.493-0.134,0.806
			c-0.896,1.389-1.77,2.799-2.619,4.231c-0.852,1.434-1.746,2.82-2.687,4.164c-0.94,1.343-1.938,2.642-2.989,3.895
			c-1.052,1.255-2.205,2.396-3.458,3.426c-0.314,0.269-0.705,0.582-1.176,0.94c-0.47,0.358-1.007,0.694-1.611,1.007
			c-0.604,0.314-1.254,0.571-1.948,0.772s-1.443,0.279-2.25,0.235c-1.254-0.091-2.272-0.403-3.056-0.94s-1.377-1.23-1.779-2.082
			c-0.403-0.85-0.616-1.813-0.639-2.888c-0.022-1.075,0.123-2.171,0.437-3.291c-0.896,1.12-1.847,2.216-2.854,3.291
			c-1.008,1.074-2.049,2.038-3.123,2.888c-1.075,0.852-2.173,1.534-3.291,2.049c-1.12,0.515-2.217,0.728-3.291,0.638
			c-1.926-0.089-3.415-0.548-4.466-1.377c-1.053-0.828-1.825-1.802-2.317-2.921c-0.493-1.119-0.772-2.284-0.84-3.493
			c-0.066-1.209-0.033-2.216,0.102-3.021c0.223-1.567,0.715-3.291,1.478-5.172c0.761-1.88,1.746-3.749,2.955-5.607
			c1.208-1.857,2.607-3.627,4.197-5.306c1.589-1.68,3.291-3.09,5.104-4.231c1.813-1.142,3.705-1.947,5.676-2.418
			c1.97-0.47,3.984-0.437,6.044,0.101c0.896,0.269,1.623,0.705,2.183,1.31s0.996,1.321,1.31,2.149
			c0.313,0.829,0.515,1.725,0.604,2.687C230.222,155.438,230.243,156.389,230.199,157.329z"/>
		<path d="M243.43,148.464c-0.313,0.09-0.582,0.09-0.806,0c-0.225-0.089-0.381-0.235-0.471-0.437s-0.09-0.425,0-0.672
			c0.09-0.245,0.269-0.458,0.537-0.638c3.269-2.104,6.626-3.872,10.074-5.306c1.299-2.687,2.385-5.172,3.258-7.455
			s1.555-4.365,2.048-6.246c0.447-0.224,1.052-0.189,1.813,0.101c0.761,0.292,1.478,0.717,2.149,1.276
			c0.672,0.561,1.209,1.221,1.611,1.981c0.403,0.762,0.471,1.5,0.202,2.216c-0.18,0.493-0.481,1.209-0.907,2.149
			s-0.951,2.038-1.578,3.291c4.477-0.984,9-1.388,13.566-1.209c0.135,0.358,0.168,0.762,0.101,1.209
			c-0.066,0.448-0.201,0.862-0.402,1.242c-0.202,0.381-0.46,0.695-0.772,0.94c-0.313,0.247-0.628,0.348-0.94,0.302
			c-2.239-0.134-4.444-0.122-6.615,0.034c-2.172,0.157-4.399,0.481-6.683,0.974c-0.493,1.03-1.007,2.06-1.545,3.09
			c-0.537,1.03-1.052,2.037-1.544,3.021c-0.314,0.628-0.896,1.78-1.747,3.459s-1.803,3.593-2.854,5.742
			c-1.053,2.149-2.094,4.411-3.123,6.783c-1.03,2.374-1.87,4.545-2.519,6.515c-0.649,1.971-1.02,3.604-1.108,4.902
			c-0.09,1.3,0.291,1.971,1.142,2.016h0.806c1.522-0.447,2.944-1.253,4.265-2.418c1.32-1.164,2.541-2.485,3.661-3.963
			c1.118-1.478,2.159-3.022,3.122-4.634c0.963-1.612,1.869-3.09,2.721-4.433c0.134-0.224,0.324-0.347,0.57-0.369
			s0.471,0.033,0.672,0.168c0.201,0.134,0.347,0.313,0.437,0.537c0.089,0.225,0.044,0.493-0.134,0.806
			c-0.896,1.389-1.77,2.799-2.62,4.231c-0.851,1.434-1.735,2.82-2.652,4.164c-0.918,1.343-1.903,2.642-2.955,3.895
			c-1.053,1.255-2.206,2.396-3.459,3.426c-0.313,0.269-0.717,0.582-1.209,0.94c-0.493,0.358-1.041,0.683-1.646,0.974
			c-0.604,0.292-1.254,0.537-1.947,0.738c-0.694,0.202-1.444,0.303-2.25,0.303c-0.94-0.045-1.735-0.303-2.384-0.772
			c-0.65-0.47-1.142-1.108-1.478-1.914s-0.538-1.734-0.604-2.787c-0.067-1.052,0.01-2.16,0.234-3.324
			c0.358-2.462,0.94-4.869,1.746-7.22c0.807-2.351,1.724-4.679,2.754-6.985c1.029-2.306,2.149-4.601,3.358-6.884
			s2.395-4.589,3.56-6.917l0.201-0.403c-1.254,0.493-2.519,1.03-3.795,1.611C246.016,147.099,244.728,147.748,243.43,148.464z"/>
		<path d="M266.936,148.263c0.446-0.224,1.04-0.19,1.779,0.101c0.738,0.291,1.41,0.728,2.015,1.31s1.075,1.254,1.41,2.015
			c0.336,0.762,0.347,1.501,0.034,2.216c-0.269,0.628-0.817,1.636-1.646,3.022c-0.829,1.389-1.725,2.967-2.687,4.735
			c-0.964,1.769-1.938,3.593-2.922,5.474c-0.985,1.88-1.779,3.604-2.384,5.171c-0.604,1.567-0.964,2.854-1.074,3.861
			c-0.112,1.008,0.234,1.534,1.041,1.579h0.738c1.612-0.447,3.111-1.22,4.5-2.317c1.387-1.097,2.696-2.339,3.929-3.728
			c1.23-1.387,2.395-2.843,3.492-4.365c1.097-1.521,2.115-2.955,3.056-4.299c0.179-0.223,0.403-0.346,0.672-0.369
			c0.269-0.021,0.492,0.023,0.672,0.135c0.178,0.112,0.29,0.291,0.336,0.537c0.044,0.246-0.067,0.526-0.336,0.84
			c-1.881,2.91-3.807,5.607-5.776,8.093c-1.971,2.484-4.321,4.779-7.052,6.884c-0.358,0.269-0.783,0.582-1.275,0.94
			c-0.494,0.358-1.053,0.683-1.68,0.974c-0.627,0.292-1.31,0.537-2.048,0.738c-0.739,0.202-1.489,0.303-2.25,0.303
			c-0.94-0.045-1.702-0.312-2.283-0.806c-0.582-0.492-1.008-1.143-1.276-1.948s-0.38-1.723-0.336-2.754
			c0.045-1.029,0.247-2.126,0.604-3.29c0.448-1.612,1.142-3.515,2.082-5.709c0.94-2.193,1.947-4.443,3.022-6.75
			c1.074-2.305,2.126-4.566,3.156-6.783C265.479,151.855,266.308,149.919,266.936,148.263z M273.383,129.726
			c0.402-0.044,0.939,0.18,1.611,0.672c0.672,0.493,1.332,1.074,1.981,1.746c0.648,0.672,1.197,1.354,1.646,2.049
			c0.447,0.694,0.672,1.175,0.672,1.443c-0.225,0.852-0.549,1.713-0.975,2.586s-0.873,1.77-1.343,2.687
			c-0.47,0.918-0.93,1.825-1.377,2.72c-0.448,0.896-0.784,1.792-1.007,2.687c-0.359-0.044-0.751-0.245-1.176-0.604
			c-0.426-0.357-0.817-0.772-1.175-1.242c-0.359-0.47-0.661-0.94-0.907-1.41c-0.246-0.471-0.369-0.884-0.369-1.243
			c0.044-0.761,0.179-1.634,0.402-2.619c0.224-0.984,0.481-2.015,0.772-3.089c0.291-1.075,0.56-2.16,0.807-3.258
			C273.191,131.752,273.337,130.711,273.383,129.726z"/>
		<path d="M283.389,148.263c0.446-0.224,1.041-0.19,1.779,0.101c0.739,0.291,1.444,0.728,2.115,1.31
			c0.672,0.582,1.209,1.254,1.612,2.015c0.403,0.762,0.492,1.501,0.269,2.216c-0.225,0.628-0.661,1.657-1.31,3.09
			c-0.649,1.434-1.377,3.045-2.183,4.836s-1.612,3.66-2.418,5.607s-1.511,3.717-2.115,5.306c-0.604,1.59-1.02,2.899-1.243,3.929
			c-0.224,1.03-0.134,1.545,0.27,1.545c0.715-0.044,1.812-0.693,3.29-1.947c1.478-1.253,3.09-2.854,4.836-4.803
			c1.746-1.947,3.56-4.097,5.44-6.447c1.88-2.351,3.581-4.645,5.104-6.884c1.521-2.238,2.787-4.265,3.795-6.078
			c1.007-1.813,1.555-3.167,1.646-4.063c0.134-0.223,0.336-0.134,0.604,0.27c0.269,0.402,0.514,0.93,0.738,1.578
			c0.224,0.649,0.369,1.31,0.437,1.98c0.067,0.672,0.011,1.165-0.168,1.478c-0.939,1.344-2.093,3.001-3.458,4.971
			c-1.367,1.971-2.889,4.041-4.567,6.212c-1.679,2.172-3.448,4.321-5.306,6.447c-1.858,2.127-3.728,4.053-5.607,5.776
			c-1.881,1.724-3.739,3.112-5.575,4.164s-3.559,1.555-5.171,1.511c-0.717,0-1.354-0.18-1.914-0.537
			c-0.56-0.358-0.984-0.896-1.276-1.612c-0.29-0.716-0.425-1.578-0.402-2.586c0.022-1.007,0.28-2.183,0.772-3.525
			c0.537-1.521,1.275-3.414,2.216-5.675s1.914-4.611,2.922-7.052c1.007-2.44,1.958-4.824,2.854-7.153
			C282.269,151.912,282.94,149.919,283.389,148.263z"/>
		<path d="M327.379,157.262c-2.016,3.627-4.657,6.639-7.926,9.033c-3.269,2.396-6.873,4.13-10.812,5.205
			c-0.045,0.762,0,1.522,0.135,2.283c0.134,0.762,0.357,1.478,0.671,2.149c0.313,0.671,0.739,1.254,1.276,1.746
			c0.537,0.493,1.209,0.829,2.015,1.007c0.984,0.225,2.115,0.191,3.392-0.101c1.276-0.29,2.619-0.873,4.029-1.746
			c1.411-0.873,2.854-2.025,4.332-3.459c1.478-1.432,2.933-3.178,4.365-5.238c0.716-1.029,1.366-2.037,1.948-3.022
			c0.581-0.984,1.118-1.924,1.611-2.82c0.179-0.224,0.392-0.347,0.639-0.369c0.245-0.022,0.47,0.033,0.671,0.168
			c0.202,0.134,0.347,0.313,0.438,0.537c0.089,0.225,0.044,0.493-0.135,0.806c-0.628,0.985-1.299,2.06-2.015,3.224
			c-0.717,1.165-1.512,2.385-2.385,3.66c-0.873,1.276-1.836,2.553-2.888,3.828c-1.053,1.276-2.228,2.497-3.525,3.66
			c-1.3,1.165-2.553,2.049-3.762,2.653s-2.351,1.03-3.425,1.276c-1.074,0.245-2.038,0.38-2.888,0.402
			c-0.852,0.022-1.545,0.034-2.082,0.034c-3.046,0-5.418-0.807-7.119-2.418c-1.702-1.612-2.619-3.806-2.754-6.582
			c-0.09-2.552,0.37-5.093,1.377-7.623c1.008-2.528,2.63-5.271,4.869-8.227c0.716-0.94,1.679-1.958,2.888-3.056
			c1.209-1.097,2.553-2.116,4.03-3.056c1.478-0.94,3.044-1.701,4.701-2.284c1.655-0.581,3.312-0.85,4.97-0.806
			c1.074,0,2.003,0.247,2.787,0.739c0.783,0.493,1.354,1.152,1.713,1.98c0.357,0.829,0.458,1.792,0.302,2.889
			C328.665,154.834,328.185,156.009,327.379,157.262z M308.977,169.082c-0.045,0.09-0.067,0.18-0.067,0.269
			c3.627-1.029,6.895-2.675,9.806-4.937c2.91-2.26,5.261-5.093,7.052-8.495c0.626-1.299,0.783-2.406,0.47-3.325
			c-0.313-0.917-1.098-1.264-2.351-1.041c-1.88,0.359-3.649,1.209-5.306,2.553c-1.656,1.343-3.134,2.888-4.433,4.634
			s-2.396,3.549-3.29,5.406C309.961,166.004,309.334,167.649,308.977,169.082z"/>
		<path d="M388.828,119.518c2.821-0.179,5.463,0.099,7.926,0.831c2.461,0.732,4.61,1.864,6.447,3.392
			c1.835,1.528,3.312,3.434,4.433,5.717c1.118,2.284,1.746,4.881,1.88,7.791c0.179,3.537-0.336,7.265-1.544,11.182
			c-1.209,3.919-2.922,7.803-5.139,11.652c-2.216,3.852-4.869,7.546-7.958,11.082c-3.09,3.537-6.437,6.672-10.041,9.402
			s-7.354,4.947-11.249,6.648s-7.79,2.642-11.686,2.821c-1.568,0.089-3.235-0.057-5.004-0.437c-1.77-0.381-3.459-1.02-5.07-1.914
			c-1.612-0.896-3.09-2.06-4.433-3.492c-1.344-1.434-2.374-3.179-3.09-5.239c-0.179-0.85-0.022-1.611,0.471-2.283
			c0.492-0.671,1.108-1.209,1.847-1.611c0.739-0.403,1.511-0.639,2.317-0.705c0.806-0.067,1.41,0.078,1.813,0.437
			c0.223,2.015,0.727,3.784,1.511,5.306c0.783,1.522,1.757,2.764,2.922,3.727c1.163,0.963,2.451,1.656,3.861,2.082
			s2.854,0.548,4.332,0.37c2.552-0.359,5.294-1.355,8.227-2.989s5.854-3.693,8.765-6.179c2.91-2.484,5.697-5.306,8.361-8.462
			s5.025-6.47,7.086-9.939c2.059-3.47,3.704-6.995,4.937-10.578c1.23-3.581,1.847-7.052,1.847-10.41
			c0-2.283-0.336-4.376-1.008-6.279c-0.672-1.902-1.602-3.548-2.787-4.937c-1.187-1.387-2.608-2.473-4.265-3.258
			c-1.657-0.784-3.492-1.153-5.507-1.107c-3.09,0.091-6.202,0.94-9.336,2.552c-3.134,1.612-6.168,3.684-9.1,6.213
			c-2.934,2.53-5.676,5.373-8.228,8.529s-4.758,6.291-6.615,9.402c-1.858,3.112-3.303,6.067-4.332,8.865
			c-1.03,2.799-1.478,5.116-1.343,6.951c0.044,0.537-0.091,0.851-0.403,0.94c-0.313,0.09-0.717-0.022-1.209-0.336
			c-0.493-0.312-1.007-0.761-1.544-1.343c-0.538-0.582-1.008-1.276-1.411-2.082c-0.402-0.807-0.683-1.668-0.839-2.586
			c-0.158-0.917-0.079-1.869,0.234-2.854c0.896-2.999,2.116-5.966,3.66-8.898c1.545-2.933,3.347-5.742,5.407-8.429
			c2.059-2.687,4.376-5.182,6.951-7.488c2.573-2.306,5.339-4.32,8.294-6.045c2.955-1.723,6.078-3.11,9.369-4.159
			C381.878,120.319,385.291,119.702,388.828,119.518z M378.217,127.778c0.179-0.312,0.615-0.279,1.31,0.101
			c0.694,0.381,1.399,0.918,2.116,1.612c0.716,0.694,1.31,1.489,1.779,2.384c0.471,0.896,0.571,1.702,0.303,2.418
			c-4.701,7.881-8.933,15.884-12.693,24.01s-6.985,15.95-9.671,23.473c-0.091,0.312-0.348,0.279-0.772-0.101
			c-0.427-0.38-0.863-0.907-1.31-1.578c-0.448-0.672-0.84-1.365-1.176-2.082c-0.336-0.716-0.46-1.231-0.369-1.545
			c0.85-3.492,2.048-7.364,3.593-11.619c1.545-4.253,3.258-8.562,5.138-12.928c1.881-4.366,3.839-8.641,5.877-12.828
			C374.378,134.909,376.337,131.137,378.217,127.778z"/>
		<path d="M430.805,157.262c-2.016,3.627-4.657,6.639-7.926,9.033c-3.269,2.396-6.873,4.13-10.812,5.205
			c-0.045,0.762,0,1.522,0.135,2.283c0.134,0.762,0.357,1.478,0.671,2.149c0.313,0.671,0.739,1.254,1.276,1.746
			c0.537,0.493,1.209,0.829,2.015,1.007c0.984,0.225,2.115,0.191,3.392-0.101c1.276-0.29,2.619-0.873,4.029-1.746
			c1.411-0.873,2.854-2.025,4.332-3.459c1.478-1.432,2.933-3.178,4.365-5.238c0.716-1.029,1.366-2.037,1.948-3.022
			c0.581-0.984,1.118-1.924,1.611-2.82c0.179-0.224,0.392-0.347,0.639-0.369c0.245-0.022,0.47,0.033,0.671,0.168
			c0.202,0.134,0.347,0.313,0.438,0.537c0.089,0.225,0.044,0.493-0.135,0.806c-0.628,0.985-1.299,2.06-2.015,3.224
			c-0.717,1.165-1.512,2.385-2.385,3.66c-0.873,1.276-1.836,2.553-2.888,3.828c-1.053,1.276-2.228,2.497-3.525,3.66
			c-1.3,1.165-2.553,2.049-3.762,2.653s-2.351,1.03-3.425,1.276c-1.074,0.245-2.038,0.38-2.888,0.402
			c-0.852,0.022-1.545,0.034-2.082,0.034c-3.046,0-5.418-0.807-7.119-2.418c-1.702-1.612-2.619-3.806-2.754-6.582
			c-0.09-2.552,0.37-5.093,1.377-7.623c1.008-2.528,2.63-5.271,4.869-8.227c0.716-0.94,1.679-1.958,2.888-3.056
			c1.209-1.097,2.553-2.116,4.03-3.056c1.478-0.94,3.044-1.701,4.701-2.284c1.655-0.581,3.312-0.85,4.97-0.806
			c1.074,0,2.003,0.247,2.787,0.739c0.783,0.493,1.354,1.152,1.713,1.98c0.357,0.829,0.458,1.792,0.302,2.889
			C432.091,154.834,431.61,156.009,430.805,157.262z M412.402,169.082c-0.045,0.09-0.067,0.18-0.067,0.269
			c3.627-1.029,6.895-2.675,9.806-4.937c2.91-2.26,5.261-5.093,7.052-8.495c0.626-1.299,0.783-2.406,0.47-3.325
			c-0.313-0.917-1.098-1.264-2.351-1.041c-1.88,0.359-3.649,1.209-5.306,2.553c-1.656,1.343-3.134,2.888-4.433,4.634
			s-2.396,3.549-3.29,5.406C413.387,166.004,412.76,167.649,412.402,169.082z"/>
		<path d="M429.191,174.253c0-1.566,0.393-3.1,1.176-4.6s1.757-2.653,2.921-3.459c1.433-2.283,2.877-4.556,4.332-6.817
			c1.454-2.26,3.056-4.533,4.802-6.816c0.537-0.761,1.052-1.5,1.545-2.216c0.492-0.716,1.008-1.444,1.545-2.184
			c0.537-0.738,1.163-1.487,1.88-2.249c0.716-0.762,1.589-1.589,2.619-2.485c0.492,0.225,1.097,0.537,1.813,0.94
			c0.716,0.402,1.365,0.851,1.948,1.343c0.581,0.493,0.995,0.974,1.242,1.444c0.245,0.47,0.145,0.885-0.303,1.242
			c-0.537,0.493-0.951,0.896-1.242,1.209c-0.292,0.313-0.549,0.616-0.772,0.906c-0.225,0.292-0.448,0.616-0.671,0.975
			c-0.225,0.358-0.538,0.829-0.94,1.41c-0.94,1.434-1.602,2.921-1.981,4.466c-0.381,1.545-0.582,3.123-0.604,4.735
			c-0.023,1.611,0.033,3.235,0.168,4.869c0.135,1.635,0.245,3.257,0.336,4.869c0.044,1.611-0.18,3.089-0.672,4.433
			c-0.493,1.343-1.221,2.484-2.183,3.425c-0.963,0.94-2.105,1.657-3.425,2.149c-1.321,0.492-2.743,0.693-4.265,0.604
			c-1.612-0.135-3.001-0.437-4.164-0.907c-1.165-0.47-2.127-1.074-2.888-1.813c-0.762-0.738-1.32-1.578-1.68-2.519
			C429.371,176.269,429.191,175.284,429.191,174.253z M444.235,153.971c-1.343,1.612-2.664,3.448-3.963,5.508
			s-2.508,3.985-3.626,5.775c0.312,0,0.626,0.045,0.94,0.134c0.312,0.091,0.648,0.202,1.007,0.336
			c0.135,0.18,0.347,0.538,0.638,1.075s0.571,1.107,0.84,1.712s0.48,1.165,0.638,1.68s0.168,0.839,0.034,0.974
			c-0.537-0.447-1.187-0.728-1.948-0.84c-0.762-0.111-1.511-0.077-2.249,0.101c-0.739,0.18-1.444,0.46-2.116,0.84
			c-0.671,0.381-1.209,0.862-1.611,1.444c-0.403,0.582-0.628,1.242-0.672,1.98c-0.044,0.739,0.201,1.512,0.738,2.317
			c0.538,0.896,1.243,1.557,2.116,1.981c0.873,0.426,1.734,0.661,2.586,0.705c0.939,0.09,1.746-0.033,2.417-0.369
			c0.672-0.336,1.231-0.816,1.68-1.444c0.446-0.626,0.772-1.354,0.974-2.183c0.201-0.828,0.302-1.689,0.302-2.586
			c0-1.387-0.101-2.843-0.302-4.365c-0.201-1.521-0.325-3.089-0.369-4.701c-0.046-1.611,0.044-3.257,0.269-4.937
			C442.78,157.43,443.339,155.717,444.235,153.971z"/>
		<path d="M462.771,148.263c0.446-0.224,1.04-0.19,1.779,0.101c0.738,0.291,1.41,0.728,2.015,1.31s1.075,1.254,1.41,2.015
			c0.336,0.762,0.347,1.501,0.034,2.216c-0.269,0.628-0.817,1.636-1.646,3.022c-0.829,1.389-1.725,2.967-2.687,4.735
			c-0.964,1.769-1.938,3.593-2.922,5.474c-0.985,1.88-1.779,3.604-2.384,5.171c-0.604,1.567-0.964,2.854-1.074,3.861
			c-0.112,1.008,0.234,1.534,1.041,1.579h0.738c1.612-0.447,3.111-1.22,4.5-2.317c1.387-1.097,2.696-2.339,3.929-3.728
			c1.23-1.387,2.395-2.843,3.492-4.365c1.097-1.521,2.115-2.955,3.056-4.299c0.179-0.223,0.403-0.346,0.672-0.369
			c0.269-0.021,0.492,0.023,0.672,0.135c0.178,0.112,0.29,0.291,0.336,0.537c0.044,0.246-0.067,0.526-0.336,0.84
			c-1.881,2.91-3.807,5.607-5.776,8.093c-1.971,2.484-4.321,4.779-7.052,6.884c-0.358,0.269-0.783,0.582-1.275,0.94
			c-0.494,0.358-1.053,0.683-1.68,0.974c-0.627,0.292-1.31,0.537-2.048,0.738c-0.739,0.202-1.489,0.303-2.25,0.303
			c-0.94-0.045-1.702-0.312-2.283-0.806c-0.582-0.492-1.008-1.143-1.276-1.948s-0.38-1.723-0.336-2.754
			c0.045-1.029,0.247-2.126,0.604-3.29c0.448-1.612,1.142-3.515,2.082-5.709c0.94-2.193,1.947-4.443,3.022-6.75
			c1.074-2.305,2.126-4.566,3.156-6.783C461.315,151.855,462.144,149.919,462.771,148.263z M469.219,129.726
			c0.402-0.044,0.939,0.18,1.611,0.672c0.672,0.493,1.332,1.074,1.981,1.746c0.648,0.672,1.197,1.354,1.646,2.049
			c0.447,0.694,0.672,1.175,0.672,1.443c-0.225,0.852-0.549,1.713-0.975,2.586s-0.873,1.77-1.343,2.687
			c-0.47,0.918-0.93,1.825-1.377,2.72c-0.448,0.896-0.784,1.792-1.007,2.687c-0.359-0.044-0.751-0.245-1.176-0.604
			c-0.426-0.357-0.817-0.772-1.175-1.242c-0.359-0.47-0.661-0.94-0.907-1.41c-0.246-0.471-0.369-0.884-0.369-1.243
			c0.044-0.761,0.179-1.634,0.402-2.619c0.224-0.984,0.481-2.015,0.772-3.089c0.291-1.075,0.56-2.16,0.807-3.258
			C469.027,131.752,469.173,130.711,469.219,129.726z"/>
		<path d="M487.015,190.627c2.06,1.026,4.119,2.12,6.179,3.281c2.06,1.159,4.477,2.231,7.254,3.213
			c0.312,0.09,0.269,0.446-0.135,1.072c-0.403,0.624-0.997,1.215-1.779,1.774c-0.784,0.557-1.69,0.97-2.721,1.238
			c-1.03,0.268-2.037,0.089-3.021-0.535c-1.702-1.027-3.27-2.01-4.701-2.947c-1.434-0.938-2.799-1.786-4.098-2.544
			c-1.299,1.83-2.63,3.515-3.995,5.056c-1.367,1.539-2.866,2.878-4.5,4.017c-1.635,1.138-3.426,2.03-5.373,2.678
			c-1.947,0.646-4.107,0.993-6.481,1.038c-1.298,0-2.585-0.112-3.861-0.335c-1.276-0.224-2.439-0.637-3.492-1.238
			c-1.052-0.604-1.925-1.418-2.619-2.443c-0.694-1.027-1.085-2.322-1.176-3.884c-0.089-1.965,0.336-3.783,1.276-5.456
			c0.94-1.675,2.228-3.125,3.861-4.352c1.636-1.229,3.526-2.188,5.676-2.88c2.148-0.692,4.365-1.038,6.648-1.038
			c1.388,0,2.63,0.045,3.728,0.135c1.097,0.088,2.126,0.233,3.089,0.435c0.963,0.2,1.881,0.435,2.754,0.703
			c0.873,0.268,1.78,0.558,2.72,0.871c0.984-2.011,1.903-4.023,2.754-6.038c0.85-2.016,1.723-3.963,2.619-5.844
			c-1.478,1.523-3.022,2.799-4.634,3.828c-1.612,1.031-3.202,1.501-4.769,1.411c-1.926-0.09-3.415-0.548-4.466-1.377
			c-1.053-0.828-1.825-1.802-2.317-2.922c-0.493-1.118-0.772-2.283-0.84-3.492c-0.066-1.209-0.033-2.216,0.102-3.022
			c0.223-1.566,0.715-3.29,1.478-5.171c0.761-1.881,1.746-3.75,2.955-5.608c1.208-1.857,2.607-3.626,4.197-5.306
			c1.589-1.679,3.291-3.089,5.104-4.23c1.813-1.142,3.705-1.948,5.676-2.418c1.97-0.47,3.984-0.437,6.044,0.101
			c0.896,0.269,1.623,0.705,2.183,1.31s0.996,1.321,1.31,2.149c0.313,0.829,0.515,1.724,0.604,2.687s0.111,1.914,0.067,2.854
			c0,0.313-0.112,0.56-0.336,0.738c-0.225,0.18-0.459,0.28-0.705,0.303s-0.46-0.056-0.638-0.235
			c-0.18-0.179-0.269-0.447-0.269-0.806c-0.091-0.447-0.168-1.019-0.235-1.713c-0.067-0.693-0.225-1.365-0.47-2.015
			c-0.247-0.648-0.639-1.22-1.176-1.713c-0.537-0.492-1.321-0.761-2.351-0.806c-1.254-0.044-2.475,0.201-3.66,0.738
			c-1.187,0.537-2.317,1.276-3.392,2.217s-2.082,2.026-3.022,3.257c-0.94,1.232-1.791,2.508-2.552,3.828
			c-0.762,1.321-1.422,2.643-1.981,3.963c-0.561,1.321-0.997,2.541-1.31,3.66c-0.225,0.762-0.403,1.679-0.537,2.754
			c-0.135,1.074-0.091,2.071,0.134,2.988c0.224,0.918,0.694,1.623,1.411,2.115c0.715,0.493,1.835,0.561,3.357,0.202
			c0.627-0.135,1.365-0.538,2.217-1.209c0.85-0.672,1.723-1.467,2.619-2.385c0.895-0.917,1.779-1.914,2.652-2.988
			s1.646-2.082,2.317-3.022c0.716-1.566,1.388-3.123,2.015-4.668c0.627-1.544,0.984-2.898,1.075-4.062
			c0.446-0.224,1.085-0.179,1.914,0.134c0.827,0.314,1.622,0.772,2.384,1.377c0.761,0.604,1.377,1.299,1.847,2.082
			c0.471,0.784,0.571,1.534,0.303,2.25L487.015,190.627z M467.404,205.214c2.82-1.03,5.227-2.619,7.22-4.768
			c1.991-2.149,3.771-4.635,5.339-7.455c-1.567-0.717-3.135-1.266-4.701-1.646c-1.567-0.381-3.291-0.594-5.171-0.638
			c-1.612-0.046-3.335,0.111-5.172,0.47c-1.835,0.357-3.515,0.917-5.037,1.679c-1.521,0.761-2.775,1.724-3.761,2.889
			c-0.984,1.163-1.454,2.528-1.41,4.097c0.045,1.566,0.515,2.809,1.41,3.728c0.896,0.917,1.981,1.566,3.257,1.947
			c1.276,0.38,2.643,0.525,4.098,0.437C464.931,205.863,466.24,205.617,467.404,205.214z"/>
		<path d="M537.451,172.943c-1.074,1.456-2.25,2.854-3.525,4.198c-1.276,1.343-2.631,2.496-4.063,3.458
			c-1.434,0.964-2.821,1.444-4.164,1.444c-0.762,0-1.511-0.135-2.25-0.403c-0.738-0.269-1.377-0.671-1.914-1.209
			c-0.537-0.537-0.963-1.23-1.276-2.081s-0.447-1.857-0.402-3.022c0.044-1.164,0.201-2.317,0.47-3.459s0.615-2.351,1.041-3.627
			c0.425-1.275,0.951-2.663,1.578-4.164c0.627-1.499,1.32-3.167,2.082-5.003c0.492-1.164,0.873-2.227,1.142-3.19
			c0.269-0.962,0.313-1.667,0.135-2.115c-0.18-0.447-0.649-0.525-1.41-0.235c-0.762,0.292-1.926,1.108-3.492,2.451
			c-1.747,1.568-3.291,3.067-4.635,4.5c-1.343,1.434-2.731,3.022-4.164,4.769c-1.119,2.598-2.06,5.228-2.82,7.892
			c-0.762,2.664-1.254,5.474-1.478,8.429c0,0.313-0.247,0.402-0.739,0.269c-0.493-0.135-1.04-0.37-1.645-0.705
			c-0.604-0.336-1.153-0.728-1.646-1.176c-0.492-0.447-0.761-0.85-0.807-1.209c0.135-2.642,0.548-5.227,1.243-7.757
			c0.693-2.529,1.487-5.06,2.384-7.589c0.896-2.529,1.835-5.048,2.821-7.556c0.983-2.507,1.856-5.037,2.619-7.589
			c0.446-0.224,1.041-0.19,1.779,0.101c0.739,0.291,1.444,0.728,2.115,1.31c0.672,0.582,1.209,1.254,1.612,2.015
			c0.403,0.762,0.492,1.501,0.269,2.216c-0.135,0.493-0.313,0.964-0.537,1.411c-0.225,0.447-0.471,0.918-0.739,1.41
			c0.94-1.029,1.948-2.037,3.022-3.022c1.074-0.984,2.171-1.869,3.291-2.652c1.118-0.783,2.261-1.421,3.425-1.914
			c1.164-0.492,2.351-0.783,3.56-0.873c0.492,0,1.019,0.19,1.578,0.57c0.56,0.381,1.052,0.852,1.478,1.41
			c0.426,0.561,0.75,1.153,0.975,1.78c0.224,0.627,0.245,1.187,0.066,1.679c-1.119,3.046-2.148,5.608-3.089,7.69
			c-0.94,2.081-1.77,3.94-2.485,5.574c-0.717,1.635-1.299,3.201-1.746,4.701c-0.448,1.5-0.738,3.189-0.873,5.07
			c0,0.135,0.022,0.292,0.067,0.47c0.044,0.18,0.145,0.336,0.302,0.471c0.157,0.134,0.392,0.201,0.706,0.201
			c0.312,0,0.715-0.111,1.208-0.336c1.299-0.626,2.854-1.723,4.668-3.291c1.813-1.566,3.593-3.648,5.339-6.245
			c0.672-0.984,1.287-1.959,1.848-2.922c0.559-0.962,1.107-1.891,1.646-2.787c0.134-0.224,0.324-0.347,0.57-0.369
			s0.471,0.033,0.672,0.168c0.201,0.134,0.336,0.313,0.403,0.537c0.066,0.225,0.01,0.493-0.168,0.806l-3.493,5.843
			C539.376,170.269,538.525,171.489,537.451,172.943z"/>
		<path d="M641.146,121.801c0.179-0.269,0.627-0.245,1.344,0.067c0.715,0.313,1.443,0.796,2.183,1.444
			c0.738,0.649,1.343,1.399,1.813,2.25c0.47,0.851,0.57,1.656,0.302,2.417c-1.926,2.329-3.852,4.96-5.775,7.892
			c-1.926,2.933-3.795,6.034-5.608,9.302c-1.813,3.269-3.549,6.639-5.205,10.107c-1.656,3.471-3.18,6.884-4.566,10.242
			c1.387,0.762,2.798,1.511,4.23,2.25c1.433,0.738,2.933,1.444,4.5,2.115c0.312,0.091,0.403,0.259,0.269,0.504
			c-0.134,0.247-0.358,0.516-0.671,0.806c-0.314,0.292-0.684,0.561-1.108,0.807c-0.427,0.246-0.796,0.392-1.108,0.437l-7.455-3.627
			c-1.791,4.478-3.257,8.642-4.398,12.492c-1.142,3.85-1.87,7.118-2.183,9.805c-0.046,0.358-0.269,0.336-0.672-0.066
			c-0.403-0.403-0.84-0.931-1.31-1.579c-0.471-0.649-0.885-1.332-1.242-2.048c-0.359-0.717-0.516-1.254-0.471-1.612
			c0.089-2.373,0.571-5.227,1.444-8.562c0.873-3.335,2.025-6.974,3.459-10.914c-1.926-0.895-3.795-1.712-5.608-2.451
			c-1.813-0.738-3.66-1.421-5.541-2.048c-2.82,3.717-5.843,7.265-9.066,10.645c-3.224,3.381-6.515,6.358-9.872,8.933
			c-3.358,2.574-6.717,4.634-10.074,6.179c-3.358,1.544-6.538,2.316-9.537,2.316c-5.373,0-9.392-0.963-12.056-2.888
			c-2.664-1.926-3.996-5.104-3.996-9.536c0-3.447,0.918-6.616,2.754-9.504s4.265-5.395,7.287-7.521
			c3.022-2.126,6.424-3.816,10.208-5.071c3.783-1.253,7.623-1.991,11.519-2.216c4.029-0.224,7.667-0.123,10.913,0.302
			c3.246,0.427,6.279,1.087,9.101,1.981c1.97-2.775,3.783-5.518,5.439-8.227s3.078-5.261,4.265-7.656s2.127-4.556,2.821-6.481
			c0.693-1.925,1.085-3.492,1.175-4.701c0.179-2.462-0.325-4.131-1.511-5.004c-1.187-0.873-2.832-1.286-4.937-1.242
			c-3.18,0-6.156,0.717-8.932,2.149c-2.777,1.434-5.284,3.303-7.522,5.607c-2.239,2.307-4.164,4.915-5.775,7.824
			c-1.612,2.911-2.844,5.844-3.694,8.798c-0.134,0.314-0.537,0.695-1.209,1.143c-0.671,0.447-1.377,0.839-2.115,1.175
			c-0.739,0.336-1.4,0.571-1.981,0.705c-0.582,0.135-0.829,0.023-0.738-0.336c0.178-0.939,0.336-1.712,0.47-2.316
			c0.135-0.604,0.279-1.164,0.437-1.68c0.156-0.514,0.358-1.051,0.604-1.611c0.246-0.56,0.593-1.287,1.041-2.183
			c1.298-2.687,2.988-5.34,5.07-7.959s4.399-4.98,6.951-7.085c2.553-2.104,5.294-3.816,8.228-5.138
			c2.932-1.32,5.898-2.025,8.898-2.116c1.701-0.044,3.279,0.18,4.735,0.672c1.454,0.493,2.708,1.198,3.761,2.115
			c1.052,0.919,1.869,2.038,2.451,3.358c0.581,1.321,0.828,2.787,0.739,4.399c-0.091,1.702-0.46,3.626-1.108,5.775
			c-0.649,2.149-1.534,4.433-2.653,6.851s-2.44,4.937-3.962,7.556c-1.522,2.619-3.202,5.228-5.037,7.824
			c1.656,0.762,3.268,1.544,4.835,2.351c1.567,0.806,3.134,1.656,4.702,2.552c1.477-3.716,3.089-7.511,4.835-11.384
			c1.746-3.872,3.548-7.611,5.406-11.216c1.857-3.604,3.683-6.973,5.474-10.107C637.898,126.727,639.578,124.04,641.146,121.801z
			 M565.657,185.335c2.999,0,6.066-0.694,9.201-2.082c3.134-1.388,6.234-3.246,9.302-5.574c3.066-2.328,6.055-4.992,8.966-7.992
			c2.91-2.999,5.642-6.155,8.193-9.47c-2.508-0.492-5.138-0.84-7.892-1.041c-2.753-0.201-5.787-0.212-9.1-0.033
			c-2.374,0.134-4.735,0.47-7.086,1.007s-4.601,1.254-6.749,2.149c-2.149,0.896-4.153,1.914-6.011,3.056
			c-1.858,1.142-3.459,2.374-4.803,3.694c-1.343,1.32-2.384,2.697-3.123,4.13c-0.738,1.434-1.063,2.844-0.974,4.231
			c0.135,1.478,0.526,2.72,1.176,3.728c0.648,1.007,1.466,1.823,2.451,2.451c0.984,0.626,2.037,1.074,3.156,1.343
			S564.583,185.335,565.657,185.335z"/>
		<path d="M657.6,147.993c1.074,0.135,1.98,0.403,2.72,0.807c0.738,0.402,1.332,0.896,1.779,1.478s0.772,1.231,0.975,1.947
			c0.201,0.717,0.324,1.434,0.369,2.149c0.806,0.985,1.32,2.283,1.545,3.896c0.312,2.508,0.033,5.16-0.84,7.958
			c-0.873,2.799-2.149,5.362-3.828,7.69s-3.639,4.242-5.877,5.742c-2.239,1.5-4.545,2.249-6.917,2.249
			c-2.552-0.044-4.813-0.839-6.783-2.384c-1.971-1.545-3.291-3.905-3.963-7.085c-0.402-1.701-0.437-3.515-0.101-5.44
			c0.336-1.925,0.951-3.828,1.847-5.709c0.896-1.88,2.025-3.67,3.392-5.372c1.365-1.701,2.889-3.179,4.567-4.433
			c1.679-1.253,3.459-2.205,5.339-2.854C653.704,147.983,655.629,147.771,657.6,147.993z M656.458,161.493
			c-0.18-0.044-0.303-0.235-0.37-0.571c-0.066-0.336-0.123-0.716-0.168-1.142c-0.045-0.425-0.057-0.884-0.033-1.377
			c0.022-0.492,0.033-0.917,0.033-1.275c0.045-0.403,0.224-0.807,0.538-1.209c0.312-0.403,0.659-0.761,1.041-1.075
			c0.38-0.312,0.749-0.57,1.107-0.772c0.358-0.201,0.604-0.346,0.739-0.437c0.537-0.269,1.074-0.402,1.611-0.402
			c-0.09-0.627-0.381-1.164-0.873-1.612c-0.493-0.447-1.388-0.626-2.687-0.537c-1.074,0.09-2.283,0.481-3.626,1.176
			c-1.344,0.694-2.575,1.578-3.694,2.652c-1.209,1.254-2.295,2.676-3.257,4.265c-0.964,1.59-1.758,3.213-2.385,4.869
			c-0.627,1.657-1.041,3.28-1.242,4.869c-0.201,1.59-0.157,3.022,0.135,4.298c0.29,1.276,0.861,2.317,1.712,3.123
			c0.851,0.807,2.015,1.254,3.492,1.344c1.747,0.09,3.481-0.515,5.205-1.813c1.724-1.298,3.269-2.932,4.635-4.902
			c1.365-1.97,2.462-4.086,3.29-6.347s1.22-4.332,1.176-6.213c0-0.94-0.313-1.478-0.94-1.611c-0.493-0.09-1.041,0.022-1.646,0.336
			s-1.175,0.716-1.712,1.208c-0.538,0.493-1.008,1.031-1.411,1.612C656.727,160.53,656.502,161.046,656.458,161.493z"/>
		<path d="M693.261,148.263c0.447-0.224,1.052-0.19,1.813,0.101c0.761,0.291,1.478,0.728,2.149,1.31
			c0.671,0.582,1.209,1.254,1.611,2.015c0.403,0.762,0.492,1.501,0.269,2.216c-0.225,0.628-0.671,1.636-1.343,3.022
			c-0.672,1.389-1.4,2.967-2.183,4.735c-0.784,1.769-1.568,3.593-2.351,5.474c-0.784,1.88-1.4,3.604-1.848,5.171
			c-0.447,1.567-0.671,2.854-0.671,3.861c0,1.008,0.402,1.534,1.209,1.579h0.873c1.521-0.447,2.932-1.253,4.23-2.418
			c1.299-1.164,2.519-2.485,3.66-3.963c1.143-1.478,2.193-3.022,3.157-4.634c0.962-1.612,1.847-3.09,2.652-4.433
			c0.135-0.224,0.336-0.347,0.604-0.369s0.504,0.033,0.705,0.168c0.202,0.134,0.347,0.313,0.437,0.537
			c0.09,0.225,0.044,0.493-0.134,0.806c-0.896,1.389-1.77,2.799-2.619,4.231c-0.852,1.434-1.746,2.82-2.687,4.164
			c-0.94,1.343-1.926,2.642-2.955,3.895c-1.03,1.255-2.173,2.396-3.426,3.426c-0.313,0.269-0.717,0.582-1.209,0.94
			c-0.493,0.358-1.041,0.683-1.645,0.974c-0.604,0.292-1.255,0.537-1.948,0.738c-0.694,0.202-1.443,0.303-2.25,0.303
			c-0.985-0.045-1.803-0.312-2.451-0.806c-0.649-0.492-1.142-1.143-1.478-1.948s-0.537-1.723-0.604-2.754
			c-0.067-1.029,0.011-2.126,0.235-3.29c0.134-0.807,0.336-1.68,0.604-2.619c-1.03,1.567-2.127,3.078-3.291,4.533
			c-1.165,1.455-2.463,2.765-3.896,3.929c-0.313,0.269-0.717,0.582-1.209,0.94c-0.493,0.358-1.041,0.683-1.646,0.974
			c-0.604,0.292-1.254,0.537-1.947,0.738c-0.694,0.202-1.444,0.303-2.25,0.303c-0.94-0.045-1.735-0.312-2.384-0.806
			c-0.65-0.492-1.153-1.143-1.512-1.948s-0.561-1.723-0.604-2.754c-0.045-1.029,0.044-2.126,0.269-3.29
			c0.313-1.612,0.828-3.515,1.545-5.709c0.716-2.193,1.5-4.443,2.351-6.75c0.851-2.305,1.668-4.566,2.451-6.783
			c0.783-2.216,1.399-4.152,1.848-5.809c0.446-0.224,1.041-0.19,1.779,0.101c0.739,0.291,1.444,0.728,2.115,1.31
			c0.672,0.582,1.209,1.254,1.612,2.015c0.403,0.762,0.492,1.501,0.269,2.216c-0.225,0.628-0.661,1.636-1.31,3.022
			c-0.649,1.389-1.377,2.967-2.183,4.735s-1.59,3.593-2.351,5.474c-0.762,1.88-1.366,3.604-1.813,5.171
			c-0.448,1.567-0.672,2.854-0.672,3.861c0,1.008,0.403,1.534,1.209,1.579h0.806c1.478-0.447,2.843-1.22,4.098-2.317
			c1.253-1.097,2.428-2.351,3.525-3.761c1.097-1.411,2.126-2.889,3.09-4.433c0.962-1.545,1.847-2.989,2.652-4.332
			c0.94-2.642,1.892-5.261,2.854-7.857C692.04,152.449,692.768,150.188,693.261,148.263z"/>
		<path d="M699.842,174.253c0-1.566,0.393-3.1,1.176-4.6s1.757-2.653,2.921-3.459c1.433-2.283,2.877-4.556,4.332-6.817
			c1.454-2.26,3.056-4.533,4.802-6.816c0.537-0.761,1.052-1.5,1.545-2.216c0.492-0.716,1.008-1.444,1.545-2.184
			c0.537-0.738,1.163-1.487,1.88-2.249c0.716-0.762,1.589-1.589,2.619-2.485c0.492,0.225,1.097,0.537,1.813,0.94
			c0.716,0.402,1.365,0.851,1.948,1.343c0.581,0.493,0.995,0.974,1.242,1.444c0.245,0.47,0.145,0.885-0.303,1.242
			c-0.537,0.493-0.951,0.896-1.242,1.209c-0.292,0.313-0.549,0.616-0.772,0.906c-0.225,0.292-0.448,0.616-0.671,0.975
			c-0.225,0.358-0.538,0.829-0.94,1.41c-0.94,1.434-1.602,2.921-1.981,4.466c-0.381,1.545-0.582,3.123-0.604,4.735
			c-0.023,1.611,0.033,3.235,0.168,4.869c0.135,1.635,0.245,3.257,0.336,4.869c0.044,1.611-0.18,3.089-0.672,4.433
			c-0.493,1.343-1.221,2.484-2.183,3.425c-0.963,0.94-2.105,1.657-3.425,2.149c-1.321,0.492-2.743,0.693-4.265,0.604
			c-1.612-0.135-3.001-0.437-4.164-0.907c-1.165-0.47-2.127-1.074-2.888-1.813c-0.762-0.738-1.32-1.578-1.68-2.519
			C700.021,176.269,699.842,175.284,699.842,174.253z M714.886,153.971c-1.343,1.612-2.664,3.448-3.963,5.508
			s-2.508,3.985-3.626,5.775c0.312,0,0.626,0.045,0.94,0.134c0.312,0.091,0.648,0.202,1.007,0.336
			c0.135,0.18,0.347,0.538,0.638,1.075s0.571,1.107,0.84,1.712s0.48,1.165,0.638,1.68s0.168,0.839,0.034,0.974
			c-0.537-0.447-1.187-0.728-1.948-0.84c-0.762-0.111-1.511-0.077-2.249,0.101c-0.739,0.18-1.444,0.46-2.116,0.84
			c-0.671,0.381-1.209,0.862-1.611,1.444c-0.403,0.582-0.628,1.242-0.672,1.98c-0.044,0.739,0.201,1.512,0.738,2.317
			c0.538,0.896,1.243,1.557,2.116,1.981c0.873,0.426,1.734,0.661,2.586,0.705c0.939,0.09,1.746-0.033,2.417-0.369
			c0.672-0.336,1.231-0.816,1.68-1.444c0.446-0.626,0.772-1.354,0.974-2.183c0.201-0.828,0.302-1.689,0.302-2.586
			c0-1.387-0.101-2.843-0.302-4.365c-0.201-1.521-0.325-3.089-0.369-4.701c-0.046-1.611,0.044-3.257,0.269-4.937
			C713.431,157.43,713.989,155.717,714.886,153.971z"/>
		<path d="M749.943,157.262c-2.016,3.627-4.657,6.639-7.926,9.033c-3.269,2.396-6.873,4.13-10.812,5.205
			c-0.045,0.762,0,1.522,0.135,2.283c0.134,0.762,0.357,1.478,0.671,2.149c0.313,0.671,0.739,1.254,1.276,1.746
			c0.537,0.493,1.209,0.829,2.015,1.007c0.984,0.225,2.115,0.191,3.392-0.101c1.276-0.29,2.619-0.873,4.029-1.746
			c1.411-0.873,2.854-2.025,4.332-3.459c1.478-1.432,2.933-3.178,4.365-5.238c0.716-1.029,1.366-2.037,1.948-3.022
			c0.581-0.984,1.118-1.924,1.611-2.82c0.179-0.224,0.392-0.347,0.639-0.369c0.245-0.022,0.47,0.033,0.671,0.168
			c0.202,0.134,0.347,0.313,0.438,0.537c0.089,0.225,0.044,0.493-0.135,0.806c-0.628,0.985-1.299,2.06-2.015,3.224
			c-0.717,1.165-1.512,2.385-2.385,3.66c-0.873,1.276-1.836,2.553-2.888,3.828c-1.053,1.276-2.228,2.497-3.525,3.66
			c-1.3,1.165-2.553,2.049-3.762,2.653s-2.351,1.03-3.425,1.276c-1.074,0.245-2.038,0.38-2.888,0.402
			c-0.852,0.022-1.545,0.034-2.082,0.034c-3.046,0-5.418-0.807-7.119-2.418c-1.702-1.612-2.619-3.806-2.754-6.582
			c-0.09-2.552,0.37-5.093,1.377-7.623c1.008-2.528,2.63-5.271,4.869-8.227c0.716-0.94,1.679-1.958,2.888-3.056
			c1.209-1.097,2.553-2.116,4.03-3.056c1.478-0.94,3.044-1.701,4.701-2.284c1.655-0.581,3.312-0.85,4.97-0.806
			c1.074,0,2.003,0.247,2.787,0.739c0.783,0.493,1.354,1.152,1.713,1.98c0.357,0.829,0.458,1.792,0.302,2.889
			C751.229,154.834,750.749,156.009,749.943,157.262z M731.541,169.082c-0.045,0.09-0.067,0.18-0.067,0.269
			c3.627-1.029,6.895-2.675,9.806-4.937c2.91-2.26,5.261-5.093,7.052-8.495c0.626-1.299,0.783-2.406,0.47-3.325
			c-0.313-0.917-1.098-1.264-2.351-1.041c-1.88,0.359-3.649,1.209-5.306,2.553c-1.656,1.343-3.134,2.888-4.433,4.634
			s-2.396,3.549-3.29,5.406C732.525,166.004,731.898,167.649,731.541,169.082z"/>
	</g>
</g>
</svg>
