<svg width="30" height="30" viewBox="0 0 30 30" fill="none" xmlns="http://www.w3.org/2000/svg">
<g clip-path="url(#clip0_4241_2570)">
<path d="M23.8221 10.8464C24.0868 11.1111 24.3475 11.3718 24.6079 11.6321C24.9493 11.9739 24.9511 12.1521 24.6139 12.4893C23.1464 13.9568 21.6789 15.4243 20.2114 16.8918C17.6529 19.4503 15.0943 22.0089 12.5357 24.5671C12.4825 24.6203 12.4311 24.675 12.3754 24.7253C12.1714 24.91 11.9375 24.9103 11.7379 24.7153C11.44 24.4246 11.1482 24.1275 10.8479 23.8275C10.8143 23.8421 10.7839 23.8532 10.7554 23.8678C10.4714 24.0128 10.2564 23.9532 10.1029 23.6761C9.6575 22.8707 9.2125 22.0653 8.77571 21.2557C8.705 21.1246 8.615 21.0528 8.47678 21.0093C8.06071 20.8778 7.65107 20.7261 7.23321 20.6014C6.99535 20.5307 6.80107 20.4053 6.63035 20.235C6.19035 19.7964 5.74892 19.3593 5.31392 18.9153C5.07285 18.6693 5.07571 18.4425 5.315 18.2021C5.97464 17.5389 6.6375 16.8793 7.29857 16.2175C7.66285 15.8525 8.10357 15.66 8.61678 15.6471C8.9725 15.6382 9.25357 15.4982 9.50321 15.2475C11.4161 13.3275 13.3325 11.4111 15.2529 9.4982C15.5043 9.24784 15.6393 8.9657 15.6471 8.60998C15.6586 8.10391 15.8493 7.66784 16.2079 7.30855C16.8732 6.64177 17.5386 5.97462 18.2068 5.31034C18.4382 5.08034 18.6718 5.0782 18.905 5.30784C19.3818 5.77748 19.8539 6.25141 20.3236 6.7282C20.3832 6.78891 20.43 6.8707 20.46 6.95105C20.6496 7.46213 20.8389 7.97355 21.0143 8.48963C21.0593 8.62248 21.1257 8.70748 21.2471 8.77427C22.0296 9.20427 22.8089 9.64034 23.5889 10.075C23.9507 10.2775 24.0082 10.4553 23.8221 10.8464ZM22.7589 10.6228C22.69 10.5818 22.6343 10.5464 22.5764 10.5143C21.9218 10.1489 21.2686 9.7807 20.6104 9.42177C20.4304 9.32355 20.3211 9.1907 20.2596 8.99534C20.1036 8.50141 19.9339 8.01141 19.7686 7.52034C19.7493 7.46284 19.7364 7.39391 19.6968 7.3532C19.3207 6.96998 18.9396 6.59177 18.5607 6.21284C18.5264 6.23462 18.5071 6.24248 18.4936 6.25605C17.9282 6.82034 17.3614 7.3832 16.8 7.95141C16.6154 8.13855 16.5261 8.37355 16.5221 8.63641C16.5136 9.22034 16.2864 9.69855 15.8725 10.1103C13.9464 12.0268 12.0254 13.9482 10.1086 15.8743C9.7025 16.2825 9.23142 16.5111 8.65535 16.5225C8.34642 16.5286 8.09071 16.6525 7.87392 16.8718C7.36 17.3911 6.84142 17.9053 6.32571 18.4225C6.28428 18.4639 6.24821 18.5103 6.20464 18.5603C6.58071 18.9364 6.94035 19.3003 7.30678 19.6578C7.36178 19.7114 7.445 19.7428 7.52035 19.7678C8.00571 19.9293 8.49 20.0939 8.97964 20.2403C9.2 20.3064 9.34142 20.4346 9.44785 20.6325C9.79964 21.2868 10.1604 21.9361 10.5186 22.5871C10.5493 22.6428 10.5861 22.6953 10.6246 22.7568C14.6761 18.7053 18.71 14.6714 22.7589 10.6228ZM12.0586 23.7932C14.9496 20.9021 17.8243 18.0275 20.6957 15.1561C20.4896 14.95 20.2939 14.7543 20.1025 14.5628C17.2182 17.4471 14.3443 20.3211 11.4654 23.2C11.6689 23.4036 11.86 23.5946 12.0586 23.7932ZM23.1954 11.465C22.3661 12.2943 21.5536 13.1068 20.735 13.9253C20.9393 14.1296 21.1339 14.3243 21.3304 14.5207C22.1554 13.6957 22.9714 12.8796 23.7907 12.0603C23.5886 11.8582 23.3975 11.6671 23.1954 11.465Z" fill="#AE00B9"/>
<path d="M16.5654 12.4812C16.4707 12.1929 16.3861 11.9387 16.3036 11.6833C16.2318 11.4608 16.2771 11.3026 16.4379 11.1983C16.5904 11.0997 16.7729 11.1294 16.9339 11.2897C17.4257 11.7787 17.9164 12.2687 18.405 12.7612C18.59 12.9476 18.6014 13.169 18.4443 13.3244C18.2875 13.4797 18.0707 13.4633 17.8804 13.2808C17.7729 13.1776 17.6675 13.0729 17.5607 12.969C17.5568 12.9651 17.5504 12.964 17.5704 12.9733C17.515 13.0969 17.4879 13.2501 17.3968 13.3337C17.31 13.4129 17.1564 13.4194 17.0254 13.4601C17.1279 13.5626 17.2525 13.6847 17.3739 13.8094C17.5457 13.9854 17.5589 14.2076 17.4093 14.3594C17.2586 14.5122 17.0375 14.5037 16.8614 14.3287C16.3611 13.8319 15.8629 13.3333 15.3657 12.8333C15.2114 12.6783 15.1846 12.504 15.2825 12.3533C15.3839 12.1969 15.5432 12.1469 15.7518 12.2133C16.0136 12.2965 16.2732 12.3847 16.5654 12.4812Z" fill="#AE00B9"/>
<path d="M13.3904 16.7776C13.6311 16.7719 13.8425 16.7633 14.0539 16.7629C14.3136 16.7626 14.4832 16.9083 14.4864 17.1258C14.49 17.3533 14.3229 17.4962 14.0479 17.4983C13.6939 17.5012 13.3396 17.5029 12.9411 17.5054C13.0832 17.6476 13.205 17.7629 13.3193 17.8854C13.4868 18.0647 13.4889 18.2901 13.3318 18.4365C13.1754 18.5822 12.9611 18.5676 12.7804 18.389C12.3971 18.0101 12.0171 17.6276 11.6361 17.2465C11.5186 17.129 11.3975 17.0144 11.2843 16.8926C11.1114 16.7065 11.1139 16.5137 11.2914 16.3308C11.4911 16.1254 11.6943 15.9226 11.8993 15.7226C12.2289 15.4012 12.6743 15.3458 13.0479 15.5762C13.4079 15.7979 13.5568 16.2262 13.4243 16.6587C13.4171 16.6854 13.4096 16.7122 13.3904 16.7776ZM12.3107 16.8647C12.4489 16.7265 12.5857 16.6122 12.6907 16.4733C12.7307 16.4204 12.7293 16.2829 12.6879 16.2372C12.6479 16.1926 12.5039 16.179 12.455 16.2165C12.3086 16.329 12.1864 16.4729 12.0525 16.6069C12.1429 16.6969 12.2186 16.7726 12.3107 16.8647Z" fill="#AE00B9"/>
<path d="M15.3882 15.859C15.4153 15.9172 15.4411 15.9622 15.4582 16.01C15.5257 16.1972 15.4389 16.4125 15.2661 16.4925C15.1007 16.569 14.8957 16.4972 14.8018 16.314C14.5589 15.8404 14.3232 15.3632 14.0846 14.8875C13.9796 14.6779 13.8732 14.4686 13.7703 14.2579C13.6796 14.0718 13.6975 13.9229 13.82 13.799C13.9428 13.675 14.0943 13.6532 14.2778 13.7443C14.9439 14.0754 15.6096 14.4075 16.2739 14.7422C16.5011 14.8568 16.5782 15.0507 16.4861 15.2507C16.3982 15.4415 16.2093 15.4972 15.9743 15.4179C15.925 15.4011 15.8411 15.4168 15.8025 15.4511C15.6611 15.5757 15.5321 15.7147 15.3882 15.859Z" fill="#AE00B9"/>
</g>
<defs>
<clipPath id="clip0_4241_2570">
<rect width="20" height="20" fill="white" transform="translate(5 5)"/>
</clipPath>
</defs>
</svg>
