<svg width="28" height="28" viewBox="0 0 28 28" fill="none" xmlns="http://www.w3.org/2000/svg">
<path d="M23.0679 2H10.2399C9.3549 2 8.6349 2.72 8.6349 3.605V5.116H6.0619C4.5539 5.116 3.3269 6.343 3.3269 7.851V23.265C3.3269 24.773 4.5539 26 6.0619 26H18.9289C20.4379 26 21.6639 24.773 21.6639 23.265V20.579H23.0679C23.9529 20.579 24.6729 19.859 24.6729 18.974V3.605C24.6729 2.72 23.9529 2 23.0679 2ZM19.8099 23.265C19.8099 23.752 19.4149 24.147 18.9289 24.147H6.0619C5.5759 24.147 5.1799 23.752 5.1799 23.265V7.851C5.1799 7.365 5.5759 6.97 6.0619 6.97H8.6349V18.974C8.6349 19.859 9.3549 20.579 10.2399 20.579H19.8089L19.8099 23.265ZM22.8189 17.843C22.8189 18.33 22.4239 18.725 21.9369 18.725H11.3699C10.8839 18.725 10.4879 18.33 10.4879 17.843V4.736C10.4879 4.25 10.8839 3.854 11.3699 3.854H17.2599L17.2989 4.008C17.9639 6.683 20.0229 8.831 22.6729 9.611L22.8189 9.654V17.843Z" fill="#130F40"/>
</svg>
