<svg width="40" height="40" viewBox="0 0 40 40" fill="none" xmlns="http://www.w3.org/2000/svg">
<path d="M36.9865 15.6763C36.9799 14.3035 36.1403 13.0352 34.8974 12.5204C34.2976 12.2714 33.6893 12.2845 33.1522 12.2955L32.9776 12.2988C32.9587 12.2992 32.9373 12.2997 32.9399 12.303C32.9332 12.2963 32.9159 12.2645 32.9084 12.2507C29.8617 6.6843 25.2887 3.91139 19.321 4.00216C18.4922 4.01395 17.6319 4.13923 16.691 4.38525C16.308 4.48443 16.0124 4.74578 15.8802 5.10209C15.7543 5.44241 15.799 5.8154 16.003 6.12541C16.4057 6.74291 17.0569 6.5991 17.3025 6.54471C17.5929 6.48139 17.8615 6.43104 18.1235 6.3908L18.2139 6.37699C18.2748 6.36773 18.3356 6.3583 18.3965 6.35055L18.4254 6.34685C18.6096 6.32159 18.81 6.29886 19.0283 6.28101C19.1023 6.27461 19.1746 6.26838 19.2494 6.26518C19.5924 6.24042 19.9681 6.23133 20.3545 6.24345C20.451 6.24497 20.5488 6.24985 20.6537 6.25507C20.8111 6.26349 20.9684 6.27511 21.1259 6.2901C21.2525 6.30189 21.3794 6.31687 21.5055 6.33203C25.9868 6.8916 29.8919 10.0175 31.6968 14.4898L31.7179 14.5416H33.6519C34.4297 14.5416 34.8767 15.0401 34.8785 15.9092C34.8796 17.684 34.8791 19.458 34.8788 21.2322L34.8785 23.8943C34.8785 24.7725 34.4243 25.277 33.6323 25.2785C33.0312 25.2803 32.4288 25.2803 31.8262 25.2803H31.7711L31.7504 25.3329C30.1022 29.528 26.6519 32.5609 22.5174 33.4463C22.4196 33.4679 22.322 33.4893 22.2242 33.5075L22.2387 33.5903L22.1957 33.5127C19.1635 34.1061 16.0582 33.4771 13.4525 31.742L13.4228 31.7222C13.3586 31.6807 13.2959 31.6378 13.2317 31.5918C12.3781 31.0132 11.585 30.3176 10.874 29.524L10.8498 29.4969H10.8323C10.2854 28.8755 9.81266 28.2309 9.39085 27.5317L9.31589 27.4033C8.92348 26.748 8.58152 26.0516 8.29982 25.3329L8.27925 25.2803H6.34934C5.64746 25.2803 5.20704 24.936 5.07558 24.2855C5.05402 24.1742 5.05108 24.0432 5.05108 23.9179C5.04945 21.2457 5.04945 18.5714 5.05108 15.8975C5.05108 15.0492 5.51339 14.5418 6.28728 14.5403H8.33069L8.35159 14.4884C9.01574 12.8449 9.95816 11.3774 11.1532 10.1266C11.2247 10.0513 11.2977 9.97586 11.3707 9.90244C11.4276 9.84553 11.4829 9.79013 11.5424 9.7322C11.5918 9.68438 11.6431 9.63504 11.6962 9.58705C11.7718 9.51396 11.849 9.44273 11.9287 9.37386C11.9856 9.32368 12.0424 9.2735 12.1 9.22399C12.2075 9.12919 12.3207 9.03472 12.4475 8.93436C12.5543 8.84595 12.6644 8.76091 12.7808 8.67369C12.9953 8.51102 13.2889 8.28824 13.3558 7.84941C13.4297 7.36596 13.2688 6.95912 12.9032 6.70418C12.5098 6.42751 12.0764 6.44822 11.65 6.76446C9.94559 8.03599 8.53384 9.62729 7.45375 11.4944C7.38729 11.6091 7.33356 11.7298 7.28147 11.8467L7.26661 11.88C7.20488 12.0205 7.10167 12.2557 7.03292 12.2961C7.02476 12.3009 7.00075 12.3126 6.96368 12.3189L6.6699 12.319L6.56081 12.3099C6.43017 12.2998 6.28238 12.2889 6.13361 12.2953C5.99007 12.3022 5.84294 12.3174 5.72307 12.3379C4.67826 12.4607 3.74793 13.173 3.29509 14.1969C3.09912 14.6402 3 15.1154 3 15.6094V24.2395C3 24.629 3.06303 25.0112 3.18747 25.3755C3.62692 26.6638 4.77134 27.5297 6.03073 27.5297C6.23813 27.5457 6.47492 27.5464 6.74927 27.5317H6.94311C6.95274 27.5469 6.96515 27.5695 6.9756 27.592C9.56019 32.7783 14.5275 36 19.9394 36C20.6465 36 21.3666 35.9419 22.0798 35.8274C26.6702 35.0839 30.2271 32.5092 32.6514 28.175C32.9479 27.6441 33.1586 27.5065 33.6762 27.5065H33.7399C34.5999 27.5065 35.402 27.1744 35.9984 26.5714C36.6289 25.935 36.9799 25.066 36.9864 24.1242C37.0045 21.6414 37.0045 18.9571 36.9865 15.6763Z" fill="#130F40"/>
<path d="M15.1853 27.1193H17.6675L19.9903 19.2256L22.313 27.1193H24.7955L28.4713 14.0176L28.4987 13.9117H25.3548L23.4061 21.0236L21.1196 13.9117H18.8609L16.5778 21.0177L14.6601 13.9759L14.6448 13.9117H11.501L15.1853 27.1193Z" fill="#130F40"/>
</svg>
