<svg width="22" height="22" viewBox="0 0 22 22" fill="none" xmlns="http://www.w3.org/2000/svg">
<path d="M4.77792 18.2908H8.17771C8.47314 18.2908 8.71357 18.0512 8.71357 17.7558C8.71278 17.4603 8.47235 17.2207 8.17692 17.2207H4.77792C4.48249 17.2207 4.24207 17.4603 4.24207 17.7558C4.24207 18.0512 4.48328 18.2908 4.77792 18.2908Z" fill="#130F40"/>
<path d="M10.0996 18.2483C10.1593 18.2782 10.2269 18.2908 10.3109 18.2908C10.4492 18.2908 10.5852 18.2334 10.6747 18.1423C10.7407 18.0888 10.7839 18.0236 10.7997 17.9616C10.8319 17.8869 10.8476 17.8193 10.8476 17.7541C10.8476 17.6905 10.8319 17.6221 10.8052 17.5632C10.7855 17.4901 10.7439 17.4265 10.6818 17.3723C10.5435 17.2293 10.3047 17.1821 10.1074 17.2576C10.0414 17.2851 9.98173 17.3243 9.93301 17.3746C9.82851 17.4783 9.7688 17.6166 9.7688 17.7549C9.7688 17.894 9.82694 18.0291 9.93144 18.1328C9.9778 18.1831 10.0359 18.2208 10.0996 18.2483Z" fill="#130F40"/>
<path d="M12.9093 1.57153C8.76305 1.57153 5.38998 4.94539 5.38998 9.09239C5.38998 9.65182 5.45991 10.2293 5.59741 10.81H3.05484C2.23691 10.81 1.57141 11.4755 1.57141 12.2934V14.671C1.57141 15.0214 1.69555 15.3569 1.92263 15.6256C1.70027 15.892 1.57848 16.2227 1.57848 16.5677V18.9452C1.57848 19.764 2.24477 20.4287 3.06191 20.4287H12.0371C12.8551 20.4287 13.5198 19.764 13.5198 18.9452V16.5795C17.4036 16.2644 20.4286 12.9966 20.4286 9.09239C20.4286 4.94539 17.0563 1.57153 12.9093 1.57153ZM19.3568 9.09239C19.3568 12.6477 16.4646 15.5407 12.9093 15.5407C9.35391 15.5407 6.46248 12.647 6.46248 9.09082C6.46248 5.53546 9.3547 2.64325 12.9093 2.64325C16.4638 2.64325 19.3568 5.53625 19.3568 9.09239ZM4.77948 12.9471C4.48405 12.9471 4.24363 13.1867 4.24363 13.483C4.24363 13.7784 4.48405 14.018 4.77948 14.018H7.24034C7.58527 14.414 7.96634 14.7707 8.37648 15.0842H3.05484C2.82777 15.0842 2.64313 14.898 2.64313 14.671V12.2934C2.64313 12.0663 2.82777 11.8817 3.05484 11.8817H5.93527C6.08377 12.251 6.26134 12.6077 6.46405 12.9463H4.77948V12.9471ZM2.65098 16.5677C2.65098 16.3406 2.83248 16.1599 3.0627 16.156H10.3549C11.0259 16.4003 11.7299 16.5457 12.4496 16.5889V18.9452C12.4496 19.1723 12.265 19.3585 12.0379 19.3585H3.06191C2.83484 19.3585 2.6502 19.1723 2.6502 18.9452V16.5677H2.65098Z" fill="#130F40"/>
<path d="M13.4954 6.58911H12.3302L11.6176 8.54947H9.82141V9.43418H11.2962L10.5757 11.4299H15.2444L14.5223 9.43418H15.9971V8.54947H14.2018L13.4954 6.58911ZM11.8674 10.619L12.9211 7.48247L13.9755 10.619H11.8674Z" fill="#130F40"/>
</svg>
