<svg width="22" height="22" viewBox="0 0 22 22" fill="none" xmlns="http://www.w3.org/2000/svg">
<path d="M16.8292 19.0585H5.17078C3.18607 19.0585 1.57141 17.4439 1.57141 15.4592C1.57141 13.4745 3.18607 11.8598 5.17078 11.8598H16.8292C18.8139 11.8598 20.4286 13.4745 20.4286 15.4592C20.4286 17.4439 18.8139 19.0585 16.8292 19.0585ZM5.17078 13.0463C3.83999 13.0463 2.75749 14.1288 2.75749 15.4596C2.75749 16.7903 3.83999 17.8728 5.17078 17.8728H16.8292C18.1596 17.8728 19.2425 16.7903 19.2425 15.4596C19.2425 14.1288 18.16 13.0463 16.8292 13.0463H5.17078Z" fill="#AE00B9"/>
<path d="M4.90409 16.1506C4.52217 16.1506 4.213 15.8411 4.213 15.4595C4.213 15.0776 4.52256 14.7684 4.90409 14.7684C5.28601 14.7684 5.59518 15.078 5.59518 15.4595C5.59518 15.8411 5.28601 16.1506 4.90409 16.1506Z" fill="#AE00B9"/>
<path d="M7.29648 16.1506C6.91457 16.1506 6.60539 15.8411 6.60539 15.4595C6.60539 15.0776 6.91496 14.7684 7.29648 14.7684C7.6784 14.7684 7.98758 15.078 7.98758 15.4595C7.98758 15.8411 7.67801 16.1506 7.29648 16.1506Z" fill="#AE00B9"/>
<path d="M17.0878 16.0862H11.6266C11.2807 16.0862 11 15.8055 11 15.4596C11 15.1136 11.2807 14.8329 11.6266 14.8329H17.0878C17.4337 14.8329 17.7144 15.1136 17.7144 15.4596C17.7144 15.8055 17.4337 16.0862 17.0878 16.0862Z" fill="#AE00B9"/>
<path d="M16.8292 10.1372H5.17078C3.18607 10.1372 1.57141 8.52256 1.57141 6.53784C1.57141 4.55313 3.18607 2.93848 5.17078 2.93848H16.8292C18.8139 2.93848 20.4286 4.55313 20.4286 6.53784C20.4286 8.52256 18.8139 10.1372 16.8292 10.1372ZM5.17078 4.12496C3.83999 4.12496 2.75749 5.20745 2.75749 6.53824C2.75749 7.86903 3.83999 8.95152 5.17078 8.95152H16.8292C18.1596 8.95152 19.2425 7.86903 19.2425 6.53824C19.2425 5.20745 18.16 4.12496 16.8292 4.12496H5.17078Z" fill="#AE00B9"/>
<path d="M4.90409 7.22927C4.52217 7.22927 4.213 6.9197 4.213 6.53817C4.213 6.15626 4.52256 5.84708 4.90409 5.84708C5.28601 5.84708 5.59518 6.15665 5.59518 6.53817C5.59518 6.9197 5.28601 7.22927 4.90409 7.22927Z" fill="#AE00B9"/>
<path d="M7.29648 7.22927C6.91457 7.22927 6.60539 6.9197 6.60539 6.53817C6.60539 6.15626 6.91496 5.84708 7.29648 5.84708C7.6784 5.84708 7.98758 6.15665 7.98758 6.53817C7.98758 6.9197 7.67801 7.22927 7.29648 7.22927Z" fill="#AE00B9"/>
<path d="M17.0878 7.16489H11.6266C11.2807 7.16489 11 6.88418 11 6.53824C11 6.1923 11.2807 5.91159 11.6266 5.91159H17.0878C17.4337 5.91159 17.7144 6.1923 17.7144 6.53824C17.7144 6.88418 17.4337 7.16489 17.0878 7.16489Z" fill="#AE00B9"/>
</svg>
