<svg width="22" height="22" viewBox="0 0 22 22" fill="none" xmlns="http://www.w3.org/2000/svg">
<path d="M18.3032 4.54075C18.3 2.85618 17.0563 1.58489 15.407 1.57468H13.695C13.3202 1.57468 12.9454 1.57625 12.5714 1.57625H12.1895C11.4714 1.57625 10.7556 1.57468 10.0398 1.57153H9.98719C9.14411 1.58018 8.44797 1.87168 7.86104 2.46568C7.6269 2.70139 7.39119 2.93553 7.15704 3.16496C6.32026 3.98996 5.48583 4.77882 4.6954 5.51818C4.19961 5.98332 3.88611 6.53961 3.75883 7.17761C3.75726 7.18232 3.75726 7.18939 3.75569 7.19411C3.71326 7.41175 3.69126 7.63882 3.69283 7.87453C3.69597 8.68225 3.6944 9.48996 3.6944 10.2977L3.69283 13.1105C3.69283 14.5625 3.69283 16.0169 3.6944 17.4697C3.6944 17.6276 3.70618 17.7816 3.72818 17.9332C3.72818 17.9348 3.72818 17.9348 3.72818 17.9364C3.93326 19.3617 5.06547 20.3949 6.52768 20.4271C6.55204 20.4287 6.57561 20.4287 6.59919 20.4287H15.3976C15.6978 20.4287 15.9696 20.3933 16.2242 20.3202C17.4845 19.9541 18.3008 18.829 18.3024 17.4508C18.304 15.9407 18.304 14.4305 18.304 12.9204V9.12853C18.3048 7.59953 18.3048 6.06975 18.3032 4.54075ZM8.76383 3.36139C8.77404 3.35118 8.78583 3.34096 8.79604 3.33075V5.88432C8.79604 6.14046 8.5894 6.34946 8.33247 6.34946H5.6689C6.66204 5.41996 7.71726 4.41896 8.76383 3.36139ZM17.0319 12.9227C17.0319 14.4313 17.0319 15.9415 17.0303 17.4516C17.0303 18.2593 16.5856 18.8902 15.8698 19.0977C15.7323 19.1385 15.5768 19.1574 15.3984 19.1574H6.60076C5.65554 19.1574 4.96883 18.4463 4.96647 17.4689C4.9649 16.0169 4.9649 14.5641 4.9649 13.1121L4.96647 10.2992C4.96804 9.48996 4.96804 8.68068 4.9649 7.87139C4.9649 7.74725 4.97511 7.63253 4.9924 7.52018H8.79604C9.44269 7.52018 9.96676 6.99611 9.96676 6.35103H9.96519V2.84596C9.98876 2.84596 10.0108 2.84439 10.0328 2.84439C11.2545 2.8491 12.474 2.8491 13.6942 2.84753C14.2591 2.84753 14.8225 2.84596 15.3874 2.84753C16.353 2.84753 17.028 3.54525 17.0295 4.54232C17.0311 6.07132 17.0311 7.59953 17.0311 9.12853L17.0319 12.9227ZM14.8688 4.78432H12.2532C11.9318 4.78432 11.671 5.04518 11.671 5.36653C11.671 5.68789 11.9318 5.94875 12.2532 5.94875H14.8688C15.1902 5.94875 15.451 5.68789 15.451 5.36653C15.451 5.04439 15.1902 4.78432 14.8688 4.78432ZM14.8688 7.14068H12.2532C11.9318 7.14068 11.671 7.40153 11.671 7.72289C11.671 8.04425 11.9318 8.3051 12.2532 8.3051H14.8688C15.1902 8.3051 15.451 8.04425 15.451 7.72289C15.451 7.40153 15.1902 7.14068 14.8688 7.14068Z" fill="#130F40"/>
<path d="M11.645 13.5307L11.5476 13.4938C11.1909 13.3697 10.89 13.24 10.6063 13.086C10.3918 12.9634 10.314 12.8346 10.3352 12.6389C10.369 12.4582 10.4437 12.2257 10.7242 12.1392C11.0408 12.0481 11.3543 12.1015 11.6568 12.2948C11.935 12.4747 12.228 12.4268 12.3899 12.1817C12.5525 11.9436 12.4818 11.6529 12.2178 11.4572C12.0135 11.3134 11.8085 11.2341 11.616 11.1697L11.5036 11.1319V10.9646C11.5036 10.9174 11.5052 10.8695 11.5067 10.8224C11.5091 10.7383 11.5122 10.6534 11.5044 10.5686C11.4855 10.2999 11.2718 10.1082 10.9952 10.1082C10.7265 10.1082 10.5175 10.2999 10.4995 10.5647C10.4885 10.6802 10.4759 10.7933 10.4979 10.9104C10.527 11.0903 10.4515 11.1594 10.303 11.2262C9.72396 11.4541 9.39789 11.898 9.33032 12.5494C9.27375 13.1497 9.51889 13.6203 10.061 13.9479C10.3777 14.1279 10.7399 14.2858 11.1995 14.4429L11.319 14.5011C11.7778 14.6787 11.8383 14.9898 11.8061 15.2184C11.7597 15.5987 11.4384 15.924 11.073 15.9554C10.6126 15.9853 10.296 15.9154 10.0021 15.7323C9.89603 15.6569 9.78053 15.6192 9.66503 15.6192C9.63046 15.6192 9.59511 15.6223 9.56053 15.6294C9.43482 15.6569 9.32168 15.7409 9.24546 15.8651C9.09382 16.1212 9.18339 16.3986 9.47961 16.5864C9.74439 16.7592 10.0327 16.8779 10.3596 16.9502L10.4885 16.9792V17.1104C10.4885 17.2291 10.4877 17.3462 10.4995 17.453C10.5097 17.7422 10.7132 17.9417 10.9842 17.9417C11.2726 17.9417 11.4855 17.7453 11.5052 17.4727C11.517 17.3666 11.517 17.2652 11.506 17.1662C11.4871 16.9934 11.5154 16.8952 11.7252 16.8001C12.4103 16.5251 12.859 15.8085 12.8244 15.0534C12.7772 14.3306 12.3812 13.8175 11.645 13.5307Z" fill="#130F40"/>
</svg>
