<svg width="22" height="22" viewBox="0 0 22 22" fill="none" xmlns="http://www.w3.org/2000/svg">
<path d="M20.3279 5.19039C20.2415 5.07961 20.1386 5.02461 20.0042 5.00104C19.9964 5.00104 19.9807 5.00104 19.9571 4.99318H19.9178C19.7206 4.99318 19.5234 5.04818 19.3654 5.15896C18.4501 5.75846 17.519 6.38232 16.6194 6.98182L14.9152 8.11796C14.8916 8.13368 14.8759 8.14154 14.8602 8.15725C14.813 8.18082 14.7737 8.21225 14.7258 8.23582L14.6944 8.24368L14.6787 8.22011C14.6394 8.16511 14.6001 8.10146 14.56 8.04646L11.601 3.60325C11.4101 3.32746 11.2129 3.18604 10.9999 3.18604C10.7949 3.18604 10.5898 3.32825 10.4083 3.60404L9.69016 4.67732C8.97201 5.75846 8.22244 6.87889 7.48073 7.97575C7.47287 7.99146 7.45715 8.00718 7.4493 8.03075C7.43358 8.04646 7.42573 8.06218 7.41001 8.08575C7.38644 8.13289 7.35501 8.18082 7.32358 8.22796L7.30001 8.25939L7.26858 8.23582C7.24501 8.22011 7.22144 8.20439 7.20573 8.19654C7.18215 8.18082 7.15858 8.16511 7.13501 8.14939C7.11144 8.13368 7.09573 8.11796 7.07215 8.11011C7.04858 8.09439 7.02501 8.07868 7.00144 8.06296C6.44673 7.69211 5.82365 7.27332 5.1998 6.86318C4.36301 6.30296 3.49558 5.72704 2.64308 5.15032C2.46944 5.04032 2.31151 4.96175 2.15358 4.96175C2.05065 4.96175 1.94065 4.99318 1.83773 5.06468C1.53837 5.25325 1.54623 5.55339 1.60123 5.83704C1.66408 6.20004 1.73558 6.56304 1.8063 6.93389C1.8778 7.29768 1.94065 7.65989 2.01137 8.03154C2.20858 9.02625 2.4058 10.1074 2.61873 11.2435C2.63444 11.3142 2.65015 11.3857 2.65801 11.4565C2.67373 11.5272 2.68944 11.5987 2.70515 11.6694L3.35258 15.0157C3.39187 15.213 3.57337 15.363 3.77844 15.363H18.1806C18.3857 15.363 18.5672 15.213 18.6064 15.0157L18.7487 14.2897L19.4197 10.8255C19.5069 10.4154 19.5854 9.99661 19.664 9.57861C19.7426 9.16061 19.8298 8.74968 19.9084 8.33168L19.9241 8.25311C20.0506 7.64575 20.1684 7.02189 20.2871 6.42239L20.4057 5.82289C20.4544 5.56125 20.4222 5.34046 20.3279 5.19039ZM18.9388 6.98182C18.4729 9.40418 18.0156 11.7322 17.5497 14.1161L17.5418 14.1475H4.41094L4.40308 14.1161L3.9293 11.6222C3.63701 10.083 3.34551 8.53675 3.05323 6.97396L3.03751 6.87104L3.15615 6.96611C3.17973 6.98182 3.2033 6.99753 3.23473 7.01325C3.2583 7.02896 3.28187 7.04468 3.30544 7.06039C3.60558 7.25761 3.90494 7.45482 4.19723 7.65204C4.51308 7.85711 4.8203 8.07003 5.13615 8.27511C5.71994 8.66953 6.31237 9.05611 6.95901 9.49061C7.23558 9.67211 7.42494 9.74282 7.58208 9.70354C7.74787 9.67211 7.9058 9.52989 8.09515 9.24546C8.94765 7.99068 9.80723 6.69661 10.8177 5.16525C10.8412 5.12596 10.8648 5.09453 10.8962 5.06232C10.9198 5.03089 10.9512 4.99946 10.9748 4.95939L11.0062 4.91225L11.0377 4.95939C11.1162 5.07804 11.1877 5.18018 11.2584 5.29096C11.3614 5.44889 11.4635 5.59896 11.5664 5.75689L12.0402 6.45932C12.7191 7.47761 13.3579 8.43225 13.9338 9.30046C14.2497 9.76639 14.5333 9.82925 14.9992 9.52125C15.583 9.13468 16.199 8.72454 16.8221 8.30575C17.1379 8.10068 17.4452 7.88775 17.761 7.68268C18.0533 7.48546 18.3527 7.28825 18.6449 7.09103L18.7636 7.02032C18.7793 7.01246 18.7872 7.00461 18.8029 6.98889C18.8264 6.97318 18.85 6.95746 18.8736 6.94175L18.9522 6.87889L18.9388 6.98182Z" fill="#AE00B9"/>
<path d="M18.4894 17.5206H3.5113C3.38715 17.5206 3.28658 17.622 3.28658 17.7445V18.5892C3.28658 18.7133 3.38794 18.8139 3.5113 18.8139H18.4894C18.6135 18.8139 18.7141 18.7125 18.7141 18.5892V17.7445C18.7149 17.622 18.6127 17.5206 18.4894 17.5206Z" fill="#AE00B9"/>
</svg>
