<svg width="31" height="31" viewBox="0 0 31 31" fill="none" xmlns="http://www.w3.org/2000/svg">
<rect width="31" height="31" rx="7" fill="#F50303"/>
<path d="M24.05 10.3175C24.05 10.6925 23.7425 10.9925 23.3525 10.9925H7.6475C7.2575 10.9925 6.95 10.6925 6.95 10.3175C6.95 9.9425 7.2575 9.6425 7.6475 9.6425H10.685L10.775 9.635C11.1275 9.59 11.4125 9.335 11.48 8.9975L11.7125 7.9025C11.9375 7.0625 12.6875 6.5075 13.535 6.5075H17.465V6.5C18.3125 6.5 19.0625 7.055 19.28 7.8575L19.52 8.99C19.595 9.365 19.9325 9.635 20.315 9.6425H23.3525C23.7425 9.6425 24.05 9.9425 24.05 10.3175ZM8.23475 13.2537C8.19725 12.8158 8.54225 12.44 8.98175 12.44H22.0242C22.4637 12.44 22.8095 12.8165 22.7712 13.2552L22.655 14.6C22.49 16.5425 22.175 20.105 21.9725 21.9125C21.7925 23.48 20.72 24.44 19.1075 24.47C17.87 24.485 16.685 24.5 15.5225 24.5C14.2625 24.5 13.04 24.485 11.8325 24.4625C10.28 24.4325 9.2075 23.4575 9.035 21.92C8.96 21.23 8.8625 20.285 8.765 19.2725C8.675 18.26 8.57 17.18 8.4875 16.22L8.23475 13.2537ZM14.7725 20.78C14.7725 21.1775 15.0875 21.485 15.5 21.485C15.92 21.4775 16.2275 21.1775 16.2275 20.78V16.0475C16.2275 15.6425 15.92 15.3425 15.5 15.3425C15.0875 15.3425 14.7725 15.6425 14.7725 16.0475V20.78Z" fill="white"/>
</svg>
