<svg width="22" height="24" viewBox="0 0 22 24" fill="none" xmlns="http://www.w3.org/2000/svg">
<path d="M20.4805 17.6821C19.2025 20.4695 17.0742 22.3966 14.1609 23.3979C12.098 24.1124 10.0301 24.1929 8.01241 23.6293C4.45009 22.6381 1.95949 20.384 0.600978 16.9374C0.359465 16.3185 0.676451 15.599 1.31042 15.3324C1.47646 15.2569 1.65257 15.2267 1.82364 15.2267C2.2966 15.2267 2.73938 15.4883 2.96579 15.9412C3.0463 16.1072 3.1268 16.2732 3.20731 16.4443C3.41863 16.8972 3.64002 17.3651 3.93185 17.7877C5.64256 20.2582 8.01744 21.4708 10.9709 21.3903C14.4024 21.2997 17.3308 19.1362 18.4226 15.8808C19.3837 13.0128 18.8956 10.3713 16.9786 8.01652C15.4792 6.17498 13.4565 5.18377 10.976 5.06302C10.6741 5.04792 10.3772 5.07308 10.0854 5.10327C9.93445 5.11333 9.78351 5.12843 9.63256 5.13849C9.56212 5.13849 9.3508 5.14855 9.22501 5.31459C9.10928 5.46554 9.12941 5.65171 9.1596 5.79259C9.2401 6.17498 9.31054 6.55235 9.38602 6.93474C9.41621 7.09072 9.4464 7.2467 9.47658 7.40268L9.48665 7.46305L9.51684 7.62406C9.52187 7.63413 9.52187 7.63916 9.52187 7.64922C9.52187 7.9008 9.26023 8.09199 9.01368 7.98633C9.00865 7.98633 8.99859 7.98633 8.99356 7.9813L3.85134 5.55611C3.81612 5.54101 3.7809 5.52089 3.74568 5.49573C3.36832 5.26931 3.26769 4.76616 3.52932 4.41395C3.54442 4.38879 3.56454 4.36364 3.58467 4.34351L7.42875 0.167346L7.50423 0.0868416C7.50926 0.08181 7.51932 0.0767785 7.52435 0.0667155C7.71555 -0.0691356 7.98725 0.0113688 8.07782 0.227724C8.10298 0.343449 8.1231 0.459174 8.14323 0.574899L8.14826 0.589994L8.28914 1.31956C8.34952 1.60133 8.40487 1.8831 8.45015 2.16486C8.52563 2.58751 8.81745 2.63279 9.0489 2.59757C13.9899 1.81265 18.8906 4.62527 20.7019 9.27943C21.8088 12.1172 21.7334 14.9449 20.4805 17.6821Z" fill="white"/>
</svg>
