<svg xmlns="http://www.w3.org/2000/svg" width="100%" height="100%" viewBox="0 0 24 24" fill="none">
  <path d="M21.9429 20.9143L18.9429 17.9143C20.4857 16.2 21.4286 13.8857 21.4286 11.4C21.4286 5.99999 17.0571 1.54285 11.5714 1.54285C6.17143 1.54285 1.8 5.91428 1.8 11.4C1.8 16.8 6.17143 21.2571 11.6571 21.2571C13.8857 21.2571 16.0286 20.4857 17.6571 19.2L20.6571 22.2C20.8286 22.3714 21.0857 22.4571 21.3429 22.4571C21.6 22.4571 21.7714 22.3714 22.0286 22.2C22.2857 21.8571 22.2857 21.2571 21.9429 20.9143ZM11.5714 19.3714C7.11429 19.3714 3.6 15.7714 3.6 11.4C3.6 6.94285 7.2 3.42856 11.5714 3.42856C16.0286 3.42856 19.5429 7.02856 19.5429 11.4C19.6286 15.7714 16.0286 19.3714 11.5714 19.3714Z" fill="#130F40"/>
</svg>