<svg width="700" height="760" viewBox="0 0 700 760" fill="none" xmlns="http://www.w3.org/2000/svg">
<g clip-path="url(#clip0_14_5)">
<path d="M23.8007 508.577C22.3258 508.577 20.8986 508.075 19.706 507.123C18.2311 505.944 17.289 504.221 17.0544 502.273C16.5734 498.294 19.2409 494.606 22.9976 494.054C24.8064 493.788 26.6033 494.278 28.0543 495.437C29.5292 496.616 30.4714 498.34 30.7059 500.288C31.187 504.266 28.5195 507.954 24.7627 508.506C24.4407 508.552 24.1187 508.577 23.8007 508.577ZM23.2401 495.869C20.4256 496.284 18.4339 499.054 18.7917 502.044C18.9666 503.502 19.6702 504.789 20.7714 505.67C21.8448 506.53 23.1765 506.891 24.5202 506.696C27.3348 506.28 29.3265 503.51 28.9687 500.52C28.7938 499.062 28.0901 497.775 26.9889 496.895C25.9156 496.035 24.5838 495.674 23.2401 495.869Z" fill="black"/>
<path d="M76.0851 178.496C75.9977 178.496 75.9062 178.484 75.8148 178.451L71.3783 176.956C70.9171 176.802 70.6667 176.283 70.8138 175.805C70.9608 175.323 71.4538 175.058 71.9149 175.215L76.3515 176.711C76.8126 176.864 77.0631 177.383 76.916 177.861C76.7967 178.247 76.4509 178.496 76.0812 178.496H76.0851Z" fill="black"/>
<path d="M60.5612 173.263C60.4737 173.263 60.3823 173.251 60.2909 173.218L55.8543 171.723C55.3932 171.569 55.1427 171.05 55.2898 170.572C55.4369 170.091 55.9299 169.825 56.391 169.983L60.8276 171.478C61.2887 171.631 61.5391 172.15 61.3921 172.628C61.2728 173.014 60.9269 173.263 60.5572 173.263H60.5612Z" fill="black"/>
<path d="M67.9396 169.451C67.8481 169.451 67.7527 169.434 67.6573 169.401C67.2001 169.239 66.9537 168.72 67.1087 168.243L68.5796 163.699C68.7346 163.222 69.2316 162.964 69.6887 163.126C70.1459 163.288 70.3924 163.807 70.2373 164.285L68.7664 168.828C68.6432 169.21 68.3013 169.451 67.9356 169.451H67.9396Z" fill="black"/>
<path d="M62.7994 185.357C62.7079 185.357 62.6125 185.341 62.5171 185.307C62.0599 185.145 61.8135 184.626 61.9685 184.149L63.4394 179.601C63.5944 179.123 64.0914 178.866 64.5485 179.028C65.0057 179.19 65.2522 179.709 65.0971 180.187L63.6262 184.734C63.503 185.116 63.1611 185.357 62.7954 185.357H62.7994Z" fill="black"/>
<path d="M692.173 501.617C691.58 501.617 690.988 501.546 690.396 501.401C688.32 500.894 686.559 499.561 685.43 497.638C683.132 493.714 684.254 488.543 687.931 486.114C689.7 484.942 691.799 484.573 693.842 485.067C695.917 485.574 697.678 486.907 698.807 488.83C701.105 492.754 699.984 497.925 696.307 500.354C695.051 501.185 693.624 501.613 692.173 501.613V501.617ZM692.069 486.683C690.944 486.683 689.843 487.015 688.869 487.659C685.999 489.556 685.124 493.606 686.929 496.679C687.808 498.178 689.183 499.225 690.797 499.615C692.379 500.001 694.001 499.711 695.373 498.805C698.243 496.907 699.118 492.858 697.313 489.785C696.434 488.286 695.059 487.239 693.445 486.849C692.987 486.737 692.526 486.683 692.069 486.683Z" fill="black"/>
<path d="M40.4934 218.108C39.8494 218.108 39.2054 218.029 38.5614 217.875C36.3033 217.327 34.3872 215.873 33.1588 213.78C30.6583 209.511 31.8787 203.884 35.878 201.242C37.806 199.972 40.0879 199.565 42.3062 200.104C44.5642 200.653 46.4804 202.106 47.7048 204.199C50.2053 208.469 48.9888 214.096 44.9856 216.737C43.6181 217.643 42.0677 218.108 40.4894 218.108H40.4934ZM36.8162 202.787C33.62 204.901 32.65 209.403 34.6536 212.825C35.6315 214.495 37.162 215.657 38.9589 216.094C40.716 216.521 42.5248 216.201 44.0514 215.192C47.2476 213.078 48.2176 208.577 46.214 205.154C45.2361 203.485 43.7055 202.322 41.9126 201.886C40.1555 201.458 38.3467 201.778 36.8201 202.787H36.8162Z" fill="black"/>
<path d="M552.095 65.5885C543.874 65.5885 537.188 58.6031 537.188 50.0147C537.188 41.4263 543.874 34.4409 552.095 34.4409C560.317 34.4409 567.003 41.4263 567.003 50.0147C567.003 58.6031 560.317 65.5885 552.095 65.5885ZM552.095 36.2724C544.84 36.2724 538.941 42.4396 538.941 50.0147C538.941 57.5898 544.844 63.757 552.095 63.757C559.347 63.757 565.25 57.5898 565.25 50.0147C565.25 42.4396 559.347 36.2724 552.095 36.2724Z" fill="black"/>
<path d="M93.4974 143.328C93.3145 143.328 93.1277 143.266 92.9687 143.142C92.5831 142.838 92.5075 142.261 92.7977 141.858C92.9925 141.588 112.722 114.61 148.231 85.7138C181.008 59.0391 234.338 25.2087 302.261 15.5031C302.739 15.4325 303.184 15.7855 303.247 16.288C303.311 16.7906 302.977 17.2515 302.5 17.318C234.962 26.9696 181.914 60.6255 149.308 87.1591C113.975 115.91 94.3879 142.697 94.1931 142.963C94.0222 143.2 93.7598 143.324 93.4934 143.324L93.4974 143.328Z" fill="black"/>
<path d="M181.815 84.908C181.548 84.908 181.282 84.7792 181.111 84.5384C180.821 84.1314 180.904 83.5583 181.294 83.2592C181.962 82.7401 249.222 31.2844 329.588 28.3191C330.073 28.3067 330.479 28.6971 330.495 29.2037C330.511 29.7104 330.133 30.134 329.648 30.1506C249.838 33.0951 183 84.2144 182.336 84.7336C182.181 84.854 181.998 84.9121 181.815 84.9121V84.908Z" fill="black"/>
<path d="M690.117 468.343C690.117 468.343 690.077 468.343 690.058 468.343C689.577 468.31 689.211 467.874 689.243 467.367C693.365 403.743 676.621 352.042 676.454 351.527C676.295 351.05 676.541 350.526 676.998 350.364C677.456 350.198 677.952 350.456 678.111 350.933C678.282 351.453 695.142 403.502 690.996 467.496C690.964 467.978 690.578 468.351 690.121 468.351L690.117 468.343Z" fill="black"/>
<path d="M674.196 427.677C674.196 427.677 674.176 427.677 674.164 427.677C673.679 427.66 673.301 427.236 673.317 426.73C675.591 356.993 648.427 312.576 648.153 312.136C647.887 311.712 648.002 311.143 648.407 310.869C648.813 310.591 649.357 310.711 649.62 311.135C649.898 311.579 677.36 356.482 675.066 426.792C675.05 427.286 674.661 427.677 674.192 427.677H674.196Z" fill="black"/>
<path d="M611.198 104.128H208.037C195.319 104.128 184.208 114.872 183.222 128.124L140.868 696.828C139.882 710.081 149.391 720.824 162.109 720.824H565.27C577.987 720.824 589.098 710.081 590.084 696.828L632.438 128.124C633.424 114.872 623.915 104.128 611.198 104.128Z" fill="black"/>
<path d="M599.212 104.128H196.055C183.337 104.128 172.226 114.872 171.24 128.124L128.886 696.828C127.9 710.081 137.41 720.824 150.127 720.824H553.288C566.005 720.824 577.117 710.081 578.102 696.828L620.456 128.124C621.442 114.872 611.933 104.128 599.216 104.128H599.212Z" fill="white"/>
<path d="M553.288 721.742H150.127C143.731 721.742 137.907 719.142 133.728 714.424C129.546 709.702 127.515 703.427 128.012 696.762L170.366 128.057C171.387 114.361 182.908 103.218 196.055 103.218H599.216C605.612 103.218 611.436 105.818 615.614 110.536C619.796 115.258 621.828 121.533 621.331 128.199L578.977 696.903C577.955 710.599 566.435 721.742 553.288 721.742ZM196.055 105.046C183.803 105.046 173.065 115.432 172.115 128.199L129.761 696.903C129.304 703.058 131.168 708.839 135.016 713.183C138.861 717.523 144.227 719.915 150.131 719.915H553.292C565.54 719.915 576.282 709.528 577.232 696.762L619.586 128.057C620.043 121.903 618.178 116.122 614.334 111.778C610.49 107.438 605.123 105.046 599.22 105.046H196.055Z" fill="black"/>
<path d="M511.98 232.127H256.326C256.083 232.127 255.849 232.019 255.682 231.833C255.515 231.646 255.431 231.392 255.451 231.139L257.196 207.724C257.232 207.247 257.614 206.881 258.071 206.881H513.725C513.967 206.881 514.202 206.989 514.369 207.176C514.536 207.363 514.619 207.616 514.599 207.87L512.858 231.284C512.822 231.762 512.441 232.127 511.984 232.127H511.98ZM257.272 230.296H511.169L512.775 208.713H258.878L257.272 230.296Z" fill="black"/>
<path d="M339.221 371.24H225.222C224.98 371.24 224.745 371.133 224.578 370.946C224.411 370.759 224.328 370.505 224.348 370.252L233.193 251.464C233.229 250.986 233.61 250.621 234.067 250.621H348.066C348.308 250.621 348.543 250.729 348.71 250.915C348.877 251.102 348.96 251.356 348.941 251.609L340.095 370.397C340.06 370.875 339.678 371.24 339.221 371.24ZM226.168 369.409H338.41L347.12 252.448H234.878L226.168 369.409Z" fill="black"/>
<path d="M529.606 273.977H382.708C382.465 273.977 382.231 273.869 382.064 273.682C381.897 273.495 381.813 273.242 381.833 272.989L383.097 256.036C383.133 255.558 383.515 255.193 383.972 255.193H530.871C531.113 255.193 531.348 255.301 531.515 255.488C531.682 255.675 531.765 255.928 531.745 256.181L530.485 273.134C530.449 273.611 530.068 273.977 529.61 273.977H529.606ZM383.658 272.145H528.799L529.924 257.024H384.783L383.658 272.145Z" fill="black"/>
<path d="M527.587 301.138H380.688C380.446 301.138 380.211 301.03 380.044 300.843C379.877 300.656 379.794 300.402 379.813 300.149L381.078 283.197C381.113 282.719 381.495 282.354 381.952 282.354H528.851C529.094 282.354 529.328 282.462 529.495 282.648C529.662 282.835 529.746 283.089 529.726 283.342L528.462 300.295C528.426 300.772 528.044 301.138 527.587 301.138ZM381.634 299.306H526.776L527.901 284.185H382.759L381.634 299.306Z" fill="black"/>
<path d="M525.564 328.294H378.665C378.422 328.294 378.188 328.186 378.021 327.999C377.854 327.813 377.77 327.559 377.79 327.306L379.054 310.353C379.09 309.876 379.472 309.51 379.929 309.51H526.828C527.07 309.51 527.305 309.618 527.472 309.805C527.639 309.992 527.722 310.245 527.702 310.499L526.438 327.451C526.402 327.929 526.021 328.294 525.564 328.294ZM379.611 326.463H524.753L525.878 311.342H380.736L379.611 326.463Z" fill="black"/>
<path d="M503.651 622.493H206.51C206.267 622.493 206.033 622.385 205.866 622.198C205.699 622.012 205.616 621.758 205.635 621.505L222.058 400.972C222.094 400.494 222.475 400.129 222.932 400.129H520.073C520.316 400.129 520.551 400.237 520.717 400.424C520.884 400.611 520.968 400.864 520.948 401.117L504.526 621.65C504.49 622.128 504.108 622.493 503.651 622.493ZM207.46 620.662H502.844L519.131 401.96H223.747L207.46 620.662Z" fill="black"/>
<path d="M372.868 436.65H241.605L242.265 427.775H373.532L372.868 436.65Z" fill="black"/>
<path d="M371.811 450.87H240.543L241.207 441.995H372.471L371.811 450.87Z" fill="black"/>
<path d="M370.754 465.09H239.486L240.146 456.215H371.413L370.754 465.09Z" fill="black"/>
<path d="M368.038 501.529H236.771L237.435 492.654H368.698L368.038 501.529Z" fill="black"/>
<path d="M366.981 515.749H235.713L236.373 506.874H367.641L366.981 515.749Z" fill="black"/>
<path d="M365.919 529.973H234.652L235.316 521.094H366.579L365.919 529.973Z" fill="black"/>
<path d="M363.208 566.407H231.941L232.601 557.532H363.868L363.208 566.407Z" fill="black"/>
<path d="M362.147 580.631H230.879L231.543 571.751H362.807L362.147 580.631Z" fill="black"/>
<path d="M361.089 594.851H229.822L230.482 585.972H361.749L361.089 594.851Z" fill="black"/>
<path d="M193.347 420.196C193.32 420.196 193.292 420.196 193.264 420.196C192.783 420.151 192.429 419.702 192.473 419.2L196.416 375.261C196.46 374.758 196.89 374.389 197.371 374.434C197.852 374.48 198.205 374.929 198.162 375.431L194.218 419.37C194.174 419.843 193.793 420.201 193.347 420.201V420.196Z" fill="black"/>
<path d="M305.863 660.195C305.382 660.195 304.993 659.792 304.989 659.289C304.985 658.783 305.37 658.371 305.855 658.363L353.174 657.856H353.182C353.663 657.856 354.053 658.259 354.057 658.762C354.061 659.268 353.675 659.68 353.19 659.688L305.871 660.195H305.863Z" fill="black"/>
<path d="M205.178 270.53C205.154 270.53 205.131 270.53 205.111 270.53C204.63 270.489 204.268 270.049 204.304 269.546L213.884 142.136C213.92 141.658 214.302 141.293 214.759 141.293H566.804C567.047 141.293 567.277 141.397 567.444 141.58C567.611 141.762 567.695 142.011 567.679 142.265L563.552 212.006C563.521 212.509 563.107 212.895 562.622 212.862C562.137 212.833 561.771 212.397 561.803 211.89L565.87 143.12H215.566L206.049 269.687C206.013 270.165 205.627 270.53 205.174 270.53H205.178Z" fill="black"/>
<path d="M512.922 172.27H281.414C272.847 172.27 266.439 165.032 267.107 156.107L269.357 125.915C270.872 105.581 287.918 89.0981 307.429 89.0981H499.298C518.813 89.0981 533.403 105.581 531.888 125.915L529.638 156.107C528.974 165.036 521.489 172.27 512.922 172.27Z" fill="black"/>
<path d="M512.922 173.184H281.414C277.026 173.184 273.026 171.398 270.156 168.159C267.286 164.915 265.891 160.609 266.232 156.032L268.482 125.84C270.029 105.075 287.501 88.1802 307.429 88.1802H499.298C508.978 88.1802 517.796 92.1131 524.117 99.2521C530.445 106.395 533.514 115.889 532.763 125.985L530.517 156.173C529.817 165.551 521.926 173.184 512.926 173.184H512.922ZM307.425 90.0117C288.391 90.0117 271.703 106.15 270.224 125.985L267.974 156.177C267.672 160.239 268.9 164.056 271.436 166.917C273.973 169.778 277.511 171.357 281.407 171.357H512.914C521.02 171.357 528.128 164.483 528.756 156.036L531.002 125.844C531.717 116.263 528.807 107.263 522.817 100.498C516.83 93.7369 508.473 90.0158 499.286 90.0158H307.418L307.425 90.0117Z" fill="black"/>
<path d="M409.931 0.913086C386.031 0.913086 365.152 21.1008 363.3 46.0064L358.064 116.325C357.472 124.253 363.165 130.682 370.773 130.682H429.764C437.373 130.682 444.024 124.253 444.613 116.325L449.848 46.0064C451.705 21.1008 433.831 0.913086 409.931 0.913086ZM406.274 50.0182C398.84 50.0182 393.278 43.7389 393.855 35.9894C394.431 28.2399 400.927 21.9605 408.361 21.9605C415.795 21.9605 421.356 28.2399 420.78 35.9894C420.204 43.7389 413.708 50.0182 406.274 50.0182Z" fill="black"/>
<path d="M429.76 131.6H370.769C366.842 131.6 363.268 130.001 360.7 127.102C358.132 124.2 356.883 120.35 357.19 116.255L362.425 45.9403C364.309 20.6111 385.622 0.00390625 409.931 0.00390625C421.734 0.00390625 432.476 4.79648 440.184 13.497C447.896 22.2059 451.637 33.7761 450.723 46.0815L445.487 116.4C444.863 124.785 437.811 131.604 429.764 131.604L429.76 131.6ZM409.927 1.83123C386.512 1.83123 365.983 21.6826 364.166 46.0815L358.931 116.4C358.664 119.98 359.746 123.34 361.98 125.865C364.214 128.386 367.331 129.773 370.766 129.773H429.756C436.908 129.773 443.177 123.709 443.73 116.259L448.966 45.9445C449.844 34.1541 446.266 23.0739 438.888 14.7429C431.518 6.4203 421.229 1.83538 409.923 1.83538L409.927 1.83123ZM406.274 50.9322C402.434 50.9322 398.931 49.3707 396.419 46.53C393.902 43.6894 392.682 39.9226 392.98 35.9149C393.592 27.7128 400.49 21.043 408.361 21.043C412.201 21.043 415.703 22.6046 418.216 25.4452C420.732 28.2859 421.953 32.0527 421.655 36.0603C421.042 44.2625 414.145 50.9322 406.274 50.9322ZM408.361 22.8745C401.384 22.8745 395.266 28.7884 394.725 36.0603C394.467 39.553 395.52 42.8297 397.703 45.2924C399.881 47.751 402.923 49.1049 406.27 49.1049C413.247 49.1049 419.365 43.191 419.905 35.9191C420.164 32.4264 419.11 29.1497 416.928 26.6911C414.749 24.2325 411.708 22.8787 408.361 22.8787V22.8745Z" fill="black"/>
<path d="M508.314 172.27H276.807C268.24 172.27 261.832 165.032 262.5 156.107L264.75 125.915C266.264 105.581 283.311 89.0981 302.822 89.0981H494.691C514.206 89.0981 528.796 105.581 527.281 125.915L525.031 156.107C524.367 165.036 516.881 172.27 508.314 172.27Z" fill="white"/>
<path d="M508.314 173.184H276.807C272.418 173.184 268.419 171.398 265.549 168.159C262.678 164.915 261.283 160.609 261.625 156.032L263.875 125.84C265.421 105.075 282.893 88.1802 302.822 88.1802H494.691C504.371 88.1802 513.188 92.1131 519.509 99.2521C525.838 106.395 528.907 115.889 528.156 125.985L525.909 156.173C525.21 165.551 517.319 173.184 508.318 173.184H508.314ZM302.818 90.0117C283.784 90.0117 267.095 106.15 265.616 125.985L263.366 156.177C263.064 160.239 264.292 164.056 266.829 166.917C269.365 169.778 272.903 171.357 276.799 171.357H508.306C516.412 171.357 523.52 164.483 524.148 156.036L526.394 125.844C527.11 116.263 524.2 107.263 518.209 100.498C512.222 93.7369 503.866 90.0158 494.679 90.0158H302.81L302.818 90.0117Z" fill="black"/>
<path d="M405.32 0.913086C381.42 0.913086 360.541 21.1008 358.688 46.0064L353.453 116.325C352.86 124.253 358.553 130.682 366.162 130.682H425.153C432.762 130.682 439.413 124.253 440.001 116.325L445.237 46.0064C447.093 21.1008 429.22 0.913086 405.32 0.913086ZM401.662 50.0182C394.228 50.0182 388.667 43.7389 389.243 35.9894C389.82 28.2399 396.315 21.9605 403.749 21.9605C411.183 21.9605 416.745 28.2399 416.169 35.9894C415.592 43.7389 409.096 50.0182 401.662 50.0182Z" fill="white"/>
<path d="M425.153 131.6H366.162C362.234 131.6 358.66 130.001 356.092 127.102C353.524 124.2 352.276 120.35 352.578 116.255L357.814 45.9403C359.698 20.6111 381.01 0.00390625 405.32 0.00390625C417.123 0.00390625 427.864 4.79648 435.572 13.497C443.285 22.2059 447.026 33.7761 446.111 46.0815L440.876 116.4C440.251 124.785 433.199 131.604 425.153 131.604V131.6ZM405.32 1.83123C381.905 1.83123 361.376 21.6826 359.559 46.0815L354.323 116.4C354.057 119.98 355.142 123.34 357.376 125.865C359.611 128.386 362.727 129.773 366.162 129.773H425.153C432.305 129.773 438.574 123.709 439.126 116.259L444.362 45.9445C445.241 34.1541 441.663 23.0739 434.284 14.7429C426.914 6.4203 416.626 1.83538 405.32 1.83538V1.83123ZM401.662 50.9322C397.822 50.9322 394.32 49.3707 391.807 46.53C389.291 43.6894 388.07 39.9226 388.369 35.9149C388.981 27.7128 395.878 21.043 403.749 21.043C407.59 21.043 411.092 22.6046 413.604 25.4452C416.121 28.2859 417.341 32.0527 417.043 36.0603C416.431 44.2625 409.534 50.9322 401.662 50.9322ZM403.753 22.8745C396.777 22.8745 390.658 28.7884 390.118 36.0603C389.859 39.553 390.913 42.8297 393.095 45.2924C395.274 47.751 398.315 49.1049 401.662 49.1049C408.639 49.1049 414.757 43.191 415.298 35.9191C415.556 32.4264 414.503 29.1497 412.32 26.6911C410.142 24.2325 407.101 22.8787 403.753 22.8787V22.8745Z" fill="black"/>
<path d="M535.284 207.447L530.232 207.54L532.616 350.211L537.668 350.119L535.284 207.447Z" fill="white"/>
<path d="M537.685 351C537.207 351 536.818 350.601 536.81 350.098L534.417 207.43C534.409 206.923 534.794 206.508 535.279 206.5C535.737 206.467 536.162 206.894 536.17 207.397L538.563 350.065C538.571 350.572 538.185 350.987 537.7 350.995C537.696 350.995 537.689 350.995 537.685 350.995V351Z" fill="black"/>
<path d="M543.711 360.576L526.925 360.882L527.256 380.66L544.041 380.354L543.711 360.576Z" fill="white"/>
<path d="M527.277 381.545C527.05 381.545 526.832 381.453 526.669 381.287C526.502 381.117 526.406 380.889 526.402 380.644L526.072 360.867C526.064 360.36 526.45 359.945 526.935 359.937L543.719 359.629C543.942 359.621 544.176 359.717 544.343 359.887C544.51 360.057 544.606 360.286 544.61 360.531L544.94 380.307C544.948 380.814 544.562 381.229 544.077 381.237L527.293 381.545C527.293 381.545 527.281 381.545 527.277 381.545ZM527.837 361.752L528.14 379.697L543.171 379.423L542.868 361.477L527.837 361.752Z" fill="black"/>
<path d="M548.299 363.567L522.483 364.04L528.613 333.499L541.147 333.271L548.299 363.567Z" fill="black"/>
<path d="M563.411 377.201L507.788 378.215L511.204 582.691L566.827 581.676L563.411 377.201Z" fill="white"/>
<path d="M563.411 377.196L507.788 378.21L509.945 507.328L565.568 506.314L563.411 377.196Z" fill="white"/>
<path d="M551.611 576.26L526.236 576.723L528.388 705.479L553.763 705.017L551.611 576.26Z" fill="white"/>
<path d="M550.567 513.888L537.971 514.118L541.129 703.08L553.725 702.85L550.567 513.888Z" fill="black"/>
<path d="M528.426 706.364C527.949 706.364 527.559 705.965 527.551 705.463L524.315 512.481C524.307 511.974 524.693 511.559 525.178 511.55L550.553 511.085C551.022 511.064 551.435 511.48 551.443 511.986L554.679 704.968C554.683 705.209 554.596 705.446 554.433 705.62C554.27 705.795 554.051 705.894 553.817 705.899L528.442 706.364C528.442 706.364 528.43 706.364 528.426 706.364ZM526.08 513.365L529.285 704.516L552.906 704.084L549.702 512.933L526.08 513.365Z" fill="black"/>
<path d="M511.236 583.572C511.01 583.572 510.791 583.481 510.628 583.315C510.461 583.144 510.366 582.916 510.362 582.671L506.935 378.198C506.927 377.691 507.312 377.276 507.797 377.267L563.421 376.25C563.89 376.233 564.304 376.645 564.312 377.147L567.739 581.62C567.746 582.127 567.361 582.542 566.876 582.551L511.252 583.568C511.252 583.568 511.24 583.568 511.236 583.568V583.572ZM508.704 379.082L512.099 581.724L565.969 580.74L562.571 378.098L508.7 379.082H508.704Z" fill="black"/>
<path d="M584.234 570.023L493.422 571.679L493.628 584.012L584.44 582.356L584.234 570.023Z" fill="white"/>
<path d="M493.661 584.897C493.184 584.897 492.794 584.498 492.786 583.996L492.58 571.665C492.576 571.424 492.663 571.188 492.826 571.013C492.989 570.839 493.208 570.739 493.442 570.735L584.252 569.074C584.725 569.049 585.135 569.468 585.143 569.975L585.35 582.305C585.354 582.546 585.266 582.783 585.103 582.957C584.94 583.132 584.721 583.231 584.487 583.236L493.677 584.897C493.677 584.897 493.665 584.897 493.661 584.897ZM494.345 572.55L494.52 583.053L583.576 581.425L583.402 570.922L494.345 572.55Z" fill="black"/>
<path d="M571.521 703.251L510.584 704.362L510.79 716.695L571.728 715.584L571.521 703.251Z" fill="white"/>
<path d="M510.827 717.577C510.6 717.577 510.381 717.486 510.218 717.32C510.052 717.149 509.956 716.921 509.952 716.676L509.745 704.346C509.737 703.839 510.123 703.424 510.608 703.415L571.547 702.302C572.016 702.286 572.429 702.697 572.437 703.199L572.644 715.53C572.648 715.77 572.561 716.007 572.398 716.182C572.235 716.356 572.016 716.456 571.782 716.46L510.843 717.573C510.843 717.573 510.831 717.573 510.827 717.573V717.577ZM511.51 705.23L511.685 715.733L570.871 714.649L570.696 704.146L511.51 705.23Z" fill="black"/>
<path d="M519.35 392.164C518.873 392.164 518.483 391.766 518.475 391.263C518.467 390.756 518.853 390.341 519.338 390.333L530.537 390.129C530.994 390.1 531.419 390.524 531.427 391.026C531.435 391.533 531.05 391.948 530.565 391.957L519.366 392.16C519.366 392.16 519.354 392.16 519.35 392.16V392.164Z" fill="black"/>
<path d="M519.589 406.326C519.111 406.326 518.722 405.928 518.714 405.425C518.706 404.918 519.092 404.503 519.577 404.495L537.255 404.171C537.748 404.154 538.138 404.565 538.146 405.068C538.154 405.575 537.768 405.99 537.283 405.998L519.604 406.322C519.604 406.322 519.592 406.322 519.589 406.322V406.326Z" fill="black"/>
<path d="M519.847 421.717C519.37 421.717 518.98 421.318 518.972 420.816C518.964 420.309 519.35 419.894 519.835 419.885L531.034 419.682C531.475 419.661 531.916 420.076 531.924 420.579C531.932 421.086 531.547 421.501 531.062 421.509L519.863 421.713C519.863 421.713 519.851 421.713 519.847 421.713V421.717Z" fill="black"/>
<path d="M520.081 435.879C519.604 435.879 519.215 435.48 519.207 434.978C519.199 434.471 519.585 434.056 520.07 434.047L537.748 433.723C538.229 433.69 538.631 434.118 538.639 434.625C538.647 435.131 538.261 435.547 537.776 435.555L520.097 435.879C520.097 435.879 520.085 435.879 520.081 435.879Z" fill="black"/>
<path d="M520.34 451.27C519.863 451.27 519.473 450.871 519.465 450.369C519.457 449.862 519.843 449.447 520.328 449.438L531.527 449.235C532.035 449.218 532.409 449.629 532.417 450.132C532.425 450.639 532.039 451.054 531.554 451.062L520.356 451.266C520.356 451.266 520.344 451.266 520.34 451.266V451.27Z" fill="black"/>
<path d="M520.59 466.046C520.113 466.046 519.724 465.648 519.716 465.145C519.708 464.639 520.093 464.223 520.578 464.215L538.257 463.891C538.714 463.858 539.14 464.286 539.147 464.788C539.155 465.295 538.77 465.71 538.285 465.718L520.606 466.042C520.606 466.042 520.594 466.042 520.59 466.042V466.046Z" fill="black"/>
<path d="M520.825 480.208C520.348 480.208 519.958 479.809 519.95 479.307C519.942 478.8 520.328 478.385 520.813 478.376L532.012 478.173C532.52 478.148 532.894 478.567 532.902 479.07C532.91 479.577 532.524 479.992 532.039 480L520.841 480.204C520.841 480.204 520.829 480.204 520.825 480.204V480.208Z" fill="black"/>
<path d="M521.095 496.214C520.618 496.214 520.229 495.815 520.221 495.313C520.213 494.806 520.598 494.391 521.083 494.382L538.762 494.058C539.275 494.046 539.644 494.453 539.652 494.955C539.66 495.462 539.275 495.877 538.79 495.886L521.111 496.21C521.111 496.21 521.099 496.21 521.095 496.21V496.214Z" fill="black"/>
<path d="M521.592 525.766C521.115 525.766 520.725 525.368 520.718 524.865C520.71 524.358 521.095 523.943 521.58 523.935L539.259 523.611C539.76 523.586 540.141 524.005 540.149 524.508C540.157 525.015 539.772 525.43 539.287 525.438L521.608 525.762C521.608 525.762 521.596 525.762 521.592 525.762V525.766Z" fill="black"/>
<path d="M565.547 505.064L509.924 506.078L510.145 519.332L565.769 518.318L565.547 505.064Z" fill="black"/>
<path d="M663.327 540.14H565.079C565.079 540.14 564.646 735.689 564.674 736.947C564.781 741.951 586.884 745.947 614.267 745.947C641.649 745.947 663.629 741.976 663.828 736.976C663.923 734.551 663.331 540.14 663.331 540.14H663.327Z" fill="white"/>
<path d="M662.834 670.902C628.618 680.134 596.039 679.922 565.286 670.902V612.477C601.14 620.326 633.901 621.531 662.834 612.477V670.902Z" fill="white"/>
<path d="M613.042 678.643C596.667 678.643 580.635 676.359 565.051 671.786C564.673 671.674 564.411 671.317 564.411 670.906V612.481C564.411 612.207 564.53 611.946 564.733 611.771C564.94 611.597 565.206 611.53 565.465 611.584C603.935 620.007 635.702 620.015 662.58 611.605C662.85 611.522 663.132 611.576 663.355 611.746C663.577 611.921 663.709 612.191 663.709 612.481V670.906C663.709 671.325 663.438 671.686 663.053 671.79C646.121 676.359 629.409 678.643 613.042 678.643ZM566.164 670.208C596.628 679.017 628.848 679.008 661.959 670.191V613.702C635.288 621.78 603.927 621.747 566.164 613.603V670.208Z" fill="black"/>
<path d="M614.267 746.769C589.905 746.769 563.934 743.268 563.799 736.781C563.775 735.526 564.189 547.757 564.204 539.766C564.204 539.26 564.598 538.853 565.079 538.853H663.327C663.808 538.853 664.202 539.26 664.202 539.766C664.225 547.711 664.794 734.364 664.699 736.781C664.444 743.268 638.524 746.769 614.263 746.769H614.267ZM565.958 540.68C565.926 555.203 565.528 735.294 565.552 736.739C565.624 740.161 584.193 744.937 614.267 744.937C644.34 744.937 662.814 740.14 662.949 736.702C663.041 734.409 662.496 555.157 662.452 540.68H565.954H565.958Z" fill="black"/>
<path d="M613.901 533.009C644.338 533.009 669.012 530.776 669.012 528.021C669.012 525.267 644.338 523.034 613.901 523.034C583.464 523.034 558.79 525.267 558.79 528.021C558.79 530.776 583.464 533.009 613.901 533.009Z" fill="black"/>
<path d="M668.594 527.602H558.79L558.854 548.213C558.838 548.263 558.826 548.421 558.826 548.471C558.826 551.224 583.008 553.87 613.444 553.87C643.879 553.87 668.555 551.66 668.555 548.907C668.555 548.832 668.535 548.562 668.499 548.487L668.59 527.602H668.594Z" fill="black"/>
<path d="M562.694 531.585H562.638C562.041 531.585 561.557 532.091 561.557 532.715V547.919C561.557 548.543 562.041 549.048 562.638 549.048H562.694C563.291 549.048 563.775 548.543 563.775 547.919V532.715C563.775 532.091 563.291 531.585 562.694 531.585Z" fill="white"/>
<path d="M568.891 533.013H568.836C568.239 533.013 567.754 533.519 567.754 534.143V549.347C567.754 549.971 568.239 550.477 568.836 550.477H568.891C569.489 550.477 569.973 549.971 569.973 549.347V534.143C569.973 533.519 569.489 533.013 568.891 533.013Z" fill="white"/>
<path d="M575.029 533.724H574.974C574.377 533.724 573.892 534.229 573.892 534.853V550.057C573.892 550.681 574.377 551.187 574.974 551.187H575.029C575.627 551.187 576.111 550.681 576.111 550.057V534.853C576.111 534.229 575.627 533.724 575.029 533.724Z" fill="white"/>
<path d="M581.398 534.201H581.342C580.745 534.201 580.261 534.707 580.261 535.331V550.535C580.261 551.159 580.745 551.665 581.342 551.665H581.398C581.995 551.665 582.479 551.159 582.479 550.535V535.331C582.479 534.707 581.995 534.201 581.398 534.201Z" fill="white"/>
<path d="M587.882 534.559H587.826C587.229 534.559 586.745 535.064 586.745 535.688V550.892C586.745 551.516 587.229 552.022 587.826 552.022H587.882C588.479 552.022 588.963 551.516 588.963 550.892V535.688C588.963 535.064 588.479 534.559 587.882 534.559Z" fill="white"/>
<path d="M594.02 534.911H593.964C593.367 534.911 592.883 535.417 592.883 536.041V551.245C592.883 551.869 593.367 552.375 593.964 552.375H594.02C594.617 552.375 595.101 551.869 595.101 551.245V536.041C595.101 535.417 594.617 534.911 594.02 534.911Z" fill="white"/>
<path d="M600.162 535.152H600.106C599.509 535.152 599.025 535.658 599.025 536.282V551.486C599.025 552.11 599.509 552.616 600.106 552.616H600.162C600.759 552.616 601.243 552.11 601.243 551.486V536.282C601.243 535.658 600.759 535.152 600.162 535.152Z" fill="white"/>
<path d="M606.868 535.032H606.813C606.216 535.032 605.731 535.537 605.731 536.161V551.365C605.731 551.989 606.216 552.495 606.813 552.495H606.868C607.466 552.495 607.95 551.989 607.95 551.365V536.161C607.95 535.537 607.466 535.032 606.868 535.032Z" fill="white"/>
<path d="M614.263 535.152H614.207C613.61 535.152 613.126 535.658 613.126 536.282V551.486C613.126 552.11 613.61 552.616 614.207 552.616H614.263C614.86 552.616 615.344 552.11 615.344 551.486V536.282C615.344 535.658 614.86 535.152 614.263 535.152Z" fill="white"/>
<path d="M665.259 548.928H665.315C665.912 548.928 666.396 548.422 666.396 547.798V532.594C666.396 531.97 665.912 531.464 665.315 531.464H665.259C664.662 531.464 664.178 531.97 664.178 532.594V547.798C664.178 548.422 664.662 548.928 665.259 548.928Z" fill="white"/>
<path d="M659.061 550.356H659.117C659.714 550.356 660.198 549.851 660.198 549.227V534.023C660.198 533.399 659.714 532.893 659.117 532.893H659.061C658.464 532.893 657.98 533.399 657.98 534.023V549.227C657.98 549.851 658.464 550.356 659.061 550.356Z" fill="white"/>
<path d="M652.923 551.066H652.979C653.576 551.066 654.06 550.561 654.06 549.937V534.733C654.06 534.109 653.576 533.603 652.979 533.603H652.923C652.326 533.603 651.842 534.109 651.842 534.733V549.937C651.842 550.561 652.326 551.066 652.923 551.066Z" fill="white"/>
<path d="M646.555 551.544H646.61C647.208 551.544 647.692 551.038 647.692 550.414V535.21C647.692 534.586 647.208 534.081 646.61 534.081H646.555C645.958 534.081 645.473 534.586 645.473 535.21V550.414C645.473 551.038 645.958 551.544 646.555 551.544Z" fill="white"/>
<path d="M640.075 551.901H640.131C640.728 551.901 641.212 551.396 641.212 550.772V535.568C641.212 534.944 640.728 534.438 640.131 534.438H640.075C639.478 534.438 638.994 534.944 638.994 535.568V550.772C638.994 551.396 639.478 551.901 640.075 551.901Z" fill="white"/>
<path d="M633.933 552.254H633.989C634.586 552.254 635.07 551.749 635.07 551.125V535.921C635.07 535.297 634.586 534.791 633.989 534.791H633.933C633.336 534.791 632.852 535.297 632.852 535.921V551.125C632.852 551.749 633.336 552.254 633.933 552.254Z" fill="white"/>
<path d="M627.791 552.495H627.847C628.444 552.495 628.928 551.989 628.928 551.366V536.161C628.928 535.537 628.444 535.032 627.847 535.032H627.791C627.194 535.032 626.71 535.537 626.71 536.161V551.366C626.71 551.989 627.194 552.495 627.791 552.495Z" fill="white"/>
<path d="M621.084 552.375H621.14C621.737 552.375 622.221 551.869 622.221 551.245V536.041C622.221 535.417 621.737 534.911 621.14 534.911H621.084C620.487 534.911 620.003 535.417 620.003 536.041V551.245C620.003 551.869 620.487 552.375 621.084 552.375Z" fill="white"/>
<path d="M613.452 554.841C598.949 554.841 585.167 554.26 574.648 553.201C557.963 551.523 557.963 549.613 557.963 548.587C557.963 548.475 557.979 548.375 557.999 548.3L557.955 528.079C557.955 527.573 558.345 527.162 558.83 527.162C559.315 527.162 559.704 527.569 559.704 528.075L559.748 548.446V548.475C561.803 550.402 582.769 553.01 613.452 553.01C646.03 553.01 665.537 550.614 667.632 548.824C667.628 548.795 667.624 548.761 667.624 548.737L667.716 528.075C667.716 527.573 668.109 527.166 668.59 527.166H668.594C669.079 527.166 669.469 527.581 669.465 528.084L669.378 548.562C669.409 548.662 669.433 548.786 669.433 548.936C669.433 549.953 669.433 551.843 652.494 553.38C642.059 554.326 628.192 554.846 613.452 554.846V554.841Z" fill="black"/>
<path d="M613.901 533.927C599.156 533.927 585.29 533.408 574.854 532.461C557.911 530.928 557.911 529.035 557.911 528.021C557.911 527.008 557.911 525.114 574.854 523.582C585.286 522.639 599.152 522.116 613.901 522.116C628.65 522.116 642.512 522.635 652.947 523.582C669.89 525.114 669.89 527.004 669.89 528.021C669.89 529.039 669.89 530.928 652.947 532.461C642.516 533.404 628.646 533.927 613.901 533.927ZM559.867 528.021C562.606 529.799 581.982 532.095 613.905 532.095C645.827 532.095 665.199 529.799 667.942 528.021C665.203 526.244 645.827 523.947 613.905 523.947C581.982 523.947 562.61 526.244 559.867 528.021Z" fill="white"/>
<path d="M633.289 739.796L633.082 741.245C631.838 749.995 624.042 756.034 615.666 754.738L557.868 745.776C551.451 744.779 547.023 738.541 547.977 731.839L548.931 725.127C549.988 717.685 556.623 712.544 563.747 713.648L621.037 722.532C628.983 723.765 634.47 731.494 633.289 739.796Z" fill="white"/>
<path d="M548.553 727.777C546.446 741.685 554.799 745.174 565.321 746.806L589.122 750.498L593.69 718.35L569.889 714.658C559.366 713.025 550.827 714.845 548.553 727.777Z" fill="black"/>
<path d="M617.777 755.801C616.978 755.801 616.175 755.739 615.36 755.614L559.931 747.018C551.837 745.764 546.228 737.865 547.432 729.409L547.77 727.029C549.058 717.972 557.156 711.701 565.826 713.042L621.343 721.651C629.655 722.939 635.42 731.058 634.183 739.742L633.977 741.191C632.768 749.68 625.759 755.797 617.777 755.797V755.801ZM563.485 714.695C556.599 714.695 550.549 719.973 549.507 727.299L549.169 729.679C548.112 737.134 553.053 744.102 560.193 745.207L615.622 753.804C623.597 755.041 631.059 749.265 632.247 740.925L632.454 739.476C633.547 731.789 628.447 724.604 621.088 723.466L565.572 714.857C564.872 714.749 564.173 714.695 563.485 714.695Z" fill="black"/>
<path d="M582.463 720.9L582.312 722.357C581.398 731.153 573.833 737.508 565.413 736.548L507.324 729.953C500.876 729.222 496.217 723.167 496.917 716.431L497.616 709.687C498.396 702.207 504.832 696.8 511.992 697.614L569.571 704.151C577.558 705.056 583.33 712.556 582.459 720.9H582.463Z" fill="white"/>
<path d="M497.342 712.357C495.756 726.34 504.236 729.488 514.81 730.688L538.73 733.404L542.093 701.094L518.173 698.378C507.599 697.178 499.135 699.346 497.346 712.361L497.342 712.357Z" fill="black"/>
<path d="M566.943 737.541C566.347 737.541 565.743 737.507 565.143 737.437L509.435 731.112C501.302 730.19 495.402 722.523 496.285 714.026L496.535 711.634C497.481 702.531 505.345 695.936 514.051 696.924L569.845 703.258C573.892 703.719 577.526 705.795 580.078 709.113C582.63 712.427 583.791 716.585 583.354 720.812L583.203 722.27C582.73 726.818 580.591 730.896 577.18 733.761C574.242 736.228 570.66 737.541 566.943 737.541ZM512.321 698.66C505.201 698.66 499.06 704.279 498.276 711.838L498.026 714.23C497.247 721.726 502.451 728.483 509.622 729.297L565.329 735.622C569.209 736.062 573.034 734.895 576.079 732.337C579.124 729.779 581.036 726.132 581.458 722.075L581.609 720.617C581.998 716.875 580.969 713.196 578.711 710.264C576.453 707.332 573.236 705.492 569.651 705.085L513.856 698.752C513.339 698.693 512.826 698.664 512.317 698.664L512.321 698.66Z" fill="black"/>
<path d="M559.525 741.806L559.446 743.268C558.969 752.101 551.726 758.854 543.274 758.356L484.935 754.909C478.459 754.527 473.506 748.733 473.871 741.968L474.237 735.194C474.643 727.682 480.805 721.934 487.996 722.357L545.822 725.771C553.844 726.245 559.979 733.421 559.525 741.802V741.806Z" fill="white"/>
<path d="M474.094 737.873C473.204 751.923 481.826 754.605 492.444 755.233L516.468 756.653L518.225 724.201L494.202 722.781C483.583 722.154 475.235 724.774 474.094 737.869V737.873Z" fill="black"/>
<path d="M498.984 751.811C498.984 751.811 498.952 751.811 498.932 751.811L493.343 751.483C485.368 751.013 479.183 745.054 479.552 738.201C479.58 737.695 479.994 737.308 480.475 737.337C480.956 737.367 481.325 737.798 481.301 738.301C480.987 744.144 486.43 749.24 493.442 749.651L499.032 749.979C499.513 750.008 499.882 750.44 499.859 750.943C499.835 751.429 499.445 751.807 498.984 751.807V751.811Z" fill="white"/>
<path d="M543.993 759.286C543.679 759.286 543.365 759.278 543.047 759.257L487.102 755.951C483.146 755.718 479.513 753.887 476.873 750.801C474.233 747.711 472.901 743.733 473.128 739.601L473.259 737.2C473.498 732.773 475.374 728.707 478.543 725.755C481.707 722.802 485.774 721.307 490.023 721.564L546.057 724.874C550.124 725.115 553.852 726.992 556.568 730.165C559.279 733.338 560.646 737.424 560.416 741.673L560.336 743.135C560.09 747.699 558.158 751.894 554.89 754.938C551.861 757.762 548.025 759.29 543.997 759.29L543.993 759.286ZM489.113 723.367C481.679 723.367 475.43 729.455 475.004 737.304L474.873 739.704C474.674 743.351 475.851 746.86 478.177 749.58C480.506 752.305 483.711 753.916 487.197 754.124L543.143 757.43C547.043 757.658 550.799 756.287 553.717 753.567C556.631 750.847 558.361 747.105 558.583 743.027L558.663 741.565C558.865 737.807 557.657 734.189 555.256 731.382C552.855 728.574 549.551 726.909 545.953 726.697L489.92 723.387C489.65 723.371 489.379 723.362 489.113 723.362V723.367Z" fill="black"/>
<path d="M307.064 581.537C306.253 534.7 270.8 497.709 220.837 480.478C211.086 477.114 207.52 466.798 202.713 457.317C191.614 435.439 178.356 420.758 162.741 410.342C168.183 367.396 198.698 336.635 231.456 337.087C238.679 337.187 243.596 329.504 240.599 322.635L240.516 322.448C237.443 315.409 230.895 310.711 223.501 310.263C174.687 307.318 138.733 342.843 120.307 391.961C117.851 391.28 115.358 390.628 112.822 390.005C104.398 387.928 96.141 386.927 88.1743 386.944C82.0681 364.086 80.2036 320.077 78.0132 277.703C77.8899 275.295 76.2084 273.301 73.9463 272.815C60.76 269.991 53.1749 270.494 43.8287 274.477C43.6975 324.686 45.1168 384.315 36.7764 404.424C21.9402 416.244 10.8727 433.761 5.56155 456.063C-2.2342 488.817 -10.4593 595.716 72.2608 674.369C97.8862 698.739 169.352 741.129 178.563 747.525C250.792 797.685 308.252 649.958 307.068 581.537H307.064Z" fill="white"/>
<path d="M208.017 758.654C198.035 758.654 188.028 755.195 178.074 748.284C176.098 746.914 171.228 743.87 164.49 739.654C140.9 724.903 91.8159 694.204 71.6686 675.046C35.8502 640.987 13.1189 598.299 4.10269 548.172C-4.65114 499.486 3.07306 462.715 4.70695 455.842C9.87895 434.114 20.7159 416.139 36.0569 403.842C43.0974 386.487 43.0218 340.227 42.9543 295.482C42.9423 288.389 42.9304 281.345 42.9503 274.476C42.9503 274.107 43.165 273.77 43.4949 273.629C53.1512 269.518 60.8754 269.086 74.1214 271.918C76.7809 272.487 78.7408 274.846 78.8879 277.653L79.357 286.773C81.3129 325.11 83.3324 364.738 88.8423 386.03C96.7573 386.072 104.891 387.11 113.025 389.116C115.31 389.681 117.576 390.27 119.779 390.873C129.336 365.714 143.218 344.982 159.958 330.878C178.603 315.172 199.994 307.929 223.553 309.353C231.285 309.818 238.091 314.694 241.311 322.07L241.394 322.257C242.913 325.733 242.631 329.715 240.635 332.905C238.611 336.148 235.209 338.059 231.444 338.001C198.241 337.56 169.169 368.405 163.683 409.885C180.01 420.903 193.034 436.286 203.489 456.885C204.2 458.288 204.884 459.709 205.568 461.125C209.464 469.215 213.145 476.856 221.116 479.606C246.439 488.339 267.851 502.057 283.029 519.279C298.934 537.324 307.549 558.845 307.942 581.516C308.392 607.398 300.584 643.512 287.565 675.773C272.553 712.975 252.951 739.949 232.37 751.727C224.304 756.341 216.17 758.65 208.021 758.65L208.017 758.654ZM44.6995 275.095C44.6836 281.765 44.6955 288.596 44.7034 295.478C44.775 340.6 44.8465 387.255 37.5716 404.785C37.5119 404.93 37.4165 405.055 37.2973 405.151C22.1828 417.194 11.5009 434.874 6.40445 456.282C4.78248 463.093 -2.86618 499.523 5.82006 547.835C14.7607 597.563 37.3132 639.908 72.8413 673.692C92.8614 692.73 141.842 723.362 165.385 738.085C172.147 742.312 177.029 745.369 179.04 746.764C196.536 758.912 214.191 760.046 231.519 750.132C276.084 724.633 307.052 631.739 306.181 581.558C305.422 537.698 272.613 499.303 220.555 481.35C211.897 478.364 207.878 470.021 203.994 461.955C203.318 460.552 202.638 459.144 201.934 457.753C191.527 437.237 178.551 421.987 162.264 411.123C161.978 410.932 161.823 410.583 161.866 410.23C164.494 389.49 173.149 370.515 186.228 356.801C199.128 343.279 215.196 335.953 231.46 336.177C234.584 336.227 237.467 334.624 239.16 331.912C240.822 329.25 241.06 325.924 239.792 323.021L239.709 322.834C236.755 316.077 230.525 311.612 223.441 311.185C178.77 308.494 141.465 338.055 121.115 392.305C120.952 392.737 120.502 392.974 120.073 392.858C117.652 392.189 115.144 391.533 112.611 390.906C104.382 388.875 96.161 387.878 88.1665 387.87C87.7729 387.87 87.427 387.596 87.3237 387.201C81.6269 365.884 79.5796 325.724 77.5999 286.881L77.1308 277.761C77.0274 275.784 75.644 274.123 73.7636 273.72C61.1616 271.025 53.7355 271.362 44.6955 275.103L44.6995 275.095Z" fill="black"/>
<path d="M186.983 710.297C186.76 710.297 186.538 710.21 186.367 710.035C186.021 709.682 186.017 709.101 186.355 708.739C220.682 672.255 231.472 627.307 234.481 596.027C238.146 557.919 231.662 528.619 225.886 519.981C215.781 504.868 200.257 497.933 186.561 491.811C173.753 486.088 162.693 481.146 161.922 470.781C161.059 459.185 169.535 447.362 184.594 439.155C185.023 438.923 185.552 439.097 185.774 439.542C185.997 439.99 185.83 440.542 185.405 440.775C170.99 448.633 162.864 459.796 163.671 470.639C164.359 479.901 174.46 484.415 187.253 490.129C200.475 496.039 216.933 503.394 227.325 518.935C233.253 527.801 239.935 557.641 236.226 596.21C233.189 627.781 222.292 673.156 187.607 710.023C187.436 710.205 187.209 710.297 186.983 710.297Z" fill="black"/>
<path d="M54.0137 498.971C53.803 498.971 53.5923 498.892 53.4254 498.734C45.6217 491.363 40.7558 482.749 39.3525 473.821C37.5238 462.176 41.1692 449.351 49.6169 437.718C58.8558 424.998 72.2529 416.21 84.5766 414.786C91.2274 414.017 97.1945 415.438 101.989 416.58C107.777 417.958 111.959 418.955 114.722 416.061C118.077 412.551 117.815 405.055 113.931 393.784C113.768 393.306 114.002 392.783 114.46 392.613C114.913 392.442 115.418 392.687 115.581 393.165C119.711 405.159 119.838 413.299 115.962 417.356C112.512 420.965 107.694 419.819 101.599 418.365C96.6896 417.194 91.1241 415.869 84.7714 416.605C72.9088 417.975 59.9768 426.489 51.0163 438.823C42.978 449.891 39.3604 462.537 41.0818 473.521C42.4175 482.035 47.0926 490.283 54.5981 497.372C54.9559 497.713 54.9837 498.29 54.6617 498.664C54.4908 498.863 54.2523 498.967 54.0098 498.967L54.0137 498.971Z" fill="black"/>
<path d="M141.051 617.357C140.59 617.357 140.2 616.979 140.177 616.493C140.149 615.986 140.522 615.559 141.003 615.529C168.1 613.997 184.844 607.988 190.771 597.676C195.009 590.304 193.165 581.948 191.38 573.862C189.368 564.746 187.468 556.141 194.147 549.559C201.243 542.569 218.941 540.518 226.482 544.148C226.924 544.359 227.114 544.903 226.912 545.36C226.709 545.821 226.188 546.021 225.751 545.809C218.746 542.437 201.839 544.492 195.351 550.888C189.404 556.748 191.193 564.859 193.089 573.447C194.95 581.886 196.878 590.607 192.274 598.614C186.029 609.479 168.811 615.783 141.099 617.353C141.083 617.353 141.067 617.353 141.051 617.353V617.357Z" fill="black"/>
<path d="M421.337 578.09C421.337 578.09 429.458 588.174 453.49 588.946C474.599 589.623 474.925 583.335 474.69 580.034C474.44 576.562 472.122 572.072 453.816 569.946C433.354 567.57 421.34 578.09 421.34 578.09H421.337Z" fill="black"/>
<path d="M450.635 753.87C442.358 753.87 435.795 751.947 435.413 751.835C434.948 751.698 434.678 751.191 434.809 750.705C434.944 750.219 435.425 749.937 435.894 750.078C436.022 750.115 448.64 753.799 460.673 750.933C461.15 750.821 461.615 751.129 461.723 751.623C461.83 752.117 461.536 752.607 461.063 752.719C457.505 753.566 453.931 753.874 450.631 753.874L450.635 753.87Z" fill="black"/>
<path d="M452.535 704.511L450.623 723.565L438.288 725.077V702.48L452.535 704.511Z" fill="white"/>
<path d="M438.288 725.991C438.073 725.991 437.866 725.908 437.703 725.758C437.516 725.584 437.409 725.335 437.409 725.073V702.476C437.409 702.211 437.52 701.961 437.711 701.787C437.902 701.613 438.156 701.534 438.407 701.571L452.655 703.598C453.124 703.664 453.458 704.109 453.406 704.599L451.49 723.657C451.446 724.085 451.128 724.421 450.719 724.471L438.383 725.982C438.347 725.987 438.315 725.991 438.28 725.991H438.288ZM439.166 703.531V724.047L449.824 722.743L451.577 705.296L439.166 703.531Z" fill="black"/>
<path d="M436.348 758.251C441.484 759.007 449.904 759.671 459.791 758.243C463.042 757.773 465.205 754.497 464.422 751.17C462.243 741.921 458.491 724.366 452.046 716.231L450.444 720.641L448.234 716.488C447.932 715.919 447.387 715.533 446.771 715.454L441.929 714.815C440.919 714.682 439.977 715.379 439.766 716.422L438.995 720.247L436.574 715.222L434.511 734.645C434.102 738.503 433.525 742.337 432.782 746.141L431.677 751.797C430.929 755.909 433.362 757.806 436.348 758.247V758.251Z" fill="white"/>
<path d="M448.007 759.999C443.281 759.999 439.254 759.601 436.224 759.156C434.165 758.853 432.575 757.965 431.629 756.586C430.73 755.273 430.456 753.608 430.814 751.631L431.923 745.962C432.658 742.204 433.235 738.362 433.64 734.55L435.704 715.126C435.747 714.723 436.038 714.399 436.419 714.325C436.801 714.254 437.182 714.453 437.357 714.815L438.653 717.502L438.908 716.235C439.21 714.736 440.581 713.714 442.036 713.905L446.878 714.545C447.769 714.661 448.564 715.222 448.997 716.044L450.289 718.474L451.224 715.907C451.335 715.604 451.593 715.384 451.899 715.33C452.205 715.276 452.52 715.396 452.718 715.65C458.852 723.395 462.577 739.396 464.807 748.961L465.273 750.954C465.702 752.777 465.372 754.717 464.362 756.27C463.341 757.84 461.719 758.891 459.91 759.152C455.628 759.771 451.613 760.004 448.007 760.004V759.999ZM436.467 757.346C441.698 758.114 449.971 758.737 459.667 757.337C460.983 757.146 462.164 756.382 462.907 755.24C463.651 754.098 463.885 752.732 463.567 751.39L463.102 749.393C461.031 740.493 457.64 725.924 452.305 718.096L451.259 720.97C451.14 721.302 450.846 721.534 450.504 721.559C450.146 721.584 449.84 721.401 449.673 721.09L447.463 716.937C447.296 716.626 446.994 716.41 446.652 716.364L441.81 715.724C441.261 715.654 440.732 716.04 440.617 716.613L439.846 720.442C439.77 720.824 439.472 721.111 439.103 721.161C438.741 721.21 438.375 721.011 438.208 720.662L437.115 718.395L435.378 734.753C434.964 738.624 434.38 742.519 433.632 746.332L432.527 751.988C432.265 753.442 432.44 754.634 433.048 755.523C433.883 756.739 435.366 757.188 436.463 757.35L436.467 757.346Z" fill="black"/>
<path d="M453.577 739.7C453.577 739.7 453.557 739.7 453.545 739.7L441.985 739.301C441.5 739.284 441.122 738.861 441.138 738.354C441.154 737.847 441.567 737.457 442.044 737.47L453.605 737.868C454.09 737.885 454.467 738.308 454.452 738.815C454.436 739.309 454.046 739.7 453.577 739.7Z" fill="black"/>
<path d="M453.577 754.223C453.577 754.223 453.557 754.223 453.549 754.223L441.989 753.824C441.818 753.824 436.356 753.824 435.751 749.833C435.676 749.334 436.002 748.865 436.479 748.786C436.956 748.707 437.405 749.048 437.481 749.546C437.846 751.967 441.905 751.992 442.009 751.992L453.545 752.391C457.449 751.98 457.747 750.364 457.747 750.348C457.763 749.841 458.212 749.455 458.654 749.463C459.139 749.48 459.516 749.903 459.5 750.41C459.488 750.742 459.234 753.658 453.66 754.218C453.633 754.218 453.605 754.223 453.577 754.223Z" fill="black"/>
<path d="M394.769 694.365L392.92 722.174H378.076L377.388 694.365H394.769Z" fill="white"/>
<path d="M392.92 723.088H378.08C377.607 723.088 377.218 722.693 377.206 722.195L376.518 694.386C376.51 694.141 376.601 693.9 376.768 693.722C376.931 693.543 377.158 693.443 377.396 693.443H394.777C395.019 693.443 395.25 693.547 395.417 693.734C395.584 693.921 395.667 694.17 395.651 694.423L393.803 722.232C393.771 722.714 393.389 723.083 392.928 723.083L392.92 723.088ZM378.931 721.256H392.101L393.827 695.279H378.287L378.931 721.256Z" fill="black"/>
<path d="M396.796 737.872C396.832 740.501 395.115 742.814 392.662 743.408C384.131 745.485 364.91 750.103 359.428 750.954C352.312 752.063 343.566 749.783 339.809 745.435C336.048 741.087 348.229 730.704 354.009 726.929C362.596 721.318 370.845 710.226 374.304 709.727C377.762 709.229 384.218 719.711 384.218 719.711L394.773 715.08C394.773 715.08 396.614 724.529 396.8 737.872H396.796Z" fill="white"/>
<path d="M355.711 752.146C349.135 752.146 342.361 749.754 339.153 746.05C338.394 745.169 338.096 744.073 338.267 742.79C339.002 737.278 348.873 729.201 353.54 726.153C357.746 723.403 361.837 719.35 365.442 715.774C369.346 711.908 372.165 709.113 374.176 708.822C377.623 708.328 382.807 715.849 384.544 718.573L394.427 714.238C394.67 714.13 394.944 714.142 395.178 714.271C395.409 714.4 395.576 714.628 395.628 714.898C395.648 714.993 397.484 724.583 397.675 737.856C397.719 740.9 395.695 743.608 392.861 744.297C384.695 746.282 365.101 750.996 359.555 751.856C358.303 752.051 357.011 752.142 355.711 752.142V752.146ZM374.57 710.624C374.518 710.624 374.467 710.624 374.419 710.637C372.964 710.849 369.899 713.885 366.651 717.103C362.982 720.737 358.827 724.857 354.47 727.706C348.766 731.431 340.568 738.836 340.004 743.043C339.904 743.786 340.048 744.351 340.457 744.82C343.884 748.786 352.34 751.129 359.296 750.049C364.779 749.198 384.318 744.496 392.463 742.515C394.499 742.021 395.954 740.073 395.922 737.885C395.771 727.374 394.578 719.221 394.105 716.364L384.556 720.554C384.167 720.725 383.709 720.579 383.479 720.205C380.986 716.16 376.641 710.624 374.57 710.624Z" fill="black"/>
<path d="M355.85 747.042C350.419 747.042 345.637 745.966 342.572 743.076C342.214 742.735 342.186 742.158 342.508 741.784C342.83 741.411 343.387 741.377 343.745 741.718C354.725 752.075 392.205 736.253 392.582 736.091C393.024 735.9 393.541 736.124 393.723 736.593C393.906 737.062 393.692 737.594 393.242 737.785C392.074 738.283 371.322 747.042 355.842 747.042H355.85Z" fill="black"/>
<path d="M372.3 730.202C372.089 730.202 371.883 730.123 371.712 729.965L364.162 722.851C363.805 722.511 363.773 721.933 364.099 721.559C364.425 721.182 364.977 721.157 365.335 721.493L372.884 728.607C373.242 728.948 373.274 729.525 372.948 729.899C372.777 730.098 372.535 730.202 372.296 730.202H372.3Z" fill="black"/>
<path d="M456.745 513.074C456.745 513.074 461.345 600.009 463.75 630.019C466.155 660.028 458.121 708.27 458.121 708.27L435.211 707.011C435.211 707.011 434.082 664.767 432.698 642.025C432.336 636.103 431.096 630.284 429.001 624.769C425.908 616.642 421.241 602.974 419.396 590.299C416.53 570.606 406.759 539.5 406.759 539.5C406.759 539.5 398.824 694.756 398.061 706.953C398.061 706.953 380.096 707.788 373.656 703.556C373.656 703.556 362.242 646.946 363.884 616.143C365.522 585.345 363.725 508.817 363.725 508.817L456.745 513.078V513.074Z" fill="black"/>
<path d="M458.125 709.183C458.125 709.183 458.093 709.183 458.077 709.183L435.167 707.925C434.71 707.9 434.348 707.514 434.336 707.036C434.324 706.613 433.191 664.547 431.824 642.083C431.466 636.228 430.245 630.517 428.186 625.106C424.779 616.152 420.339 602.866 418.53 590.437C416.371 575.614 410.205 554.044 407.379 544.558C406.011 571.312 399.615 696.189 398.935 707.011C398.907 707.477 398.546 707.846 398.1 707.867C397.353 707.9 379.786 708.664 373.19 704.329C372.988 704.196 372.849 703.984 372.801 703.743C372.686 703.174 361.384 646.66 363.009 616.094C364.627 585.681 362.866 509.607 362.846 508.842C362.839 508.589 362.934 508.344 363.109 508.165C363.284 507.987 363.522 507.896 363.761 507.904L456.781 512.165C457.23 512.186 457.592 512.559 457.616 513.029C457.664 513.897 462.239 600.292 464.621 629.944C467.01 659.725 459.063 707.942 458.984 708.428C458.908 708.868 458.542 709.188 458.121 709.188L458.125 709.183ZM436.069 706.139L457.389 707.31C458.411 700.898 465.078 657.541 462.879 630.094C460.625 601.978 456.396 522.929 455.915 513.951L364.623 509.769C364.826 518.805 366.281 587.588 364.759 616.185C363.216 645.177 373.437 697.896 374.439 702.966C380.048 706.305 393.807 706.148 397.242 706.056C398.239 689.104 405.809 540.966 405.888 539.442C405.912 539.002 406.23 538.64 406.647 538.582C407.073 538.524 407.466 538.786 407.598 539.205C407.697 539.517 417.421 570.61 420.267 590.15C422.052 602.41 426.449 615.554 429.82 624.421C431.947 630.011 433.211 635.912 433.577 641.955C434.837 662.682 435.898 700.047 436.069 706.131V706.139Z" fill="white"/>
<path d="M440.534 636.132C439.075 636.132 437.616 635.887 436.201 635.393C435.743 635.231 435.493 634.716 435.648 634.234C435.803 633.757 436.292 633.495 436.757 633.657C439.107 634.475 441.603 634.517 443.972 633.769C444.438 633.624 444.927 633.898 445.062 634.384C445.201 634.87 444.938 635.376 444.473 635.522C443.181 635.929 441.858 636.128 440.534 636.128V636.132Z" fill="white"/>
<path d="M386.281 678.136C385.804 678.136 385.415 677.737 385.407 677.238C385.164 663.334 369.823 637.166 369.668 636.904C369.414 636.473 369.541 635.912 369.954 635.646C370.364 635.38 370.905 635.513 371.159 635.945C371.803 637.033 386.906 662.807 387.156 677.205C387.164 677.712 386.778 678.127 386.297 678.136C386.293 678.136 386.285 678.136 386.281 678.136Z" fill="white"/>
<path d="M287.405 378.833C282.44 373.351 279.55 368.936 279.55 368.936C279.55 368.936 270.701 353.35 263.99 347.718C257.276 342.083 256.222 341.339 256.222 341.339C256.222 341.339 254.119 344.271 256.222 347.718C257.419 349.679 259.816 352.611 261.661 354.774C262.873 356.199 262.897 358.321 261.74 359.795C260.293 361.639 259.013 364.671 260.623 368.936C263.036 375.323 268.63 376.702 271.516 376.976C272.593 377.08 273.499 377.857 273.794 378.949C274.279 380.772 275.141 383.796 276.417 387.579L287.405 378.837V378.833Z" fill="white"/>
<path d="M276.413 388.488C276.33 388.488 276.246 388.476 276.163 388.451C275.893 388.368 275.682 388.156 275.587 387.878C274.31 384.094 273.444 381.067 272.943 379.19C272.748 378.467 272.156 377.952 271.432 377.886C268.188 377.578 262.364 376.046 259.804 369.272C258.023 364.55 259.502 361.199 261.056 359.214C261.947 358.08 261.923 356.469 261.001 355.381C259.164 353.225 256.711 350.227 255.479 348.208C253.074 344.271 255.415 340.928 255.519 340.787C255.801 340.397 256.322 340.305 256.711 340.579C256.755 340.612 257.872 341.41 264.535 347.004C271.293 352.677 279.936 367.827 280.301 368.471C280.301 368.471 283.187 372.852 288.037 378.205C288.208 378.392 288.296 378.65 288.276 378.907C288.256 379.165 288.133 379.406 287.934 379.564L276.946 388.306C276.791 388.43 276.604 388.492 276.413 388.492V388.488ZM256.509 342.701C256.135 343.652 255.809 345.339 256.962 347.224C258.135 349.143 260.52 352.058 262.317 354.164C263.815 355.925 263.859 358.537 262.42 360.372C260.591 362.706 260.261 365.472 261.442 368.595C263.656 374.459 268.753 375.788 271.595 376.058C273.05 376.195 274.247 377.234 274.636 378.696C275.078 380.344 275.801 382.898 276.847 386.08L286.101 378.716C281.558 373.6 278.942 369.625 278.826 369.451C278.707 369.247 269.953 353.894 263.442 348.428C259.423 345.056 257.447 343.445 256.509 342.701Z" fill="black"/>
<path d="M443.344 342.619C443.344 342.619 415.489 328.548 376.589 343.927C344.031 356.797 382.227 450.098 376.112 511.82C376.112 511.82 427.328 519.881 441.687 499.523C449.264 488.779 443.344 342.619 443.344 342.619Z" fill="white"/>
<path d="M398.653 514.358C386.663 514.358 376.892 512.867 375.981 512.726C375.52 512.651 375.194 512.211 375.242 511.725C377.699 486.923 373.051 457.536 368.555 429.117C361.924 387.205 356.2 351.008 376.283 343.071C415.087 327.734 443.448 341.655 443.73 341.796C444.02 341.942 444.211 342.245 444.223 342.581C444.465 348.562 450.067 489.191 442.394 500.067C434.145 511.762 414.475 514.358 398.657 514.358H398.653ZM377.07 511.031C383.694 511.941 428.083 517.265 440.983 498.979C446.807 490.719 444.529 393.825 442.494 343.225C438.681 341.518 412.249 330.812 376.9 344.782C358.16 352.191 363.777 387.699 370.284 428.818C374.745 457.021 379.356 486.176 377.07 511.031Z" fill="black"/>
<path d="M338.016 380.162C338.016 380.162 354.932 354.77 371.736 344.596C373.731 343.387 376.844 342.058 380.823 340.833C387.657 358.33 398.116 390.781 392.928 414.86C386.782 443.404 388.551 546.378 389.358 581.466C355.921 580.702 347.195 579.909 347.195 579.909C342.977 555.722 361.352 414.2 361.352 414.2L338.016 380.166V380.162Z" fill="white"/>
<path d="M389.358 582.38C389.358 582.38 389.347 582.38 389.339 582.38C356.259 581.624 347.207 580.827 347.12 580.823C346.726 580.785 346.404 580.482 346.333 580.075C342.202 556.395 359.193 424.043 360.433 414.437L337.301 380.698C337.086 380.382 337.082 379.958 337.293 379.643C337.988 378.6 354.514 353.965 371.294 343.806C373.469 342.49 376.677 341.157 380.573 339.957C381.002 339.824 381.463 340.052 381.63 340.488C388.42 357.877 399.031 390.69 393.779 415.06C387.601 443.744 389.502 549.663 390.229 581.446C390.233 581.695 390.142 581.936 389.975 582.114C389.812 582.285 389.585 582.384 389.354 582.384L389.358 582.38ZM347.951 579.049C350.535 579.236 361.042 579.892 388.464 580.528C387.526 539.172 386.071 442.54 392.078 414.657C397.146 391.126 387.033 359.322 380.314 341.95C376.935 343.034 374.065 344.247 372.177 345.389C357.058 354.542 341.618 376.486 339.094 380.162L362.063 413.664C362.195 413.855 362.25 414.088 362.218 414.32C362.036 415.72 344.25 553.367 347.947 579.049H347.951Z" fill="black"/>
<path d="M406.178 427.212C408.536 396.417 425.602 358.122 435.219 338.645C443.221 340.198 451.486 342.669 459.731 346.357C493.963 361.669 481.818 413.764 481.818 413.764L458.582 410.068L458.495 440.514C458.411 469.485 460.339 498.427 464.263 527.108L472.866 578.746C469.741 568.098 421.663 575.403 399.273 577.613C403.074 519.807 403.527 461.823 406.178 427.212Z" fill="white"/>
<path d="M472.862 579.664C472.484 579.664 472.138 579.406 472.023 579.016C469.566 570.644 432.643 574.813 410.583 577.301C406.488 577.762 402.624 578.198 399.353 578.522C399.094 578.547 398.844 578.455 398.657 578.264C398.474 578.078 398.379 577.816 398.395 577.546C400.394 547.146 401.471 516.58 402.422 489.61C403.292 464.896 404.044 443.553 405.3 427.137C407.657 396.33 424.569 358.205 434.436 338.225C434.614 337.868 434.996 337.668 435.374 337.743C443.969 339.413 452.277 342.029 460.069 345.513C474.38 351.917 482.824 365.817 484.478 385.723C485.718 400.636 482.693 413.847 482.665 413.98C482.558 414.441 482.128 414.74 481.683 414.669L459.453 411.135L459.369 440.518C459.286 469.352 461.226 498.44 465.126 526.979L473.72 578.588C473.8 579.066 473.51 579.523 473.06 579.635C472.993 579.652 472.925 579.66 472.858 579.66L472.862 579.664ZM406.178 427.211L407.053 427.286C405.797 443.666 405.045 464.991 404.179 489.681C403.241 516.343 402.175 546.523 400.219 576.599C403.248 576.292 406.735 575.897 410.4 575.482C438.164 572.346 463.615 570.066 471.442 575.54L463.4 527.266C459.481 498.61 457.537 469.431 457.62 440.513L457.707 410.068C457.707 409.802 457.819 409.549 458.014 409.374C458.208 409.2 458.463 409.125 458.717 409.167L481.142 412.734C482.474 406.085 490.222 360.996 459.389 347.204C451.907 343.856 443.941 341.327 435.704 339.674C425.857 359.692 409.367 397.106 407.057 427.286L406.182 427.211H406.178Z" fill="black"/>
<path d="M366.659 544.467C366.198 544.467 365.812 544.089 365.784 543.603C365.757 543.096 366.126 542.665 366.611 542.64C367.629 542.581 368.504 542.1 369.283 541.165C373.556 536.065 373.051 520.442 372.841 516.372C370.567 516.663 364.631 517.144 358.394 515.408C357.925 515.28 357.651 514.777 357.774 514.287C357.897 513.797 358.378 513.51 358.847 513.639C366.269 515.707 373.437 514.441 373.509 514.424C373.755 514.378 374.001 514.445 374.196 514.603C374.391 514.76 374.514 514.997 374.534 515.255C374.598 516.098 375.997 535.937 370.606 542.365C369.513 543.67 368.201 544.376 366.711 544.463C366.695 544.463 366.679 544.463 366.663 544.463L366.659 544.467Z" fill="black"/>
<path d="M429.796 550.211C426.139 550.211 423.054 548.799 420.633 546.016C412.467 536.622 414.503 514.74 414.59 513.814C414.618 513.544 414.757 513.303 414.968 513.149C415.183 512.996 415.449 512.954 415.699 513.025C432.11 517.863 448.934 512.169 449.101 512.115C449.558 511.958 450.055 512.219 450.206 512.697C450.357 513.179 450.106 513.693 449.649 513.851C448.958 514.092 432.817 519.545 416.252 515.076C415.954 519.599 415.27 537.129 421.929 544.787C424.02 547.192 426.652 548.404 429.868 548.379C430.341 548.334 430.746 548.782 430.75 549.289C430.75 549.796 430.361 550.207 429.88 550.211C429.852 550.211 429.824 550.211 429.792 550.211H429.796Z" fill="black"/>
<path d="M271.627 387.234C278.055 406.264 295.122 435.916 328.217 437.424C339.714 437.947 350.912 426.032 366.075 414.196C366.075 414.196 350.197 364.31 349.143 365.664C344.194 372.022 331.811 390.378 321.001 390.686C304.993 391.138 297.288 381.283 289.015 372.147L271.627 387.234Z" fill="white"/>
<path d="M328.972 438.358C328.71 438.358 328.443 438.354 328.181 438.341C290.28 436.614 274.68 399.021 270.8 387.542C270.677 387.181 270.784 386.778 271.066 386.533L288.455 371.445C288.809 371.138 289.333 371.171 289.651 371.52C290.188 372.113 290.721 372.707 291.254 373.301C299.041 381.981 306.38 390.191 320.974 389.772C330.121 389.515 340.743 375.349 346.452 367.74C347.688 366.092 348.666 364.792 349.398 363.928C349.72 363.55 350.272 363.517 350.634 363.853C350.996 364.19 351.028 364.767 350.706 365.145C350.01 365.967 349.048 367.246 347.827 368.87C341.944 376.715 330.992 391.321 321.017 391.604C305.652 392.035 297.678 383.152 289.97 374.555C289.624 374.169 289.282 373.787 288.936 373.405L272.649 387.534C276.759 399.39 292.076 434.865 328.249 436.514C337.002 436.913 345.601 429.811 356.478 420.816C358.446 419.188 360.477 417.51 362.584 415.811C362.966 415.504 363.518 415.579 363.813 415.977C364.107 416.376 364.035 416.953 363.654 417.261C361.551 418.951 359.527 420.625 357.563 422.249C346.714 431.219 338.08 438.358 328.96 438.358H328.972Z" fill="black"/>
<path d="M365.832 451.29H409.418C412.356 451.29 414.499 448.387 413.751 445.418L397.584 381.208C397.067 379.152 395.286 377.72 393.25 377.72H349.664C346.726 377.72 344.584 380.623 345.331 383.592L361.499 447.802C362.016 449.857 363.797 451.29 365.832 451.29Z" fill="black"/>
<path d="M421.142 415.574L415.509 413.207C413.255 412.26 411.521 410.312 410.794 407.891C410.496 406.903 410.158 405.674 409.772 404.145C408.261 398.152 403.797 394.581 402.072 397.048C401.038 398.526 403.63 403.024 403.125 405.977C402.259 411.043 393.64 407.31 392.217 406.741C388.977 405.437 388.424 404.361 385.932 402.654C384.075 401.383 381.678 403.045 382.04 405.329C382.708 409.561 384.345 414.955 388.337 417.555C394.725 421.717 397.957 421.858 401.201 422.111C403.03 422.252 404.787 422.888 406.329 423.93C408.667 425.517 412.452 428.033 417.067 430.949L421.15 415.574H421.142Z" fill="white"/>
<path d="M417.059 431.862C416.9 431.862 416.745 431.817 416.606 431.73C411.994 428.818 408.206 426.297 405.844 424.694C404.417 423.727 402.787 423.149 401.13 423.021L400.855 423C397.611 422.751 394.26 422.497 387.868 418.332C383.566 415.529 381.853 409.793 381.173 405.478C380.947 404.05 381.527 402.671 382.688 401.882C383.837 401.101 385.264 401.101 386.409 401.886C387.251 402.459 387.884 402.974 388.444 403.423C389.573 404.332 390.464 405.055 392.531 405.885L392.73 405.964C398.013 408.12 400.331 407.866 401.34 407.273C401.853 406.973 402.147 406.508 402.267 405.815C402.477 404.581 402.008 402.854 401.595 401.33C401.054 399.34 400.589 397.625 401.368 396.508C402.024 395.573 403.006 395.179 404.139 395.403C406.743 395.918 409.53 399.577 410.623 403.913C410.973 405.304 411.311 406.55 411.633 407.617C412.281 409.781 413.815 411.509 415.839 412.356L421.472 414.723C421.885 414.897 422.108 415.367 421.989 415.815L417.906 431.19C417.83 431.464 417.639 431.688 417.385 431.796C417.282 431.838 417.17 431.862 417.063 431.862H417.059ZM384.544 403.128C384.234 403.128 383.924 403.223 383.642 403.414C383.065 403.805 382.787 404.465 382.898 405.179C383.523 409.125 385.049 414.337 388.794 416.779C394.817 420.703 397.949 420.944 400.979 421.177L401.257 421.198C403.209 421.347 405.121 422.028 406.795 423.162C408.977 424.64 412.376 426.908 416.522 429.541L420.088 416.118L415.183 414.059C412.67 413.004 410.766 410.857 409.959 408.17C409.629 407.073 409.283 405.798 408.925 404.382C407.916 400.374 405.483 397.534 403.809 397.206C403.217 397.089 402.946 397.351 402.779 397.592C402.501 397.991 402.966 399.702 403.276 400.835C403.741 402.551 404.27 404.494 403.988 406.143C403.777 407.368 403.157 408.311 402.195 408.876C400.219 410.034 396.912 409.64 392.09 407.675L391.899 407.601C389.593 406.674 388.563 405.844 387.371 404.88C386.81 404.428 386.23 403.963 385.447 403.427C385.164 403.232 384.854 403.136 384.54 403.136L384.544 403.128Z" fill="black"/>
<path d="M414.24 432.153C431.295 442.922 459.739 459.094 468.906 453.549C480.657 446.444 483.901 398.601 483.901 395.74L448.322 387.944L446.644 405.956C446.199 409.922 442.891 412.842 439.075 412.638C433.064 412.314 430.862 412.376 420.987 409.822L414.24 432.153Z" fill="white"/>
<path d="M464.032 455.576C452.337 455.576 430.981 443.79 413.791 432.938C413.445 432.718 413.286 432.282 413.41 431.879L420.156 409.548C420.295 409.087 420.76 408.817 421.201 408.934C430.218 411.263 432.742 411.392 437.767 411.65L439.126 411.72C442.458 411.903 445.392 409.32 445.781 405.848L447.288 389.664C447.336 389.161 447.757 388.792 448.246 388.841C448.727 388.891 449.081 389.34 449.033 389.842L447.522 406.043C447.026 410.491 443.285 413.772 439.035 413.552L437.679 413.481C432.69 413.224 430.118 413.091 421.579 410.919L415.286 431.746C442.688 448.981 462.057 456.643 468.473 452.76C479.54 446.066 483.031 399.822 483.031 395.744C483.031 395.237 483.424 394.83 483.905 394.83C484.386 394.83 484.78 395.241 484.78 395.744C484.78 396.246 481.926 446.738 469.347 454.347C467.948 455.194 466.143 455.58 464.028 455.58L464.032 455.576Z" fill="black"/>
<path d="M401.909 313.469C401.742 313.552 401.63 313.718 401.611 313.909L399.365 333.902C398.911 336.742 399.365 339.99 396.224 341.481L392.734 342.968C391.211 343.615 391.263 345.887 392.817 346.456C396.94 347.959 403.59 349.907 410.46 349.928C417.246 349.949 423.125 347.187 426.616 345.081C427.995 344.251 427.713 342.087 426.175 341.655L425.59 341.489C422.982 340.754 421.313 337.311 420.951 334.516L418.196 306.093C418.16 305.707 417.763 305.474 417.429 305.644L401.905 313.473L401.909 313.469Z" fill="white"/>
<path d="M410.535 350.841C410.508 350.841 410.484 350.841 410.456 350.841C403.555 350.821 396.896 348.914 392.527 347.32C391.473 346.934 390.774 345.933 390.746 344.77C390.718 343.603 391.366 342.565 392.404 342.12L395.894 340.633C397.81 339.724 398.057 338.108 398.291 335.554C398.347 334.96 398.402 334.35 398.498 333.748L400.74 313.797C400.796 313.294 401.09 312.858 401.527 312.638L417.051 304.81C417.464 304.602 417.953 304.614 418.355 304.851C418.756 305.088 419.023 305.511 419.071 305.989L421.825 334.416C422.155 336.946 423.666 339.994 425.821 340.6L426.405 340.766C427.467 341.065 428.218 341.962 428.361 343.1C428.504 344.234 428.003 345.297 427.057 345.866C423.296 348.138 417.381 350.837 410.539 350.837L410.535 350.841ZM402.457 314.208L400.231 334.009C400.14 334.603 400.084 335.168 400.032 335.733C399.806 338.158 399.551 340.908 396.582 342.315L393.06 343.819C392.519 344.051 392.487 344.57 392.491 344.724C392.495 344.878 392.551 345.393 393.099 345.596C397.341 347.145 403.797 348.998 410.456 349.018C410.48 349.018 410.504 349.018 410.531 349.018C416.983 349.018 422.597 346.452 426.175 344.292C426.66 343.997 426.636 343.495 426.62 343.349C426.6 343.2 426.497 342.697 425.944 342.544L425.36 342.378C422.31 341.518 420.486 337.764 420.08 334.641L417.373 306.687L402.453 314.208H402.457Z" fill="black"/>
<path d="M383.447 277.778C388.917 276.033 383.344 283.775 402.394 272.304C409.979 267.736 408.186 278.758 410.158 277.578C417.437 273.222 417.186 273.363 421.257 273.442C423.952 273.496 426.747 277.956 427.125 281.723C427.626 286.694 424.119 288.904 423.141 299.926C422.454 307.667 424.052 311.857 421.559 313.593C419.039 315.35 416.081 311.986 413.187 313.685C409.442 315.886 411.947 322.958 408.739 326.97C406.719 329.499 401.181 331.837 390.881 329.495C389.211 329.113 388.031 327.539 388.074 325.749C388.134 323.457 388.225 320.558 388.536 317.796C390.006 304.643 393.473 300.873 391.251 298.123C387.844 293.916 379.825 298.858 377.468 295.291C375.019 291.586 375.957 280.166 383.447 277.778Z" fill="black"/>
<path d="M407.613 290.025L406.755 293.526C406.349 295.175 406.055 296.848 405.868 298.543C405.522 301.72 404.89 307.173 404.31 310.2C403.463 314.644 390.134 312.862 390.134 312.862L388.822 310.582L387.263 310.337C386.961 310.292 386.667 310.18 386.429 309.98C385.832 309.482 385.637 308.672 385.884 307.978C387.232 304.174 389.927 295.715 389.967 288.725C389.967 288.725 398.434 283.991 407.613 290.029V290.025Z" fill="white"/>
<path d="M395.803 314.162C393.246 314.162 390.933 313.892 390.022 313.768C389.756 313.73 389.521 313.573 389.382 313.332L388.285 311.421L387.136 311.243C386.659 311.168 386.226 310.977 385.888 310.695C385.013 309.968 384.679 308.747 385.069 307.659C386.266 304.282 389.056 295.677 389.096 288.717C389.096 288.38 389.275 288.073 389.557 287.915C389.923 287.712 398.585 283.002 408.083 289.248C408.405 289.46 408.56 289.867 408.464 290.249L407.602 293.75C407.208 295.358 406.918 297.002 406.739 298.643C406.329 302.389 405.725 307.459 405.169 310.375C404.58 313.465 399.881 314.158 395.803 314.158V314.162ZM390.666 312.007C395.838 312.638 402.99 312.443 403.451 310.022C404.024 307.019 404.664 301.479 404.998 298.439C405.185 296.716 405.491 294.988 405.904 293.298L406.604 290.453C399.269 285.959 392.618 288.472 390.837 289.302C390.666 296.163 388.194 304.104 386.711 308.294C386.588 308.639 386.695 309.029 386.977 309.262C387.077 309.345 387.224 309.403 387.399 309.432L388.957 309.677C389.215 309.719 389.442 309.876 389.577 310.109L390.666 312.007Z" fill="black"/>
<path d="M407.963 301.412C407.963 301.412 410.023 292.99 413.477 294.805C416.936 296.62 414.447 305.827 407.963 301.412Z" fill="white"/>
</g>
<defs>
<clipPath id="clip0_14_5">
<rect width="700" height="760" fill="white"/>
</clipPath>
</defs>
</svg>
