<svg width="20" height="20" viewBox="0 0 20 20" fill="none" xmlns="http://www.w3.org/2000/svg">
<path d="M16.4772 1.42859H7.31432C6.68218 1.42859 6.16789 1.94287 6.16789 2.57502V3.6543H4.33004C3.25289 3.6543 2.37646 4.53073 2.37646 5.60787V16.6179C2.37646 17.695 3.25289 18.5714 4.33004 18.5714H13.5208C14.5986 18.5714 15.4743 17.695 15.4743 16.6179V14.6993H16.4772C17.1093 14.6993 17.6236 14.185 17.6236 13.5529V2.57502C17.6236 1.94287 17.1093 1.42859 16.4772 1.42859ZM14.15 16.6179C14.15 16.9657 13.8679 17.2479 13.5208 17.2479H4.33004C3.98289 17.2479 3.70004 16.9657 3.70004 16.6179V5.60787C3.70004 5.26073 3.98289 4.97859 4.33004 4.97859H6.16789V13.5529C6.16789 14.185 6.68218 14.6993 7.31432 14.6993H14.1493L14.15 16.6179ZM16.2993 12.745C16.2993 13.0929 16.0172 13.375 15.6693 13.375H8.12147C7.77432 13.375 7.49147 13.0929 7.49147 12.745V3.38287C7.49147 3.03573 7.77432 2.75287 8.12147 2.75287H12.3286L12.3565 2.86287C12.8315 4.77359 14.3022 6.30787 16.195 6.86502L16.2993 6.89573V12.745Z" fill="#130F40"/>
</svg>
