<svg width="35" height="35" viewBox="0 0 35 35" fill="none" xmlns="http://www.w3.org/2000/svg">
<path d="M18.3099 13.9996C19.3537 13.9996 20.1999 13.4624 20.1999 12.7996C20.1999 12.1369 19.3537 11.5996 18.3099 11.5996C17.2661 11.5996 16.4199 12.1369 16.4199 12.7996C16.4199 13.4624 17.2661 13.9996 18.3099 13.9996Z" fill="white"/>
<path fillRule="evenodd" clipRule="evenodd" d="M18.5508 5.13244C18.4008 5.04997 18.219 5.05 18.069 5.13251L4.92711 12.3615C4.58159 12.5515 4.5818 13.0481 4.92748 13.2379L18.0793 20.4579C18.2291 20.5402 18.4106 20.5402 18.5605 20.458L28.3535 15.0835C28.3577 15.0812 28.3624 15.0774 28.3666 15.0752C28.383 15.0663 28.4 15.0544 28.4163 15.0455L31.703 13.2382C32.0484 13.0482 32.0484 12.5518 31.7029 12.3619L18.5508 5.13244ZM18.3099 15.05C16.7699 15.05 15.5599 14.06 15.5599 12.8C15.5599 11.54 16.7699 10.55 18.3099 10.55C19.8499 10.55 21.0599 11.54 21.0599 12.8C21.0599 14.06 19.8499 15.05 18.3099 15.05Z" fill="white"/>
<path fillRule="evenodd" clipRule="evenodd" d="M3.5 13.6104V18.7304H4.45V14.1304L3.5 13.6104Z" fill="white"/>
<path fillRule="evenodd" clipRule="evenodd" d="M3.22966 20.15C2.92966 21 2.24966 23.28 2.59966 26.3C2.61966 26.43 2.69966 26.53 2.80966 26.53H5.16966C5.26966 26.53 5.35966 26.43 5.37966 26.3C5.72966 23.29 5.04966 21 4.74966 20.15C4.72966 20.11 4.71966 20.07 4.68966 20.05C4.67966 20.04 4.66966 20.04 4.65966 20.03C4.62966 20.01 4.59966 20 4.55966 20H3.41966C3.37966 20 3.33966 20.01 3.31966 20.03L3.29966 20.04C3.26966 20.06 3.23966 20.11 3.22966 20.15Z" fill="white"/>
<path fillRule="evenodd" clipRule="evenodd" d="M3.96941 27.3604C3.37941 27.3604 2.89941 27.9504 2.89941 28.6804C2.89941 29.4104 3.37941 30.0004 3.96941 30.0004C4.55941 30.0004 5.03941 29.4104 5.03941 28.6804C5.03941 27.9504 4.55941 27.3604 3.96941 27.3604Z" fill="#EA763A"/>
<path fillRule="evenodd" clipRule="evenodd" d="M8.50977 16.3604V23.8604C9.10977 23.8704 10.2598 23.9604 11.6698 24.4404C13.4798 25.0604 16.0498 26.4804 18.3198 29.7104C20.5798 26.4903 23.1598 25.0704 24.9698 24.4404C26.3798 23.9604 27.5298 23.8604 28.1298 23.8604V16.3604L18.4998 21.6504C18.4498 21.6804 18.3898 21.6904 18.3298 21.6904C18.2698 21.6904 18.2098 21.6804 18.1598 21.6504L8.50977 16.3604Z" fill="#EA763A"/>
</svg>
