<svg width="55" height="55" viewBox="0 0 55 55" fill="none" xmlns="http://www.w3.org/2000/svg">
<path d="M35.5208 25.2083C35.5208 20.7785 31.9298 17.1875 27.5 17.1875C23.0702 17.1875 19.4791 20.7785 19.4791 25.2083C19.4791 29.6381 23.0702 33.2292 27.5 33.2292C31.9298 33.2292 35.5208 29.6381 35.5208 25.2083Z" stroke="#EF0000" stroke-width="1.5" stroke-linecap="round" stroke-linejoin="round"/>
<path d="M35.4812 26.0102C36.2191 26.2339 37.0017 26.3542 37.8125 26.3542C42.2423 26.3542 45.8333 22.7631 45.8333 18.3333C45.8333 13.9035 42.2423 10.3125 37.8125 10.3125C33.6533 10.3125 30.2335 13.4782 29.8313 17.5315" stroke="#EF0000" stroke-width="1.5" stroke-linecap="round" stroke-linejoin="round"/>
<path d="M25.1686 17.5315C24.7665 13.4782 21.3467 10.3125 17.1875 10.3125C12.7577 10.3125 9.16663 13.9035 9.16663 18.3333C9.16663 22.7631 12.7577 26.3542 17.1875 26.3542C17.9983 26.3542 18.781 26.2339 19.5187 26.0102" stroke="#EF0000" stroke-width="1.5" stroke-linecap="round" stroke-linejoin="round"/>
<path d="M50.4167 37.8123C50.4167 31.4841 44.7737 26.354 37.8125 26.354" stroke="#EF0000" stroke-width="1.5" stroke-linecap="round" stroke-linejoin="round"/>
<path d="M40.1042 44.6873C40.1042 38.3591 34.4612 33.229 27.5 33.229C20.5389 33.229 14.8959 38.3591 14.8959 44.6873" stroke="#EF0000" stroke-width="1.5" stroke-linecap="round" stroke-linejoin="round"/>
<path d="M17.1875 26.354C10.2264 26.354 4.58337 31.4841 4.58337 37.8123" stroke="#EF0000" stroke-width="1.5" stroke-linecap="round" stroke-linejoin="round"/>
</svg>
