<svg width="55" height="55" viewBox="0 0 55 55" fill="none" xmlns="http://www.w3.org/2000/svg">
<path d="M41.25 43.5415C41.25 47.3386 35.0939 50.4165 27.5 50.4165C19.9061 50.4165 13.75 47.3386 13.75 43.5415" stroke="#EF0000" stroke-width="1.5" stroke-linecap="round" stroke-linejoin="round"/>
<path d="M33.2292 20.6252C33.2292 23.7893 30.6641 26.3543 27.5 26.3543C24.3359 26.3543 21.7708 23.7893 21.7708 20.6252C21.7708 17.461 24.3359 14.896 27.5 14.896C30.6641 14.896 33.2292 17.461 33.2292 20.6252Z" stroke="#EF0000" stroke-width="1.5" stroke-linecap="round" stroke-linejoin="round"/>
<path d="M27.5 4.5835C18.6404 4.5835 11.4583 11.6308 11.4583 20.324C11.4583 29.553 19.921 34.2798 25.3999 40.713C26.4752 41.9757 28.5725 42.0089 29.6679 40.7639C35.2321 34.4396 43.5417 29.3734 43.5417 20.324C43.5417 11.6308 36.3596 4.5835 27.5 4.5835Z" stroke="#EF0000" stroke-width="1.5" stroke-linejoin="round"/>
</svg>
