<svg width="38" height="39" viewBox="0 0 38 39" fill="none" xmlns="http://www.w3.org/2000/svg">
<rect y="0.5" width="38" height="38" rx="7" fill="#EF0000" fill-opacity="0.1"/>
<path d="M9 13.5L15.913 17.417C18.4616 18.861 19.5384 18.861 22.087 17.417L29 13.5" stroke="#EF0000" stroke-width="1.5" stroke-linejoin="round"/>
<path d="M9.01577 20.9756C9.08114 24.0412 9.11383 25.5739 10.245 26.7094C11.3761 27.8448 12.9503 27.8843 16.0988 27.9634C18.0393 28.0122 19.9607 28.0122 21.9012 27.9634C25.0497 27.8843 26.6239 27.8448 27.7551 26.7094C28.8862 25.5739 28.9189 24.0412 28.9842 20.9756C29.0053 19.9899 29.0053 19.0101 28.9842 18.0244C28.9189 14.9589 28.8862 13.4261 27.7551 12.2907C26.6239 11.1552 25.0497 11.1157 21.9012 11.0366C19.9607 10.9878 18.0393 10.9878 16.0988 11.0366C12.9503 11.1157 11.3761 11.1552 10.245 12.2907C9.11382 13.4261 9.08114 14.9589 9.01576 18.0244C8.99474 19.0101 8.99475 19.9899 9.01577 20.9756Z" stroke="#EF0000" stroke-width="1.5" stroke-linejoin="round"/>
</svg>
