<svg width="38" height="38" viewBox="0 0 38 38" fill="none" xmlns="http://www.w3.org/2000/svg">
<rect width="38" height="38" rx="7" fill="#EF0000" fill-opacity="0.1"/>
<path d="M19 19C20.6569 19 22 17.6569 22 16C22 14.3432 20.6569 13 19 13C17.3431 13 16 14.3432 16 16C16 17.6569 17.3431 19 19 19Z" stroke="#EF0000" stroke-width="1.5"/>
<path d="M19 9C15.134 9 12 12.0752 12 15.8686C12 18.0376 12.875 19.7242 14.625 21.2306C15.8585 22.2925 18.1028 24.5702 19 25.9999C19.9426 24.5987 22.1415 22.2925 23.375 21.2306C25.125 19.7242 26 18.0376 26 15.8686C26 12.0752 22.866 9 19 9Z" stroke="#EF0000" stroke-width="1.5" stroke-linejoin="round"/>
<path d="M25 26C25 27.6569 22.3137 29 19 29C15.6863 29 13 27.6569 13 26" stroke="#EF0000" stroke-width="1.5"/>
</svg>
