<svg width="56" height="55" viewBox="0 0 56 55" fill="none" xmlns="http://www.w3.org/2000/svg">
<path d="M5.08331 18.3335V45.8335C5.08331 48.3649 7.13534 50.4168 9.66665 50.4168H46.3333C48.8647 50.4168 50.9166 48.3649 50.9166 45.8335V18.3335" stroke="#EF0000" strokeWidth="1.5" stroke-linecap="round" stroke-linejoin="round"/>
<path d="M10.6915 7.11709L5.08331 18.3335H50.9166L45.3085 7.11712C44.5321 5.56435 42.9451 4.5835 41.2089 4.5835H14.791C13.0549 4.5835 11.4679 5.56433 10.6915 7.11709Z" stroke="#EF0000" strokeWidth="1.5" stroke-linejoin="round"/>
<path d="M28 18.3335V4.5835" stroke="#EF0000" strokeWidth="1.5"/>
<path d="M19.9791 32.0833H32.5833C35.1147 32.0833 37.1666 34.1353 37.1666 36.6667C37.1666 39.198 35.1147 41.25 32.5833 41.25H30.2916M23.4166 27.5L18.8333 32.0833L23.4166 36.6667" stroke="#EF0000" strokeWidth="1.5" stroke-linecap="round" stroke-linejoin="round"/>
</svg>
