<svg width="100%" height="100%" viewBox="0 0 159 45" fill="none" xmlns="http://www.w3.org/2000/svg">
<path d="M50.3041 12.759C51.1016 12.3164 51.7606 11.7488 52.2691 11.0641C52.9208 10.1764 53.2513 9.14667 53.2513 8.00354C53.2513 5.88065 52.5709 4.24856 51.2308 3.15419C49.9188 2.07324 47.9477 1.52515 45.3731 1.52515H37.4949V25.3012H45.8346C48.3611 25.3012 50.3504 24.6763 51.7484 23.4429C53.158 22.2004 53.8719 20.4744 53.8719 18.3137C53.8719 16.895 53.4823 15.6562 52.716 14.6331C52.099 13.7906 51.29 13.162 50.3041 12.759ZM48.469 10.4745C47.7337 11.0927 46.7235 11.4055 45.467 11.4055H41.1578V4.6485H45.3719C46.8113 4.6485 47.8886 4.92103 48.5745 5.46059C49.2439 5.97698 49.5695 6.8037 49.5695 7.98768C49.5701 9.0473 49.2104 9.85999 48.469 10.4745ZM41.1584 14.4636H45.9449C48.8019 14.4636 50.1907 15.733 50.1907 18.3436C50.1907 19.5581 49.8182 20.4829 49.0512 21.1713C48.2958 21.848 47.235 22.1912 45.8974 22.1912H41.159V14.4636H41.1584Z" fill="#130F40"/>
<path d="M152.082 1.52417V18.7346L140.859 1.52417H137.318V25.2996H140.999V8.16717L152.191 25.2996H155.732V1.52417H152.082Z" fill="#130F40"/>
<path d="M111.139 12.7483C111.959 11.6289 112.375 10.2992 112.375 8.79818C112.375 6.44484 111.626 4.62131 110.151 3.3788C108.7 2.14848 106.61 1.52417 103.939 1.52417H95.9662V25.2996H99.6462V15.9283H104.601L109.628 25.2996H113.393V24.7253L108.08 15.1248C109.367 14.5754 110.395 13.7774 111.139 12.7483ZM108.695 8.79879C108.695 10.0328 108.287 10.9881 107.446 11.7203C106.616 12.4513 105.469 12.822 104.035 12.822H99.6468V4.64875H104.018C105.546 4.65911 106.72 5.02308 107.509 5.73335C108.307 6.4424 108.695 7.44532 108.695 8.79879Z" fill="#130F40"/>
<path d="M61.6837 1.52417H58.0189V25.2996H61.6837V1.52417Z" fill="#130F40"/>
<path d="M84.6988 1.52417H80.1921L70.3386 12.4891V1.52417H66.6744V25.2996H70.3386V17.2897L72.8395 14.6913L80.9249 25.2996H85.3499L75.297 12.0752L84.6988 1.52417Z" fill="#130F40"/>
<path d="M122.76 1.52417L113.68 25.2996H117.488L119.668 19.2535H128.947L131.157 25.2996H134.948L125.852 1.52417H122.76ZM127.816 16.1301H120.81L124.305 6.4924L127.816 16.1301Z" fill="#130F40"/>
<path d="M90.9907 1.52417H87.3265V25.2996H90.9907V1.52417Z" fill="#130F40"/>
<path d="M9.342 13.8066C12.8179 13.8066 15.6357 10.9888 15.6357 7.5129C15.6357 4.037 12.8179 1.21924 9.342 1.21924C5.86611 1.21924 3.04834 4.037 3.04834 7.5129C3.04834 10.9888 5.86611 13.8066 9.342 13.8066Z" fill="#F50303"/>
<path d="M23.5017 13.8066C26.9776 13.8066 29.7953 10.9888 29.7953 7.5129C29.7953 4.037 26.9776 1.21924 23.5017 1.21924C20.0258 1.21924 17.208 4.037 17.208 7.5129C17.208 10.9888 20.0258 13.8066 23.5017 13.8066Z" fill="#FFE600"/>
<path d="M16.4215 25.6061C19.8974 25.6061 22.7151 22.7883 22.7151 19.3125C22.7151 15.8366 19.8974 13.0188 16.4215 13.0188C12.9456 13.0188 10.1278 15.8366 10.1278 19.3125C10.1278 22.7883 12.9456 25.6061 16.4215 25.6061Z" fill="#AE00B9"/>
<path fill-rule="evenodd" clip-rule="evenodd" d="M6.16438 37.044C5.17366 36.7593 4.45181 36.4106 3.99882 35.9972C3.54949 35.5802 3.32513 35.0669 3.32513 34.4572C3.32513 33.7676 3.60009 33.1982 4.14941 32.7489C4.70299 32.2959 5.42058 32.0691 6.30278 32.0691C6.90452 32.0691 7.43982 32.1855 7.90866 32.4178C8.38176 32.6507 8.74696 32.9714 9.00363 33.3799C9.26457 33.789 9.39443 34.2359 9.39443 34.7212H8.23361C8.23361 34.192 8.06534 33.7768 7.72819 33.4762C7.39104 33.1714 6.91611 33.019 6.30217 33.019C5.73273 33.019 5.28767 33.1452 4.96698 33.3982C4.65056 33.6469 4.49205 33.9938 4.49205 34.4389C4.49205 34.7955 4.64264 35.0986 4.9432 35.3473C5.24804 35.5918 5.76322 35.8168 6.48934 36.021C7.21912 36.2258 7.78855 36.452 8.19764 36.7008C8.611 36.9453 8.91523 37.2324 9.11215 37.561C9.31273 37.8896 9.41272 38.2768 9.41272 38.7218C9.41272 39.4315 9.13593 40.0009 8.58234 40.4301C8.02876 40.8551 7.28923 41.0679 6.36252 41.0679C5.76078 41.0679 5.19927 40.9532 4.678 40.7246C4.15673 40.4917 3.75373 40.1753 3.46901 39.7741C3.18856 39.3736 3.04834 38.9188 3.04834 38.4097H4.20916C4.20916 38.9389 4.40364 39.3577 4.79262 39.6668C5.18585 39.9717 5.70895 40.1241 6.36252 40.1241C6.9722 40.1241 7.43921 39.9997 7.76416 39.751C8.08912 39.5022 8.25129 39.1632 8.25129 38.7346C8.25129 38.3054 8.1007 37.975 7.80013 37.7421C7.49956 37.5049 6.95391 37.2727 6.16438 37.044ZM13.6664 41.0673C12.7842 41.0673 12.066 40.7783 11.513 40.2009C10.9595 39.6193 10.6833 38.8432 10.6833 37.8732V37.6689C10.6833 37.0233 10.8058 36.4478 11.0503 35.9423C11.299 35.4333 11.6435 35.0358 12.0849 34.7517C12.53 34.4627 13.011 34.3188 13.5286 34.3188C14.3749 34.3188 15.0321 34.5974 15.5015 35.1553C15.971 35.7125 16.2051 36.5106 16.2051 37.5494V38.0128H11.7959C11.8118 38.6542 11.9983 39.1736 12.3556 39.5705C12.7165 39.9637 13.1738 40.1601 13.7274 40.1601C14.1206 40.1601 14.4535 40.0796 14.726 39.9192C14.9985 39.7589 15.2375 39.5461 15.4418 39.2815L16.1216 39.8107C15.5753 40.6484 14.7571 41.0673 13.6664 41.0673ZM13.5323 35.2321C13.083 35.2321 12.7062 35.3967 12.4013 35.7253C12.0965 36.0503 11.9081 36.5075 11.8362 37.0971H15.0961V37.0129C15.0644 36.4478 14.912 36.0106 14.6388 35.7015C14.3669 35.3888 13.9975 35.2321 13.5323 35.2321ZM20.8977 35.4369C20.7295 35.4089 20.5472 35.3949 20.3503 35.3949C19.6205 35.3949 19.1254 35.7058 18.8645 36.327V40.9465H17.7518V34.4383H18.8346L18.8529 35.19C19.2181 34.6084 19.7351 34.3176 20.4045 34.3176C20.621 34.3176 20.7856 34.3456 20.8977 34.4017V35.4369ZM24.4271 39.4358L26.0391 34.4371H27.1762L24.8423 40.9453H23.9943L21.6361 34.4371H22.7731L24.4271 39.4358ZM29.8246 40.9459H28.5924V34.4371H29.8246V40.9459ZM28.4992 32.7123C28.4992 32.5318 28.5534 32.3794 28.6619 32.255C28.7735 32.1307 28.9381 32.0685 29.1546 32.0685C29.371 32.0685 29.5356 32.1307 29.6478 32.255C29.76 32.3794 29.816 32.5318 29.816 32.7123C29.816 32.8928 29.76 33.0433 29.6478 33.1635C29.5356 33.2836 29.371 33.3439 29.1546 33.3439C28.9381 33.3439 28.7735 33.2836 28.6613 33.1635C28.5528 33.0427 28.4992 32.8928 28.4992 32.7123ZM34.3471 40.1588C34.744 40.1588 35.0909 40.0387 35.3879 39.7979C35.6848 39.5571 35.8494 39.2565 35.8811 38.8956H36.934C36.9139 39.2687 36.7858 39.6236 36.5487 39.9601C36.3121 40.2972 35.9951 40.5655 35.5982 40.7661C35.2049 40.9667 34.7879 41.0667 34.3471 41.0667C33.4607 41.0667 32.7553 40.7716 32.2297 40.1826C31.7085 39.5888 31.4475 38.7792 31.4475 37.7525V37.5659C31.4475 36.9325 31.564 36.3691 31.7963 35.8759C32.0292 35.3827 32.3614 34.9998 32.7949 34.7273C33.232 34.4547 33.7472 34.3182 34.3404 34.3182C35.0702 34.3182 35.6756 34.5364 36.1573 34.9742C36.6426 35.4113 36.9011 35.9789 36.9334 36.6764H35.8805C35.8482 36.2551 35.6878 35.9106 35.3994 35.6418C35.1147 35.3693 34.7617 35.2327 34.341 35.2327C33.7759 35.2327 33.3363 35.4369 33.0235 35.8466C32.715 36.2514 32.5602 36.8392 32.5602 37.6092V37.8195C32.5602 38.5694 32.7144 39.1468 33.0235 39.5522C33.3326 39.9564 33.7734 40.1588 34.3471 40.1588ZM41.131 41.0673C40.2488 41.0673 39.5312 40.7783 38.9776 40.2009C38.424 39.6193 38.1478 38.8432 38.1478 37.8732V37.6689C38.1478 37.0233 38.2704 36.4478 38.5149 35.9423C38.7636 35.4333 39.1087 35.0358 39.5495 34.7517C39.9945 34.4627 40.4756 34.3188 40.9932 34.3188C41.8394 34.3188 42.4972 34.5974 42.9661 35.1553C43.4355 35.7125 43.6697 36.5106 43.6697 37.5494V38.0128H39.2605C39.2764 38.6542 39.4629 39.1736 39.8202 39.5705C40.1811 39.9637 40.6384 40.1601 41.1919 40.1601C41.5852 40.1601 41.9181 40.0796 42.1906 39.9192C42.4631 39.7589 42.7021 39.5461 42.9063 39.2815L43.5861 39.8107C43.0399 40.6484 42.2223 41.0673 41.131 41.0673ZM40.9962 35.2321C40.5469 35.2321 40.1701 35.3967 39.8653 35.7253C39.5605 36.0503 39.3721 36.5075 39.2995 37.0971H42.56V37.0129C42.5277 36.4478 42.3753 36.0106 42.1028 35.7015C41.8303 35.3888 41.4614 35.2321 40.9962 35.2321ZM45.1743 42.6908L44.5427 42.2579C44.9195 41.7324 45.1164 41.191 45.1323 40.6338V39.629H46.2211V40.5015C46.2211 40.9063 46.1212 41.3111 45.9206 41.7166C45.7236 42.1214 45.4749 42.4463 45.1743 42.6908ZM53.9298 37.0428C52.9391 36.7581 52.2173 36.4094 51.7643 35.996C51.315 35.579 51.0906 35.0656 51.0906 34.456C51.0906 33.7664 51.3656 33.197 51.9149 32.7477C52.4685 32.2953 53.186 32.0685 54.0682 32.0685C54.67 32.0685 55.2053 32.1849 55.6741 32.4172C56.1472 32.6501 56.5124 32.9708 56.7691 33.3799C57.03 33.789 57.1599 34.2359 57.1599 34.7212H55.9991C55.9991 34.192 55.8308 33.7768 55.4937 33.4762C55.1571 33.1714 54.6816 33.019 54.0682 33.019C53.4988 33.019 53.0537 33.1452 52.7331 33.3976C52.416 33.6463 52.2581 33.9932 52.2581 34.4383C52.2581 34.7949 52.4081 35.0979 52.7093 35.3467C53.0141 35.5912 53.5293 35.8161 54.2548 36.0204C54.9846 36.2246 55.554 36.4514 55.9631 36.7002C56.3759 36.9446 56.6807 37.2312 56.8776 37.5604C57.0782 37.889 57.1782 38.2762 57.1782 38.7212C57.1782 39.4309 56.9014 40.0003 56.3484 40.4295C55.7948 40.8545 55.0553 41.0673 54.1286 41.0673C53.5269 41.0673 52.9653 40.9526 52.4441 40.7246C51.9228 40.4917 51.5198 40.1753 51.2351 39.7741C50.954 39.373 50.8138 38.9182 50.8138 38.4085H51.9746C51.9746 38.9377 52.1691 39.3565 52.5581 39.6656C52.9513 39.9705 53.4744 40.1229 54.128 40.1229C54.7377 40.1229 55.2047 39.9985 55.5296 39.7498C55.8546 39.501 56.0168 39.162 56.0168 38.7334C56.0168 38.3042 55.8662 37.9738 55.5656 37.7409C55.265 37.5043 54.72 37.2714 53.9298 37.0428ZM61.4325 41.0673C60.5503 41.0673 59.8321 40.7783 59.2785 40.2009C58.7249 39.6193 58.4487 38.8432 58.4487 37.8732V37.6689C58.4487 37.0233 58.5713 36.4478 58.8158 35.9423C59.0645 35.4333 59.409 35.0358 59.8504 34.7517C60.2954 34.4627 60.7765 34.3188 61.2941 34.3188C62.1403 34.3188 62.7975 34.5974 63.267 35.1553C63.7358 35.7125 63.9706 36.5106 63.9706 37.5494V38.0128H59.5614C59.5773 38.6542 59.7638 39.1736 60.1211 39.5705C60.482 39.9637 60.9393 40.1601 61.4922 40.1601C61.8855 40.1601 62.2184 40.0796 62.4909 39.9192C62.7634 39.7589 63.0024 39.5461 63.2066 39.2815L63.8864 39.8107C63.3408 40.6484 62.5232 41.0673 61.4325 41.0673ZM61.2971 35.2321C60.8478 35.2321 60.471 35.3967 60.1662 35.7253C59.8614 36.0503 59.673 36.5075 59.601 37.0971H62.8616V37.0129C62.8293 36.4478 62.6768 36.0106 62.4043 35.7015C62.1312 35.3888 61.7623 35.2321 61.2971 35.2321ZM68.1279 40.1588C68.5248 40.1588 68.8717 40.0387 69.1686 39.7979C69.4649 39.5571 69.6295 39.2565 69.6612 38.8956H70.7141C70.694 39.2687 70.566 39.6236 70.3295 39.9601C70.0929 40.2972 69.7759 40.5655 69.379 40.7661C68.9857 40.9667 68.5687 41.0667 68.1279 41.0667C67.2415 41.0667 66.5355 40.7716 66.0105 40.1826C65.4893 39.5888 65.2283 38.7792 65.2283 37.7525V37.5659C65.2283 36.9325 65.3448 36.3691 65.577 35.8759C65.8099 35.3827 66.1428 34.9998 66.5757 34.7273C67.0128 34.4547 67.528 34.3182 68.1218 34.3182C68.8516 34.3182 69.457 34.5364 69.9386 34.9742C70.4233 35.4113 70.6824 35.9789 70.7141 36.6764H69.6612C69.6295 36.2551 69.4692 35.9106 69.1802 35.6418C68.8955 35.3693 68.5425 35.2327 68.1218 35.2327C67.556 35.2327 67.1171 35.4369 66.8043 35.8466C66.4958 36.2514 66.341 36.8392 66.341 37.6092V37.8195C66.341 38.5694 66.4958 39.1468 66.8043 39.5522C67.1134 39.9564 67.5542 40.1588 68.1279 40.1588ZM76.2232 40.3021C75.7891 40.8118 75.1538 41.066 74.3161 41.066C73.6223 41.066 73.0925 40.8655 72.7279 40.4643C72.367 40.0595 72.1841 39.462 72.1804 38.6719V34.4371H73.2937V38.6414C73.2937 39.6278 73.6936 40.121 74.496 40.121C75.3458 40.121 75.9116 39.804 76.1921 39.1706V34.4365H77.3047V40.9447H76.2463L76.2232 40.3021ZM82.3973 35.4369C82.229 35.4089 82.0468 35.3949 81.8504 35.3949C81.1201 35.3949 80.625 35.7058 80.3647 36.327V40.9465H79.2514V34.4383H80.3342L80.3525 35.19C80.7171 34.6084 81.2347 34.3176 81.9047 34.3176C82.1217 34.3176 82.2858 34.3456 82.3973 34.4017V35.4369ZM84.9988 40.9459H83.7666V34.4371H84.9988V40.9459ZM83.6807 32.7123C83.6807 32.5318 83.7349 32.3794 83.8435 32.255C83.9557 32.1307 84.119 32.0685 84.3361 32.0685C84.5531 32.0685 84.7165 32.1307 84.8299 32.255C84.9421 32.3794 84.9976 32.5318 84.9976 32.7123C84.9976 32.8928 84.9421 33.0433 84.8299 33.1635C84.7165 33.2836 84.5531 33.3439 84.3361 33.3439C84.119 33.3439 83.9557 33.2836 83.8435 33.1635C83.7349 33.0427 83.6807 32.8928 83.6807 32.7123ZM88.4221 32.8623V34.4383H89.6384V35.2985H88.4221V39.3346C88.4221 39.5955 88.4764 39.7918 88.5849 39.9241C88.6934 40.0528 88.8781 40.1168 89.1379 40.1168C89.2677 40.1168 89.4439 40.0924 89.6677 40.0448V40.9472C89.3744 41.0276 89.0903 41.0673 88.8141 41.0673C88.3166 41.0673 87.9417 40.9167 87.6893 40.6161C87.4369 40.3155 87.3101 39.8881 87.3101 39.3352V35.2991H86.1249V34.4389H87.3101V32.8629H88.4221V32.8623ZM93.3184 39.3157L94.834 34.4371H96.0254L93.4086 41.9501C93.0032 43.0328 92.36 43.5742 91.4784 43.5742L91.2675 43.5559L90.8523 43.4779V42.5756L91.1528 42.6C91.5296 42.6 91.8229 42.5238 92.0314 42.3714C92.2429 42.2189 92.4179 41.9403 92.5551 41.5355L92.8014 40.874L90.4792 34.4377H91.6936L93.3184 39.3157ZM100.344 38.595C100.344 38.1738 100.46 37.7872 100.692 37.4342C100.929 37.0812 101.377 36.6703 102.04 36.2015C101.651 35.7283 101.389 35.3473 101.258 35.0583C101.125 34.7699 101.059 34.4828 101.059 34.1981C101.059 33.5323 101.255 33.011 101.648 32.6343C102.041 32.2569 102.574 32.0685 103.248 32.0685C103.849 32.0685 104.347 32.2447 104.74 32.5977C105.133 32.9464 105.329 33.3878 105.329 33.9213C105.329 34.2743 105.239 34.6011 105.059 34.9016C104.882 35.1985 104.571 35.5113 104.127 35.8399L103.482 36.3149L105.431 38.6426C105.705 38.1213 105.84 37.5415 105.84 36.9044H106.846C106.846 37.9268 106.599 38.7749 106.105 39.4486L107.357 40.9465H106.022L105.437 40.2546C105.141 40.5192 104.792 40.7216 104.391 40.8618C103.994 40.9984 103.59 41.0667 103.176 41.0667C102.322 41.0667 101.636 40.8398 101.119 40.3869C100.602 39.9345 100.344 39.337 100.344 38.595ZM103.171 40.1582C103.761 40.1582 104.301 39.9339 104.79 39.4845L102.654 36.9282L102.456 37.0727C101.787 37.5659 101.451 38.0732 101.451 38.5944C101.451 39.0675 101.604 39.4467 101.909 39.7315C102.218 40.0156 102.638 40.1582 103.171 40.1582ZM102.17 34.1615C102.17 34.5468 102.407 35.0278 102.88 35.6052L103.59 35.1059C103.863 34.9132 104.049 34.7309 104.149 34.5584C104.25 34.3816 104.299 34.1694 104.299 33.9207C104.299 33.6518 104.199 33.4293 103.999 33.2531C103.799 33.0726 103.546 32.9824 103.241 32.9824C102.912 32.9824 102.652 33.0946 102.459 33.3189C102.267 33.5396 102.17 33.8207 102.17 34.1615ZM114.541 37.0428C113.549 36.7581 112.828 36.4094 112.375 35.996C111.925 35.579 111.701 35.0656 111.701 34.456C111.701 33.7664 111.976 33.197 112.525 32.7477C113.078 32.2947 113.796 32.0679 114.678 32.0679C115.279 32.0679 115.815 32.1843 116.285 32.4166C116.758 32.6495 117.122 32.9702 117.379 33.3793C117.64 33.7884 117.771 34.2353 117.771 34.7206H116.609C116.609 34.1914 116.441 33.7762 116.104 33.4756C115.767 33.1708 115.292 33.0184 114.678 33.0184C114.109 33.0184 113.663 33.1446 113.343 33.397C113.027 33.6457 112.868 33.9926 112.868 34.4377C112.868 34.7943 113.018 35.0973 113.318 35.3461C113.624 35.5906 114.139 35.8155 114.864 36.0198C115.595 36.224 116.164 36.4508 116.573 36.6996C116.986 36.944 117.291 37.2306 117.487 37.5598C117.688 37.8884 117.788 38.2756 117.788 38.7206C117.788 39.4303 117.512 39.9997 116.957 40.4289C116.404 40.8539 115.665 41.0667 114.739 41.0667C114.136 41.0667 113.576 40.952 113.054 40.724C112.532 40.4911 112.13 40.1747 111.845 39.7735C111.564 39.3724 111.424 38.9176 111.424 38.4079H112.585C112.585 38.9371 112.779 39.3559 113.168 39.665C113.561 39.9698 114.084 40.1223 114.739 40.1223C115.347 40.1223 115.815 39.9979 116.14 39.7491C116.465 39.5004 116.627 39.1614 116.627 38.7328C116.627 38.3036 116.477 37.9732 116.176 37.7403C115.876 37.5043 115.33 37.2714 114.541 37.0428ZM123.362 40.3021C122.93 40.8118 122.294 41.066 121.457 41.066C120.762 41.066 120.233 40.8655 119.868 40.4643C119.508 40.0595 119.324 39.462 119.32 38.6719V34.4371H120.433V38.6414C120.433 39.6278 120.834 40.121 121.637 40.121C122.486 40.121 123.052 39.804 123.333 39.1706V34.4365H124.445V40.9447H123.387L123.362 40.3021ZM131.891 37.7647C131.891 38.7554 131.664 39.5534 131.211 40.1588C130.759 40.7642 130.146 41.0673 129.371 41.0673C128.581 41.0673 127.959 40.8167 127.507 40.3155V43.4493H126.393V34.4383H127.41L127.464 35.1601C127.917 34.5986 128.547 34.3182 129.354 34.3182C130.135 34.3182 130.753 34.6126 131.207 35.2022C131.663 35.7918 131.891 36.6118 131.891 37.6622V37.7647ZM130.774 37.6397C130.774 36.9056 130.618 36.3264 130.305 35.9015C129.992 35.4766 129.563 35.2638 129.018 35.2638C128.344 35.2638 127.839 35.5625 127.502 36.16V39.2699C127.835 39.8638 128.344 40.1601 129.03 40.1601C129.563 40.1601 129.986 39.9497 130.299 39.5284C130.615 39.1035 130.774 38.4737 130.774 37.6397ZM139.054 37.7647C139.054 38.7554 138.827 39.5534 138.375 40.1588C137.921 40.7642 137.308 41.0673 136.534 41.0673C135.744 41.0673 135.123 40.8167 134.669 40.3155V43.4493H133.557V34.4383H134.573L134.627 35.1601C135.08 34.5986 135.71 34.3182 136.516 34.3182C137.298 34.3182 137.915 34.6126 138.369 35.2022C138.826 35.7918 139.054 36.6118 139.054 37.6622V37.7647ZM137.938 37.6397C137.938 36.9056 137.782 36.3264 137.469 35.9015C137.156 35.4766 136.727 35.2638 136.181 35.2638C135.508 35.2638 135.002 35.5625 134.666 36.16V39.2699C134.999 39.8638 135.508 40.1601 136.194 40.1601C136.727 40.1601 137.15 39.9497 137.462 39.5284C137.781 39.1035 137.938 38.4737 137.938 37.6397ZM140.425 37.6324C140.425 36.9946 140.549 36.4209 140.798 35.9119C141.05 35.4028 141.4 35.0095 141.845 34.7328C142.293 34.456 142.804 34.3176 143.379 34.3176C144.265 34.3176 144.98 34.6242 145.526 35.2382C146.075 35.8521 146.35 36.6679 146.35 37.6866V37.7647C146.35 38.3981 146.228 38.9675 145.983 39.473C145.743 39.9741 145.395 40.3655 144.942 40.646C144.494 40.9264 143.976 41.0673 143.391 41.0673C142.509 41.0673 141.793 40.7606 141.244 40.1467C140.698 39.5327 140.425 38.7212 140.425 37.7104V37.6324ZM141.54 37.7647C141.54 38.4865 141.706 39.0657 142.039 39.5028C142.375 39.94 142.824 40.1588 143.387 40.1588C143.952 40.1588 144.4 39.9381 144.733 39.4973C145.067 39.0523 145.233 38.431 145.233 37.633C145.233 36.919 145.062 36.3417 144.722 35.9009C144.384 35.4558 143.936 35.2333 143.374 35.2333C142.824 35.2333 142.381 35.4516 142.045 35.8893C141.708 36.3252 141.54 36.9507 141.54 37.7647ZM151.139 35.4369C150.97 35.4089 150.787 35.3949 150.59 35.3949C149.861 35.3949 149.366 35.7058 149.105 36.327V40.9465H147.993V34.4383H149.075L149.093 35.19C149.458 34.6084 149.976 34.3176 150.645 34.3176C150.862 34.3176 151.025 34.3456 151.139 34.4017V35.4369ZM154.221 32.8623V34.4383H155.437V35.2985H154.221V39.3346C154.221 39.5955 154.275 39.7918 154.384 39.9241C154.492 40.0528 154.677 40.1168 154.937 40.1168C155.066 40.1168 155.243 40.0924 155.467 40.0448V40.9472C155.173 41.0276 154.889 41.0673 154.613 41.0673C154.116 41.0673 153.741 40.9167 153.488 40.6161C153.235 40.3155 153.109 39.8881 153.109 39.3352V35.2991H151.924V34.4389H153.109V32.8629H154.221V32.8623Z" fill="#130F40"/>
</svg>
