<svg width="416" height="291" viewBox="0 0 416 291" fill="none" xmlns="http://www.w3.org/2000/svg">
<path d="M223.726 0.595093L231.346 2.83513L227.617 34.8357L223.564 33.3957L223.726 0.595093Z" fill="#B8BFCD"/>
<path d="M223.235 37.1703L226.677 38.421L226.228 41.0613L222.786 39.9496L223.235 37.1703Z" fill="#B8BFCD"/>
<path d="M236.955 17.7153L244.575 19.796L241.008 40.283L236.793 38.8425L236.955 17.7153Z" fill="#B8BFCD"/>
<path d="M236.464 41.8395L239.906 43.3959L239.457 46.5087L236.015 45.1252L236.464 41.8395Z" fill="#B8BFCD"/>
<path d="M299.106 221.359H146.32C146.32 221.359 154.767 218.626 140.11 221.359C125.204 224.092 125.204 223.595 126.446 214.154C127.688 204.714 136.632 195.025 143.588 184.591C142.842 174.654 146.072 164.22 157.748 154.531C157.748 154.282 157.748 154.034 157.748 153.785C152.034 96.8946 182.095 115.527 207.186 106.087L203.957 103.851L240.724 87.951C240.724 87.951 251.159 90.6838 260.847 96.1493C268.052 100.373 274.76 105.838 275.753 112.794C276.995 120.744 275.753 131.178 274.014 140.867C272.524 149.562 270.785 157.512 270.288 162.729C270.288 163.723 270.039 164.468 270.039 165.213C271.778 173.412 283.206 185.585 281.716 193.534C285.691 197.758 290.659 210.428 291.404 215.893C292.398 221.359 299.106 221.359 299.106 221.359Z" fill="#DDE3EE"/>
<path opacity="0.1" d="M274.014 140.867C272.524 149.562 270.785 157.512 270.288 162.977C266.561 169.685 259.854 173.908 250.662 179.126C248.674 180.368 246.19 181.361 243.954 182.107C240.724 183.1 237.495 184.094 234.265 184.591C224.328 186.579 214.142 187.075 203.956 185.088C195.51 183.349 187.063 180.616 179.362 176.144C176.877 174.654 174.145 172.915 171.909 170.927C165.201 165.213 159.984 160.245 157.251 154.282C154.767 149.314 154.27 143.6 155.512 135.898C158.493 119.502 162.468 107.08 162.468 107.08C162.717 105.838 164.704 104.099 165.45 103.105C166.692 101.863 167.437 100.373 168.679 99.1306C170.667 96.6463 173.151 93.9135 175.138 91.4292C180.107 86.4606 185.572 82.4856 192.032 80.0013C202.466 76.2749 213.645 76.7717 224.328 78.2623C232.029 79.256 240.227 80.9951 247.184 84.97C252.401 87.9511 256.624 91.6776 260.35 96.3978C261.096 97.1431 261.593 98.1368 262.338 98.8821C266.561 105.093 269.542 112.049 273.02 118.757C273.269 118.757 274.014 127.949 274.014 140.867Z" fill="#AAB2C5"/>
<path d="M44.5789 221.603L415 221.603" stroke="#D6DCE8" stroke-width="1.5905" stroke-miterlimit="10" stroke-linecap="round" stroke-linejoin="round"/>
<path d="M1 221.603L24.3459 221.603" stroke="#D6DCE8" stroke-width="1.5905" stroke-miterlimit="10" stroke-linecap="round" stroke-linejoin="round"/>
<path d="M251.904 159.499C249.916 160.742 247.432 161.735 245.196 162.481C242.215 163.474 238.737 164.468 235.507 164.965C225.57 166.952 215.384 167.449 205.198 165.213C196.752 163.474 188.305 160.741 180.604 156.27C177.871 154.779 175.387 153.04 173.151 151.053C160.481 140.37 153.773 132.42 156.754 116.024C159.735 99.6273 163.462 87.4542 163.462 87.4542C163.71 86.212 165.698 84.473 166.443 83.4793C167.685 82.2371 168.431 80.7465 169.673 79.5043C171.66 77.02 173.896 74.2873 176.132 71.803C181.101 66.8343 186.566 62.8594 193.025 60.3751C203.459 56.6486 214.639 57.1455 225.321 58.6361C233.271 59.6298 241.221 61.3688 248.177 65.3437C254.388 68.8218 259.108 73.542 263.083 79.2559C267.306 85.4667 270.287 92.4228 273.766 99.3789C273.766 99.3789 275.008 112.297 274.511 128.942C274.511 145.587 266.313 151.55 251.904 159.499Z" fill="#EAEEF9"/>
<path d="M198.243 117.266C195.758 119.005 192.032 125.713 181.598 120.247C166.94 112.297 170.667 92.4228 179.859 86.9573C196.255 77.2685 211.161 84.2246 211.906 99.3789C212.652 115.527 203.46 114.036 198.243 117.266Z" fill="#BFC8D6"/>
<path d="M280.97 212.167C278.983 214.651 279.48 218.378 282.212 220.365C283.703 221.359 285.194 222.353 285.939 224.837C287.678 229.805 303.578 241.482 311.776 238.997C320.222 236.513 329.414 230.302 327.179 220.117C325.191 209.931 316.248 204.962 311.776 204.714C307.304 204.217 291.653 202.478 286.436 206.453C284.448 208.192 282.461 210.428 280.97 212.167Z" fill="#EAEEF9"/>
<path d="M150.295 212.167C152.283 214.651 151.786 218.378 149.053 220.365C147.563 221.359 146.072 222.353 145.327 224.837C143.588 229.805 127.688 241.482 119.49 238.997C111.292 236.513 101.851 230.302 104.087 220.117C106.074 209.931 115.018 204.962 119.49 204.714C123.962 204.465 139.613 202.478 144.83 206.453C147.066 208.192 149.053 210.428 150.295 212.167Z" fill="#EAEEF9"/>
<path d="M189.796 114.036C196.255 114.782 201.969 110.061 202.714 103.602C203.46 97.143 198.74 91.4291 192.28 90.6838C185.821 89.9385 180.107 94.6587 179.362 101.118C178.617 107.577 183.337 113.291 189.796 114.036Z" fill="white"/>
<path d="M201.224 104.844C200.727 109.813 196.255 113.539 191.286 113.043C186.318 112.546 182.591 108.074 183.088 103.105C183.833 103.851 184.827 104.596 185.821 104.844C188.057 105.093 190.044 103.602 190.293 101.118C190.541 98.882 189.05 96.8945 186.814 96.6461C188.554 95.4039 190.789 94.9071 193.025 95.1555C198.242 95.4039 201.72 99.6273 201.224 104.844Z" fill="#989FB0"/>
<path d="M246.438 119.999C252.897 120.744 258.611 116.024 259.357 109.565C260.102 103.105 255.382 97.3915 248.922 96.6462C242.463 95.9009 236.749 100.621 236.004 107.08C235.259 113.788 239.979 119.502 246.438 119.999Z" fill="white"/>
<path d="M236.998 108.571C236.501 113.539 240.228 118.011 245.196 118.508C250.165 119.005 254.637 115.278 255.133 110.31C254.388 111.055 253.146 111.552 252.152 111.304C249.916 111.055 248.177 109.068 248.426 106.832C248.674 104.596 250.662 103.105 252.898 103.105C251.407 101.615 249.42 100.621 247.184 100.373C242.215 99.8757 237.743 103.354 236.998 108.571Z" fill="#989FB0"/>
<path d="M197.001 74.5358C192.777 75.2811 189.051 76.0264 186.07 78.0138C183.088 80.0013 180.107 83.2309 178.617 86.9574C178.617 87.2058 178.368 87.2058 178.12 87.2058C177.871 87.2058 177.871 86.9574 177.871 86.9574C178.12 84.9699 179.113 82.734 180.356 80.995C181.349 79.0075 183.088 77.517 185.076 76.2748C187.063 75.0326 188.802 74.0389 191.038 73.2936C193.274 73.0452 195.51 72.7968 197.497 73.7905C197.249 73.7905 197.746 74.2873 197.001 74.5358C197.249 74.5358 197.249 74.5358 197.001 74.5358Z" fill="#989FB0"/>
<path d="M247.929 83.4793C251.655 84.9698 254.885 86.4604 257.618 88.9448C260.102 91.4291 262.09 95.1555 262.835 98.882C262.835 99.1304 263.083 99.1304 263.332 99.1304C263.58 99.1304 263.58 98.882 263.58 98.882C263.829 96.8946 263.083 94.6587 262.586 92.9197C261.841 90.9322 260.847 88.9447 259.108 87.4542C257.618 85.9636 256.127 84.473 254.14 83.4793C252.152 82.734 249.916 82.2371 247.929 82.4855C247.68 82.734 247.68 82.9824 247.929 83.4793C247.929 83.4793 247.432 83.4793 247.929 83.4793Z" fill="#989FB0"/>
<path d="M270.039 72.5482C265.567 66.5859 259.108 68.3249 261.593 75.281C265.567 86.212 273.02 91.429 275.008 132.172C275.505 139.376 299.603 123.974 299.603 98.3851C299.603 93.6649 293.889 91.9259 293.889 91.9259C290.411 90.9322 277.244 81.7402 270.039 72.5482Z" fill="#989FB0"/>
<path d="M65.3314 91.926C65.3314 91.926 38.9977 84.2246 43.221 92.9198C47.4443 101.615 59.1206 119.005 77.753 123.228C96.3854 127.203 85.206 110.807 85.4544 111.055L65.3314 91.926Z" fill="#EEEEEE"/>
<g filter="url(#filter0_d_702_2013)">
<path d="M37.5073 75.0325C44.215 82.4854 72.2877 93.4164 95.1435 92.4227C98.3731 116.272 100.857 123.477 105.081 126.458C93.6529 129.439 62.8473 126.955 58.624 103.851C37.0104 104.844 37.5073 75.0325 37.5073 75.0325Z" fill="url(#paint0_linear_702_2013)"/>
</g>
<path d="M83.4672 119.956C83.4733 120.146 83.4118 120.309 83.2827 120.444C83.1536 120.58 82.9906 120.654 82.7939 120.664C82.5972 120.675 82.4301 120.62 82.2927 120.499C82.1553 120.378 82.0835 120.222 82.0774 120.033C82.0715 119.849 82.1331 119.689 82.2622 119.554C82.3913 119.418 82.5542 119.344 82.7509 119.334C82.9477 119.323 83.1147 119.378 83.2521 119.499C83.3896 119.62 83.4612 119.773 83.4672 119.956Z" fill="#130F40" fill-opacity="0.2"/>
<path d="M80.0318 118.7C79.3846 118.735 78.7993 118.623 78.276 118.364C77.7524 118.099 77.3399 117.726 77.0383 117.246C76.7302 116.76 76.5666 116.221 76.5474 115.627C76.5255 114.948 76.6805 114.336 77.0126 113.791C77.3381 113.239 77.8143 112.827 78.4411 112.554L78.4817 113.811C78.1381 113.995 77.8853 114.239 77.7234 114.542C77.5616 114.845 77.4869 115.19 77.4993 115.575C77.5129 115.997 77.6235 116.368 77.8308 116.688C78.0382 117.007 78.329 117.252 78.7032 117.421C79.0772 117.584 79.5085 117.653 79.9972 117.626C80.4858 117.599 80.9112 117.484 81.2733 117.28C81.6353 117.07 81.9124 116.794 82.1048 116.453C82.2909 116.112 82.3771 115.73 82.3635 115.308C82.351 114.922 82.2544 114.587 82.0736 114.303C81.8927 114.019 81.6251 113.804 81.2708 113.658L81.2302 112.4C81.8725 112.604 82.3736 112.963 82.7334 113.476C83.0931 113.984 83.2839 114.577 83.3058 115.256C83.3252 115.856 83.2001 116.411 82.9305 116.922C82.6546 117.434 82.2644 117.851 81.7599 118.173C81.2551 118.488 80.6791 118.664 80.0318 118.7Z" fill="#130F40" fill-opacity="0.2"/>
<path d="M83.0861 108.157C83.1053 108.751 82.9802 109.306 82.7108 109.823C82.4349 110.335 82.0447 110.752 81.5402 111.074C81.0291 111.39 80.4499 111.566 79.8026 111.601C79.1553 111.637 78.57 111.525 78.0467 111.266C77.5232 111 77.1107 110.628 76.8091 110.148C76.501 109.662 76.3374 109.123 76.3182 108.529C76.2988 107.929 76.4271 107.374 76.703 106.862C76.9724 106.345 77.3594 105.928 77.8642 105.612C78.3689 105.297 78.9449 105.121 79.5922 105.085C80.2395 105.05 80.828 105.161 81.3576 105.42C81.8809 105.68 82.2966 106.052 82.6047 106.538C82.9063 107.018 83.0668 107.558 83.0861 108.157ZM82.1438 108.209C82.1301 107.787 82.0196 107.416 81.8122 107.096C81.5985 106.777 81.3046 106.536 80.9306 106.372C80.5501 106.203 80.1155 106.132 79.6269 106.159C79.1382 106.186 78.713 106.304 78.351 106.514C77.9889 106.718 77.7148 106.991 77.5287 107.332C77.3427 107.673 77.2565 108.055 77.2701 108.477C77.2837 108.899 77.3942 109.27 77.6016 109.589C77.809 109.909 78.0998 110.153 78.474 110.323C78.848 110.486 79.2793 110.554 79.7679 110.528C80.2566 110.501 80.6851 110.385 81.0536 110.181C81.4156 109.971 81.6927 109.696 81.8851 109.354C82.0712 109.013 82.1574 108.631 82.1438 108.209Z" fill="#130F40" fill-opacity="0.2"/>
<path d="M76.0485 97.5188L82.6641 97.1553L82.6979 98.2015L78.1669 98.4505L82.7607 100.147L82.7841 100.872L78.3163 103.076L82.8473 102.827L82.881 103.873L76.2654 104.237L76.229 103.108L81.3444 100.584L76.0846 98.6385L76.0485 97.5188Z" fill="#130F40" fill-opacity="0.2"/>
<g filter="url(#filter1_d_702_2013)">
<path d="M334.383 163.226C341.836 158.257 355.251 135.153 357.239 115.279C378.356 115.279 384.815 114.285 388.293 110.807C389.287 121.241 387.299 146.829 369.412 161.984C349.538 163.971 334.383 163.226 334.383 163.226Z" fill="url(#paint1_linear_702_2013)"/>
</g>
<g filter="url(#filter2_d_702_2013)">
<path d="M278.486 244.463C243.954 250.177 237.743 251.17 224.576 249.431C211.409 247.692 193.026 245.456 186.815 257.381C184.082 241.73 177.871 227.321 166.443 216.39C167.189 215.396 167.685 213.906 167.685 212.415C167.685 209.434 165.946 206.95 163.214 205.956C163.711 204.962 163.959 203.968 163.959 202.975C163.959 199.248 160.978 196.019 157.003 196.019C154.767 196.019 152.78 197.012 151.537 198.751C151.786 197.509 152.034 196.515 152.034 196.019C152.034 192.292 149.053 189.062 145.078 189.062C143.091 189.062 141.103 190.056 139.861 191.547C138.867 190.056 137.377 189.062 135.389 189.062C132.408 189.062 130.172 191.298 130.172 194.28C130.172 194.776 130.172 196.019 130.172 197.509C112.534 191.795 108.807 191.547 108.807 191.547C119.49 170.43 170.17 139.625 206.689 145.339C230.042 148.817 256.376 155.276 269.791 180.864C269.046 180.616 268.3 180.367 267.555 180.367C267.307 180.367 266.81 180.367 266.313 180.616C265.071 178.877 263.083 177.883 260.847 177.883C257.369 177.883 254.637 180.367 254.14 183.597C253.891 183.597 252.898 183.597 252.152 183.597C248.426 183.597 245.445 186.578 245.445 190.305C245.445 193.037 247.184 195.522 249.668 196.515C248.426 197.758 247.68 199.248 247.68 201.236C247.68 204.962 250.662 207.943 254.388 207.943C256.872 207.943 258.86 206.701 260.102 204.962C261.344 206.701 263.332 207.943 265.816 207.943C269.542 207.943 272.524 204.962 272.524 201.236C272.524 200.987 272.524 200.987 272.524 200.739C274.263 199.993 275.753 198.503 276.25 196.764C279.48 209.185 280.722 224.837 278.486 244.463Z" fill="url(#paint2_linear_702_2013)"/>
</g>
<path d="M191.783 226.327C201.472 223.346 242.712 214.154 266.313 216.887L191.783 226.327Z" fill="white"/>
<path fill-rule="evenodd" clip-rule="evenodd" d="M224.088 221.059C209.664 223.381 197.01 226.409 192.258 227.871L191.308 224.783C196.246 223.264 209.055 220.206 223.574 217.87C238.068 215.537 254.464 213.889 266.499 215.282L266.127 218.492C254.561 217.152 238.537 218.734 224.088 221.059Z" fill="#D6DCE8"/>
<path d="M182.094 213.16C190.044 209.682 228.303 201.732 247.68 200.987L182.094 213.16Z" fill="white"/>
<path fill-rule="evenodd" clip-rule="evenodd" d="M193.361 211.464C188.346 212.712 184.588 213.833 182.742 214.641L181.447 211.681C183.575 210.75 187.582 209.573 192.581 208.329C197.621 207.074 203.782 205.725 210.295 204.464C223.295 201.944 237.802 199.751 247.618 199.373L247.742 202.602C238.181 202.97 223.87 205.124 210.909 207.635C204.441 208.889 198.336 210.226 193.361 211.464Z" fill="#D6DCE8"/>
<path d="M172.903 198.503C204.453 180.864 229.297 188.317 249.668 172.666L172.903 198.503Z" fill="white"/>
<path fill-rule="evenodd" clip-rule="evenodd" d="M215.765 186.429C203.071 188.726 189.21 191.237 173.691 199.913L172.114 197.093C188.114 188.149 202.424 185.559 215.112 183.264L215.19 183.25C227.944 180.942 238.855 178.936 248.684 171.385L250.652 173.947C240.148 182.018 228.499 184.125 215.904 186.404L215.765 186.429Z" fill="#D6DCE8"/>
<path d="M162.717 187.324C176.132 178.132 187.56 173.908 202.963 172.666L162.717 187.324Z" fill="white"/>
<path fill-rule="evenodd" clip-rule="evenodd" d="M203.092 174.276C187.992 175.494 176.831 179.611 163.63 188.656L161.803 185.991C175.433 176.652 187.128 172.322 202.833 171.056L203.092 174.276Z" fill="#D6DCE8"/>
<path d="M245.941 151.053C245.941 151.301 245.941 151.798 245.941 152.046V152.295C245.941 152.543 245.941 152.792 245.693 153.04C244.202 157.015 237.743 161.735 231.035 162.48C224.328 163.226 217.372 160.493 214.39 149.314C207.186 156.27 200.23 157.263 194.516 155.773C187.063 153.785 182.094 147.823 181.846 146.084C181.846 145.339 181.846 144.593 182.094 143.848C183.833 127.7 199.485 116.272 217.123 118.26C234.762 120.496 247.68 135.153 245.941 151.053Z" fill="#BFC8D6"/>
<path d="M217.123 120.744C215.633 120.496 213.894 120.496 212.403 120.744C210.416 121.241 207.435 121.738 206.938 124.222C206.689 127.452 213.645 131.178 215.633 131.426C217.62 131.675 225.322 129.687 225.819 126.458C226.067 123.228 223.334 121.986 220.85 121.241C219.608 120.992 218.117 120.496 217.123 120.744Z" fill="#989FB0"/>
<path fill-rule="evenodd" clip-rule="evenodd" d="M215.068 137.38C214.951 134.069 214.55 130.605 214.216 128.434L216.223 128.125C216.567 130.356 216.978 133.9 217.098 137.309C217.158 139.013 217.146 140.703 217.012 142.187C216.88 143.645 216.622 145.012 216.128 146L214.311 145.092C214.629 144.455 214.862 143.401 214.989 142.005C215.113 140.635 215.126 139.037 215.068 137.38Z" fill="#989FB0"/>
<path d="M175.635 71.3061L175.387 74.0388C174.145 75.281 173.151 76.7716 171.909 78.2622C165.45 86.9573 159.487 98.3851 157.748 112.794C157.251 111.055 152.034 92.4228 151.04 88.9447C150.792 88.1994 150.544 87.7026 150.544 87.7026V82.4855L155.264 72.0514L167.437 65.8406L175.635 71.3061Z" fill="#6F788D"/>
<path d="M186.566 63.6049C183.088 66.0892 179.113 69.5672 175.387 74.039C174.145 75.2812 173.151 76.7717 171.909 78.2623C171.412 71.3062 163.214 70.3125 163.214 70.3125C162.22 76.5233 156.754 83.4794 150.792 88.9449C145.823 93.4167 140.358 96.6463 136.88 96.8947C135.886 96.8947 135.141 96.1494 135.638 95.1557C138.122 88.6965 137.377 79.2561 138.122 74.5359C139.116 69.3188 154.022 61.369 161.723 58.3878C167.685 56.1519 183.337 59.3815 186.566 63.6049Z" fill="#989FB0"/>
<path d="M374.276 139.707C374.499 138.983 374.335 138.199 373.87 137.756C373.645 137.542 373.374 137.465 373.134 137.397L373.056 137.374C373.048 137.372 373.038 137.369 373.039 137.371C373.037 137.367 373.035 137.348 373.034 137.34C372.599 133.987 371.03 131.896 368.374 131.12C368.005 131.012 367.604 130.96 367.147 130.959C366.961 130.959 366.787 131.056 366.67 131.225C366.559 131.387 366.517 131.59 366.557 131.781C366.634 132.162 366.946 132.176 367.063 132.181C367.202 132.188 367.329 132.198 367.452 132.213L367.494 132.219C367.523 132.222 367.551 132.226 367.579 132.23L367.593 132.232C367.678 132.244 367.771 132.26 367.87 132.28C367.904 132.287 367.937 132.294 367.971 132.303C368.127 132.337 368.294 132.384 368.463 132.443C368.506 132.458 368.548 132.474 368.594 132.491C368.662 132.517 368.73 132.545 368.797 132.574C368.851 132.598 368.905 132.624 368.958 132.649C370.85 133.562 372.065 135.747 372.13 138.352L372.131 138.382L372.987 138.649C373.331 138.756 373.447 139.08 373.305 139.538C373.014 140.474 372.723 141.408 372.431 142.343L371.994 143.745C371.85 144.208 371.566 144.411 371.215 144.302C370.949 144.22 370.683 144.137 370.416 144.054L370.391 144.047L370.374 144.071C368.955 146.054 366.93 147.176 364.955 147.072C364.908 147.07 364.862 147.068 364.815 147.064L364.808 147.109L364.802 147.062C363.362 146.957 362.091 146.197 361.223 144.924L361.213 144.909C361.191 144.879 361.171 144.847 361.15 144.814C360.867 144.392 360.63 143.916 360.446 143.4L360.439 143.382L360.432 143.38C360.292 142.977 360.188 142.572 360.116 142.146L360.104 142.068C360.038 141.668 360.001 141.254 359.994 140.837L359.994 140.806L359.14 140.54C358.829 140.443 358.691 140.201 358.739 139.84C358.748 139.779 358.768 139.709 358.789 139.643C359.227 138.235 359.666 136.827 360.105 135.418C360.245 134.971 360.532 134.768 360.875 134.874L361.78 135.156L361.797 135.131C362.361 134.357 363.019 133.714 363.753 133.22C363.797 133.19 363.842 133.161 363.887 133.132C363.921 133.11 363.955 133.088 363.99 133.066C364.02 133.048 364.051 133.029 364.082 133.011C364.128 132.983 364.174 132.956 364.22 132.93C364.254 132.912 364.287 132.893 364.321 132.875C364.384 132.84 364.449 132.806 364.522 132.77C364.584 132.739 364.646 132.709 364.712 132.679C364.834 132.623 365 132.546 365.102 132.324C365.214 132.08 365.21 131.843 365.09 131.658C364.961 131.458 364.766 131.41 364.525 131.517C363.562 131.952 362.676 132.596 361.891 133.43C361.843 133.482 361.8 133.538 361.757 133.592L361.745 133.608C361.695 133.673 361.611 133.783 361.574 133.795C361.569 133.796 361.557 133.799 361.539 133.797L361.409 133.757L361.362 133.737C361.306 133.713 361.243 133.687 361.176 133.67C361.111 133.654 361.043 133.642 360.987 133.636C360.504 133.556 359.976 133.803 359.607 134.28C359.448 134.487 359.326 134.723 359.245 134.984L357.828 139.53C357.764 139.735 357.729 139.945 357.725 140.154C357.708 140.894 358.072 141.507 358.629 141.681C358.629 141.681 358.629 141.681 358.629 141.681C358.718 141.718 358.823 141.751 358.947 141.781L359.033 141.808C359.035 141.817 359.036 141.831 359.037 141.844C359.33 144.933 361 147.315 363.395 148.062C363.708 148.159 364.036 148.228 364.371 148.266C366.524 148.507 368.521 147.642 370.306 145.693C370.524 145.454 370.64 145.411 370.869 145.482L370.897 145.491C371.278 145.609 371.688 145.545 372.05 145.31C372.434 145.061 372.732 144.652 372.89 144.157C373.305 142.851 373.746 141.437 374.276 139.707Z" fill="#130F40" fill-opacity="0.3"/>
<path d="M362.749 142.728L363.847 143.07L366.171 139.232L365.903 143.711L367.002 144.053L370.949 137.115L370.979 137.063L369.587 136.629L367.388 140.65L367.713 136.045L366.713 135.733L364.367 139.705L364.843 135.188L364.847 135.152L363.455 134.718L362.749 142.728Z" fill="#130F40" fill-opacity="0.3"/>
<defs>
<filter id="filter0_d_702_2013" x="23.5063" y="65.0325" width="87.5744" height="72.4401" filterUnits="userSpaceOnUse" color-interpolation-filters="sRGB">
<feFlood flood-opacity="0" result="BackgroundImageFix"/>
<feColorMatrix in="SourceAlpha" type="matrix" values="0 0 0 0 0 0 0 0 0 0 0 0 0 0 0 0 0 0 127 0" result="hardAlpha"/>
<feOffset dx="-4"/>
<feGaussianBlur stdDeviation="5"/>
<feColorMatrix type="matrix" values="0 0 0 0 0.397708 0 0 0 0 0.47749 0 0 0 0 0.575 0 0 0 0.15 0"/>
<feBlend mode="normal" in2="BackgroundImageFix" result="effect1_dropShadow_702_2013"/>
<feBlend mode="normal" in="SourceGraphic" in2="effect1_dropShadow_702_2013" result="shape"/>
</filter>
<filter id="filter1_d_702_2013" x="320.383" y="100.807" width="74.1177" height="72.556" filterUnits="userSpaceOnUse" color-interpolation-filters="sRGB">
<feFlood flood-opacity="0" result="BackgroundImageFix"/>
<feColorMatrix in="SourceAlpha" type="matrix" values="0 0 0 0 0 0 0 0 0 0 0 0 0 0 0 0 0 0 127 0" result="hardAlpha"/>
<feOffset dx="-4"/>
<feGaussianBlur stdDeviation="5"/>
<feColorMatrix type="matrix" values="0 0 0 0 0.397708 0 0 0 0 0.47749 0 0 0 0 0.575 0 0 0 0.15 0"/>
<feBlend mode="normal" in2="BackgroundImageFix" result="effect1_dropShadow_702_2013"/>
<feBlend mode="normal" in="SourceGraphic" in2="effect1_dropShadow_702_2013" result="shape"/>
</filter>
<filter id="filter2_d_702_2013" x="86.8072" y="133.644" width="214.812" height="156.737" filterUnits="userSpaceOnUse" color-interpolation-filters="sRGB">
<feFlood flood-opacity="0" result="BackgroundImageFix"/>
<feColorMatrix in="SourceAlpha" type="matrix" values="0 0 0 0 0 0 0 0 0 0 0 0 0 0 0 0 0 0 127 0" result="hardAlpha"/>
<feOffset dy="11"/>
<feGaussianBlur stdDeviation="11"/>
<feColorMatrix type="matrix" values="0 0 0 0 0.397708 0 0 0 0 0.47749 0 0 0 0 0.575 0 0 0 0.27 0"/>
<feBlend mode="normal" in2="BackgroundImageFix" result="effect1_dropShadow_702_2013"/>
<feBlend mode="normal" in="SourceGraphic" in2="effect1_dropShadow_702_2013" result="shape"/>
</filter>
<linearGradient id="paint0_linear_702_2013" x1="71.2715" y1="73.8195" x2="71.2715" y2="128.038" gradientUnits="userSpaceOnUse">
<stop stop-color="#FDFEFF"/>
<stop offset="0.9964" stop-color="#ECF0F5"/>
</linearGradient>
<linearGradient id="paint1_linear_702_2013" x1="361.424" y1="109.591" x2="361.424" y2="163.929" gradientUnits="userSpaceOnUse">
<stop stop-color="#FDFEFF"/>
<stop offset="0.9964" stop-color="#ECF0F5"/>
</linearGradient>
<linearGradient id="paint2_linear_702_2013" x1="194.158" y1="142.036" x2="194.158" y2="258.597" gradientUnits="userSpaceOnUse">
<stop stop-color="#FDFEFF"/>
<stop offset="0.9964" stop-color="#ECF0F5"/>
</linearGradient>
</defs>
</svg>
