<svg width="22" height="24" viewBox="0 0 22 24" fill="none" xmlns="http://www.w3.org/2000/svg">
<g opacity="0.99">
<path d="M21.1071 5.67503C21.0721 4.46803 20.0831 3.40303 18.8911 3.27903L18.8261 3.27203C17.9141 3.17803 17.0051 3.08403 16.1191 2.82403C14.8031 2.43803 13.6281 1.79903 12.5881 0.904027C12.5071 0.834027 12.4271 0.762027 12.3481 0.690027C12.2021 0.558027 12.0561 0.426027 11.9011 0.307027C11.3631 -0.103973 10.6401 -0.104973 10.1061 0.311027C9.92309 0.454028 9.74809 0.608027 9.57409 0.762027C9.41609 0.902027 9.25809 1.04103 9.09409 1.17203C7.45209 2.48203 5.55409 3.10103 3.48409 3.23403C2.62509 3.29003 1.90409 3.59903 1.38509 4.31103C1.08909 4.71803 0.919094 5.17703 0.904094 5.68003C0.848094 7.51503 0.802094 9.35003 0.948094 11.183C1.12809 13.448 1.57109 15.644 2.65709 17.671C3.63209 19.491 4.99809 20.944 6.70609 22.078C7.85109 22.838 9.08309 23.42 10.3751 23.877C10.4641 23.909 10.5551 23.935 10.6461 23.962C10.6881 23.974 10.7311 23.987 10.7731 24H11.2391C12.7961 23.511 14.2501 22.81 15.5921 21.876C17.8311 20.316 19.3581 18.219 20.2241 15.628C20.6591 14.327 20.8871 12.984 21.0201 11.621C21.2121 9.64103 21.1651 7.65803 21.1071 5.67503Z" fill="#7C00FF"/>
<path d="M4.39504 11.968C4.40404 8.33505 7.37504 5.38504 11.015 5.39504C14.67 5.40504 17.628 8.37104 17.604 12.026C17.58 15.778 14.504 18.657 10.847 18.604C7.31604 18.553 4.38704 15.574 4.39504 11.968ZM5.94304 14.649C6.10304 14.943 6.49604 14.975 6.75404 14.761C7.98004 13.743 9.39604 13.21 11.023 13.213C12.64 13.217 14.047 13.754 15.254 14.755C15.515 14.971 15.912 14.937 16.072 14.638C17.206 12.52 16.909 9.62304 14.839 7.75105C12.599 5.72605 9.17204 5.78904 7.00504 7.90804C5.02104 9.84604 4.86904 12.68 5.94304 14.649Z" fill="white"/>
<path d="M13.111 9.78809C13.114 10.9501 12.171 11.8991 11.011 11.9011C9.84803 11.9031 8.89903 10.9611 8.89503 9.80309C8.89203 8.64409 9.83803 7.69209 10.996 7.68909C12.159 7.68709 13.108 8.62909 13.111 9.78809Z" fill="white"/>
</g>
</svg>
