<svg width="21" height="21" viewBox="0 0 21 21" fill="none" xmlns="http://www.w3.org/2000/svg">
<path d="M18.4897 17.4532C19.047 17.4532 19.5 17.9122 19.5 18.477C19.5 19.0417 19.047 19.5 18.4897 19.5H12.78C12.2227 19.5 11.7697 19.0417 11.7697 18.4762C11.7697 17.9115 12.2227 17.4525 12.78 17.4525L18.4897 17.4532ZM14.5297 2.199L16.005 3.3705C16.6095 3.84375 17.013 4.467 17.151 5.1225C17.31 5.844 17.1405 6.552 16.6627 7.16475L7.8765 18.5272C7.473 19.0432 6.879 19.3335 6.24225 19.344L2.7405 19.3867C2.54925 19.3867 2.39025 19.2577 2.3475 19.0747L1.55175 15.624C1.41375 14.9895 1.55175 14.334 1.95525 13.8285L8.184 5.766C8.2905 5.637 8.481 5.61675 8.6085 5.712L11.2297 7.79775C11.3992 7.93725 11.6332 8.013 11.877 7.98075C12.3967 7.91625 12.747 7.443 12.6937 6.93825C12.6622 6.68025 12.5347 6.465 12.3645 6.30375C12.3112 6.261 9.8175 4.2615 9.8175 4.2615C9.6585 4.1325 9.62625 3.89625 9.75375 3.73575L10.7407 2.4555C11.6542 1.2855 13.2457 1.1775 14.5297 2.199Z" fill="white"/>
</svg>
