<svg width="670" height="420" viewBox="0 0 670 420" fill="none" xmlns="http://www.w3.org/2000/svg">
<g clip-path="url(#clip0_244_1147)">
<path d="M152.295 394.415C152.456 371.526 147.471 347.78 137.511 327.534C137.243 326.998 136.591 326.73 136.055 326.891C129.024 329.06 121.985 331.221 114.954 333.39C114.222 333.613 113.971 334.309 114.07 334.934C114.079 335.095 114.114 335.265 114.186 335.434C123.441 357.993 126.827 382.667 124.182 407.163C124.12 407.743 124.629 408.377 125.129 408.502C131.552 410.181 138.985 409.529 145.426 408.226C147.221 407.868 149.982 407.467 151.241 405.824C153.082 403.423 152.287 397.308 152.304 394.406L152.295 394.415Z" fill="black"/>
<path d="M149.544 400.299C149.356 403.762 149.276 404.432 146.149 405.253C141.084 406.583 135.438 406.797 130.248 406.476C129.551 406.431 127.336 406.61 126.889 406.092C126.576 405.735 127.148 403.316 127.237 402.191C127.613 397.531 127.755 392.853 127.675 388.176C127.371 370.054 123.655 352.271 117.044 335.64C122.931 333.774 128.827 331.641 134.795 330.185C137.162 329.605 135.787 329.373 136.34 331.105C137.546 334.935 139.61 338.568 140.95 342.389C143.496 349.638 145.452 357.136 146.9 364.733C148.436 372.803 149.392 381.007 149.66 389.247C149.776 392.925 149.749 396.621 149.553 400.299H149.544Z" fill="black"/>
<path d="M254.243 349.548L247.802 249.86C247.534 245.727 245.738 242.013 243.076 239.326C240.414 236.639 236.867 234.952 233.044 234.952H80.2302C76.5675 234.952 73.2801 236.514 70.9395 239.058C68.5901 241.602 67.1697 245.146 67.1697 249.039C67.1697 249.387 67.1786 249.735 67.2054 250.083L73.6463 349.771C73.9143 353.905 75.7099 357.618 78.3721 360.305C81.0342 362.992 84.5807 364.68 88.4042 364.68H241.218C244.88 364.68 248.168 363.117 250.508 360.573C252.858 358.029 254.278 354.485 254.278 350.593C254.278 350.245 254.269 349.896 254.243 349.548Z" fill="black"/>
<path d="M248.311 358.216C246.524 360.153 244.05 361.34 241.209 361.34H88.3953C85.4205 361.34 82.6065 360.019 80.4714 357.868C78.3364 355.716 76.9249 352.753 76.7194 349.539L70.2785 249.851C70.2606 249.574 70.2517 249.306 70.2517 249.038C70.2517 246.021 71.3416 243.352 73.1193 241.415C74.906 239.477 77.3805 238.29 80.2213 238.29H233.035C236.01 238.29 238.824 239.611 240.959 241.763C243.094 243.914 244.505 246.878 244.711 250.092L251.152 349.78C251.17 350.057 251.178 350.324 251.178 350.592C251.178 353.61 250.089 356.279 248.311 358.216Z" fill="#EAEAEA"/>
<path d="M257.441 344.772L251.375 254.68C251.116 250.886 249.401 247.485 246.882 245.039C244.362 242.593 241.003 241.066 237.403 241.066H93.5856C90.1373 241.066 87.0285 242.477 84.7952 244.807C82.5619 247.128 81.1951 250.377 81.1951 253.966C81.1951 254.287 81.204 254.609 81.2308 254.93L87.2965 345.022C87.5556 348.816 89.2708 352.217 91.79 354.663C94.3092 357.109 97.6681 358.636 101.268 358.636H245.086C248.534 358.636 251.643 357.225 253.876 354.895C256.11 352.574 257.477 349.325 257.477 345.736C257.477 345.415 257.468 345.093 257.441 344.772Z" fill="black"/>
<path d="M251.732 352.494C250.071 354.217 247.757 355.297 245.086 355.297H101.268C98.4811 355.297 95.8368 354.11 93.8536 352.181C91.8615 350.253 90.5662 347.62 90.3696 344.781L84.3039 254.689C84.286 254.448 84.2771 254.207 84.2771 253.966C84.2771 251.297 85.2776 248.94 86.9303 247.217C88.5919 245.494 90.9056 244.414 93.5767 244.414H237.394C240.182 244.414 242.826 245.601 244.809 247.53C246.801 249.458 248.097 252.091 248.293 254.93L254.359 345.022C254.377 345.263 254.386 345.504 254.386 345.745C254.386 348.414 253.385 350.771 251.732 352.494Z" fill="white"/>
<path d="M482.954 273.909C479.532 269.588 474.19 269.115 469.277 268.999C465.784 268.918 462.3 269.106 458.816 269.347C460.406 268.74 461.996 268.133 463.568 267.49C467.008 266.098 473.69 260.795 468.223 256.84C465.426 254.814 460.567 255.555 457.485 255.903C452.607 256.456 447.774 257.545 443.102 259.179C434.008 262.366 425.53 267.446 418.214 274.105C414.372 277.605 410.728 281.559 407.744 285.942C406.163 288.263 406.502 288.897 407.02 291.62C408.325 298.467 409.495 304.493 415.382 308.617C423.815 314.527 433.275 309.84 441.44 305.743C444.21 304.35 447.194 302.011 450.079 301.002C450.99 300.681 451.303 300.476 451.321 300.351C451.49 300.458 451.651 300.574 451.821 300.583C455.207 300.868 459.316 303.609 462.666 304.537C465.962 305.457 475.53 307.983 477.29 303.082C479.38 297.253 471.975 293.521 465.141 291.334C472.359 290.629 479.791 288.469 480.479 281.354C483.82 280.122 485.723 277.39 482.963 273.909H482.954Z" fill="black"/>
<path d="M479.202 278.854C476.995 280.292 471.412 278.729 468.893 278.649C462.354 278.435 455.859 279.078 449.427 280.292C447.801 280.595 448.489 283.282 450.115 282.97C455.698 281.916 461.308 281.336 466.972 281.39C470.42 281.416 474.253 282.354 477.764 281.97C476.022 289.076 461.943 288.87 455.689 288.96C455.591 288.96 455.502 288.96 455.412 288.96C455.001 288.96 454.617 288.978 454.287 288.987C452.634 289.049 452.625 291.834 454.287 291.772C454.671 291.754 455.091 291.745 455.528 291.736C458.986 292.468 462.488 293.191 465.802 294.512C467.856 295.334 477.781 300.485 473.752 302.725C470.045 304.787 463.104 301.895 459.602 300.681C457.226 299.86 453.152 297.057 450.615 297.512C448.9 297.824 446.926 299.699 445.353 300.574C443.629 301.538 441.887 302.457 440.136 303.341C435.536 305.653 430.372 308.501 425.173 308.733C417.571 309.072 411.853 303.261 410.388 295.557C410.031 293.673 409.066 291.058 409.164 289.129C409.29 286.71 413.006 283.345 414.775 281.363C425.361 269.517 439.6 261.563 454.662 259.081C456.958 258.706 459.397 258.358 461.728 258.376C464.212 258.394 469.759 260.134 465.846 263.419C464.515 264.535 462.291 265.053 460.674 265.669C456.949 267.106 453.224 268.544 449.49 269.972C448.194 270.472 448.292 272.775 449.829 272.704C458.226 272.338 467.883 270.115 476.12 272.561C478.451 273.248 483.642 275.962 479.202 278.854Z" fill="white"/>
<path d="M456.859 272.204C452.446 269.766 446.068 269.722 441.262 270.016C436.929 270.284 432.034 270.65 428.344 273.373C428.282 273.418 428.228 273.471 428.174 273.525C428.148 273.551 428.112 273.56 428.085 273.587C422.377 278.524 416.963 287.46 425.718 292.504C428.943 294.36 432.284 293.861 435.232 291.718C436.706 290.647 437.947 289.236 439.305 288.004C442.262 285.317 445.174 284.3 448.926 283.684C452.339 283.121 457.592 282.791 459.512 279.033C461.004 276.122 459.253 273.525 456.85 272.195L456.859 272.204Z" fill="black"/>
<path d="M454.537 280.291C451.767 281.264 448.042 280.845 445.326 281.505C441.199 282.496 437.644 284.041 435.589 287.87C431.23 295.994 421.546 297.119 420.134 290.254C419.384 286.594 424.271 281.916 426.549 279.024C427.513 277.801 428.559 276.738 429.711 275.73C434.517 272.23 442.28 272.355 447.81 272.9C449.847 273.096 451.973 273.337 453.938 273.998C456.127 274.765 456.556 274.953 456.868 277.078C456.35 279.309 456.109 279.309 454.528 280.3L454.537 280.291Z" fill="white"/>
<path d="M429.425 311.01C422.904 301.538 416.159 291.665 411.969 280.685C411.648 279.846 410.88 279.39 410.076 279.854C405.171 282.711 400.356 286.648 397.131 291.602C397.113 291.629 397.104 291.665 397.087 291.692C397.087 291.692 397.087 291.71 397.078 291.71C396.792 292.227 396.89 292.727 397.185 293.084C403.036 303.172 408.164 313.733 414.783 323.293C415.311 324.052 416.115 324.195 416.802 323.579C420.885 319.874 425.146 316.402 429.229 312.697C429.622 312.34 429.747 311.474 429.434 311.01H429.425Z" fill="black"/>
<path d="M425.048 312.849C422.314 315.661 419.116 318.044 416.15 320.606C410.094 311.608 405.234 301.806 399.811 292.379C402.5 288.532 406.27 285.425 410.147 283.015C413.095 290.246 417.062 296.932 421.216 303.413C422.377 305.234 423.565 307.028 424.762 308.814C426.263 311.046 426.924 310.912 425.057 312.84L425.048 312.849Z" fill="#ED1C24"/>
<path d="M422.573 322.356C418.553 316.705 414.221 311.027 410.933 304.823C407.333 298.038 404.993 290.299 402.616 282.925C402.286 281.916 401.214 281.586 400.463 282.309C392.504 290.031 383.981 297.476 374.45 302.823C369.911 305.376 364.337 308.081 359.084 307.296C353.349 306.448 347.015 301.466 342.334 297.949C331.114 289.54 323.958 277.167 317.169 264.651C310.657 252.644 304.698 240.298 298.588 228.042C293.38 217.606 288.323 206.652 281.382 197.404C280.989 196.886 280.489 196.833 280.078 197.047C279.685 197.136 279.345 197.44 279.229 198.011C277.148 208.813 275.182 219.659 272.931 230.416C271.109 239.12 269.858 247.619 269.617 256.537C269.295 268.892 268.447 281.113 270.617 293.343C272.895 306.198 277.559 318.419 283.026 330.042C287.877 340.362 293.826 350.092 301.92 357.787C318.196 373.267 340.592 377.346 361.273 371.24C373.994 367.491 385.67 359.956 396.524 352.038C406.887 344.477 416.15 335.425 422.573 323.713C422.788 323.329 422.841 322.686 422.573 322.311V322.356Z" fill="black"/>
<path d="M417.696 326.891C410.094 338.791 399.034 347.423 387.734 354.841C374.807 363.313 361.398 370.312 346.042 371.178C332.463 371.946 318.983 368.232 307.95 359.528C297.909 351.61 290.825 340.522 285.25 328.685C278.327 313.964 272.762 298.172 271.779 281.541C271.109 270.186 271.529 257.76 272.762 246.413C274.387 231.452 278.175 216.41 281.132 201.626C287.412 210.607 292.165 221.043 297.06 230.889C303.751 244.333 310.273 257.894 317.616 270.936C324.405 282.988 331.793 293.959 342.906 301.725C347.471 304.921 353.045 309.188 358.539 310.054C362.819 310.724 367.205 309.304 371.127 307.564C382.141 302.681 391.897 294.245 400.785 285.719C403.019 292.664 405.323 299.878 408.7 306.225C410.665 309.912 413.113 313.331 415.454 316.741C416.606 318.428 418.214 320.151 419.107 322.008C419.268 322.338 420.099 323.061 420.126 323.454C420.126 323.454 418.098 326.248 417.687 326.891H417.696Z" fill="white"/>
<path d="M300.365 370.884C299.517 358.198 300.365 345.638 300.651 332.926C301.464 297.101 300.24 261.107 293.129 226.006C290.61 214.026 287.019 201.609 277.63 193.815C268.875 186.54 258.129 185.031 247.426 184.665C233.008 184.174 217.33 184.826 205.645 195.136C200.142 199.993 195.899 206.322 192.058 212.714C187.135 220.909 182.168 229.47 178.22 238.263C170.251 255.992 167.768 276.73 166.205 296.146C164.463 317.776 164.311 339.835 166.678 361.421C168.456 377.579 172.172 399.334 185.956 408.788C193.532 413.983 205.091 413.126 213.694 413.841C225.584 414.823 237.537 415.385 249.454 414.921C260.174 414.501 271.01 413.341 281.391 410.297C287.358 408.547 297.444 406.378 299.731 399.182C302.483 390.505 300.955 379.811 300.356 370.884H300.365Z" fill="black"/>
<path d="M295.443 401.414C292.057 404.449 286.233 405.904 282.079 407.199C277.389 408.654 272.592 409.689 267.768 410.448C246.703 413.769 225.057 412.287 203.966 410.145C199.16 409.654 193.701 409.814 189.253 407.565C184.929 405.387 181.677 401.271 179.185 396.977C174.763 389.345 172.217 380.435 170.68 371.642C167.5 353.511 167.205 334.595 167.705 316.205C168.259 296.137 169.983 275.748 174.888 256.331C179.095 239.665 187.591 224.328 196.685 210.232C200.83 203.805 205.654 197.698 211.997 193.726C218.599 189.584 226.254 188.12 233.776 187.584C244.595 186.825 256.789 186.566 267.053 190.691C281.873 196.645 287.376 211.205 290.646 226.729C296.488 255.573 298.337 285.059 298.311 314.527C298.293 329.346 297.373 344.12 297.212 358.93C297.131 365.849 298.016 372.767 298.311 379.677C298.561 385.444 300.133 397.209 295.443 401.405V401.414Z" fill="white"/>
<path d="M269.143 295.36C264.596 273.846 259.862 252.385 255.35 230.862C255.189 230.103 254.421 229.729 253.769 229.889C250.214 230.755 246.658 231.63 243.103 232.496C242.486 232.648 242.2 233.139 242.182 233.656C242.174 233.719 242.156 233.773 242.156 233.835C240.878 256.251 239.949 278.693 238.815 301.118C238.547 306.323 238.261 311.527 237.984 316.741C237.769 320.686 237.51 324.703 239.154 328.372C242.415 335.675 250.928 338.076 253.858 345.611C254.207 346.512 255.279 347.075 256.011 346.227C261.791 339.531 267.893 332.381 270.662 323.543C273.61 314.134 271.126 304.68 269.161 295.36H269.143Z" fill="black"/>
<path d="M269.045 319.41C267.249 328.658 261.202 336.095 255.386 342.87C252.608 337.826 247.811 335.175 244.032 330.899C240.137 326.48 240.289 321.535 240.61 315.803C240.914 310.251 241.209 304.698 241.495 299.137C242.567 277.747 243.478 256.358 244.675 234.978C247.498 234.29 250.321 233.594 253.144 232.907C257.057 251.52 261.121 270.088 265.088 288.692C267.151 298.378 270.984 309.474 269.045 319.419V319.41Z" fill="#ED1C24"/>
<path d="M261.755 215.374C261.309 211.83 259.093 210.036 255.913 209.866C249.401 209.509 242.129 211.776 235.697 212.749C228.264 214.097 229.685 219.337 232.231 225.158C234.053 229.318 236.054 233.54 238.368 237.406C240.458 240.896 242.513 241.619 246.265 241.003C248.731 240.593 253.867 240.2 255.913 238.789C257.101 237.968 257.557 235.629 258.039 234.255C259.951 228.773 262.515 221.328 261.764 215.365L261.755 215.374Z" fill="black"/>
<path d="M256.735 229.809C256.056 232.139 255.332 235.317 253.17 236.611C252.081 237.263 248.722 237.736 247.48 237.897C240.494 238.781 238.529 232.416 235.875 226.836C233.937 222.774 229.899 216.615 236.394 215.436C240.244 214.856 244.094 214.276 247.944 213.687C252.831 212.946 258.816 210.419 259.049 218.65C259.147 222.176 257.726 226.452 256.744 229.809H256.735Z" fill="#ED1C24"/>
<path d="M332.677 342.549C329.917 326.81 314.266 316.714 300.472 316.259C292.03 315.982 283.722 318.49 276.21 322.543C272.082 324.766 268.178 327.471 264.48 330.444C262.854 331.747 260.433 333.068 259.745 335.13C258.727 338.183 259.558 343.37 259.486 346.593C259.397 350.422 259.317 354.261 259.227 358.091C259.218 358.564 259.477 359.073 259.862 359.296C266.964 363.331 275.289 364.17 282.883 361.135C284.571 360.456 286.286 358.921 287.93 358.448C291.289 357.466 293.594 362.269 294.014 365.5C294.451 368.839 293.969 372.446 295.729 375.481C298.632 380.498 302.974 375.293 304.752 371.758C304.832 371.597 304.895 371.428 304.966 371.258C306.243 372.472 308.066 372.972 309.951 372.713C313.417 372.249 314.185 369.553 314.936 366.134C314.998 365.857 315.025 365.581 315.079 365.313C315.391 365.456 315.766 365.447 316.15 365.152C319.733 362.394 321.537 355.966 321.627 351.413C321.707 347.209 319.885 343.245 317.508 339.647C319.34 341.112 321.109 342.674 322.717 344.423C324.467 346.334 326.299 349.798 329.157 349.869C332.927 349.967 333.213 345.611 332.677 342.549Z" fill="black"/>
<path d="M330.363 344.941C328.523 348.066 321.939 339.844 320.456 338.585C317.571 336.121 314.462 333.979 311.389 331.81C311.184 331.613 310.969 331.515 310.755 331.497C310.71 331.497 310.674 331.497 310.63 331.497C310.621 331.497 310.612 331.497 310.603 331.497C310.121 331.497 309.71 331.854 309.504 332.327C309.504 332.345 309.495 332.354 309.486 332.372C309.477 332.399 309.459 332.434 309.451 332.461C309.29 332.908 309.317 333.443 309.701 333.899C313.22 338.121 318.33 343.852 318.956 349.815C319.331 353.395 318.018 359.698 315.311 362.322C315.275 359.43 314.543 356.618 313.39 353.886C310.925 347.994 308.852 341.763 304.868 336.844C303.778 335.496 301.955 337.469 303.045 338.808C306.842 343.495 308.843 349.664 311.166 355.288C312.336 358.109 313.104 361.188 312.64 364.277C312.488 365.286 312.3 366.973 311.782 367.866C310.639 369.848 306.94 371.312 305.993 368.027C307.396 360.956 303.903 352.958 300.294 347.334C299.356 345.87 297.123 347.262 298.069 348.735C300.991 353.288 303.608 358.841 303.76 364.509C303.849 367.777 298.882 379.185 297.051 371.258C296.336 368.152 297.024 364.902 295.899 361.894C294.728 358.76 292.263 356.538 289.806 354.609C289.467 354.341 288.841 354.341 288.511 354.609C282.123 359.635 274.155 361.447 266.463 359.216C265.704 358.992 261.63 357.689 261.809 358.002C261.657 357.743 261.898 357.118 261.836 356.823C261.541 355.368 261.916 353.279 261.952 351.788C262.05 347.414 262.149 343.04 262.247 338.666C262.265 337.817 261.952 336.095 262.318 335.327C262.542 334.854 265.141 333.327 265.784 332.818C267.41 331.515 269.072 330.274 270.769 329.096C284.58 319.526 303.599 314.107 318.169 325.061C321.743 327.748 324.601 331.256 326.897 335.238C327.585 336.425 331.543 342.933 330.363 344.932V344.941Z" fill="white"/>
<path d="M264.739 348.164C264.114 344.451 263.462 340.737 262.792 337.032C262.425 334.988 262.282 331.908 260.666 330.391C257.244 327.177 253.43 332.23 250.169 332.783C249.883 332.828 249.669 332.962 249.517 333.122C249.49 333.149 249.472 333.185 249.445 333.212C249.276 333.426 249.177 333.729 249.222 334.122C250.446 345.593 251.67 357.065 252.894 368.536C252.965 369.214 253.43 370.027 254.18 369.928C258.191 369.402 262.649 368.705 265.123 364.822C268.062 360.198 265.57 353.101 264.739 348.164Z" fill="black"/>
<path d="M260.996 365.259C259.379 366.375 257.244 366.75 255.314 367.009C254.189 356.43 253.054 345.843 251.929 335.264C252.42 335.139 252.751 334.979 253.537 334.568C255.591 333.506 255.064 332.783 257.735 333.899C260.398 335.006 260.022 336.095 260.505 338.791C260.871 340.808 261.228 342.835 261.577 344.861C262.157 348.209 262.917 351.61 263.283 354.993C263.685 358.751 264.435 362.903 261.005 365.259H260.996Z" fill="#ED1C24"/>
<path d="M260.353 358.037C259.567 351.306 258.718 344.54 257.28 337.925C256.664 335.086 255.806 328.837 252.715 327.632C250.178 326.65 245.247 330.221 243.049 331.194C236.662 334.015 230.114 336.184 223.503 338.317C217.714 340.183 198.606 350.226 195.649 339.969C193.621 332.943 195.131 323.213 195.935 316.044C196.882 307.59 198.57 299.262 200.375 290.986C203.51 276.649 206.95 262.259 207.557 247.467C208.2 231.773 205.476 216.24 202.787 200.894C202.796 200.886 202.813 200.868 202.822 200.859C204.127 199.752 202.295 197.797 201 198.895C169.858 225.292 146.239 260.313 134.983 301.449C130.033 319.544 126.255 338.96 126.755 357.912C127.202 374.668 131.954 392.808 146.024 402.012C163.042 413.144 187.77 408.002 205.752 402.53C216.196 399.352 226.317 394.888 235.849 389.282C240.316 386.648 244.657 383.765 248.838 380.623C250.785 379.159 252.697 377.641 254.573 376.079C256.324 374.624 260.255 372.383 261.139 370.276C262.434 367.187 260.728 361.287 260.353 358.037Z" fill="black"/>
<path d="M256.083 371.267C247.855 378.543 238.824 384.756 229.292 389.827C210.416 399.87 188.252 406.377 167.08 405.297C156.467 404.753 146.337 401.119 139.342 392.103C134 385.211 131.275 376.418 130.087 367.625C127.72 350.128 130.641 332.024 134.348 314.982C139.914 289.379 149.428 264.553 164.07 243.414C174.298 228.64 187.153 214.517 200.535 202.85C202.813 215.794 205.038 228.845 205.109 242.066C205.172 255.939 202.474 269.508 199.526 282.943C196.891 294.959 194.166 306.948 193.058 319.267C192.513 325.293 192.156 331.569 192.737 337.612C193.031 340.647 193.728 343.656 196.096 345.566C200.241 348.914 206.449 346.887 210.88 345.441C220.939 342.138 231.239 339.219 241.03 335.077C243.469 334.041 245.872 332.926 248.293 331.863C250.464 330.908 251.062 329.81 252.563 331.221C253.885 332.452 254.332 336.487 254.716 338.193C256.181 344.709 257.03 351.396 257.798 358.046C258.102 360.626 258.37 363.215 258.629 365.804C258.968 369.285 258.87 368.821 256.101 371.276L256.083 371.267Z" fill="white"/>
<path d="M264.043 193.53C254.332 184.469 242.754 178.086 229.631 178.898C217.857 179.621 205.985 186.245 200.812 198.154C194.899 211.759 197.516 228.479 199.58 242.7C199.767 243.977 201.384 243.932 201.929 243.03C212.274 226.087 231.65 220.561 248.686 228.756C249.043 228.926 249.392 228.917 249.696 228.801C249.973 228.729 250.241 228.56 250.446 228.256C253.975 223.168 257.396 221.284 263.524 221.846C270.037 222.444 276.924 225.292 281.784 230.068C282.517 230.782 284.134 230.372 283.982 229.086C282.311 214.865 273.869 202.689 264.043 193.53Z" fill="black"/>
<path d="M262.238 218.981C255.931 218.74 252.465 221.061 248.918 225.872C231.811 218.195 212.881 223.069 201.598 238.781C199.839 226.453 198.284 212.964 202.42 201.127C206.789 188.611 219.26 181.88 231.087 181.621C242.996 181.353 253.403 187.29 262.229 195.503C270.68 203.376 278.389 213.732 280.855 225.73C275.495 221.623 268.688 219.231 262.247 218.981H262.238Z" fill="white"/>
<path d="M303.01 136.628C302.161 128.317 295.461 125.353 288.618 126.621C288.52 126.621 288.413 126.639 288.305 126.675C288.198 126.692 288.109 126.728 288.02 126.773C280.56 129.058 273.789 135.137 274.664 144.234C275.424 152.117 281.739 157.553 289.047 156.268C297.033 154.866 303.912 145.421 303.019 136.637L303.01 136.628Z" fill="black"/>
<path d="M300.303 139.824C299.463 146.644 293.791 153.447 287.171 153.679C281.132 153.884 276.996 148.43 277.121 142.19C277.264 135.2 283.383 131.004 288.975 129.362C295.577 128.014 301.268 131.888 300.294 139.833L300.303 139.824Z" fill="white"/>
<path d="M290.896 102.152C289.199 86.8242 288.395 70.1663 279.247 57.4899C269.947 44.6082 252.322 35.9846 237.242 37.404C222.467 38.7966 208.861 48.0897 200.187 60.8822C189.538 76.5849 185.733 98.9828 190.575 117.783C195.024 135.057 205.154 151.161 215.606 164.882C216.83 174.443 216.374 183.933 214.695 193.395C214.203 196.154 212.676 200.126 213.926 202.822C215.91 207.116 221.484 211.196 224.763 214.222C229.828 218.9 235.393 223.524 241.352 226.783C244.72 228.621 250.866 230.951 253.796 226.997C255.154 225.167 255.038 222.248 255.261 220.051C255.868 214.16 256.663 208.295 257.414 202.43C258.021 197.68 258.531 192.913 259.102 188.155C259.513 184.754 259.933 181.478 262.685 179.255C264.409 177.862 266.58 177.255 268.482 176.202C275.906 172.078 281.677 164.963 285.75 157.214C294.97 139.69 293.013 121.318 290.896 102.161V102.152Z" fill="black"/>
<path d="M287.403 146.859C284.276 156.045 279.006 164.972 271.627 170.801C267.321 174.202 260.612 175.3 258.093 180.799C256.798 183.629 256.672 187.021 256.333 190.101C255.77 195.324 255.082 200.537 254.412 205.741C253.966 209.205 253.519 212.669 253.117 216.141C252.59 220.721 253.314 226.631 247.435 226.175C243.826 225.899 240.539 222.926 237.528 221.016C234.223 218.918 231.15 216.374 228.193 213.74C225.656 211.473 223.199 209.098 220.823 206.634C219.554 205.313 217.071 203.438 216.347 201.68C215.088 198.644 217.634 191.69 218.072 188.423C219.152 180.246 219.135 172.122 218.063 163.954C218 163.508 217.795 163.222 217.527 163.07C208.647 151.42 200.562 138.28 195.345 124.238C189.672 108.999 189.949 91.4485 195.417 76.1564C201.116 60.1949 213.31 47.0453 228.586 42.0641C244.237 36.9667 262.041 43.0014 273.744 55.0797C284.259 65.935 286.179 81.843 287.734 96.6708C289.476 113.293 292.924 130.611 287.394 146.868L287.403 146.859Z" fill="white"/>
<path d="M288.395 102.42C288.163 100.491 287.939 98.5722 287.743 96.6528C286.188 81.825 284.268 65.908 273.753 55.0617C262.05 42.9833 244.246 36.9486 228.595 42.046C213.31 47.0273 201.125 60.1679 195.426 76.1385C189.958 91.4305 189.681 108.981 195.354 124.22C196.301 126.764 197.346 129.272 198.463 131.754L210.148 134.816C210.755 134.664 228.256 114.873 230.275 97.4741C230.275 97.4741 252.572 108.445 259.871 107.74C259.871 107.74 257.941 99.0274 257.923 92.8767C257.923 92.8767 278.023 97.1706 280.801 98.4561C282.606 99.2953 285.813 101.107 288.395 102.42Z" fill="#EAEAEA"/>
<path d="M261.103 177.032C255.029 178.398 246.122 178.916 236.796 174.3C236.796 174.3 236.197 193.297 255.77 194.886C255.958 193.288 256.163 191.699 256.333 190.101C256.663 187.021 256.797 183.638 258.093 180.799C258.807 179.237 259.87 178.032 261.112 177.032H261.103Z" fill="#EAEAEA"/>
<path d="M244.157 111.535C236.367 111.624 229.176 117.203 228.184 125.943C227.148 135.129 233.937 143.431 242.308 144.288C250.624 145.136 258.361 138.102 259.129 129.139C259.987 119.257 253.072 111.936 244.148 111.544L244.157 111.535ZM256.351 130.54C254.877 137.53 248.337 142.574 241.745 141.351C225.834 138.387 228.55 114.498 244.157 114.32C252.036 114.668 258.191 121.819 256.351 130.549V130.54Z" fill="black"/>
<path d="M286.795 109.535C286.697 109.517 286.59 109.499 286.474 109.508C286.358 109.508 286.259 109.517 286.161 109.535C269.903 110.571 267.142 140.235 284.223 142.199C301.589 144.19 305.037 110.455 286.795 109.535ZM283.713 139.244C270.421 136.2 273.413 112.811 286.474 112.285C302.223 112.731 297.891 142.485 283.713 139.244Z" fill="black"/>
<path d="M251.848 127.924C251.017 126.701 249.267 127.541 249.392 128.719C249.24 128.862 249.115 129.049 249.025 129.299C248.32 131.343 248.507 133.477 249.392 135.414C249.74 136.182 250.892 136.343 251.411 135.7C253.144 133.531 253.447 130.299 251.839 127.933L251.848 127.924Z" fill="black"/>
<path d="M288.654 124.889C287.823 123.666 286.072 124.505 286.197 125.684C286.045 125.827 285.92 126.014 285.831 126.264C285.125 128.308 285.313 130.442 286.197 132.379C286.545 133.147 287.698 133.307 288.216 132.665C289.949 130.495 290.253 127.264 288.645 124.898L288.654 124.889Z" fill="black"/>
<path d="M269.483 124.175C268.982 122.479 266.49 123.202 266.999 124.916C268.536 130.103 268.857 135.343 267.884 140.69C267.562 142.44 270.045 143.19 270.367 141.431C271.43 135.602 271.162 129.835 269.483 124.175Z" fill="black"/>
<path d="M267.955 151.01C267.758 150.689 267.419 150.474 266.928 150.519C262.273 150.947 258.191 148.814 255.529 144.663C255.341 144.377 255.109 144.199 254.859 144.109C254.332 143.806 253.671 143.868 253.34 144.591C253.206 144.77 253.117 144.975 253.09 145.207C251.053 150.376 248.704 159.223 255.448 161.437C261.353 163.374 266.249 157.625 268.16 152.278C268.357 151.742 268.223 151.304 267.946 151.01H267.955ZM257.03 158.937C252.045 158.268 253.367 152.117 254.787 148.046C257.449 151.188 260.96 153.126 264.918 153.331C263.328 156.5 260.558 159.401 257.03 158.928V158.937Z" fill="black"/>
<path d="M275.674 114.73C268.465 111.454 260.666 111.936 253.778 115.873C252.313 116.712 253.608 119.113 255.073 118.274C261.416 114.65 268.402 114.427 274.986 117.408C276.513 118.105 277.175 115.409 275.674 114.73Z" fill="black"/>
<path d="M228.13 124.327C219.805 129.791 211.479 135.254 203.153 140.717C201.741 141.646 203.028 144.047 204.448 143.119C212.774 137.655 221.1 132.192 229.426 126.729C230.837 125.8 229.551 123.399 228.13 124.327Z" fill="black"/>
<path d="M304.823 77.1476C301.268 67.3189 295.783 58.2758 289.628 50.1343C283.839 42.4838 277.04 34.9315 268.563 30.8518C257.664 25.6116 245.408 24.3083 233.66 26.1115C223.646 27.647 210.023 31.3607 203.671 40.7341C201.366 44.1264 198.901 50.3307 199.41 54.6335C199.705 57.1331 199.892 56.4189 197.194 57.3563C195.979 57.7759 194.184 58.0169 193.103 58.7935C189.396 61.4538 186.841 68.5508 185.161 72.8001C182.74 78.9152 181.141 85.3873 180.373 91.9933C178.711 106.25 181.445 120.801 188.341 133.129C192.451 140.476 197.811 144.511 203.975 149.671C204.627 150.216 205.529 150.234 205.994 149.385C216.142 131.022 226.12 111.874 228.068 90.2704C237.457 97.6977 248.23 106.303 259.513 109.098C259.888 109.187 260.219 109.115 260.469 108.937C261.005 108.705 261.371 108.142 261.094 107.384C261.094 107.384 261.094 107.384 261.094 107.375C261.068 107.223 261.014 107.08 260.943 106.955C258.879 101.313 256.521 95.5106 255.082 89.5919C256.011 89.9044 256.958 90.1186 257.673 90.3239C260.889 91.2613 264.159 91.9308 267.419 92.6539C275.736 94.484 289.047 95.8766 290.423 107.232C290.548 108.258 291.834 109.285 292.62 108.214C296.417 103.063 300.205 97.9209 304.001 92.77C304.921 91.5202 306.681 89.9312 307.199 88.4136C308.236 85.3783 305.815 79.9328 304.814 77.1565L304.823 77.1476Z" fill="black"/>
<path d="M304.868 87.1456C304.635 88.2615 302.867 89.8595 302.188 90.7879C300.58 92.9661 298.972 95.1532 297.364 97.3314C295.693 99.5989 294.023 101.866 292.343 104.143C290.065 96.8315 283.294 93.6624 276.344 91.8234C272.842 90.895 269.286 90.2255 265.758 89.4399C263.623 88.9668 255.422 88.2615 254.278 86.0833C253.528 84.655 251.652 85.6548 251.929 87.1546C253.072 93.466 255.493 99.6703 257.735 105.687C246.917 102.17 236.563 93.5196 227.666 86.5029C226.817 85.8334 225.79 86.7528 225.727 87.708C224.432 109.32 214.561 128.424 204.511 146.653C201.5 144.225 198.329 141.886 195.595 139.164C188.547 132.174 184.598 119.676 183.115 109.758C181.454 98.5812 182.892 86.8957 186.599 76.3528C188.038 72.2642 190.878 63.846 194.327 61.275C195.953 60.0609 198.972 59.6681 200.875 59.0075C201.438 58.8111 201.795 58.3023 201.822 57.6685C202 52.8032 202.688 47.6166 205.118 43.3941C207.7 38.9216 212.399 36.0828 216.758 34.0117C225.343 29.9142 235.054 28.0038 244.407 28.1288C261.702 28.3609 274.95 35.9489 286.009 49.7859C290.833 55.8206 295.113 62.4177 298.632 69.4254C300.392 72.9159 301.982 76.5313 303.161 80.2986C303.706 82.0215 305.163 85.7619 304.877 87.1546L304.868 87.1456Z" fill="black"/>
<path d="M208.334 136.655C208.272 136.62 208.218 136.602 208.155 136.584C208.111 136.557 208.075 136.53 208.03 136.512C200.821 133.513 191.843 134.013 187.555 141.913C183.705 149.019 186.126 157.678 193.067 161.133C199.973 164.57 209.647 161.722 214.007 154.929C218.67 147.662 215.025 140.137 208.334 136.655Z" fill="black"/>
<path d="M215.302 152.394C210.943 157.67 198.043 161.776 192.54 157.571C187.198 153.492 186.992 145.573 191.682 140.717C195.828 136.423 209.031 138.601 214.007 140.619C219.599 143.592 220.144 146.538 215.302 152.394Z" fill="white"/>
<path d="M537.367 385.22H310.558C305.922 385.22 302.152 389.3 302.143 394.317V395.183C302.143 400.2 305.922 404.271 310.558 404.279H537.367C542.003 404.279 545.773 400.2 545.782 395.183V394.317C545.782 389.3 542.003 385.229 537.367 385.22Z" fill="black"/>
<path d="M542.691 395.192C542.691 396.772 542.092 398.209 541.128 399.254C540.154 400.298 538.832 400.95 537.367 400.95H310.558C309.093 400.95 307.771 400.307 306.797 399.254C305.823 398.2 305.234 396.772 305.234 395.192V394.326C305.234 392.746 305.832 391.308 306.797 390.264C307.771 389.22 309.093 388.568 310.558 388.568H537.367C538.832 388.568 540.154 389.211 541.128 390.264C542.101 391.317 542.691 392.746 542.691 394.326V395.192Z" fill="#EAEAEA"/>
<path d="M389.234 399.254C389.582 398.2 389.788 396.772 389.788 395.192V394.326C389.788 392.746 389.573 391.308 389.234 390.264C388.886 389.22 388.412 388.568 387.894 388.568H310.558C309.093 388.568 307.771 389.211 306.797 390.264C305.823 391.317 305.234 392.746 305.234 394.326V395.192C305.234 396.772 305.832 398.209 306.797 399.254C307.771 400.298 309.093 400.95 310.558 400.95H387.894C388.412 400.95 388.886 400.307 389.234 399.254Z" fill="white"/>
<path d="M590.895 270.034C589.269 268.32 586.956 267.365 584.32 267.365H436.661C433.365 267.365 430.086 268.794 427.344 271.016C424.601 273.248 422.368 276.301 421.296 279.792L390.431 380.364C390.002 381.748 389.797 383.114 389.797 384.417C389.797 387.05 390.672 389.47 392.307 391.175C393.933 392.889 396.247 393.844 398.882 393.844H546.541C549.838 393.844 553.116 392.416 555.859 390.193C558.601 387.961 560.835 384.908 561.906 381.417L592.771 280.845C593.2 279.461 593.405 278.096 593.405 276.792C593.405 274.159 592.53 271.739 590.895 270.034Z" fill="black"/>
<path d="M589.841 279.8L558.976 380.372C558.145 383.086 556.305 385.675 554 387.532C551.704 389.398 548.98 390.522 546.532 390.513H398.873C396.908 390.513 395.452 389.835 394.46 388.79C393.468 387.746 392.888 386.282 392.888 384.425C392.888 383.506 393.04 382.497 393.37 381.426L424.235 280.854C425.066 278.14 426.906 275.551 429.211 273.694C431.506 271.828 434.231 270.704 436.679 270.712H584.338C586.303 270.712 587.759 271.391 588.751 272.435C589.743 273.48 590.323 274.944 590.323 276.801C590.323 277.72 590.171 278.729 589.841 279.8Z" fill="white"/>
<path d="M554.001 387.532C556.296 385.667 558.146 383.087 558.976 380.373L589.841 279.801C590.091 278.997 590.234 278.229 590.288 277.515C590.056 277.06 589.779 276.649 589.439 276.292C588.465 275.283 587.045 274.632 585.115 274.632H440.467C438.073 274.632 435.402 275.703 433.159 277.515C430.908 279.319 429.095 281.818 428.282 284.443L398.042 381.73C397.721 382.774 397.578 383.747 397.578 384.631C397.578 386.425 398.15 387.845 399.123 388.853C400.097 389.862 401.517 390.514 403.447 390.514H546.541C546.541 390.514 546.541 390.514 546.55 390.514C548.998 390.514 551.714 389.398 554.009 387.532H554.001Z" fill="#EAEAEA"/>
<path d="M661.585 400.94H8.4152C3.7788 400.94 0.00893333 405.02 0 410.037V410.903C0 415.92 3.7788 419.99 8.4152 419.999H661.585C666.221 419.999 669.991 415.92 670 410.903V410.037C670 405.02 666.221 400.949 661.585 400.94Z" fill="black"/>
<path d="M666.909 410.912C666.909 412.492 666.311 413.929 665.346 414.974C664.372 416.018 663.05 416.67 661.585 416.67H8.41509C6.95002 416.67 5.62789 416.027 4.65415 414.974C3.68042 413.92 3.09082 412.492 3.09082 410.912V410.046C3.09082 408.466 3.68935 407.029 4.65415 405.984C5.62789 404.94 6.95002 404.288 8.41509 404.288H661.585C663.05 404.288 664.372 404.931 665.346 405.984C666.319 407.038 666.909 408.466 666.909 410.046V410.912Z" fill="white"/>
<path d="M650.945 333.211C637.492 327.052 621.805 330.56 612.693 343.272C609.548 347.664 605.635 355.092 606.216 360.885C606.573 364.411 608.423 368.295 609.495 371.696C609.495 372.214 609.807 372.598 610.227 372.776C610.977 373.16 612.032 372.714 612.121 371.794C618.615 353.654 633.123 340.157 650.633 335.765C651.633 335.515 651.981 333.702 650.936 333.22L650.945 333.211Z" fill="black"/>
<path d="M610.969 367.625C610.468 365.973 609.959 364.313 609.459 362.662C608.047 358.019 610.165 353.011 612.309 348.878C619.035 335.871 633.168 330.337 646.014 334.247C630.479 339.451 617.731 351.646 610.969 367.634V367.625Z" fill="white"/>
<path d="M637.34 312.581C622.046 313.117 607.708 320.696 602.812 337.104C600.758 343.995 599.757 351.744 600.722 358.948C601.276 363.064 603.563 366.759 605.242 370.455C605.528 371.08 606.037 371.25 606.511 371.125C607.011 371.125 607.485 370.83 607.592 370.125C611.076 348.423 618.598 325.659 637.992 315.179C639.144 314.563 638.581 312.545 637.34 312.59V312.581Z" fill="black"/>
<path d="M605.76 365.599C604.903 363.903 604.063 362.171 603.545 360.421C601.794 354.511 603.125 346.575 604.51 340.782C606.234 333.551 609.182 327.293 614.908 322.901C619.938 319.044 625.709 316.848 631.712 315.902C616.364 326.945 609.289 346.37 605.769 365.599H605.76Z" fill="white"/>
<path d="M585.169 339.675C577.647 330.712 565.453 328.069 554.823 330.096C553.733 330.301 553.581 332.104 554.519 332.64C565.06 338.63 574.547 347.084 581.363 357.716C583.981 361.796 586.08 366.313 588.349 370.634C588.403 370.812 588.501 370.973 588.617 371.098C588.966 371.553 589.466 371.642 589.904 371.491C590.306 371.401 590.672 371.107 590.824 370.553C593.763 360.269 591.985 347.816 585.16 339.675H585.169Z" fill="black"/>
<path d="M559.218 332.292C567.981 331.64 577.379 334.444 583.347 341.639C588.805 348.227 590.61 357.823 589.118 366.429C586.804 361.957 584.508 357.484 581.605 353.422C575.468 344.835 567.838 337.747 559.218 332.283V332.292Z" fill="white"/>
<path d="M599.445 368.983C612.505 345.272 610.665 315.911 594.942 294.192C594.263 293.254 592.655 294.031 592.745 295.174C594.683 319.634 594.236 344.121 596.863 368.492C596.791 369.482 597.863 370.232 598.685 369.857C599.06 369.741 599.364 369.456 599.436 368.983H599.445Z" fill="black"/>
<path d="M599.007 364.099C597.006 342.772 597.122 321.365 595.675 299.958C607.574 319.142 608.789 343.567 599.007 364.099Z" fill="white"/>
<path d="M596.889 367.705C602.196 342.603 593.388 312.545 567.749 306.27C566.748 306.02 565.614 307.251 566.293 308.314C573.984 320.169 580.461 332.89 585.383 346.37C587.116 351.11 588.135 356.457 590.243 360.974C591.44 363.528 593.075 365.929 594.469 368.357C594.745 368.839 595.147 369.027 595.549 369.009C596.059 369.062 596.559 368.812 596.764 368.188C596.836 368.036 596.872 367.875 596.881 367.705H596.889Z" fill="black"/>
<path d="M586.518 342.031C582.158 330.783 576.754 320.089 570.465 309.992C591.136 317.321 598.524 342.174 594.951 364.054C594.058 362.59 593.173 361.117 592.476 359.582C589.984 354.119 588.715 347.709 586.518 342.04V342.031Z" fill="white"/>
<path d="M620.652 366.241C619.83 364.251 618.848 362.572 617.642 361.323C617.043 360.698 616.382 360.189 615.65 359.823C614.926 359.457 614.131 359.251 613.318 359.251H583.49C582.677 359.251 581.882 359.457 581.158 359.823C579.881 360.466 578.817 361.546 577.906 362.903C576.539 364.947 575.476 367.634 574.726 370.785C573.985 373.928 573.565 377.525 573.565 381.346V381.516L573.592 381.676C573.592 381.676 574.547 386.854 576.102 392.076C576.879 394.692 577.808 397.316 578.898 399.405C579.452 400.45 580.041 401.369 580.747 402.11C581.104 402.476 581.498 402.798 581.962 403.048C582.418 403.289 582.945 403.449 583.499 403.449H613.327C613.881 403.449 614.408 403.289 614.864 403.048C615.721 402.583 616.364 401.869 616.945 401.048C617.954 399.593 618.794 397.709 619.545 395.647C620.67 392.558 621.581 389.095 622.225 386.372C622.859 383.658 623.225 381.703 623.225 381.676L623.252 381.516V381.346C623.252 375.525 622.287 370.232 620.652 366.241Z" fill="black"/>
<path d="M617.49 391.978C616.766 394.299 615.918 396.531 615.06 398.075C614.64 398.843 614.211 399.432 613.872 399.753C613.702 399.914 613.559 400.012 613.47 400.057C613.372 400.101 613.336 400.101 613.318 400.101H583.49C583.49 400.101 583.427 400.101 583.32 400.048C583.123 399.95 582.739 399.61 582.337 399.03C581.614 398.013 580.836 396.325 580.149 394.424C579.103 391.558 578.21 388.193 577.594 385.55C577.281 384.229 577.04 383.095 576.879 382.292C576.799 381.89 576.736 381.569 576.691 381.355C576.682 381.283 576.673 381.248 576.665 381.203C576.682 375.856 577.594 370.99 578.996 367.607C579.693 365.902 580.515 364.572 581.319 363.751C581.721 363.34 582.114 363.045 582.471 362.867C582.837 362.688 583.168 362.608 583.507 362.608H613.336C613.675 362.608 614.006 362.688 614.372 362.867C615.006 363.179 615.73 363.849 616.427 364.884C617.481 366.438 618.437 368.785 619.107 371.624C619.768 374.427 620.161 377.712 620.17 381.212C620.17 381.23 620.17 381.23 620.17 381.248C619.964 382.337 618.964 387.345 617.508 391.996L617.49 391.978Z" fill="white"/>
<path d="M618.124 391.978C617.57 394.299 616.927 396.531 616.275 398.075C615.953 398.843 615.623 399.432 615.373 399.753C615.248 399.914 615.14 400.012 615.069 400.057C614.998 400.101 614.971 400.101 614.953 400.101H592.235C592.235 400.101 592.182 400.101 592.101 400.048C591.95 399.95 591.655 399.61 591.351 399.03C590.806 398.013 590.208 396.325 589.68 394.424C588.885 391.558 588.206 388.193 587.733 385.55C587.501 384.229 587.313 383.095 587.188 382.292C587.126 381.89 587.081 381.569 587.045 381.355C587.036 381.283 587.027 381.248 587.018 381.203C587.027 375.856 587.733 370.99 588.787 367.607C589.323 365.902 589.948 364.572 590.556 363.751C590.86 363.34 591.163 363.045 591.431 362.867C591.708 362.688 591.958 362.608 592.218 362.608H614.935C615.194 362.608 615.444 362.688 615.721 362.867C616.203 363.179 616.757 363.849 617.284 364.884C618.088 366.438 618.821 368.785 619.33 371.624C619.839 374.427 620.134 377.712 620.143 381.212C620.143 381.23 620.143 381.23 620.143 381.248C619.982 382.337 619.223 387.345 618.115 391.996L618.124 391.978Z" fill="#EAEAEA"/>
<path d="M617.695 355.966H579.121C572.743 355.966 567.544 361.59 567.535 368.482V371.874C567.535 378.775 572.734 384.39 579.121 384.39H617.695C624.074 384.39 629.273 378.766 629.282 371.874V368.482C629.282 361.581 624.083 355.966 617.695 355.966Z" fill="black"/>
<path d="M626.191 371.874C626.191 374.401 625.235 376.686 623.699 378.356C622.153 380.025 620.036 381.051 617.704 381.051H579.13C576.799 381.051 574.681 380.025 573.136 378.356C571.59 376.686 570.644 374.392 570.644 371.874V368.482C570.644 365.956 571.599 363.671 573.136 362.001C574.681 360.332 576.799 359.305 579.13 359.305H617.704C620.036 359.305 622.153 360.332 623.699 362.001C625.244 363.671 626.191 365.965 626.191 368.482V371.874Z" fill="white"/>
<path d="M626.191 371.874C626.191 374.401 625.485 376.686 624.351 378.356C623.207 380.025 621.653 381.051 619.929 381.051H591.503C589.779 381.051 588.224 380.025 587.081 378.356C585.946 376.686 585.24 374.392 585.24 371.874V368.482C585.24 365.956 585.946 363.671 587.081 362.001C588.224 360.332 589.779 359.305 591.503 359.305H619.929C621.653 359.305 623.207 360.332 624.351 362.001C625.485 363.671 626.191 365.965 626.191 368.482V371.874Z" fill="#EAEAEA"/>
<path d="M380.756 115.463C410.255 115.463 434.169 89.6153 434.169 57.7313C434.169 25.8472 410.255 0 380.756 0C351.258 0 327.344 25.8472 327.344 57.7313C327.344 89.6153 351.258 115.463 380.756 115.463Z" fill="#FFDEDE"/>
<path d="M338.546 80.7188L320.635 99.2424L349.248 94.645L338.546 80.7188Z" fill="#FFDEDE"/>
<path d="M391.771 83.2538C389.35 66.3996 387.555 49.4382 384.892 32.6285C384.803 32.0393 384.178 31.6108 383.651 31.6108C375.352 31.6108 367.044 31.6108 358.736 31.6108C357.985 31.6108 357.521 32.2536 357.449 33.0035C356.234 45.4031 355.028 57.8207 353.474 70.1757C352.813 75.4069 351.741 80.8078 351.491 86.0926C351.357 88.9761 351.982 90.4758 354.537 91.5471C358.378 93.1628 363.765 93.2075 367.803 93.4485C372.6 93.7342 377.397 93.5556 382.15 92.7611C387.787 91.8149 392.807 90.4669 391.771 83.2627V83.2538Z" fill="black"/>
<path d="M369.67 90.7526C365.838 90.6187 360.46 90.8241 356.877 89.3332C352.339 87.4407 354.465 82.5933 355.028 78.1655C356.877 63.5966 358.441 49.0098 359.888 34.3873C367.026 34.3873 374.172 34.3873 381.31 34.3873C381.569 34.3873 382.141 34.298 382.605 34.2891C382.605 34.5837 382.65 34.9675 382.748 35.5031C383.802 41.1807 384.41 46.9923 385.142 52.7234C386.482 63.1502 387.787 73.5859 389.279 83.9859C390.404 91.8417 374.378 90.9044 369.661 90.7437L369.67 90.7526Z" fill="white"/>
<path d="M388.108 32.7534C388.216 28.3791 387.903 24.112 387.456 19.7735C387.376 18.9968 386.929 18.4255 386.17 18.3808C376.12 17.8363 365.98 17.4881 355.957 18.6933C355.225 18.7826 354.724 19.2646 354.671 20.0859C354.331 25.2368 354.09 30.3967 354.394 35.5565C354.439 36.3242 354.948 36.9313 355.68 36.9491C366.15 37.2169 376.406 37.7882 386.867 36.6277C387.546 36.5563 388.171 36.0475 388.153 35.2351C388.135 34.4049 388.117 33.5747 388.099 32.7534H388.108Z" fill="black"/>
<path d="M356.922 34.1995C356.743 29.9145 356.904 25.6295 357.172 21.3535C366.409 20.3536 375.745 20.6125 385.009 21.1035C385.375 24.9868 385.625 28.8343 385.536 32.7533C385.536 33.155 385.553 33.5657 385.562 33.9674C375.977 34.9047 366.525 34.4673 356.931 34.1995H356.922Z" fill="#ED1C24"/>
<path d="M382.793 67.721L382.757 59.1688L375.62 59.2045V51.5005H367.714V59.2403L360.549 59.276L360.585 67.8281L367.714 67.7924V75.5054H375.62V67.7567L382.793 67.721Z" fill="#ED1C24"/>
<path d="M415.9 75.1927C414.819 71.9254 412.193 69.408 408.852 69.8454C403.224 70.5774 397.238 73.6305 391.932 75.6837C386.357 77.8351 378.791 79.7098 373.94 83.4859C368.589 87.6459 369.652 99.0726 377.192 99.0636C382.32 99.0636 387.563 95.5732 392.128 93.636C398.542 90.9222 405.242 88.8154 411.415 85.4945C415.033 83.3163 417.428 79.808 415.9 75.2016V75.1927Z" fill="black"/>
<path d="M388.198 92.3146C385.41 93.5555 382.73 95.0909 379.764 95.7783C379.032 95.9479 377.978 96.3229 377.219 96.2425C373.181 95.8408 371.707 90.4042 374.547 86.8245C376.906 83.8429 382.284 82.5841 385.607 81.1915C387 80.6023 388.412 80.0399 389.814 79.4775C391.387 82.8966 392.584 86.4406 393.459 90.1364C391.69 90.8327 389.931 91.538 388.206 92.3057L388.198 92.3146Z" fill="white" stroke="black" stroke-width="0.5" stroke-miterlimit="10"/>
<path d="M410.12 83.0842C405.564 85.5392 400.704 87.3424 395.88 89.1992C394.996 85.5034 393.781 81.9505 392.236 78.5225C393.549 78.0136 394.853 77.5048 396.166 77.0227C399.713 75.7105 403.277 74.4428 406.877 73.318C407.413 73.1484 408.137 72.7913 408.7 72.7734C415.552 72.6485 414.39 80.5132 410.12 83.0842Z" fill="#ED1C24"/>
<path d="M98.9991 191.459C128.498 191.459 152.411 165.611 152.411 133.727C152.411 101.843 128.498 75.9961 98.9991 75.9961C69.5002 75.9961 45.5867 101.843 45.5867 133.727C45.5867 165.611 69.5002 191.459 98.9991 191.459Z" fill="#FFDEDE"/>
<path d="M148.936 131.674L173.414 142.994L144.934 152.876L148.936 131.674Z" fill="#FFDEDE"/>
<path d="M93.5945 118.016C96.7212 110.258 102.394 102.492 109.201 102.09C116.017 101.688 122.949 106.598 124.102 113.874C125.308 121.524 122.413 127.809 118.367 134.227C113.9 141.324 109.442 148.412 104.976 155.509C103.93 157.179 102.698 158.982 100.866 159.384C98.8026 159.839 96.8462 158.33 95.2025 156.911C89.7621 152.224 84.3217 147.546 78.8813 142.86C74.5218 139.11 70.0552 135.218 67.3484 129.951C64.6505 124.684 64.1234 117.641 67.5806 112.918C71.0378 108.196 81.7221 107.848 85.751 112.204L93.5856 118.016H93.5945Z" fill="#ED1C24"/>
<path d="M95.7474 118.614C97.8378 113.49 101.295 107.25 106.664 104.956C111.122 103.054 116.732 105.339 119.635 109.026C123.414 113.829 122.485 120.837 120.251 126.095C118.929 129.228 117.071 132.094 115.276 134.959C113.158 138.316 111.05 141.682 108.933 145.038C106.816 148.395 104.841 151.671 102.706 154.929C102.153 155.777 101.366 157.108 100.241 157.215C98.9723 157.34 97.677 156.072 96.7926 155.313C90.8698 150.252 84.9559 145.181 79.0778 140.066C74.352 135.95 69.4744 131.344 67.9022 125.041C67.2054 122.247 67.1696 119.275 68.1434 116.543C68.5632 115.356 69.2243 114.302 69.9032 113.633C70.4303 113.124 71.4219 112.535 72.083 112.267C74.2984 111.374 76.5318 111.178 78.908 111.463C80.8644 111.696 82.7583 112.481 84.0983 113.686C85.0631 114.552 86.1976 115.275 87.2339 116.052L91.6112 119.301L92.4599 119.935C93.4336 120.649 94.9523 120.096 95.5151 119.132C96.1762 117.998 95.6848 116.802 94.7111 116.079C92.1651 114.195 89.503 112.41 87.0552 110.401C86.6175 110.035 87.484 110.767 86.9212 110.214C86.4299 109.732 85.8403 109.312 85.2596 108.955C84.1072 108.25 82.7851 107.741 81.4719 107.419C78.6311 106.723 75.6027 106.732 72.7619 107.393C69.9211 108.053 67.4644 109.357 65.785 111.597C63.7035 114.365 62.8459 117.962 62.9263 121.381C63.096 129.05 67.5002 135.388 72.887 140.485C75.8082 143.244 78.917 145.806 81.9632 148.43C85.2954 151.296 88.6275 154.162 91.9596 157.027C94.8898 159.545 98.4184 162.999 102.59 161.098C104.225 160.348 105.386 158.902 106.369 157.447C107.539 155.706 108.611 153.903 109.728 152.126C112.077 148.395 114.427 144.663 116.776 140.923C118.947 137.468 121.27 134.067 123.11 130.425C126.389 123.952 128.157 115.945 124.915 109.107C122.172 103.331 115.597 99.4386 109.201 99.8314C102.108 100.269 96.998 106.482 93.8356 112.267C92.9244 113.927 92.1562 115.65 91.4415 117.4C90.9859 118.516 91.9328 119.855 93.0048 120.149C94.2823 120.498 95.2918 119.712 95.7563 118.587L95.7474 118.614Z" fill="#ED1C24"/>
<path d="M57.8164 153.626L81.5433 153.465C81.5433 153.465 82.2223 137.762 84.9291 138.941C87.6448 140.119 88.5471 163.597 91.2539 165.945C93.9696 168.293 92.7279 136.111 96.6764 131.148C100.625 126.184 99.3921 170.703 102.099 173.319C104.815 175.926 103.341 143.636 106.789 141.583C110.237 139.53 108.218 152.885 112.739 153.795C117.259 154.706 117.107 152.671 119.823 152.68C123.396 152.697 143.594 152.197 139.646 152.117" stroke="white" stroke-width="3" stroke-miterlimit="10"/>
<path d="M444.764 224.971C474.263 224.971 498.176 199.124 498.176 167.24C498.176 135.355 474.263 109.508 444.764 109.508C415.265 109.508 391.351 135.355 391.351 167.24C391.351 199.124 415.265 224.971 444.764 224.971Z" fill="#FFDEDE"/>
<path d="M398.328 162.303C395.818 162.303 370.161 169.614 370.161 169.614L397.721 181.817L398.328 162.303Z" fill="#FFDEDE"/>
<path d="M467.428 121.846C464.801 126.738 462.184 131.63 459.557 136.522C453.929 134.665 448.024 143.44 445.782 147.538C439.824 158.411 433.883 169.293 428.46 180.505C426.039 179.934 423.592 179.452 421.18 178.845C419.688 178.47 419.045 180.47 420.188 181.389C422.654 183.371 425.2 185.21 427.799 186.924C426.057 190.611 424.172 194.199 422.1 197.681C419.661 196.869 414.953 196.101 414.417 199.199C413.801 202.725 419.884 206.635 422.046 207.947C424.539 209.456 430.756 212.928 433.695 211.063C436.34 209.384 433.436 205.144 431.65 203.18C433.258 199.44 435.116 195.869 437.17 192.387C439.895 193.78 442.673 195.065 445.514 196.199C446.515 196.601 447.64 195.11 446.97 194.155C445.443 191.968 443.924 189.781 442.396 187.593C447.524 176.899 453.375 166.633 458.494 155.929C460.397 151.939 466.114 142.128 461.8 137.888C464.417 133.004 467.034 128.13 469.652 123.247C470.483 121.694 468.258 120.292 467.428 121.846Z" fill="black"/>
<path d="M428.97 202.796C428.97 202.796 428.952 202.867 428.934 202.912C428.657 203.385 428.648 204.001 429.166 204.483C430.033 205.269 431.373 206.608 431.641 207.884C431.775 208.116 431.918 208.348 432.052 208.572C431.391 208.536 430.738 208.438 430.095 208.295C427.728 207.795 425.432 206.813 423.342 205.536C421.501 204.421 419.152 202.965 417.937 201.01C416.82 199.207 417.267 200.234 418.267 199.859C419.473 199.404 421.171 200.198 422.287 200.689C422.931 200.975 423.413 200.662 423.654 200.162C423.681 200.127 423.717 200.091 423.735 200.046C426.031 196.27 428.094 192.36 429.997 188.334C431.587 189.325 433.195 190.262 434.83 191.155C432.632 194.895 430.64 198.734 428.97 202.796Z" fill="white"/>
<path d="M457.119 152.715C455.43 156.331 453.635 159.884 451.812 163.419C447.774 171.239 443.593 178.97 439.806 186.942C439.484 187.326 439.377 187.87 439.77 188.424C440.547 189.531 441.315 190.638 442.084 191.745C436.724 189.299 431.632 186.37 426.772 182.951C427.451 183.103 428.121 183.264 428.791 183.433C428.853 183.451 428.916 183.451 428.979 183.46C429.443 183.567 429.952 183.398 430.238 182.791C433.99 174.98 437.983 167.32 442.102 159.723C444.219 155.822 446.327 151.912 448.489 148.047C449.57 146.118 450.535 144.137 452.107 142.583C453.831 140.887 459.781 136.673 460.62 142.547C461.067 145.663 458.333 150.118 457.11 152.724L457.119 152.715Z" fill="white"/>
</g>
<defs>
<clipPath id="clip0_244_1147">
<rect width="670" height="420" fill="white"/>
</clipPath>
</defs>
</svg>
