<svg width="28" height="28" viewBox="0 0 28 28" fill="none" xmlns="http://www.w3.org/2000/svg">
<path d="M14 7.09955C12.5899 7.09955 11.4468 5.95644 11.4468 4.54636C11.4468 3.13627 12.5899 1.99316 14 1.99316C15.4101 1.99316 16.5532 3.13627 16.5532 4.54636C16.5532 5.95644 15.4101 7.09955 14 7.09955Z" fill="#130F40"/>
<path d="M14 16.5469C12.5899 16.5469 11.4468 15.4037 11.4468 13.9937C11.4468 12.5836 12.5899 11.4405 14 11.4405C15.4101 11.4405 16.5532 12.5836 16.5532 13.9937C16.5532 15.4037 15.4101 16.5469 14 16.5469Z" fill="#130F40"/>
<path d="M14 25.9932C12.5899 25.9932 11.4468 24.8501 11.4468 23.44C11.4468 22.0299 12.5899 20.8868 14 20.8868C15.4101 20.8868 16.5532 22.0299 16.5532 23.44C16.5532 24.8501 15.4101 25.9932 14 25.9932Z" fill="#130F40"/>
</svg>
