<svg width="27" height="27" viewBox="0 0 27 27" fill="none" xmlns="http://www.w3.org/2000/svg">
<path fill-rule="evenodd" clip-rule="evenodd" d="M13.4382 2.80591H13.5621C15.9354 2.8059 17.7995 2.80589 19.2548 3.00155C20.7461 3.20206 21.9295 3.62134 22.8592 4.55106C23.7889 5.48078 24.2082 6.66406 24.4087 8.15543C24.6043 9.6108 24.6043 11.4749 24.6043 13.8481V13.972C24.6043 16.3453 24.6043 18.2094 24.4087 19.6647C24.2082 21.1561 23.7889 22.3394 22.8592 23.2691C21.9295 24.1988 20.7461 24.6181 19.2548 24.8186C17.7995 25.0142 15.9354 25.0142 13.5621 25.0142H13.4382C11.0649 25.0142 9.20089 25.0142 7.74552 24.8186C6.25415 24.6181 5.07087 24.1988 4.14115 23.2691C3.21144 22.3394 2.79215 21.1561 2.59164 19.6647C2.39597 18.2094 2.39599 16.3453 2.396 13.972V13.8481C2.39599 11.4749 2.39597 9.6108 2.59164 8.15543C2.79215 6.66406 3.21144 5.48078 4.14115 4.55106C5.07087 3.62134 6.25415 3.20206 7.74552 3.00155C9.20088 2.80589 11.065 2.8059 13.4382 2.80591ZM9.16894 12.2851C9.16894 11.6868 8.68392 11.2017 8.08561 11.2017C7.4873 11.2017 7.00227 11.6868 7.00227 12.2851V19.3267C7.00227 19.9251 7.4873 20.4101 8.08561 20.4101C8.68392 20.4101 9.16894 19.9251 9.16894 19.3267V12.2851ZM12.419 10.6601C12.8581 10.6601 13.2363 10.9214 13.4063 11.297C14.0649 10.893 14.8397 10.6601 15.669 10.6601C18.0622 10.6601 20.0023 12.6002 20.0023 14.9934V19.3267C20.0023 19.9251 19.5172 20.4101 18.919 20.4101C18.3207 20.4101 17.8357 19.9251 17.8357 19.3267V14.9934C17.8357 13.7968 16.8655 12.8267 15.669 12.8267C14.4723 12.8267 13.5023 13.7968 13.5023 14.9934V19.3267C13.5023 19.9251 13.0172 20.4101 12.419 20.4101C11.8207 20.4101 11.3357 19.9251 11.3357 19.3267V11.7434C11.3357 11.1451 11.8207 10.6601 12.419 10.6601ZM9.44825 8.49341C9.44825 9.2413 8.84196 9.84757 8.09408 9.84757H8.08434C7.33646 9.84757 6.73017 9.2413 6.73017 8.49341C6.73017 7.74552 7.33646 7.13924 8.08434 7.13924H8.09408C8.84196 7.13924 9.44825 7.74552 9.44825 8.49341Z" fill="#D3DFFF"/>
</svg>
