<svg width="26" height="26" viewBox="0 0 26 26" fill="none" xmlns="http://www.w3.org/2000/svg">
<path fill-rule="evenodd" clip-rule="evenodd" d="M13 3.521C10.3202 3.521 7.77081 3.69392 5.46816 4.00597C3.01684 4.33815 1.35419 6.49187 1.35419 8.88207V17.1182C1.35419 19.5084 3.01684 21.6622 5.46816 21.9943C7.77081 22.3064 10.3202 22.4793 13 22.4793C15.6799 22.4793 18.2293 22.3064 20.5319 21.9943C22.9832 21.6622 24.6459 19.5084 24.6459 17.1182V8.88208C24.6459 6.49188 22.9832 4.33815 20.5319 4.00597C18.2293 3.69392 15.6799 3.521 13 3.521ZM11.2514 9.05345C11.0004 8.90284 10.6878 8.8989 10.433 9.04313C10.1783 9.18735 10.0209 9.45745 10.0209 9.75016V16.2502C10.0209 16.5429 10.1783 16.813 10.433 16.9571C10.6878 17.1014 11.0004 17.0974 11.2514 16.9469L16.6681 13.6969C16.9128 13.5501 17.0625 13.2855 17.0625 13.0002C17.0625 12.7148 16.9128 12.4503 16.6681 12.3035L11.2514 9.05345Z" fill="#130F40"/>
</svg>
