<svg width="31" height="31" viewBox="0 0 31 31" fill="none" xmlns="http://www.w3.org/2000/svg">
<rect x="0.5" y="0.910156" width="30" height="30" rx="7" fill="#D3DFFF"/>
<path d="M7.1665 10.9102L12.9274 14.1743C15.0512 15.3777 15.9485 15.3777 18.0723 14.1743L23.8332 10.9102" stroke="#130F40" stroke-width="1.5" stroke-linejoin="round"/>
<path d="M7.17965 17.1399C7.23412 19.6946 7.26136 20.9718 8.20397 21.9181C9.14657 22.8642 10.4584 22.8972 13.0822 22.9631C14.6993 23.0037 16.3004 23.0037 17.9175 22.9631C20.5413 22.8972 21.8531 22.8642 22.7958 21.9181C23.7383 20.9718 23.7656 19.6946 23.82 17.1399C23.8376 16.3185 23.8376 15.502 23.82 14.6806C23.7656 12.126 23.7383 10.8486 22.7958 9.90246C21.8531 8.95626 20.5413 8.92331 17.9175 8.85738C16.3004 8.81675 14.6993 8.81675 13.0822 8.85737C10.4584 8.92329 9.14657 8.95625 8.20396 9.90245C7.26135 10.8486 7.23412 12.1259 7.17964 14.6806C7.16212 15.502 7.16213 16.3185 7.17965 17.1399Z" stroke="#130F40" stroke-width="1.5" stroke-linejoin="round"/>
</svg>
