<svg
      width="100%"
      height="100%"
      viewBox="0 0 28 28"
      fill="none"
      xmlns="http://www.w3.org/2000/svg"
    >
      <path
        d="M20.063 14.126C19.464 14.126 18.976 14.614 18.976 15.213V23.827H4.173V9.02298H12.788C13.387 9.02298 13.875 8.53498 13.875 7.93598C13.875 7.33698 13.386 6.84998 12.787 6.84998H3.087C2.487 6.84998 2 7.33798 2 7.93698V24.914C2 25.513 2.487 26 3.087 26H20.064C20.663 26 21.151 25.513 21.151 24.913V15.212C21.15 14.614 20.662 14.126 20.063 14.126Z"
        fill="#130f40"
      />
      <path
        d="M24.913 2H15.212C14.613 2 14.125 2.487 14.125 3.087C14.125 3.687 14.613 4.173 15.212 4.173H22.307L22.092 4.389L12.192 14.289C11.769 14.713 11.769 15.402 12.192 15.825C12.615 16.249 13.305 16.249 13.729 15.825L23.827 5.726V12.787C23.827 13.386 24.315 13.874 24.914 13.874C25.513 13.874 26.001 13.386 26.001 12.787V3.087C26 2.487 25.513 2 24.913 2Z"
        fill="#130f40"
      />
    </svg>