<svg width="159" height="45" viewBox="0 0 159 45" fill="none" xmlns="http://www.w3.org/2000/svg">
<path d="M50.3044 12.7592C51.1018 12.3166 51.7609 11.749 52.2693 11.0643C52.9211 10.1767 53.2515 9.14692 53.2515 8.00378C53.2515 5.8809 52.5711 4.2488 51.2311 3.15444C49.919 2.07349 47.948 1.52539 45.3733 1.52539H37.4951V25.3014H45.8348C48.3613 25.3014 50.3507 24.6765 51.7487 23.4431C53.1582 22.2006 53.8722 20.4746 53.8722 18.314C53.8722 16.8953 53.4826 15.6564 52.7162 14.6334C52.0992 13.7908 51.2902 13.1622 50.3044 12.7592ZM48.4692 10.4748C47.734 11.093 46.7237 11.4058 45.4672 11.4058H41.158V4.64875H45.3721C46.8115 4.64875 47.8888 4.92127 48.5747 5.46083C49.2441 5.97723 49.5697 6.80394 49.5697 7.98793C49.5703 9.04754 49.2106 9.86023 48.4692 10.4748ZM41.1586 14.4639H45.9452C48.8021 14.4639 50.191 15.7332 50.191 18.3438C50.191 19.5583 49.8184 20.4832 49.0515 21.1715C48.2961 21.8482 47.2353 22.1915 45.8976 22.1915H41.1593V14.4639H41.1586Z" fill="#130F40"/>
<path d="M152.083 1.52441V18.7349L140.859 1.52441H137.318V25.2998H141V8.16741L152.192 25.2998H155.732V1.52441H152.083Z" fill="#130F40"/>
<path d="M111.14 12.7485C111.96 11.6291 112.376 10.2994 112.376 8.79843C112.376 6.44509 111.627 4.62155 110.151 3.37904C108.701 2.14872 106.611 1.52441 103.94 1.52441H95.9668V25.2998H99.6468V15.9286H104.602L109.629 25.2998H113.394V24.7255L108.081 15.125C109.368 14.5757 110.395 13.7776 111.14 12.7485ZM108.696 8.79904C108.696 10.033 108.288 10.9884 107.447 11.7206C106.617 12.4516 105.469 12.8223 104.036 12.8223H99.6474V4.64899H104.019C105.547 4.65935 106.72 5.02333 107.509 5.7336C108.307 6.44265 108.696 7.44556 108.696 8.79904Z" fill="#130F40"/>
<path d="M61.6843 1.52441H58.0195V25.2998H61.6843V1.52441Z" fill="#130F40"/>
<path d="M84.6992 1.52441H80.1925L70.3389 12.4894V1.52441H66.6748V25.2998H70.3389V17.29L72.8398 14.6915L80.9253 25.2998H85.3503L75.2974 12.0754L84.6992 1.52441Z" fill="#130F40"/>
<path d="M122.761 1.52441L113.681 25.2998H117.489L119.668 19.2537H128.947L131.158 25.2998H134.949L125.853 1.52441H122.761ZM127.816 16.1304H120.81L124.305 6.49264L127.816 16.1304Z" fill="#130F40"/>
<path d="M90.9913 1.52441H87.3271V25.2998H90.9913V1.52441Z" fill="#130F40"/>
<path d="M9.34249 13.8066C12.8184 13.8066 15.6361 10.9888 15.6361 7.5129C15.6361 4.037 12.8184 1.21924 9.34249 1.21924C5.86659 1.21924 3.04883 4.037 3.04883 7.5129C3.04883 10.9888 5.86659 13.8066 9.34249 13.8066Z" fill="#F50303"/>
<path d="M23.5017 13.8066C26.9776 13.8066 29.7953 10.9888 29.7953 7.5129C29.7953 4.037 26.9776 1.21924 23.5017 1.21924C20.0258 1.21924 17.208 4.037 17.208 7.5129C17.208 10.9888 20.0258 13.8066 23.5017 13.8066Z" fill="#FFE600"/>
<path d="M16.4216 25.6059C19.8975 25.6059 22.7152 22.7881 22.7152 19.3122C22.7152 15.8363 19.8975 13.0186 16.4216 13.0186C12.9457 13.0186 10.1279 15.8363 10.1279 19.3122C10.1279 22.7881 12.9457 25.6059 16.4216 25.6059Z" fill="#AE00B9"/>
<path fill-rule="evenodd" clip-rule="evenodd" d="M6.16487 37.044C5.17415 36.7593 4.4523 36.4106 3.99931 35.9972C3.54998 35.5802 3.32562 35.0669 3.32562 34.4572C3.32562 33.7676 3.60058 33.1982 4.1499 32.7489C4.70348 32.2959 5.42107 32.0691 6.30326 32.0691C6.90501 32.0691 7.44031 32.1855 7.90914 32.4178C8.38225 32.6507 8.74744 32.9714 9.00412 33.3799C9.26506 33.789 9.39492 34.2359 9.39492 34.7212H8.2341C8.2341 34.192 8.06583 33.7768 7.72868 33.4762C7.39153 33.1714 6.9166 33.019 6.30265 33.019C5.73322 33.019 5.28816 33.1452 4.96747 33.3982C4.65105 33.6469 4.49253 33.9938 4.49253 34.4389C4.49253 34.7955 4.64312 35.0986 4.94369 35.3473C5.24853 35.5918 5.7637 35.8168 6.48982 36.021C7.2196 36.2258 7.78904 36.452 8.19813 36.7008C8.61149 36.9453 8.91571 37.2324 9.11264 37.561C9.31322 37.8896 9.41321 38.2768 9.41321 38.7218C9.41321 39.4315 9.13642 40.0009 8.58283 40.4301C8.02925 40.8551 7.28972 41.0679 6.36301 41.0679C5.76126 41.0679 5.19976 40.9532 4.67848 40.7246C4.15721 40.4917 3.75422 40.1753 3.4695 39.7741C3.18905 39.3736 3.04883 38.9188 3.04883 38.4097H4.20965C4.20965 38.9389 4.40413 39.3577 4.7931 39.6668C5.18634 39.9717 5.70944 40.1241 6.36301 40.1241C6.97269 40.1241 7.4397 39.9997 7.76465 39.751C8.08961 39.5022 8.25178 39.1632 8.25178 38.7346C8.25178 38.3054 8.10119 37.975 7.80062 37.7421C7.50005 37.5049 6.9544 37.2727 6.16487 37.044ZM13.6669 41.0673C12.7847 41.0673 12.0665 40.7783 11.5135 40.2009C10.9599 39.6193 10.6838 38.8432 10.6838 37.8732V37.6689C10.6838 37.0233 10.8063 36.4478 11.0508 35.9423C11.2995 35.4333 11.644 35.0358 12.0854 34.7517C12.5305 34.4627 13.0115 34.3188 13.5291 34.3188C14.3753 34.3188 15.0326 34.5974 15.502 35.1553C15.9715 35.7125 16.2056 36.5106 16.2056 37.5494V38.0128H11.7964C11.8123 38.6542 11.9988 39.1736 12.3561 39.5705C12.717 39.9638 13.1743 40.1601 13.7279 40.1601C14.1211 40.1601 14.454 40.0796 14.7265 39.9192C14.999 39.7589 15.238 39.5461 15.4423 39.2815L16.1221 39.8107C15.5758 40.6484 14.7576 41.0673 13.6669 41.0673ZM13.5328 35.2321C13.0834 35.2321 12.7067 35.3967 12.4018 35.7253C12.097 36.0503 11.9086 36.5075 11.8367 37.0971H15.0966V37.0129C15.0649 36.4478 14.9125 36.0106 14.6393 35.7015C14.3674 35.3888 13.998 35.2321 13.5328 35.2321ZM20.8982 35.4369C20.73 35.4089 20.5477 35.3949 20.3507 35.3949C19.621 35.3949 19.1259 35.7058 18.865 36.327V40.9465H17.7523V34.4383H18.8351L18.8534 35.19C19.2186 34.6084 19.7356 34.3176 20.405 34.3176C20.6214 34.3176 20.7861 34.3456 20.8982 34.4017V35.4369V35.4369ZM24.4276 39.4358L26.0396 34.4371H27.1767L24.8428 40.9453H23.9948L21.6365 34.4371H22.7736L24.4276 39.4358ZM29.8251 40.9459H28.5929V34.4371H29.8251V40.9459ZM28.4996 32.7123C28.4996 32.5318 28.5539 32.3794 28.6624 32.255C28.774 32.1307 28.9386 32.0685 29.155 32.0685C29.3715 32.0685 29.5361 32.1307 29.6483 32.255C29.7604 32.3794 29.8165 32.5318 29.8165 32.7123C29.8165 32.8928 29.7604 33.0433 29.6483 33.1635C29.5361 33.2836 29.3715 33.3439 29.155 33.3439C28.9386 33.3439 28.774 33.2836 28.6618 33.1635C28.5533 33.0427 28.4996 32.8928 28.4996 32.7123ZM34.3476 40.1588C34.7445 40.1588 35.0914 40.0387 35.3883 39.7979C35.6852 39.5571 35.8499 39.2565 35.8816 38.8956H36.9345C36.9144 39.2687 36.7863 39.6236 36.5492 39.9601C36.3126 40.2972 35.9956 40.5655 35.5987 40.7661C35.2054 40.9667 34.7884 41.0667 34.3476 41.0667C33.4612 41.0667 32.7558 40.7716 32.2302 40.1826C31.709 39.5888 31.448 38.7792 31.448 37.7525V37.5659C31.448 36.9325 31.5645 36.3691 31.7968 35.8759C32.0296 35.3827 32.3619 34.9998 32.7954 34.7273C33.2325 34.4547 33.7477 34.3182 34.3409 34.3182C35.0707 34.3182 35.6761 34.5364 36.1577 34.9742C36.643 35.4113 36.9015 35.9789 36.9339 36.6764H35.881C35.8486 36.2551 35.6883 35.9106 35.3999 35.6418C35.1152 35.3693 34.7622 35.2327 34.3415 35.2327C33.7764 35.2327 33.3368 35.4369 33.024 35.8466C32.7155 36.2514 32.5607 36.8392 32.5607 37.6092V37.8195C32.5607 38.5694 32.7149 39.1468 33.024 39.5522C33.3331 39.9564 33.7739 40.1588 34.3476 40.1588ZM41.1315 41.0673C40.2493 41.0673 39.5317 40.7783 38.9781 40.2009C38.4245 39.6193 38.1483 38.8432 38.1483 37.8732V37.6689C38.1483 37.0233 38.2709 36.4478 38.5154 35.9423C38.7641 35.4333 39.1092 35.0358 39.55 34.7517C39.995 34.4627 40.4761 34.3188 40.9937 34.3188C41.8399 34.3188 42.4977 34.5974 42.9666 35.1553C43.436 35.7125 43.6701 36.5106 43.6701 37.5494V38.0128H39.261C39.2768 38.6542 39.4634 39.1736 39.8207 39.5705C40.1816 39.9638 40.6388 40.1601 41.1924 40.1601C41.5857 40.1601 41.9186 40.0796 42.1911 39.9192C42.4636 39.7589 42.7026 39.5461 42.9068 39.2815L43.5866 39.8107C43.0403 40.6484 42.2228 41.0673 41.1315 41.0673ZM40.9967 35.2321C40.5474 35.2321 40.1706 35.3967 39.8658 35.7253C39.5609 36.0503 39.3726 36.5075 39.3 37.0971H42.5605V37.0129C42.5282 36.4478 42.3758 36.0106 42.1033 35.7015C41.8308 35.3888 41.4619 35.2321 40.9967 35.2321ZM45.1748 42.6908L44.5432 42.2579C44.92 41.7324 45.1169 41.191 45.1327 40.6338V39.629H46.2216V40.5015C46.2216 40.9063 46.1216 41.3111 45.9211 41.7166C45.7241 42.1214 45.4754 42.4463 45.1748 42.6908ZM53.9303 37.0428C52.9396 36.7581 52.2178 36.4094 51.7648 35.996C51.3154 35.579 51.0911 35.0656 51.0911 34.456C51.0911 33.7664 51.366 33.197 51.9154 32.7477C52.4689 32.2953 53.1865 32.0685 54.0687 32.0685C54.6705 32.0685 55.2058 32.1849 55.6746 32.4172C56.1477 32.6501 56.5129 32.9708 56.7696 33.3799C57.0305 33.789 57.1604 34.2359 57.1604 34.7212H55.9996C55.9996 34.192 55.8313 33.7768 55.4941 33.4762C55.1576 33.1714 54.6821 33.019 54.0687 33.019C53.4993 33.019 53.0542 33.1452 52.7335 33.3976C52.4165 33.6463 52.2586 33.9932 52.2586 34.4383C52.2586 34.7949 52.4086 35.0979 52.7098 35.3467C53.0146 35.5912 53.5298 35.8161 54.2553 36.0204C54.9851 36.2246 55.5545 36.4514 55.9636 36.7002C56.3763 36.9446 56.6812 37.2312 56.8781 37.5604C57.0787 37.889 57.1787 38.2762 57.1787 38.7212C57.1787 39.4309 56.9019 40.0003 56.3489 40.4295C55.7953 40.8545 55.0558 41.0673 54.1291 41.0673C53.5273 41.0673 52.9658 40.9526 52.4446 40.7246C51.9233 40.4917 51.5203 40.1753 51.2356 39.7741C50.9545 39.373 50.8143 38.9182 50.8143 38.4085H51.9751C51.9751 38.9377 52.1696 39.3565 52.5586 39.6656C52.9518 39.9705 53.4749 40.1229 54.1285 40.1229C54.7382 40.1229 55.2052 39.9985 55.5301 39.7498C55.8551 39.501 56.0172 39.162 56.0172 38.7334C56.0172 38.3042 55.8667 37.9738 55.5661 37.7409C55.2655 37.5043 54.7205 37.2714 53.9303 37.0428ZM61.433 41.0673C60.5508 41.0673 59.8326 40.7783 59.279 40.2009C58.7254 39.6193 58.4492 38.8432 58.4492 37.8732V37.6689C58.4492 37.0233 58.5718 36.4478 58.8163 35.9423C59.065 35.4333 59.4095 35.0358 59.8509 34.7517C60.2959 34.4627 60.777 34.3188 61.2946 34.3188C62.1408 34.3188 62.798 34.5974 63.2675 35.1553C63.7363 35.7125 63.971 36.5106 63.971 37.5494V38.0128H59.5619C59.5777 38.6542 59.7643 39.1736 60.1216 39.5705C60.4825 39.9638 60.9397 40.1601 61.4927 40.1601C61.886 40.1601 62.2188 40.0796 62.4914 39.9192C62.7639 39.7589 63.0029 39.5461 63.2071 39.2815L63.8869 39.8107C63.3413 40.6484 62.5237 41.0673 61.433 41.0673ZM61.2976 35.2321C60.8483 35.2321 60.4715 35.3967 60.1667 35.7253C59.8618 36.0503 59.6735 36.5075 59.6015 37.0971H62.8621V37.0129C62.8297 36.4478 62.6773 36.0106 62.4048 35.7015C62.1317 35.3888 61.7628 35.2321 61.2976 35.2321ZM68.1284 40.1588C68.5253 40.1588 68.8722 40.0387 69.1691 39.7979C69.4654 39.5571 69.63 39.2565 69.6617 38.8956H70.7146C70.6945 39.2687 70.5665 39.6236 70.3299 39.9601C70.0934 40.2972 69.7764 40.5655 69.3795 40.7661C68.9862 40.9667 68.5692 41.0667 68.1284 41.0667C67.2419 41.0667 66.5359 40.7716 66.011 40.1826C65.4897 39.5888 65.2288 38.7792 65.2288 37.7525V37.5659C65.2288 36.9325 65.3452 36.3691 65.5775 35.8759C65.8104 35.3827 66.1433 34.9998 66.5762 34.7273C67.0133 34.4547 67.5285 34.3182 68.1223 34.3182C68.8521 34.3182 69.4575 34.5364 69.9391 34.9742C70.4238 35.4113 70.6829 35.9789 70.7146 36.6764H69.6617C69.63 36.2551 69.4697 35.9106 69.1807 35.6418C68.896 35.3693 68.543 35.2327 68.1223 35.2327C67.5565 35.2327 67.1176 35.4369 66.8048 35.8466C66.4963 36.2514 66.3415 36.8392 66.3415 37.6092V37.8195C66.3415 38.5694 66.4963 39.1468 66.8048 39.5522C67.1139 39.9564 67.5547 40.1588 68.1284 40.1588ZM76.2237 40.3021C75.7896 40.8118 75.1543 41.066 74.3166 41.066C73.6228 41.066 73.093 40.8655 72.7284 40.4643C72.3675 40.0595 72.1846 39.462 72.1809 38.6719V34.4371H73.2942V38.6414C73.2942 39.6278 73.6941 40.121 74.4964 40.121C75.3463 40.121 75.9121 39.804 76.1926 39.1706V34.4365H77.3052V40.9447H76.2468L76.2237 40.3021ZM82.3978 35.4369C82.2295 35.4089 82.0473 35.3949 81.8509 35.3949C81.1205 35.3949 80.6255 35.7058 80.3652 36.327V40.9465H79.2519V34.4383H80.3347L80.353 35.19C80.7176 34.6084 81.2352 34.3176 81.9052 34.3176C82.1222 34.3176 82.2862 34.3456 82.3978 34.4017V35.4369ZM84.9993 40.9459H83.7671V34.4371H84.9993V40.9459ZM83.6812 32.7123C83.6812 32.5318 83.7354 32.3794 83.844 32.255C83.9561 32.1307 84.1195 32.0685 84.3366 32.0685C84.5536 32.0685 84.717 32.1307 84.8304 32.255C84.9426 32.3794 84.9981 32.5318 84.9981 32.7123C84.9981 32.8928 84.9426 33.0433 84.8304 33.1635C84.717 33.2836 84.5536 33.3439 84.3366 33.3439C84.1195 33.3439 83.9561 33.2836 83.844 33.1635C83.7354 33.0427 83.6812 32.8928 83.6812 32.7123ZM88.4226 32.8623V34.4383H89.6389V35.2985H88.4226V39.3346C88.4226 39.5955 88.4769 39.7918 88.5854 39.9241C88.6939 40.0528 88.8786 40.1168 89.1384 40.1168C89.2682 40.1168 89.4444 40.0924 89.6682 40.0448V40.9472C89.3749 41.0276 89.0908 41.0673 88.8146 41.0673C88.3171 41.0673 87.9422 40.9167 87.6898 40.6161C87.4374 40.3155 87.3106 39.8881 87.3106 39.3352V35.2991H86.1254V34.4389H87.3106V32.8629H88.4226V32.8623ZM93.3189 39.3157L94.8345 34.4371H96.0258L93.4091 41.9501C93.0037 43.0328 92.3605 43.5742 91.4789 43.5742L91.268 43.5559L90.8528 43.4779V42.5756L91.1533 42.6C91.5301 42.6 91.8234 42.5238 92.0319 42.3714C92.2434 42.2189 92.4184 41.9403 92.5556 41.5355L92.8019 40.874L90.4796 34.4377H91.6941L93.3189 39.3157ZM100.344 38.595C100.344 38.1738 100.46 37.7872 100.693 37.4342C100.929 37.0812 101.378 36.6703 102.04 36.2015C101.651 35.7283 101.39 35.3473 101.258 35.0583C101.125 34.7699 101.06 34.4828 101.06 34.1981C101.06 33.5323 101.256 33.011 101.649 32.6343C102.041 32.2569 102.575 32.0685 103.249 32.0685C103.85 32.0685 104.348 32.2447 104.741 32.5977C105.134 32.9464 105.329 33.3878 105.329 33.9213C105.329 34.2743 105.24 34.6011 105.06 34.9016C104.883 35.1985 104.572 35.5113 104.127 35.8399L103.483 36.3149L105.432 38.6426C105.705 38.1213 105.841 37.5415 105.841 36.9044H106.846C106.846 37.9268 106.599 38.7749 106.106 39.4486L107.357 40.9465H106.022L105.438 40.2546C105.141 40.5192 104.792 40.7216 104.392 40.8618C103.994 40.9984 103.59 41.0667 103.176 41.0667C102.323 41.0667 101.636 40.8398 101.119 40.3869C100.603 39.9345 100.344 39.337 100.344 38.595ZM103.172 40.1582C103.762 40.1582 104.302 39.9339 104.791 39.4845L102.654 36.9282L102.456 37.0727C101.787 37.5659 101.452 38.0732 101.452 38.5944C101.452 39.0675 101.605 39.4467 101.909 39.7315C102.218 40.0156 102.638 40.1582 103.172 40.1582ZM102.171 34.1615C102.171 34.5468 102.407 35.0278 102.88 35.6052L103.59 35.1059C103.864 34.9132 104.05 34.7309 104.149 34.5584C104.25 34.3816 104.3 34.1694 104.3 33.9207C104.3 33.6518 104.2 33.4293 103.999 33.2531C103.8 33.0726 103.547 32.9824 103.241 32.9824C102.913 32.9824 102.652 33.0946 102.459 33.3189C102.267 33.5396 102.171 33.8207 102.171 34.1615ZM114.541 37.0428C113.549 36.7581 112.828 36.4094 112.375 35.996C111.926 35.579 111.701 35.0656 111.701 34.456C111.701 33.7664 111.976 33.197 112.525 32.7477C113.078 32.2947 113.797 32.0679 114.679 32.0679C115.28 32.0679 115.816 32.1843 116.285 32.4166C116.758 32.6495 117.123 32.9702 117.379 33.3793C117.641 33.7884 117.771 34.2353 117.771 34.7206H116.609C116.609 34.1914 116.442 33.7762 116.104 33.4756C115.768 33.1708 115.292 33.0184 114.679 33.0184C114.11 33.0184 113.664 33.1446 113.344 33.397C113.027 33.6457 112.868 33.9926 112.868 34.4377C112.868 34.7943 113.018 35.0973 113.319 35.3461C113.625 35.5906 114.139 35.8155 114.865 36.0198C115.596 36.224 116.165 36.4508 116.574 36.6996C116.986 36.944 117.292 37.2306 117.488 37.5598C117.689 37.8884 117.788 38.2756 117.788 38.7206C117.788 39.4303 117.513 39.9997 116.958 40.4289C116.405 40.8539 115.666 41.0667 114.739 41.0667C114.137 41.0667 113.577 40.952 113.054 40.724C112.533 40.4911 112.13 40.1747 111.846 39.7735C111.565 39.3724 111.424 38.9176 111.424 38.4079H112.586C112.586 38.9371 112.779 39.3559 113.169 39.665C113.561 39.9698 114.085 40.1223 114.739 40.1223C115.348 40.1223 115.816 39.9979 116.14 39.7491C116.465 39.5004 116.628 39.1614 116.628 38.7328C116.628 38.3036 116.477 37.9732 116.177 37.7403C115.876 37.5043 115.331 37.2714 114.541 37.0428ZM123.363 40.3021C122.93 40.8118 122.295 41.066 121.457 41.066C120.762 41.066 120.234 40.8655 119.869 40.4643C119.508 40.0595 119.325 39.462 119.321 38.6719V34.4371H120.434V38.6414C120.434 39.6278 120.835 40.121 121.637 40.121C122.487 40.121 123.052 39.804 123.333 39.1706V34.4365H124.446V40.9447H123.387L123.363 40.3021ZM131.892 37.7647C131.892 38.7554 131.665 39.5534 131.212 40.1588C130.76 40.7642 130.146 41.0673 129.371 41.0673C128.582 41.0673 127.959 40.8167 127.508 40.3155V43.4493H126.394V34.4383H127.41L127.464 35.1601C127.918 34.5986 128.547 34.3182 129.354 34.3182C130.135 34.3182 130.753 34.6126 131.207 35.2022C131.664 35.7918 131.892 36.6118 131.892 37.6622V37.7647V37.7647ZM130.775 37.6397C130.775 36.9056 130.618 36.3264 130.305 35.9015C129.993 35.4766 129.564 35.2638 129.018 35.2638C128.344 35.2638 127.839 35.5625 127.503 36.16V39.2699C127.836 39.8638 128.344 40.1601 129.031 40.1601C129.564 40.1601 129.986 39.9497 130.299 39.5284C130.616 39.1035 130.775 38.4737 130.775 37.6397ZM139.054 37.7647C139.054 38.7554 138.827 39.5534 138.376 40.1588C137.922 40.7642 137.309 41.0673 136.535 41.0673C135.744 41.0673 135.124 40.8167 134.67 40.3155V43.4493H133.557V34.4383H134.574L134.628 35.1601C135.08 34.5986 135.711 34.3182 136.517 34.3182C137.299 34.3182 137.916 34.6126 138.369 35.2022C138.826 35.7918 139.054 36.6118 139.054 37.6622V37.7647ZM137.938 37.6397C137.938 36.9056 137.782 36.3264 137.469 35.9015C137.156 35.4766 136.728 35.2638 136.182 35.2638C135.508 35.2638 135.003 35.5625 134.667 36.16V39.2699C134.999 39.8638 135.508 40.1601 136.194 40.1601C136.728 40.1601 137.15 39.9497 137.463 39.5284C137.781 39.1035 137.938 38.4737 137.938 37.6397ZM140.425 37.6324C140.425 36.9946 140.55 36.4209 140.798 35.9119C141.051 35.4028 141.401 35.0095 141.845 34.7328C142.294 34.456 142.805 34.3176 143.379 34.3176C144.265 34.3176 144.981 34.6242 145.526 35.2382C146.076 35.8521 146.351 36.6679 146.351 37.6866V37.7647C146.351 38.3981 146.229 38.9675 145.984 39.473C145.743 39.9741 145.396 40.3655 144.942 40.646C144.494 40.9264 143.977 41.0673 143.391 41.0673C142.509 41.0673 141.793 40.7606 141.244 40.1467C140.698 39.5327 140.425 38.7212 140.425 37.7104V37.6324ZM141.54 37.7647C141.54 38.4865 141.707 39.0657 142.039 39.5028C142.376 39.94 142.825 40.1588 143.387 40.1588C143.952 40.1588 144.401 39.9381 144.733 39.4973C145.067 39.0523 145.234 38.431 145.234 37.633C145.234 36.919 145.062 36.3417 144.722 35.9009C144.385 35.4558 143.936 35.2333 143.374 35.2333C142.825 35.2333 142.382 35.4516 142.045 35.8893C141.708 36.3252 141.54 36.9507 141.54 37.7647ZM151.139 35.4369C150.97 35.4089 150.788 35.3949 150.591 35.3949C149.862 35.3949 149.367 35.7058 149.105 36.327V40.9465H147.993V34.4383H149.076L149.093 35.19C149.459 34.6084 149.976 34.3176 150.645 34.3176C150.862 34.3176 151.026 34.3456 151.139 34.4017V35.4369V35.4369ZM154.222 32.8623V34.4383H155.438V35.2985H154.222V39.3346C154.222 39.5955 154.276 39.7918 154.384 39.9241C154.493 40.0528 154.678 40.1168 154.937 40.1168C155.066 40.1168 155.243 40.0924 155.467 40.0448V40.9472C155.174 41.0276 154.89 41.0673 154.614 41.0673C154.116 41.0673 153.741 40.9167 153.489 40.6161C153.235 40.3155 153.11 39.8881 153.11 39.3352V35.2991H151.924V34.4389H153.11V32.8629H154.222V32.8623Z" fill="#130F40"/>
</svg>
