<svg width="26" height="26" viewBox="0 0 26 26" fill="none" xmlns="http://www.w3.org/2000/svg">
<path fill-rule="evenodd" clip-rule="evenodd" d="M12.938 1.896H13.0619C15.4352 1.89599 17.2993 1.89597 18.7546 2.09164C20.246 2.29215 21.4293 2.71143 22.359 3.64115C23.2887 4.57087 23.708 5.75415 23.9085 7.24552C24.1041 8.70089 24.1041 10.565 24.1041 12.9382V13.0621C24.1041 15.4354 24.1041 17.2995 23.9085 18.7548C23.708 20.2461 23.2887 21.4295 22.359 22.3592C21.4293 23.2889 20.246 23.7082 18.7546 23.9087C17.2993 24.1043 15.4352 24.1043 13.0619 24.1043H12.938C10.5648 24.1043 8.70071 24.1043 7.24533 23.9087C5.75396 23.7082 4.57068 23.2889 3.64097 22.3592C2.71126 21.4295 2.29197 20.2461 2.09145 18.7548C1.89579 17.2995 1.8958 15.4354 1.89581 13.0621V12.9382C1.8958 10.5649 1.89579 8.70089 2.09145 7.24552C2.29197 5.75415 2.71126 4.57087 3.64097 3.64115C4.57068 2.71143 5.75396 2.29215 7.24533 2.09164C8.7007 1.89597 10.5648 1.89599 12.938 1.896ZM8.66876 11.3752C8.66876 10.7768 8.18374 10.2918 7.58542 10.2918C6.98712 10.2918 6.50209 10.7768 6.50209 11.3752V18.4168C6.50209 19.0152 6.98712 19.5002 7.58542 19.5002C8.18374 19.5002 8.66876 19.0152 8.66876 18.4168V11.3752ZM11.9188 9.75016C12.3579 9.75016 12.7361 10.0115 12.9062 10.3871C13.5647 9.98308 14.3395 9.75016 15.1688 9.75016C17.562 9.75016 19.5021 11.6903 19.5021 14.0835V18.4168C19.5021 19.0152 19.017 19.5002 18.4188 19.5002C17.8205 19.5002 17.3355 19.0152 17.3355 18.4168V14.0835C17.3355 12.8868 16.3654 11.9168 15.1688 11.9168C13.9722 11.9168 13.0021 12.8868 13.0021 14.0835V18.4168C13.0021 19.0152 12.517 19.5002 11.9188 19.5002C11.3205 19.5002 10.8355 19.0152 10.8355 18.4168V10.8335C10.8355 10.2352 11.3205 9.75016 11.9188 9.75016ZM8.94806 7.5835C8.94806 8.33139 8.34178 8.93766 7.5939 8.93766H7.58416C6.83628 8.93766 6.22999 8.33139 6.22999 7.5835C6.22999 6.83561 6.83628 6.22933 7.58416 6.22933H7.5939C8.34178 6.22933 8.94806 6.83561 8.94806 7.5835Z" fill="#130F40"/>
</svg>
