<svg width="30" height="30" viewBox="0 0 30 30" fill="none" xmlns="http://www.w3.org/2000/svg">
<rect width="30" height="30" rx="7" fill="#130F40"/>
<path d="M6.66663 10L12.4275 13.2641C14.5513 14.4675 15.4486 14.4675 17.5725 13.2641L23.3333 10" stroke="#FBF2FB" stroke-width="1.5" stroke-linejoin="round"/>
<path d="M6.67977 16.2295C6.73424 18.7842 6.76148 20.0614 7.70409 21.0077C8.64669 21.9538 9.95857 21.9868 12.5823 22.0527C14.1994 22.0933 15.8005 22.0933 17.4176 22.0527C20.0414 21.9868 21.3532 21.9538 22.2959 21.0077C23.2385 20.0614 23.2657 18.7842 23.3201 16.2295C23.3377 15.4081 23.3377 14.5916 23.3201 13.7702C23.2657 11.2156 23.2385 9.93825 22.2959 8.99205C21.3532 8.04586 20.0414 8.0129 17.4176 7.94698C15.8005 7.90635 14.1994 7.90635 12.5823 7.94697C9.95857 8.01289 8.64669 8.04585 7.70408 8.99205C6.76148 9.93824 6.73424 11.2155 6.67976 13.7702C6.66224 14.5916 6.66225 15.4081 6.67977 16.2295Z" stroke="#FBF2FB" stroke-width="1.5" stroke-linejoin="round"/>
</svg>
