<svg width="26" height="26" viewBox="0 0 26 26" fill="none" xmlns="http://www.w3.org/2000/svg">
<path d="M10.7696 19.3706C10.7696 18.9768 10.8869 18.6347 11.0758 18.3255C11.2054 18.1134 11.1166 17.8126 10.8824 17.746C8.94322 17.1955 7.58335 16.3103 7.58335 13.374C7.58335 12.6106 7.82554 11.8929 8.25127 11.2683C8.35701 11.1131 8.40865 11.0426 8.42284 10.9651C8.43709 10.8874 8.4136 10.8028 8.36924 10.6187C8.2135 9.97243 8.20104 9.29163 8.37506 8.65657C8.43226 8.44782 8.55489 8.32606 8.77682 8.34957C9.0647 8.38007 9.56318 8.51636 10.3025 8.99335C10.593 9.18076 10.7382 9.27447 10.8662 9.29543C10.9941 9.31639 11.1651 9.2725 11.5072 9.18468C11.9749 9.0646 12.4568 9.00013 13 9.00013C13.5432 9.00013 14.0252 9.06459 14.4929 9.18468C14.835 9.27248 15.0059 9.31639 15.1339 9.29543C15.2618 9.27447 15.4071 9.18077 15.6975 8.99336C16.4369 8.51637 16.9353 8.38007 17.2232 8.34957C17.4452 8.32606 17.5678 8.44782 17.625 8.65657C17.799 9.29163 17.7865 9.97242 17.6308 10.6186C17.5864 10.8027 17.5629 10.8874 17.5772 10.9651C17.5914 11.0425 17.6431 11.1131 17.7487 11.2683C18.1745 11.8929 18.4167 12.6106 18.4167 13.374C18.4167 16.3103 17.0568 17.1955 15.1176 17.746C14.8834 17.8126 14.7947 18.1134 14.9242 18.3255C15.1132 18.6347 15.2304 18.9768 15.2304 19.3706V24.5392C20.5953 23.4987 24.6459 18.7758 24.6459 13.1068C24.6459 6.67496 19.4319 1.46094 13 1.46094C6.56821 1.46094 1.35419 6.67496 1.35419 13.1068C1.35419 18.7758 5.40478 23.4987 10.7696 24.5392V21.5063C10.7086 21.4991 10.6364 21.4885 10.5541 21.4729C10.32 21.4284 10.0054 21.3431 9.63859 21.1805C8.89948 20.8527 7.9762 20.2227 7.08161 19.0303C6.8123 18.6713 6.88496 18.162 7.24389 17.8927C7.60283 17.6234 8.11212 17.6961 8.38142 18.055C9.11183 19.0286 9.81565 19.4814 10.2974 19.6951C10.4891 19.78 10.6502 19.8292 10.7696 19.8576V19.3706Z" fill="#130F40"/>
</svg>
