<svg width="27" height="27" viewBox="0 0 27 27" fill="none" xmlns="http://www.w3.org/2000/svg">
<path fill-rule="evenodd" clip-rule="evenodd" d="M13.4998 4.43091C10.82 4.43091 8.27063 4.60383 5.96797 4.91588C3.51666 5.24807 1.854 7.40179 1.854 9.79198V18.0281C1.854 20.4183 3.51666 22.5721 5.96797 22.9042C8.27063 23.2163 10.82 23.3892 13.4998 23.3892C16.1797 23.3892 18.7291 23.2163 21.0317 22.9042C23.483 22.5721 25.1457 20.4183 25.1457 18.0281V9.79199C25.1457 7.40179 23.483 5.24807 21.0317 4.91588C18.7291 4.60383 16.1797 4.43091 13.4998 4.43091ZM11.7512 9.96336C11.5002 9.81276 11.1876 9.80881 10.9329 9.95304C10.6781 10.0973 10.5207 10.3674 10.5207 10.6601V17.1601C10.5207 17.4528 10.6781 17.7229 10.9329 17.8671C11.1876 18.0114 11.5002 18.0073 11.7512 17.8568L17.1679 14.6068C17.4126 14.46 17.5623 14.1954 17.5623 13.9101C17.5623 13.6247 17.4126 13.3602 17.1679 13.2134L11.7512 9.96336Z" fill="#D3DFFF"/>
</svg>
