<svg width="27" height="27" viewBox="0 0 27 27" fill="none" xmlns="http://www.w3.org/2000/svg">
<path d="M11.2694 20.2805C11.2694 19.8867 11.3867 19.5446 11.5756 19.2354C11.7052 19.0233 11.6165 18.7225 11.3822 18.656C9.44304 18.1054 8.08317 17.2202 8.08317 14.284C8.08317 13.5205 8.32536 12.8028 8.75109 12.1782C8.85682 12.023 8.90846 11.9525 8.92266 11.8751C8.9369 11.7973 8.91342 11.7127 8.86905 11.5286C8.71331 10.8823 8.70086 10.2015 8.87488 9.56648C8.93208 9.35773 9.0547 9.23598 9.27664 9.25948C9.56452 9.28998 10.063 9.42627 10.8023 9.90327C11.0928 10.0907 11.2381 10.1844 11.366 10.2053C11.4939 10.2263 11.6649 10.1824 12.007 10.0946C12.4747 9.97452 12.9567 9.91005 13.4998 9.91005C14.043 9.91005 14.525 9.97451 14.9927 10.0946C15.3348 10.1824 15.5057 10.2263 15.6337 10.2053C15.7616 10.1844 15.9069 10.0907 16.1973 9.90328C16.9367 9.42628 17.4352 9.28998 17.723 9.25948C17.945 9.23598 18.0676 9.35773 18.1248 9.56648C18.2988 10.2015 18.2863 10.8823 18.1307 11.5286C18.0862 11.7127 18.0627 11.7973 18.077 11.8751C18.0912 11.9524 18.1429 12.023 18.2485 12.1782C18.6743 12.8028 18.9165 13.5205 18.9165 14.284C18.9165 17.2202 17.5566 18.1054 15.6174 18.656C15.3832 18.7225 15.2945 19.0233 15.4241 19.2354C15.613 19.5446 15.7302 19.8867 15.7302 20.2805V25.4491C21.0951 24.4086 25.1457 19.6857 25.1457 14.0167C25.1457 7.58487 19.9317 2.37085 13.4998 2.37085C7.06802 2.37085 1.854 7.58487 1.854 14.0167C1.854 19.6857 5.9046 24.4086 11.2694 25.4491V22.4162C11.2084 22.4091 11.1362 22.3984 11.0539 22.3828C10.8198 22.3383 10.5052 22.2531 10.1384 22.0905C9.3993 21.7626 8.47602 21.1326 7.58142 19.9403C7.31212 19.5812 7.38478 19.072 7.74371 18.8026C8.10265 18.5333 8.61194 18.606 8.88124 18.9649C9.61165 19.9385 10.3155 20.3913 10.7972 20.605C10.9889 20.6899 11.15 20.7391 11.2694 20.7675V20.2805Z" fill="#D3DFFF"/>
</svg>
