<svg width="30" height="30" viewBox="0 0 30 30" fill="none" xmlns="http://www.w3.org/2000/svg">
<rect width="30" height="30" rx="7" fill="#130F40"/>
<g clip-path="url(#clip0_20608_119)">
<path d="M8.14798 14.9518C7.35796 13.5743 6.9765 12.4494 6.74649 11.3092C6.40631 9.62282 7.1848 7.97551 8.47444 6.9244C9.0195 6.48016 9.64432 6.63194 9.96663 7.21017L10.6943 8.5156C11.271 9.55031 11.5594 10.0677 11.5022 10.6162C11.445 11.1647 11.0561 11.6114 10.2783 12.5048L8.14798 14.9518ZM8.14798 14.9518C9.74705 17.7401 12.2565 20.2509 15.048 21.8518M15.048 21.8518C16.4255 22.6418 17.5504 23.0233 18.6906 23.2533C20.377 23.5935 22.0243 22.815 23.0754 21.5253C23.5196 20.9803 23.3679 20.3555 22.7896 20.0332L21.4842 19.3055C20.4495 18.7288 19.9321 18.4404 19.3836 18.4976C18.8351 18.5548 18.3884 18.9437 17.495 19.7215L15.048 21.8518Z" stroke="#FBF2FB" stroke-width="1.5" stroke-linejoin="round"/>
</g>
<defs>
<clipPath id="clip0_20608_119">
<rect width="20" height="20" fill="white" transform="translate(5 5)"/>
</clipPath>
</defs>
</svg>
