<svg width="27" height="27" viewBox="0 0 27 27" fill="none" xmlns="http://www.w3.org/2000/svg">
<path d="M17.7487 8.22429C16.8001 8.2242 15.9566 8.22413 15.2756 8.31572C14.5355 8.41527 13.7881 8.6448 13.1772 9.25584C12.5663 9.86687 12.3369 10.6145 12.2374 11.3549C12.1459 12.0361 12.1459 12.8799 12.146 13.8287V14.7264H11.3335C10.5856 14.7264 9.97933 15.3328 9.97933 16.081C9.97933 16.829 10.5856 17.4356 11.3335 17.4356H12.146V23.9327C12.146 24.4466 12.146 24.7034 11.9849 24.8626C11.8238 25.0217 11.5689 25.0185 11.0591 25.012C9.77053 24.9957 8.67473 24.9505 7.74552 24.8255C6.25415 24.625 5.07087 24.2055 4.14115 23.2755C3.21144 22.3455 2.79215 21.1619 2.59164 19.67C2.39597 18.2141 2.39599 16.3495 2.396 13.9755V13.8516C2.39599 11.4776 2.39597 9.61294 2.59164 8.15712C2.79215 6.66527 3.21144 5.48162 4.14115 4.55161C5.07087 3.6216 6.25415 3.20218 7.74552 3.00161C9.20088 2.80589 11.065 2.8059 13.4382 2.80591H13.5621C15.9354 2.8059 17.7995 2.80589 19.2548 3.00161C20.7461 3.20218 21.9295 3.6216 22.8592 4.55161C23.7889 5.48162 24.2082 6.66526 24.4087 8.15712C24.6043 9.61294 24.6043 11.4776 24.6043 13.8516V13.9756C24.6043 16.3495 24.6043 18.2141 24.4087 19.67C24.2082 21.1619 23.7889 22.3455 22.8592 23.2755C21.9295 24.2055 20.7461 24.625 19.2548 24.8255C18.3257 24.9505 17.2298 24.9957 15.9412 25.012C15.4314 25.0185 15.1765 25.0217 15.0154 24.8626C14.8543 24.7034 14.8543 24.4466 14.8543 23.9327V17.4356H16.7502C17.4981 17.4356 18.1043 16.829 18.1043 16.081C18.1043 15.3328 17.4981 14.7264 16.7502 14.7264H14.8543V13.9135C14.8543 12.8536 14.8573 12.1948 14.9216 11.7159C14.9797 11.2836 15.0655 11.1982 15.091 11.1728L15.0923 11.1715L15.0936 11.1702C15.119 11.1447 15.2044 11.0589 15.6365 11.0007C16.1153 10.9363 16.7739 10.9335 17.8335 10.9335H18.9168C19.6648 10.9335 20.271 10.327 20.271 9.57888C20.271 8.83076 19.6648 8.22429 18.9168 8.22429H17.7487Z" fill="#D3DFFF"/>
</svg>
