<svg width="31" height="31" viewBox="0 0 31 31" fill="none" xmlns="http://www.w3.org/2000/svg">
<rect x="0.5" y="0.910156" width="30" height="30" rx="7" fill="#D3DFFF"/>
<path d="M8.64785 15.8622C7.85784 14.4847 7.47638 13.3598 7.24637 12.2196C6.90619 10.5332 7.68468 8.88591 8.97432 7.8348C9.51938 7.39056 10.1442 7.54234 10.4665 8.12057L11.1942 9.426C11.7709 10.4607 12.0593 10.9781 12.0021 11.5266C11.9449 12.0751 11.556 12.5218 10.7781 13.4152L8.64785 15.8622ZM8.64785 15.8622C10.2469 18.6505 12.7564 21.1613 15.5478 22.7622M15.5478 22.7622C16.9254 23.5522 18.0503 23.9337 19.1905 24.1637C20.8768 24.5039 22.5242 23.7254 23.5753 22.4357C24.0195 21.8907 23.8678 21.2659 23.2895 20.9436L21.9841 20.2159C20.9493 19.6392 20.432 19.3508 19.8835 19.408C19.335 19.4652 18.8883 19.8541 17.9948 20.6319L15.5478 22.7622Z" stroke="#130F40" stroke-width="1.5" stroke-linejoin="round"/>
</svg>
