<svg width="26" height="26" viewBox="0 0 26 26" fill="none" xmlns="http://www.w3.org/2000/svg">
<path d="M17.2485 7.31389C16.2999 7.3138 15.4564 7.31373 14.7755 7.40532C14.0353 7.50487 13.2879 7.7344 12.677 8.34544C12.0661 8.95647 11.8367 9.7041 11.7372 10.4445C11.6457 11.1257 11.6457 11.9695 11.6458 12.9183V13.816H10.8333C10.0854 13.816 9.47915 14.4224 9.47915 15.1706C9.47915 15.9186 10.0854 16.5252 10.8333 16.5252H11.6458V23.0223C11.6458 23.5362 11.6458 23.793 11.4847 23.9522C11.3236 24.1113 11.0687 24.1081 10.5589 24.1016C9.27034 24.0853 8.17454 24.0401 7.24533 23.9151C5.75396 23.7146 4.57068 23.2951 3.64097 22.3651C2.71126 21.4351 2.29197 20.2515 2.09145 18.7596C1.89579 17.3037 1.8958 15.4391 1.89581 13.0651V12.9412C1.8958 10.5672 1.89579 8.70254 2.09145 7.24672C2.29197 5.75487 2.71126 4.57122 3.64097 3.64121C4.57068 2.7112 5.75396 2.29178 7.24533 2.09121C8.7007 1.89549 10.5648 1.8955 12.938 1.89551H13.0619C15.4352 1.8955 17.2993 1.89549 18.7546 2.09121C20.246 2.29178 21.4293 2.7112 22.359 3.64121C23.2887 4.57122 23.708 5.75486 23.9085 7.24672C24.1041 8.70254 24.1041 10.5672 24.1041 12.9412V13.0652C24.1041 15.4391 24.1041 17.3037 23.9085 18.7596C23.708 20.2515 23.2887 21.4351 22.359 22.3651C21.4293 23.2951 20.246 23.7146 18.7546 23.9151C17.8255 24.0401 16.7296 24.0853 15.4411 24.1016C14.9312 24.1081 14.6763 24.1113 14.5152 23.9522C14.3541 23.793 14.3541 23.5362 14.3541 23.0223V16.5252H16.25C16.9979 16.5252 17.6041 15.9186 17.6041 15.1706C17.6041 14.4224 16.9979 13.816 16.25 13.816H14.3541V13.0031C14.3541 11.9432 14.3571 11.2844 14.4214 10.8055C14.4795 10.3732 14.5653 10.2878 14.5909 10.2624L14.5922 10.2611L14.5935 10.2598C14.6188 10.2343 14.7042 10.1485 15.1363 10.0903C15.6151 10.0259 16.2737 10.0231 17.3333 10.0231H18.4166C19.1646 10.0231 19.7708 9.4166 19.7708 8.66848C19.7708 7.92036 19.1646 7.31389 18.4166 7.31389H17.2485Z" fill="#130F40"/>
</svg>
